<?xml version="1.0" encoding="utf-8" standalone="no"?>
<!DOCTYPE svg PUBLIC "-//W3C//DTD SVG 1.1//EN"
  "http://www.w3.org/Graphics/SVG/1.1/DTD/svg11.dtd">
<svg height="345.6pt" version="1.1" viewBox="0 0 460.8 345.6" width="460.8pt" xmlns="http://www.w3.org/2000/svg" xmlns:xlink="http://www.w3.org/1999/xlink">
 <metadata>
  <rdf:RDF xmlns:cc="http://creativecommons.org/ns#" xmlns:dc="http://purl.org/dc/elements/1.1/" xmlns:rdf="http://www.w3.org/1999/02/22-rdf-syntax-ns#">
   <cc:Work>
    <dc:type rdf:resource="http://purl.org/dc/dcmitype/StillImage"/>
    <dc:date>2021-11-03T18:45:50.961552</dc:date>
    <dc:format>image/svg+xml</dc:format>
    <dc:creator>
     <cc:Agent>
      <dc:title>Matplotlib v3.4.2, https://matplotlib.org/</dc:title>
     </cc:Agent>
    </dc:creator>
   </cc:Work>
  </rdf:RDF>
 </metadata>
 <defs>
  <style type="text/css">*{stroke-linecap:butt;stroke-linejoin:round;}</style>
 </defs>
 <g id="figure_1">
  <g id="patch_1">
   <path d="M 0 345.6 
L 460.8 345.6 
L 460.8 0 
L 0 0 
z
" style="fill:#ffffff;"/>
  </g>
  <g id="axes_1">
   <g id="patch_2">
    <path d="M 57.6 307.584 
L 414.72 307.584 
L 414.72 41.472 
L 57.6 41.472 
z
" style="fill:#ffffff;"/>
   </g>
   <g id="patch_3">
    <path clip-path="url(#pf5a4e7f27a)" d="M 73.832727 307.584 
L 77.304968 307.584 
L 77.304968 54.144 
L 73.832727 54.144 
z
"/>
   </g>
   <g id="patch_4">
    <path clip-path="url(#pf5a4e7f27a)" d="M 78.173029 307.584 
L 81.64527 307.584 
L 81.64527 138.624 
L 78.173029 138.624 
z
"/>
   </g>
   <g id="patch_5">
    <path clip-path="url(#pf5a4e7f27a)" d="M 82.51333 307.584 
L 85.985571 307.584 
L 85.985571 223.104 
L 82.51333 223.104 
z
"/>
   </g>
   <g id="patch_6">
    <path clip-path="url(#pf5a4e7f27a)" d="M 86.853632 307.584 
L 90.325873 307.584 
L 90.325873 223.104 
L 86.853632 223.104 
z
"/>
   </g>
   <g id="patch_7">
    <path clip-path="url(#pf5a4e7f27a)" d="M 91.193933 307.584 
L 94.666174 307.584 
L 94.666174 265.344 
L 91.193933 265.344 
z
"/>
   </g>
   <g id="patch_8">
    <path clip-path="url(#pf5a4e7f27a)" d="M 95.534234 307.584 
L 99.006475 307.584 
L 99.006475 265.344 
L 95.534234 265.344 
z
"/>
   </g>
   <g id="patch_9">
    <path clip-path="url(#pf5a4e7f27a)" d="M 99.874536 307.584 
L 103.346777 307.584 
L 103.346777 265.344 
L 99.874536 265.344 
z
"/>
   </g>
   <g id="patch_10">
    <path clip-path="url(#pf5a4e7f27a)" d="M 104.214837 307.584 
L 107.687078 307.584 
L 107.687078 265.344 
L 104.214837 265.344 
z
"/>
   </g>
   <g id="patch_11">
    <path clip-path="url(#pf5a4e7f27a)" d="M 108.555139 307.584 
L 112.02738 307.584 
L 112.02738 265.344 
L 108.555139 265.344 
z
"/>
   </g>
   <g id="patch_12">
    <path clip-path="url(#pf5a4e7f27a)" d="M 112.89544 307.584 
L 116.367681 307.584 
L 116.367681 265.344 
L 112.89544 265.344 
z
"/>
   </g>
   <g id="patch_13">
    <path clip-path="url(#pf5a4e7f27a)" d="M 117.235741 307.584 
L 120.707982 307.584 
L 120.707982 265.344 
L 117.235741 265.344 
z
"/>
   </g>
   <g id="patch_14">
    <path clip-path="url(#pf5a4e7f27a)" d="M 121.576043 307.584 
L 125.048284 307.584 
L 125.048284 265.344 
L 121.576043 265.344 
z
"/>
   </g>
   <g id="patch_15">
    <path clip-path="url(#pf5a4e7f27a)" d="M 125.916344 307.584 
L 129.388585 307.584 
L 129.388585 265.344 
L 125.916344 265.344 
z
"/>
   </g>
   <g id="patch_16">
    <path clip-path="url(#pf5a4e7f27a)" d="M 130.256646 307.584 
L 133.728887 307.584 
L 133.728887 265.344 
L 130.256646 265.344 
z
"/>
   </g>
   <g id="patch_17">
    <path clip-path="url(#pf5a4e7f27a)" d="M 134.596947 307.584 
L 138.069188 307.584 
L 138.069188 265.344 
L 134.596947 265.344 
z
"/>
   </g>
   <g id="patch_18">
    <path clip-path="url(#pf5a4e7f27a)" d="M 138.937248 307.584 
L 142.40949 307.584 
L 142.40949 265.344 
L 138.937248 265.344 
z
"/>
   </g>
   <g id="patch_19">
    <path clip-path="url(#pf5a4e7f27a)" d="M 143.27755 307.584 
L 146.749791 307.584 
L 146.749791 265.344 
L 143.27755 265.344 
z
"/>
   </g>
   <g id="patch_20">
    <path clip-path="url(#pf5a4e7f27a)" d="M 147.617851 307.584 
L 151.090092 307.584 
L 151.090092 265.344 
L 147.617851 265.344 
z
"/>
   </g>
   <g id="patch_21">
    <path clip-path="url(#pf5a4e7f27a)" d="M 151.958153 307.584 
L 155.430394 307.584 
L 155.430394 265.344 
L 151.958153 265.344 
z
"/>
   </g>
   <g id="patch_22">
    <path clip-path="url(#pf5a4e7f27a)" d="M 156.298454 307.584 
L 159.770695 307.584 
L 159.770695 265.344 
L 156.298454 265.344 
z
"/>
   </g>
   <g id="patch_23">
    <path clip-path="url(#pf5a4e7f27a)" d="M 160.638755 307.584 
L 164.110997 307.584 
L 164.110997 265.344 
L 160.638755 265.344 
z
"/>
   </g>
   <g id="patch_24">
    <path clip-path="url(#pf5a4e7f27a)" d="M 164.979057 307.584 
L 168.451298 307.584 
L 168.451298 265.344 
L 164.979057 265.344 
z
"/>
   </g>
   <g id="patch_25">
    <path clip-path="url(#pf5a4e7f27a)" d="M 169.319358 307.584 
L 172.791599 307.584 
L 172.791599 265.344 
L 169.319358 265.344 
z
"/>
   </g>
   <g id="patch_26">
    <path clip-path="url(#pf5a4e7f27a)" d="M 173.65966 307.584 
L 177.131901 307.584 
L 177.131901 265.344 
L 173.65966 265.344 
z
"/>
   </g>
   <g id="patch_27">
    <path clip-path="url(#pf5a4e7f27a)" d="M 177.999961 307.584 
L 181.472202 307.584 
L 181.472202 265.344 
L 177.999961 265.344 
z
"/>
   </g>
   <g id="patch_28">
    <path clip-path="url(#pf5a4e7f27a)" d="M 182.340263 307.584 
L 185.812504 307.584 
L 185.812504 265.344 
L 182.340263 265.344 
z
"/>
   </g>
   <g id="patch_29">
    <path clip-path="url(#pf5a4e7f27a)" d="M 186.680564 307.584 
L 190.152805 307.584 
L 190.152805 265.344 
L 186.680564 265.344 
z
"/>
   </g>
   <g id="patch_30">
    <path clip-path="url(#pf5a4e7f27a)" d="M 191.020865 307.584 
L 194.493106 307.584 
L 194.493106 265.344 
L 191.020865 265.344 
z
"/>
   </g>
   <g id="patch_31">
    <path clip-path="url(#pf5a4e7f27a)" d="M 195.361167 307.584 
L 198.833408 307.584 
L 198.833408 265.344 
L 195.361167 265.344 
z
"/>
   </g>
   <g id="patch_32">
    <path clip-path="url(#pf5a4e7f27a)" d="M 199.701468 307.584 
L 203.173709 307.584 
L 203.173709 265.344 
L 199.701468 265.344 
z
"/>
   </g>
   <g id="patch_33">
    <path clip-path="url(#pf5a4e7f27a)" d="M 204.04177 307.584 
L 207.514011 307.584 
L 207.514011 265.344 
L 204.04177 265.344 
z
"/>
   </g>
   <g id="patch_34">
    <path clip-path="url(#pf5a4e7f27a)" d="M 208.382071 307.584 
L 211.854312 307.584 
L 211.854312 265.344 
L 208.382071 265.344 
z
"/>
   </g>
   <g id="patch_35">
    <path clip-path="url(#pf5a4e7f27a)" d="M 212.722372 307.584 
L 216.194614 307.584 
L 216.194614 265.344 
L 212.722372 265.344 
z
"/>
   </g>
   <g id="patch_36">
    <path clip-path="url(#pf5a4e7f27a)" d="M 217.062674 307.584 
L 220.534915 307.584 
L 220.534915 265.344 
L 217.062674 265.344 
z
"/>
   </g>
   <g id="patch_37">
    <path clip-path="url(#pf5a4e7f27a)" d="M 221.402975 307.584 
L 224.875216 307.584 
L 224.875216 265.344 
L 221.402975 265.344 
z
"/>
   </g>
   <g id="patch_38">
    <path clip-path="url(#pf5a4e7f27a)" d="M 225.743277 307.584 
L 229.215518 307.584 
L 229.215518 265.344 
L 225.743277 265.344 
z
"/>
   </g>
   <g id="patch_39">
    <path clip-path="url(#pf5a4e7f27a)" d="M 230.083578 307.584 
L 233.555819 307.584 
L 233.555819 265.344 
L 230.083578 265.344 
z
"/>
   </g>
   <g id="patch_40">
    <path clip-path="url(#pf5a4e7f27a)" d="M 234.423879 307.584 
L 237.896121 307.584 
L 237.896121 265.344 
L 234.423879 265.344 
z
"/>
   </g>
   <g id="patch_41">
    <path clip-path="url(#pf5a4e7f27a)" d="M 238.764181 307.584 
L 242.236422 307.584 
L 242.236422 265.344 
L 238.764181 265.344 
z
"/>
   </g>
   <g id="patch_42">
    <path clip-path="url(#pf5a4e7f27a)" d="M 243.104482 307.584 
L 246.576723 307.584 
L 246.576723 265.344 
L 243.104482 265.344 
z
"/>
   </g>
   <g id="patch_43">
    <path clip-path="url(#pf5a4e7f27a)" d="M 247.444784 307.584 
L 250.917025 307.584 
L 250.917025 265.344 
L 247.444784 265.344 
z
"/>
   </g>
   <g id="patch_44">
    <path clip-path="url(#pf5a4e7f27a)" d="M 251.785085 307.584 
L 255.257326 307.584 
L 255.257326 265.344 
L 251.785085 265.344 
z
"/>
   </g>
   <g id="patch_45">
    <path clip-path="url(#pf5a4e7f27a)" d="M 256.125386 307.584 
L 259.597628 307.584 
L 259.597628 265.344 
L 256.125386 265.344 
z
"/>
   </g>
   <g id="patch_46">
    <path clip-path="url(#pf5a4e7f27a)" d="M 260.465688 307.584 
L 263.937929 307.584 
L 263.937929 265.344 
L 260.465688 265.344 
z
"/>
   </g>
   <g id="patch_47">
    <path clip-path="url(#pf5a4e7f27a)" d="M 264.805989 307.584 
L 268.27823 307.584 
L 268.27823 265.344 
L 264.805989 265.344 
z
"/>
   </g>
   <g id="patch_48">
    <path clip-path="url(#pf5a4e7f27a)" d="M 269.146291 307.584 
L 272.618532 307.584 
L 272.618532 265.344 
L 269.146291 265.344 
z
"/>
   </g>
   <g id="patch_49">
    <path clip-path="url(#pf5a4e7f27a)" d="M 273.486592 307.584 
L 276.958833 307.584 
L 276.958833 265.344 
L 273.486592 265.344 
z
"/>
   </g>
   <g id="patch_50">
    <path clip-path="url(#pf5a4e7f27a)" d="M 277.826894 307.584 
L 281.299135 307.584 
L 281.299135 265.344 
L 277.826894 265.344 
z
"/>
   </g>
   <g id="patch_51">
    <path clip-path="url(#pf5a4e7f27a)" d="M 282.167195 307.584 
L 285.639436 307.584 
L 285.639436 265.344 
L 282.167195 265.344 
z
"/>
   </g>
   <g id="patch_52">
    <path clip-path="url(#pf5a4e7f27a)" d="M 286.507496 307.584 
L 289.979737 307.584 
L 289.979737 265.344 
L 286.507496 265.344 
z
"/>
   </g>
   <g id="patch_53">
    <path clip-path="url(#pf5a4e7f27a)" d="M 290.847798 307.584 
L 294.320039 307.584 
L 294.320039 265.344 
L 290.847798 265.344 
z
"/>
   </g>
   <g id="patch_54">
    <path clip-path="url(#pf5a4e7f27a)" d="M 295.188099 307.584 
L 298.66034 307.584 
L 298.66034 265.344 
L 295.188099 265.344 
z
"/>
   </g>
   <g id="patch_55">
    <path clip-path="url(#pf5a4e7f27a)" d="M 299.528401 307.584 
L 303.000642 307.584 
L 303.000642 265.344 
L 299.528401 265.344 
z
"/>
   </g>
   <g id="patch_56">
    <path clip-path="url(#pf5a4e7f27a)" d="M 303.868702 307.584 
L 307.340943 307.584 
L 307.340943 265.344 
L 303.868702 265.344 
z
"/>
   </g>
   <g id="patch_57">
    <path clip-path="url(#pf5a4e7f27a)" d="M 308.209003 307.584 
L 311.681245 307.584 
L 311.681245 265.344 
L 308.209003 265.344 
z
"/>
   </g>
   <g id="patch_58">
    <path clip-path="url(#pf5a4e7f27a)" d="M 312.549305 307.584 
L 316.021546 307.584 
L 316.021546 265.344 
L 312.549305 265.344 
z
"/>
   </g>
   <g id="patch_59">
    <path clip-path="url(#pf5a4e7f27a)" d="M 316.889606 307.584 
L 320.361847 307.584 
L 320.361847 265.344 
L 316.889606 265.344 
z
"/>
   </g>
   <g id="patch_60">
    <path clip-path="url(#pf5a4e7f27a)" d="M 321.229908 307.584 
L 324.702149 307.584 
L 324.702149 265.344 
L 321.229908 265.344 
z
"/>
   </g>
   <g id="patch_61">
    <path clip-path="url(#pf5a4e7f27a)" d="M 325.570209 307.584 
L 329.04245 307.584 
L 329.04245 265.344 
L 325.570209 265.344 
z
"/>
   </g>
   <g id="patch_62">
    <path clip-path="url(#pf5a4e7f27a)" d="M 329.91051 307.584 
L 333.382752 307.584 
L 333.382752 265.344 
L 329.91051 265.344 
z
"/>
   </g>
   <g id="patch_63">
    <path clip-path="url(#pf5a4e7f27a)" d="M 334.250812 307.584 
L 337.723053 307.584 
L 337.723053 265.344 
L 334.250812 265.344 
z
"/>
   </g>
   <g id="patch_64">
    <path clip-path="url(#pf5a4e7f27a)" d="M 338.591113 307.584 
L 342.063354 307.584 
L 342.063354 265.344 
L 338.591113 265.344 
z
"/>
   </g>
   <g id="patch_65">
    <path clip-path="url(#pf5a4e7f27a)" d="M 342.931415 307.584 
L 346.403656 307.584 
L 346.403656 265.344 
L 342.931415 265.344 
z
"/>
   </g>
   <g id="patch_66">
    <path clip-path="url(#pf5a4e7f27a)" d="M 347.271716 307.584 
L 350.743957 307.584 
L 350.743957 265.344 
L 347.271716 265.344 
z
"/>
   </g>
   <g id="patch_67">
    <path clip-path="url(#pf5a4e7f27a)" d="M 351.612018 307.584 
L 355.084259 307.584 
L 355.084259 265.344 
L 351.612018 265.344 
z
"/>
   </g>
   <g id="patch_68">
    <path clip-path="url(#pf5a4e7f27a)" d="M 355.952319 307.584 
L 359.42456 307.584 
L 359.42456 265.344 
L 355.952319 265.344 
z
"/>
   </g>
   <g id="patch_69">
    <path clip-path="url(#pf5a4e7f27a)" d="M 360.29262 307.584 
L 363.764861 307.584 
L 363.764861 265.344 
L 360.29262 265.344 
z
"/>
   </g>
   <g id="patch_70">
    <path clip-path="url(#pf5a4e7f27a)" d="M 364.632922 307.584 
L 368.105163 307.584 
L 368.105163 265.344 
L 364.632922 265.344 
z
"/>
   </g>
   <g id="patch_71">
    <path clip-path="url(#pf5a4e7f27a)" d="M 368.973223 307.584 
L 372.445464 307.584 
L 372.445464 265.344 
L 368.973223 265.344 
z
"/>
   </g>
   <g id="patch_72">
    <path clip-path="url(#pf5a4e7f27a)" d="M 373.313525 307.584 
L 376.785766 307.584 
L 376.785766 265.344 
L 373.313525 265.344 
z
"/>
   </g>
   <g id="patch_73">
    <path clip-path="url(#pf5a4e7f27a)" d="M 377.653826 307.584 
L 381.126067 307.584 
L 381.126067 265.344 
L 377.653826 265.344 
z
"/>
   </g>
   <g id="patch_74">
    <path clip-path="url(#pf5a4e7f27a)" d="M 381.994127 307.584 
L 385.466368 307.584 
L 385.466368 265.344 
L 381.994127 265.344 
z
"/>
   </g>
   <g id="patch_75">
    <path clip-path="url(#pf5a4e7f27a)" d="M 386.334429 307.584 
L 389.80667 307.584 
L 389.80667 265.344 
L 386.334429 265.344 
z
"/>
   </g>
   <g id="patch_76">
    <path clip-path="url(#pf5a4e7f27a)" d="M 390.67473 307.584 
L 394.146971 307.584 
L 394.146971 265.344 
L 390.67473 265.344 
z
"/>
   </g>
   <g id="patch_77">
    <path clip-path="url(#pf5a4e7f27a)" d="M 395.015032 307.584 
L 398.487273 307.584 
L 398.487273 265.344 
L 395.015032 265.344 
z
"/>
   </g>
   <g id="matplotlib.axis_1">
    <g id="xtick_1">
     <g id="line2d_1">
      <defs>
       <path d="M 0 0 
L 0 3.5 
" id="m879dda01ca" style="stroke:#000000;stroke-width:0.8;"/>
      </defs>
      <g>
       <use style="stroke:#000000;stroke-width:0.8;" x="71.228546" xlink:href="#m879dda01ca" y="307.584"/>
      </g>
     </g>
     <g id="text_1">
      <!-- 0 -->
      <g transform="translate(68.047296 322.182437)scale(0.1 -0.1)">
       <defs>
        <path d="M 2034 4250 
Q 1547 4250 1301 3770 
Q 1056 3291 1056 2328 
Q 1056 1369 1301 889 
Q 1547 409 2034 409 
Q 2525 409 2770 889 
Q 3016 1369 3016 2328 
Q 3016 3291 2770 3770 
Q 2525 4250 2034 4250 
z
M 2034 4750 
Q 2819 4750 3233 4129 
Q 3647 3509 3647 2328 
Q 3647 1150 3233 529 
Q 2819 -91 2034 -91 
Q 1250 -91 836 529 
Q 422 1150 422 2328 
Q 422 3509 836 4129 
Q 1250 4750 2034 4750 
z
" id="DejaVuSans-30" transform="scale(0.015625)"/>
       </defs>
       <use xlink:href="#DejaVuSans-30"/>
      </g>
     </g>
    </g>
    <g id="xtick_2">
     <g id="line2d_2">
      <g>
       <use style="stroke:#000000;stroke-width:0.8;" x="114.631561" xlink:href="#m879dda01ca" y="307.584"/>
      </g>
     </g>
     <g id="text_2">
      <!-- 10 -->
      <g transform="translate(108.269061 322.182437)scale(0.1 -0.1)">
       <defs>
        <path d="M 794 531 
L 1825 531 
L 1825 4091 
L 703 3866 
L 703 4441 
L 1819 4666 
L 2450 4666 
L 2450 531 
L 3481 531 
L 3481 0 
L 794 0 
L 794 531 
z
" id="DejaVuSans-31" transform="scale(0.015625)"/>
       </defs>
       <use xlink:href="#DejaVuSans-31"/>
       <use x="63.623047" xlink:href="#DejaVuSans-30"/>
      </g>
     </g>
    </g>
    <g id="xtick_3">
     <g id="line2d_3">
      <g>
       <use style="stroke:#000000;stroke-width:0.8;" x="158.034575" xlink:href="#m879dda01ca" y="307.584"/>
      </g>
     </g>
     <g id="text_3">
      <!-- 20 -->
      <g transform="translate(151.672075 322.182437)scale(0.1 -0.1)">
       <defs>
        <path d="M 1228 531 
L 3431 531 
L 3431 0 
L 469 0 
L 469 531 
Q 828 903 1448 1529 
Q 2069 2156 2228 2338 
Q 2531 2678 2651 2914 
Q 2772 3150 2772 3378 
Q 2772 3750 2511 3984 
Q 2250 4219 1831 4219 
Q 1534 4219 1204 4116 
Q 875 4013 500 3803 
L 500 4441 
Q 881 4594 1212 4672 
Q 1544 4750 1819 4750 
Q 2544 4750 2975 4387 
Q 3406 4025 3406 3419 
Q 3406 3131 3298 2873 
Q 3191 2616 2906 2266 
Q 2828 2175 2409 1742 
Q 1991 1309 1228 531 
z
" id="DejaVuSans-32" transform="scale(0.015625)"/>
       </defs>
       <use xlink:href="#DejaVuSans-32"/>
       <use x="63.623047" xlink:href="#DejaVuSans-30"/>
      </g>
     </g>
    </g>
    <g id="xtick_4">
     <g id="line2d_4">
      <g>
       <use style="stroke:#000000;stroke-width:0.8;" x="201.437589" xlink:href="#m879dda01ca" y="307.584"/>
      </g>
     </g>
     <g id="text_4">
      <!-- 30 -->
      <g transform="translate(195.075089 322.182437)scale(0.1 -0.1)">
       <defs>
        <path d="M 2597 2516 
Q 3050 2419 3304 2112 
Q 3559 1806 3559 1356 
Q 3559 666 3084 287 
Q 2609 -91 1734 -91 
Q 1441 -91 1130 -33 
Q 819 25 488 141 
L 488 750 
Q 750 597 1062 519 
Q 1375 441 1716 441 
Q 2309 441 2620 675 
Q 2931 909 2931 1356 
Q 2931 1769 2642 2001 
Q 2353 2234 1838 2234 
L 1294 2234 
L 1294 2753 
L 1863 2753 
Q 2328 2753 2575 2939 
Q 2822 3125 2822 3475 
Q 2822 3834 2567 4026 
Q 2313 4219 1838 4219 
Q 1578 4219 1281 4162 
Q 984 4106 628 3988 
L 628 4550 
Q 988 4650 1302 4700 
Q 1616 4750 1894 4750 
Q 2613 4750 3031 4423 
Q 3450 4097 3450 3541 
Q 3450 3153 3228 2886 
Q 3006 2619 2597 2516 
z
" id="DejaVuSans-33" transform="scale(0.015625)"/>
       </defs>
       <use xlink:href="#DejaVuSans-33"/>
       <use x="63.623047" xlink:href="#DejaVuSans-30"/>
      </g>
     </g>
    </g>
    <g id="xtick_5">
     <g id="line2d_5">
      <g>
       <use style="stroke:#000000;stroke-width:0.8;" x="244.840603" xlink:href="#m879dda01ca" y="307.584"/>
      </g>
     </g>
     <g id="text_5">
      <!-- 40 -->
      <g transform="translate(238.478103 322.182437)scale(0.1 -0.1)">
       <defs>
        <path d="M 2419 4116 
L 825 1625 
L 2419 1625 
L 2419 4116 
z
M 2253 4666 
L 3047 4666 
L 3047 1625 
L 3713 1625 
L 3713 1100 
L 3047 1100 
L 3047 0 
L 2419 0 
L 2419 1100 
L 313 1100 
L 313 1709 
L 2253 4666 
z
" id="DejaVuSans-34" transform="scale(0.015625)"/>
       </defs>
       <use xlink:href="#DejaVuSans-34"/>
       <use x="63.623047" xlink:href="#DejaVuSans-30"/>
      </g>
     </g>
    </g>
    <g id="xtick_6">
     <g id="line2d_6">
      <g>
       <use style="stroke:#000000;stroke-width:0.8;" x="288.243617" xlink:href="#m879dda01ca" y="307.584"/>
      </g>
     </g>
     <g id="text_6">
      <!-- 50 -->
      <g transform="translate(281.881117 322.182437)scale(0.1 -0.1)">
       <defs>
        <path d="M 691 4666 
L 3169 4666 
L 3169 4134 
L 1269 4134 
L 1269 2991 
Q 1406 3038 1543 3061 
Q 1681 3084 1819 3084 
Q 2600 3084 3056 2656 
Q 3513 2228 3513 1497 
Q 3513 744 3044 326 
Q 2575 -91 1722 -91 
Q 1428 -91 1123 -41 
Q 819 9 494 109 
L 494 744 
Q 775 591 1075 516 
Q 1375 441 1709 441 
Q 2250 441 2565 725 
Q 2881 1009 2881 1497 
Q 2881 1984 2565 2268 
Q 2250 2553 1709 2553 
Q 1456 2553 1204 2497 
Q 953 2441 691 2322 
L 691 4666 
z
" id="DejaVuSans-35" transform="scale(0.015625)"/>
       </defs>
       <use xlink:href="#DejaVuSans-35"/>
       <use x="63.623047" xlink:href="#DejaVuSans-30"/>
      </g>
     </g>
    </g>
    <g id="xtick_7">
     <g id="line2d_7">
      <g>
       <use style="stroke:#000000;stroke-width:0.8;" x="331.646631" xlink:href="#m879dda01ca" y="307.584"/>
      </g>
     </g>
     <g id="text_7">
      <!-- 60 -->
      <g transform="translate(325.284131 322.182437)scale(0.1 -0.1)">
       <defs>
        <path d="M 2113 2584 
Q 1688 2584 1439 2293 
Q 1191 2003 1191 1497 
Q 1191 994 1439 701 
Q 1688 409 2113 409 
Q 2538 409 2786 701 
Q 3034 994 3034 1497 
Q 3034 2003 2786 2293 
Q 2538 2584 2113 2584 
z
M 3366 4563 
L 3366 3988 
Q 3128 4100 2886 4159 
Q 2644 4219 2406 4219 
Q 1781 4219 1451 3797 
Q 1122 3375 1075 2522 
Q 1259 2794 1537 2939 
Q 1816 3084 2150 3084 
Q 2853 3084 3261 2657 
Q 3669 2231 3669 1497 
Q 3669 778 3244 343 
Q 2819 -91 2113 -91 
Q 1303 -91 875 529 
Q 447 1150 447 2328 
Q 447 3434 972 4092 
Q 1497 4750 2381 4750 
Q 2619 4750 2861 4703 
Q 3103 4656 3366 4563 
z
" id="DejaVuSans-36" transform="scale(0.015625)"/>
       </defs>
       <use xlink:href="#DejaVuSans-36"/>
       <use x="63.623047" xlink:href="#DejaVuSans-30"/>
      </g>
     </g>
    </g>
    <g id="xtick_8">
     <g id="line2d_8">
      <g>
       <use style="stroke:#000000;stroke-width:0.8;" x="375.049645" xlink:href="#m879dda01ca" y="307.584"/>
      </g>
     </g>
     <g id="text_8">
      <!-- 70 -->
      <g transform="translate(368.687145 322.182437)scale(0.1 -0.1)">
       <defs>
        <path d="M 525 4666 
L 3525 4666 
L 3525 4397 
L 1831 0 
L 1172 0 
L 2766 4134 
L 525 4134 
L 525 4666 
z
" id="DejaVuSans-37" transform="scale(0.015625)"/>
       </defs>
       <use xlink:href="#DejaVuSans-37"/>
       <use x="63.623047" xlink:href="#DejaVuSans-30"/>
      </g>
     </g>
    </g>
    <g id="text_9">
     <!-- genotype -->
     <g transform="translate(212.510781 335.860562)scale(0.1 -0.1)">
      <defs>
       <path d="M 2906 1791 
Q 2906 2416 2648 2759 
Q 2391 3103 1925 3103 
Q 1463 3103 1205 2759 
Q 947 2416 947 1791 
Q 947 1169 1205 825 
Q 1463 481 1925 481 
Q 2391 481 2648 825 
Q 2906 1169 2906 1791 
z
M 3481 434 
Q 3481 -459 3084 -895 
Q 2688 -1331 1869 -1331 
Q 1566 -1331 1297 -1286 
Q 1028 -1241 775 -1147 
L 775 -588 
Q 1028 -725 1275 -790 
Q 1522 -856 1778 -856 
Q 2344 -856 2625 -561 
Q 2906 -266 2906 331 
L 2906 616 
Q 2728 306 2450 153 
Q 2172 0 1784 0 
Q 1141 0 747 490 
Q 353 981 353 1791 
Q 353 2603 747 3093 
Q 1141 3584 1784 3584 
Q 2172 3584 2450 3431 
Q 2728 3278 2906 2969 
L 2906 3500 
L 3481 3500 
L 3481 434 
z
" id="DejaVuSans-67" transform="scale(0.015625)"/>
       <path d="M 3597 1894 
L 3597 1613 
L 953 1613 
Q 991 1019 1311 708 
Q 1631 397 2203 397 
Q 2534 397 2845 478 
Q 3156 559 3463 722 
L 3463 178 
Q 3153 47 2828 -22 
Q 2503 -91 2169 -91 
Q 1331 -91 842 396 
Q 353 884 353 1716 
Q 353 2575 817 3079 
Q 1281 3584 2069 3584 
Q 2775 3584 3186 3129 
Q 3597 2675 3597 1894 
z
M 3022 2063 
Q 3016 2534 2758 2815 
Q 2500 3097 2075 3097 
Q 1594 3097 1305 2825 
Q 1016 2553 972 2059 
L 3022 2063 
z
" id="DejaVuSans-65" transform="scale(0.015625)"/>
       <path d="M 3513 2113 
L 3513 0 
L 2938 0 
L 2938 2094 
Q 2938 2591 2744 2837 
Q 2550 3084 2163 3084 
Q 1697 3084 1428 2787 
Q 1159 2491 1159 1978 
L 1159 0 
L 581 0 
L 581 3500 
L 1159 3500 
L 1159 2956 
Q 1366 3272 1645 3428 
Q 1925 3584 2291 3584 
Q 2894 3584 3203 3211 
Q 3513 2838 3513 2113 
z
" id="DejaVuSans-6e" transform="scale(0.015625)"/>
       <path d="M 1959 3097 
Q 1497 3097 1228 2736 
Q 959 2375 959 1747 
Q 959 1119 1226 758 
Q 1494 397 1959 397 
Q 2419 397 2687 759 
Q 2956 1122 2956 1747 
Q 2956 2369 2687 2733 
Q 2419 3097 1959 3097 
z
M 1959 3584 
Q 2709 3584 3137 3096 
Q 3566 2609 3566 1747 
Q 3566 888 3137 398 
Q 2709 -91 1959 -91 
Q 1206 -91 779 398 
Q 353 888 353 1747 
Q 353 2609 779 3096 
Q 1206 3584 1959 3584 
z
" id="DejaVuSans-6f" transform="scale(0.015625)"/>
       <path d="M 1172 4494 
L 1172 3500 
L 2356 3500 
L 2356 3053 
L 1172 3053 
L 1172 1153 
Q 1172 725 1289 603 
Q 1406 481 1766 481 
L 2356 481 
L 2356 0 
L 1766 0 
Q 1100 0 847 248 
Q 594 497 594 1153 
L 594 3053 
L 172 3053 
L 172 3500 
L 594 3500 
L 594 4494 
L 1172 4494 
z
" id="DejaVuSans-74" transform="scale(0.015625)"/>
       <path d="M 2059 -325 
Q 1816 -950 1584 -1140 
Q 1353 -1331 966 -1331 
L 506 -1331 
L 506 -850 
L 844 -850 
Q 1081 -850 1212 -737 
Q 1344 -625 1503 -206 
L 1606 56 
L 191 3500 
L 800 3500 
L 1894 763 
L 2988 3500 
L 3597 3500 
L 2059 -325 
z
" id="DejaVuSans-79" transform="scale(0.015625)"/>
       <path d="M 1159 525 
L 1159 -1331 
L 581 -1331 
L 581 3500 
L 1159 3500 
L 1159 2969 
Q 1341 3281 1617 3432 
Q 1894 3584 2278 3584 
Q 2916 3584 3314 3078 
Q 3713 2572 3713 1747 
Q 3713 922 3314 415 
Q 2916 -91 2278 -91 
Q 1894 -91 1617 61 
Q 1341 213 1159 525 
z
M 3116 1747 
Q 3116 2381 2855 2742 
Q 2594 3103 2138 3103 
Q 1681 3103 1420 2742 
Q 1159 2381 1159 1747 
Q 1159 1113 1420 752 
Q 1681 391 2138 391 
Q 2594 391 2855 752 
Q 3116 1113 3116 1747 
z
" id="DejaVuSans-70" transform="scale(0.015625)"/>
      </defs>
      <use xlink:href="#DejaVuSans-67"/>
      <use x="63.476562" xlink:href="#DejaVuSans-65"/>
      <use x="125" xlink:href="#DejaVuSans-6e"/>
      <use x="188.378906" xlink:href="#DejaVuSans-6f"/>
      <use x="249.560547" xlink:href="#DejaVuSans-74"/>
      <use x="288.769531" xlink:href="#DejaVuSans-79"/>
      <use x="347.949219" xlink:href="#DejaVuSans-70"/>
      <use x="411.425781" xlink:href="#DejaVuSans-65"/>
     </g>
    </g>
   </g>
   <g id="matplotlib.axis_2">
    <g id="ytick_1">
     <g id="line2d_9">
      <defs>
       <path d="M 0 0 
L -3.5 0 
" id="m9d87201a56" style="stroke:#000000;stroke-width:0.8;"/>
      </defs>
      <g>
       <use style="stroke:#000000;stroke-width:0.8;" x="57.6" xlink:href="#m9d87201a56" y="307.584"/>
      </g>
     </g>
     <g id="text_10">
      <!-- 0 -->
      <g transform="translate(44.2375 311.383219)scale(0.1 -0.1)">
       <use xlink:href="#DejaVuSans-30"/>
      </g>
     </g>
    </g>
    <g id="ytick_2">
     <g id="line2d_10">
      <g>
       <use style="stroke:#000000;stroke-width:0.8;" x="57.6" xlink:href="#m9d87201a56" y="265.344"/>
      </g>
     </g>
     <g id="text_11">
      <!-- 1 -->
      <g transform="translate(44.2375 269.143219)scale(0.1 -0.1)">
       <use xlink:href="#DejaVuSans-31"/>
      </g>
     </g>
    </g>
    <g id="ytick_3">
     <g id="line2d_11">
      <g>
       <use style="stroke:#000000;stroke-width:0.8;" x="57.6" xlink:href="#m9d87201a56" y="223.104"/>
      </g>
     </g>
     <g id="text_12">
      <!-- 2 -->
      <g transform="translate(44.2375 226.903219)scale(0.1 -0.1)">
       <use xlink:href="#DejaVuSans-32"/>
      </g>
     </g>
    </g>
    <g id="ytick_4">
     <g id="line2d_12">
      <g>
       <use style="stroke:#000000;stroke-width:0.8;" x="57.6" xlink:href="#m9d87201a56" y="180.864"/>
      </g>
     </g>
     <g id="text_13">
      <!-- 3 -->
      <g transform="translate(44.2375 184.663219)scale(0.1 -0.1)">
       <use xlink:href="#DejaVuSans-33"/>
      </g>
     </g>
    </g>
    <g id="ytick_5">
     <g id="line2d_13">
      <g>
       <use style="stroke:#000000;stroke-width:0.8;" x="57.6" xlink:href="#m9d87201a56" y="138.624"/>
      </g>
     </g>
     <g id="text_14">
      <!-- 4 -->
      <g transform="translate(44.2375 142.423219)scale(0.1 -0.1)">
       <use xlink:href="#DejaVuSans-34"/>
      </g>
     </g>
    </g>
    <g id="ytick_6">
     <g id="line2d_14">
      <g>
       <use style="stroke:#000000;stroke-width:0.8;" x="57.6" xlink:href="#m9d87201a56" y="96.384"/>
      </g>
     </g>
     <g id="text_15">
      <!-- 5 -->
      <g transform="translate(44.2375 100.183219)scale(0.1 -0.1)">
       <use xlink:href="#DejaVuSans-35"/>
      </g>
     </g>
    </g>
    <g id="ytick_7">
     <g id="line2d_15">
      <g>
       <use style="stroke:#000000;stroke-width:0.8;" x="57.6" xlink:href="#m9d87201a56" y="54.144"/>
      </g>
     </g>
     <g id="text_16">
      <!-- 6 -->
      <g transform="translate(44.2375 57.943219)scale(0.1 -0.1)">
       <use xlink:href="#DejaVuSans-36"/>
      </g>
     </g>
    </g>
    <g id="text_17">
     <!-- abundance -->
     <g transform="translate(38.157812 202.336594)rotate(-90)scale(0.1 -0.1)">
      <defs>
       <path d="M 2194 1759 
Q 1497 1759 1228 1600 
Q 959 1441 959 1056 
Q 959 750 1161 570 
Q 1363 391 1709 391 
Q 2188 391 2477 730 
Q 2766 1069 2766 1631 
L 2766 1759 
L 2194 1759 
z
M 3341 1997 
L 3341 0 
L 2766 0 
L 2766 531 
Q 2569 213 2275 61 
Q 1981 -91 1556 -91 
Q 1019 -91 701 211 
Q 384 513 384 1019 
Q 384 1609 779 1909 
Q 1175 2209 1959 2209 
L 2766 2209 
L 2766 2266 
Q 2766 2663 2505 2880 
Q 2244 3097 1772 3097 
Q 1472 3097 1187 3025 
Q 903 2953 641 2809 
L 641 3341 
Q 956 3463 1253 3523 
Q 1550 3584 1831 3584 
Q 2591 3584 2966 3190 
Q 3341 2797 3341 1997 
z
" id="DejaVuSans-61" transform="scale(0.015625)"/>
       <path d="M 3116 1747 
Q 3116 2381 2855 2742 
Q 2594 3103 2138 3103 
Q 1681 3103 1420 2742 
Q 1159 2381 1159 1747 
Q 1159 1113 1420 752 
Q 1681 391 2138 391 
Q 2594 391 2855 752 
Q 3116 1113 3116 1747 
z
M 1159 2969 
Q 1341 3281 1617 3432 
Q 1894 3584 2278 3584 
Q 2916 3584 3314 3078 
Q 3713 2572 3713 1747 
Q 3713 922 3314 415 
Q 2916 -91 2278 -91 
Q 1894 -91 1617 61 
Q 1341 213 1159 525 
L 1159 0 
L 581 0 
L 581 4863 
L 1159 4863 
L 1159 2969 
z
" id="DejaVuSans-62" transform="scale(0.015625)"/>
       <path d="M 544 1381 
L 544 3500 
L 1119 3500 
L 1119 1403 
Q 1119 906 1312 657 
Q 1506 409 1894 409 
Q 2359 409 2629 706 
Q 2900 1003 2900 1516 
L 2900 3500 
L 3475 3500 
L 3475 0 
L 2900 0 
L 2900 538 
Q 2691 219 2414 64 
Q 2138 -91 1772 -91 
Q 1169 -91 856 284 
Q 544 659 544 1381 
z
M 1991 3584 
L 1991 3584 
z
" id="DejaVuSans-75" transform="scale(0.015625)"/>
       <path d="M 2906 2969 
L 2906 4863 
L 3481 4863 
L 3481 0 
L 2906 0 
L 2906 525 
Q 2725 213 2448 61 
Q 2172 -91 1784 -91 
Q 1150 -91 751 415 
Q 353 922 353 1747 
Q 353 2572 751 3078 
Q 1150 3584 1784 3584 
Q 2172 3584 2448 3432 
Q 2725 3281 2906 2969 
z
M 947 1747 
Q 947 1113 1208 752 
Q 1469 391 1925 391 
Q 2381 391 2643 752 
Q 2906 1113 2906 1747 
Q 2906 2381 2643 2742 
Q 2381 3103 1925 3103 
Q 1469 3103 1208 2742 
Q 947 2381 947 1747 
z
" id="DejaVuSans-64" transform="scale(0.015625)"/>
       <path d="M 3122 3366 
L 3122 2828 
Q 2878 2963 2633 3030 
Q 2388 3097 2138 3097 
Q 1578 3097 1268 2742 
Q 959 2388 959 1747 
Q 959 1106 1268 751 
Q 1578 397 2138 397 
Q 2388 397 2633 464 
Q 2878 531 3122 666 
L 3122 134 
Q 2881 22 2623 -34 
Q 2366 -91 2075 -91 
Q 1284 -91 818 406 
Q 353 903 353 1747 
Q 353 2603 823 3093 
Q 1294 3584 2113 3584 
Q 2378 3584 2631 3529 
Q 2884 3475 3122 3366 
z
" id="DejaVuSans-63" transform="scale(0.015625)"/>
      </defs>
      <use xlink:href="#DejaVuSans-61"/>
      <use x="61.279297" xlink:href="#DejaVuSans-62"/>
      <use x="124.755859" xlink:href="#DejaVuSans-75"/>
      <use x="188.134766" xlink:href="#DejaVuSans-6e"/>
      <use x="251.513672" xlink:href="#DejaVuSans-64"/>
      <use x="314.990234" xlink:href="#DejaVuSans-61"/>
      <use x="376.269531" xlink:href="#DejaVuSans-6e"/>
      <use x="439.648438" xlink:href="#DejaVuSans-63"/>
      <use x="494.628906" xlink:href="#DejaVuSans-65"/>
     </g>
    </g>
   </g>
   <g id="patch_78">
    <path d="M 57.6 307.584 
L 57.6 41.472 
" style="fill:none;stroke:#000000;stroke-linecap:square;stroke-linejoin:miter;stroke-width:0.8;"/>
   </g>
   <g id="patch_79">
    <path d="M 414.72 307.584 
L 414.72 41.472 
" style="fill:none;stroke:#000000;stroke-linecap:square;stroke-linejoin:miter;stroke-width:0.8;"/>
   </g>
   <g id="patch_80">
    <path d="M 57.6 307.584 
L 414.72 307.584 
" style="fill:none;stroke:#000000;stroke-linecap:square;stroke-linejoin:miter;stroke-width:0.8;"/>
   </g>
   <g id="patch_81">
    <path d="M 57.6 41.472 
L 414.72 41.472 
" style="fill:none;stroke:#000000;stroke-linecap:square;stroke-linejoin:miter;stroke-width:0.8;"/>
   </g>
  </g>
 </g>
 <defs>
  <clipPath id="pf5a4e7f27a">
   <rect height="266.112" width="357.12" x="57.6" y="41.472"/>
  </clipPath>
 </defs>
</svg>
