<?xml version="1.0" encoding="UTF-8" standalone="no"?>
<!DOCTYPE svg PUBLIC "-//W3C//DTD SVG 1.1//EN"
 "http://www.w3.org/Graphics/SVG/1.1/DTD/svg11.dtd">
<!-- Generated by graphviz version 2.42.3 (20191010.1750)
 -->
<!-- Title: snakemake_dag Pages: 1 -->
<svg width="654pt" height="404pt"
 viewBox="0.00 0.00 653.50 404.00" xmlns="http://www.w3.org/2000/svg" xmlns:xlink="http://www.w3.org/1999/xlink">
<g id="graph0" class="graph" transform="scale(1 1) rotate(0) translate(4 400)">
<title>snakemake_dag</title>
<polygon fill="white" stroke="transparent" points="-4,4 -4,-400 649.5,-400 649.5,4 -4,4"/>
<!-- 0 -->
<g id="node1" class="node">
<title>0</title>
<path fill="none" stroke="#d88d56" stroke-width="2" d="M349,-36C349,-36 277,-36 277,-36 271,-36 265,-30 265,-24 265,-24 265,-12 265,-12 265,-6 271,0 277,0 277,0 349,0 349,0 355,0 361,-6 361,-12 361,-12 361,-24 361,-24 361,-30 355,-36 349,-36"/>
<text text-anchor="middle" x="313" y="-15.5" font-family="sans" font-size="10.00">make_summary</text>
</g>
<!-- 1 -->
<g id="node2" class="node">
<title>1</title>
<path fill="none" stroke="#56d8c1" stroke-width="2" d="M56,-108C56,-108 12,-108 12,-108 6,-108 0,-102 0,-96 0,-96 0,-84 0,-84 0,-78 6,-72 12,-72 12,-72 56,-72 56,-72 62,-72 68,-78 68,-84 68,-84 68,-96 68,-96 68,-102 62,-108 56,-108"/>
<text text-anchor="middle" x="34" y="-87.5" font-family="sans" font-size="10.00">make_dag</text>
</g>
<!-- 1&#45;&gt;0 -->
<g id="edge1" class="edge">
<title>1&#45;&gt;0</title>
<path fill="none" stroke="grey" stroke-width="2" d="M68.19,-76.35C72.81,-74.8 77.5,-73.31 82,-72 140.16,-55.09 207.81,-40.1 254.81,-30.42"/>
<polygon fill="grey" stroke="grey" stroke-width="2" points="255.71,-33.81 264.81,-28.37 254.31,-26.95 255.71,-33.81"/>
</g>
<!-- 2 -->
<g id="node3" class="node">
<title>2</title>
<path fill="none" stroke="#59d856" stroke-width="2" d="M337.5,-324C337.5,-324 286.5,-324 286.5,-324 280.5,-324 274.5,-318 274.5,-312 274.5,-312 274.5,-300 274.5,-300 274.5,-294 280.5,-288 286.5,-288 286.5,-288 337.5,-288 337.5,-288 343.5,-288 349.5,-294 349.5,-300 349.5,-300 349.5,-312 349.5,-312 349.5,-318 343.5,-324 337.5,-324"/>
<text text-anchor="middle" x="312" y="-303.5" font-family="sans" font-size="10.00">process_ccs</text>
</g>
<!-- 2&#45;&gt;0 -->
<g id="edge2" class="edge">
<title>2&#45;&gt;0</title>
<path fill="none" stroke="grey" stroke-width="2" d="M274.46,-294.15C207.07,-272.53 76.06,-219.59 115,-144 143.22,-89.23 207.42,-55.5 255.11,-37.09"/>
<polygon fill="grey" stroke="grey" stroke-width="2" points="256.57,-40.28 264.72,-33.5 254.13,-33.72 256.57,-40.28"/>
</g>
<!-- 5 -->
<g id="node6" class="node">
<title>5</title>
<path fill="none" stroke="#d85656" stroke-width="2" d="M383.5,-252C383.5,-252 318.5,-252 318.5,-252 312.5,-252 306.5,-246 306.5,-240 306.5,-240 306.5,-228 306.5,-228 306.5,-222 312.5,-216 318.5,-216 318.5,-216 383.5,-216 383.5,-216 389.5,-216 395.5,-222 395.5,-228 395.5,-228 395.5,-240 395.5,-240 395.5,-246 389.5,-252 383.5,-252"/>
<text text-anchor="middle" x="351" y="-231.5" font-family="sans" font-size="10.00">count_variants</text>
</g>
<!-- 2&#45;&gt;5 -->
<g id="edge11" class="edge">
<title>2&#45;&gt;5</title>
<path fill="none" stroke="grey" stroke-width="2" d="M321.64,-287.7C326.13,-279.64 331.56,-269.89 336.52,-260.98"/>
<polygon fill="grey" stroke="grey" stroke-width="2" points="339.66,-262.54 341.47,-252.1 333.55,-259.14 339.66,-262.54"/>
</g>
<!-- 6 -->
<g id="node7" class="node">
<title>6</title>
<path fill="none" stroke="#88d856" stroke-width="2" d="M188,-180C188,-180 136,-180 136,-180 130,-180 124,-174 124,-168 124,-168 124,-156 124,-156 124,-150 130,-144 136,-144 136,-144 188,-144 188,-144 194,-144 200,-150 200,-156 200,-156 200,-168 200,-168 200,-174 194,-180 188,-180"/>
<text text-anchor="middle" x="162" y="-159.5" font-family="sans" font-size="10.00">fit_titrations</text>
</g>
<!-- 2&#45;&gt;6 -->
<g id="edge12" class="edge">
<title>2&#45;&gt;6</title>
<path fill="none" stroke="grey" stroke-width="2" d="M293.91,-287.87C267.44,-262.82 218.04,-216.05 187.78,-187.41"/>
<polygon fill="grey" stroke="grey" stroke-width="2" points="189.83,-184.52 180.16,-180.19 185.01,-189.61 189.83,-184.52"/>
</g>
<!-- 7 -->
<g id="node8" class="node">
<title>7</title>
<path fill="none" stroke="#bed856" stroke-width="2" d="M313.5,-180C313.5,-180 230.5,-180 230.5,-180 224.5,-180 218.5,-174 218.5,-168 218.5,-168 218.5,-156 218.5,-156 218.5,-150 224.5,-144 230.5,-144 230.5,-144 313.5,-144 313.5,-144 319.5,-144 325.5,-150 325.5,-156 325.5,-156 325.5,-168 325.5,-168 325.5,-174 319.5,-180 313.5,-180"/>
<text text-anchor="middle" x="272" y="-159.5" font-family="sans" font-size="10.00">fit_titrations_TuGG</text>
</g>
<!-- 2&#45;&gt;7 -->
<g id="edge14" class="edge">
<title>2&#45;&gt;7</title>
<path fill="none" stroke="grey" stroke-width="2" d="M307.13,-287.82C304.19,-277.45 300.37,-263.97 297,-252 291.1,-231.08 284.45,-207.39 279.49,-189.71"/>
<polygon fill="grey" stroke="grey" stroke-width="2" points="282.85,-188.75 276.78,-180.06 276.11,-190.64 282.85,-188.75"/>
</g>
<!-- 8 -->
<g id="node9" class="node">
<title>8</title>
<path fill="none" stroke="#56c1d8" stroke-width="2" d="M496,-180C496,-180 394,-180 394,-180 388,-180 382,-174 382,-168 382,-168 382,-156 382,-156 382,-150 388,-144 394,-144 394,-144 496,-144 496,-144 502,-144 508,-150 508,-156 508,-156 508,-168 508,-168 508,-174 502,-180 496,-180"/>
<text text-anchor="middle" x="445" y="-159.5" font-family="sans" font-size="10.00">calculate_PSR_binding</text>
</g>
<!-- 2&#45;&gt;8 -->
<g id="edge16" class="edge">
<title>2&#45;&gt;8</title>
<path fill="none" stroke="grey" stroke-width="2" d="M349.68,-289.85C367.94,-281 389.09,-268.34 404,-252 420.24,-234.21 431.05,-208.89 437.48,-189.79"/>
<polygon fill="grey" stroke="grey" stroke-width="2" points="440.84,-190.77 440.52,-180.18 434.17,-188.66 440.84,-190.77"/>
</g>
<!-- 9 -->
<g id="node10" class="node">
<title>9</title>
<path fill="none" stroke="#56d88a" stroke-width="2" d="M633.5,-180C633.5,-180 538.5,-180 538.5,-180 532.5,-180 526.5,-174 526.5,-168 526.5,-168 526.5,-156 526.5,-156 526.5,-150 532.5,-144 538.5,-144 538.5,-144 633.5,-144 633.5,-144 639.5,-144 645.5,-150 645.5,-156 645.5,-156 645.5,-168 645.5,-168 645.5,-174 639.5,-180 633.5,-180"/>
<text text-anchor="middle" x="586" y="-159.5" font-family="sans" font-size="10.00">calculate_expression</text>
</g>
<!-- 2&#45;&gt;9 -->
<g id="edge18" class="edge">
<title>2&#45;&gt;9</title>
<path fill="none" stroke="grey" stroke-width="2" d="M349.64,-289.2C373.03,-279.1 403.57,-265.43 430,-252 471.62,-230.84 517.91,-203.99 549.18,-185.34"/>
<polygon fill="grey" stroke="grey" stroke-width="2" points="551.2,-188.21 557.98,-180.07 547.61,-182.21 551.2,-188.21"/>
</g>
<!-- 3 -->
<g id="node4" class="node">
<title>3</title>
<path fill="none" stroke="#568ad8" stroke-width="2" d="M291,-396C291,-396 183,-396 183,-396 177,-396 171,-390 171,-384 171,-384 171,-372 171,-372 171,-366 177,-360 183,-360 183,-360 291,-360 291,-360 297,-360 303,-366 303,-372 303,-372 303,-384 303,-384 303,-390 297,-396 291,-396"/>
<text text-anchor="middle" x="237" y="-381" font-family="sans" font-size="10.00">build_ccs</text>
<text text-anchor="middle" x="237" y="-370" font-family="sans" font-size="10.00">pacbioRun: lib1_210619</text>
</g>
<!-- 3&#45;&gt;2 -->
<g id="edge9" class="edge">
<title>3&#45;&gt;2</title>
<path fill="none" stroke="grey" stroke-width="2" d="M255.54,-359.7C264.8,-351.05 276.16,-340.45 286.26,-331.03"/>
<polygon fill="grey" stroke="grey" stroke-width="2" points="288.75,-333.49 293.67,-324.1 283.98,-328.37 288.75,-333.49"/>
</g>
<!-- 4 -->
<g id="node5" class="node">
<title>4</title>
<path fill="none" stroke="#568ad8" stroke-width="2" d="M441,-396C441,-396 333,-396 333,-396 327,-396 321,-390 321,-384 321,-384 321,-372 321,-372 321,-366 327,-360 333,-360 333,-360 441,-360 441,-360 447,-360 453,-366 453,-372 453,-372 453,-384 453,-384 453,-390 447,-396 441,-396"/>
<text text-anchor="middle" x="387" y="-381" font-family="sans" font-size="10.00">build_ccs</text>
<text text-anchor="middle" x="387" y="-370" font-family="sans" font-size="10.00">pacbioRun: lib2_210619</text>
</g>
<!-- 4&#45;&gt;2 -->
<g id="edge10" class="edge">
<title>4&#45;&gt;2</title>
<path fill="none" stroke="grey" stroke-width="2" d="M368.46,-359.7C359.2,-351.05 347.84,-340.45 337.74,-331.03"/>
<polygon fill="grey" stroke="grey" stroke-width="2" points="340.02,-328.37 330.33,-324.1 335.25,-333.49 340.02,-328.37"/>
</g>
<!-- 5&#45;&gt;0 -->
<g id="edge3" class="edge">
<title>5&#45;&gt;0</title>
<path fill="none" stroke="grey" stroke-width="2" d="M347.95,-215.85C341.37,-178.75 325.75,-90.81 317.81,-46.1"/>
<polygon fill="grey" stroke="grey" stroke-width="2" points="321.25,-45.47 316.06,-36.23 314.36,-46.69 321.25,-45.47"/>
</g>
<!-- 5&#45;&gt;6 -->
<g id="edge13" class="edge">
<title>5&#45;&gt;6</title>
<path fill="none" stroke="grey" stroke-width="2" d="M306.21,-216.41C277.18,-205.66 239.4,-191.67 209.79,-180.7"/>
<polygon fill="grey" stroke="grey" stroke-width="2" points="210.68,-177.3 200.09,-177.11 208.25,-183.86 210.68,-177.3"/>
</g>
<!-- 5&#45;&gt;7 -->
<g id="edge15" class="edge">
<title>5&#45;&gt;7</title>
<path fill="none" stroke="grey" stroke-width="2" d="M331.47,-215.7C321.62,-206.97 309.51,-196.24 298.8,-186.75"/>
<polygon fill="grey" stroke="grey" stroke-width="2" points="301.11,-184.12 291.3,-180.1 296.47,-189.36 301.11,-184.12"/>
</g>
<!-- 5&#45;&gt;8 -->
<g id="edge17" class="edge">
<title>5&#45;&gt;8</title>
<path fill="none" stroke="grey" stroke-width="2" d="M374.24,-215.7C386.19,-206.8 400.92,-195.82 413.85,-186.2"/>
<polygon fill="grey" stroke="grey" stroke-width="2" points="416.1,-188.88 422.03,-180.1 411.92,-183.27 416.1,-188.88"/>
</g>
<!-- 5&#45;&gt;9 -->
<g id="edge19" class="edge">
<title>5&#45;&gt;9</title>
<path fill="none" stroke="grey" stroke-width="2" d="M395.75,-219.67C430.62,-209.28 479.57,-194.7 519.09,-182.93"/>
<polygon fill="grey" stroke="grey" stroke-width="2" points="520.34,-186.21 528.92,-180 518.34,-179.5 520.34,-186.21"/>
</g>
<!-- 6&#45;&gt;0 -->
<g id="edge4" class="edge">
<title>6&#45;&gt;0</title>
<path fill="none" stroke="grey" stroke-width="2" d="M180.21,-143.87C206.97,-118.71 257.01,-71.65 287.43,-43.04"/>
<polygon fill="grey" stroke="grey" stroke-width="2" points="289.83,-45.59 294.72,-36.19 285.04,-40.49 289.83,-45.59"/>
</g>
<!-- 10 -->
<g id="node11" class="node">
<title>10</title>
<path fill="none" stroke="#d8bc56" stroke-width="2" d="M453,-108C453,-108 383,-108 383,-108 377,-108 371,-102 371,-96 371,-96 371,-84 371,-84 371,-78 377,-72 383,-72 383,-72 453,-72 453,-72 459,-72 465,-78 465,-84 465,-84 465,-96 465,-96 465,-102 459,-108 453,-108"/>
<text text-anchor="middle" x="418" y="-87.5" font-family="sans" font-size="10.00">collapse_scores</text>
</g>
<!-- 6&#45;&gt;10 -->
<g id="edge20" class="edge">
<title>6&#45;&gt;10</title>
<path fill="none" stroke="grey" stroke-width="2" d="M200.11,-146.86C203.11,-145.86 206.1,-144.89 209,-144 259.86,-128.4 318.65,-113.78 360.9,-103.87"/>
<polygon fill="grey" stroke="grey" stroke-width="2" points="361.79,-107.26 370.73,-101.58 360.2,-100.44 361.79,-107.26"/>
</g>
<!-- 7&#45;&gt;0 -->
<g id="edge5" class="edge">
<title>7&#45;&gt;0</title>
<path fill="none" stroke="grey" stroke-width="2" d="M276.95,-143.87C283.96,-119.56 296.88,-74.82 305.2,-46.01"/>
<polygon fill="grey" stroke="grey" stroke-width="2" points="308.63,-46.77 308.04,-36.19 301.9,-44.83 308.63,-46.77"/>
</g>
<!-- 7&#45;&gt;10 -->
<g id="edge21" class="edge">
<title>7&#45;&gt;10</title>
<path fill="none" stroke="grey" stroke-width="2" d="M307.72,-143.88C327.5,-134.39 352.27,-122.51 373.33,-112.42"/>
<polygon fill="grey" stroke="grey" stroke-width="2" points="374.9,-115.55 382.4,-108.07 371.87,-109.24 374.9,-115.55"/>
</g>
<!-- 8&#45;&gt;0 -->
<g id="edge6" class="edge">
<title>8&#45;&gt;0</title>
<path fill="none" stroke="grey" stroke-width="2" d="M459.1,-143.84C472.93,-124.79 489.81,-93.86 474,-72 450.76,-39.89 407.4,-26.89 371.53,-21.79"/>
<polygon fill="grey" stroke="grey" stroke-width="2" points="371.51,-18.26 361.15,-20.5 370.65,-25.21 371.51,-18.26"/>
</g>
<!-- 8&#45;&gt;10 -->
<g id="edge23" class="edge">
<title>8&#45;&gt;10</title>
<path fill="none" stroke="grey" stroke-width="2" d="M438.33,-143.7C435.29,-135.81 431.62,-126.3 428.24,-117.55"/>
<polygon fill="grey" stroke="grey" stroke-width="2" points="431.46,-116.17 424.6,-108.1 424.93,-118.69 431.46,-116.17"/>
</g>
<!-- 9&#45;&gt;0 -->
<g id="edge7" class="edge">
<title>9&#45;&gt;0</title>
<path fill="none" stroke="grey" stroke-width="2" d="M572.21,-143.72C555.33,-123.68 524.9,-90.97 492,-72 454.53,-50.4 407.48,-36.91 371.02,-28.96"/>
<polygon fill="grey" stroke="grey" stroke-width="2" points="371.55,-25.49 361.04,-26.86 370.1,-32.34 371.55,-25.49"/>
</g>
<!-- 9&#45;&gt;10 -->
<g id="edge22" class="edge">
<title>9&#45;&gt;10</title>
<path fill="none" stroke="grey" stroke-width="2" d="M544.9,-143.88C521.83,-134.26 492.86,-122.19 468.43,-112.01"/>
<polygon fill="grey" stroke="grey" stroke-width="2" points="469.54,-108.68 458.96,-108.07 466.85,-115.15 469.54,-108.68"/>
</g>
<!-- 10&#45;&gt;0 -->
<g id="edge8" class="edge">
<title>10&#45;&gt;0</title>
<path fill="none" stroke="grey" stroke-width="2" d="M392.31,-71.88C378.71,-62.81 361.83,-51.55 347.14,-41.76"/>
<polygon fill="grey" stroke="grey" stroke-width="2" points="349.05,-38.82 338.78,-36.19 345.16,-44.65 349.05,-38.82"/>
</g>
</g>
</svg>
