<?xml version="1.0" encoding="UTF-8" standalone="no"?>
<!DOCTYPE svg PUBLIC "-//W3C//DTD SVG 1.1//EN"
 "http://www.w3.org/Graphics/SVG/1.1/DTD/svg11.dtd">
<!-- Generated by graphviz version 2.42.3 (20191010.1750)
 -->
<!-- Title: snakemake_dag Pages: 1 -->
<svg width="528pt" height="404pt"
 viewBox="0.00 0.00 527.50 404.00" xmlns="http://www.w3.org/2000/svg" xmlns:xlink="http://www.w3.org/1999/xlink">
<g id="graph0" class="graph" transform="scale(1 1) rotate(0) translate(4 400)">
<title>snakemake_dag</title>
<polygon fill="white" stroke="transparent" points="-4,4 -4,-400 523.5,-400 523.5,4 -4,4"/>
<!-- 0 -->
<g id="node1" class="node">
<title>0</title>
<path fill="none" stroke="#56c9d8" stroke-width="2" d="M264,-36C264,-36 192,-36 192,-36 186,-36 180,-30 180,-24 180,-24 180,-12 180,-12 180,-6 186,0 192,0 192,0 264,0 264,0 270,0 276,-6 276,-12 276,-12 276,-24 276,-24 276,-30 270,-36 264,-36"/>
<text text-anchor="middle" x="228" y="-15.5" font-family="sans" font-size="10.00">make_summary</text>
</g>
<!-- 1 -->
<g id="node2" class="node">
<title>1</title>
<path fill="none" stroke="#5692d8" stroke-width="2" d="M56,-108C56,-108 12,-108 12,-108 6,-108 0,-102 0,-96 0,-96 0,-84 0,-84 0,-78 6,-72 12,-72 12,-72 56,-72 56,-72 62,-72 68,-78 68,-84 68,-84 68,-96 68,-96 68,-102 62,-108 56,-108"/>
<text text-anchor="middle" x="34" y="-87.5" font-family="sans" font-size="10.00">make_dag</text>
</g>
<!-- 1&#45;&gt;0 -->
<g id="edge1" class="edge">
<title>1&#45;&gt;0</title>
<path fill="none" stroke="grey" stroke-width="2" d="M68.24,-76.65C96.65,-66.39 137.66,-51.6 171.01,-39.56"/>
<polygon fill="grey" stroke="grey" stroke-width="2" points="172.43,-42.77 180.64,-36.09 170.05,-36.19 172.43,-42.77"/>
</g>
<!-- 2 -->
<g id="node3" class="node">
<title>2</title>
<path fill="none" stroke="#d85656" stroke-width="2" d="M266.5,-324C266.5,-324 215.5,-324 215.5,-324 209.5,-324 203.5,-318 203.5,-312 203.5,-312 203.5,-300 203.5,-300 203.5,-294 209.5,-288 215.5,-288 215.5,-288 266.5,-288 266.5,-288 272.5,-288 278.5,-294 278.5,-300 278.5,-300 278.5,-312 278.5,-312 278.5,-318 272.5,-324 266.5,-324"/>
<text text-anchor="middle" x="241" y="-303.5" font-family="sans" font-size="10.00">process_ccs</text>
</g>
<!-- 2&#45;&gt;0 -->
<g id="edge2" class="edge">
<title>2&#45;&gt;0</title>
<path fill="none" stroke="grey" stroke-width="2" d="M211.8,-287.88C179.93,-267.14 131.27,-228.82 115,-180 96.5,-124.5 153.36,-71.18 193.01,-41.98"/>
<polygon fill="grey" stroke="grey" stroke-width="2" points="195.09,-44.79 201.18,-36.12 191.01,-39.11 195.09,-44.79"/>
</g>
<!-- 5 -->
<g id="node6" class="node">
<title>5</title>
<path fill="none" stroke="#d8cb56" stroke-width="2" d="M273.5,-252C273.5,-252 208.5,-252 208.5,-252 202.5,-252 196.5,-246 196.5,-240 196.5,-240 196.5,-228 196.5,-228 196.5,-222 202.5,-216 208.5,-216 208.5,-216 273.5,-216 273.5,-216 279.5,-216 285.5,-222 285.5,-228 285.5,-228 285.5,-240 285.5,-240 285.5,-246 279.5,-252 273.5,-252"/>
<text text-anchor="middle" x="241" y="-231.5" font-family="sans" font-size="10.00">count_variants</text>
</g>
<!-- 2&#45;&gt;5 -->
<g id="edge10" class="edge">
<title>2&#45;&gt;5</title>
<path fill="none" stroke="grey" stroke-width="2" d="M241,-287.7C241,-279.98 241,-270.71 241,-262.11"/>
<polygon fill="grey" stroke="grey" stroke-width="2" points="244.5,-262.1 241,-252.1 237.5,-262.1 244.5,-262.1"/>
</g>
<!-- 6 -->
<g id="node7" class="node">
<title>6</title>
<path fill="none" stroke="#d88d56" stroke-width="2" d="M188,-180C188,-180 136,-180 136,-180 130,-180 124,-174 124,-168 124,-168 124,-156 124,-156 124,-150 130,-144 136,-144 136,-144 188,-144 188,-144 194,-144 200,-150 200,-156 200,-156 200,-168 200,-168 200,-174 194,-180 188,-180"/>
<text text-anchor="middle" x="162" y="-159.5" font-family="sans" font-size="10.00">fit_titrations</text>
</g>
<!-- 2&#45;&gt;6 -->
<g id="edge11" class="edge">
<title>2&#45;&gt;6</title>
<path fill="none" stroke="grey" stroke-width="2" d="M218.81,-287.97C207.81,-278.48 195.16,-265.79 187,-252 175.73,-232.95 169.34,-208.59 165.85,-190.17"/>
<polygon fill="grey" stroke="grey" stroke-width="2" points="169.27,-189.36 164.12,-180.1 162.37,-190.55 169.27,-189.36"/>
</g>
<!-- 7 -->
<g id="node8" class="node">
<title>7</title>
<path fill="none" stroke="#56d8a9" stroke-width="2" d="M370,-180C370,-180 268,-180 268,-180 262,-180 256,-174 256,-168 256,-168 256,-156 256,-156 256,-150 262,-144 268,-144 268,-144 370,-144 370,-144 376,-144 382,-150 382,-156 382,-156 382,-168 382,-168 382,-174 376,-180 370,-180"/>
<text text-anchor="middle" x="319" y="-159.5" font-family="sans" font-size="10.00">calculate_PSR_binding</text>
</g>
<!-- 2&#45;&gt;7 -->
<g id="edge13" class="edge">
<title>2&#45;&gt;7</title>
<path fill="none" stroke="grey" stroke-width="2" d="M262.77,-287.9C273.57,-278.38 285.98,-265.7 294,-252 305.18,-232.9 311.57,-208.54 315.09,-190.14"/>
<polygon fill="grey" stroke="grey" stroke-width="2" points="318.57,-190.53 316.84,-180.08 311.68,-189.33 318.57,-190.53"/>
</g>
<!-- 8 -->
<g id="node9" class="node">
<title>8</title>
<path fill="none" stroke="#56d873" stroke-width="2" d="M507.5,-180C507.5,-180 412.5,-180 412.5,-180 406.5,-180 400.5,-174 400.5,-168 400.5,-168 400.5,-156 400.5,-156 400.5,-150 406.5,-144 412.5,-144 412.5,-144 507.5,-144 507.5,-144 513.5,-144 519.5,-150 519.5,-156 519.5,-156 519.5,-168 519.5,-168 519.5,-174 513.5,-180 507.5,-180"/>
<text text-anchor="middle" x="460" y="-159.5" font-family="sans" font-size="10.00">calculate_expression</text>
</g>
<!-- 2&#45;&gt;8 -->
<g id="edge15" class="edge">
<title>2&#45;&gt;8</title>
<path fill="none" stroke="grey" stroke-width="2" d="M267.42,-287.87C306.8,-262.34 380.95,-214.25 424.87,-185.78"/>
<polygon fill="grey" stroke="grey" stroke-width="2" points="427,-188.57 433.49,-180.19 423.2,-182.69 427,-188.57"/>
</g>
<!-- 3 -->
<g id="node4" class="node">
<title>3</title>
<path fill="none" stroke="#afd856" stroke-width="2" d="M220,-396C220,-396 112,-396 112,-396 106,-396 100,-390 100,-384 100,-384 100,-372 100,-372 100,-366 106,-360 112,-360 112,-360 220,-360 220,-360 226,-360 232,-366 232,-372 232,-372 232,-384 232,-384 232,-390 226,-396 220,-396"/>
<text text-anchor="middle" x="166" y="-381" font-family="sans" font-size="10.00">build_ccs</text>
<text text-anchor="middle" x="166" y="-370" font-family="sans" font-size="10.00">pacbioRun: lib1_210619</text>
</g>
<!-- 3&#45;&gt;2 -->
<g id="edge8" class="edge">
<title>3&#45;&gt;2</title>
<path fill="none" stroke="grey" stroke-width="2" d="M184.54,-359.7C193.8,-351.05 205.16,-340.45 215.26,-331.03"/>
<polygon fill="grey" stroke="grey" stroke-width="2" points="217.75,-333.49 222.67,-324.1 212.98,-328.37 217.75,-333.49"/>
</g>
<!-- 4 -->
<g id="node5" class="node">
<title>4</title>
<path fill="none" stroke="#afd856" stroke-width="2" d="M370,-396C370,-396 262,-396 262,-396 256,-396 250,-390 250,-384 250,-384 250,-372 250,-372 250,-366 256,-360 262,-360 262,-360 370,-360 370,-360 376,-360 382,-366 382,-372 382,-372 382,-384 382,-384 382,-390 376,-396 370,-396"/>
<text text-anchor="middle" x="316" y="-381" font-family="sans" font-size="10.00">build_ccs</text>
<text text-anchor="middle" x="316" y="-370" font-family="sans" font-size="10.00">pacbioRun: lib2_210619</text>
</g>
<!-- 4&#45;&gt;2 -->
<g id="edge9" class="edge">
<title>4&#45;&gt;2</title>
<path fill="none" stroke="grey" stroke-width="2" d="M297.46,-359.7C288.2,-351.05 276.84,-340.45 266.74,-331.03"/>
<polygon fill="grey" stroke="grey" stroke-width="2" points="269.02,-328.37 259.33,-324.1 264.25,-333.49 269.02,-328.37"/>
</g>
<!-- 5&#45;&gt;0 -->
<g id="edge3" class="edge">
<title>5&#45;&gt;0</title>
<path fill="none" stroke="grey" stroke-width="2" d="M239.96,-215.85C237.71,-178.83 232.38,-91.18 229.66,-46.39"/>
<polygon fill="grey" stroke="grey" stroke-width="2" points="233.15,-46 229.05,-36.23 226.16,-46.43 233.15,-46"/>
</g>
<!-- 5&#45;&gt;6 -->
<g id="edge12" class="edge">
<title>5&#45;&gt;6</title>
<path fill="none" stroke="grey" stroke-width="2" d="M221.47,-215.7C211.62,-206.97 199.51,-196.24 188.8,-186.75"/>
<polygon fill="grey" stroke="grey" stroke-width="2" points="191.11,-184.12 181.3,-180.1 186.47,-189.36 191.11,-184.12"/>
</g>
<!-- 5&#45;&gt;7 -->
<g id="edge14" class="edge">
<title>5&#45;&gt;7</title>
<path fill="none" stroke="grey" stroke-width="2" d="M260.28,-215.7C269.92,-207.05 281.73,-196.45 292.23,-187.03"/>
<polygon fill="grey" stroke="grey" stroke-width="2" points="294.84,-189.39 299.94,-180.1 290.16,-184.18 294.84,-189.39"/>
</g>
<!-- 5&#45;&gt;8 -->
<g id="edge16" class="edge">
<title>5&#45;&gt;8</title>
<path fill="none" stroke="grey" stroke-width="2" d="M285.58,-218.75C317.59,-208.52 361.18,-194.59 396.78,-183.21"/>
<polygon fill="grey" stroke="grey" stroke-width="2" points="398.13,-186.45 406.59,-180.07 396,-179.78 398.13,-186.45"/>
</g>
<!-- 6&#45;&gt;0 -->
<g id="edge4" class="edge">
<title>6&#45;&gt;0</title>
<path fill="none" stroke="grey" stroke-width="2" d="M169.96,-143.87C181.36,-119.35 202.42,-74.03 215.8,-45.26"/>
<polygon fill="grey" stroke="grey" stroke-width="2" points="218.97,-46.73 220.01,-36.19 212.62,-43.78 218.97,-46.73"/>
</g>
<!-- 9 -->
<g id="node10" class="node">
<title>9</title>
<path fill="none" stroke="#70d856" stroke-width="2" d="M376,-108C376,-108 306,-108 306,-108 300,-108 294,-102 294,-96 294,-96 294,-84 294,-84 294,-78 300,-72 306,-72 306,-72 376,-72 376,-72 382,-72 388,-78 388,-84 388,-84 388,-96 388,-96 388,-102 382,-108 376,-108"/>
<text text-anchor="middle" x="341" y="-87.5" font-family="sans" font-size="10.00">collapse_scores</text>
</g>
<!-- 6&#45;&gt;9 -->
<g id="edge17" class="edge">
<title>6&#45;&gt;9</title>
<path fill="none" stroke="grey" stroke-width="2" d="M200.4,-145.98C225.85,-136.03 259.6,-122.83 287.65,-111.86"/>
<polygon fill="grey" stroke="grey" stroke-width="2" points="289.28,-114.99 297.31,-108.08 286.73,-108.47 289.28,-114.99"/>
</g>
<!-- 7&#45;&gt;0 -->
<g id="edge5" class="edge">
<title>7&#45;&gt;0</title>
<path fill="none" stroke="grey" stroke-width="2" d="M307.97,-143.82C301.32,-133.45 292.67,-119.96 285,-108 271.34,-86.69 255.85,-62.5 244.47,-44.73"/>
<polygon fill="grey" stroke="grey" stroke-width="2" points="247.26,-42.6 238.92,-36.06 241.37,-46.37 247.26,-42.6"/>
</g>
<!-- 7&#45;&gt;9 -->
<g id="edge19" class="edge">
<title>7&#45;&gt;9</title>
<path fill="none" stroke="grey" stroke-width="2" d="M324.44,-143.7C326.89,-135.9 329.84,-126.51 332.57,-117.83"/>
<polygon fill="grey" stroke="grey" stroke-width="2" points="335.96,-118.69 335.62,-108.1 329.29,-116.59 335.96,-118.69"/>
</g>
<!-- 8&#45;&gt;0 -->
<g id="edge6" class="edge">
<title>8&#45;&gt;0</title>
<path fill="none" stroke="grey" stroke-width="2" d="M452.08,-143.67C442.03,-123.59 422.86,-90.83 397,-72 364.42,-48.28 320.9,-34.95 286.19,-27.6"/>
<polygon fill="grey" stroke="grey" stroke-width="2" points="286.68,-24.13 276.18,-25.59 285.3,-30.99 286.68,-24.13"/>
</g>
<!-- 8&#45;&gt;9 -->
<g id="edge18" class="edge">
<title>8&#45;&gt;9</title>
<path fill="none" stroke="grey" stroke-width="2" d="M430.89,-143.88C415.33,-134.72 395.98,-123.34 379.22,-113.48"/>
<polygon fill="grey" stroke="grey" stroke-width="2" points="380.62,-110.24 370.22,-108.19 377.07,-116.28 380.62,-110.24"/>
</g>
<!-- 9&#45;&gt;0 -->
<g id="edge7" class="edge">
<title>9&#45;&gt;0</title>
<path fill="none" stroke="grey" stroke-width="2" d="M313.36,-71.88C298.58,-62.72 280.21,-51.34 264.3,-41.48"/>
<polygon fill="grey" stroke="grey" stroke-width="2" points="266.09,-38.48 255.75,-36.19 262.41,-44.43 266.09,-38.48"/>
</g>
</g>
</svg>
