<?xml version="1.0" encoding="UTF-8" standalone="no"?>
<!DOCTYPE svg PUBLIC "-//W3C//DTD SVG 1.1//EN"
 "http://www.w3.org/Graphics/SVG/1.1/DTD/svg11.dtd">
<!-- Generated by graphviz version 2.42.3 (20191010.1750)
 -->
<!-- Title: snakemake_dag Pages: 1 -->
<svg width="654pt" height="476pt"
 viewBox="0.00 0.00 653.50 476.00" xmlns="http://www.w3.org/2000/svg" xmlns:xlink="http://www.w3.org/1999/xlink">
<g id="graph0" class="graph" transform="scale(1 1) rotate(0) translate(4 472)">
<title>snakemake_dag</title>
<polygon fill="white" stroke="transparent" points="-4,4 -4,-472 649.5,-472 649.5,4 -4,4"/>
<!-- 0 -->
<g id="node1" class="node">
<title>0</title>
<path fill="none" stroke="#56d89a" stroke-width="2" d="M358,-36C358,-36 286,-36 286,-36 280,-36 274,-30 274,-24 274,-24 274,-12 274,-12 274,-6 280,0 286,0 286,0 358,0 358,0 364,0 370,-6 370,-12 370,-12 370,-24 370,-24 370,-30 364,-36 358,-36"/>
<text text-anchor="middle" x="322" y="-15.5" font-family="sans" font-size="10.00">make_summary</text>
</g>
<!-- 1 -->
<g id="node2" class="node">
<title>1</title>
<path fill="none" stroke="#9fd856" stroke-width="2" d="M56,-108C56,-108 12,-108 12,-108 6,-108 0,-102 0,-96 0,-96 0,-84 0,-84 0,-78 6,-72 12,-72 12,-72 56,-72 56,-72 62,-72 68,-78 68,-84 68,-84 68,-96 68,-96 68,-102 62,-108 56,-108"/>
<text text-anchor="middle" x="34" y="-87.5" font-family="sans" font-size="10.00">make_dag</text>
</g>
<!-- 1&#45;&gt;0 -->
<g id="edge1" class="edge">
<title>1&#45;&gt;0</title>
<path fill="none" stroke="grey" stroke-width="2" d="M68.18,-76.32C72.8,-74.77 77.5,-73.29 82,-72 143.28,-54.45 214.76,-39.34 263.67,-29.79"/>
<polygon fill="grey" stroke="grey" stroke-width="2" points="264.6,-33.18 273.75,-27.84 263.27,-26.31 264.6,-33.18"/>
</g>
<!-- 2 -->
<g id="node3" class="node">
<title>2</title>
<path fill="none" stroke="#ced856" stroke-width="2" d="M337.5,-396C337.5,-396 286.5,-396 286.5,-396 280.5,-396 274.5,-390 274.5,-384 274.5,-384 274.5,-372 274.5,-372 274.5,-366 280.5,-360 286.5,-360 286.5,-360 337.5,-360 337.5,-360 343.5,-360 349.5,-366 349.5,-372 349.5,-372 349.5,-384 349.5,-384 349.5,-390 343.5,-396 337.5,-396"/>
<text text-anchor="middle" x="312" y="-375.5" font-family="sans" font-size="10.00">process_ccs</text>
</g>
<!-- 2&#45;&gt;0 -->
<g id="edge2" class="edge">
<title>2&#45;&gt;0</title>
<path fill="none" stroke="grey" stroke-width="2" d="M274.38,-370.12C212.49,-356.4 96,-319.37 96,-235 96,-235 96,-235 96,-161 96,-81.77 196.81,-45.03 263.77,-29.37"/>
<polygon fill="grey" stroke="grey" stroke-width="2" points="264.8,-32.72 273.79,-27.12 263.27,-25.89 264.8,-32.72"/>
</g>
<!-- 5 -->
<g id="node6" class="node">
<title>5</title>
<path fill="none" stroke="#d8b456" stroke-width="2" d="M383.5,-324C383.5,-324 318.5,-324 318.5,-324 312.5,-324 306.5,-318 306.5,-312 306.5,-312 306.5,-300 306.5,-300 306.5,-294 312.5,-288 318.5,-288 318.5,-288 383.5,-288 383.5,-288 389.5,-288 395.5,-294 395.5,-300 395.5,-300 395.5,-312 395.5,-312 395.5,-318 389.5,-324 383.5,-324"/>
<text text-anchor="middle" x="351" y="-303.5" font-family="sans" font-size="10.00">count_variants</text>
</g>
<!-- 2&#45;&gt;5 -->
<g id="edge12" class="edge">
<title>2&#45;&gt;5</title>
<path fill="none" stroke="grey" stroke-width="2" d="M321.64,-359.7C326.13,-351.64 331.56,-341.89 336.52,-332.98"/>
<polygon fill="grey" stroke="grey" stroke-width="2" points="339.66,-334.54 341.47,-324.1 333.55,-331.14 339.66,-334.54"/>
</g>
<!-- 6 -->
<g id="node7" class="node">
<title>6</title>
<path fill="none" stroke="#70d856" stroke-width="2" d="M188,-252C188,-252 136,-252 136,-252 130,-252 124,-246 124,-240 124,-240 124,-228 124,-228 124,-222 130,-216 136,-216 136,-216 188,-216 188,-216 194,-216 200,-222 200,-228 200,-228 200,-240 200,-240 200,-246 194,-252 188,-252"/>
<text text-anchor="middle" x="162" y="-231.5" font-family="sans" font-size="10.00">fit_titrations</text>
</g>
<!-- 2&#45;&gt;6 -->
<g id="edge13" class="edge">
<title>2&#45;&gt;6</title>
<path fill="none" stroke="grey" stroke-width="2" d="M293.91,-359.87C267.44,-334.82 218.04,-288.05 187.78,-259.41"/>
<polygon fill="grey" stroke="grey" stroke-width="2" points="189.83,-256.52 180.16,-252.19 185.01,-261.61 189.83,-256.52"/>
</g>
<!-- 7 -->
<g id="node8" class="node">
<title>7</title>
<path fill="none" stroke="#56d86b" stroke-width="2" d="M313.5,-252C313.5,-252 230.5,-252 230.5,-252 224.5,-252 218.5,-246 218.5,-240 218.5,-240 218.5,-228 218.5,-228 218.5,-222 224.5,-216 230.5,-216 230.5,-216 313.5,-216 313.5,-216 319.5,-216 325.5,-222 325.5,-228 325.5,-228 325.5,-240 325.5,-240 325.5,-246 319.5,-252 313.5,-252"/>
<text text-anchor="middle" x="272" y="-231.5" font-family="sans" font-size="10.00">fit_titrations_TuGG</text>
</g>
<!-- 2&#45;&gt;7 -->
<g id="edge15" class="edge">
<title>2&#45;&gt;7</title>
<path fill="none" stroke="grey" stroke-width="2" d="M307.13,-359.82C304.19,-349.45 300.37,-335.97 297,-324 291.1,-303.08 284.45,-279.39 279.49,-261.71"/>
<polygon fill="grey" stroke="grey" stroke-width="2" points="282.85,-260.75 276.78,-252.06 276.11,-262.64 282.85,-260.75"/>
</g>
<!-- 8 -->
<g id="node9" class="node">
<title>8</title>
<path fill="none" stroke="#56b1d8" stroke-width="2" d="M496,-252C496,-252 394,-252 394,-252 388,-252 382,-246 382,-240 382,-240 382,-228 382,-228 382,-222 388,-216 394,-216 394,-216 496,-216 496,-216 502,-216 508,-222 508,-228 508,-228 508,-240 508,-240 508,-246 502,-252 496,-252"/>
<text text-anchor="middle" x="445" y="-231.5" font-family="sans" font-size="10.00">calculate_PSR_binding</text>
</g>
<!-- 2&#45;&gt;8 -->
<g id="edge17" class="edge">
<title>2&#45;&gt;8</title>
<path fill="none" stroke="grey" stroke-width="2" d="M349.68,-361.85C367.94,-353 389.09,-340.34 404,-324 420.24,-306.21 431.05,-280.89 437.48,-261.79"/>
<polygon fill="grey" stroke="grey" stroke-width="2" points="440.84,-262.77 440.52,-252.18 434.17,-260.66 440.84,-262.77"/>
</g>
<!-- 9 -->
<g id="node10" class="node">
<title>9</title>
<path fill="none" stroke="#d88556" stroke-width="2" d="M633.5,-252C633.5,-252 538.5,-252 538.5,-252 532.5,-252 526.5,-246 526.5,-240 526.5,-240 526.5,-228 526.5,-228 526.5,-222 532.5,-216 538.5,-216 538.5,-216 633.5,-216 633.5,-216 639.5,-216 645.5,-222 645.5,-228 645.5,-228 645.5,-240 645.5,-240 645.5,-246 639.5,-252 633.5,-252"/>
<text text-anchor="middle" x="586" y="-231.5" font-family="sans" font-size="10.00">calculate_expression</text>
</g>
<!-- 2&#45;&gt;9 -->
<g id="edge19" class="edge">
<title>2&#45;&gt;9</title>
<path fill="none" stroke="grey" stroke-width="2" d="M349.64,-361.2C373.03,-351.1 403.57,-337.43 430,-324 471.62,-302.84 517.91,-275.99 549.18,-257.34"/>
<polygon fill="grey" stroke="grey" stroke-width="2" points="551.2,-260.21 557.98,-252.07 547.61,-254.21 551.2,-260.21"/>
</g>
<!-- 3 -->
<g id="node4" class="node">
<title>3</title>
<path fill="none" stroke="#5682d8" stroke-width="2" d="M291,-468C291,-468 183,-468 183,-468 177,-468 171,-462 171,-456 171,-456 171,-444 171,-444 171,-438 177,-432 183,-432 183,-432 291,-432 291,-432 297,-432 303,-438 303,-444 303,-444 303,-456 303,-456 303,-462 297,-468 291,-468"/>
<text text-anchor="middle" x="237" y="-453" font-family="sans" font-size="10.00">build_ccs</text>
<text text-anchor="middle" x="237" y="-442" font-family="sans" font-size="10.00">pacbioRun: lib1_210619</text>
</g>
<!-- 3&#45;&gt;2 -->
<g id="edge10" class="edge">
<title>3&#45;&gt;2</title>
<path fill="none" stroke="grey" stroke-width="2" d="M255.54,-431.7C264.8,-423.05 276.16,-412.45 286.26,-403.03"/>
<polygon fill="grey" stroke="grey" stroke-width="2" points="288.75,-405.49 293.67,-396.1 283.98,-400.37 288.75,-405.49"/>
</g>
<!-- 4 -->
<g id="node5" class="node">
<title>4</title>
<path fill="none" stroke="#5682d8" stroke-width="2" d="M441,-468C441,-468 333,-468 333,-468 327,-468 321,-462 321,-456 321,-456 321,-444 321,-444 321,-438 327,-432 333,-432 333,-432 441,-432 441,-432 447,-432 453,-438 453,-444 453,-444 453,-456 453,-456 453,-462 447,-468 441,-468"/>
<text text-anchor="middle" x="387" y="-453" font-family="sans" font-size="10.00">build_ccs</text>
<text text-anchor="middle" x="387" y="-442" font-family="sans" font-size="10.00">pacbioRun: lib2_210619</text>
</g>
<!-- 4&#45;&gt;2 -->
<g id="edge11" class="edge">
<title>4&#45;&gt;2</title>
<path fill="none" stroke="grey" stroke-width="2" d="M368.46,-431.7C359.2,-423.05 347.84,-412.45 337.74,-403.03"/>
<polygon fill="grey" stroke="grey" stroke-width="2" points="340.02,-400.37 330.33,-396.1 335.25,-405.49 340.02,-400.37"/>
</g>
<!-- 5&#45;&gt;0 -->
<g id="edge3" class="edge">
<title>5&#45;&gt;0</title>
<path fill="none" stroke="grey" stroke-width="2" d="M349.27,-287.97C344.43,-240.19 330.68,-104.62 324.76,-46.27"/>
<polygon fill="grey" stroke="grey" stroke-width="2" points="328.25,-45.9 323.75,-36.31 321.28,-46.61 328.25,-45.9"/>
</g>
<!-- 5&#45;&gt;6 -->
<g id="edge14" class="edge">
<title>5&#45;&gt;6</title>
<path fill="none" stroke="grey" stroke-width="2" d="M306.21,-288.41C277.18,-277.66 239.4,-263.67 209.79,-252.7"/>
<polygon fill="grey" stroke="grey" stroke-width="2" points="210.68,-249.3 200.09,-249.11 208.25,-255.86 210.68,-249.3"/>
</g>
<!-- 5&#45;&gt;7 -->
<g id="edge16" class="edge">
<title>5&#45;&gt;7</title>
<path fill="none" stroke="grey" stroke-width="2" d="M331.47,-287.7C321.62,-278.97 309.51,-268.24 298.8,-258.75"/>
<polygon fill="grey" stroke="grey" stroke-width="2" points="301.11,-256.12 291.3,-252.1 296.47,-261.36 301.11,-256.12"/>
</g>
<!-- 5&#45;&gt;8 -->
<g id="edge18" class="edge">
<title>5&#45;&gt;8</title>
<path fill="none" stroke="grey" stroke-width="2" d="M374.24,-287.7C386.19,-278.8 400.92,-267.82 413.85,-258.2"/>
<polygon fill="grey" stroke="grey" stroke-width="2" points="416.1,-260.88 422.03,-252.1 411.92,-255.27 416.1,-260.88"/>
</g>
<!-- 5&#45;&gt;9 -->
<g id="edge20" class="edge">
<title>5&#45;&gt;9</title>
<path fill="none" stroke="grey" stroke-width="2" d="M395.75,-291.67C430.62,-281.28 479.57,-266.7 519.09,-254.93"/>
<polygon fill="grey" stroke="grey" stroke-width="2" points="520.34,-258.21 528.92,-252 518.34,-251.5 520.34,-258.21"/>
</g>
<!-- 6&#45;&gt;0 -->
<g id="edge4" class="edge">
<title>6&#45;&gt;0</title>
<path fill="none" stroke="grey" stroke-width="2" d="M174.82,-215.85C202.91,-178.28 269.98,-88.58 302.99,-44.43"/>
<polygon fill="grey" stroke="grey" stroke-width="2" points="305.93,-46.34 309.12,-36.23 300.32,-42.15 305.93,-46.34"/>
</g>
<!-- 10 -->
<g id="node11" class="node">
<title>10</title>
<path fill="none" stroke="#56d8c9" stroke-width="2" d="M456,-180C456,-180 386,-180 386,-180 380,-180 374,-174 374,-168 374,-168 374,-156 374,-156 374,-150 380,-144 386,-144 386,-144 456,-144 456,-144 462,-144 468,-150 468,-156 468,-156 468,-168 468,-168 468,-174 462,-180 456,-180"/>
<text text-anchor="middle" x="421" y="-159.5" font-family="sans" font-size="10.00">collapse_scores</text>
</g>
<!-- 6&#45;&gt;10 -->
<g id="edge21" class="edge">
<title>6&#45;&gt;10</title>
<path fill="none" stroke="grey" stroke-width="2" d="M200.11,-218.85C203.11,-217.85 206.1,-216.89 209,-216 260.9,-200.17 320.99,-185.48 363.91,-175.61"/>
<polygon fill="grey" stroke="grey" stroke-width="2" points="364.92,-178.97 373.89,-173.32 363.36,-172.14 364.92,-178.97"/>
</g>
<!-- 7&#45;&gt;0 -->
<g id="edge5" class="edge">
<title>7&#45;&gt;0</title>
<path fill="none" stroke="grey" stroke-width="2" d="M275.67,-215.56C281.95,-185.96 295.31,-124.04 308,-72 310.06,-63.55 312.43,-54.38 314.64,-46.07"/>
<polygon fill="grey" stroke="grey" stroke-width="2" points="318.09,-46.71 317.29,-36.14 311.33,-44.9 318.09,-46.71"/>
</g>
<!-- 7&#45;&gt;10 -->
<g id="edge22" class="edge">
<title>7&#45;&gt;10</title>
<path fill="none" stroke="grey" stroke-width="2" d="M308.45,-215.88C328.64,-206.39 353.92,-194.51 375.41,-184.42"/>
<polygon fill="grey" stroke="grey" stroke-width="2" points="377.11,-187.49 384.67,-180.07 374.13,-181.15 377.11,-187.49"/>
</g>
<!-- 8&#45;&gt;0 -->
<g id="edge6" class="edge">
<title>8&#45;&gt;0</title>
<path fill="none" stroke="grey" stroke-width="2" d="M458.03,-215.75C480.13,-184.26 519.51,-116.58 487,-72 462.78,-38.78 417.4,-25.92 380.35,-21.16"/>
<polygon fill="grey" stroke="grey" stroke-width="2" points="380.48,-17.65 370.15,-20.02 379.7,-24.6 380.48,-17.65"/>
</g>
<!-- 8&#45;&gt;10 -->
<g id="edge24" class="edge">
<title>8&#45;&gt;10</title>
<path fill="none" stroke="grey" stroke-width="2" d="M439.07,-215.7C436.39,-207.9 433.17,-198.51 430.2,-189.83"/>
<polygon fill="grey" stroke="grey" stroke-width="2" points="433.42,-188.43 426.86,-180.1 426.8,-190.7 433.42,-188.43"/>
</g>
<!-- 9&#45;&gt;0 -->
<g id="edge7" class="edge">
<title>9&#45;&gt;0</title>
<path fill="none" stroke="grey" stroke-width="2" d="M582.55,-215.81C575.03,-182.86 554.02,-110.65 508,-72 472.17,-41.9 420.22,-28.87 380.33,-23.24"/>
<polygon fill="grey" stroke="grey" stroke-width="2" points="380.57,-19.74 370.2,-21.93 379.67,-26.68 380.57,-19.74"/>
</g>
<!-- 9&#45;&gt;10 -->
<g id="edge23" class="edge">
<title>9&#45;&gt;10</title>
<path fill="none" stroke="grey" stroke-width="2" d="M545.64,-215.88C522.98,-206.26 494.53,-194.19 470.53,-184.01"/>
<polygon fill="grey" stroke="grey" stroke-width="2" points="471.81,-180.75 461.23,-180.07 469.07,-187.2 471.81,-180.75"/>
</g>
<!-- 10&#45;&gt;0 -->
<g id="edge8" class="edge">
<title>10&#45;&gt;0</title>
<path fill="none" stroke="grey" stroke-width="2" d="M441.89,-143.94C461.86,-125.53 486.65,-95.65 470,-72 449.8,-43.31 412.55,-30.07 380.48,-23.99"/>
<polygon fill="grey" stroke="grey" stroke-width="2" points="380.72,-20.48 370.28,-22.26 379.55,-27.39 380.72,-20.48"/>
</g>
<!-- 11 -->
<g id="node12" class="node">
<title>11</title>
<path fill="none" stroke="#d85656" stroke-width="2" d="M449.5,-108C449.5,-108 362.5,-108 362.5,-108 356.5,-108 350.5,-102 350.5,-96 350.5,-96 350.5,-84 350.5,-84 350.5,-78 356.5,-72 362.5,-72 362.5,-72 449.5,-72 449.5,-72 455.5,-72 461.5,-78 461.5,-84 461.5,-84 461.5,-96 461.5,-96 461.5,-102 455.5,-108 449.5,-108"/>
<text text-anchor="middle" x="406" y="-87.5" font-family="sans" font-size="10.00">structural_mapping</text>
</g>
<!-- 10&#45;&gt;11 -->
<g id="edge25" class="edge">
<title>10&#45;&gt;11</title>
<path fill="none" stroke="grey" stroke-width="2" d="M417.29,-143.7C415.64,-135.98 413.65,-126.71 411.81,-118.11"/>
<polygon fill="grey" stroke="grey" stroke-width="2" points="415.18,-117.15 409.67,-108.1 408.34,-118.62 415.18,-117.15"/>
</g>
<!-- 11&#45;&gt;0 -->
<g id="edge9" class="edge">
<title>11&#45;&gt;0</title>
<path fill="none" stroke="grey" stroke-width="2" d="M385.24,-71.7C374.76,-62.97 361.89,-52.24 350.5,-42.75"/>
<polygon fill="grey" stroke="grey" stroke-width="2" points="352.45,-39.82 342.53,-36.1 347.97,-45.19 352.45,-39.82"/>
</g>
</g>
</svg>
