<?xml version="1.0" encoding="UTF-8" standalone="no"?>
<!DOCTYPE svg PUBLIC "-//W3C//DTD SVG 1.1//EN"
 "http://www.w3.org/Graphics/SVG/1.1/DTD/svg11.dtd">
<!-- Generated by graphviz version 2.42.3 (20191010.1750)
 -->
<!-- Title: snakemake_dag Pages: 1 -->
<svg width="384pt" height="404pt"
 viewBox="0.00 0.00 383.50 404.00" xmlns="http://www.w3.org/2000/svg" xmlns:xlink="http://www.w3.org/1999/xlink">
<g id="graph0" class="graph" transform="scale(1 1) rotate(0) translate(4 400)">
<title>snakemake_dag</title>
<polygon fill="white" stroke="transparent" points="-4,4 -4,-400 379.5,-400 379.5,4 -4,4"/>
<!-- 0 -->
<g id="node1" class="node">
<title>0</title>
<path fill="none" stroke="#569ad8" stroke-width="2" d="M189,-36C189,-36 117,-36 117,-36 111,-36 105,-30 105,-24 105,-24 105,-12 105,-12 105,-6 111,0 117,0 117,0 189,0 189,0 195,0 201,-6 201,-12 201,-12 201,-24 201,-24 201,-30 195,-36 189,-36"/>
<text text-anchor="middle" x="153" y="-15.5" font-family="sans" font-size="10.00">make_summary</text>
</g>
<!-- 1 -->
<g id="node2" class="node">
<title>1</title>
<path fill="none" stroke="#d6d856" stroke-width="2" d="M56,-108C56,-108 12,-108 12,-108 6,-108 0,-102 0,-96 0,-96 0,-84 0,-84 0,-78 6,-72 12,-72 12,-72 56,-72 56,-72 62,-72 68,-78 68,-84 68,-84 68,-96 68,-96 68,-102 62,-108 56,-108"/>
<text text-anchor="middle" x="34" y="-87.5" font-family="sans" font-size="10.00">make_dag</text>
</g>
<!-- 1&#45;&gt;0 -->
<g id="edge1" class="edge">
<title>1&#45;&gt;0</title>
<path fill="none" stroke="grey" stroke-width="2" d="M63.11,-71.88C78.67,-62.72 98.02,-51.34 114.78,-41.48"/>
<polygon fill="grey" stroke="grey" stroke-width="2" points="116.93,-44.28 123.78,-36.19 113.38,-38.24 116.93,-44.28"/>
</g>
<!-- 2 -->
<g id="node3" class="node">
<title>2</title>
<path fill="none" stroke="#56d89a" stroke-width="2" d="M245.5,-324C245.5,-324 194.5,-324 194.5,-324 188.5,-324 182.5,-318 182.5,-312 182.5,-312 182.5,-300 182.5,-300 182.5,-294 188.5,-288 194.5,-288 194.5,-288 245.5,-288 245.5,-288 251.5,-288 257.5,-294 257.5,-300 257.5,-300 257.5,-312 257.5,-312 257.5,-318 251.5,-324 245.5,-324"/>
<text text-anchor="middle" x="220" y="-303.5" font-family="sans" font-size="10.00">process_ccs</text>
</g>
<!-- 2&#45;&gt;0 -->
<g id="edge2" class="edge">
<title>2&#45;&gt;0</title>
<path fill="none" stroke="grey" stroke-width="2" d="M182.25,-293.03C162.97,-284.78 141.25,-271.68 130,-252 92.12,-185.73 122.19,-91.3 140.91,-45.69"/>
<polygon fill="grey" stroke="grey" stroke-width="2" points="144.24,-46.79 144.92,-36.21 137.8,-44.05 144.24,-46.79"/>
</g>
<!-- 5 -->
<g id="node6" class="node">
<title>5</title>
<path fill="none" stroke="#d85656" stroke-width="2" d="M216.5,-252C216.5,-252 151.5,-252 151.5,-252 145.5,-252 139.5,-246 139.5,-240 139.5,-240 139.5,-228 139.5,-228 139.5,-222 145.5,-216 151.5,-216 151.5,-216 216.5,-216 216.5,-216 222.5,-216 228.5,-222 228.5,-228 228.5,-228 228.5,-240 228.5,-240 228.5,-246 222.5,-252 216.5,-252"/>
<text text-anchor="middle" x="184" y="-231.5" font-family="sans" font-size="10.00">count_variants</text>
</g>
<!-- 2&#45;&gt;5 -->
<g id="edge9" class="edge">
<title>2&#45;&gt;5</title>
<path fill="none" stroke="grey" stroke-width="2" d="M211.1,-287.7C207,-279.73 202.05,-270.1 197.51,-261.26"/>
<polygon fill="grey" stroke="grey" stroke-width="2" points="200.48,-259.4 192.8,-252.1 194.26,-262.6 200.48,-259.4"/>
</g>
<!-- 6 -->
<g id="node7" class="node">
<title>6</title>
<path fill="none" stroke="#59d856" stroke-width="2" d="M226,-180C226,-180 174,-180 174,-180 168,-180 162,-174 162,-168 162,-168 162,-156 162,-156 162,-150 168,-144 174,-144 174,-144 226,-144 226,-144 232,-144 238,-150 238,-156 238,-156 238,-168 238,-168 238,-174 232,-180 226,-180"/>
<text text-anchor="middle" x="200" y="-159.5" font-family="sans" font-size="10.00">fit_titrations</text>
</g>
<!-- 2&#45;&gt;6 -->
<g id="edge10" class="edge">
<title>2&#45;&gt;6</title>
<path fill="none" stroke="grey" stroke-width="2" d="M228.15,-287.98C235.7,-269.85 244.69,-240.46 237,-216 233.9,-206.15 228.25,-196.53 222.28,-188.25"/>
<polygon fill="grey" stroke="grey" stroke-width="2" points="224.91,-185.94 216.04,-180.15 219.37,-190.21 224.91,-185.94"/>
</g>
<!-- 7 -->
<g id="node8" class="node">
<title>7</title>
<path fill="none" stroke="#d89556" stroke-width="2" d="M363.5,-180C363.5,-180 268.5,-180 268.5,-180 262.5,-180 256.5,-174 256.5,-168 256.5,-168 256.5,-156 256.5,-156 256.5,-150 262.5,-144 268.5,-144 268.5,-144 363.5,-144 363.5,-144 369.5,-144 375.5,-150 375.5,-156 375.5,-156 375.5,-168 375.5,-168 375.5,-174 369.5,-180 363.5,-180"/>
<text text-anchor="middle" x="316" y="-159.5" font-family="sans" font-size="10.00">calculate_expression</text>
</g>
<!-- 2&#45;&gt;7 -->
<g id="edge12" class="edge">
<title>2&#45;&gt;7</title>
<path fill="none" stroke="grey" stroke-width="2" d="M231.58,-287.87C248.3,-263.14 279.33,-217.24 298.75,-188.51"/>
<polygon fill="grey" stroke="grey" stroke-width="2" points="301.68,-190.43 304.38,-180.19 295.88,-186.51 301.68,-190.43"/>
</g>
<!-- 3 -->
<g id="node4" class="node">
<title>3</title>
<path fill="none" stroke="#97d856" stroke-width="2" d="M199,-396C199,-396 91,-396 91,-396 85,-396 79,-390 79,-384 79,-384 79,-372 79,-372 79,-366 85,-360 91,-360 91,-360 199,-360 199,-360 205,-360 211,-366 211,-372 211,-372 211,-384 211,-384 211,-390 205,-396 199,-396"/>
<text text-anchor="middle" x="145" y="-381" font-family="sans" font-size="10.00">build_ccs</text>
<text text-anchor="middle" x="145" y="-370" font-family="sans" font-size="10.00">pacbioRun: lib1_210619</text>
</g>
<!-- 3&#45;&gt;2 -->
<g id="edge7" class="edge">
<title>3&#45;&gt;2</title>
<path fill="none" stroke="grey" stroke-width="2" d="M163.54,-359.7C172.8,-351.05 184.16,-340.45 194.26,-331.03"/>
<polygon fill="grey" stroke="grey" stroke-width="2" points="196.75,-333.49 201.67,-324.1 191.98,-328.37 196.75,-333.49"/>
</g>
<!-- 4 -->
<g id="node5" class="node">
<title>4</title>
<path fill="none" stroke="#97d856" stroke-width="2" d="M349,-396C349,-396 241,-396 241,-396 235,-396 229,-390 229,-384 229,-384 229,-372 229,-372 229,-366 235,-360 241,-360 241,-360 349,-360 349,-360 355,-360 361,-366 361,-372 361,-372 361,-384 361,-384 361,-390 355,-396 349,-396"/>
<text text-anchor="middle" x="295" y="-381" font-family="sans" font-size="10.00">build_ccs</text>
<text text-anchor="middle" x="295" y="-370" font-family="sans" font-size="10.00">pacbioRun: lib2_210619</text>
</g>
<!-- 4&#45;&gt;2 -->
<g id="edge8" class="edge">
<title>4&#45;&gt;2</title>
<path fill="none" stroke="grey" stroke-width="2" d="M276.46,-359.7C267.2,-351.05 255.84,-340.45 245.74,-331.03"/>
<polygon fill="grey" stroke="grey" stroke-width="2" points="248.02,-328.37 238.33,-324.1 243.25,-333.49 248.02,-328.37"/>
</g>
<!-- 5&#45;&gt;0 -->
<g id="edge3" class="edge">
<title>5&#45;&gt;0</title>
<path fill="none" stroke="grey" stroke-width="2" d="M170.85,-215.91C164.08,-206.01 156.51,-192.96 153,-180 140.65,-134.43 144.6,-78.91 148.71,-46.4"/>
<polygon fill="grey" stroke="grey" stroke-width="2" points="152.21,-46.69 150.09,-36.31 145.27,-45.74 152.21,-46.69"/>
</g>
<!-- 5&#45;&gt;6 -->
<g id="edge11" class="edge">
<title>5&#45;&gt;6</title>
<path fill="none" stroke="grey" stroke-width="2" d="M187.96,-215.7C189.72,-207.98 191.84,-198.71 193.8,-190.11"/>
<polygon fill="grey" stroke="grey" stroke-width="2" points="197.27,-190.63 196.09,-180.1 190.45,-189.07 197.27,-190.63"/>
</g>
<!-- 5&#45;&gt;7 -->
<g id="edge13" class="edge">
<title>5&#45;&gt;7</title>
<path fill="none" stroke="grey" stroke-width="2" d="M216.29,-215.88C233.87,-206.55 255.81,-194.92 274.63,-184.94"/>
<polygon fill="grey" stroke="grey" stroke-width="2" points="276.39,-187.97 283.59,-180.19 273.11,-181.78 276.39,-187.97"/>
</g>
<!-- 6&#45;&gt;0 -->
<g id="edge4" class="edge">
<title>6&#45;&gt;0</title>
<path fill="none" stroke="grey" stroke-width="2" d="M194.33,-143.87C186.29,-119.56 171.48,-74.82 161.94,-46.01"/>
<polygon fill="grey" stroke="grey" stroke-width="2" points="165.15,-44.58 158.69,-36.19 158.51,-46.78 165.15,-44.58"/>
</g>
<!-- 8 -->
<g id="node9" class="node">
<title>8</title>
<path fill="none" stroke="#56d8d8" stroke-width="2" d="M282,-108C282,-108 212,-108 212,-108 206,-108 200,-102 200,-96 200,-96 200,-84 200,-84 200,-78 206,-72 212,-72 212,-72 282,-72 282,-72 288,-72 294,-78 294,-84 294,-84 294,-96 294,-96 294,-102 288,-108 282,-108"/>
<text text-anchor="middle" x="247" y="-87.5" font-family="sans" font-size="10.00">collapse_scores</text>
</g>
<!-- 6&#45;&gt;8 -->
<g id="edge14" class="edge">
<title>6&#45;&gt;8</title>
<path fill="none" stroke="grey" stroke-width="2" d="M211.62,-143.7C217.14,-135.47 223.85,-125.48 229.93,-116.42"/>
<polygon fill="grey" stroke="grey" stroke-width="2" points="232.85,-118.36 235.52,-108.1 227.04,-114.46 232.85,-118.36"/>
</g>
<!-- 7&#45;&gt;0 -->
<g id="edge5" class="edge">
<title>7&#45;&gt;0</title>
<path fill="none" stroke="grey" stroke-width="2" d="M318.35,-143.86C320.05,-124.26 319.66,-92.26 303,-72 280.6,-44.76 243.23,-31.51 211.4,-25.07"/>
<polygon fill="grey" stroke="grey" stroke-width="2" points="211.75,-21.57 201.28,-23.21 210.49,-28.46 211.75,-21.57"/>
</g>
<!-- 7&#45;&gt;8 -->
<g id="edge15" class="edge">
<title>7&#45;&gt;8</title>
<path fill="none" stroke="grey" stroke-width="2" d="M298.94,-143.7C290.5,-135.14 280.18,-124.66 270.96,-115.3"/>
<polygon fill="grey" stroke="grey" stroke-width="2" points="273.37,-112.77 263.86,-108.1 268.39,-117.68 273.37,-112.77"/>
</g>
<!-- 8&#45;&gt;0 -->
<g id="edge6" class="edge">
<title>8&#45;&gt;0</title>
<path fill="none" stroke="grey" stroke-width="2" d="M223.76,-71.7C211.81,-62.8 197.08,-51.82 184.15,-42.2"/>
<polygon fill="grey" stroke="grey" stroke-width="2" points="186.08,-39.27 175.97,-36.1 181.9,-44.88 186.08,-39.27"/>
</g>
</g>
</svg>
