<?xml version="1.0" encoding="UTF-8" standalone="no"?>
<!DOCTYPE svg PUBLIC "-//W3C//DTD SVG 1.1//EN"
 "http://www.w3.org/Graphics/SVG/1.1/DTD/svg11.dtd">
<!-- Generated by graphviz version 2.42.3 (20191010.1750)
 -->
<!-- Title: snakemake_dag Pages: 1 -->
<svg width="490pt" height="404pt"
 viewBox="0.00 0.00 489.50 404.00" xmlns="http://www.w3.org/2000/svg" xmlns:xlink="http://www.w3.org/1999/xlink">
<g id="graph0" class="graph" transform="scale(1 1) rotate(0) translate(4 400)">
<title>snakemake_dag</title>
<polygon fill="white" stroke="transparent" points="-4,4 -4,-400 485.5,-400 485.5,4 -4,4"/>
<!-- 0 -->
<g id="node1" class="node">
<title>0</title>
<path fill="none" stroke="#5692d8" stroke-width="2" d="M264,-36C264,-36 192,-36 192,-36 186,-36 180,-30 180,-24 180,-24 180,-12 180,-12 180,-6 186,0 192,0 192,0 264,0 264,0 270,0 276,-6 276,-12 276,-12 276,-24 276,-24 276,-30 270,-36 264,-36"/>
<text text-anchor="middle" x="228" y="-15.5" font-family="sans" font-size="10.00">make_summary</text>
</g>
<!-- 1 -->
<g id="node2" class="node">
<title>1</title>
<path fill="none" stroke="#56d873" stroke-width="2" d="M56,-108C56,-108 12,-108 12,-108 6,-108 0,-102 0,-96 0,-96 0,-84 0,-84 0,-78 6,-72 12,-72 12,-72 56,-72 56,-72 62,-72 68,-78 68,-84 68,-84 68,-96 68,-96 68,-102 62,-108 56,-108"/>
<text text-anchor="middle" x="34" y="-87.5" font-family="sans" font-size="10.00">make_dag</text>
</g>
<!-- 1&#45;&gt;0 -->
<g id="edge1" class="edge">
<title>1&#45;&gt;0</title>
<path fill="none" stroke="grey" stroke-width="2" d="M68.24,-76.65C96.65,-66.39 137.66,-51.6 171.01,-39.56"/>
<polygon fill="grey" stroke="grey" stroke-width="2" points="172.43,-42.77 180.64,-36.09 170.05,-36.19 172.43,-42.77"/>
</g>
<!-- 2 -->
<g id="node3" class="node">
<title>2</title>
<path fill="none" stroke="#70d856" stroke-width="2" d="M256.5,-324C256.5,-324 205.5,-324 205.5,-324 199.5,-324 193.5,-318 193.5,-312 193.5,-312 193.5,-300 193.5,-300 193.5,-294 199.5,-288 205.5,-288 205.5,-288 256.5,-288 256.5,-288 262.5,-288 268.5,-294 268.5,-300 268.5,-300 268.5,-312 268.5,-312 268.5,-318 262.5,-324 256.5,-324"/>
<text text-anchor="middle" x="231" y="-303.5" font-family="sans" font-size="10.00">process_ccs</text>
</g>
<!-- 2&#45;&gt;0 -->
<g id="edge2" class="edge">
<title>2&#45;&gt;0</title>
<path fill="none" stroke="grey" stroke-width="2" d="M204.59,-287.93C174.98,-266.84 129.23,-227.82 115,-180 98.43,-124.31 153.79,-71.53 192.8,-42.39"/>
<polygon fill="grey" stroke="grey" stroke-width="2" points="195.29,-44.91 201.33,-36.2 191.18,-39.24 195.29,-44.91"/>
</g>
<!-- 5 -->
<g id="node6" class="node">
<title>5</title>
<path fill="none" stroke="#d85656" stroke-width="2" d="M263.5,-252C263.5,-252 198.5,-252 198.5,-252 192.5,-252 186.5,-246 186.5,-240 186.5,-240 186.5,-228 186.5,-228 186.5,-222 192.5,-216 198.5,-216 198.5,-216 263.5,-216 263.5,-216 269.5,-216 275.5,-222 275.5,-228 275.5,-228 275.5,-240 275.5,-240 275.5,-246 269.5,-252 263.5,-252"/>
<text text-anchor="middle" x="231" y="-231.5" font-family="sans" font-size="10.00">count_variants</text>
</g>
<!-- 2&#45;&gt;5 -->
<g id="edge10" class="edge">
<title>2&#45;&gt;5</title>
<path fill="none" stroke="grey" stroke-width="2" d="M231,-287.7C231,-279.98 231,-270.71 231,-262.11"/>
<polygon fill="grey" stroke="grey" stroke-width="2" points="234.5,-262.1 231,-252.1 227.5,-262.1 234.5,-262.1"/>
</g>
<!-- 6 -->
<g id="node7" class="node">
<title>6</title>
<path fill="none" stroke="#56d8a9" stroke-width="2" d="M188,-180C188,-180 136,-180 136,-180 130,-180 124,-174 124,-168 124,-168 124,-156 124,-156 124,-150 130,-144 136,-144 136,-144 188,-144 188,-144 194,-144 200,-150 200,-156 200,-156 200,-168 200,-168 200,-174 194,-180 188,-180"/>
<text text-anchor="middle" x="162" y="-159.5" font-family="sans" font-size="10.00">fit_titrations</text>
</g>
<!-- 2&#45;&gt;6 -->
<g id="edge11" class="edge">
<title>2&#45;&gt;6</title>
<path fill="none" stroke="grey" stroke-width="2" d="M207.65,-287.85C196.61,-278.49 184.29,-265.98 177,-252 167,-232.84 163.42,-208.49 162.25,-190.1"/>
<polygon fill="grey" stroke="grey" stroke-width="2" points="165.74,-189.89 161.81,-180.05 158.75,-190.2 165.74,-189.89"/>
</g>
<!-- 7 -->
<g id="node8" class="node">
<title>7</title>
<path fill="none" stroke="#d88d56" stroke-width="2" d="M332,-180C332,-180 268,-180 268,-180 262,-180 256,-174 256,-168 256,-168 256,-156 256,-156 256,-150 262,-144 268,-144 268,-144 332,-144 332,-144 338,-144 344,-150 344,-156 344,-156 344,-168 344,-168 344,-174 338,-180 332,-180"/>
<text text-anchor="middle" x="300" y="-159.5" font-family="sans" font-size="10.00">fit_PSR_curves</text>
</g>
<!-- 2&#45;&gt;7 -->
<g id="edge13" class="edge">
<title>2&#45;&gt;7</title>
<path fill="none" stroke="grey" stroke-width="2" d="M253.59,-287.97C264.47,-278.56 276.71,-265.95 284,-252 294.03,-232.81 297.9,-208.46 299.33,-190.09"/>
<polygon fill="grey" stroke="grey" stroke-width="2" points="302.83,-190.23 299.92,-180.04 295.84,-189.82 302.83,-190.23"/>
</g>
<!-- 8 -->
<g id="node9" class="node">
<title>8</title>
<path fill="none" stroke="#56c9d8" stroke-width="2" d="M469.5,-180C469.5,-180 374.5,-180 374.5,-180 368.5,-180 362.5,-174 362.5,-168 362.5,-168 362.5,-156 362.5,-156 362.5,-150 368.5,-144 374.5,-144 374.5,-144 469.5,-144 469.5,-144 475.5,-144 481.5,-150 481.5,-156 481.5,-156 481.5,-168 481.5,-168 481.5,-174 475.5,-180 469.5,-180"/>
<text text-anchor="middle" x="422" y="-159.5" font-family="sans" font-size="10.00">calculate_expression</text>
</g>
<!-- 2&#45;&gt;8 -->
<g id="edge15" class="edge">
<title>2&#45;&gt;8</title>
<path fill="none" stroke="grey" stroke-width="2" d="M254.75,-287.92C269.06,-277.59 287.63,-264.11 304,-252 333.76,-229.98 367.46,-204.51 391.2,-186.47"/>
<polygon fill="grey" stroke="grey" stroke-width="2" points="393.63,-189.02 399.47,-180.18 389.39,-183.45 393.63,-189.02"/>
</g>
<!-- 3 -->
<g id="node4" class="node">
<title>3</title>
<path fill="none" stroke="#d8cb56" stroke-width="2" d="M210,-396C210,-396 102,-396 102,-396 96,-396 90,-390 90,-384 90,-384 90,-372 90,-372 90,-366 96,-360 102,-360 102,-360 210,-360 210,-360 216,-360 222,-366 222,-372 222,-372 222,-384 222,-384 222,-390 216,-396 210,-396"/>
<text text-anchor="middle" x="156" y="-381" font-family="sans" font-size="10.00">build_ccs</text>
<text text-anchor="middle" x="156" y="-370" font-family="sans" font-size="10.00">pacbioRun: lib1_210619</text>
</g>
<!-- 3&#45;&gt;2 -->
<g id="edge8" class="edge">
<title>3&#45;&gt;2</title>
<path fill="none" stroke="grey" stroke-width="2" d="M174.54,-359.7C183.8,-351.05 195.16,-340.45 205.26,-331.03"/>
<polygon fill="grey" stroke="grey" stroke-width="2" points="207.75,-333.49 212.67,-324.1 202.98,-328.37 207.75,-333.49"/>
</g>
<!-- 4 -->
<g id="node5" class="node">
<title>4</title>
<path fill="none" stroke="#d8cb56" stroke-width="2" d="M360,-396C360,-396 252,-396 252,-396 246,-396 240,-390 240,-384 240,-384 240,-372 240,-372 240,-366 246,-360 252,-360 252,-360 360,-360 360,-360 366,-360 372,-366 372,-372 372,-372 372,-384 372,-384 372,-390 366,-396 360,-396"/>
<text text-anchor="middle" x="306" y="-381" font-family="sans" font-size="10.00">build_ccs</text>
<text text-anchor="middle" x="306" y="-370" font-family="sans" font-size="10.00">pacbioRun: lib2_210619</text>
</g>
<!-- 4&#45;&gt;2 -->
<g id="edge9" class="edge">
<title>4&#45;&gt;2</title>
<path fill="none" stroke="grey" stroke-width="2" d="M287.46,-359.7C278.2,-351.05 266.84,-340.45 256.74,-331.03"/>
<polygon fill="grey" stroke="grey" stroke-width="2" points="259.02,-328.37 249.33,-324.1 254.25,-333.49 259.02,-328.37"/>
</g>
<!-- 5&#45;&gt;0 -->
<g id="edge3" class="edge">
<title>5&#45;&gt;0</title>
<path fill="none" stroke="grey" stroke-width="2" d="M230.76,-215.85C230.24,-178.83 229.01,-91.18 228.38,-46.39"/>
<polygon fill="grey" stroke="grey" stroke-width="2" points="231.88,-46.18 228.24,-36.23 224.88,-46.28 231.88,-46.18"/>
</g>
<!-- 5&#45;&gt;6 -->
<g id="edge12" class="edge">
<title>5&#45;&gt;6</title>
<path fill="none" stroke="grey" stroke-width="2" d="M213.94,-215.7C205.5,-207.14 195.18,-196.66 185.96,-187.3"/>
<polygon fill="grey" stroke="grey" stroke-width="2" points="188.37,-184.77 178.86,-180.1 183.39,-189.68 188.37,-184.77"/>
</g>
<!-- 5&#45;&gt;7 -->
<g id="edge14" class="edge">
<title>5&#45;&gt;7</title>
<path fill="none" stroke="grey" stroke-width="2" d="M248.06,-215.7C256.5,-207.14 266.82,-196.66 276.04,-187.3"/>
<polygon fill="grey" stroke="grey" stroke-width="2" points="278.61,-189.68 283.14,-180.1 273.63,-184.77 278.61,-189.68"/>
</g>
<!-- 5&#45;&gt;8 -->
<g id="edge16" class="edge">
<title>5&#45;&gt;8</title>
<path fill="none" stroke="grey" stroke-width="2" d="M275.78,-216.59C302.73,-206.71 337.26,-194.06 366,-183.52"/>
<polygon fill="grey" stroke="grey" stroke-width="2" points="367.32,-186.77 375.51,-180.04 364.91,-180.19 367.32,-186.77"/>
</g>
<!-- 6&#45;&gt;0 -->
<g id="edge4" class="edge">
<title>6&#45;&gt;0</title>
<path fill="none" stroke="grey" stroke-width="2" d="M169.96,-143.87C181.36,-119.35 202.42,-74.03 215.8,-45.26"/>
<polygon fill="grey" stroke="grey" stroke-width="2" points="218.97,-46.73 220.01,-36.19 212.62,-43.78 218.97,-46.73"/>
</g>
<!-- 9 -->
<g id="node10" class="node">
<title>9</title>
<path fill="none" stroke="#afd856" stroke-width="2" d="M376,-108C376,-108 306,-108 306,-108 300,-108 294,-102 294,-96 294,-96 294,-84 294,-84 294,-78 300,-72 306,-72 306,-72 376,-72 376,-72 382,-72 388,-78 388,-84 388,-84 388,-96 388,-96 388,-102 382,-108 376,-108"/>
<text text-anchor="middle" x="341" y="-87.5" font-family="sans" font-size="10.00">collapse_scores</text>
</g>
<!-- 6&#45;&gt;9 -->
<g id="edge17" class="edge">
<title>6&#45;&gt;9</title>
<path fill="none" stroke="grey" stroke-width="2" d="M200.4,-145.98C225.85,-136.03 259.6,-122.83 287.65,-111.86"/>
<polygon fill="grey" stroke="grey" stroke-width="2" points="289.28,-114.99 297.31,-108.08 286.73,-108.47 289.28,-114.99"/>
</g>
<!-- 7&#45;&gt;0 -->
<g id="edge5" class="edge">
<title>7&#45;&gt;0</title>
<path fill="none" stroke="grey" stroke-width="2" d="M291.32,-143.87C278.88,-119.35 255.9,-74.03 241.31,-45.26"/>
<polygon fill="grey" stroke="grey" stroke-width="2" points="244.36,-43.53 236.72,-36.19 238.12,-46.69 244.36,-43.53"/>
</g>
<!-- 7&#45;&gt;9 -->
<g id="edge19" class="edge">
<title>7&#45;&gt;9</title>
<path fill="none" stroke="grey" stroke-width="2" d="M310.13,-143.7C314.85,-135.64 320.56,-125.89 325.78,-116.98"/>
<polygon fill="grey" stroke="grey" stroke-width="2" points="328.95,-118.5 330.98,-108.1 322.91,-114.96 328.95,-118.5"/>
</g>
<!-- 8&#45;&gt;0 -->
<g id="edge6" class="edge">
<title>8&#45;&gt;0</title>
<path fill="none" stroke="grey" stroke-width="2" d="M421.85,-143.89C420.73,-124.02 415.89,-91.47 397,-72 368.13,-42.25 322.79,-29.13 286.34,-23.38"/>
<polygon fill="grey" stroke="grey" stroke-width="2" points="286.71,-19.9 276.32,-21.95 285.72,-26.83 286.71,-19.9"/>
</g>
<!-- 8&#45;&gt;9 -->
<g id="edge18" class="edge">
<title>8&#45;&gt;9</title>
<path fill="none" stroke="grey" stroke-width="2" d="M401.98,-143.7C391.87,-134.97 379.46,-124.24 368.48,-114.75"/>
<polygon fill="grey" stroke="grey" stroke-width="2" points="370.65,-111.99 360.79,-108.1 366.07,-117.29 370.65,-111.99"/>
</g>
<!-- 9&#45;&gt;0 -->
<g id="edge7" class="edge">
<title>9&#45;&gt;0</title>
<path fill="none" stroke="grey" stroke-width="2" d="M313.36,-71.88C298.58,-62.72 280.21,-51.34 264.3,-41.48"/>
<polygon fill="grey" stroke="grey" stroke-width="2" points="266.09,-38.48 255.75,-36.19 262.41,-44.43 266.09,-38.48"/>
</g>
</g>
</svg>
