<?xml version="1.0" encoding="UTF-8" standalone="no"?>
<!DOCTYPE svg PUBLIC "-//W3C//DTD SVG 1.1//EN"
 "http://www.w3.org/Graphics/SVG/1.1/DTD/svg11.dtd">
<!-- Generated by graphviz version 12.0.0 (20240803.0821)
 -->
<!-- Title: snakemake_dag Pages: 1 -->
<svg width="738pt" height="476pt"
 viewBox="0.00 0.00 737.88 476.00" xmlns="http://www.w3.org/2000/svg" xmlns:xlink="http://www.w3.org/1999/xlink">
<g id="graph0" class="graph" transform="scale(1 1) rotate(0) translate(4 472)">
<title>snakemake_dag</title>
<polygon fill="white" stroke="none" points="-4,4 -4,-472 733.88,-472 733.88,4 -4,4"/>
<!-- 0 -->
<g id="node1" class="node">
<title>0</title>
<path fill="none" stroke="#d8cb56" stroke-width="2" d="M359.5,-36C359.5,-36 288.75,-36 288.75,-36 282.75,-36 276.75,-30 276.75,-24 276.75,-24 276.75,-12 276.75,-12 276.75,-6 282.75,0 288.75,0 288.75,0 359.5,0 359.5,0 365.5,0 371.5,-6 371.5,-12 371.5,-12 371.5,-24 371.5,-24 371.5,-30 365.5,-36 359.5,-36"/>
<text text-anchor="middle" x="324.12" y="-14.88" font-family="sans" font-size="10.00">make_summary</text>
</g>
<!-- 1 -->
<g id="node2" class="node">
<title>1</title>
<path fill="none" stroke="#56a9d8" stroke-width="2" d="M54.25,-108C54.25,-108 12,-108 12,-108 6,-108 0,-102 0,-96 0,-96 0,-84 0,-84 0,-78 6,-72 12,-72 12,-72 54.25,-72 54.25,-72 60.25,-72 66.25,-78 66.25,-84 66.25,-84 66.25,-96 66.25,-96 66.25,-102 60.25,-108 54.25,-108"/>
<text text-anchor="middle" x="33.12" y="-86.88" font-family="sans" font-size="10.00">make_dag</text>
</g>
<!-- 1&#45;&gt;0 -->
<g id="edge1" class="edge">
<title>1&#45;&gt;0</title>
<path fill="none" stroke="grey" stroke-width="2" d="M67.09,-76.11C71.45,-74.64 75.87,-73.22 80.12,-72 141.69,-54.27 213.49,-39.34 263.19,-29.9"/>
<polygon fill="grey" stroke="grey" stroke-width="2" points="263.81,-33.34 272.99,-28.06 262.52,-26.46 263.81,-33.34"/>
</g>
<!-- 2 -->
<g id="node3" class="node">
<title>2</title>
<path fill="none" stroke="#56d0d8" stroke-width="2" d="M343.38,-396C343.38,-396 292.88,-396 292.88,-396 286.88,-396 280.88,-390 280.88,-384 280.88,-384 280.88,-372 280.88,-372 280.88,-366 286.88,-360 292.88,-360 292.88,-360 343.38,-360 343.38,-360 349.38,-360 355.38,-366 355.38,-372 355.38,-372 355.38,-384 355.38,-384 355.38,-390 349.38,-396 343.38,-396"/>
<text text-anchor="middle" x="318.12" y="-374.88" font-family="sans" font-size="10.00">process_ccs</text>
</g>
<!-- 2&#45;&gt;0 -->
<g id="edge2" class="edge">
<title>2&#45;&gt;0</title>
<path fill="none" stroke="grey" stroke-width="2" d="M280.13,-370.79C216.22,-357.95 94.12,-322.02 94.12,-235 94.12,-235 94.12,-235 94.12,-161 94.12,-81.42 195.04,-44.96 263.18,-29.42"/>
<polygon fill="grey" stroke="grey" stroke-width="2" points="263.92,-32.84 272.95,-27.3 262.44,-26 263.92,-32.84"/>
</g>
<!-- 5 -->
<g id="node6" class="node">
<title>5</title>
<path fill="none" stroke="#56d86b" stroke-width="2" d="M350.12,-324C350.12,-324 286.12,-324 286.12,-324 280.12,-324 274.12,-318 274.12,-312 274.12,-312 274.12,-300 274.12,-300 274.12,-294 280.12,-288 286.12,-288 286.12,-288 350.12,-288 350.12,-288 356.12,-288 362.12,-294 362.12,-300 362.12,-300 362.12,-312 362.12,-312 362.12,-318 356.12,-324 350.12,-324"/>
<text text-anchor="middle" x="318.12" y="-302.88" font-family="sans" font-size="10.00">count_variants</text>
</g>
<!-- 2&#45;&gt;5 -->
<g id="edge14" class="edge">
<title>2&#45;&gt;5</title>
<path fill="none" stroke="grey" stroke-width="2" d="M318.12,-359.34C318.12,-352.75 318.12,-345.08 318.12,-337.67"/>
<polygon fill="grey" stroke="grey" stroke-width="2" points="321.63,-337.93 318.13,-327.93 314.63,-337.93 321.63,-337.93"/>
</g>
<!-- 6 -->
<g id="node7" class="node">
<title>6</title>
<path fill="none" stroke="#56d892" stroke-width="2" d="M276.38,-180C276.38,-180 171.88,-180 171.88,-180 165.88,-180 159.88,-174 159.88,-168 159.88,-168 159.88,-156 159.88,-156 159.88,-150 165.88,-144 171.88,-144 171.88,-144 276.38,-144 276.38,-144 282.38,-144 288.38,-150 288.38,-156 288.38,-156 288.38,-168 288.38,-168 288.38,-174 282.38,-180 276.38,-180"/>
<text text-anchor="middle" x="224.12" y="-158.88" font-family="sans" font-size="10.00">prep_Titeseq_barcodes</text>
</g>
<!-- 2&#45;&gt;6 -->
<g id="edge15" class="edge">
<title>2&#45;&gt;6</title>
<path fill="none" stroke="grey" stroke-width="2" d="M280.06,-359.55C242.14,-339.7 186.57,-303.26 165.12,-252 158.95,-237.24 158.61,-230.61 165.12,-216 169.68,-205.79 177.28,-196.72 185.54,-189.1"/>
<polygon fill="grey" stroke="grey" stroke-width="2" points="187.66,-191.89 193.08,-182.78 183.16,-186.52 187.66,-191.89"/>
</g>
<!-- 9 -->
<g id="node10" class="node">
<title>9</title>
<path fill="none" stroke="#68d856" stroke-width="2" d="M237.75,-252C237.75,-252 186.5,-252 186.5,-252 180.5,-252 174.5,-246 174.5,-240 174.5,-240 174.5,-228 174.5,-228 174.5,-222 180.5,-216 186.5,-216 186.5,-216 237.75,-216 237.75,-216 243.75,-216 249.75,-222 249.75,-228 249.75,-228 249.75,-240 249.75,-240 249.75,-246 243.75,-252 237.75,-252"/>
<text text-anchor="middle" x="212.12" y="-230.88" font-family="sans" font-size="10.00">fit_titrations</text>
</g>
<!-- 2&#45;&gt;9 -->
<g id="edge23" class="edge">
<title>2&#45;&gt;9</title>
<path fill="none" stroke="grey" stroke-width="2" d="M298.03,-359.18C287.57,-349.36 274.95,-336.63 265.12,-324 250.59,-305.32 236.99,-282.32 227.21,-264.38"/>
<polygon fill="grey" stroke="grey" stroke-width="2" points="230.29,-262.74 222.5,-255.56 224.12,-266.03 230.29,-262.74"/>
</g>
<!-- 10 -->
<g id="node11" class="node">
<title>10</title>
<path fill="none" stroke="#d8a456" stroke-width="2" d="M438.12,-252C438.12,-252 356.12,-252 356.12,-252 350.12,-252 344.12,-246 344.12,-240 344.12,-240 344.12,-228 344.12,-228 344.12,-222 350.12,-216 356.12,-216 356.12,-216 438.12,-216 438.12,-216 444.12,-216 450.12,-222 450.12,-228 450.12,-228 450.12,-240 450.12,-240 450.12,-246 444.12,-252 438.12,-252"/>
<text text-anchor="middle" x="397.12" y="-230.88" font-family="sans" font-size="10.00">fit_titrations_TuGG</text>
</g>
<!-- 2&#45;&gt;10 -->
<g id="edge25" class="edge">
<title>2&#45;&gt;10</title>
<path fill="none" stroke="grey" stroke-width="2" d="M340.63,-359.16C351.23,-349.71 363.23,-337.32 371.12,-324 381.78,-306.01 388.32,-283.36 392.17,-265.42"/>
<polygon fill="grey" stroke="grey" stroke-width="2" points="395.58,-266.22 394.04,-255.74 388.71,-264.89 395.58,-266.22"/>
</g>
<!-- 11 -->
<g id="node12" class="node">
<title>11</title>
<path fill="none" stroke="#56d8b9" stroke-width="2" d="M574.5,-252C574.5,-252 479.75,-252 479.75,-252 473.75,-252 467.75,-246 467.75,-240 467.75,-240 467.75,-228 467.75,-228 467.75,-222 473.75,-216 479.75,-216 479.75,-216 574.5,-216 574.5,-216 580.5,-216 586.5,-222 586.5,-228 586.5,-228 586.5,-240 586.5,-240 586.5,-246 580.5,-252 574.5,-252"/>
<text text-anchor="middle" x="527.12" y="-230.88" font-family="sans" font-size="10.00">calculate_expression</text>
</g>
<!-- 2&#45;&gt;11 -->
<g id="edge27" class="edge">
<title>2&#45;&gt;11</title>
<path fill="none" stroke="grey" stroke-width="2" d="M344.59,-359.02C381.5,-333.94 448.57,-288.37 490.32,-260"/>
<polygon fill="grey" stroke="grey" stroke-width="2" points="492.06,-263.05 498.37,-254.54 488.13,-257.26 492.06,-263.05"/>
</g>
<!-- 12 -->
<g id="node13" class="node">
<title>12</title>
<path fill="none" stroke="#b6d856" stroke-width="2" d="M717.88,-252C717.88,-252 616.38,-252 616.38,-252 610.38,-252 604.38,-246 604.38,-240 604.38,-240 604.38,-228 604.38,-228 604.38,-222 610.38,-216 616.38,-216 616.38,-216 717.88,-216 717.88,-216 723.88,-216 729.88,-222 729.88,-228 729.88,-228 729.88,-240 729.88,-240 729.88,-246 723.88,-252 717.88,-252"/>
<text text-anchor="middle" x="667.12" y="-230.88" font-family="sans" font-size="10.00">calculate_PSR_binding</text>
</g>
<!-- 2&#45;&gt;12 -->
<g id="edge29" class="edge">
<title>2&#45;&gt;12</title>
<path fill="none" stroke="grey" stroke-width="2" d="M356.14,-361.53C417.76,-336.46 539.77,-286.82 611.27,-257.73"/>
<polygon fill="grey" stroke="grey" stroke-width="2" points="612.41,-261.04 620.35,-254.03 609.77,-254.56 612.41,-261.04"/>
</g>
<!-- 3 -->
<g id="node4" class="node">
<title>3</title>
<path fill="none" stroke="#d85656" stroke-width="2" d="M297.25,-468C297.25,-468 189,-468 189,-468 183,-468 177,-462 177,-456 177,-456 177,-444 177,-444 177,-438 183,-432 189,-432 189,-432 297.25,-432 297.25,-432 303.25,-432 309.25,-438 309.25,-444 309.25,-444 309.25,-456 309.25,-456 309.25,-462 303.25,-468 297.25,-468"/>
<text text-anchor="middle" x="243.12" y="-453.25" font-family="sans" font-size="10.00">build_ccs</text>
<text text-anchor="middle" x="243.12" y="-440.5" font-family="sans" font-size="10.00">pacbioRun: lib1_210619</text>
</g>
<!-- 3&#45;&gt;2 -->
<g id="edge12" class="edge">
<title>3&#45;&gt;2</title>
<path fill="none" stroke="grey" stroke-width="2" d="M262.05,-431.34C270.42,-423.52 280.45,-414.16 289.7,-405.53"/>
<polygon fill="grey" stroke="grey" stroke-width="2" points="291.81,-408.35 296.73,-398.97 287.03,-403.23 291.81,-408.35"/>
</g>
<!-- 4 -->
<g id="node5" class="node">
<title>4</title>
<path fill="none" stroke="#d85656" stroke-width="2" d="M447.25,-468C447.25,-468 339,-468 339,-468 333,-468 327,-462 327,-456 327,-456 327,-444 327,-444 327,-438 333,-432 339,-432 339,-432 447.25,-432 447.25,-432 453.25,-432 459.25,-438 459.25,-444 459.25,-444 459.25,-456 459.25,-456 459.25,-462 453.25,-468 447.25,-468"/>
<text text-anchor="middle" x="393.12" y="-453.25" font-family="sans" font-size="10.00">build_ccs</text>
<text text-anchor="middle" x="393.12" y="-440.5" font-family="sans" font-size="10.00">pacbioRun: lib2_210619</text>
</g>
<!-- 4&#45;&gt;2 -->
<g id="edge13" class="edge">
<title>4&#45;&gt;2</title>
<path fill="none" stroke="grey" stroke-width="2" d="M374.2,-431.34C365.83,-423.52 355.8,-414.16 346.55,-405.53"/>
<polygon fill="grey" stroke="grey" stroke-width="2" points="349.22,-403.23 339.52,-398.97 344.44,-408.35 349.22,-403.23"/>
</g>
<!-- 5&#45;&gt;0 -->
<g id="edge3" class="edge">
<title>5&#45;&gt;0</title>
<path fill="none" stroke="grey" stroke-width="2" d="M319.28,-287.09C320.53,-256.26 319.85,-191.87 297.12,-144 287.69,-124.12 271.26,-128.45 263.12,-108 257.21,-93.13 256.49,-86.56 263.12,-72 267.81,-61.72 275.58,-52.67 284.03,-45.09"/>
<polygon fill="grey" stroke="grey" stroke-width="2" points="286.23,-47.81 291.78,-38.78 281.81,-42.38 286.23,-47.81"/>
</g>
<!-- 5&#45;&gt;6 -->
<g id="edge16" class="edge">
<title>5&#45;&gt;6</title>
<path fill="none" stroke="grey" stroke-width="2" d="M306.22,-287.02C290.26,-262.9 261.75,-219.83 242.88,-191.34"/>
<polygon fill="grey" stroke="grey" stroke-width="2" points="246.04,-189.77 237.6,-183.36 240.21,-193.63 246.04,-189.77"/>
</g>
<!-- 5&#45;&gt;9 -->
<g id="edge24" class="edge">
<title>5&#45;&gt;9</title>
<path fill="none" stroke="grey" stroke-width="2" d="M291.1,-287.15C278.52,-278.84 263.34,-268.82 249.66,-259.79"/>
<polygon fill="grey" stroke="grey" stroke-width="2" points="251.9,-257.07 241.62,-254.48 248.04,-262.91 251.9,-257.07"/>
</g>
<!-- 5&#45;&gt;10 -->
<g id="edge26" class="edge">
<title>5&#45;&gt;10</title>
<path fill="none" stroke="grey" stroke-width="2" d="M338.06,-287.34C346.88,-279.52 357.44,-270.16 367.18,-261.53"/>
<polygon fill="grey" stroke="grey" stroke-width="2" points="369.49,-264.16 374.66,-254.91 364.85,-258.92 369.49,-264.16"/>
</g>
<!-- 5&#45;&gt;11 -->
<g id="edge28" class="edge">
<title>5&#45;&gt;11</title>
<path fill="none" stroke="grey" stroke-width="2" d="M362.96,-289.98C391.68,-280.37 429.43,-267.72 461.5,-256.98"/>
<polygon fill="grey" stroke="grey" stroke-width="2" points="462.23,-260.43 470.6,-253.93 460.01,-253.79 462.23,-260.43"/>
</g>
<!-- 5&#45;&gt;12 -->
<g id="edge30" class="edge">
<title>5&#45;&gt;12</title>
<path fill="none" stroke="grey" stroke-width="2" d="M362.86,-297.05C415.15,-287.62 504.6,-271.08 590.86,-252.86"/>
<polygon fill="grey" stroke="grey" stroke-width="2" points="591.54,-256.3 600.59,-250.79 590.08,-249.45 591.54,-256.3"/>
</g>
<!-- 6&#45;&gt;0 -->
<g id="edge4" class="edge">
<title>6&#45;&gt;0</title>
<path fill="none" stroke="grey" stroke-width="2" d="M220.65,-143.1C217.93,-123.97 216.58,-93.49 230.12,-72 238.4,-58.87 251.15,-48.69 264.63,-40.93"/>
<polygon fill="grey" stroke="grey" stroke-width="2" points="266.11,-44.1 273.35,-36.36 262.87,-37.9 266.11,-44.1"/>
</g>
<!-- 7 -->
<g id="node8" class="node">
<title>7</title>
<path fill="none" stroke="#8fd856" stroke-width="2" d="M363.62,-108C363.62,-108 284.62,-108 284.62,-108 278.62,-108 272.62,-102 272.62,-96 272.62,-96 272.62,-84 272.62,-84 272.62,-78 278.62,-72 284.62,-72 284.62,-72 363.62,-72 363.62,-72 369.62,-72 375.62,-78 375.62,-84 375.62,-84 375.62,-96 375.62,-96 375.62,-102 369.62,-108 363.62,-108"/>
<text text-anchor="middle" x="324.12" y="-86.88" font-family="sans" font-size="10.00">Titeseq_modeling</text>
</g>
<!-- 6&#45;&gt;7 -->
<g id="edge17" class="edge">
<title>6&#45;&gt;7</title>
<path fill="none" stroke="grey" stroke-width="2" d="M249.62,-143.15C261.37,-134.93 275.53,-125.02 288.33,-116.06"/>
<polygon fill="grey" stroke="grey" stroke-width="2" points="290.01,-119.15 296.2,-110.55 286,-113.42 290.01,-119.15"/>
</g>
<!-- 7&#45;&gt;0 -->
<g id="edge5" class="edge">
<title>7&#45;&gt;0</title>
<path fill="none" stroke="grey" stroke-width="2" d="M324.12,-71.34C324.12,-64.75 324.12,-57.08 324.12,-49.67"/>
<polygon fill="grey" stroke="grey" stroke-width="2" points="327.63,-49.93 324.13,-39.93 320.63,-49.93 327.63,-49.93"/>
</g>
<!-- 8 -->
<g id="node9" class="node">
<title>8</title>
<path fill="none" stroke="#567bd8" stroke-width="2" d="M521.75,-180C521.75,-180 452.5,-180 452.5,-180 446.5,-180 440.5,-174 440.5,-168 440.5,-168 440.5,-156 440.5,-156 440.5,-150 446.5,-144 452.5,-144 452.5,-144 521.75,-144 521.75,-144 527.75,-144 533.75,-150 533.75,-156 533.75,-156 533.75,-168 533.75,-168 533.75,-174 527.75,-180 521.75,-180"/>
<text text-anchor="middle" x="487.12" y="-158.88" font-family="sans" font-size="10.00">collapse_scores</text>
</g>
<!-- 8&#45;&gt;0 -->
<g id="edge10" class="edge">
<title>8&#45;&gt;0</title>
<path fill="none" stroke="grey" stroke-width="2" d="M518.9,-143.2C531.37,-134.38 544.31,-122.49 551.12,-108 557.93,-93.52 561.07,-84.53 551.12,-72 530.74,-46.3 445.15,-31.9 385.11,-24.79"/>
<polygon fill="grey" stroke="grey" stroke-width="2" points="385.68,-21.33 375.35,-23.68 384.89,-28.29 385.68,-21.33"/>
</g>
<!-- 8&#45;&gt;7 -->
<g id="edge18" class="edge">
<title>8&#45;&gt;7</title>
<path fill="none" stroke="grey" stroke-width="2" d="M445.57,-143.15C424.96,-134.3 399.82,-123.51 377.77,-114.04"/>
<polygon fill="grey" stroke="grey" stroke-width="2" points="379.24,-110.86 368.67,-110.13 376.47,-117.29 379.24,-110.86"/>
</g>
<!-- 13 -->
<g id="node14" class="node">
<title>13</title>
<path fill="none" stroke="#d87d56" stroke-width="2" d="M530.38,-108C530.38,-108 443.88,-108 443.88,-108 437.88,-108 431.88,-102 431.88,-96 431.88,-96 431.88,-84 431.88,-84 431.88,-78 437.88,-72 443.88,-72 443.88,-72 530.38,-72 530.38,-72 536.38,-72 542.38,-78 542.38,-84 542.38,-84 542.38,-96 542.38,-96 542.38,-102 536.38,-108 530.38,-108"/>
<text text-anchor="middle" x="487.12" y="-86.88" font-family="sans" font-size="10.00">structural_mapping</text>
</g>
<!-- 8&#45;&gt;13 -->
<g id="edge31" class="edge">
<title>8&#45;&gt;13</title>
<path fill="none" stroke="grey" stroke-width="2" d="M487.12,-143.34C487.12,-136.75 487.12,-129.08 487.12,-121.67"/>
<polygon fill="grey" stroke="grey" stroke-width="2" points="490.63,-121.93 487.13,-111.93 483.63,-121.93 490.63,-121.93"/>
</g>
<!-- 9&#45;&gt;0 -->
<g id="edge6" class="edge">
<title>9&#45;&gt;0</title>
<path fill="none" stroke="grey" stroke-width="2" d="M182.12,-215.13C170.13,-206.23 157.64,-194.3 151.12,-180 144.49,-165.44 145.38,-158.93 151.12,-144 170.17,-94.47 222.04,-61.24 264.06,-41.57"/>
<polygon fill="grey" stroke="grey" stroke-width="2" points="265.44,-44.79 273.13,-37.5 262.57,-38.4 265.44,-44.79"/>
</g>
<!-- 9&#45;&gt;8 -->
<g id="edge19" class="edge">
<title>9&#45;&gt;8</title>
<path fill="none" stroke="grey" stroke-width="2" d="M250.65,-223.19C296.5,-211.52 373.57,-191.91 427.21,-178.25"/>
<polygon fill="grey" stroke="grey" stroke-width="2" points="427.88,-181.69 436.7,-175.83 426.15,-174.91 427.88,-181.69"/>
</g>
<!-- 10&#45;&gt;0 -->
<g id="edge7" class="edge">
<title>10&#45;&gt;0</title>
<path fill="none" stroke="grey" stroke-width="2" d="M399.97,-215.42C404.1,-184.54 408.88,-119.35 385.12,-72 379.96,-61.7 371.83,-52.56 363.18,-44.89"/>
<polygon fill="grey" stroke="grey" stroke-width="2" points="365.63,-42.37 355.66,-38.78 361.21,-47.8 365.63,-42.37"/>
</g>
<!-- 10&#45;&gt;8 -->
<g id="edge20" class="edge">
<title>10&#45;&gt;8</title>
<path fill="none" stroke="grey" stroke-width="2" d="M419.84,-215.34C430.2,-207.27 442.68,-197.57 454.06,-188.72"/>
<polygon fill="grey" stroke="grey" stroke-width="2" points="455.97,-191.66 461.72,-182.76 451.68,-186.14 455.97,-191.66"/>
</g>
<!-- 11&#45;&gt;0 -->
<g id="edge9" class="edge">
<title>11&#45;&gt;0</title>
<path fill="none" stroke="grey" stroke-width="2" d="M540.58,-215.18C563.07,-183.04 602.61,-114.78 568.12,-72 545.57,-44.02 449.85,-30.05 385.22,-23.68"/>
<polygon fill="grey" stroke="grey" stroke-width="2" points="385.64,-20.2 375.36,-22.75 384.99,-27.17 385.64,-20.2"/>
</g>
<!-- 11&#45;&gt;8 -->
<g id="edge21" class="edge">
<title>11&#45;&gt;8</title>
<path fill="none" stroke="grey" stroke-width="2" d="M517.03,-215.34C512.99,-208.26 508.22,-199.92 503.7,-192"/>
<polygon fill="grey" stroke="grey" stroke-width="2" points="506.86,-190.48 498.86,-183.53 500.78,-193.95 506.86,-190.48"/>
</g>
<!-- 12&#45;&gt;0 -->
<g id="edge8" class="edge">
<title>12&#45;&gt;0</title>
<path fill="none" stroke="grey" stroke-width="2" d="M663.78,-215.21C656.46,-181.56 635.73,-108.67 588.12,-72 556.99,-48.01 452.84,-32.67 385.04,-24.97"/>
<polygon fill="grey" stroke="grey" stroke-width="2" points="385.75,-21.52 375.42,-23.9 384.98,-28.48 385.75,-21.52"/>
</g>
<!-- 12&#45;&gt;8 -->
<g id="edge22" class="edge">
<title>12&#45;&gt;8</title>
<path fill="none" stroke="grey" stroke-width="2" d="M621.24,-215.15C598.16,-206.18 569.94,-195.21 545.35,-185.64"/>
<polygon fill="grey" stroke="grey" stroke-width="2" points="546.65,-182.39 536.06,-182.03 544.11,-188.92 546.65,-182.39"/>
</g>
<!-- 13&#45;&gt;0 -->
<g id="edge11" class="edge">
<title>13&#45;&gt;0</title>
<path fill="none" stroke="grey" stroke-width="2" d="M445.57,-71.15C424.96,-62.3 399.82,-51.51 377.77,-42.04"/>
<polygon fill="grey" stroke="grey" stroke-width="2" points="379.24,-38.86 368.67,-38.13 376.47,-45.29 379.24,-38.86"/>
</g>
</g>
</svg>
