<?xml version="1.0" encoding="UTF-8" standalone="no"?>
<!DOCTYPE svg PUBLIC "-//W3C//DTD SVG 1.1//EN"
 "http://www.w3.org/Graphics/SVG/1.1/DTD/svg11.dtd">
<!-- Generated by graphviz version 2.40.1 (20161225.0304)
 -->
<!-- Title: snakemake_dag Pages: 1 -->
<svg width="745pt" height="476pt"
 viewBox="0.00 0.00 745.00 476.00" xmlns="http://www.w3.org/2000/svg" xmlns:xlink="http://www.w3.org/1999/xlink">
<g id="graph0" class="graph" transform="scale(1 1) rotate(0) translate(4 472)">
<title>snakemake_dag</title>
<polygon fill="#ffffff" stroke="transparent" points="-4,4 -4,-472 741,-472 741,4 -4,4"/>
<!-- 0 -->
<g id="node1" class="node">
<title>0</title>
<path fill="none" stroke="#8fd856" stroke-width="2" d="M365,-36C365,-36 293,-36 293,-36 287,-36 281,-30 281,-24 281,-24 281,-12 281,-12 281,-6 287,0 293,0 293,0 365,0 365,0 371,0 377,-6 377,-12 377,-12 377,-24 377,-24 377,-30 371,-36 365,-36"/>
<text text-anchor="middle" x="329" y="-15.5" font-family="sans" font-size="10.00" fill="#000000">make_summary</text>
</g>
<!-- 1 -->
<g id="node2" class="node">
<title>1</title>
<path fill="none" stroke="#56d892" stroke-width="2" d="M56,-108C56,-108 12,-108 12,-108 6,-108 0,-102 0,-96 0,-96 0,-84 0,-84 0,-78 6,-72 12,-72 12,-72 56,-72 56,-72 62,-72 68,-78 68,-84 68,-84 68,-96 68,-96 68,-102 62,-108 56,-108"/>
<text text-anchor="middle" x="34" y="-87.5" font-family="sans" font-size="10.00" fill="#000000">make_dag</text>
</g>
<!-- 1&#45;&gt;0 -->
<g id="edge1" class="edge">
<title>1&#45;&gt;0</title>
<path fill="none" stroke="#c0c0c0" stroke-width="2" d="M68.1456,-76.514C72.7678,-74.8892 77.4759,-73.3353 82,-72 145.6082,-53.2259 220.172,-37.8026 270.6026,-28.3145"/>
<polygon fill="#c0c0c0" stroke="#c0c0c0" stroke-width="2" points="271.4807,-31.7113 280.6705,-26.4389 270.1986,-24.8297 271.4807,-31.7113"/>
</g>
<!-- 2 -->
<g id="node3" class="node">
<title>2</title>
<path fill="none" stroke="#d87d56" stroke-width="2" d="M347.5,-396C347.5,-396 296.5,-396 296.5,-396 290.5,-396 284.5,-390 284.5,-384 284.5,-384 284.5,-372 284.5,-372 284.5,-366 290.5,-360 296.5,-360 296.5,-360 347.5,-360 347.5,-360 353.5,-360 359.5,-366 359.5,-372 359.5,-372 359.5,-384 359.5,-384 359.5,-390 353.5,-396 347.5,-396"/>
<text text-anchor="middle" x="322" y="-375.5" font-family="sans" font-size="10.00" fill="#000000">process_ccs</text>
</g>
<!-- 2&#45;&gt;0 -->
<g id="edge2" class="edge">
<title>2&#45;&gt;0</title>
<path fill="none" stroke="#c0c0c0" stroke-width="2" d="M284.427,-371.7963C220.163,-358.804 96,-322.2791 96,-234 96,-234 96,-234 96,-162 96,-79.9632 201.8115,-43.0996 270.8241,-27.7808"/>
<polygon fill="#c0c0c0" stroke="#c0c0c0" stroke-width="2" points="271.6699,-31.1793 280.7222,-25.6742 270.2127,-24.3326 271.6699,-31.1793"/>
</g>
<!-- 5 -->
<g id="node6" class="node">
<title>5</title>
<path fill="none" stroke="#56a9d8" stroke-width="2" d="M354.5,-324C354.5,-324 289.5,-324 289.5,-324 283.5,-324 277.5,-318 277.5,-312 277.5,-312 277.5,-300 277.5,-300 277.5,-294 283.5,-288 289.5,-288 289.5,-288 354.5,-288 354.5,-288 360.5,-288 366.5,-294 366.5,-300 366.5,-300 366.5,-312 366.5,-312 366.5,-318 360.5,-324 354.5,-324"/>
<text text-anchor="middle" x="322" y="-303.5" font-family="sans" font-size="10.00" fill="#000000">count_variants</text>
</g>
<!-- 2&#45;&gt;5 -->
<g id="edge14" class="edge">
<title>2&#45;&gt;5</title>
<path fill="none" stroke="#c0c0c0" stroke-width="2" d="M322,-359.8314C322,-352.131 322,-342.9743 322,-334.4166"/>
<polygon fill="#c0c0c0" stroke="#c0c0c0" stroke-width="2" points="325.5001,-334.4132 322,-324.4133 318.5001,-334.4133 325.5001,-334.4132"/>
</g>
<!-- 6 -->
<g id="node7" class="node">
<title>6</title>
<path fill="none" stroke="#56d0d8" stroke-width="2" d="M279.5,-180C279.5,-180 174.5,-180 174.5,-180 168.5,-180 162.5,-174 162.5,-168 162.5,-168 162.5,-156 162.5,-156 162.5,-150 168.5,-144 174.5,-144 174.5,-144 279.5,-144 279.5,-144 285.5,-144 291.5,-150 291.5,-156 291.5,-156 291.5,-168 291.5,-168 291.5,-174 285.5,-180 279.5,-180"/>
<text text-anchor="middle" x="227" y="-159.5" font-family="sans" font-size="10.00" fill="#000000">prep_Titeseq_barcodes</text>
</g>
<!-- 2&#45;&gt;6 -->
<g id="edge15" class="edge">
<title>2&#45;&gt;6</title>
<path fill="none" stroke="#c0c0c0" stroke-width="2" d="M284.2432,-360.5279C246.2788,-340.5053 190.3985,-303.6606 169,-252 162.8771,-237.2179 162.6142,-230.6704 169,-216 173.8415,-204.8773 182.2283,-195.0106 191.1439,-186.8541"/>
<polygon fill="#c0c0c0" stroke="#c0c0c0" stroke-width="2" points="193.69,-189.2833 199.0391,-180.138 189.1544,-183.9515 193.69,-189.2833"/>
</g>
<!-- 9 -->
<g id="node10" class="node">
<title>9</title>
<path fill="none" stroke="#b6d856" stroke-width="2" d="M242,-252C242,-252 190,-252 190,-252 184,-252 178,-246 178,-240 178,-240 178,-228 178,-228 178,-222 184,-216 190,-216 190,-216 242,-216 242,-216 248,-216 254,-222 254,-228 254,-228 254,-240 254,-240 254,-246 248,-252 242,-252"/>
<text text-anchor="middle" x="216" y="-231.5" font-family="sans" font-size="10.00" fill="#000000">fit_titrations</text>
</g>
<!-- 2&#45;&gt;9 -->
<g id="edge23" class="edge">
<title>2&#45;&gt;9</title>
<path fill="none" stroke="#c0c0c0" stroke-width="2" d="M301.4591,-359.8937C290.7833,-349.9074 277.9295,-336.9361 268,-324 252.8421,-304.2524 238.9204,-279.6527 229.3043,-261.1649"/>
<polygon fill="#c0c0c0" stroke="#c0c0c0" stroke-width="2" points="232.3476,-259.4284 224.6845,-252.1122 226.1126,-262.6103 232.3476,-259.4284"/>
</g>
<!-- 10 -->
<g id="node11" class="node">
<title>10</title>
<path fill="none" stroke="#d8a456" stroke-width="2" d="M443.5,-252C443.5,-252 360.5,-252 360.5,-252 354.5,-252 348.5,-246 348.5,-240 348.5,-240 348.5,-228 348.5,-228 348.5,-222 354.5,-216 360.5,-216 360.5,-216 443.5,-216 443.5,-216 449.5,-216 455.5,-222 455.5,-228 455.5,-228 455.5,-240 455.5,-240 455.5,-246 449.5,-252 443.5,-252"/>
<text text-anchor="middle" x="402" y="-231.5" font-family="sans" font-size="10.00" fill="#000000">fit_titrations_TuGG</text>
</g>
<!-- 2&#45;&gt;10 -->
<g id="edge25" class="edge">
<title>2&#45;&gt;10</title>
<path fill="none" stroke="#c0c0c0" stroke-width="2" d="M344.1909,-359.962C354.8334,-350.2841 366.9801,-337.5707 375,-324 386.2919,-304.8926 393.2076,-280.6742 397.2092,-262.1743"/>
<polygon fill="#c0c0c0" stroke="#c0c0c0" stroke-width="2" points="400.6568,-262.7825 399.1907,-252.2896 393.7934,-261.4066 400.6568,-262.7825"/>
</g>
<!-- 11 -->
<g id="node12" class="node">
<title>11</title>
<path fill="none" stroke="#68d856" stroke-width="2" d="M580.5,-252C580.5,-252 485.5,-252 485.5,-252 479.5,-252 473.5,-246 473.5,-240 473.5,-240 473.5,-228 473.5,-228 473.5,-222 479.5,-216 485.5,-216 485.5,-216 580.5,-216 580.5,-216 586.5,-216 592.5,-222 592.5,-228 592.5,-228 592.5,-240 592.5,-240 592.5,-246 586.5,-252 580.5,-252"/>
<text text-anchor="middle" x="533" y="-231.5" font-family="sans" font-size="10.00" fill="#000000">calculate_expression</text>
</g>
<!-- 2&#45;&gt;11 -->
<g id="edge27" class="edge">
<title>2&#45;&gt;11</title>
<path fill="none" stroke="#c0c0c0" stroke-width="2" d="M348.7233,-359.7623C386.6149,-333.9026 456.0053,-286.5461 497.9752,-257.9032"/>
<polygon fill="#c0c0c0" stroke="#c0c0c0" stroke-width="2" points="500.2069,-260.6176 506.4937,-252.0896 496.2609,-254.8357 500.2069,-260.6176"/>
</g>
<!-- 12 -->
<g id="node13" class="node">
<title>12</title>
<path fill="none" stroke="#d85656" stroke-width="2" d="M725,-252C725,-252 623,-252 623,-252 617,-252 611,-246 611,-240 611,-240 611,-228 611,-228 611,-222 617,-216 623,-216 623,-216 725,-216 725,-216 731,-216 737,-222 737,-228 737,-228 737,-240 737,-240 737,-246 731,-252 725,-252"/>
<text text-anchor="middle" x="674" y="-231.5" font-family="sans" font-size="10.00" fill="#000000">calculate_PSR_binding</text>
</g>
<!-- 2&#45;&gt;12 -->
<g id="edge29" class="edge">
<title>2&#45;&gt;12</title>
<path fill="none" stroke="#c0c0c0" stroke-width="2" d="M359.6702,-362.5895C422.3874,-336.9324 548.414,-285.3761 620.3805,-255.9352"/>
<polygon fill="#c0c0c0" stroke="#c0c0c0" stroke-width="2" points="621.8062,-259.1336 629.7364,-252.1078 619.1557,-252.6548 621.8062,-259.1336"/>
</g>
<!-- 3 -->
<g id="node4" class="node">
<title>3</title>
<path fill="none" stroke="#d8cb56" stroke-width="2" d="M301,-468C301,-468 193,-468 193,-468 187,-468 181,-462 181,-456 181,-456 181,-444 181,-444 181,-438 187,-432 193,-432 193,-432 301,-432 301,-432 307,-432 313,-438 313,-444 313,-444 313,-456 313,-456 313,-462 307,-468 301,-468"/>
<text text-anchor="middle" x="247" y="-453" font-family="sans" font-size="10.00" fill="#000000">build_ccs</text>
<text text-anchor="middle" x="247" y="-442" font-family="sans" font-size="10.00" fill="#000000">pacbioRun: lib1_210619</text>
</g>
<!-- 3&#45;&gt;2 -->
<g id="edge12" class="edge">
<title>3&#45;&gt;2</title>
<path fill="none" stroke="#c0c0c0" stroke-width="2" d="M265.9257,-431.8314C274.9857,-423.1337 285.9809,-412.5783 295.8265,-403.1265"/>
<polygon fill="#c0c0c0" stroke="#c0c0c0" stroke-width="2" points="298.2904,-405.613 303.0804,-396.1628 293.4426,-400.5633 298.2904,-405.613"/>
</g>
<!-- 4 -->
<g id="node5" class="node">
<title>4</title>
<path fill="none" stroke="#d8cb56" stroke-width="2" d="M451,-468C451,-468 343,-468 343,-468 337,-468 331,-462 331,-456 331,-456 331,-444 331,-444 331,-438 337,-432 343,-432 343,-432 451,-432 451,-432 457,-432 463,-438 463,-444 463,-444 463,-456 463,-456 463,-462 457,-468 451,-468"/>
<text text-anchor="middle" x="397" y="-453" font-family="sans" font-size="10.00" fill="#000000">build_ccs</text>
<text text-anchor="middle" x="397" y="-442" font-family="sans" font-size="10.00" fill="#000000">pacbioRun: lib2_210619</text>
</g>
<!-- 4&#45;&gt;2 -->
<g id="edge13" class="edge">
<title>4&#45;&gt;2</title>
<path fill="none" stroke="#c0c0c0" stroke-width="2" d="M378.0743,-431.8314C369.0143,-423.1337 358.0191,-412.5783 348.1735,-403.1265"/>
<polygon fill="#c0c0c0" stroke="#c0c0c0" stroke-width="2" points="350.5574,-400.5633 340.9196,-396.1628 345.7096,-405.613 350.5574,-400.5633"/>
</g>
<!-- 5&#45;&gt;0 -->
<g id="edge3" class="edge">
<title>5&#45;&gt;0</title>
<path fill="none" stroke="#c0c0c0" stroke-width="2" d="M322.8911,-287.7971C323.6952,-256.7815 322.2244,-192.3558 300,-144 291.0602,-124.5487 275.6077,-128.0098 268,-108 262.3139,-93.0445 261.4306,-86.5892 268,-72 273.1267,-60.6148 281.9717,-50.6602 291.3608,-42.5035"/>
<polygon fill="#c0c0c0" stroke="#c0c0c0" stroke-width="2" points="293.7281,-45.0905 299.3059,-36.0828 289.3282,-39.646 293.7281,-45.0905"/>
</g>
<!-- 5&#45;&gt;6 -->
<g id="edge16" class="edge">
<title>5&#45;&gt;6</title>
<path fill="none" stroke="#c0c0c0" stroke-width="2" d="M310.0633,-287.7013C298.1745,-269.4972 279.3824,-240.7806 263,-216 257.1892,-207.2104 250.8199,-197.6366 245.0754,-189.0244"/>
<polygon fill="#c0c0c0" stroke="#c0c0c0" stroke-width="2" points="247.8284,-186.8444 239.365,-180.4709 242.0066,-190.7311 247.8284,-186.8444"/>
</g>
<!-- 5&#45;&gt;9 -->
<g id="edge24" class="edge">
<title>5&#45;&gt;9</title>
<path fill="none" stroke="#c0c0c0" stroke-width="2" d="M295.2517,-287.8314C281.9447,-278.7927 265.684,-267.7476 251.3625,-258.0198"/>
<polygon fill="#c0c0c0" stroke="#c0c0c0" stroke-width="2" points="252.9785,-254.8864 242.7397,-252.1628 249.0453,-260.677 252.9785,-254.8864"/>
</g>
<!-- 5&#45;&gt;10 -->
<g id="edge26" class="edge">
<title>5&#45;&gt;10</title>
<path fill="none" stroke="#c0c0c0" stroke-width="2" d="M342.1874,-287.8314C351.8514,-279.1337 363.5796,-268.5783 374.0816,-259.1265"/>
<polygon fill="#c0c0c0" stroke="#c0c0c0" stroke-width="2" points="376.7275,-261.454 381.8191,-252.1628 372.0447,-256.251 376.7275,-261.454"/>
</g>
<!-- 5&#45;&gt;11 -->
<g id="edge28" class="edge">
<title>5&#45;&gt;11</title>
<path fill="none" stroke="#c0c0c0" stroke-width="2" d="M366.7477,-290.7307C396.9158,-280.4363 437.1377,-266.7113 470.4624,-255.3398"/>
<polygon fill="#c0c0c0" stroke="#c0c0c0" stroke-width="2" points="471.7793,-258.5887 480.1132,-252.0467 469.5187,-251.9638 471.7793,-258.5887"/>
</g>
<!-- 5&#45;&gt;12 -->
<g id="edge30" class="edge">
<title>5&#45;&gt;12</title>
<path fill="none" stroke="#c0c0c0" stroke-width="2" d="M366.7692,-298.1423C420.177,-288.5964 512.3753,-271.5752 600.8928,-252.1891"/>
<polygon fill="#c0c0c0" stroke="#c0c0c0" stroke-width="2" points="601.8175,-255.5694 610.8299,-249.9992 600.311,-248.7334 601.8175,-255.5694"/>
</g>
<!-- 6&#45;&gt;0 -->
<g id="edge4" class="edge">
<title>6&#45;&gt;0</title>
<path fill="none" stroke="#c0c0c0" stroke-width="2" d="M223.9865,-143.8809C221.7541,-124.5132 221.1389,-93.6725 235,-72 243.8175,-58.2135 257.4898,-47.5625 271.7016,-39.5075"/>
<polygon fill="#c0c0c0" stroke="#c0c0c0" stroke-width="2" points="273.3701,-42.5845 280.5817,-34.8228 270.1039,-36.3933 273.3701,-42.5845"/>
</g>
<!-- 7 -->
<g id="node8" class="node">
<title>7</title>
<path fill="none" stroke="#56d8b9" stroke-width="2" d="M369,-108C369,-108 289,-108 289,-108 283,-108 277,-102 277,-96 277,-96 277,-84 277,-84 277,-78 283,-72 289,-72 289,-72 369,-72 369,-72 375,-72 381,-78 381,-84 381,-84 381,-96 381,-96 381,-102 375,-108 369,-108"/>
<text text-anchor="middle" x="329" y="-87.5" font-family="sans" font-size="10.00" fill="#000000">Titeseq_modeling</text>
</g>
<!-- 6&#45;&gt;7 -->
<g id="edge17" class="edge">
<title>6&#45;&gt;7</title>
<path fill="none" stroke="#c0c0c0" stroke-width="2" d="M252.7389,-143.8314C265.5437,-134.7927 281.1909,-123.7476 294.9719,-114.0198"/>
<polygon fill="#c0c0c0" stroke="#c0c0c0" stroke-width="2" points="297.118,-116.7891 303.2693,-108.1628 293.0812,-111.0703 297.118,-116.7891"/>
</g>
<!-- 7&#45;&gt;0 -->
<g id="edge5" class="edge">
<title>7&#45;&gt;0</title>
<path fill="none" stroke="#c0c0c0" stroke-width="2" d="M329,-71.8314C329,-64.131 329,-54.9743 329,-46.4166"/>
<polygon fill="#c0c0c0" stroke="#c0c0c0" stroke-width="2" points="332.5001,-46.4132 329,-36.4133 325.5001,-46.4133 332.5001,-46.4132"/>
</g>
<!-- 8 -->
<g id="node9" class="node">
<title>8</title>
<path fill="none" stroke="#56d86b" stroke-width="2" d="M528,-180C528,-180 458,-180 458,-180 452,-180 446,-174 446,-168 446,-168 446,-156 446,-156 446,-150 452,-144 458,-144 458,-144 528,-144 528,-144 534,-144 540,-150 540,-156 540,-156 540,-168 540,-168 540,-174 534,-180 528,-180"/>
<text text-anchor="middle" x="493" y="-159.5" font-family="sans" font-size="10.00" fill="#000000">collapse_scores</text>
</g>
<!-- 8&#45;&gt;0 -->
<g id="edge10" class="edge">
<title>8&#45;&gt;0</title>
<path fill="none" stroke="#c0c0c0" stroke-width="2" d="M525.2779,-143.8412C537.9425,-134.8521 551.0816,-122.742 558,-108 564.7975,-93.5157 567.9309,-84.545 558,-72 537.0891,-45.5847 448.0449,-30.7905 387.3549,-23.6087"/>
<polygon fill="#c0c0c0" stroke="#c0c0c0" stroke-width="2" points="387.4584,-20.0978 377.1253,-22.4379 386.6624,-27.0524 387.4584,-20.0978"/>
</g>
<!-- 8&#45;&gt;7 -->
<g id="edge18" class="edge">
<title>8&#45;&gt;7</title>
<path fill="none" stroke="#c0c0c0" stroke-width="2" d="M451.6159,-143.8314C429.6818,-134.2018 402.5608,-122.295 379.4069,-112.1299"/>
<polygon fill="#c0c0c0" stroke="#c0c0c0" stroke-width="2" points="380.65,-108.8532 370.0865,-108.038 377.836,-115.2627 380.65,-108.8532"/>
</g>
<!-- 13 -->
<g id="node14" class="node">
<title>13</title>
<path fill="none" stroke="#567bd8" stroke-width="2" d="M536.5,-108C536.5,-108 449.5,-108 449.5,-108 443.5,-108 437.5,-102 437.5,-96 437.5,-96 437.5,-84 437.5,-84 437.5,-78 443.5,-72 449.5,-72 449.5,-72 536.5,-72 536.5,-72 542.5,-72 548.5,-78 548.5,-84 548.5,-84 548.5,-96 548.5,-96 548.5,-102 542.5,-108 536.5,-108"/>
<text text-anchor="middle" x="493" y="-87.5" font-family="sans" font-size="10.00" fill="#000000">structural_mapping</text>
</g>
<!-- 8&#45;&gt;13 -->
<g id="edge31" class="edge">
<title>8&#45;&gt;13</title>
<path fill="none" stroke="#c0c0c0" stroke-width="2" d="M493,-143.8314C493,-136.131 493,-126.9743 493,-118.4166"/>
<polygon fill="#c0c0c0" stroke="#c0c0c0" stroke-width="2" points="496.5001,-118.4132 493,-108.4133 489.5001,-118.4133 496.5001,-118.4132"/>
</g>
<!-- 9&#45;&gt;0 -->
<g id="edge6" class="edge">
<title>9&#45;&gt;0</title>
<path fill="none" stroke="#c0c0c0" stroke-width="2" d="M185.0239,-215.8776C172.6431,-206.8263 159.7418,-194.6581 153,-180 146.3143,-165.4638 147.1438,-158.8898 153,-144 173.2462,-92.5228 228.3988,-58.5858 271.6218,-39.0373"/>
<polygon fill="#c0c0c0" stroke="#c0c0c0" stroke-width="2" points="273.1676,-42.1814 280.9251,-34.9653 270.3608,-35.7687 273.1676,-42.1814"/>
</g>
<!-- 9&#45;&gt;8 -->
<g id="edge19" class="edge">
<title>9&#45;&gt;8</title>
<path fill="none" stroke="#c0c0c0" stroke-width="2" d="M254.2248,-224.0643C301.31,-211.8256 381.7214,-190.9244 436.0804,-176.795"/>
<polygon fill="#c0c0c0" stroke="#c0c0c0" stroke-width="2" points="437.1154,-180.1423 445.9133,-174.2391 435.3544,-173.3675 437.1154,-180.1423"/>
</g>
<!-- 10&#45;&gt;0 -->
<g id="edge7" class="edge">
<title>10&#45;&gt;0</title>
<path fill="none" stroke="#c0c0c0" stroke-width="2" d="M404.8927,-215.8376C408.9779,-184.6058 413.5412,-119.507 390,-72 384.407,-60.713 375.3224,-50.7437 365.8528,-42.5412"/>
<polygon fill="#c0c0c0" stroke="#c0c0c0" stroke-width="2" points="367.8486,-39.6536 357.8759,-36.0766 363.4413,-45.092 367.8486,-39.6536"/>
</g>
<!-- 10&#45;&gt;8 -->
<g id="edge20" class="edge">
<title>10&#45;&gt;8</title>
<path fill="none" stroke="#c0c0c0" stroke-width="2" d="M424.9631,-215.8314C436.1715,-206.9632 449.8209,-196.1637 461.9439,-186.5718"/>
<polygon fill="#c0c0c0" stroke="#c0c0c0" stroke-width="2" points="464.3737,-189.1125 470.0442,-180.1628 460.0303,-183.6229 464.3737,-189.1125"/>
</g>
<!-- 11&#45;&gt;0 -->
<g id="edge9" class="edge">
<title>11&#45;&gt;0</title>
<path fill="none" stroke="#c0c0c0" stroke-width="2" d="M546.8344,-215.8266C569.7044,-183.4171 609.5984,-115.0169 575,-72 551.8814,-43.2562 452.3787,-28.9445 387.2201,-22.527"/>
<polygon fill="#c0c0c0" stroke="#c0c0c0" stroke-width="2" points="387.3605,-19.0246 377.0744,-21.5638 386.6988,-25.9933 387.3605,-19.0246"/>
</g>
<!-- 11&#45;&gt;8 -->
<g id="edge21" class="edge">
<title>11&#45;&gt;8</title>
<path fill="none" stroke="#c0c0c0" stroke-width="2" d="M522.9063,-215.8314C518.4403,-207.7925 513.0925,-198.1666 508.1621,-189.2918"/>
<polygon fill="#c0c0c0" stroke="#c0c0c0" stroke-width="2" points="511.1456,-187.4551 503.2296,-180.4133 505.0265,-190.8546 511.1456,-187.4551"/>
</g>
<!-- 12&#45;&gt;0 -->
<g id="edge8" class="edge">
<title>12&#45;&gt;0</title>
<path fill="none" stroke="#c0c0c0" stroke-width="2" d="M670.6217,-215.8477C663.3002,-181.8904 642.634,-108.8683 595,-72 563.1881,-47.3779 455.4917,-31.5791 387.2809,-23.7865"/>
<polygon fill="#c0c0c0" stroke="#c0c0c0" stroke-width="2" points="387.4307,-20.2816 377.104,-22.6496 386.6535,-27.2383 387.4307,-20.2816"/>
</g>
<!-- 12&#45;&gt;8 -->
<g id="edge22" class="edge">
<title>12&#45;&gt;8</title>
<path fill="none" stroke="#c0c0c0" stroke-width="2" d="M628.3261,-215.8314C603.9032,-206.1162 573.6534,-194.0831 547.9516,-183.8592"/>
<polygon fill="#c0c0c0" stroke="#c0c0c0" stroke-width="2" points="548.931,-180.4821 538.3455,-180.038 546.3437,-186.9864 548.931,-180.4821"/>
</g>
<!-- 13&#45;&gt;0 -->
<g id="edge11" class="edge">
<title>13&#45;&gt;0</title>
<path fill="none" stroke="#c0c0c0" stroke-width="2" d="M451.6159,-71.8314C429.6818,-62.2018 402.5608,-50.295 379.4069,-40.1299"/>
<polygon fill="#c0c0c0" stroke="#c0c0c0" stroke-width="2" points="380.65,-36.8532 370.0865,-36.038 377.836,-43.2627 380.65,-36.8532"/>
</g>
</g>
</svg>
