<?xml version="1.0" encoding="utf-8" standalone="no"?>
<!DOCTYPE svg PUBLIC "-//W3C//DTD SVG 1.1//EN"
  "http://www.w3.org/Graphics/SVG/1.1/DTD/svg11.dtd">
<svg height="144pt" version="1.1" viewBox="0 0 468 144" width="468pt" xmlns="http://www.w3.org/2000/svg" xmlns:xlink="http://www.w3.org/1999/xlink">
 <metadata>
  <rdf:RDF xmlns:cc="http://creativecommons.org/ns#" xmlns:dc="http://purl.org/dc/elements/1.1/" xmlns:rdf="http://www.w3.org/1999/02/22-rdf-syntax-ns#">
   <cc:Work>
    <dc:type rdf:resource="http://purl.org/dc/dcmitype/StillImage"/>
    <dc:date>2021-10-24T18:22:16.809848</dc:date>
    <dc:format>image/svg+xml</dc:format>
    <dc:creator>
     <cc:Agent>
      <dc:title>Matplotlib v3.4.2, https://matplotlib.org/</dc:title>
     </cc:Agent>
    </dc:creator>
   </cc:Work>
  </rdf:RDF>
 </metadata>
 <defs>
  <style type="text/css">*{stroke-linecap:butt;stroke-linejoin:round;}</style>
 </defs>
 <g id="figure_1">
  <g id="patch_1">
   <path d="M 0 144 
L 468 144 
L 468 0 
L 0 0 
z
" style="fill:#ffffff;"/>
  </g>
  <g id="axes_1">
   <g id="patch_2">
    <path d="M 58.5 128.16 
L 421.2 128.16 
L 421.2 17.28 
L 58.5 17.28 
z
" style="fill:#ffffff;"/>
   </g>
   <g id="matplotlib.axis_1">
    <g id="xtick_1">
     <g id="line2d_1">
      <defs>
       <path d="M 0 0 
L 0 3.5 
" id="m1095de5e7b" style="stroke:#000000;stroke-width:0.8;"/>
      </defs>
      <g>
       <use style="stroke:#000000;stroke-width:0.8;" x="60.503867" xlink:href="#m1095de5e7b" y="128.16"/>
      </g>
     </g>
     <g id="line2d_2">
      <defs>
       <path d="M 0 0 
L 0 -3.5 
" id="m1582497469" style="stroke:#000000;stroke-width:0.8;"/>
      </defs>
      <g>
       <use style="stroke:#000000;stroke-width:0.8;" x="60.503867" xlink:href="#m1582497469" y="17.28"/>
      </g>
     </g>
     <g id="text_1">
      <!-- 0 -->
      <g transform="translate(57.322617 142.758438)scale(0.1 -0.1)">
       <defs>
        <path d="M 2034 4250 
Q 1547 4250 1301 3770 
Q 1056 3291 1056 2328 
Q 1056 1369 1301 889 
Q 1547 409 2034 409 
Q 2525 409 2770 889 
Q 3016 1369 3016 2328 
Q 3016 3291 2770 3770 
Q 2525 4250 2034 4250 
z
M 2034 4750 
Q 2819 4750 3233 4129 
Q 3647 3509 3647 2328 
Q 3647 1150 3233 529 
Q 2819 -91 2034 -91 
Q 1250 -91 836 529 
Q 422 1150 422 2328 
Q 422 3509 836 4129 
Q 1250 4750 2034 4750 
z
" id="DejaVuSans-30" transform="scale(0.015625)"/>
       </defs>
       <use xlink:href="#DejaVuSans-30"/>
      </g>
     </g>
    </g>
    <g id="xtick_2">
     <g id="line2d_3">
      <g>
       <use style="stroke:#000000;stroke-width:0.8;" x="110.600552" xlink:href="#m1095de5e7b" y="128.16"/>
      </g>
     </g>
     <g id="line2d_4">
      <g>
       <use style="stroke:#000000;stroke-width:0.8;" x="110.600552" xlink:href="#m1582497469" y="17.28"/>
      </g>
     </g>
     <g id="text_2">
      <!-- 25 -->
      <g transform="translate(104.238052 142.758438)scale(0.1 -0.1)">
       <defs>
        <path d="M 1228 531 
L 3431 531 
L 3431 0 
L 469 0 
L 469 531 
Q 828 903 1448 1529 
Q 2069 2156 2228 2338 
Q 2531 2678 2651 2914 
Q 2772 3150 2772 3378 
Q 2772 3750 2511 3984 
Q 2250 4219 1831 4219 
Q 1534 4219 1204 4116 
Q 875 4013 500 3803 
L 500 4441 
Q 881 4594 1212 4672 
Q 1544 4750 1819 4750 
Q 2544 4750 2975 4387 
Q 3406 4025 3406 3419 
Q 3406 3131 3298 2873 
Q 3191 2616 2906 2266 
Q 2828 2175 2409 1742 
Q 1991 1309 1228 531 
z
" id="DejaVuSans-32" transform="scale(0.015625)"/>
        <path d="M 691 4666 
L 3169 4666 
L 3169 4134 
L 1269 4134 
L 1269 2991 
Q 1406 3038 1543 3061 
Q 1681 3084 1819 3084 
Q 2600 3084 3056 2656 
Q 3513 2228 3513 1497 
Q 3513 744 3044 326 
Q 2575 -91 1722 -91 
Q 1428 -91 1123 -41 
Q 819 9 494 109 
L 494 744 
Q 775 591 1075 516 
Q 1375 441 1709 441 
Q 2250 441 2565 725 
Q 2881 1009 2881 1497 
Q 2881 1984 2565 2268 
Q 2250 2553 1709 2553 
Q 1456 2553 1204 2497 
Q 953 2441 691 2322 
L 691 4666 
z
" id="DejaVuSans-35" transform="scale(0.015625)"/>
       </defs>
       <use xlink:href="#DejaVuSans-32"/>
       <use x="63.623047" xlink:href="#DejaVuSans-35"/>
      </g>
     </g>
    </g>
    <g id="xtick_3">
     <g id="line2d_5">
      <g>
       <use style="stroke:#000000;stroke-width:0.8;" x="160.697238" xlink:href="#m1095de5e7b" y="128.16"/>
      </g>
     </g>
     <g id="line2d_6">
      <g>
       <use style="stroke:#000000;stroke-width:0.8;" x="160.697238" xlink:href="#m1582497469" y="17.28"/>
      </g>
     </g>
     <g id="text_3">
      <!-- 50 -->
      <g transform="translate(154.334738 142.758438)scale(0.1 -0.1)">
       <use xlink:href="#DejaVuSans-35"/>
       <use x="63.623047" xlink:href="#DejaVuSans-30"/>
      </g>
     </g>
    </g>
    <g id="xtick_4">
     <g id="line2d_7">
      <g>
       <use style="stroke:#000000;stroke-width:0.8;" x="210.793923" xlink:href="#m1095de5e7b" y="128.16"/>
      </g>
     </g>
     <g id="line2d_8">
      <g>
       <use style="stroke:#000000;stroke-width:0.8;" x="210.793923" xlink:href="#m1582497469" y="17.28"/>
      </g>
     </g>
     <g id="text_4">
      <!-- 75 -->
      <g transform="translate(204.431423 142.758438)scale(0.1 -0.1)">
       <defs>
        <path d="M 525 4666 
L 3525 4666 
L 3525 4397 
L 1831 0 
L 1172 0 
L 2766 4134 
L 525 4134 
L 525 4666 
z
" id="DejaVuSans-37" transform="scale(0.015625)"/>
       </defs>
       <use xlink:href="#DejaVuSans-37"/>
       <use x="63.623047" xlink:href="#DejaVuSans-35"/>
      </g>
     </g>
    </g>
    <g id="xtick_5">
     <g id="line2d_9">
      <g>
       <use style="stroke:#000000;stroke-width:0.8;" x="260.890608" xlink:href="#m1095de5e7b" y="128.16"/>
      </g>
     </g>
     <g id="line2d_10">
      <g>
       <use style="stroke:#000000;stroke-width:0.8;" x="260.890608" xlink:href="#m1582497469" y="17.28"/>
      </g>
     </g>
     <g id="text_5">
      <!-- 100 -->
      <g transform="translate(251.346858 142.758438)scale(0.1 -0.1)">
       <defs>
        <path d="M 794 531 
L 1825 531 
L 1825 4091 
L 703 3866 
L 703 4441 
L 1819 4666 
L 2450 4666 
L 2450 531 
L 3481 531 
L 3481 0 
L 794 0 
L 794 531 
z
" id="DejaVuSans-31" transform="scale(0.015625)"/>
       </defs>
       <use xlink:href="#DejaVuSans-31"/>
       <use x="63.623047" xlink:href="#DejaVuSans-30"/>
       <use x="127.246094" xlink:href="#DejaVuSans-30"/>
      </g>
     </g>
    </g>
    <g id="xtick_6">
     <g id="line2d_11">
      <g>
       <use style="stroke:#000000;stroke-width:0.8;" x="310.987293" xlink:href="#m1095de5e7b" y="128.16"/>
      </g>
     </g>
     <g id="line2d_12">
      <g>
       <use style="stroke:#000000;stroke-width:0.8;" x="310.987293" xlink:href="#m1582497469" y="17.28"/>
      </g>
     </g>
     <g id="text_6">
      <!-- 125 -->
      <g transform="translate(301.443543 142.758438)scale(0.1 -0.1)">
       <use xlink:href="#DejaVuSans-31"/>
       <use x="63.623047" xlink:href="#DejaVuSans-32"/>
       <use x="127.246094" xlink:href="#DejaVuSans-35"/>
      </g>
     </g>
    </g>
    <g id="xtick_7">
     <g id="line2d_13">
      <g>
       <use style="stroke:#000000;stroke-width:0.8;" x="361.083978" xlink:href="#m1095de5e7b" y="128.16"/>
      </g>
     </g>
     <g id="line2d_14">
      <g>
       <use style="stroke:#000000;stroke-width:0.8;" x="361.083978" xlink:href="#m1582497469" y="17.28"/>
      </g>
     </g>
     <g id="text_7">
      <!-- 150 -->
      <g transform="translate(351.540228 142.758438)scale(0.1 -0.1)">
       <use xlink:href="#DejaVuSans-31"/>
       <use x="63.623047" xlink:href="#DejaVuSans-35"/>
       <use x="127.246094" xlink:href="#DejaVuSans-30"/>
      </g>
     </g>
    </g>
    <g id="xtick_8">
     <g id="line2d_15">
      <g>
       <use style="stroke:#000000;stroke-width:0.8;" x="411.180663" xlink:href="#m1095de5e7b" y="128.16"/>
      </g>
     </g>
     <g id="line2d_16">
      <g>
       <use style="stroke:#000000;stroke-width:0.8;" x="411.180663" xlink:href="#m1582497469" y="17.28"/>
      </g>
     </g>
     <g id="text_8">
      <!-- 175 -->
      <g transform="translate(401.636913 142.758438)scale(0.1 -0.1)">
       <use xlink:href="#DejaVuSans-31"/>
       <use x="63.623047" xlink:href="#DejaVuSans-37"/>
       <use x="127.246094" xlink:href="#DejaVuSans-35"/>
      </g>
     </g>
    </g>
    <g id="text_9">
     <!-- parsimony tree -->
     <g transform="translate(201.859375 156.436563)scale(0.1 -0.1)">
      <defs>
       <path d="M 1159 525 
L 1159 -1331 
L 581 -1331 
L 581 3500 
L 1159 3500 
L 1159 2969 
Q 1341 3281 1617 3432 
Q 1894 3584 2278 3584 
Q 2916 3584 3314 3078 
Q 3713 2572 3713 1747 
Q 3713 922 3314 415 
Q 2916 -91 2278 -91 
Q 1894 -91 1617 61 
Q 1341 213 1159 525 
z
M 3116 1747 
Q 3116 2381 2855 2742 
Q 2594 3103 2138 3103 
Q 1681 3103 1420 2742 
Q 1159 2381 1159 1747 
Q 1159 1113 1420 752 
Q 1681 391 2138 391 
Q 2594 391 2855 752 
Q 3116 1113 3116 1747 
z
" id="DejaVuSans-70" transform="scale(0.015625)"/>
       <path d="M 2194 1759 
Q 1497 1759 1228 1600 
Q 959 1441 959 1056 
Q 959 750 1161 570 
Q 1363 391 1709 391 
Q 2188 391 2477 730 
Q 2766 1069 2766 1631 
L 2766 1759 
L 2194 1759 
z
M 3341 1997 
L 3341 0 
L 2766 0 
L 2766 531 
Q 2569 213 2275 61 
Q 1981 -91 1556 -91 
Q 1019 -91 701 211 
Q 384 513 384 1019 
Q 384 1609 779 1909 
Q 1175 2209 1959 2209 
L 2766 2209 
L 2766 2266 
Q 2766 2663 2505 2880 
Q 2244 3097 1772 3097 
Q 1472 3097 1187 3025 
Q 903 2953 641 2809 
L 641 3341 
Q 956 3463 1253 3523 
Q 1550 3584 1831 3584 
Q 2591 3584 2966 3190 
Q 3341 2797 3341 1997 
z
" id="DejaVuSans-61" transform="scale(0.015625)"/>
       <path d="M 2631 2963 
Q 2534 3019 2420 3045 
Q 2306 3072 2169 3072 
Q 1681 3072 1420 2755 
Q 1159 2438 1159 1844 
L 1159 0 
L 581 0 
L 581 3500 
L 1159 3500 
L 1159 2956 
Q 1341 3275 1631 3429 
Q 1922 3584 2338 3584 
Q 2397 3584 2469 3576 
Q 2541 3569 2628 3553 
L 2631 2963 
z
" id="DejaVuSans-72" transform="scale(0.015625)"/>
       <path d="M 2834 3397 
L 2834 2853 
Q 2591 2978 2328 3040 
Q 2066 3103 1784 3103 
Q 1356 3103 1142 2972 
Q 928 2841 928 2578 
Q 928 2378 1081 2264 
Q 1234 2150 1697 2047 
L 1894 2003 
Q 2506 1872 2764 1633 
Q 3022 1394 3022 966 
Q 3022 478 2636 193 
Q 2250 -91 1575 -91 
Q 1294 -91 989 -36 
Q 684 19 347 128 
L 347 722 
Q 666 556 975 473 
Q 1284 391 1588 391 
Q 1994 391 2212 530 
Q 2431 669 2431 922 
Q 2431 1156 2273 1281 
Q 2116 1406 1581 1522 
L 1381 1569 
Q 847 1681 609 1914 
Q 372 2147 372 2553 
Q 372 3047 722 3315 
Q 1072 3584 1716 3584 
Q 2034 3584 2315 3537 
Q 2597 3491 2834 3397 
z
" id="DejaVuSans-73" transform="scale(0.015625)"/>
       <path d="M 603 3500 
L 1178 3500 
L 1178 0 
L 603 0 
L 603 3500 
z
M 603 4863 
L 1178 4863 
L 1178 4134 
L 603 4134 
L 603 4863 
z
" id="DejaVuSans-69" transform="scale(0.015625)"/>
       <path d="M 3328 2828 
Q 3544 3216 3844 3400 
Q 4144 3584 4550 3584 
Q 5097 3584 5394 3201 
Q 5691 2819 5691 2113 
L 5691 0 
L 5113 0 
L 5113 2094 
Q 5113 2597 4934 2840 
Q 4756 3084 4391 3084 
Q 3944 3084 3684 2787 
Q 3425 2491 3425 1978 
L 3425 0 
L 2847 0 
L 2847 2094 
Q 2847 2600 2669 2842 
Q 2491 3084 2119 3084 
Q 1678 3084 1418 2786 
Q 1159 2488 1159 1978 
L 1159 0 
L 581 0 
L 581 3500 
L 1159 3500 
L 1159 2956 
Q 1356 3278 1631 3431 
Q 1906 3584 2284 3584 
Q 2666 3584 2933 3390 
Q 3200 3197 3328 2828 
z
" id="DejaVuSans-6d" transform="scale(0.015625)"/>
       <path d="M 1959 3097 
Q 1497 3097 1228 2736 
Q 959 2375 959 1747 
Q 959 1119 1226 758 
Q 1494 397 1959 397 
Q 2419 397 2687 759 
Q 2956 1122 2956 1747 
Q 2956 2369 2687 2733 
Q 2419 3097 1959 3097 
z
M 1959 3584 
Q 2709 3584 3137 3096 
Q 3566 2609 3566 1747 
Q 3566 888 3137 398 
Q 2709 -91 1959 -91 
Q 1206 -91 779 398 
Q 353 888 353 1747 
Q 353 2609 779 3096 
Q 1206 3584 1959 3584 
z
" id="DejaVuSans-6f" transform="scale(0.015625)"/>
       <path d="M 3513 2113 
L 3513 0 
L 2938 0 
L 2938 2094 
Q 2938 2591 2744 2837 
Q 2550 3084 2163 3084 
Q 1697 3084 1428 2787 
Q 1159 2491 1159 1978 
L 1159 0 
L 581 0 
L 581 3500 
L 1159 3500 
L 1159 2956 
Q 1366 3272 1645 3428 
Q 1925 3584 2291 3584 
Q 2894 3584 3203 3211 
Q 3513 2838 3513 2113 
z
" id="DejaVuSans-6e" transform="scale(0.015625)"/>
       <path d="M 2059 -325 
Q 1816 -950 1584 -1140 
Q 1353 -1331 966 -1331 
L 506 -1331 
L 506 -850 
L 844 -850 
Q 1081 -850 1212 -737 
Q 1344 -625 1503 -206 
L 1606 56 
L 191 3500 
L 800 3500 
L 1894 763 
L 2988 3500 
L 3597 3500 
L 2059 -325 
z
" id="DejaVuSans-79" transform="scale(0.015625)"/>
       <path id="DejaVuSans-20" transform="scale(0.015625)"/>
       <path d="M 1172 4494 
L 1172 3500 
L 2356 3500 
L 2356 3053 
L 1172 3053 
L 1172 1153 
Q 1172 725 1289 603 
Q 1406 481 1766 481 
L 2356 481 
L 2356 0 
L 1766 0 
Q 1100 0 847 248 
Q 594 497 594 1153 
L 594 3053 
L 172 3053 
L 172 3500 
L 594 3500 
L 594 4494 
L 1172 4494 
z
" id="DejaVuSans-74" transform="scale(0.015625)"/>
       <path d="M 3597 1894 
L 3597 1613 
L 953 1613 
Q 991 1019 1311 708 
Q 1631 397 2203 397 
Q 2534 397 2845 478 
Q 3156 559 3463 722 
L 3463 178 
Q 3153 47 2828 -22 
Q 2503 -91 2169 -91 
Q 1331 -91 842 396 
Q 353 884 353 1716 
Q 353 2575 817 3079 
Q 1281 3584 2069 3584 
Q 2775 3584 3186 3129 
Q 3597 2675 3597 1894 
z
M 3022 2063 
Q 3016 2534 2758 2815 
Q 2500 3097 2075 3097 
Q 1594 3097 1305 2825 
Q 1016 2553 972 2059 
L 3022 2063 
z
" id="DejaVuSans-65" transform="scale(0.015625)"/>
      </defs>
      <use xlink:href="#DejaVuSans-70"/>
      <use x="63.476562" xlink:href="#DejaVuSans-61"/>
      <use x="124.755859" xlink:href="#DejaVuSans-72"/>
      <use x="165.869141" xlink:href="#DejaVuSans-73"/>
      <use x="217.96875" xlink:href="#DejaVuSans-69"/>
      <use x="245.751953" xlink:href="#DejaVuSans-6d"/>
      <use x="343.164062" xlink:href="#DejaVuSans-6f"/>
      <use x="404.345703" xlink:href="#DejaVuSans-6e"/>
      <use x="467.724609" xlink:href="#DejaVuSans-79"/>
      <use x="526.904297" xlink:href="#DejaVuSans-20"/>
      <use x="558.691406" xlink:href="#DejaVuSans-74"/>
      <use x="597.900391" xlink:href="#DejaVuSans-72"/>
      <use x="636.763672" xlink:href="#DejaVuSans-65"/>
      <use x="698.287109" xlink:href="#DejaVuSans-65"/>
     </g>
    </g>
   </g>
   <g id="matplotlib.axis_2">
    <g id="ytick_1">
     <g id="line2d_17">
      <defs>
       <path d="M 0 0 
L -3.5 0 
" id="m51ea99bd0a" style="stroke:#000000;stroke-width:0.8;"/>
      </defs>
      <g>
       <use style="stroke:#000000;stroke-width:0.8;" x="58.5" xlink:href="#m51ea99bd0a" y="105.747531"/>
      </g>
     </g>
     <g id="text_10">
      <!-- $\mathdefault{10^{-56}}$ -->
      <g transform="translate(23.6 109.54675)scale(0.1 -0.1)">
       <defs>
        <path d="M 678 2272 
L 4684 2272 
L 4684 1741 
L 678 1741 
L 678 2272 
z
" id="DejaVuSans-2212" transform="scale(0.015625)"/>
        <path d="M 2113 2584 
Q 1688 2584 1439 2293 
Q 1191 2003 1191 1497 
Q 1191 994 1439 701 
Q 1688 409 2113 409 
Q 2538 409 2786 701 
Q 3034 994 3034 1497 
Q 3034 2003 2786 2293 
Q 2538 2584 2113 2584 
z
M 3366 4563 
L 3366 3988 
Q 3128 4100 2886 4159 
Q 2644 4219 2406 4219 
Q 1781 4219 1451 3797 
Q 1122 3375 1075 2522 
Q 1259 2794 1537 2939 
Q 1816 3084 2150 3084 
Q 2853 3084 3261 2657 
Q 3669 2231 3669 1497 
Q 3669 778 3244 343 
Q 2819 -91 2113 -91 
Q 1303 -91 875 529 
Q 447 1150 447 2328 
Q 447 3434 972 4092 
Q 1497 4750 2381 4750 
Q 2619 4750 2861 4703 
Q 3103 4656 3366 4563 
z
" id="DejaVuSans-36" transform="scale(0.015625)"/>
       </defs>
       <use transform="translate(0 0.765625)" xlink:href="#DejaVuSans-31"/>
       <use transform="translate(63.623047 0.765625)" xlink:href="#DejaVuSans-30"/>
       <use transform="translate(128.203125 39.046875)scale(0.7)" xlink:href="#DejaVuSans-2212"/>
       <use transform="translate(186.855469 39.046875)scale(0.7)" xlink:href="#DejaVuSans-35"/>
       <use transform="translate(231.391602 39.046875)scale(0.7)" xlink:href="#DejaVuSans-36"/>
      </g>
     </g>
    </g>
    <g id="ytick_2">
     <g id="line2d_18">
      <g>
       <use style="stroke:#000000;stroke-width:0.8;" x="58.5" xlink:href="#m51ea99bd0a" y="74.941707"/>
      </g>
     </g>
     <g id="text_11">
      <!-- $\mathdefault{10^{-55}}$ -->
      <g transform="translate(23.6 78.740926)scale(0.1 -0.1)">
       <use transform="translate(0 0.684375)" xlink:href="#DejaVuSans-31"/>
       <use transform="translate(63.623047 0.684375)" xlink:href="#DejaVuSans-30"/>
       <use transform="translate(128.203125 38.965625)scale(0.7)" xlink:href="#DejaVuSans-2212"/>
       <use transform="translate(186.855469 38.965625)scale(0.7)" xlink:href="#DejaVuSans-35"/>
       <use transform="translate(231.391602 38.965625)scale(0.7)" xlink:href="#DejaVuSans-35"/>
      </g>
     </g>
    </g>
    <g id="ytick_3">
     <g id="line2d_19">
      <g>
       <use style="stroke:#000000;stroke-width:0.8;" x="58.5" xlink:href="#m51ea99bd0a" y="44.135883"/>
      </g>
     </g>
     <g id="text_12">
      <!-- $\mathdefault{10^{-54}}$ -->
      <g transform="translate(23.6 47.935102)scale(0.1 -0.1)">
       <defs>
        <path d="M 2419 4116 
L 825 1625 
L 2419 1625 
L 2419 4116 
z
M 2253 4666 
L 3047 4666 
L 3047 1625 
L 3713 1625 
L 3713 1100 
L 3047 1100 
L 3047 0 
L 2419 0 
L 2419 1100 
L 313 1100 
L 313 1709 
L 2253 4666 
z
" id="DejaVuSans-34" transform="scale(0.015625)"/>
       </defs>
       <use transform="translate(0 0.684375)" xlink:href="#DejaVuSans-31"/>
       <use transform="translate(63.623047 0.684375)" xlink:href="#DejaVuSans-30"/>
       <use transform="translate(128.203125 38.965625)scale(0.7)" xlink:href="#DejaVuSans-2212"/>
       <use transform="translate(186.855469 38.965625)scale(0.7)" xlink:href="#DejaVuSans-35"/>
       <use transform="translate(231.391602 38.965625)scale(0.7)" xlink:href="#DejaVuSans-34"/>
      </g>
     </g>
    </g>
    <g id="ytick_4">
     <g id="line2d_20">
      <defs>
       <path d="M 0 0 
L -2 0 
" id="m6c0d4c10d8" style="stroke:#000000;stroke-width:0.6;"/>
      </defs>
      <g>
       <use style="stroke:#000000;stroke-width:0.6;" x="58.5" xlink:href="#m6c0d4c10d8" y="127.279878"/>
      </g>
     </g>
    </g>
    <g id="ytick_5">
     <g id="line2d_21">
      <g>
       <use style="stroke:#000000;stroke-width:0.6;" x="58.5" xlink:href="#m6c0d4c10d8" y="121.855242"/>
      </g>
     </g>
    </g>
    <g id="ytick_6">
     <g id="line2d_22">
      <g>
       <use style="stroke:#000000;stroke-width:0.6;" x="58.5" xlink:href="#m6c0d4c10d8" y="118.006401"/>
      </g>
     </g>
    </g>
    <g id="ytick_7">
     <g id="line2d_23">
      <g>
       <use style="stroke:#000000;stroke-width:0.6;" x="58.5" xlink:href="#m6c0d4c10d8" y="115.021008"/>
      </g>
     </g>
    </g>
    <g id="ytick_8">
     <g id="line2d_24">
      <g>
       <use style="stroke:#000000;stroke-width:0.6;" x="58.5" xlink:href="#m6c0d4c10d8" y="112.581765"/>
      </g>
     </g>
    </g>
    <g id="ytick_9">
     <g id="line2d_25">
      <g>
       <use style="stroke:#000000;stroke-width:0.6;" x="58.5" xlink:href="#m6c0d4c10d8" y="110.519414"/>
      </g>
     </g>
    </g>
    <g id="ytick_10">
     <g id="line2d_26">
      <g>
       <use style="stroke:#000000;stroke-width:0.6;" x="58.5" xlink:href="#m6c0d4c10d8" y="108.732924"/>
      </g>
     </g>
    </g>
    <g id="ytick_11">
     <g id="line2d_27">
      <g>
       <use style="stroke:#000000;stroke-width:0.6;" x="58.5" xlink:href="#m6c0d4c10d8" y="107.157128"/>
      </g>
     </g>
    </g>
    <g id="ytick_12">
     <g id="line2d_28">
      <g>
       <use style="stroke:#000000;stroke-width:0.6;" x="58.5" xlink:href="#m6c0d4c10d8" y="96.474054"/>
      </g>
     </g>
    </g>
    <g id="ytick_13">
     <g id="line2d_29">
      <g>
       <use style="stroke:#000000;stroke-width:0.6;" x="58.5" xlink:href="#m6c0d4c10d8" y="91.049418"/>
      </g>
     </g>
    </g>
    <g id="ytick_14">
     <g id="line2d_30">
      <g>
       <use style="stroke:#000000;stroke-width:0.6;" x="58.5" xlink:href="#m6c0d4c10d8" y="87.200577"/>
      </g>
     </g>
    </g>
    <g id="ytick_15">
     <g id="line2d_31">
      <g>
       <use style="stroke:#000000;stroke-width:0.6;" x="58.5" xlink:href="#m6c0d4c10d8" y="84.215184"/>
      </g>
     </g>
    </g>
    <g id="ytick_16">
     <g id="line2d_32">
      <g>
       <use style="stroke:#000000;stroke-width:0.6;" x="58.5" xlink:href="#m6c0d4c10d8" y="81.775941"/>
      </g>
     </g>
    </g>
    <g id="ytick_17">
     <g id="line2d_33">
      <g>
       <use style="stroke:#000000;stroke-width:0.6;" x="58.5" xlink:href="#m6c0d4c10d8" y="79.71359"/>
      </g>
     </g>
    </g>
    <g id="ytick_18">
     <g id="line2d_34">
      <g>
       <use style="stroke:#000000;stroke-width:0.6;" x="58.5" xlink:href="#m6c0d4c10d8" y="77.9271"/>
      </g>
     </g>
    </g>
    <g id="ytick_19">
     <g id="line2d_35">
      <g>
       <use style="stroke:#000000;stroke-width:0.6;" x="58.5" xlink:href="#m6c0d4c10d8" y="76.351304"/>
      </g>
     </g>
    </g>
    <g id="ytick_20">
     <g id="line2d_36">
      <g>
       <use style="stroke:#000000;stroke-width:0.6;" x="58.5" xlink:href="#m6c0d4c10d8" y="65.66823"/>
      </g>
     </g>
    </g>
    <g id="ytick_21">
     <g id="line2d_37">
      <g>
       <use style="stroke:#000000;stroke-width:0.6;" x="58.5" xlink:href="#m6c0d4c10d8" y="60.243594"/>
      </g>
     </g>
    </g>
    <g id="ytick_22">
     <g id="line2d_38">
      <g>
       <use style="stroke:#000000;stroke-width:0.6;" x="58.5" xlink:href="#m6c0d4c10d8" y="56.394753"/>
      </g>
     </g>
    </g>
    <g id="ytick_23">
     <g id="line2d_39">
      <g>
       <use style="stroke:#000000;stroke-width:0.6;" x="58.5" xlink:href="#m6c0d4c10d8" y="53.40936"/>
      </g>
     </g>
    </g>
    <g id="ytick_24">
     <g id="line2d_40">
      <g>
       <use style="stroke:#000000;stroke-width:0.6;" x="58.5" xlink:href="#m6c0d4c10d8" y="50.970117"/>
      </g>
     </g>
    </g>
    <g id="ytick_25">
     <g id="line2d_41">
      <g>
       <use style="stroke:#000000;stroke-width:0.6;" x="58.5" xlink:href="#m6c0d4c10d8" y="48.907766"/>
      </g>
     </g>
    </g>
    <g id="ytick_26">
     <g id="line2d_42">
      <g>
       <use style="stroke:#000000;stroke-width:0.6;" x="58.5" xlink:href="#m6c0d4c10d8" y="47.121276"/>
      </g>
     </g>
    </g>
    <g id="ytick_27">
     <g id="line2d_43">
      <g>
       <use style="stroke:#000000;stroke-width:0.6;" x="58.5" xlink:href="#m6c0d4c10d8" y="45.545481"/>
      </g>
     </g>
    </g>
    <g id="ytick_28">
     <g id="line2d_44">
      <g>
       <use style="stroke:#000000;stroke-width:0.6;" x="58.5" xlink:href="#m6c0d4c10d8" y="34.862406"/>
      </g>
     </g>
    </g>
    <g id="ytick_29">
     <g id="line2d_45">
      <g>
       <use style="stroke:#000000;stroke-width:0.6;" x="58.5" xlink:href="#m6c0d4c10d8" y="29.43777"/>
      </g>
     </g>
    </g>
    <g id="ytick_30">
     <g id="line2d_46">
      <g>
       <use style="stroke:#000000;stroke-width:0.6;" x="58.5" xlink:href="#m6c0d4c10d8" y="25.588929"/>
      </g>
     </g>
    </g>
    <g id="ytick_31">
     <g id="line2d_47">
      <g>
       <use style="stroke:#000000;stroke-width:0.6;" x="58.5" xlink:href="#m6c0d4c10d8" y="22.603537"/>
      </g>
     </g>
    </g>
    <g id="ytick_32">
     <g id="line2d_48">
      <g>
       <use style="stroke:#000000;stroke-width:0.6;" x="58.5" xlink:href="#m6c0d4c10d8" y="20.164293"/>
      </g>
     </g>
    </g>
    <g id="ytick_33">
     <g id="line2d_49">
      <g>
       <use style="stroke:#000000;stroke-width:0.6;" x="58.5" xlink:href="#m6c0d4c10d8" y="18.101942"/>
      </g>
     </g>
    </g>
    <g id="text_13">
     <!-- gctree likelihood -->
     <g transform="translate(17.520312 114.097344)rotate(-90)scale(0.1 -0.1)">
      <defs>
       <path d="M 2906 1791 
Q 2906 2416 2648 2759 
Q 2391 3103 1925 3103 
Q 1463 3103 1205 2759 
Q 947 2416 947 1791 
Q 947 1169 1205 825 
Q 1463 481 1925 481 
Q 2391 481 2648 825 
Q 2906 1169 2906 1791 
z
M 3481 434 
Q 3481 -459 3084 -895 
Q 2688 -1331 1869 -1331 
Q 1566 -1331 1297 -1286 
Q 1028 -1241 775 -1147 
L 775 -588 
Q 1028 -725 1275 -790 
Q 1522 -856 1778 -856 
Q 2344 -856 2625 -561 
Q 2906 -266 2906 331 
L 2906 616 
Q 2728 306 2450 153 
Q 2172 0 1784 0 
Q 1141 0 747 490 
Q 353 981 353 1791 
Q 353 2603 747 3093 
Q 1141 3584 1784 3584 
Q 2172 3584 2450 3431 
Q 2728 3278 2906 2969 
L 2906 3500 
L 3481 3500 
L 3481 434 
z
" id="DejaVuSans-67" transform="scale(0.015625)"/>
       <path d="M 3122 3366 
L 3122 2828 
Q 2878 2963 2633 3030 
Q 2388 3097 2138 3097 
Q 1578 3097 1268 2742 
Q 959 2388 959 1747 
Q 959 1106 1268 751 
Q 1578 397 2138 397 
Q 2388 397 2633 464 
Q 2878 531 3122 666 
L 3122 134 
Q 2881 22 2623 -34 
Q 2366 -91 2075 -91 
Q 1284 -91 818 406 
Q 353 903 353 1747 
Q 353 2603 823 3093 
Q 1294 3584 2113 3584 
Q 2378 3584 2631 3529 
Q 2884 3475 3122 3366 
z
" id="DejaVuSans-63" transform="scale(0.015625)"/>
       <path d="M 603 4863 
L 1178 4863 
L 1178 0 
L 603 0 
L 603 4863 
z
" id="DejaVuSans-6c" transform="scale(0.015625)"/>
       <path d="M 581 4863 
L 1159 4863 
L 1159 1991 
L 2875 3500 
L 3609 3500 
L 1753 1863 
L 3688 0 
L 2938 0 
L 1159 1709 
L 1159 0 
L 581 0 
L 581 4863 
z
" id="DejaVuSans-6b" transform="scale(0.015625)"/>
       <path d="M 3513 2113 
L 3513 0 
L 2938 0 
L 2938 2094 
Q 2938 2591 2744 2837 
Q 2550 3084 2163 3084 
Q 1697 3084 1428 2787 
Q 1159 2491 1159 1978 
L 1159 0 
L 581 0 
L 581 4863 
L 1159 4863 
L 1159 2956 
Q 1366 3272 1645 3428 
Q 1925 3584 2291 3584 
Q 2894 3584 3203 3211 
Q 3513 2838 3513 2113 
z
" id="DejaVuSans-68" transform="scale(0.015625)"/>
       <path d="M 2906 2969 
L 2906 4863 
L 3481 4863 
L 3481 0 
L 2906 0 
L 2906 525 
Q 2725 213 2448 61 
Q 2172 -91 1784 -91 
Q 1150 -91 751 415 
Q 353 922 353 1747 
Q 353 2572 751 3078 
Q 1150 3584 1784 3584 
Q 2172 3584 2448 3432 
Q 2725 3281 2906 2969 
z
M 947 1747 
Q 947 1113 1208 752 
Q 1469 391 1925 391 
Q 2381 391 2643 752 
Q 2906 1113 2906 1747 
Q 2906 2381 2643 2742 
Q 2381 3103 1925 3103 
Q 1469 3103 1208 2742 
Q 947 2381 947 1747 
z
" id="DejaVuSans-64" transform="scale(0.015625)"/>
      </defs>
      <use xlink:href="#DejaVuSans-67"/>
      <use x="63.476562" xlink:href="#DejaVuSans-63"/>
      <use x="118.457031" xlink:href="#DejaVuSans-74"/>
      <use x="157.666016" xlink:href="#DejaVuSans-72"/>
      <use x="196.529297" xlink:href="#DejaVuSans-65"/>
      <use x="258.052734" xlink:href="#DejaVuSans-65"/>
      <use x="319.576172" xlink:href="#DejaVuSans-20"/>
      <use x="351.363281" xlink:href="#DejaVuSans-6c"/>
      <use x="379.146484" xlink:href="#DejaVuSans-69"/>
      <use x="406.929688" xlink:href="#DejaVuSans-6b"/>
      <use x="461.214844" xlink:href="#DejaVuSans-65"/>
      <use x="522.738281" xlink:href="#DejaVuSans-6c"/>
      <use x="550.521484" xlink:href="#DejaVuSans-69"/>
      <use x="578.304688" xlink:href="#DejaVuSans-68"/>
      <use x="641.683594" xlink:href="#DejaVuSans-6f"/>
      <use x="702.865234" xlink:href="#DejaVuSans-6f"/>
      <use x="764.046875" xlink:href="#DejaVuSans-64"/>
     </g>
    </g>
   </g>
   <g id="line2d_50">
    <defs>
     <path d="M 0 2 
C 0.530406 2 1.03916 1.789267 1.414214 1.414214 
C 1.789267 1.03916 2 0.530406 2 0 
C 2 -0.530406 1.789267 -1.03916 1.414214 -1.414214 
C 1.03916 -1.789267 0.530406 -2 0 -2 
C -0.530406 -2 -1.03916 -1.789267 -1.414214 -1.414214 
C -1.789267 -1.03916 -2 -0.530406 -2 0 
C -2 0.530406 -1.789267 1.03916 -1.414214 1.414214 
C -1.03916 1.789267 -0.530406 2 0 2 
z
" id="m2a8fe6d8b9" style="stroke:#000000;"/>
    </defs>
    <g>
     <use style="stroke:#000000;" x="60.503867" xlink:href="#m2a8fe6d8b9" y="18.555136"/>
     <use style="stroke:#000000;" x="62.507735" xlink:href="#m2a8fe6d8b9" y="35.43514"/>
     <use style="stroke:#000000;" x="64.511602" xlink:href="#m2a8fe6d8b9" y="41.097026"/>
     <use style="stroke:#000000;" x="66.51547" xlink:href="#m2a8fe6d8b9" y="42.023884"/>
     <use style="stroke:#000000;" x="68.519337" xlink:href="#m2a8fe6d8b9" y="44.205776"/>
     <use style="stroke:#000000;" x="70.523204" xlink:href="#m2a8fe6d8b9" y="44.205776"/>
     <use style="stroke:#000000;" x="72.527072" xlink:href="#m2a8fe6d8b9" y="44.205776"/>
     <use style="stroke:#000000;" x="74.530939" xlink:href="#m2a8fe6d8b9" y="44.205776"/>
     <use style="stroke:#000000;" x="76.534807" xlink:href="#m2a8fe6d8b9" y="44.331725"/>
     <use style="stroke:#000000;" x="78.538674" xlink:href="#m2a8fe6d8b9" y="44.331725"/>
     <use style="stroke:#000000;" x="80.542541" xlink:href="#m2a8fe6d8b9" y="44.708617"/>
     <use style="stroke:#000000;" x="82.546409" xlink:href="#m2a8fe6d8b9" y="44.708617"/>
     <use style="stroke:#000000;" x="84.550276" xlink:href="#m2a8fe6d8b9" y="44.992991"/>
     <use style="stroke:#000000;" x="86.554144" xlink:href="#m2a8fe6d8b9" y="46.821648"/>
     <use style="stroke:#000000;" x="88.558011" xlink:href="#m2a8fe6d8b9" y="47.628966"/>
     <use style="stroke:#000000;" x="90.561878" xlink:href="#m2a8fe6d8b9" y="49.810857"/>
     <use style="stroke:#000000;" x="92.565746" xlink:href="#m2a8fe6d8b9" y="49.867661"/>
     <use style="stroke:#000000;" x="94.569613" xlink:href="#m2a8fe6d8b9" y="49.987201"/>
     <use style="stroke:#000000;" x="96.573481" xlink:href="#m2a8fe6d8b9" y="50.313699"/>
     <use style="stroke:#000000;" x="98.577348" xlink:href="#m2a8fe6d8b9" y="50.79452"/>
     <use style="stroke:#000000;" x="100.581215" xlink:href="#m2a8fe6d8b9" y="50.79452"/>
     <use style="stroke:#000000;" x="102.585083" xlink:href="#m2a8fe6d8b9" y="50.79452"/>
     <use style="stroke:#000000;" x="104.58895" xlink:href="#m2a8fe6d8b9" y="52.976411"/>
     <use style="stroke:#000000;" x="106.592818" xlink:href="#m2a8fe6d8b9" y="52.976411"/>
     <use style="stroke:#000000;" x="108.596685" xlink:href="#m2a8fe6d8b9" y="53.10236"/>
     <use style="stroke:#000000;" x="110.600552" xlink:href="#m2a8fe6d8b9" y="53.10236"/>
     <use style="stroke:#000000;" x="112.60442" xlink:href="#m2a8fe6d8b9" y="53.10236"/>
     <use style="stroke:#000000;" x="114.608287" xlink:href="#m2a8fe6d8b9" y="53.10236"/>
     <use style="stroke:#000000;" x="116.612155" xlink:href="#m2a8fe6d8b9" y="53.246272"/>
     <use style="stroke:#000000;" x="118.616022" xlink:href="#m2a8fe6d8b9" y="53.479253"/>
     <use style="stroke:#000000;" x="120.61989" xlink:href="#m2a8fe6d8b9" y="56.231665"/>
     <use style="stroke:#000000;" x="122.623757" xlink:href="#m2a8fe6d8b9" y="56.253549"/>
     <use style="stroke:#000000;" x="124.627624" xlink:href="#m2a8fe6d8b9" y="56.399602"/>
     <use style="stroke:#000000;" x="126.631492" xlink:href="#m2a8fe6d8b9" y="56.399602"/>
     <use style="stroke:#000000;" x="128.635359" xlink:href="#m2a8fe6d8b9" y="58.581493"/>
     <use style="stroke:#000000;" x="130.639227" xlink:href="#m2a8fe6d8b9" y="58.638296"/>
     <use style="stroke:#000000;" x="132.643094" xlink:href="#m2a8fe6d8b9" y="58.707442"/>
     <use style="stroke:#000000;" x="134.646961" xlink:href="#m2a8fe6d8b9" y="58.707442"/>
     <use style="stroke:#000000;" x="136.650829" xlink:href="#m2a8fe6d8b9" y="58.707442"/>
     <use style="stroke:#000000;" x="138.654696" xlink:href="#m2a8fe6d8b9" y="58.707442"/>
     <use style="stroke:#000000;" x="140.658564" xlink:href="#m2a8fe6d8b9" y="58.757837"/>
     <use style="stroke:#000000;" x="142.662431" xlink:href="#m2a8fe6d8b9" y="58.903889"/>
     <use style="stroke:#000000;" x="144.666298" xlink:href="#m2a8fe6d8b9" y="58.903889"/>
     <use style="stroke:#000000;" x="146.670166" xlink:href="#m2a8fe6d8b9" y="58.903889"/>
     <use style="stroke:#000000;" x="148.674033" xlink:href="#m2a8fe6d8b9" y="58.903889"/>
     <use style="stroke:#000000;" x="150.677901" xlink:href="#m2a8fe6d8b9" y="59.084334"/>
     <use style="stroke:#000000;" x="152.681768" xlink:href="#m2a8fe6d8b9" y="59.084334"/>
     <use style="stroke:#000000;" x="154.685635" xlink:href="#m2a8fe6d8b9" y="59.691104"/>
     <use style="stroke:#000000;" x="156.689503" xlink:href="#m2a8fe6d8b9" y="61.872996"/>
     <use style="stroke:#000000;" x="158.69337" xlink:href="#m2a8fe6d8b9" y="61.872996"/>
     <use style="stroke:#000000;" x="160.697238" xlink:href="#m2a8fe6d8b9" y="62.181027"/>
     <use style="stroke:#000000;" x="162.701105" xlink:href="#m2a8fe6d8b9" y="62.375837"/>
     <use style="stroke:#000000;" x="164.704972" xlink:href="#m2a8fe6d8b9" y="64.079258"/>
     <use style="stroke:#000000;" x="166.70884" xlink:href="#m2a8fe6d8b9" y="64.243378"/>
     <use style="stroke:#000000;" x="168.712707" xlink:href="#m2a8fe6d8b9" y="65.296186"/>
     <use style="stroke:#000000;" x="170.716575" xlink:href="#m2a8fe6d8b9" y="65.296186"/>
     <use style="stroke:#000000;" x="172.720442" xlink:href="#m2a8fe6d8b9" y="65.296186"/>
     <use style="stroke:#000000;" x="174.724309" xlink:href="#m2a8fe6d8b9" y="67.352128"/>
     <use style="stroke:#000000;" x="176.728177" xlink:href="#m2a8fe6d8b9" y="67.352128"/>
     <use style="stroke:#000000;" x="178.732044" xlink:href="#m2a8fe6d8b9" y="67.478077"/>
     <use style="stroke:#000000;" x="180.735912" xlink:href="#m2a8fe6d8b9" y="67.478077"/>
     <use style="stroke:#000000;" x="182.739779" xlink:href="#m2a8fe6d8b9" y="67.478077"/>
     <use style="stroke:#000000;" x="184.743646" xlink:href="#m2a8fe6d8b9" y="67.478077"/>
     <use style="stroke:#000000;" x="186.747514" xlink:href="#m2a8fe6d8b9" y="67.478077"/>
     <use style="stroke:#000000;" x="188.751381" xlink:href="#m2a8fe6d8b9" y="67.554984"/>
     <use style="stroke:#000000;" x="190.755249" xlink:href="#m2a8fe6d8b9" y="67.554984"/>
     <use style="stroke:#000000;" x="192.759116" xlink:href="#m2a8fe6d8b9" y="67.674525"/>
     <use style="stroke:#000000;" x="194.762983" xlink:href="#m2a8fe6d8b9" y="67.674525"/>
     <use style="stroke:#000000;" x="196.766851" xlink:href="#m2a8fe6d8b9" y="67.674525"/>
     <use style="stroke:#000000;" x="198.770718" xlink:href="#m2a8fe6d8b9" y="67.674525"/>
     <use style="stroke:#000000;" x="200.774586" xlink:href="#m2a8fe6d8b9" y="67.674525"/>
     <use style="stroke:#000000;" x="202.778453" xlink:href="#m2a8fe6d8b9" y="67.674525"/>
     <use style="stroke:#000000;" x="204.78232" xlink:href="#m2a8fe6d8b9" y="67.674525"/>
     <use style="stroke:#000000;" x="206.786188" xlink:href="#m2a8fe6d8b9" y="67.674525"/>
     <use style="stroke:#000000;" x="208.790055" xlink:href="#m2a8fe6d8b9" y="67.980919"/>
     <use style="stroke:#000000;" x="210.793923" xlink:href="#m2a8fe6d8b9" y="68.242788"/>
     <use style="stroke:#000000;" x="212.79779" xlink:href="#m2a8fe6d8b9" y="68.46174"/>
     <use style="stroke:#000000;" x="214.801657" xlink:href="#m2a8fe6d8b9" y="68.46174"/>
     <use style="stroke:#000000;" x="216.805525" xlink:href="#m2a8fe6d8b9" y="70.006736"/>
     <use style="stroke:#000000;" x="218.809392" xlink:href="#m2a8fe6d8b9" y="70.028621"/>
     <use style="stroke:#000000;" x="220.81326" xlink:href="#m2a8fe6d8b9" y="70.239717"/>
     <use style="stroke:#000000;" x="222.817127" xlink:href="#m2a8fe6d8b9" y="70.239717"/>
     <use style="stroke:#000000;" x="224.820994" xlink:href="#m2a8fe6d8b9" y="70.239717"/>
     <use style="stroke:#000000;" x="226.824862" xlink:href="#m2a8fe6d8b9" y="70.927521"/>
     <use style="stroke:#000000;" x="228.828729" xlink:href="#m2a8fe6d8b9" y="71.146473"/>
     <use style="stroke:#000000;" x="230.832597" xlink:href="#m2a8fe6d8b9" y="72.352747"/>
     <use style="stroke:#000000;" x="232.836464" xlink:href="#m2a8fe6d8b9" y="73.160066"/>
     <use style="stroke:#000000;" x="234.840331" xlink:href="#m2a8fe6d8b9" y="73.160066"/>
     <use style="stroke:#000000;" x="236.844199" xlink:href="#m2a8fe6d8b9" y="73.279606"/>
     <use style="stroke:#000000;" x="238.848066" xlink:href="#m2a8fe6d8b9" y="73.279606"/>
     <use style="stroke:#000000;" x="240.851934" xlink:href="#m2a8fe6d8b9" y="73.279606"/>
     <use style="stroke:#000000;" x="242.855801" xlink:href="#m2a8fe6d8b9" y="73.940872"/>
     <use style="stroke:#000000;" x="244.859669" xlink:href="#m2a8fe6d8b9" y="74.066821"/>
     <use style="stroke:#000000;" x="246.863536" xlink:href="#m2a8fe6d8b9" y="75.341957"/>
     <use style="stroke:#000000;" x="248.867403" xlink:href="#m2a8fe6d8b9" y="75.844799"/>
     <use style="stroke:#000000;" x="250.871271" xlink:href="#m2a8fe6d8b9" y="75.844799"/>
     <use style="stroke:#000000;" x="252.875138" xlink:href="#m2a8fe6d8b9" y="76.122764"/>
     <use style="stroke:#000000;" x="254.879006" xlink:href="#m2a8fe6d8b9" y="76.248713"/>
     <use style="stroke:#000000;" x="256.882873" xlink:href="#m2a8fe6d8b9" y="76.30078"/>
     <use style="stroke:#000000;" x="258.88674" xlink:href="#m2a8fe6d8b9" y="76.32562"/>
     <use style="stroke:#000000;" x="260.890608" xlink:href="#m2a8fe6d8b9" y="76.32562"/>
     <use style="stroke:#000000;" x="262.894475" xlink:href="#m2a8fe6d8b9" y="76.32562"/>
     <use style="stroke:#000000;" x="264.898343" xlink:href="#m2a8fe6d8b9" y="76.352158"/>
     <use style="stroke:#000000;" x="266.90221" xlink:href="#m2a8fe6d8b9" y="76.352158"/>
     <use style="stroke:#000000;" x="268.906077" xlink:href="#m2a8fe6d8b9" y="76.571109"/>
     <use style="stroke:#000000;" x="270.909945" xlink:href="#m2a8fe6d8b9" y="78.777372"/>
     <use style="stroke:#000000;" x="272.913812" xlink:href="#m2a8fe6d8b9" y="81.123383"/>
     <use style="stroke:#000000;" x="274.91768" xlink:href="#m2a8fe6d8b9" y="81.784649"/>
     <use style="stroke:#000000;" x="276.921547" xlink:href="#m2a8fe6d8b9" y="81.784649"/>
     <use style="stroke:#000000;" x="278.925414" xlink:href="#m2a8fe6d8b9" y="81.930701"/>
     <use style="stroke:#000000;" x="280.929282" xlink:href="#m2a8fe6d8b9" y="81.930701"/>
     <use style="stroke:#000000;" x="282.933149" xlink:href="#m2a8fe6d8b9" y="81.930701"/>
     <use style="stroke:#000000;" x="284.937017" xlink:href="#m2a8fe6d8b9" y="82.050242"/>
     <use style="stroke:#000000;" x="286.940884" xlink:href="#m2a8fe6d8b9" y="82.050242"/>
     <use style="stroke:#000000;" x="288.944751" xlink:href="#m2a8fe6d8b9" y="82.176191"/>
     <use style="stroke:#000000;" x="290.948619" xlink:href="#m2a8fe6d8b9" y="82.837457"/>
     <use style="stroke:#000000;" x="292.952486" xlink:href="#m2a8fe6d8b9" y="82.837457"/>
     <use style="stroke:#000000;" x="294.956354" xlink:href="#m2a8fe6d8b9" y="84.434989"/>
     <use style="stroke:#000000;" x="296.960221" xlink:href="#m2a8fe6d8b9" y="84.469382"/>
     <use style="stroke:#000000;" x="298.964088" xlink:href="#m2a8fe6d8b9" y="84.615434"/>
     <use style="stroke:#000000;" x="300.967956" xlink:href="#m2a8fe6d8b9" y="85.019348"/>
     <use style="stroke:#000000;" x="302.971823" xlink:href="#m2a8fe6d8b9" y="85.222204"/>
     <use style="stroke:#000000;" x="304.975691" xlink:href="#m2a8fe6d8b9" y="85.341744"/>
     <use style="stroke:#000000;" x="306.979558" xlink:href="#m2a8fe6d8b9" y="86.106455"/>
     <use style="stroke:#000000;" x="308.983425" xlink:href="#m2a8fe6d8b9" y="87.712127"/>
     <use style="stroke:#000000;" x="310.987293" xlink:href="#m2a8fe6d8b9" y="87.712127"/>
     <use style="stroke:#000000;" x="312.99116" xlink:href="#m2a8fe6d8b9" y="87.712127"/>
     <use style="stroke:#000000;" x="314.995028" xlink:href="#m2a8fe6d8b9" y="87.712127"/>
     <use style="stroke:#000000;" x="316.998895" xlink:href="#m2a8fe6d8b9" y="87.906937"/>
     <use style="stroke:#000000;" x="319.002762" xlink:href="#m2a8fe6d8b9" y="88.638986"/>
     <use style="stroke:#000000;" x="321.00663" xlink:href="#m2a8fe6d8b9" y="88.638986"/>
     <use style="stroke:#000000;" x="323.010497" xlink:href="#m2a8fe6d8b9" y="88.791188"/>
     <use style="stroke:#000000;" x="325.014365" xlink:href="#m2a8fe6d8b9" y="89.894018"/>
     <use style="stroke:#000000;" x="327.018232" xlink:href="#m2a8fe6d8b9" y="90.39686"/>
     <use style="stroke:#000000;" x="329.022099" xlink:href="#m2a8fe6d8b9" y="90.400677"/>
     <use style="stroke:#000000;" x="331.025967" xlink:href="#m2a8fe6d8b9" y="90.701337"/>
     <use style="stroke:#000000;" x="333.029834" xlink:href="#m2a8fe6d8b9" y="90.701337"/>
     <use style="stroke:#000000;" x="335.033702" xlink:href="#m2a8fe6d8b9" y="90.820877"/>
     <use style="stroke:#000000;" x="337.037569" xlink:href="#m2a8fe6d8b9" y="90.820877"/>
     <use style="stroke:#000000;" x="339.041436" xlink:href="#m2a8fe6d8b9" y="90.827286"/>
     <use style="stroke:#000000;" x="341.045304" xlink:href="#m2a8fe6d8b9" y="90.827286"/>
     <use style="stroke:#000000;" x="343.049171" xlink:href="#m2a8fe6d8b9" y="90.946826"/>
     <use style="stroke:#000000;" x="345.053039" xlink:href="#m2a8fe6d8b9" y="93.38607"/>
     <use style="stroke:#000000;" x="347.056906" xlink:href="#m2a8fe6d8b9" y="94.11238"/>
     <use style="stroke:#000000;" x="349.060773" xlink:href="#m2a8fe6d8b9" y="94.215825"/>
     <use style="stroke:#000000;" x="351.064641" xlink:href="#m2a8fe6d8b9" y="94.786976"/>
     <use style="stroke:#000000;" x="353.068508" xlink:href="#m2a8fe6d8b9" y="96.328155"/>
     <use style="stroke:#000000;" x="355.072376" xlink:href="#m2a8fe6d8b9" y="96.482762"/>
     <use style="stroke:#000000;" x="357.076243" xlink:href="#m2a8fe6d8b9" y="96.482762"/>
     <use style="stroke:#000000;" x="359.08011" xlink:href="#m2a8fe6d8b9" y="96.482762"/>
     <use style="stroke:#000000;" x="361.083978" xlink:href="#m2a8fe6d8b9" y="96.482762"/>
     <use style="stroke:#000000;" x="363.087845" xlink:href="#m2a8fe6d8b9" y="98.664653"/>
     <use style="stroke:#000000;" x="365.091713" xlink:href="#m2a8fe6d8b9" y="98.664653"/>
     <use style="stroke:#000000;" x="367.09558" xlink:href="#m2a8fe6d8b9" y="99.591512"/>
     <use style="stroke:#000000;" x="369.099448" xlink:href="#m2a8fe6d8b9" y="99.597921"/>
     <use style="stroke:#000000;" x="371.103315" xlink:href="#m2a8fe6d8b9" y="99.717461"/>
     <use style="stroke:#000000;" x="373.107182" xlink:href="#m2a8fe6d8b9" y="99.820906"/>
     <use style="stroke:#000000;" x="375.11105" xlink:href="#m2a8fe6d8b9" y="102.156705"/>
     <use style="stroke:#000000;" x="377.114917" xlink:href="#m2a8fe6d8b9" y="102.156705"/>
     <use style="stroke:#000000;" x="379.118785" xlink:href="#m2a8fe6d8b9" y="102.763475"/>
     <use style="stroke:#000000;" x="381.122652" xlink:href="#m2a8fe6d8b9" y="105.253397"/>
     <use style="stroke:#000000;" x="383.126519" xlink:href="#m2a8fe6d8b9" y="105.39945"/>
     <use style="stroke:#000000;" x="385.130387" xlink:href="#m2a8fe6d8b9" y="105.39945"/>
     <use style="stroke:#000000;" x="387.134254" xlink:href="#m2a8fe6d8b9" y="105.51899"/>
     <use style="stroke:#000000;" x="389.138122" xlink:href="#m2a8fe6d8b9" y="108.084183"/>
     <use style="stroke:#000000;" x="391.141989" xlink:href="#m2a8fe6d8b9" y="108.488097"/>
     <use style="stroke:#000000;" x="393.145856" xlink:href="#m2a8fe6d8b9" y="111.05329"/>
     <use style="stroke:#000000;" x="395.149724" xlink:href="#m2a8fe6d8b9" y="111.383321"/>
     <use style="stroke:#000000;" x="397.153591" xlink:href="#m2a8fe6d8b9" y="111.547441"/>
     <use style="stroke:#000000;" x="399.157459" xlink:href="#m2a8fe6d8b9" y="111.547441"/>
     <use style="stroke:#000000;" x="401.161326" xlink:href="#m2a8fe6d8b9" y="113.362767"/>
     <use style="stroke:#000000;" x="403.165193" xlink:href="#m2a8fe6d8b9" y="114.170085"/>
     <use style="stroke:#000000;" x="405.169061" xlink:href="#m2a8fe6d8b9" y="114.170085"/>
     <use style="stroke:#000000;" x="407.172928" xlink:href="#m2a8fe6d8b9" y="114.170085"/>
     <use style="stroke:#000000;" x="409.176796" xlink:href="#m2a8fe6d8b9" y="117.139192"/>
     <use style="stroke:#000000;" x="411.180663" xlink:href="#m2a8fe6d8b9" y="117.332683"/>
     <use style="stroke:#000000;" x="413.18453" xlink:href="#m2a8fe6d8b9" y="120.318076"/>
     <use style="stroke:#000000;" x="415.188398" xlink:href="#m2a8fe6d8b9" y="120.318076"/>
     <use style="stroke:#000000;" x="417.192265" xlink:href="#m2a8fe6d8b9" y="120.318076"/>
     <use style="stroke:#000000;" x="419.196133" xlink:href="#m2a8fe6d8b9" y="122.940721"/>
    </g>
   </g>
   <g id="patch_3">
    <path d="M 58.5 128.16 
L 58.5 17.28 
" style="fill:none;stroke:#000000;stroke-linecap:square;stroke-linejoin:miter;stroke-width:0.8;"/>
   </g>
   <g id="patch_4">
    <path d="M 421.2 128.16 
L 421.2 17.28 
" style="fill:none;stroke:#000000;stroke-linecap:square;stroke-linejoin:miter;stroke-width:0.8;"/>
   </g>
   <g id="patch_5">
    <path d="M 58.5 128.16 
L 421.2 128.16 
" style="fill:none;stroke:#000000;stroke-linecap:square;stroke-linejoin:miter;stroke-width:0.8;"/>
   </g>
   <g id="patch_6">
    <path d="M 58.5 17.28 
L 421.2 17.28 
" style="fill:none;stroke:#000000;stroke-linecap:square;stroke-linejoin:miter;stroke-width:0.8;"/>
   </g>
  </g>
 </g>
</svg>
