<?xml version="1.0" encoding="utf-8" standalone="no"?>
<!DOCTYPE svg PUBLIC "-//W3C//DTD SVG 1.1//EN"
  "http://www.w3.org/Graphics/SVG/1.1/DTD/svg11.dtd">
<!-- Created with matplotlib (http://matplotlib.org/) -->
<svg height="345.6pt" version="1.1" viewBox="0 0 460.8 345.6" width="460.8pt" xmlns="http://www.w3.org/2000/svg" xmlns:xlink="http://www.w3.org/1999/xlink">
 <defs>
  <style type="text/css">
*{stroke-linecap:butt;stroke-linejoin:round;}
  </style>
 </defs>
 <g id="figure_1">
  <g id="patch_1">
   <path d="M 0 345.6 
L 460.8 345.6 
L 460.8 0 
L 0 0 
z
" style="fill:#ffffff;"/>
  </g>
  <g id="axes_1">
   <g id="patch_2">
    <path d="M 98.090625 280.292969 
L 426.15 280.292969 
L 426.15 42.459375 
L 98.090625 42.459375 
z
" style="fill:#ffffff;"/>
   </g>
   <g id="matplotlib.axis_1">
    <g id="xtick_1">
     <g id="line2d_1">
      <defs>
       <path d="M 0 0 
L 0 3.5 
" id="mf0207847a5" style="stroke:#262626;stroke-width:0.8;"/>
      </defs>
      <g>
       <use style="fill:#262626;stroke:#262626;stroke-width:0.8;" x="98.090625" xlink:href="#mf0207847a5" y="280.292969"/>
      </g>
     </g>
     <g id="text_1">
      <text style="fill:#262626;font-family:Lato;font-size:15px;font-style:normal;font-weight:600;text-anchor:middle;" transform="rotate(-0, 98.090625, 298.4375)" x="98.090625" y="298.4375">50</text>
     </g>
    </g>
    <g id="xtick_2">
     <g id="line2d_2">
      <g>
       <use style="fill:#262626;stroke:#262626;stroke-width:0.8;" x="163.7025" xlink:href="#mf0207847a5" y="280.292969"/>
      </g>
     </g>
     <g id="text_2">
      <text style="fill:#262626;font-family:Lato;font-size:15px;font-style:normal;font-weight:600;text-anchor:middle;" transform="rotate(-0, 163.7025, 298.4375)" x="163.7025" y="298.4375">60</text>
     </g>
    </g>
    <g id="xtick_3">
     <g id="line2d_3">
      <g>
       <use style="fill:#262626;stroke:#262626;stroke-width:0.8;" x="229.314375" xlink:href="#mf0207847a5" y="280.292969"/>
      </g>
     </g>
     <g id="text_3">
      <text style="fill:#262626;font-family:Lato;font-size:15px;font-style:normal;font-weight:600;text-anchor:middle;" transform="rotate(-0, 229.314375, 298.4375)" x="229.314375" y="298.4375">70</text>
     </g>
    </g>
    <g id="xtick_4">
     <g id="line2d_4">
      <g>
       <use style="fill:#262626;stroke:#262626;stroke-width:0.8;" x="294.92625" xlink:href="#mf0207847a5" y="280.292969"/>
      </g>
     </g>
     <g id="text_4">
      <text style="fill:#262626;font-family:Lato;font-size:15px;font-style:normal;font-weight:600;text-anchor:middle;" transform="rotate(-0, 294.92625, 298.4375)" x="294.92625" y="298.4375">80</text>
     </g>
    </g>
    <g id="xtick_5">
     <g id="line2d_5">
      <g>
       <use style="fill:#262626;stroke:#262626;stroke-width:0.8;" x="360.538125" xlink:href="#mf0207847a5" y="280.292969"/>
      </g>
     </g>
     <g id="text_5">
      <text style="fill:#262626;font-family:Lato;font-size:15px;font-style:normal;font-weight:600;text-anchor:middle;" transform="rotate(-0, 360.538125, 298.4375)" x="360.538125" y="298.4375">90</text>
     </g>
    </g>
    <g id="xtick_6">
     <g id="line2d_6">
      <g>
       <use style="fill:#262626;stroke:#262626;stroke-width:0.8;" x="426.15" xlink:href="#mf0207847a5" y="280.292969"/>
      </g>
     </g>
     <g id="text_6">
      <text style="fill:#262626;font-family:Lato;font-size:15px;font-style:normal;font-weight:600;text-anchor:middle;" transform="rotate(-0, 426.15, 298.4375)" x="426.15" y="298.4375">100</text>
     </g>
    </g>
    <g id="text_7">
     <text style="fill:#262626;font-family:Lato;font-size:20px;font-style:normal;font-weight:600;text-anchor:middle;" transform="rotate(-0, 262.120313, 320.65)" x="262.120313" y="320.65">AA lb index threshold (percentile)</text>
    </g>
   </g>
   <g id="matplotlib.axis_2">
    <g id="ytick_1">
     <g id="line2d_7">
      <defs>
       <path d="M 0 0 
L -3.5 0 
" id="m6eec1f4e19" style="stroke:#262626;stroke-width:0.8;"/>
      </defs>
      <g>
       <use style="fill:#262626;stroke:#262626;stroke-width:0.8;" x="98.090625" xlink:href="#m6eec1f4e19" y="260.473503"/>
      </g>
     </g>
     <g id="text_8">
      <text style="fill:#262626;font-family:Lato;font-size:15px;font-style:normal;font-weight:600;text-anchor:end;" transform="rotate(-0, 91.090625, 266.045768)" x="91.090625" y="266.045768">50</text>
     </g>
    </g>
    <g id="ytick_2">
     <g id="line2d_8">
      <g>
       <use style="fill:#262626;stroke:#262626;stroke-width:0.8;" x="98.090625" xlink:href="#m6eec1f4e19" y="220.83457"/>
      </g>
     </g>
     <g id="text_9">
      <text style="fill:#262626;font-family:Lato;font-size:15px;font-style:normal;font-weight:600;text-anchor:end;" transform="rotate(-0, 91.090625, 226.406836)" x="91.090625" y="226.406836">60</text>
     </g>
    </g>
    <g id="ytick_3">
     <g id="line2d_9">
      <g>
       <use style="fill:#262626;stroke:#262626;stroke-width:0.8;" x="98.090625" xlink:href="#m6eec1f4e19" y="181.195638"/>
      </g>
     </g>
     <g id="text_10">
      <text style="fill:#262626;font-family:Lato;font-size:15px;font-style:normal;font-weight:600;text-anchor:end;" transform="rotate(-0, 91.090625, 186.767904)" x="91.090625" y="186.767904">70</text>
     </g>
    </g>
    <g id="ytick_4">
     <g id="line2d_10">
      <g>
       <use style="fill:#262626;stroke:#262626;stroke-width:0.8;" x="98.090625" xlink:href="#m6eec1f4e19" y="141.556706"/>
      </g>
     </g>
     <g id="text_11">
      <text style="fill:#262626;font-family:Lato;font-size:15px;font-style:normal;font-weight:600;text-anchor:end;" transform="rotate(-0, 91.090625, 147.128971)" x="91.090625" y="147.128971">80</text>
     </g>
    </g>
    <g id="ytick_5">
     <g id="line2d_11">
      <g>
       <use style="fill:#262626;stroke:#262626;stroke-width:0.8;" x="98.090625" xlink:href="#m6eec1f4e19" y="101.917773"/>
      </g>
     </g>
     <g id="text_12">
      <text style="fill:#262626;font-family:Lato;font-size:15px;font-style:normal;font-weight:600;text-anchor:end;" transform="rotate(-0, 91.090625, 107.490039)" x="91.090625" y="107.490039">90</text>
     </g>
    </g>
    <g id="ytick_6">
     <g id="line2d_12">
      <g>
       <use style="fill:#262626;stroke:#262626;stroke-width:0.8;" x="98.090625" xlink:href="#m6eec1f4e19" y="62.278841"/>
      </g>
     </g>
     <g id="text_13">
      <text style="fill:#262626;font-family:Lato;font-size:15px;font-style:normal;font-weight:600;text-anchor:end;" transform="rotate(-0, 91.090625, 67.851107)" x="91.090625" y="67.851107">100</text>
     </g>
    </g>
    <g id="text_14">
     <text style="fill:#262626;font-family:Lato;font-size:20px;font-style:normal;font-weight:600;" transform="translate(36.2 244.630859)rotate(-90)">mean percentile of</text>
     <text style="fill:#262626;font-family:Lato;font-size:20px;font-style:normal;font-weight:600;" transform="translate(57.38125 241.538672)rotate(-90)">resulting affinities</text>
    </g>
   </g>
   <g id="line2d_13">
    <path clip-path="url(#pb9723c2e69)" d="M 98.090625 244.59857 
L 111.213 240.303692 
L 124.335375 240.303692 
L 137.45775 228.936355 
L 150.580125 234.245178 
L 163.7025 233.896715 
L 176.824875 237.717819 
L 189.94725 236.7756 
L 203.069625 236.7756 
L 216.192 236.7756 
L 229.314375 224.056253 
L 242.43675 226.447927 
L 255.559125 221.798017 
L 268.6815 215.794064 
L 281.803875 215.794064 
L 294.92625 209.5179 
L 308.048625 209.5179 
L 321.171 202.047368 
L 334.293375 163.408938 
L 347.41575 176.591116 
L 360.538125 176.591116 
L 373.6605 132.877593 
L 386.782875 150.365357 
L 399.90525 170.184823 
L 413.027625 135.500758 
" style="fill:none;stroke:#1f77b4;stroke-linecap:round;stroke-opacity:0.7;stroke-width:3;"/>
   </g>
   <g id="line2d_14">
    <path clip-path="url(#pb9723c2e69)" d="M 98.090625 126.770755 
L 111.213 123.188665 
L 124.335375 123.188665 
L 137.45775 113.798578 
L 150.580125 109.258316 
L 163.7025 101.193775 
L 176.824875 94.57723 
L 189.94725 91.137036 
L 203.069625 91.137036 
L 216.192 91.137036 
L 229.314375 86.910441 
L 242.43675 86.675352 
L 255.559125 86.410876 
L 268.6815 86.111137 
L 281.803875 86.111137 
L 294.92625 84.912182 
L 308.048625 84.912182 
L 321.171 84.162835 
L 334.293375 82.606499 
L 347.41575 81.097324 
L 360.538125 81.097324 
L 373.6605 78.212137 
L 386.782875 73.473169 
L 399.90525 70.353438 
L 413.027625 65.031545 
" style="fill:none;stroke:#006400;stroke-dasharray:11.1,4.8;stroke-dashoffset:0;stroke-opacity:0.7;stroke-width:3;"/>
   </g>
   <g id="line2d_15">
    <path clip-path="url(#pb9723c2e69)" d="M 82.343775 260.473503 
L 428.774475 260.473503 
" style="fill:none;stroke:#8b0000;stroke-dasharray:11.1,4.8;stroke-dashoffset:0;stroke-opacity:0.7;stroke-width:3;"/>
   </g>
   <g id="patch_3">
    <path d="M 98.090625 280.292969 
L 98.090625 42.459375 
" style="fill:none;stroke:#262626;stroke-linecap:square;stroke-linejoin:miter;stroke-width:0.8;"/>
   </g>
   <g id="patch_4">
    <path d="M 98.090625 280.292969 
L 426.15 280.292969 
" style="fill:none;stroke:#262626;stroke-linecap:square;stroke-linejoin:miter;stroke-width:0.8;"/>
   </g>
   <g id="text_15">
    <text style="fill:#262626;font-family:Lato;font-size:20px;font-style:normal;font-weight:bold;text-anchor:middle;" transform="rotate(-0, 262.120313, 36.459375)" x="262.120313" y="36.459375">affinity </text>
   </g>
   <g id="legend_1">
    <g id="patch_5">
     <path d="M 264.920313 232.72625 
L 426.22 232.72625 
Q 429.02 232.72625 429.02 229.92625 
L 429.02 191.833125 
Q 429.02 189.033125 426.22 189.033125 
L 264.920313 189.033125 
Q 262.120313 189.033125 262.120313 191.833125 
L 262.120313 229.92625 
Q 262.120313 232.72625 264.920313 232.72625 
z
" style="fill:#ffffff;opacity:0.8;stroke:#cccccc;stroke-linejoin:miter;"/>
    </g>
    <g id="line2d_16">
     <path d="M 267.720313 200.134687 
L 295.720313 200.134687 
" style="fill:none;stroke:#006400;stroke-dasharray:11.1,4.8;stroke-dashoffset:0;stroke-opacity:0.7;stroke-width:3;"/>
    </g>
    <g id="line2d_17"/>
    <g id="text_16">
     <text style="fill:#262626;font-family:Lato;font-size:14px;font-style:normal;font-weight:600;text-anchor:start;" transform="rotate(-0, 306.920313, 205.034687)" x="306.920313" y="205.034687">perfect correlation</text>
    </g>
    <g id="line2d_18">
     <path d="M 267.720313 219.88125 
L 295.720313 219.88125 
" style="fill:none;stroke:#8b0000;stroke-dasharray:11.1,4.8;stroke-dashoffset:0;stroke-opacity:0.7;stroke-width:3;"/>
    </g>
    <g id="line2d_19"/>
    <g id="text_17">
     <text style="fill:#262626;font-family:Lato;font-size:14px;font-style:normal;font-weight:600;text-anchor:start;" transform="rotate(-0, 306.920313, 224.78125)" x="306.920313" y="224.78125">no correlation</text>
    </g>
   </g>
  </g>
  <g id="text_18">
   <text style="fill:#262626;font-family:Lato;font-size:12px;font-style:normal;font-weight:bold;text-anchor:start;" transform="rotate(-0, 170.496, 55.296)" x="170.496" y="55.296">choosing among 34 families</text>
  </g>
 </g>
 <defs>
  <clipPath id="pb9723c2e69">
   <rect height="237.833594" width="328.059375" x="98.090625" y="42.459375"/>
  </clipPath>
 </defs>
</svg>
