<?xml version="1.0" encoding="utf-8" standalone="no"?>
<!DOCTYPE svg PUBLIC "-//W3C//DTD SVG 1.1//EN"
  "http://www.w3.org/Graphics/SVG/1.1/DTD/svg11.dtd">
<!-- Created with matplotlib (http://matplotlib.org/) -->
<svg height="345.6pt" version="1.1" viewBox="0 0 460.8 345.6" width="460.8pt" xmlns="http://www.w3.org/2000/svg" xmlns:xlink="http://www.w3.org/1999/xlink">
 <defs>
  <style type="text/css">
*{stroke-linecap:butt;stroke-linejoin:round;}
  </style>
 </defs>
 <g id="figure_1">
  <g id="patch_1">
   <path d="M 0 345.6 
L 460.8 345.6 
L 460.8 0 
L 0 0 
z
" style="fill:#ffffff;"/>
  </g>
  <g id="axes_1">
   <g id="patch_2">
    <path d="M 103.75 280.874219 
L 435.7 280.874219 
L 435.7 39.232031 
L 103.75 39.232031 
z
" style="fill:#ffffff;"/>
   </g>
   <g id="matplotlib.axis_1">
    <g id="xtick_1">
     <g id="line2d_1">
      <defs>
       <path d="M 0 0 
L 0 3.5 
" id="m4b6453e802" style="stroke:#262626;stroke-width:0.8;"/>
      </defs>
      <g>
       <use style="fill:#262626;stroke:#262626;stroke-width:0.8;" x="181.790841" xlink:href="#m4b6453e802" y="280.874219"/>
      </g>
     </g>
     <g id="text_1">
      <text style="fill:#262626;font-family:Lato;font-size:15px;font-style:normal;font-weight:600;text-anchor:middle;" transform="rotate(-0, 181.790841, 299.01875)" x="181.790841" y="299.01875">0.750</text>
     </g>
    </g>
    <g id="xtick_2">
     <g id="line2d_2">
      <g>
       <use style="fill:#262626;stroke:#262626;stroke-width:0.8;" x="275.139205" xlink:href="#m4b6453e802" y="280.874219"/>
      </g>
     </g>
     <g id="text_2">
      <text style="fill:#262626;font-family:Lato;font-size:15px;font-style:normal;font-weight:600;text-anchor:middle;" transform="rotate(-0, 275.139205, 299.01875)" x="275.139205" y="299.01875">0.755</text>
     </g>
    </g>
    <g id="xtick_3">
     <g id="line2d_3">
      <g>
       <use style="fill:#262626;stroke:#262626;stroke-width:0.8;" x="368.487569" xlink:href="#m4b6453e802" y="280.874219"/>
      </g>
     </g>
     <g id="text_3">
      <text style="fill:#262626;font-family:Lato;font-size:15px;font-style:normal;font-weight:600;text-anchor:middle;" transform="rotate(-0, 368.487569, 299.01875)" x="368.487569" y="299.01875">0.760</text>
     </g>
    </g>
    <g id="text_4">
     <text style="fill:#262626;font-family:Lato;font-size:20px;font-style:normal;font-weight:600;text-anchor:middle;" transform="rotate(-0, 269.725, 320.390625)" x="269.725" y="320.390625">affinity change</text>
    </g>
   </g>
   <g id="matplotlib.axis_2">
    <g id="ytick_1">
     <g id="line2d_4">
      <defs>
       <path d="M 0 0 
L -3.5 0 
" id="m5fab9a4106" style="stroke:#262626;stroke-width:0.8;"/>
      </defs>
      <g>
       <use style="fill:#262626;stroke:#262626;stroke-width:0.8;" x="103.75" xlink:href="#m5fab9a4106" y="255.612568"/>
      </g>
     </g>
     <g id="text_5">
      <text style="fill:#262626;font-family:Lato;font-size:20px;font-style:normal;font-weight:600;text-anchor:end;" transform="rotate(-0, 96.75, 263.042255)" x="96.75" y="263.042255">1e-01</text>
     </g>
    </g>
    <g id="text_6">
     <text style="fill:#262626;font-family:Lato;font-size:20px;font-style:normal;font-weight:600;text-anchor:middle;" transform="rotate(-90, 36.459375, 160.053125)" x="36.459375" y="160.053125">AA lb ratio</text>
    </g>
   </g>
   <g id="PathCollection_1">
    <defs>
     <path d="M 0 3 
C 0.795609 3 1.55874 2.683901 2.12132 2.12132 
C 2.683901 1.55874 3 0.795609 3 0 
C 3 -0.795609 2.683901 -1.55874 2.12132 -2.12132 
C 1.55874 -2.683901 0.795609 -3 0 -3 
C -0.795609 -3 -1.55874 -2.683901 -2.12132 -2.12132 
C -2.683901 -1.55874 -3 -0.795609 -3 0 
C -3 0.795609 -2.683901 1.55874 -2.12132 2.12132 
C -1.55874 2.683901 -0.795609 3 0 3 
z
" id="m33a34af3fa" style="stroke:#1f77b4;stroke-opacity:0.4;"/>
    </defs>
    <g clip-path="url(#p549e0328a6)">
     <use style="fill:#1f77b4;fill-opacity:0.4;stroke:#1f77b4;stroke-opacity:0.4;" x="269.725" xlink:href="#m33a34af3fa" y="154.491911"/>
    </g>
   </g>
   <g id="patch_3">
    <path d="M 103.75 280.874219 
L 103.75 39.232031 
" style="fill:none;stroke:#262626;stroke-linecap:square;stroke-linejoin:miter;stroke-width:0.8;"/>
   </g>
   <g id="patch_4">
    <path d="M 103.75 280.874219 
L 435.7 280.874219 
" style="fill:none;stroke:#262626;stroke-linecap:square;stroke-linejoin:miter;stroke-width:0.8;"/>
   </g>
   <g id="text_7">
    <text style="fill:#262626;font-family:Lato;font-size:15px;font-style:normal;font-weight:bold;text-anchor:middle;" transform="rotate(-0, 269.725, 33.232031)" x="269.725" y="33.232031">AA lb ratio on inferred tree (cluster 6)</text>
   </g>
  </g>
  <g id="text_8">
   <text style="fill:#262626;font-family:Lato;font-size:20px;font-style:normal;font-weight:bold;text-anchor:start;" transform="rotate(-0, 115.2, 69.12)" x="115.2" y="69.12">r = nan</text>
  </g>
 </g>
 <defs>
  <clipPath id="p549e0328a6">
   <rect height="241.642187" width="331.95" x="103.75" y="39.232031"/>
  </clipPath>
 </defs>
</svg>
