<?xml version="1.0" encoding="utf-8" standalone="no"?>
<!DOCTYPE svg PUBLIC "-//W3C//DTD SVG 1.1//EN"
  "http://www.w3.org/Graphics/SVG/1.1/DTD/svg11.dtd">
<!-- Created with matplotlib (http://matplotlib.org/) -->
<svg height="345.6pt" version="1.1" viewBox="0 0 460.8 345.6" width="460.8pt" xmlns="http://www.w3.org/2000/svg" xmlns:xlink="http://www.w3.org/1999/xlink">
 <defs>
  <style type="text/css">
*{stroke-linecap:butt;stroke-linejoin:round;}
  </style>
 </defs>
 <g id="figure_1">
  <g id="patch_1">
   <path d="M 0 345.6 
L 460.8 345.6 
L 460.8 0 
L 0 0 
z
" style="fill:#ffffff;"/>
  </g>
  <g id="axes_1">
   <g id="patch_2">
    <path d="M 92.953125 280.292969 
L 426.15 280.292969 
L 426.15 42.459375 
L 92.953125 42.459375 
z
" style="fill:#ffffff;"/>
   </g>
   <g id="matplotlib.axis_1">
    <g id="xtick_1">
     <g id="line2d_1">
      <defs>
       <path d="M 0 0 
L 0 3.5 
" id="mbe22a7aaa8" style="stroke:#262626;stroke-width:0.8;"/>
      </defs>
      <g>
       <use style="fill:#262626;stroke:#262626;stroke-width:0.8;" x="92.953125" xlink:href="#mbe22a7aaa8" y="280.292969"/>
      </g>
     </g>
     <g id="text_1">
      <text style="fill:#262626;font-family:Lato;font-size:15px;font-style:normal;font-weight:600;text-anchor:middle;" transform="rotate(-0, 92.953125, 298.4375)" x="92.953125" y="298.4375">50</text>
     </g>
    </g>
    <g id="xtick_2">
     <g id="line2d_2">
      <g>
       <use style="fill:#262626;stroke:#262626;stroke-width:0.8;" x="159.5925" xlink:href="#mbe22a7aaa8" y="280.292969"/>
      </g>
     </g>
     <g id="text_2">
      <text style="fill:#262626;font-family:Lato;font-size:15px;font-style:normal;font-weight:600;text-anchor:middle;" transform="rotate(-0, 159.5925, 298.4375)" x="159.5925" y="298.4375">60</text>
     </g>
    </g>
    <g id="xtick_3">
     <g id="line2d_3">
      <g>
       <use style="fill:#262626;stroke:#262626;stroke-width:0.8;" x="226.231875" xlink:href="#mbe22a7aaa8" y="280.292969"/>
      </g>
     </g>
     <g id="text_3">
      <text style="fill:#262626;font-family:Lato;font-size:15px;font-style:normal;font-weight:600;text-anchor:middle;" transform="rotate(-0, 226.231875, 298.4375)" x="226.231875" y="298.4375">70</text>
     </g>
    </g>
    <g id="xtick_4">
     <g id="line2d_4">
      <g>
       <use style="fill:#262626;stroke:#262626;stroke-width:0.8;" x="292.87125" xlink:href="#mbe22a7aaa8" y="280.292969"/>
      </g>
     </g>
     <g id="text_4">
      <text style="fill:#262626;font-family:Lato;font-size:15px;font-style:normal;font-weight:600;text-anchor:middle;" transform="rotate(-0, 292.87125, 298.4375)" x="292.87125" y="298.4375">80</text>
     </g>
    </g>
    <g id="xtick_5">
     <g id="line2d_5">
      <g>
       <use style="fill:#262626;stroke:#262626;stroke-width:0.8;" x="359.510625" xlink:href="#mbe22a7aaa8" y="280.292969"/>
      </g>
     </g>
     <g id="text_5">
      <text style="fill:#262626;font-family:Lato;font-size:15px;font-style:normal;font-weight:600;text-anchor:middle;" transform="rotate(-0, 359.510625, 298.4375)" x="359.510625" y="298.4375">90</text>
     </g>
    </g>
    <g id="xtick_6">
     <g id="line2d_6">
      <g>
       <use style="fill:#262626;stroke:#262626;stroke-width:0.8;" x="426.15" xlink:href="#mbe22a7aaa8" y="280.292969"/>
      </g>
     </g>
     <g id="text_6">
      <text style="fill:#262626;font-family:Lato;font-size:15px;font-style:normal;font-weight:600;text-anchor:middle;" transform="rotate(-0, 426.15, 298.4375)" x="426.15" y="298.4375">100</text>
     </g>
    </g>
    <g id="text_7">
     <text style="fill:#262626;font-family:Lato;font-size:20px;font-style:normal;font-weight:600;text-anchor:middle;" transform="rotate(-0, 259.551562, 320.65)" x="259.551562" y="320.65">AA lb ratio threshold (percentile)</text>
    </g>
   </g>
   <g id="matplotlib.axis_2">
    <g id="ytick_1">
     <g id="line2d_7">
      <defs>
       <path d="M 0 0 
L -3.5 0 
" id="m995eb2b9cd" style="stroke:#262626;stroke-width:0.8;"/>
      </defs>
      <g>
       <use style="fill:#262626;stroke:#262626;stroke-width:0.8;" x="92.953125" xlink:href="#m995eb2b9cd" y="276.04594"/>
      </g>
     </g>
     <g id="text_8">
      <text style="fill:#262626;font-family:Lato;font-size:15px;font-style:normal;font-weight:600;text-anchor:end;" transform="rotate(-0, 85.953125, 281.618206)" x="85.953125" y="281.618206">0.0</text>
     </g>
    </g>
    <g id="ytick_2">
     <g id="line2d_8">
      <g>
       <use style="fill:#262626;stroke:#262626;stroke-width:0.8;" x="92.953125" xlink:href="#m995eb2b9cd" y="239.504949"/>
      </g>
     </g>
     <g id="text_9">
      <text style="fill:#262626;font-family:Lato;font-size:15px;font-style:normal;font-weight:600;text-anchor:end;" transform="rotate(-0, 85.953125, 245.077214)" x="85.953125" y="245.077214">0.1</text>
     </g>
    </g>
    <g id="ytick_3">
     <g id="line2d_9">
      <g>
       <use style="fill:#262626;stroke:#262626;stroke-width:0.8;" x="92.953125" xlink:href="#m995eb2b9cd" y="202.963957"/>
      </g>
     </g>
     <g id="text_10">
      <text style="fill:#262626;font-family:Lato;font-size:15px;font-style:normal;font-weight:600;text-anchor:end;" transform="rotate(-0, 85.953125, 208.536223)" x="85.953125" y="208.536223">0.2</text>
     </g>
    </g>
    <g id="ytick_4">
     <g id="line2d_10">
      <g>
       <use style="fill:#262626;stroke:#262626;stroke-width:0.8;" x="92.953125" xlink:href="#m995eb2b9cd" y="166.422965"/>
      </g>
     </g>
     <g id="text_11">
      <text style="fill:#262626;font-family:Lato;font-size:15px;font-style:normal;font-weight:600;text-anchor:end;" transform="rotate(-0, 85.953125, 171.995231)" x="85.953125" y="171.995231">0.3</text>
     </g>
    </g>
    <g id="ytick_5">
     <g id="line2d_11">
      <g>
       <use style="fill:#262626;stroke:#262626;stroke-width:0.8;" x="92.953125" xlink:href="#m995eb2b9cd" y="129.881974"/>
      </g>
     </g>
     <g id="text_12">
      <text style="fill:#262626;font-family:Lato;font-size:15px;font-style:normal;font-weight:600;text-anchor:end;" transform="rotate(-0, 85.953125, 135.454239)" x="85.953125" y="135.454239">0.4</text>
     </g>
    </g>
    <g id="ytick_6">
     <g id="line2d_12">
      <g>
       <use style="fill:#262626;stroke:#262626;stroke-width:0.8;" x="92.953125" xlink:href="#m995eb2b9cd" y="93.340982"/>
      </g>
     </g>
     <g id="text_13">
      <text style="fill:#262626;font-family:Lato;font-size:15px;font-style:normal;font-weight:600;text-anchor:end;" transform="rotate(-0, 85.953125, 98.913248)" x="85.953125" y="98.913248">0.5</text>
     </g>
    </g>
    <g id="ytick_7">
     <g id="line2d_13">
      <g>
       <use style="fill:#262626;stroke:#262626;stroke-width:0.8;" x="92.953125" xlink:href="#m995eb2b9cd" y="56.799991"/>
      </g>
     </g>
     <g id="text_14">
      <text style="fill:#262626;font-family:Lato;font-size:15px;font-style:normal;font-weight:600;text-anchor:end;" transform="rotate(-0, 85.953125, 62.372256)" x="85.953125" y="62.372256">0.6</text>
     </g>
    </g>
    <g id="text_15">
     <text style="fill:#262626;font-family:Lato;font-size:20px;font-style:normal;font-weight:600;" transform="translate(36.459375 241.233984)rotate(-90)">mean N ancestors</text>
     <text style="fill:#262626;font-family:Lato;font-size:20px;font-style:normal;font-weight:600;" transform="translate(57.640625 257.812109)rotate(-90)">since affinity increase</text>
    </g>
   </g>
   <g id="line2d_14">
    <path clip-path="url(#p507c48d04f)" d="M 92.953125 105.276482 
L 106.281 106.732969 
L 119.608875 114.307125 
L 132.93675 117.353634 
L 146.264625 126.162232 
L 159.5925 130.111791 
L 172.920375 136.89978 
L 186.24825 139.336636 
L 199.576125 144.769044 
L 212.904 147.077735 
L 226.231875 155.261909 
L 239.55975 162.981886 
L 252.887625 164.834227 
L 266.2155 163.170626 
L 279.543375 167.466994 
L 292.87125 168.031688 
L 306.199125 176.38869 
L 319.527 181.838696 
L 332.854875 194.481227 
L 346.18275 192.306168 
L 359.510625 198.396333 
L 372.8385 201.822051 
L 386.166375 215.144288 
L 399.49425 218.950641 
L 412.822125 230.369701 
" style="fill:none;stroke:#1f77b4;stroke-linecap:round;stroke-opacity:0.7;stroke-width:3;"/>
   </g>
   <g id="line2d_15">
    <path clip-path="url(#p507c48d04f)" d="M 76.959675 63.694517 
L 428.815575 63.694517 
" style="fill:none;stroke:#8b0000;stroke-dasharray:11.1,4.8;stroke-dashoffset:0;stroke-opacity:0.7;stroke-width:3;"/>
   </g>
   <g id="line2d_16">
    <path clip-path="url(#p507c48d04f)" d="M 92.953125 276.04594 
L 106.281 276.04594 
L 119.608875 276.04594 
L 132.93675 276.04594 
L 146.264625 276.04594 
L 159.5925 276.04594 
L 172.920375 276.04594 
L 186.24825 276.04594 
L 199.576125 276.04594 
L 212.904 276.04594 
L 226.231875 276.04594 
L 239.55975 276.04594 
L 252.887625 276.04594 
L 266.2155 276.04594 
L 279.543375 276.04594 
L 292.87125 276.04594 
L 306.199125 276.04594 
L 319.527 276.04594 
L 332.854875 276.04594 
L 346.18275 276.04594 
L 359.510625 276.04594 
L 372.8385 276.04594 
L 386.166375 276.04594 
L 399.49425 276.04594 
L 412.822125 276.04594 
" style="fill:none;stroke:#006400;stroke-dasharray:11.1,4.8;stroke-dashoffset:0;stroke-opacity:0.7;stroke-width:3;"/>
   </g>
   <g id="patch_3">
    <path d="M 92.953125 280.292969 
L 92.953125 42.459375 
" style="fill:none;stroke:#262626;stroke-linecap:square;stroke-linejoin:miter;stroke-width:0.8;"/>
   </g>
   <g id="patch_4">
    <path d="M 92.953125 280.292969 
L 426.15 280.292969 
" style="fill:none;stroke:#262626;stroke-linecap:square;stroke-linejoin:miter;stroke-width:0.8;"/>
   </g>
   <g id="text_16">
    <text style="fill:#262626;font-family:Lato;font-size:20px;font-style:normal;font-weight:bold;text-anchor:middle;" transform="rotate(-0, 259.551562, 36.459375)" x="259.551562" y="36.459375">affinity change </text>
   </g>
   <g id="legend_1">
    <g id="patch_5">
     <path d="M 262.351562 137.592812 
L 423.65125 137.592812 
Q 426.45125 137.592812 426.45125 134.792812 
L 426.45125 96.699687 
Q 426.45125 93.899687 423.65125 93.899687 
L 262.351562 93.899687 
Q 259.551562 93.899687 259.551562 96.699687 
L 259.551562 134.792812 
Q 259.551562 137.592812 262.351562 137.592812 
z
" style="fill:#ffffff;opacity:0.8;stroke:#cccccc;stroke-linejoin:miter;"/>
    </g>
    <g id="line2d_17">
     <path d="M 265.151563 105.00125 
L 293.151563 105.00125 
" style="fill:none;stroke:#8b0000;stroke-dasharray:11.1,4.8;stroke-dashoffset:0;stroke-opacity:0.7;stroke-width:3;"/>
    </g>
    <g id="line2d_18"/>
    <g id="text_17">
     <text style="fill:#262626;font-family:Lato;font-size:14px;font-style:normal;font-weight:600;text-anchor:start;" transform="rotate(-0, 304.351562, 109.90125)" x="304.351562" y="109.90125">no correlation</text>
    </g>
    <g id="line2d_19">
     <path d="M 265.151563 124.747812 
L 293.151563 124.747812 
" style="fill:none;stroke:#006400;stroke-dasharray:11.1,4.8;stroke-dashoffset:0;stroke-opacity:0.7;stroke-width:3;"/>
    </g>
    <g id="line2d_20"/>
    <g id="text_18">
     <text style="fill:#262626;font-family:Lato;font-size:14px;font-style:normal;font-weight:600;text-anchor:start;" transform="rotate(-0, 304.351562, 129.647812)" x="304.351562" y="129.647812">perfect correlation</text>
    </g>
   </g>
  </g>
  <g id="text_19">
   <text style="fill:#262626;font-family:Lato;font-size:12px;font-style:normal;font-weight:bold;text-anchor:start;" transform="rotate(-0, 170.496, 55.296)" x="170.496" y="55.296">choosing among 34 families</text>
  </g>
 </g>
 <defs>
  <clipPath id="p507c48d04f">
   <rect height="237.833594" width="333.196875" x="92.953125" y="42.459375"/>
  </clipPath>
 </defs>
</svg>
