<?xml version="1.0" encoding="utf-8" standalone="no"?>
<!DOCTYPE svg PUBLIC "-//W3C//DTD SVG 1.1//EN"
  "http://www.w3.org/Graphics/SVG/1.1/DTD/svg11.dtd">
<svg height="345.6pt" version="1.1" viewBox="0 0 460.8 345.6" width="460.8pt" xmlns="http://www.w3.org/2000/svg" xmlns:xlink="http://www.w3.org/1999/xlink">
 <metadata>
  <rdf:RDF xmlns:cc="http://creativecommons.org/ns#" xmlns:dc="http://purl.org/dc/elements/1.1/" xmlns:rdf="http://www.w3.org/1999/02/22-rdf-syntax-ns#">
   <cc:Work>
    <dc:type rdf:resource="http://purl.org/dc/dcmitype/StillImage"/>
    <dc:date>2021-10-13T18:24:15.158918</dc:date>
    <dc:format>image/svg+xml</dc:format>
    <dc:creator>
     <cc:Agent>
      <dc:title>Matplotlib v3.4.2, https://matplotlib.org/</dc:title>
     </cc:Agent>
    </dc:creator>
   </cc:Work>
  </rdf:RDF>
 </metadata>
 <defs>
  <style type="text/css">*{stroke-linecap:butt;stroke-linejoin:round;}</style>
 </defs>
 <g id="figure_1">
  <g id="patch_1">
   <path d="M 0 345.6 
L 460.8 345.6 
L 460.8 0 
L 0 0 
z
" style="fill:#ffffff;"/>
  </g>
  <g id="axes_1">
   <g id="patch_2">
    <path d="M 57.6 307.584 
L 414.72 307.584 
L 414.72 41.472 
L 57.6 41.472 
z
" style="fill:#ffffff;"/>
   </g>
   <g id="patch_3">
    <path clip-path="url(#p7cf1055280)" d="M 73.832727 307.584 
L 78.57221 307.584 
L 78.57221 54.144 
L 73.832727 54.144 
z
"/>
   </g>
   <g id="patch_4">
    <path clip-path="url(#p7cf1055280)" d="M 79.75708 307.584 
L 84.496563 307.584 
L 84.496563 54.144 
L 79.75708 54.144 
z
"/>
   </g>
   <g id="patch_5">
    <path clip-path="url(#p7cf1055280)" d="M 85.681433 307.584 
L 90.420916 307.584 
L 90.420916 138.624 
L 85.681433 138.624 
z
"/>
   </g>
   <g id="patch_6">
    <path clip-path="url(#p7cf1055280)" d="M 91.605786 307.584 
L 96.345269 307.584 
L 96.345269 138.624 
L 91.605786 138.624 
z
"/>
   </g>
   <g id="patch_7">
    <path clip-path="url(#p7cf1055280)" d="M 97.530139 307.584 
L 102.269622 307.584 
L 102.269622 223.104 
L 97.530139 223.104 
z
"/>
   </g>
   <g id="patch_8">
    <path clip-path="url(#p7cf1055280)" d="M 103.454492 307.584 
L 108.193975 307.584 
L 108.193975 223.104 
L 103.454492 223.104 
z
"/>
   </g>
   <g id="patch_9">
    <path clip-path="url(#p7cf1055280)" d="M 109.378845 307.584 
L 114.118328 307.584 
L 114.118328 223.104 
L 109.378845 223.104 
z
"/>
   </g>
   <g id="patch_10">
    <path clip-path="url(#p7cf1055280)" d="M 115.303198 307.584 
L 120.042681 307.584 
L 120.042681 223.104 
L 115.303198 223.104 
z
"/>
   </g>
   <g id="patch_11">
    <path clip-path="url(#p7cf1055280)" d="M 121.227551 307.584 
L 125.967034 307.584 
L 125.967034 223.104 
L 121.227551 223.104 
z
"/>
   </g>
   <g id="patch_12">
    <path clip-path="url(#p7cf1055280)" d="M 127.151904 307.584 
L 131.891387 307.584 
L 131.891387 223.104 
L 127.151904 223.104 
z
"/>
   </g>
   <g id="patch_13">
    <path clip-path="url(#p7cf1055280)" d="M 133.076257 307.584 
L 137.81574 307.584 
L 137.81574 223.104 
L 133.076257 223.104 
z
"/>
   </g>
   <g id="patch_14">
    <path clip-path="url(#p7cf1055280)" d="M 139.00061 307.584 
L 143.740093 307.584 
L 143.740093 223.104 
L 139.00061 223.104 
z
"/>
   </g>
   <g id="patch_15">
    <path clip-path="url(#p7cf1055280)" d="M 144.924964 307.584 
L 149.664446 307.584 
L 149.664446 223.104 
L 144.924964 223.104 
z
"/>
   </g>
   <g id="patch_16">
    <path clip-path="url(#p7cf1055280)" d="M 150.849317 307.584 
L 155.588799 307.584 
L 155.588799 223.104 
L 150.849317 223.104 
z
"/>
   </g>
   <g id="patch_17">
    <path clip-path="url(#p7cf1055280)" d="M 156.77367 307.584 
L 161.513152 307.584 
L 161.513152 223.104 
L 156.77367 223.104 
z
"/>
   </g>
   <g id="patch_18">
    <path clip-path="url(#p7cf1055280)" d="M 162.698023 307.584 
L 167.437505 307.584 
L 167.437505 223.104 
L 162.698023 223.104 
z
"/>
   </g>
   <g id="patch_19">
    <path clip-path="url(#p7cf1055280)" d="M 168.622376 307.584 
L 173.361858 307.584 
L 173.361858 223.104 
L 168.622376 223.104 
z
"/>
   </g>
   <g id="patch_20">
    <path clip-path="url(#p7cf1055280)" d="M 174.546729 307.584 
L 179.286211 307.584 
L 179.286211 223.104 
L 174.546729 223.104 
z
"/>
   </g>
   <g id="patch_21">
    <path clip-path="url(#p7cf1055280)" d="M 180.471082 307.584 
L 185.210564 307.584 
L 185.210564 223.104 
L 180.471082 223.104 
z
"/>
   </g>
   <g id="patch_22">
    <path clip-path="url(#p7cf1055280)" d="M 186.395435 307.584 
L 191.134917 307.584 
L 191.134917 223.104 
L 186.395435 223.104 
z
"/>
   </g>
   <g id="patch_23">
    <path clip-path="url(#p7cf1055280)" d="M 192.319788 307.584 
L 197.05927 307.584 
L 197.05927 223.104 
L 192.319788 223.104 
z
"/>
   </g>
   <g id="patch_24">
    <path clip-path="url(#p7cf1055280)" d="M 198.244141 307.584 
L 202.983623 307.584 
L 202.983623 223.104 
L 198.244141 223.104 
z
"/>
   </g>
   <g id="patch_25">
    <path clip-path="url(#p7cf1055280)" d="M 204.168494 307.584 
L 208.907976 307.584 
L 208.907976 223.104 
L 204.168494 223.104 
z
"/>
   </g>
   <g id="patch_26">
    <path clip-path="url(#p7cf1055280)" d="M 210.092847 307.584 
L 214.832329 307.584 
L 214.832329 223.104 
L 210.092847 223.104 
z
"/>
   </g>
   <g id="patch_27">
    <path clip-path="url(#p7cf1055280)" d="M 216.0172 307.584 
L 220.756682 307.584 
L 220.756682 223.104 
L 216.0172 223.104 
z
"/>
   </g>
   <g id="patch_28">
    <path clip-path="url(#p7cf1055280)" d="M 221.941553 307.584 
L 226.681035 307.584 
L 226.681035 223.104 
L 221.941553 223.104 
z
"/>
   </g>
   <g id="patch_29">
    <path clip-path="url(#p7cf1055280)" d="M 227.865906 307.584 
L 232.605388 307.584 
L 232.605388 223.104 
L 227.865906 223.104 
z
"/>
   </g>
   <g id="patch_30">
    <path clip-path="url(#p7cf1055280)" d="M 233.790259 307.584 
L 238.529741 307.584 
L 238.529741 223.104 
L 233.790259 223.104 
z
"/>
   </g>
   <g id="patch_31">
    <path clip-path="url(#p7cf1055280)" d="M 239.714612 307.584 
L 244.454094 307.584 
L 244.454094 223.104 
L 239.714612 223.104 
z
"/>
   </g>
   <g id="patch_32">
    <path clip-path="url(#p7cf1055280)" d="M 245.638965 307.584 
L 250.378447 307.584 
L 250.378447 223.104 
L 245.638965 223.104 
z
"/>
   </g>
   <g id="patch_33">
    <path clip-path="url(#p7cf1055280)" d="M 251.563318 307.584 
L 256.3028 307.584 
L 256.3028 223.104 
L 251.563318 223.104 
z
"/>
   </g>
   <g id="patch_34">
    <path clip-path="url(#p7cf1055280)" d="M 257.487671 307.584 
L 262.227153 307.584 
L 262.227153 223.104 
L 257.487671 223.104 
z
"/>
   </g>
   <g id="patch_35">
    <path clip-path="url(#p7cf1055280)" d="M 263.412024 307.584 
L 268.151506 307.584 
L 268.151506 223.104 
L 263.412024 223.104 
z
"/>
   </g>
   <g id="patch_36">
    <path clip-path="url(#p7cf1055280)" d="M 269.336377 307.584 
L 274.075859 307.584 
L 274.075859 223.104 
L 269.336377 223.104 
z
"/>
   </g>
   <g id="patch_37">
    <path clip-path="url(#p7cf1055280)" d="M 275.26073 307.584 
L 280.000212 307.584 
L 280.000212 223.104 
L 275.26073 223.104 
z
"/>
   </g>
   <g id="patch_38">
    <path clip-path="url(#p7cf1055280)" d="M 281.185083 307.584 
L 285.924565 307.584 
L 285.924565 223.104 
L 281.185083 223.104 
z
"/>
   </g>
   <g id="patch_39">
    <path clip-path="url(#p7cf1055280)" d="M 287.109436 307.584 
L 291.848918 307.584 
L 291.848918 223.104 
L 287.109436 223.104 
z
"/>
   </g>
   <g id="patch_40">
    <path clip-path="url(#p7cf1055280)" d="M 293.033789 307.584 
L 297.773271 307.584 
L 297.773271 223.104 
L 293.033789 223.104 
z
"/>
   </g>
   <g id="patch_41">
    <path clip-path="url(#p7cf1055280)" d="M 298.958142 307.584 
L 303.697624 307.584 
L 303.697624 223.104 
L 298.958142 223.104 
z
"/>
   </g>
   <g id="patch_42">
    <path clip-path="url(#p7cf1055280)" d="M 304.882495 307.584 
L 309.621977 307.584 
L 309.621977 223.104 
L 304.882495 223.104 
z
"/>
   </g>
   <g id="patch_43">
    <path clip-path="url(#p7cf1055280)" d="M 310.806848 307.584 
L 315.54633 307.584 
L 315.54633 223.104 
L 310.806848 223.104 
z
"/>
   </g>
   <g id="patch_44">
    <path clip-path="url(#p7cf1055280)" d="M 316.731201 307.584 
L 321.470683 307.584 
L 321.470683 223.104 
L 316.731201 223.104 
z
"/>
   </g>
   <g id="patch_45">
    <path clip-path="url(#p7cf1055280)" d="M 322.655554 307.584 
L 327.395036 307.584 
L 327.395036 223.104 
L 322.655554 223.104 
z
"/>
   </g>
   <g id="patch_46">
    <path clip-path="url(#p7cf1055280)" d="M 328.579907 307.584 
L 333.31939 307.584 
L 333.31939 223.104 
L 328.579907 223.104 
z
"/>
   </g>
   <g id="patch_47">
    <path clip-path="url(#p7cf1055280)" d="M 334.50426 307.584 
L 339.243743 307.584 
L 339.243743 223.104 
L 334.50426 223.104 
z
"/>
   </g>
   <g id="patch_48">
    <path clip-path="url(#p7cf1055280)" d="M 340.428613 307.584 
L 345.168096 307.584 
L 345.168096 223.104 
L 340.428613 223.104 
z
"/>
   </g>
   <g id="patch_49">
    <path clip-path="url(#p7cf1055280)" d="M 346.352966 307.584 
L 351.092449 307.584 
L 351.092449 223.104 
L 346.352966 223.104 
z
"/>
   </g>
   <g id="patch_50">
    <path clip-path="url(#p7cf1055280)" d="M 352.277319 307.584 
L 357.016802 307.584 
L 357.016802 223.104 
L 352.277319 223.104 
z
"/>
   </g>
   <g id="patch_51">
    <path clip-path="url(#p7cf1055280)" d="M 358.201672 307.584 
L 362.941155 307.584 
L 362.941155 223.104 
L 358.201672 223.104 
z
"/>
   </g>
   <g id="patch_52">
    <path clip-path="url(#p7cf1055280)" d="M 364.126025 307.584 
L 368.865508 307.584 
L 368.865508 223.104 
L 364.126025 223.104 
z
"/>
   </g>
   <g id="patch_53">
    <path clip-path="url(#p7cf1055280)" d="M 370.050378 307.584 
L 374.789861 307.584 
L 374.789861 223.104 
L 370.050378 223.104 
z
"/>
   </g>
   <g id="patch_54">
    <path clip-path="url(#p7cf1055280)" d="M 375.974731 307.584 
L 380.714214 307.584 
L 380.714214 223.104 
L 375.974731 223.104 
z
"/>
   </g>
   <g id="patch_55">
    <path clip-path="url(#p7cf1055280)" d="M 381.899084 307.584 
L 386.638567 307.584 
L 386.638567 223.104 
L 381.899084 223.104 
z
"/>
   </g>
   <g id="patch_56">
    <path clip-path="url(#p7cf1055280)" d="M 387.823437 307.584 
L 392.56292 307.584 
L 392.56292 223.104 
L 387.823437 223.104 
z
"/>
   </g>
   <g id="patch_57">
    <path clip-path="url(#p7cf1055280)" d="M 393.74779 307.584 
L 398.487273 307.584 
L 398.487273 223.104 
L 393.74779 223.104 
z
"/>
   </g>
   <g id="matplotlib.axis_1">
    <g id="xtick_1">
     <g id="line2d_1">
      <defs>
       <path d="M 0 0 
L 0 3.5 
" id="m059bc62f6e" style="stroke:#000000;stroke-width:0.8;"/>
      </defs>
      <g>
       <use style="stroke:#000000;stroke-width:0.8;" x="70.278115" xlink:href="#m059bc62f6e" y="307.584"/>
      </g>
     </g>
     <g id="text_1">
      <!-- 0 -->
      <g transform="translate(67.096865 322.182437)scale(0.1 -0.1)">
       <defs>
        <path d="M 2034 4250 
Q 1547 4250 1301 3770 
Q 1056 3291 1056 2328 
Q 1056 1369 1301 889 
Q 1547 409 2034 409 
Q 2525 409 2770 889 
Q 3016 1369 3016 2328 
Q 3016 3291 2770 3770 
Q 2525 4250 2034 4250 
z
M 2034 4750 
Q 2819 4750 3233 4129 
Q 3647 3509 3647 2328 
Q 3647 1150 3233 529 
Q 2819 -91 2034 -91 
Q 1250 -91 836 529 
Q 422 1150 422 2328 
Q 422 3509 836 4129 
Q 1250 4750 2034 4750 
z
" id="DejaVuSans-30" transform="scale(0.015625)"/>
       </defs>
       <use xlink:href="#DejaVuSans-30"/>
      </g>
     </g>
    </g>
    <g id="xtick_2">
     <g id="line2d_2">
      <g>
       <use style="stroke:#000000;stroke-width:0.8;" x="129.521646" xlink:href="#m059bc62f6e" y="307.584"/>
      </g>
     </g>
     <g id="text_2">
      <!-- 10 -->
      <g transform="translate(123.159146 322.182437)scale(0.1 -0.1)">
       <defs>
        <path d="M 794 531 
L 1825 531 
L 1825 4091 
L 703 3866 
L 703 4441 
L 1819 4666 
L 2450 4666 
L 2450 531 
L 3481 531 
L 3481 0 
L 794 0 
L 794 531 
z
" id="DejaVuSans-31" transform="scale(0.015625)"/>
       </defs>
       <use xlink:href="#DejaVuSans-31"/>
       <use x="63.623047" xlink:href="#DejaVuSans-30"/>
      </g>
     </g>
    </g>
    <g id="xtick_3">
     <g id="line2d_3">
      <g>
       <use style="stroke:#000000;stroke-width:0.8;" x="188.765176" xlink:href="#m059bc62f6e" y="307.584"/>
      </g>
     </g>
     <g id="text_3">
      <!-- 20 -->
      <g transform="translate(182.402676 322.182437)scale(0.1 -0.1)">
       <defs>
        <path d="M 1228 531 
L 3431 531 
L 3431 0 
L 469 0 
L 469 531 
Q 828 903 1448 1529 
Q 2069 2156 2228 2338 
Q 2531 2678 2651 2914 
Q 2772 3150 2772 3378 
Q 2772 3750 2511 3984 
Q 2250 4219 1831 4219 
Q 1534 4219 1204 4116 
Q 875 4013 500 3803 
L 500 4441 
Q 881 4594 1212 4672 
Q 1544 4750 1819 4750 
Q 2544 4750 2975 4387 
Q 3406 4025 3406 3419 
Q 3406 3131 3298 2873 
Q 3191 2616 2906 2266 
Q 2828 2175 2409 1742 
Q 1991 1309 1228 531 
z
" id="DejaVuSans-32" transform="scale(0.015625)"/>
       </defs>
       <use xlink:href="#DejaVuSans-32"/>
       <use x="63.623047" xlink:href="#DejaVuSans-30"/>
      </g>
     </g>
    </g>
    <g id="xtick_4">
     <g id="line2d_4">
      <g>
       <use style="stroke:#000000;stroke-width:0.8;" x="248.008706" xlink:href="#m059bc62f6e" y="307.584"/>
      </g>
     </g>
     <g id="text_4">
      <!-- 30 -->
      <g transform="translate(241.646206 322.182437)scale(0.1 -0.1)">
       <defs>
        <path d="M 2597 2516 
Q 3050 2419 3304 2112 
Q 3559 1806 3559 1356 
Q 3559 666 3084 287 
Q 2609 -91 1734 -91 
Q 1441 -91 1130 -33 
Q 819 25 488 141 
L 488 750 
Q 750 597 1062 519 
Q 1375 441 1716 441 
Q 2309 441 2620 675 
Q 2931 909 2931 1356 
Q 2931 1769 2642 2001 
Q 2353 2234 1838 2234 
L 1294 2234 
L 1294 2753 
L 1863 2753 
Q 2328 2753 2575 2939 
Q 2822 3125 2822 3475 
Q 2822 3834 2567 4026 
Q 2313 4219 1838 4219 
Q 1578 4219 1281 4162 
Q 984 4106 628 3988 
L 628 4550 
Q 988 4650 1302 4700 
Q 1616 4750 1894 4750 
Q 2613 4750 3031 4423 
Q 3450 4097 3450 3541 
Q 3450 3153 3228 2886 
Q 3006 2619 2597 2516 
z
" id="DejaVuSans-33" transform="scale(0.015625)"/>
       </defs>
       <use xlink:href="#DejaVuSans-33"/>
       <use x="63.623047" xlink:href="#DejaVuSans-30"/>
      </g>
     </g>
    </g>
    <g id="xtick_5">
     <g id="line2d_5">
      <g>
       <use style="stroke:#000000;stroke-width:0.8;" x="307.252236" xlink:href="#m059bc62f6e" y="307.584"/>
      </g>
     </g>
     <g id="text_5">
      <!-- 40 -->
      <g transform="translate(300.889736 322.182437)scale(0.1 -0.1)">
       <defs>
        <path d="M 2419 4116 
L 825 1625 
L 2419 1625 
L 2419 4116 
z
M 2253 4666 
L 3047 4666 
L 3047 1625 
L 3713 1625 
L 3713 1100 
L 3047 1100 
L 3047 0 
L 2419 0 
L 2419 1100 
L 313 1100 
L 313 1709 
L 2253 4666 
z
" id="DejaVuSans-34" transform="scale(0.015625)"/>
       </defs>
       <use xlink:href="#DejaVuSans-34"/>
       <use x="63.623047" xlink:href="#DejaVuSans-30"/>
      </g>
     </g>
    </g>
    <g id="xtick_6">
     <g id="line2d_6">
      <g>
       <use style="stroke:#000000;stroke-width:0.8;" x="366.495766" xlink:href="#m059bc62f6e" y="307.584"/>
      </g>
     </g>
     <g id="text_6">
      <!-- 50 -->
      <g transform="translate(360.133266 322.182437)scale(0.1 -0.1)">
       <defs>
        <path d="M 691 4666 
L 3169 4666 
L 3169 4134 
L 1269 4134 
L 1269 2991 
Q 1406 3038 1543 3061 
Q 1681 3084 1819 3084 
Q 2600 3084 3056 2656 
Q 3513 2228 3513 1497 
Q 3513 744 3044 326 
Q 2575 -91 1722 -91 
Q 1428 -91 1123 -41 
Q 819 9 494 109 
L 494 744 
Q 775 591 1075 516 
Q 1375 441 1709 441 
Q 2250 441 2565 725 
Q 2881 1009 2881 1497 
Q 2881 1984 2565 2268 
Q 2250 2553 1709 2553 
Q 1456 2553 1204 2497 
Q 953 2441 691 2322 
L 691 4666 
z
" id="DejaVuSans-35" transform="scale(0.015625)"/>
       </defs>
       <use xlink:href="#DejaVuSans-35"/>
       <use x="63.623047" xlink:href="#DejaVuSans-30"/>
      </g>
     </g>
    </g>
    <g id="text_7">
     <!-- genotype -->
     <g transform="translate(212.510781 335.860562)scale(0.1 -0.1)">
      <defs>
       <path d="M 2906 1791 
Q 2906 2416 2648 2759 
Q 2391 3103 1925 3103 
Q 1463 3103 1205 2759 
Q 947 2416 947 1791 
Q 947 1169 1205 825 
Q 1463 481 1925 481 
Q 2391 481 2648 825 
Q 2906 1169 2906 1791 
z
M 3481 434 
Q 3481 -459 3084 -895 
Q 2688 -1331 1869 -1331 
Q 1566 -1331 1297 -1286 
Q 1028 -1241 775 -1147 
L 775 -588 
Q 1028 -725 1275 -790 
Q 1522 -856 1778 -856 
Q 2344 -856 2625 -561 
Q 2906 -266 2906 331 
L 2906 616 
Q 2728 306 2450 153 
Q 2172 0 1784 0 
Q 1141 0 747 490 
Q 353 981 353 1791 
Q 353 2603 747 3093 
Q 1141 3584 1784 3584 
Q 2172 3584 2450 3431 
Q 2728 3278 2906 2969 
L 2906 3500 
L 3481 3500 
L 3481 434 
z
" id="DejaVuSans-67" transform="scale(0.015625)"/>
       <path d="M 3597 1894 
L 3597 1613 
L 953 1613 
Q 991 1019 1311 708 
Q 1631 397 2203 397 
Q 2534 397 2845 478 
Q 3156 559 3463 722 
L 3463 178 
Q 3153 47 2828 -22 
Q 2503 -91 2169 -91 
Q 1331 -91 842 396 
Q 353 884 353 1716 
Q 353 2575 817 3079 
Q 1281 3584 2069 3584 
Q 2775 3584 3186 3129 
Q 3597 2675 3597 1894 
z
M 3022 2063 
Q 3016 2534 2758 2815 
Q 2500 3097 2075 3097 
Q 1594 3097 1305 2825 
Q 1016 2553 972 2059 
L 3022 2063 
z
" id="DejaVuSans-65" transform="scale(0.015625)"/>
       <path d="M 3513 2113 
L 3513 0 
L 2938 0 
L 2938 2094 
Q 2938 2591 2744 2837 
Q 2550 3084 2163 3084 
Q 1697 3084 1428 2787 
Q 1159 2491 1159 1978 
L 1159 0 
L 581 0 
L 581 3500 
L 1159 3500 
L 1159 2956 
Q 1366 3272 1645 3428 
Q 1925 3584 2291 3584 
Q 2894 3584 3203 3211 
Q 3513 2838 3513 2113 
z
" id="DejaVuSans-6e" transform="scale(0.015625)"/>
       <path d="M 1959 3097 
Q 1497 3097 1228 2736 
Q 959 2375 959 1747 
Q 959 1119 1226 758 
Q 1494 397 1959 397 
Q 2419 397 2687 759 
Q 2956 1122 2956 1747 
Q 2956 2369 2687 2733 
Q 2419 3097 1959 3097 
z
M 1959 3584 
Q 2709 3584 3137 3096 
Q 3566 2609 3566 1747 
Q 3566 888 3137 398 
Q 2709 -91 1959 -91 
Q 1206 -91 779 398 
Q 353 888 353 1747 
Q 353 2609 779 3096 
Q 1206 3584 1959 3584 
z
" id="DejaVuSans-6f" transform="scale(0.015625)"/>
       <path d="M 1172 4494 
L 1172 3500 
L 2356 3500 
L 2356 3053 
L 1172 3053 
L 1172 1153 
Q 1172 725 1289 603 
Q 1406 481 1766 481 
L 2356 481 
L 2356 0 
L 1766 0 
Q 1100 0 847 248 
Q 594 497 594 1153 
L 594 3053 
L 172 3053 
L 172 3500 
L 594 3500 
L 594 4494 
L 1172 4494 
z
" id="DejaVuSans-74" transform="scale(0.015625)"/>
       <path d="M 2059 -325 
Q 1816 -950 1584 -1140 
Q 1353 -1331 966 -1331 
L 506 -1331 
L 506 -850 
L 844 -850 
Q 1081 -850 1212 -737 
Q 1344 -625 1503 -206 
L 1606 56 
L 191 3500 
L 800 3500 
L 1894 763 
L 2988 3500 
L 3597 3500 
L 2059 -325 
z
" id="DejaVuSans-79" transform="scale(0.015625)"/>
       <path d="M 1159 525 
L 1159 -1331 
L 581 -1331 
L 581 3500 
L 1159 3500 
L 1159 2969 
Q 1341 3281 1617 3432 
Q 1894 3584 2278 3584 
Q 2916 3584 3314 3078 
Q 3713 2572 3713 1747 
Q 3713 922 3314 415 
Q 2916 -91 2278 -91 
Q 1894 -91 1617 61 
Q 1341 213 1159 525 
z
M 3116 1747 
Q 3116 2381 2855 2742 
Q 2594 3103 2138 3103 
Q 1681 3103 1420 2742 
Q 1159 2381 1159 1747 
Q 1159 1113 1420 752 
Q 1681 391 2138 391 
Q 2594 391 2855 752 
Q 3116 1113 3116 1747 
z
" id="DejaVuSans-70" transform="scale(0.015625)"/>
      </defs>
      <use xlink:href="#DejaVuSans-67"/>
      <use x="63.476562" xlink:href="#DejaVuSans-65"/>
      <use x="125" xlink:href="#DejaVuSans-6e"/>
      <use x="188.378906" xlink:href="#DejaVuSans-6f"/>
      <use x="249.560547" xlink:href="#DejaVuSans-74"/>
      <use x="288.769531" xlink:href="#DejaVuSans-79"/>
      <use x="347.949219" xlink:href="#DejaVuSans-70"/>
      <use x="411.425781" xlink:href="#DejaVuSans-65"/>
     </g>
    </g>
   </g>
   <g id="matplotlib.axis_2">
    <g id="ytick_1">
     <g id="line2d_7">
      <defs>
       <path d="M 0 0 
L -3.5 0 
" id="m94f88b08db" style="stroke:#000000;stroke-width:0.8;"/>
      </defs>
      <g>
       <use style="stroke:#000000;stroke-width:0.8;" x="57.6" xlink:href="#m94f88b08db" y="307.584"/>
      </g>
     </g>
     <g id="text_8">
      <!-- 0.0 -->
      <g transform="translate(34.696875 311.383219)scale(0.1 -0.1)">
       <defs>
        <path d="M 684 794 
L 1344 794 
L 1344 0 
L 684 0 
L 684 794 
z
" id="DejaVuSans-2e" transform="scale(0.015625)"/>
       </defs>
       <use xlink:href="#DejaVuSans-30"/>
       <use x="63.623047" xlink:href="#DejaVuSans-2e"/>
       <use x="95.410156" xlink:href="#DejaVuSans-30"/>
      </g>
     </g>
    </g>
    <g id="ytick_2">
     <g id="line2d_8">
      <g>
       <use style="stroke:#000000;stroke-width:0.8;" x="57.6" xlink:href="#m94f88b08db" y="265.344"/>
      </g>
     </g>
     <g id="text_9">
      <!-- 0.5 -->
      <g transform="translate(34.696875 269.143219)scale(0.1 -0.1)">
       <use xlink:href="#DejaVuSans-30"/>
       <use x="63.623047" xlink:href="#DejaVuSans-2e"/>
       <use x="95.410156" xlink:href="#DejaVuSans-35"/>
      </g>
     </g>
    </g>
    <g id="ytick_3">
     <g id="line2d_9">
      <g>
       <use style="stroke:#000000;stroke-width:0.8;" x="57.6" xlink:href="#m94f88b08db" y="223.104"/>
      </g>
     </g>
     <g id="text_10">
      <!-- 1.0 -->
      <g transform="translate(34.696875 226.903219)scale(0.1 -0.1)">
       <use xlink:href="#DejaVuSans-31"/>
       <use x="63.623047" xlink:href="#DejaVuSans-2e"/>
       <use x="95.410156" xlink:href="#DejaVuSans-30"/>
      </g>
     </g>
    </g>
    <g id="ytick_4">
     <g id="line2d_10">
      <g>
       <use style="stroke:#000000;stroke-width:0.8;" x="57.6" xlink:href="#m94f88b08db" y="180.864"/>
      </g>
     </g>
     <g id="text_11">
      <!-- 1.5 -->
      <g transform="translate(34.696875 184.663219)scale(0.1 -0.1)">
       <use xlink:href="#DejaVuSans-31"/>
       <use x="63.623047" xlink:href="#DejaVuSans-2e"/>
       <use x="95.410156" xlink:href="#DejaVuSans-35"/>
      </g>
     </g>
    </g>
    <g id="ytick_5">
     <g id="line2d_11">
      <g>
       <use style="stroke:#000000;stroke-width:0.8;" x="57.6" xlink:href="#m94f88b08db" y="138.624"/>
      </g>
     </g>
     <g id="text_12">
      <!-- 2.0 -->
      <g transform="translate(34.696875 142.423219)scale(0.1 -0.1)">
       <use xlink:href="#DejaVuSans-32"/>
       <use x="63.623047" xlink:href="#DejaVuSans-2e"/>
       <use x="95.410156" xlink:href="#DejaVuSans-30"/>
      </g>
     </g>
    </g>
    <g id="ytick_6">
     <g id="line2d_12">
      <g>
       <use style="stroke:#000000;stroke-width:0.8;" x="57.6" xlink:href="#m94f88b08db" y="96.384"/>
      </g>
     </g>
     <g id="text_13">
      <!-- 2.5 -->
      <g transform="translate(34.696875 100.183219)scale(0.1 -0.1)">
       <use xlink:href="#DejaVuSans-32"/>
       <use x="63.623047" xlink:href="#DejaVuSans-2e"/>
       <use x="95.410156" xlink:href="#DejaVuSans-35"/>
      </g>
     </g>
    </g>
    <g id="ytick_7">
     <g id="line2d_13">
      <g>
       <use style="stroke:#000000;stroke-width:0.8;" x="57.6" xlink:href="#m94f88b08db" y="54.144"/>
      </g>
     </g>
     <g id="text_14">
      <!-- 3.0 -->
      <g transform="translate(34.696875 57.943219)scale(0.1 -0.1)">
       <use xlink:href="#DejaVuSans-33"/>
       <use x="63.623047" xlink:href="#DejaVuSans-2e"/>
       <use x="95.410156" xlink:href="#DejaVuSans-30"/>
      </g>
     </g>
    </g>
    <g id="text_15">
     <!-- abundance -->
     <g transform="translate(28.617187 202.336594)rotate(-90)scale(0.1 -0.1)">
      <defs>
       <path d="M 2194 1759 
Q 1497 1759 1228 1600 
Q 959 1441 959 1056 
Q 959 750 1161 570 
Q 1363 391 1709 391 
Q 2188 391 2477 730 
Q 2766 1069 2766 1631 
L 2766 1759 
L 2194 1759 
z
M 3341 1997 
L 3341 0 
L 2766 0 
L 2766 531 
Q 2569 213 2275 61 
Q 1981 -91 1556 -91 
Q 1019 -91 701 211 
Q 384 513 384 1019 
Q 384 1609 779 1909 
Q 1175 2209 1959 2209 
L 2766 2209 
L 2766 2266 
Q 2766 2663 2505 2880 
Q 2244 3097 1772 3097 
Q 1472 3097 1187 3025 
Q 903 2953 641 2809 
L 641 3341 
Q 956 3463 1253 3523 
Q 1550 3584 1831 3584 
Q 2591 3584 2966 3190 
Q 3341 2797 3341 1997 
z
" id="DejaVuSans-61" transform="scale(0.015625)"/>
       <path d="M 3116 1747 
Q 3116 2381 2855 2742 
Q 2594 3103 2138 3103 
Q 1681 3103 1420 2742 
Q 1159 2381 1159 1747 
Q 1159 1113 1420 752 
Q 1681 391 2138 391 
Q 2594 391 2855 752 
Q 3116 1113 3116 1747 
z
M 1159 2969 
Q 1341 3281 1617 3432 
Q 1894 3584 2278 3584 
Q 2916 3584 3314 3078 
Q 3713 2572 3713 1747 
Q 3713 922 3314 415 
Q 2916 -91 2278 -91 
Q 1894 -91 1617 61 
Q 1341 213 1159 525 
L 1159 0 
L 581 0 
L 581 4863 
L 1159 4863 
L 1159 2969 
z
" id="DejaVuSans-62" transform="scale(0.015625)"/>
       <path d="M 544 1381 
L 544 3500 
L 1119 3500 
L 1119 1403 
Q 1119 906 1312 657 
Q 1506 409 1894 409 
Q 2359 409 2629 706 
Q 2900 1003 2900 1516 
L 2900 3500 
L 3475 3500 
L 3475 0 
L 2900 0 
L 2900 538 
Q 2691 219 2414 64 
Q 2138 -91 1772 -91 
Q 1169 -91 856 284 
Q 544 659 544 1381 
z
M 1991 3584 
L 1991 3584 
z
" id="DejaVuSans-75" transform="scale(0.015625)"/>
       <path d="M 2906 2969 
L 2906 4863 
L 3481 4863 
L 3481 0 
L 2906 0 
L 2906 525 
Q 2725 213 2448 61 
Q 2172 -91 1784 -91 
Q 1150 -91 751 415 
Q 353 922 353 1747 
Q 353 2572 751 3078 
Q 1150 3584 1784 3584 
Q 2172 3584 2448 3432 
Q 2725 3281 2906 2969 
z
M 947 1747 
Q 947 1113 1208 752 
Q 1469 391 1925 391 
Q 2381 391 2643 752 
Q 2906 1113 2906 1747 
Q 2906 2381 2643 2742 
Q 2381 3103 1925 3103 
Q 1469 3103 1208 2742 
Q 947 2381 947 1747 
z
" id="DejaVuSans-64" transform="scale(0.015625)"/>
       <path d="M 3122 3366 
L 3122 2828 
Q 2878 2963 2633 3030 
Q 2388 3097 2138 3097 
Q 1578 3097 1268 2742 
Q 959 2388 959 1747 
Q 959 1106 1268 751 
Q 1578 397 2138 397 
Q 2388 397 2633 464 
Q 2878 531 3122 666 
L 3122 134 
Q 2881 22 2623 -34 
Q 2366 -91 2075 -91 
Q 1284 -91 818 406 
Q 353 903 353 1747 
Q 353 2603 823 3093 
Q 1294 3584 2113 3584 
Q 2378 3584 2631 3529 
Q 2884 3475 3122 3366 
z
" id="DejaVuSans-63" transform="scale(0.015625)"/>
      </defs>
      <use xlink:href="#DejaVuSans-61"/>
      <use x="61.279297" xlink:href="#DejaVuSans-62"/>
      <use x="124.755859" xlink:href="#DejaVuSans-75"/>
      <use x="188.134766" xlink:href="#DejaVuSans-6e"/>
      <use x="251.513672" xlink:href="#DejaVuSans-64"/>
      <use x="314.990234" xlink:href="#DejaVuSans-61"/>
      <use x="376.269531" xlink:href="#DejaVuSans-6e"/>
      <use x="439.648438" xlink:href="#DejaVuSans-63"/>
      <use x="494.628906" xlink:href="#DejaVuSans-65"/>
     </g>
    </g>
   </g>
   <g id="patch_58">
    <path d="M 57.6 307.584 
L 57.6 41.472 
" style="fill:none;stroke:#000000;stroke-linecap:square;stroke-linejoin:miter;stroke-width:0.8;"/>
   </g>
   <g id="patch_59">
    <path d="M 414.72 307.584 
L 414.72 41.472 
" style="fill:none;stroke:#000000;stroke-linecap:square;stroke-linejoin:miter;stroke-width:0.8;"/>
   </g>
   <g id="patch_60">
    <path d="M 57.6 307.584 
L 414.72 307.584 
" style="fill:none;stroke:#000000;stroke-linecap:square;stroke-linejoin:miter;stroke-width:0.8;"/>
   </g>
   <g id="patch_61">
    <path d="M 57.6 41.472 
L 414.72 41.472 
" style="fill:none;stroke:#000000;stroke-linecap:square;stroke-linejoin:miter;stroke-width:0.8;"/>
   </g>
  </g>
 </g>
 <defs>
  <clipPath id="p7cf1055280">
   <rect height="266.112" width="357.12" x="57.6" y="41.472"/>
  </clipPath>
 </defs>
</svg>
