<?xml version="1.0" encoding="utf-8" standalone="no"?>
<!DOCTYPE svg PUBLIC "-//W3C//DTD SVG 1.1//EN"
  "http://www.w3.org/Graphics/SVG/1.1/DTD/svg11.dtd">
<svg height="345.6pt" version="1.1" viewBox="0 0 460.8 345.6" width="460.8pt" xmlns="http://www.w3.org/2000/svg" xmlns:xlink="http://www.w3.org/1999/xlink">
 <metadata>
  <rdf:RDF xmlns:cc="http://creativecommons.org/ns#" xmlns:dc="http://purl.org/dc/elements/1.1/" xmlns:rdf="http://www.w3.org/1999/02/22-rdf-syntax-ns#">
   <cc:Work>
    <dc:type rdf:resource="http://purl.org/dc/dcmitype/StillImage"/>
    <dc:date>2021-10-29T11:15:47.899951</dc:date>
    <dc:format>image/svg+xml</dc:format>
    <dc:creator>
     <cc:Agent>
      <dc:title>Matplotlib v3.4.2, https://matplotlib.org/</dc:title>
     </cc:Agent>
    </dc:creator>
   </cc:Work>
  </rdf:RDF>
 </metadata>
 <defs>
  <style type="text/css">*{stroke-linecap:butt;stroke-linejoin:round;}</style>
 </defs>
 <g id="figure_1">
  <g id="patch_1">
   <path d="M 0 345.6 
L 460.8 345.6 
L 460.8 0 
L 0 0 
z
" style="fill:#ffffff;"/>
  </g>
  <g id="axes_1">
   <g id="patch_2">
    <path d="M 57.6 307.584 
L 414.72 307.584 
L 414.72 41.472 
L 57.6 41.472 
z
" style="fill:#ffffff;"/>
   </g>
   <g id="patch_3">
    <path clip-path="url(#pa733b6ff71)" d="M 73.832727 307.584 
L 78.035375 307.584 
L 78.035375 54.144 
L 73.832727 54.144 
z
"/>
   </g>
   <g id="patch_4">
    <path clip-path="url(#pa733b6ff71)" d="M 79.086037 307.584 
L 83.288685 307.584 
L 83.288685 180.864 
L 79.086037 180.864 
z
"/>
   </g>
   <g id="patch_5">
    <path clip-path="url(#pa733b6ff71)" d="M 84.339347 307.584 
L 88.541995 307.584 
L 88.541995 256.896 
L 84.339347 256.896 
z
"/>
   </g>
   <g id="patch_6">
    <path clip-path="url(#pa733b6ff71)" d="M 89.592657 307.584 
L 93.795305 307.584 
L 93.795305 256.896 
L 89.592657 256.896 
z
"/>
   </g>
   <g id="patch_7">
    <path clip-path="url(#pa733b6ff71)" d="M 94.845966 307.584 
L 99.048614 307.584 
L 99.048614 256.896 
L 94.845966 256.896 
z
"/>
   </g>
   <g id="patch_8">
    <path clip-path="url(#pa733b6ff71)" d="M 100.099276 307.584 
L 104.301924 307.584 
L 104.301924 256.896 
L 100.099276 256.896 
z
"/>
   </g>
   <g id="patch_9">
    <path clip-path="url(#pa733b6ff71)" d="M 105.352586 307.584 
L 109.555234 307.584 
L 109.555234 256.896 
L 105.352586 256.896 
z
"/>
   </g>
   <g id="patch_10">
    <path clip-path="url(#pa733b6ff71)" d="M 110.605896 307.584 
L 114.808544 307.584 
L 114.808544 282.24 
L 110.605896 282.24 
z
"/>
   </g>
   <g id="patch_11">
    <path clip-path="url(#pa733b6ff71)" d="M 115.859206 307.584 
L 120.061853 307.584 
L 120.061853 282.24 
L 115.859206 282.24 
z
"/>
   </g>
   <g id="patch_12">
    <path clip-path="url(#pa733b6ff71)" d="M 121.112515 307.584 
L 125.315163 307.584 
L 125.315163 282.24 
L 121.112515 282.24 
z
"/>
   </g>
   <g id="patch_13">
    <path clip-path="url(#pa733b6ff71)" d="M 126.365825 307.584 
L 130.568473 307.584 
L 130.568473 282.24 
L 126.365825 282.24 
z
"/>
   </g>
   <g id="patch_14">
    <path clip-path="url(#pa733b6ff71)" d="M 131.619135 307.584 
L 135.821783 307.584 
L 135.821783 282.24 
L 131.619135 282.24 
z
"/>
   </g>
   <g id="patch_15">
    <path clip-path="url(#pa733b6ff71)" d="M 136.872445 307.584 
L 141.075093 307.584 
L 141.075093 282.24 
L 136.872445 282.24 
z
"/>
   </g>
   <g id="patch_16">
    <path clip-path="url(#pa733b6ff71)" d="M 142.125755 307.584 
L 146.328402 307.584 
L 146.328402 282.24 
L 142.125755 282.24 
z
"/>
   </g>
   <g id="patch_17">
    <path clip-path="url(#pa733b6ff71)" d="M 147.379064 307.584 
L 151.581712 307.584 
L 151.581712 282.24 
L 147.379064 282.24 
z
"/>
   </g>
   <g id="patch_18">
    <path clip-path="url(#pa733b6ff71)" d="M 152.632374 307.584 
L 156.835022 307.584 
L 156.835022 282.24 
L 152.632374 282.24 
z
"/>
   </g>
   <g id="patch_19">
    <path clip-path="url(#pa733b6ff71)" d="M 157.885684 307.584 
L 162.088332 307.584 
L 162.088332 282.24 
L 157.885684 282.24 
z
"/>
   </g>
   <g id="patch_20">
    <path clip-path="url(#pa733b6ff71)" d="M 163.138994 307.584 
L 167.341642 307.584 
L 167.341642 282.24 
L 163.138994 282.24 
z
"/>
   </g>
   <g id="patch_21">
    <path clip-path="url(#pa733b6ff71)" d="M 168.392304 307.584 
L 172.594951 307.584 
L 172.594951 282.24 
L 168.392304 282.24 
z
"/>
   </g>
   <g id="patch_22">
    <path clip-path="url(#pa733b6ff71)" d="M 173.645613 307.584 
L 177.848261 307.584 
L 177.848261 282.24 
L 173.645613 282.24 
z
"/>
   </g>
   <g id="patch_23">
    <path clip-path="url(#pa733b6ff71)" d="M 178.898923 307.584 
L 183.101571 307.584 
L 183.101571 282.24 
L 178.898923 282.24 
z
"/>
   </g>
   <g id="patch_24">
    <path clip-path="url(#pa733b6ff71)" d="M 184.152233 307.584 
L 188.354881 307.584 
L 188.354881 282.24 
L 184.152233 282.24 
z
"/>
   </g>
   <g id="patch_25">
    <path clip-path="url(#pa733b6ff71)" d="M 189.405543 307.584 
L 193.608191 307.584 
L 193.608191 282.24 
L 189.405543 282.24 
z
"/>
   </g>
   <g id="patch_26">
    <path clip-path="url(#pa733b6ff71)" d="M 194.658853 307.584 
L 198.8615 307.584 
L 198.8615 282.24 
L 194.658853 282.24 
z
"/>
   </g>
   <g id="patch_27">
    <path clip-path="url(#pa733b6ff71)" d="M 199.912162 307.584 
L 204.11481 307.584 
L 204.11481 282.24 
L 199.912162 282.24 
z
"/>
   </g>
   <g id="patch_28">
    <path clip-path="url(#pa733b6ff71)" d="M 205.165472 307.584 
L 209.36812 307.584 
L 209.36812 282.24 
L 205.165472 282.24 
z
"/>
   </g>
   <g id="patch_29">
    <path clip-path="url(#pa733b6ff71)" d="M 210.418782 307.584 
L 214.62143 307.584 
L 214.62143 282.24 
L 210.418782 282.24 
z
"/>
   </g>
   <g id="patch_30">
    <path clip-path="url(#pa733b6ff71)" d="M 215.672092 307.584 
L 219.87474 307.584 
L 219.87474 282.24 
L 215.672092 282.24 
z
"/>
   </g>
   <g id="patch_31">
    <path clip-path="url(#pa733b6ff71)" d="M 220.925402 307.584 
L 225.128049 307.584 
L 225.128049 282.24 
L 220.925402 282.24 
z
"/>
   </g>
   <g id="patch_32">
    <path clip-path="url(#pa733b6ff71)" d="M 226.178711 307.584 
L 230.381359 307.584 
L 230.381359 282.24 
L 226.178711 282.24 
z
"/>
   </g>
   <g id="patch_33">
    <path clip-path="url(#pa733b6ff71)" d="M 231.432021 307.584 
L 235.634669 307.584 
L 235.634669 282.24 
L 231.432021 282.24 
z
"/>
   </g>
   <g id="patch_34">
    <path clip-path="url(#pa733b6ff71)" d="M 236.685331 307.584 
L 240.887979 307.584 
L 240.887979 282.24 
L 236.685331 282.24 
z
"/>
   </g>
   <g id="patch_35">
    <path clip-path="url(#pa733b6ff71)" d="M 241.938641 307.584 
L 246.141289 307.584 
L 246.141289 282.24 
L 241.938641 282.24 
z
"/>
   </g>
   <g id="patch_36">
    <path clip-path="url(#pa733b6ff71)" d="M 247.191951 307.584 
L 251.394598 307.584 
L 251.394598 282.24 
L 247.191951 282.24 
z
"/>
   </g>
   <g id="patch_37">
    <path clip-path="url(#pa733b6ff71)" d="M 252.44526 307.584 
L 256.647908 307.584 
L 256.647908 282.24 
L 252.44526 282.24 
z
"/>
   </g>
   <g id="patch_38">
    <path clip-path="url(#pa733b6ff71)" d="M 257.69857 307.584 
L 261.901218 307.584 
L 261.901218 282.24 
L 257.69857 282.24 
z
"/>
   </g>
   <g id="patch_39">
    <path clip-path="url(#pa733b6ff71)" d="M 262.95188 307.584 
L 267.154528 307.584 
L 267.154528 282.24 
L 262.95188 282.24 
z
"/>
   </g>
   <g id="patch_40">
    <path clip-path="url(#pa733b6ff71)" d="M 268.20519 307.584 
L 272.407838 307.584 
L 272.407838 282.24 
L 268.20519 282.24 
z
"/>
   </g>
   <g id="patch_41">
    <path clip-path="url(#pa733b6ff71)" d="M 273.4585 307.584 
L 277.661147 307.584 
L 277.661147 282.24 
L 273.4585 282.24 
z
"/>
   </g>
   <g id="patch_42">
    <path clip-path="url(#pa733b6ff71)" d="M 278.711809 307.584 
L 282.914457 307.584 
L 282.914457 282.24 
L 278.711809 282.24 
z
"/>
   </g>
   <g id="patch_43">
    <path clip-path="url(#pa733b6ff71)" d="M 283.965119 307.584 
L 288.167767 307.584 
L 288.167767 282.24 
L 283.965119 282.24 
z
"/>
   </g>
   <g id="patch_44">
    <path clip-path="url(#pa733b6ff71)" d="M 289.218429 307.584 
L 293.421077 307.584 
L 293.421077 282.24 
L 289.218429 282.24 
z
"/>
   </g>
   <g id="patch_45">
    <path clip-path="url(#pa733b6ff71)" d="M 294.471739 307.584 
L 298.674387 307.584 
L 298.674387 282.24 
L 294.471739 282.24 
z
"/>
   </g>
   <g id="patch_46">
    <path clip-path="url(#pa733b6ff71)" d="M 299.725049 307.584 
L 303.927696 307.584 
L 303.927696 282.24 
L 299.725049 282.24 
z
"/>
   </g>
   <g id="patch_47">
    <path clip-path="url(#pa733b6ff71)" d="M 304.978358 307.584 
L 309.181006 307.584 
L 309.181006 282.24 
L 304.978358 282.24 
z
"/>
   </g>
   <g id="patch_48">
    <path clip-path="url(#pa733b6ff71)" d="M 310.231668 307.584 
L 314.434316 307.584 
L 314.434316 282.24 
L 310.231668 282.24 
z
"/>
   </g>
   <g id="patch_49">
    <path clip-path="url(#pa733b6ff71)" d="M 315.484978 307.584 
L 319.687626 307.584 
L 319.687626 282.24 
L 315.484978 282.24 
z
"/>
   </g>
   <g id="patch_50">
    <path clip-path="url(#pa733b6ff71)" d="M 320.738288 307.584 
L 324.940936 307.584 
L 324.940936 282.24 
L 320.738288 282.24 
z
"/>
   </g>
   <g id="patch_51">
    <path clip-path="url(#pa733b6ff71)" d="M 325.991598 307.584 
L 330.194245 307.584 
L 330.194245 282.24 
L 325.991598 282.24 
z
"/>
   </g>
   <g id="patch_52">
    <path clip-path="url(#pa733b6ff71)" d="M 331.244907 307.584 
L 335.447555 307.584 
L 335.447555 282.24 
L 331.244907 282.24 
z
"/>
   </g>
   <g id="patch_53">
    <path clip-path="url(#pa733b6ff71)" d="M 336.498217 307.584 
L 340.700865 307.584 
L 340.700865 282.24 
L 336.498217 282.24 
z
"/>
   </g>
   <g id="patch_54">
    <path clip-path="url(#pa733b6ff71)" d="M 341.751527 307.584 
L 345.954175 307.584 
L 345.954175 282.24 
L 341.751527 282.24 
z
"/>
   </g>
   <g id="patch_55">
    <path clip-path="url(#pa733b6ff71)" d="M 347.004837 307.584 
L 351.207485 307.584 
L 351.207485 282.24 
L 347.004837 282.24 
z
"/>
   </g>
   <g id="patch_56">
    <path clip-path="url(#pa733b6ff71)" d="M 352.258147 307.584 
L 356.460794 307.584 
L 356.460794 282.24 
L 352.258147 282.24 
z
"/>
   </g>
   <g id="patch_57">
    <path clip-path="url(#pa733b6ff71)" d="M 357.511456 307.584 
L 361.714104 307.584 
L 361.714104 282.24 
L 357.511456 282.24 
z
"/>
   </g>
   <g id="patch_58">
    <path clip-path="url(#pa733b6ff71)" d="M 362.764766 307.584 
L 366.967414 307.584 
L 366.967414 282.24 
L 362.764766 282.24 
z
"/>
   </g>
   <g id="patch_59">
    <path clip-path="url(#pa733b6ff71)" d="M 368.018076 307.584 
L 372.220724 307.584 
L 372.220724 282.24 
L 368.018076 282.24 
z
"/>
   </g>
   <g id="patch_60">
    <path clip-path="url(#pa733b6ff71)" d="M 373.271386 307.584 
L 377.474034 307.584 
L 377.474034 282.24 
L 373.271386 282.24 
z
"/>
   </g>
   <g id="patch_61">
    <path clip-path="url(#pa733b6ff71)" d="M 378.524695 307.584 
L 382.727343 307.584 
L 382.727343 282.24 
L 378.524695 282.24 
z
"/>
   </g>
   <g id="patch_62">
    <path clip-path="url(#pa733b6ff71)" d="M 383.778005 307.584 
L 387.980653 307.584 
L 387.980653 282.24 
L 383.778005 282.24 
z
"/>
   </g>
   <g id="patch_63">
    <path clip-path="url(#pa733b6ff71)" d="M 389.031315 307.584 
L 393.233963 307.584 
L 393.233963 282.24 
L 389.031315 282.24 
z
"/>
   </g>
   <g id="patch_64">
    <path clip-path="url(#pa733b6ff71)" d="M 394.284625 307.584 
L 398.487273 307.584 
L 398.487273 282.24 
L 394.284625 282.24 
z
"/>
   </g>
   <g id="matplotlib.axis_1">
    <g id="xtick_1">
     <g id="line2d_1">
      <defs>
       <path d="M 0 0 
L 0 3.5 
" id="mfbba9f26c8" style="stroke:#000000;stroke-width:0.8;"/>
      </defs>
      <g>
       <use style="stroke:#000000;stroke-width:0.8;" x="70.680741" xlink:href="#mfbba9f26c8" y="307.584"/>
      </g>
     </g>
     <g id="text_1">
      <!-- 0 -->
      <g transform="translate(67.499491 322.182437)scale(0.1 -0.1)">
       <defs>
        <path d="M 2034 4250 
Q 1547 4250 1301 3770 
Q 1056 3291 1056 2328 
Q 1056 1369 1301 889 
Q 1547 409 2034 409 
Q 2525 409 2770 889 
Q 3016 1369 3016 2328 
Q 3016 3291 2770 3770 
Q 2525 4250 2034 4250 
z
M 2034 4750 
Q 2819 4750 3233 4129 
Q 3647 3509 3647 2328 
Q 3647 1150 3233 529 
Q 2819 -91 2034 -91 
Q 1250 -91 836 529 
Q 422 1150 422 2328 
Q 422 3509 836 4129 
Q 1250 4750 2034 4750 
z
" id="DejaVuSans-30" transform="scale(0.015625)"/>
       </defs>
       <use xlink:href="#DejaVuSans-30"/>
      </g>
     </g>
    </g>
    <g id="xtick_2">
     <g id="line2d_2">
      <g>
       <use style="stroke:#000000;stroke-width:0.8;" x="123.213839" xlink:href="#mfbba9f26c8" y="307.584"/>
      </g>
     </g>
     <g id="text_2">
      <!-- 10 -->
      <g transform="translate(116.851339 322.182437)scale(0.1 -0.1)">
       <defs>
        <path d="M 794 531 
L 1825 531 
L 1825 4091 
L 703 3866 
L 703 4441 
L 1819 4666 
L 2450 4666 
L 2450 531 
L 3481 531 
L 3481 0 
L 794 0 
L 794 531 
z
" id="DejaVuSans-31" transform="scale(0.015625)"/>
       </defs>
       <use xlink:href="#DejaVuSans-31"/>
       <use x="63.623047" xlink:href="#DejaVuSans-30"/>
      </g>
     </g>
    </g>
    <g id="xtick_3">
     <g id="line2d_3">
      <g>
       <use style="stroke:#000000;stroke-width:0.8;" x="175.746937" xlink:href="#mfbba9f26c8" y="307.584"/>
      </g>
     </g>
     <g id="text_3">
      <!-- 20 -->
      <g transform="translate(169.384437 322.182437)scale(0.1 -0.1)">
       <defs>
        <path d="M 1228 531 
L 3431 531 
L 3431 0 
L 469 0 
L 469 531 
Q 828 903 1448 1529 
Q 2069 2156 2228 2338 
Q 2531 2678 2651 2914 
Q 2772 3150 2772 3378 
Q 2772 3750 2511 3984 
Q 2250 4219 1831 4219 
Q 1534 4219 1204 4116 
Q 875 4013 500 3803 
L 500 4441 
Q 881 4594 1212 4672 
Q 1544 4750 1819 4750 
Q 2544 4750 2975 4387 
Q 3406 4025 3406 3419 
Q 3406 3131 3298 2873 
Q 3191 2616 2906 2266 
Q 2828 2175 2409 1742 
Q 1991 1309 1228 531 
z
" id="DejaVuSans-32" transform="scale(0.015625)"/>
       </defs>
       <use xlink:href="#DejaVuSans-32"/>
       <use x="63.623047" xlink:href="#DejaVuSans-30"/>
      </g>
     </g>
    </g>
    <g id="xtick_4">
     <g id="line2d_4">
      <g>
       <use style="stroke:#000000;stroke-width:0.8;" x="228.280035" xlink:href="#mfbba9f26c8" y="307.584"/>
      </g>
     </g>
     <g id="text_4">
      <!-- 30 -->
      <g transform="translate(221.917535 322.182437)scale(0.1 -0.1)">
       <defs>
        <path d="M 2597 2516 
Q 3050 2419 3304 2112 
Q 3559 1806 3559 1356 
Q 3559 666 3084 287 
Q 2609 -91 1734 -91 
Q 1441 -91 1130 -33 
Q 819 25 488 141 
L 488 750 
Q 750 597 1062 519 
Q 1375 441 1716 441 
Q 2309 441 2620 675 
Q 2931 909 2931 1356 
Q 2931 1769 2642 2001 
Q 2353 2234 1838 2234 
L 1294 2234 
L 1294 2753 
L 1863 2753 
Q 2328 2753 2575 2939 
Q 2822 3125 2822 3475 
Q 2822 3834 2567 4026 
Q 2313 4219 1838 4219 
Q 1578 4219 1281 4162 
Q 984 4106 628 3988 
L 628 4550 
Q 988 4650 1302 4700 
Q 1616 4750 1894 4750 
Q 2613 4750 3031 4423 
Q 3450 4097 3450 3541 
Q 3450 3153 3228 2886 
Q 3006 2619 2597 2516 
z
" id="DejaVuSans-33" transform="scale(0.015625)"/>
       </defs>
       <use xlink:href="#DejaVuSans-33"/>
       <use x="63.623047" xlink:href="#DejaVuSans-30"/>
      </g>
     </g>
    </g>
    <g id="xtick_5">
     <g id="line2d_5">
      <g>
       <use style="stroke:#000000;stroke-width:0.8;" x="280.813133" xlink:href="#mfbba9f26c8" y="307.584"/>
      </g>
     </g>
     <g id="text_5">
      <!-- 40 -->
      <g transform="translate(274.450633 322.182437)scale(0.1 -0.1)">
       <defs>
        <path d="M 2419 4116 
L 825 1625 
L 2419 1625 
L 2419 4116 
z
M 2253 4666 
L 3047 4666 
L 3047 1625 
L 3713 1625 
L 3713 1100 
L 3047 1100 
L 3047 0 
L 2419 0 
L 2419 1100 
L 313 1100 
L 313 1709 
L 2253 4666 
z
" id="DejaVuSans-34" transform="scale(0.015625)"/>
       </defs>
       <use xlink:href="#DejaVuSans-34"/>
       <use x="63.623047" xlink:href="#DejaVuSans-30"/>
      </g>
     </g>
    </g>
    <g id="xtick_6">
     <g id="line2d_6">
      <g>
       <use style="stroke:#000000;stroke-width:0.8;" x="333.346231" xlink:href="#mfbba9f26c8" y="307.584"/>
      </g>
     </g>
     <g id="text_6">
      <!-- 50 -->
      <g transform="translate(326.983731 322.182437)scale(0.1 -0.1)">
       <defs>
        <path d="M 691 4666 
L 3169 4666 
L 3169 4134 
L 1269 4134 
L 1269 2991 
Q 1406 3038 1543 3061 
Q 1681 3084 1819 3084 
Q 2600 3084 3056 2656 
Q 3513 2228 3513 1497 
Q 3513 744 3044 326 
Q 2575 -91 1722 -91 
Q 1428 -91 1123 -41 
Q 819 9 494 109 
L 494 744 
Q 775 591 1075 516 
Q 1375 441 1709 441 
Q 2250 441 2565 725 
Q 2881 1009 2881 1497 
Q 2881 1984 2565 2268 
Q 2250 2553 1709 2553 
Q 1456 2553 1204 2497 
Q 953 2441 691 2322 
L 691 4666 
z
" id="DejaVuSans-35" transform="scale(0.015625)"/>
       </defs>
       <use xlink:href="#DejaVuSans-35"/>
       <use x="63.623047" xlink:href="#DejaVuSans-30"/>
      </g>
     </g>
    </g>
    <g id="xtick_7">
     <g id="line2d_7">
      <g>
       <use style="stroke:#000000;stroke-width:0.8;" x="385.879329" xlink:href="#mfbba9f26c8" y="307.584"/>
      </g>
     </g>
     <g id="text_7">
      <!-- 60 -->
      <g transform="translate(379.516829 322.182437)scale(0.1 -0.1)">
       <defs>
        <path d="M 2113 2584 
Q 1688 2584 1439 2293 
Q 1191 2003 1191 1497 
Q 1191 994 1439 701 
Q 1688 409 2113 409 
Q 2538 409 2786 701 
Q 3034 994 3034 1497 
Q 3034 2003 2786 2293 
Q 2538 2584 2113 2584 
z
M 3366 4563 
L 3366 3988 
Q 3128 4100 2886 4159 
Q 2644 4219 2406 4219 
Q 1781 4219 1451 3797 
Q 1122 3375 1075 2522 
Q 1259 2794 1537 2939 
Q 1816 3084 2150 3084 
Q 2853 3084 3261 2657 
Q 3669 2231 3669 1497 
Q 3669 778 3244 343 
Q 2819 -91 2113 -91 
Q 1303 -91 875 529 
Q 447 1150 447 2328 
Q 447 3434 972 4092 
Q 1497 4750 2381 4750 
Q 2619 4750 2861 4703 
Q 3103 4656 3366 4563 
z
" id="DejaVuSans-36" transform="scale(0.015625)"/>
       </defs>
       <use xlink:href="#DejaVuSans-36"/>
       <use x="63.623047" xlink:href="#DejaVuSans-30"/>
      </g>
     </g>
    </g>
    <g id="text_8">
     <!-- genotype -->
     <g transform="translate(212.510781 335.860562)scale(0.1 -0.1)">
      <defs>
       <path d="M 2906 1791 
Q 2906 2416 2648 2759 
Q 2391 3103 1925 3103 
Q 1463 3103 1205 2759 
Q 947 2416 947 1791 
Q 947 1169 1205 825 
Q 1463 481 1925 481 
Q 2391 481 2648 825 
Q 2906 1169 2906 1791 
z
M 3481 434 
Q 3481 -459 3084 -895 
Q 2688 -1331 1869 -1331 
Q 1566 -1331 1297 -1286 
Q 1028 -1241 775 -1147 
L 775 -588 
Q 1028 -725 1275 -790 
Q 1522 -856 1778 -856 
Q 2344 -856 2625 -561 
Q 2906 -266 2906 331 
L 2906 616 
Q 2728 306 2450 153 
Q 2172 0 1784 0 
Q 1141 0 747 490 
Q 353 981 353 1791 
Q 353 2603 747 3093 
Q 1141 3584 1784 3584 
Q 2172 3584 2450 3431 
Q 2728 3278 2906 2969 
L 2906 3500 
L 3481 3500 
L 3481 434 
z
" id="DejaVuSans-67" transform="scale(0.015625)"/>
       <path d="M 3597 1894 
L 3597 1613 
L 953 1613 
Q 991 1019 1311 708 
Q 1631 397 2203 397 
Q 2534 397 2845 478 
Q 3156 559 3463 722 
L 3463 178 
Q 3153 47 2828 -22 
Q 2503 -91 2169 -91 
Q 1331 -91 842 396 
Q 353 884 353 1716 
Q 353 2575 817 3079 
Q 1281 3584 2069 3584 
Q 2775 3584 3186 3129 
Q 3597 2675 3597 1894 
z
M 3022 2063 
Q 3016 2534 2758 2815 
Q 2500 3097 2075 3097 
Q 1594 3097 1305 2825 
Q 1016 2553 972 2059 
L 3022 2063 
z
" id="DejaVuSans-65" transform="scale(0.015625)"/>
       <path d="M 3513 2113 
L 3513 0 
L 2938 0 
L 2938 2094 
Q 2938 2591 2744 2837 
Q 2550 3084 2163 3084 
Q 1697 3084 1428 2787 
Q 1159 2491 1159 1978 
L 1159 0 
L 581 0 
L 581 3500 
L 1159 3500 
L 1159 2956 
Q 1366 3272 1645 3428 
Q 1925 3584 2291 3584 
Q 2894 3584 3203 3211 
Q 3513 2838 3513 2113 
z
" id="DejaVuSans-6e" transform="scale(0.015625)"/>
       <path d="M 1959 3097 
Q 1497 3097 1228 2736 
Q 959 2375 959 1747 
Q 959 1119 1226 758 
Q 1494 397 1959 397 
Q 2419 397 2687 759 
Q 2956 1122 2956 1747 
Q 2956 2369 2687 2733 
Q 2419 3097 1959 3097 
z
M 1959 3584 
Q 2709 3584 3137 3096 
Q 3566 2609 3566 1747 
Q 3566 888 3137 398 
Q 2709 -91 1959 -91 
Q 1206 -91 779 398 
Q 353 888 353 1747 
Q 353 2609 779 3096 
Q 1206 3584 1959 3584 
z
" id="DejaVuSans-6f" transform="scale(0.015625)"/>
       <path d="M 1172 4494 
L 1172 3500 
L 2356 3500 
L 2356 3053 
L 1172 3053 
L 1172 1153 
Q 1172 725 1289 603 
Q 1406 481 1766 481 
L 2356 481 
L 2356 0 
L 1766 0 
Q 1100 0 847 248 
Q 594 497 594 1153 
L 594 3053 
L 172 3053 
L 172 3500 
L 594 3500 
L 594 4494 
L 1172 4494 
z
" id="DejaVuSans-74" transform="scale(0.015625)"/>
       <path d="M 2059 -325 
Q 1816 -950 1584 -1140 
Q 1353 -1331 966 -1331 
L 506 -1331 
L 506 -850 
L 844 -850 
Q 1081 -850 1212 -737 
Q 1344 -625 1503 -206 
L 1606 56 
L 191 3500 
L 800 3500 
L 1894 763 
L 2988 3500 
L 3597 3500 
L 2059 -325 
z
" id="DejaVuSans-79" transform="scale(0.015625)"/>
       <path d="M 1159 525 
L 1159 -1331 
L 581 -1331 
L 581 3500 
L 1159 3500 
L 1159 2969 
Q 1341 3281 1617 3432 
Q 1894 3584 2278 3584 
Q 2916 3584 3314 3078 
Q 3713 2572 3713 1747 
Q 3713 922 3314 415 
Q 2916 -91 2278 -91 
Q 1894 -91 1617 61 
Q 1341 213 1159 525 
z
M 3116 1747 
Q 3116 2381 2855 2742 
Q 2594 3103 2138 3103 
Q 1681 3103 1420 2742 
Q 1159 2381 1159 1747 
Q 1159 1113 1420 752 
Q 1681 391 2138 391 
Q 2594 391 2855 752 
Q 3116 1113 3116 1747 
z
" id="DejaVuSans-70" transform="scale(0.015625)"/>
      </defs>
      <use xlink:href="#DejaVuSans-67"/>
      <use x="63.476562" xlink:href="#DejaVuSans-65"/>
      <use x="125" xlink:href="#DejaVuSans-6e"/>
      <use x="188.378906" xlink:href="#DejaVuSans-6f"/>
      <use x="249.560547" xlink:href="#DejaVuSans-74"/>
      <use x="288.769531" xlink:href="#DejaVuSans-79"/>
      <use x="347.949219" xlink:href="#DejaVuSans-70"/>
      <use x="411.425781" xlink:href="#DejaVuSans-65"/>
     </g>
    </g>
   </g>
   <g id="matplotlib.axis_2">
    <g id="ytick_1">
     <g id="line2d_8">
      <defs>
       <path d="M 0 0 
L -3.5 0 
" id="m304eca1230" style="stroke:#000000;stroke-width:0.8;"/>
      </defs>
      <g>
       <use style="stroke:#000000;stroke-width:0.8;" x="57.6" xlink:href="#m304eca1230" y="307.584"/>
      </g>
     </g>
     <g id="text_9">
      <!-- 0 -->
      <g transform="translate(44.2375 311.383219)scale(0.1 -0.1)">
       <use xlink:href="#DejaVuSans-30"/>
      </g>
     </g>
    </g>
    <g id="ytick_2">
     <g id="line2d_9">
      <g>
       <use style="stroke:#000000;stroke-width:0.8;" x="57.6" xlink:href="#m304eca1230" y="256.896"/>
      </g>
     </g>
     <g id="text_10">
      <!-- 2 -->
      <g transform="translate(44.2375 260.695219)scale(0.1 -0.1)">
       <use xlink:href="#DejaVuSans-32"/>
      </g>
     </g>
    </g>
    <g id="ytick_3">
     <g id="line2d_10">
      <g>
       <use style="stroke:#000000;stroke-width:0.8;" x="57.6" xlink:href="#m304eca1230" y="206.208"/>
      </g>
     </g>
     <g id="text_11">
      <!-- 4 -->
      <g transform="translate(44.2375 210.007219)scale(0.1 -0.1)">
       <use xlink:href="#DejaVuSans-34"/>
      </g>
     </g>
    </g>
    <g id="ytick_4">
     <g id="line2d_11">
      <g>
       <use style="stroke:#000000;stroke-width:0.8;" x="57.6" xlink:href="#m304eca1230" y="155.52"/>
      </g>
     </g>
     <g id="text_12">
      <!-- 6 -->
      <g transform="translate(44.2375 159.319219)scale(0.1 -0.1)">
       <use xlink:href="#DejaVuSans-36"/>
      </g>
     </g>
    </g>
    <g id="ytick_5">
     <g id="line2d_12">
      <g>
       <use style="stroke:#000000;stroke-width:0.8;" x="57.6" xlink:href="#m304eca1230" y="104.832"/>
      </g>
     </g>
     <g id="text_13">
      <!-- 8 -->
      <g transform="translate(44.2375 108.631219)scale(0.1 -0.1)">
       <defs>
        <path d="M 2034 2216 
Q 1584 2216 1326 1975 
Q 1069 1734 1069 1313 
Q 1069 891 1326 650 
Q 1584 409 2034 409 
Q 2484 409 2743 651 
Q 3003 894 3003 1313 
Q 3003 1734 2745 1975 
Q 2488 2216 2034 2216 
z
M 1403 2484 
Q 997 2584 770 2862 
Q 544 3141 544 3541 
Q 544 4100 942 4425 
Q 1341 4750 2034 4750 
Q 2731 4750 3128 4425 
Q 3525 4100 3525 3541 
Q 3525 3141 3298 2862 
Q 3072 2584 2669 2484 
Q 3125 2378 3379 2068 
Q 3634 1759 3634 1313 
Q 3634 634 3220 271 
Q 2806 -91 2034 -91 
Q 1263 -91 848 271 
Q 434 634 434 1313 
Q 434 1759 690 2068 
Q 947 2378 1403 2484 
z
M 1172 3481 
Q 1172 3119 1398 2916 
Q 1625 2713 2034 2713 
Q 2441 2713 2670 2916 
Q 2900 3119 2900 3481 
Q 2900 3844 2670 4047 
Q 2441 4250 2034 4250 
Q 1625 4250 1398 4047 
Q 1172 3844 1172 3481 
z
" id="DejaVuSans-38" transform="scale(0.015625)"/>
       </defs>
       <use xlink:href="#DejaVuSans-38"/>
      </g>
     </g>
    </g>
    <g id="ytick_6">
     <g id="line2d_13">
      <g>
       <use style="stroke:#000000;stroke-width:0.8;" x="57.6" xlink:href="#m304eca1230" y="54.144"/>
      </g>
     </g>
     <g id="text_14">
      <!-- 10 -->
      <g transform="translate(37.875 57.943219)scale(0.1 -0.1)">
       <use xlink:href="#DejaVuSans-31"/>
       <use x="63.623047" xlink:href="#DejaVuSans-30"/>
      </g>
     </g>
    </g>
    <g id="text_15">
     <!-- abundance -->
     <g transform="translate(31.795312 202.336594)rotate(-90)scale(0.1 -0.1)">
      <defs>
       <path d="M 2194 1759 
Q 1497 1759 1228 1600 
Q 959 1441 959 1056 
Q 959 750 1161 570 
Q 1363 391 1709 391 
Q 2188 391 2477 730 
Q 2766 1069 2766 1631 
L 2766 1759 
L 2194 1759 
z
M 3341 1997 
L 3341 0 
L 2766 0 
L 2766 531 
Q 2569 213 2275 61 
Q 1981 -91 1556 -91 
Q 1019 -91 701 211 
Q 384 513 384 1019 
Q 384 1609 779 1909 
Q 1175 2209 1959 2209 
L 2766 2209 
L 2766 2266 
Q 2766 2663 2505 2880 
Q 2244 3097 1772 3097 
Q 1472 3097 1187 3025 
Q 903 2953 641 2809 
L 641 3341 
Q 956 3463 1253 3523 
Q 1550 3584 1831 3584 
Q 2591 3584 2966 3190 
Q 3341 2797 3341 1997 
z
" id="DejaVuSans-61" transform="scale(0.015625)"/>
       <path d="M 3116 1747 
Q 3116 2381 2855 2742 
Q 2594 3103 2138 3103 
Q 1681 3103 1420 2742 
Q 1159 2381 1159 1747 
Q 1159 1113 1420 752 
Q 1681 391 2138 391 
Q 2594 391 2855 752 
Q 3116 1113 3116 1747 
z
M 1159 2969 
Q 1341 3281 1617 3432 
Q 1894 3584 2278 3584 
Q 2916 3584 3314 3078 
Q 3713 2572 3713 1747 
Q 3713 922 3314 415 
Q 2916 -91 2278 -91 
Q 1894 -91 1617 61 
Q 1341 213 1159 525 
L 1159 0 
L 581 0 
L 581 4863 
L 1159 4863 
L 1159 2969 
z
" id="DejaVuSans-62" transform="scale(0.015625)"/>
       <path d="M 544 1381 
L 544 3500 
L 1119 3500 
L 1119 1403 
Q 1119 906 1312 657 
Q 1506 409 1894 409 
Q 2359 409 2629 706 
Q 2900 1003 2900 1516 
L 2900 3500 
L 3475 3500 
L 3475 0 
L 2900 0 
L 2900 538 
Q 2691 219 2414 64 
Q 2138 -91 1772 -91 
Q 1169 -91 856 284 
Q 544 659 544 1381 
z
M 1991 3584 
L 1991 3584 
z
" id="DejaVuSans-75" transform="scale(0.015625)"/>
       <path d="M 2906 2969 
L 2906 4863 
L 3481 4863 
L 3481 0 
L 2906 0 
L 2906 525 
Q 2725 213 2448 61 
Q 2172 -91 1784 -91 
Q 1150 -91 751 415 
Q 353 922 353 1747 
Q 353 2572 751 3078 
Q 1150 3584 1784 3584 
Q 2172 3584 2448 3432 
Q 2725 3281 2906 2969 
z
M 947 1747 
Q 947 1113 1208 752 
Q 1469 391 1925 391 
Q 2381 391 2643 752 
Q 2906 1113 2906 1747 
Q 2906 2381 2643 2742 
Q 2381 3103 1925 3103 
Q 1469 3103 1208 2742 
Q 947 2381 947 1747 
z
" id="DejaVuSans-64" transform="scale(0.015625)"/>
       <path d="M 3122 3366 
L 3122 2828 
Q 2878 2963 2633 3030 
Q 2388 3097 2138 3097 
Q 1578 3097 1268 2742 
Q 959 2388 959 1747 
Q 959 1106 1268 751 
Q 1578 397 2138 397 
Q 2388 397 2633 464 
Q 2878 531 3122 666 
L 3122 134 
Q 2881 22 2623 -34 
Q 2366 -91 2075 -91 
Q 1284 -91 818 406 
Q 353 903 353 1747 
Q 353 2603 823 3093 
Q 1294 3584 2113 3584 
Q 2378 3584 2631 3529 
Q 2884 3475 3122 3366 
z
" id="DejaVuSans-63" transform="scale(0.015625)"/>
      </defs>
      <use xlink:href="#DejaVuSans-61"/>
      <use x="61.279297" xlink:href="#DejaVuSans-62"/>
      <use x="124.755859" xlink:href="#DejaVuSans-75"/>
      <use x="188.134766" xlink:href="#DejaVuSans-6e"/>
      <use x="251.513672" xlink:href="#DejaVuSans-64"/>
      <use x="314.990234" xlink:href="#DejaVuSans-61"/>
      <use x="376.269531" xlink:href="#DejaVuSans-6e"/>
      <use x="439.648438" xlink:href="#DejaVuSans-63"/>
      <use x="494.628906" xlink:href="#DejaVuSans-65"/>
     </g>
    </g>
   </g>
   <g id="patch_65">
    <path d="M 57.6 307.584 
L 57.6 41.472 
" style="fill:none;stroke:#000000;stroke-linecap:square;stroke-linejoin:miter;stroke-width:0.8;"/>
   </g>
   <g id="patch_66">
    <path d="M 414.72 307.584 
L 414.72 41.472 
" style="fill:none;stroke:#000000;stroke-linecap:square;stroke-linejoin:miter;stroke-width:0.8;"/>
   </g>
   <g id="patch_67">
    <path d="M 57.6 307.584 
L 414.72 307.584 
" style="fill:none;stroke:#000000;stroke-linecap:square;stroke-linejoin:miter;stroke-width:0.8;"/>
   </g>
   <g id="patch_68">
    <path d="M 57.6 41.472 
L 414.72 41.472 
" style="fill:none;stroke:#000000;stroke-linecap:square;stroke-linejoin:miter;stroke-width:0.8;"/>
   </g>
  </g>
 </g>
 <defs>
  <clipPath id="pa733b6ff71">
   <rect height="266.112" width="357.12" x="57.6" y="41.472"/>
  </clipPath>
 </defs>
</svg>
