<?xml version="1.0" encoding="UTF-8" standalone="no"?> <svg width="85.0194mm" height="85.725mm"  viewBox="0 0 241 243.5"  xmlns="http://www.w3.org/2000/svg" xmlns:xlink="http://www.w3.org/1999/xlink"  version="1.2" baseProfile="tiny"> <title>Generated with ETE http://etetoolkit.org</title> <desc>Generated with ETE http://etetoolkit.org</desc> <defs> </defs> <g fill="none" stroke="black" stroke-width="1" fill-rule="evenodd" stroke-linecap="square" stroke-linejoin="bevel" >      <g fill="none" stroke="none" transform="matrix(1,0,0,1,0,48)" font-family="Sans Serif" font-size="9pt" font-weight="400" font-style="normal"  > <rect x="0" y="-48" width="241" height="243.5"/> </g>      <g fill="none" stroke="none" transform="matrix(1,0,0,1,1,49)" font-family="Sans Serif" font-size="9pt" font-weight="400" font-style="normal"  > <rect x="0" y="0" width="239" height="143.5"/> </g>                                                                                                                                  <g fill="none" stroke="#929292" stroke-opacity="1" stroke-width="1" stroke-linecap="butt" stroke-linejoin="bevel" transform="matrix(1,0,0,1,1,49)" font-family="Sans Serif" font-size="9pt" font-weight="400" font-style="normal"  > <polyline fill="none" vector-effect="non-scaling-stroke" points="24,9.5875 24,75.725 " /> </g>                      <g fill="none" stroke="#ff0000" stroke-opacity="1" stroke-width="1" stroke-linecap="square" stroke-linejoin="bevel" transform="matrix(1,0,0,1,1,88.4063)" font-family="Verdana" font-size="3pt" font-weight="400" font-style="normal"  > <text fill="#ff0000" fill-opacity="1" stroke="none" xml:space="preserve" x="0" y="4" font-family="Verdana" font-size="3pt" font-weight="400" font-style="normal"   >gc39-naive</text> </g>      <g fill="#929292" fill-opacity="1" stroke="none" transform="matrix(1,0,0,1,1,93.4063)" font-family="Sans Serif" font-size="9pt" font-weight="400" font-style="normal"  opacity="0.65" > <rect x="0" y="0" width="1.5" height="1.5"/> </g>              <g fill="none" stroke="#929292" stroke-opacity="1" stroke-width="1" stroke-linecap="butt" stroke-linejoin="bevel" transform="matrix(1,0,0,1,25,49)" font-family="Sans Serif" font-size="9pt" font-weight="400" font-style="normal"  > <polyline fill="none" vector-effect="non-scaling-stroke" points="122,2.65 122,17.725 " /> </g>            <g fill="none" stroke="#1d6cb1" stroke-opacity="1" stroke-width="1" stroke-linecap="butt" stroke-linejoin="bevel" transform="matrix(1,0,0,1,25,49)" font-family="Sans Serif" font-size="9pt" font-weight="400" font-style="normal"  > <polyline fill="none" vector-effect="none" points="0,10.1875 108,10.1875 " /> </g>          <g fill="none" stroke="#ff0000" stroke-opacity="1" stroke-width="1" stroke-linecap="square" stroke-linejoin="bevel" transform="matrix(1,0,0,1,133,54.1875)" font-family="Verdana" font-size="3pt" font-weight="400" font-style="normal"  > <text fill="#ff0000" fill-opacity="1" stroke="none" xml:space="preserve" x="0" y="4" font-family="Verdana" font-size="3pt" font-weight="400" font-style="normal"   >gc39-2</text> </g>      <g fill="#23a982" fill-opacity="1" stroke="none" transform="matrix(1,0,0,1,133,59.1875)" font-family="Sans Serif" font-size="9pt" font-weight="400" font-style="normal"  opacity="0.65" > <rect x="0" y="0" width="5" height="5"/> </g>                    <g fill="none" stroke="#2070b4" stroke-opacity="1" stroke-width="1" stroke-linecap="butt" stroke-linejoin="bevel" transform="matrix(1,0,0,1,147,49)" font-family="Sans Serif" font-size="9pt" font-weight="400" font-style="normal"  > <polyline fill="none" vector-effect="none" points="0,3.25 72,3.25 " /> </g>          <g fill="none" stroke="#ff0000" stroke-opacity="1" stroke-width="1" stroke-linecap="square" stroke-linejoin="bevel" transform="matrix(1,0,0,1,219,49)" font-family="Verdana" font-size="3pt" font-weight="400" font-style="normal"  > <text fill="#ff0000" fill-opacity="1" stroke="none" xml:space="preserve" x="0" y="4" font-family="Verdana" font-size="3pt" font-weight="400" font-style="normal"   >gc39-seq2</text> </g>      <g fill="#929292" fill-opacity="1" stroke="none" transform="matrix(1,0,0,1,219,54)" font-family="Sans Serif" font-size="9pt" font-weight="400" font-style="normal"  opacity="0.65" > <rect x="0" y="0" width="1.5" height="1.5"/> </g>              <g fill="none" stroke="#929292" stroke-opacity="1" stroke-width="1" stroke-linecap="butt" stroke-linejoin="bevel" transform="matrix(1,0,0,1,147,55.5)" font-family="Sans Serif" font-size="9pt" font-weight="400" font-style="normal"  > <polyline fill="none" vector-effect="non-scaling-stroke" points="24,2.65 24,18 " /> </g>                      <g fill="none" stroke="#ff0000" stroke-opacity="1" stroke-width="1" stroke-linecap="square" stroke-linejoin="bevel" transform="matrix(1,0,0,1,147,61.125)" font-family="Verdana" font-size="3pt" font-weight="400" font-style="normal"  > <text fill="#ff0000" fill-opacity="1" stroke="none" xml:space="preserve" x="0" y="4" font-family="Verdana" font-size="3pt" font-weight="400" font-style="normal"   >gc39-seq10</text> </g>      <g fill="#414186" fill-opacity="1" stroke="none" transform="matrix(1,0,0,1,147,66.125)" font-family="Sans Serif" font-size="9pt" font-weight="400" font-style="normal"  opacity="0.65" > <rect x="0" y="0" width="5" height="5"/> </g>                              <g fill="none" stroke="#ff0000" stroke-opacity="1" stroke-width="1" stroke-linecap="square" stroke-linejoin="bevel" transform="matrix(1,0,0,1,171,55.5)" font-family="Verdana" font-size="3pt" font-weight="400" font-style="normal"  > <text fill="#ff0000" fill-opacity="1" stroke="none" xml:space="preserve" x="0" y="4" font-family="Verdana" font-size="3pt" font-weight="400" font-style="normal"   >gc39-seq5</text> </g>      <g fill="#929292" fill-opacity="1" stroke="none" transform="matrix(1,0,0,1,171,60.5)" font-family="Sans Serif" font-size="9pt" font-weight="400" font-style="normal"  opacity="0.65" > <rect x="0" y="0" width="1.5" height="1.5"/> </g>                              <g fill="none" stroke="#ff0000" stroke-opacity="1" stroke-width="1" stroke-linecap="square" stroke-linejoin="bevel" transform="matrix(1,0,0,1,171,62)" font-family="Verdana" font-size="3pt" font-weight="400" font-style="normal"  > <text fill="#ff0000" fill-opacity="1" stroke="none" xml:space="preserve" x="0" y="4" font-family="Verdana" font-size="3pt" font-weight="400" font-style="normal"   >gc39-seq12</text> </g>      <g fill="#929292" fill-opacity="1" stroke="none" transform="matrix(1,0,0,1,171,67)" font-family="Sans Serif" font-size="9pt" font-weight="400" font-style="normal"  opacity="0.65" > <rect x="0" y="0" width="1.5" height="1.5"/> </g>                              <g fill="none" stroke="#ff0000" stroke-opacity="1" stroke-width="1" stroke-linecap="square" stroke-linejoin="bevel" transform="matrix(1,0,0,1,171,68.5)" font-family="Verdana" font-size="3pt" font-weight="400" font-style="normal"  > <text fill="#ff0000" fill-opacity="1" stroke="none" xml:space="preserve" x="0" y="4" font-family="Verdana" font-size="3pt" font-weight="400" font-style="normal"   >gc39-seq3</text> </g>      <g fill="#414186" fill-opacity="1" stroke="none" transform="matrix(1,0,0,1,171,73.5)" font-family="Sans Serif" font-size="9pt" font-weight="400" font-style="normal"  opacity="0.65" > <rect x="0" y="0" width="5" height="5"/> </g>              <g fill="none" stroke="#929292" stroke-opacity="1" stroke-width="1" stroke-linecap="butt" stroke-linejoin="bevel" transform="matrix(1,0,0,1,25,78.5)" font-family="Sans Serif" font-size="9pt" font-weight="400" font-style="normal"  > <polyline fill="none" vector-effect="non-scaling-stroke" points="50,2.65 50,88.6 " /> </g>            <g fill="none" stroke="#f14532" stroke-opacity="1" stroke-width="1" stroke-linecap="butt" stroke-linejoin="bevel" transform="matrix(1,0,0,1,25,78.5)" font-family="Sans Serif" font-size="9pt" font-weight="400" font-style="normal"  > <polyline fill="none" vector-effect="none" points="0,45.625 36,45.625 " /> </g>          <g fill="none" stroke="#ff0000" stroke-opacity="1" stroke-width="1" stroke-linecap="square" stroke-linejoin="bevel" transform="matrix(1,0,0,1,61,119.125)" font-family="Verdana" font-size="3pt" font-weight="400" font-style="normal"  > <text fill="#ff0000" fill-opacity="1" stroke="none" xml:space="preserve" x="0" y="4" font-family="Verdana" font-size="3pt" font-weight="400" font-style="normal"   >gc39-3</text> </g>      <g fill="#fde724" fill-opacity="1" stroke="none" transform="matrix(1,0,0,1,61,124.125)" font-family="Sans Serif" font-size="9pt" font-weight="400" font-style="normal"  opacity="0.65" > <rect x="0" y="0" width="5" height="5"/> </g>                              <g fill="none" stroke="#ff0000" stroke-opacity="1" stroke-width="1" stroke-linecap="square" stroke-linejoin="bevel" transform="matrix(1,0,0,1,75,78.5)" font-family="Verdana" font-size="3pt" font-weight="400" font-style="normal"  > <text fill="#ff0000" fill-opacity="1" stroke="none" xml:space="preserve" x="0" y="4" font-family="Verdana" font-size="3pt" font-weight="400" font-style="normal"   >gc39-seq20</text> </g>      <g fill="#929292" fill-opacity="1" stroke="none" transform="matrix(1,0,0,1,75,83.5)" font-family="Sans Serif" font-size="9pt" font-weight="400" font-style="normal"  opacity="0.65" > <rect x="0" y="0" width="1.5" height="1.5"/> </g>                              <g fill="none" stroke="#ff0000" stroke-opacity="1" stroke-width="1" stroke-linecap="square" stroke-linejoin="bevel" transform="matrix(1,0,0,1,75,85)" font-family="Verdana" font-size="3pt" font-weight="400" font-style="normal"  > <text fill="#ff0000" fill-opacity="1" stroke="none" xml:space="preserve" x="0" y="4" font-family="Verdana" font-size="3pt" font-weight="400" font-style="normal"   >gc39-seq8</text> </g>      <g fill="#929292" fill-opacity="1" stroke="none" transform="matrix(1,0,0,1,75,90)" font-family="Sans Serif" font-size="9pt" font-weight="400" font-style="normal"  opacity="0.65" > <rect x="0" y="0" width="1.5" height="1.5"/> </g>                              <g fill="none" stroke="#ff0000" stroke-opacity="1" stroke-width="1" stroke-linecap="square" stroke-linejoin="bevel" transform="matrix(1,0,0,1,75,91.5)" font-family="Verdana" font-size="3pt" font-weight="400" font-style="normal"  > <text fill="#ff0000" fill-opacity="1" stroke="none" xml:space="preserve" x="0" y="4" font-family="Verdana" font-size="3pt" font-weight="400" font-style="normal"   >gc39-seq7</text> </g>      <g fill="#929292" fill-opacity="1" stroke="none" transform="matrix(1,0,0,1,75,96.5)" font-family="Sans Serif" font-size="9pt" font-weight="400" font-style="normal"  opacity="0.65" > <rect x="0" y="0" width="1.5" height="1.5"/> </g>                              <g fill="none" stroke="#ff0000" stroke-opacity="1" stroke-width="1" stroke-linecap="square" stroke-linejoin="bevel" transform="matrix(1,0,0,1,75,98)" font-family="Verdana" font-size="3pt" font-weight="400" font-style="normal"  > <text fill="#ff0000" fill-opacity="1" stroke="none" xml:space="preserve" x="0" y="4" font-family="Verdana" font-size="3pt" font-weight="400" font-style="normal"   >gc39-seq6</text> </g>      <g fill="#929292" fill-opacity="1" stroke="none" transform="matrix(1,0,0,1,75,103)" font-family="Sans Serif" font-size="9pt" font-weight="400" font-style="normal"  opacity="0.65" > <rect x="0" y="0" width="1.5" height="1.5"/> </g>                              <g fill="none" stroke="#ff0000" stroke-opacity="1" stroke-width="1" stroke-linecap="square" stroke-linejoin="bevel" transform="matrix(1,0,0,1,75,104.5)" font-family="Verdana" font-size="3pt" font-weight="400" font-style="normal"  > <text fill="#ff0000" fill-opacity="1" stroke="none" xml:space="preserve" x="0" y="4" font-family="Verdana" font-size="3pt" font-weight="400" font-style="normal"   >gc39-seq13</text> </g>      <g fill="#929292" fill-opacity="1" stroke="none" transform="matrix(1,0,0,1,75,109.5)" font-family="Sans Serif" font-size="9pt" font-weight="400" font-style="normal"  opacity="0.65" > <rect x="0" y="0" width="1.5" height="1.5"/> </g>                    <g fill="none" stroke="#fdd4c2" stroke-opacity="1" stroke-width="1" stroke-linecap="butt" stroke-linejoin="bevel" transform="matrix(1,0,0,1,75,111)" font-family="Sans Serif" font-size="9pt" font-weight="400" font-style="normal"  > <polyline fill="none" vector-effect="none" points="0,3.25 72,3.25 " /> </g>          <g fill="none" stroke="#ff0000" stroke-opacity="1" stroke-width="1" stroke-linecap="square" stroke-linejoin="bevel" transform="matrix(1,0,0,1,147,111)" font-family="Verdana" font-size="3pt" font-weight="400" font-style="normal"  > <text fill="#ff0000" fill-opacity="1" stroke="none" xml:space="preserve" x="0" y="4" font-family="Verdana" font-size="3pt" font-weight="400" font-style="normal"   >gc39-seq21</text> </g>      <g fill="#929292" fill-opacity="1" stroke="none" transform="matrix(1,0,0,1,147,116)" font-family="Sans Serif" font-size="9pt" font-weight="400" font-style="normal"  opacity="0.65" > <rect x="0" y="0" width="1.5" height="1.5"/> </g>              <g fill="none" stroke="#929292" stroke-opacity="1" stroke-width="1" stroke-linecap="butt" stroke-linejoin="bevel" transform="matrix(1,0,0,1,75,117.5)" font-family="Sans Serif" font-size="9pt" font-weight="400" font-style="normal"  > <polyline fill="none" vector-effect="non-scaling-stroke" points="60,4.4 60,5.6 " /> </g>            <g fill="none" stroke="#ddeaf6" stroke-opacity="1" stroke-width="1" stroke-linecap="butt" stroke-linejoin="bevel" transform="matrix(1,0,0,1,75,117.5)" font-family="Sans Serif" font-size="9pt" font-weight="400" font-style="normal"  > <polyline fill="none" vector-effect="none" points="0,5 36,5 " /> </g>          <g fill="none" stroke="#ff0000" stroke-opacity="1" stroke-width="1" stroke-linecap="square" stroke-linejoin="bevel" transform="matrix(1,0,0,1,111,117.5)" font-family="Verdana" font-size="3pt" font-weight="400" font-style="normal"  > <text fill="#ff0000" fill-opacity="1" stroke="none" xml:space="preserve" x="0" y="4" font-family="Verdana" font-size="3pt" font-weight="400" font-style="normal"   >gc39-seq18</text> </g>      <g fill="#267f8e" fill-opacity="1" stroke="none" transform="matrix(1,0,0,1,111,122.5)" font-family="Sans Serif" font-size="9pt" font-weight="400" font-style="normal"  opacity="0.65" > <rect x="0" y="0" width="5" height="5"/> </g>                    <g fill="none" stroke="#d1e2f2" stroke-opacity="1" stroke-width="1" stroke-linecap="butt" stroke-linejoin="bevel" transform="matrix(1,0,0,1,135,119.25)" font-family="Sans Serif" font-size="9pt" font-weight="400" font-style="normal"  > <polyline fill="none" vector-effect="none" points="0,3.25 36,3.25 " /> </g>          <g fill="none" stroke="#ff0000" stroke-opacity="1" stroke-width="1" stroke-linecap="square" stroke-linejoin="bevel" transform="matrix(1,0,0,1,171,119.25)" font-family="Verdana" font-size="3pt" font-weight="400" font-style="normal"  > <text fill="#ff0000" fill-opacity="1" stroke="none" xml:space="preserve" x="0" y="4" font-family="Verdana" font-size="3pt" font-weight="400" font-style="normal"   >gc39-seq4</text> </g>      <g fill="#929292" fill-opacity="1" stroke="none" transform="matrix(1,0,0,1,171,124.25)" font-family="Sans Serif" font-size="9pt" font-weight="400" font-style="normal"  opacity="0.65" > <rect x="0" y="0" width="1.5" height="1.5"/> </g>              <g fill="none" stroke="#929292" stroke-opacity="1" stroke-width="1" stroke-linecap="butt" stroke-linejoin="bevel" transform="matrix(1,0,0,1,75,127.5)" font-family="Sans Serif" font-size="9pt" font-weight="400" font-style="normal"  > <polyline fill="none" vector-effect="non-scaling-stroke" points="14,2.65 14,10.35 " /> </g>                      <g fill="none" stroke="#ff0000" stroke-opacity="1" stroke-width="1" stroke-linecap="square" stroke-linejoin="bevel" transform="matrix(1,0,0,1,75,129)" font-family="Verdana" font-size="3pt" font-weight="400" font-style="normal"  > <text fill="#ff0000" fill-opacity="1" stroke="none" xml:space="preserve" x="0" y="4" font-family="Verdana" font-size="3pt" font-weight="400" font-style="normal"   >gc39-9</text> </g>      <g fill="#443982" fill-opacity="1" stroke="none" transform="matrix(1,0,0,1,75,134)" font-family="Sans Serif" font-size="9pt" font-weight="400" font-style="normal"  opacity="0.65" > <rect x="0" y="0" width="5" height="5"/> </g>                    <g fill="none" stroke="#fdddce" stroke-opacity="1" stroke-width="1" stroke-linecap="butt" stroke-linejoin="bevel" transform="matrix(1,0,0,1,89,127.5)" font-family="Sans Serif" font-size="9pt" font-weight="400" font-style="normal"  > <polyline fill="none" vector-effect="none" points="0,3.25 72,3.25 " /> </g>          <g fill="none" stroke="#ff0000" stroke-opacity="1" stroke-width="1" stroke-linecap="square" stroke-linejoin="bevel" transform="matrix(1,0,0,1,161,127.5)" font-family="Verdana" font-size="3pt" font-weight="400" font-style="normal"  > <text fill="#ff0000" fill-opacity="1" stroke="none" xml:space="preserve" x="0" y="4" font-family="Verdana" font-size="3pt" font-weight="400" font-style="normal"   >gc39-seq14</text> </g>      <g fill="#929292" fill-opacity="1" stroke="none" transform="matrix(1,0,0,1,161,132.5)" font-family="Sans Serif" font-size="9pt" font-weight="400" font-style="normal"  opacity="0.65" > <rect x="0" y="0" width="1.5" height="1.5"/> </g>                    <g fill="none" stroke="#b1d2e7" stroke-opacity="1" stroke-width="1" stroke-linecap="butt" stroke-linejoin="bevel" transform="matrix(1,0,0,1,89,134)" font-family="Sans Serif" font-size="9pt" font-weight="400" font-style="normal"  > <polyline fill="none" vector-effect="none" points="0,3.25 72,3.25 " /> </g>          <g fill="none" stroke="#ff0000" stroke-opacity="1" stroke-width="1" stroke-linecap="square" stroke-linejoin="bevel" transform="matrix(1,0,0,1,161,134)" font-family="Verdana" font-size="3pt" font-weight="400" font-style="normal"  > <text fill="#ff0000" fill-opacity="1" stroke="none" xml:space="preserve" x="0" y="4" font-family="Verdana" font-size="3pt" font-weight="400" font-style="normal"   >gc39-seq22</text> </g>      <g fill="#929292" fill-opacity="1" stroke="none" transform="matrix(1,0,0,1,161,139)" font-family="Sans Serif" font-size="9pt" font-weight="400" font-style="normal"  opacity="0.65" > <rect x="0" y="0" width="1.5" height="1.5"/> </g>              <g fill="none" stroke="#929292" stroke-opacity="1" stroke-width="1" stroke-linecap="butt" stroke-linejoin="bevel" transform="matrix(1,0,0,1,75,140.5)" font-family="Sans Serif" font-size="9pt" font-weight="400" font-style="normal"  > <polyline fill="none" vector-effect="non-scaling-stroke" points="93,2.65 93,3.85 " /> </g>            <g fill="none" stroke="#fdd7c7" stroke-opacity="1" stroke-width="1" stroke-linecap="butt" stroke-linejoin="bevel" transform="matrix(1,0,0,1,75,140.5)" font-family="Sans Serif" font-size="9pt" font-weight="400" font-style="normal"  > <polyline fill="none" vector-effect="none" points="0,3.25 72,3.25 " /> </g>          <g fill="none" stroke="#ff0000" stroke-opacity="1" stroke-width="1" stroke-linecap="square" stroke-linejoin="bevel" transform="matrix(1,0,0,1,147,140.5)" font-family="Verdana" font-size="3pt" font-weight="400" font-style="normal"  > <text fill="#ff0000" fill-opacity="1" stroke="none" xml:space="preserve" x="0" y="4" font-family="Verdana" font-size="3pt" font-weight="400" font-style="normal"   >gc39-seq1</text> </g>      <g fill="#929292" fill-opacity="1" stroke="none" transform="matrix(1,0,0,1,147,145.5)" font-family="Sans Serif" font-size="9pt" font-weight="400" font-style="normal"  opacity="0.65" > <rect x="0" y="0" width="1.5" height="1.5"/> </g>                              <g fill="none" stroke="#ff0000" stroke-opacity="1" stroke-width="1" stroke-linecap="square" stroke-linejoin="bevel" transform="matrix(1,0,0,1,168,140.5)" font-family="Verdana" font-size="3pt" font-weight="400" font-style="normal"  > <text fill="#ff0000" fill-opacity="1" stroke="none" xml:space="preserve" x="0" y="4" font-family="Verdana" font-size="3pt" font-weight="400" font-style="normal"   >gc39-seq15</text> </g>      <g fill="#929292" fill-opacity="1" stroke="none" transform="matrix(1,0,0,1,168,145.5)" font-family="Sans Serif" font-size="9pt" font-weight="400" font-style="normal"  opacity="0.65" > <rect x="0" y="0" width="1.5" height="1.5"/> </g>              <g fill="none" stroke="#929292" stroke-opacity="1" stroke-width="1" stroke-linecap="butt" stroke-linejoin="bevel" transform="matrix(1,0,0,1,75,147)" font-family="Sans Serif" font-size="9pt" font-weight="400" font-style="normal"  > <polyline fill="none" vector-effect="non-scaling-stroke" points="14,2.65 14,36.35 " /> </g>                      <g fill="none" stroke="#ff0000" stroke-opacity="1" stroke-width="1" stroke-linecap="square" stroke-linejoin="bevel" transform="matrix(1,0,0,1,75,161.5)" font-family="Verdana" font-size="3pt" font-weight="400" font-style="normal"  > <text fill="#ff0000" fill-opacity="1" stroke="none" xml:space="preserve" x="0" y="4" font-family="Verdana" font-size="3pt" font-weight="400" font-style="normal"   >gc39-5</text> </g>      <g fill="#33608d" fill-opacity="1" stroke="none" transform="matrix(1,0,0,1,75,166.5)" font-family="Sans Serif" font-size="9pt" font-weight="400" font-style="normal"  opacity="0.65" > <rect x="0" y="0" width="5" height="5"/> </g>                              <g fill="none" stroke="#ff0000" stroke-opacity="1" stroke-width="1" stroke-linecap="square" stroke-linejoin="bevel" transform="matrix(1,0,0,1,89,147)" font-family="Verdana" font-size="3pt" font-weight="400" font-style="normal"  > <text fill="#ff0000" fill-opacity="1" stroke="none" xml:space="preserve" x="0" y="4" font-family="Verdana" font-size="3pt" font-weight="400" font-style="normal"   >gc39-seq11</text> </g>      <g fill="#929292" fill-opacity="1" stroke="none" transform="matrix(1,0,0,1,89,152)" font-family="Sans Serif" font-size="9pt" font-weight="400" font-style="normal"  opacity="0.65" > <rect x="0" y="0" width="1.5" height="1.5"/> </g>                    <g fill="none" stroke="#c5161b" stroke-opacity="1" stroke-width="1" stroke-linecap="butt" stroke-linejoin="bevel" transform="matrix(1,0,0,1,89,153.5)" font-family="Sans Serif" font-size="9pt" font-weight="400" font-style="normal"  > <polyline fill="none" vector-effect="none" points="0,3.25 36,3.25 " /> </g>          <g fill="none" stroke="#ff0000" stroke-opacity="1" stroke-width="1" stroke-linecap="square" stroke-linejoin="bevel" transform="matrix(1,0,0,1,125,153.5)" font-family="Verdana" font-size="3pt" font-weight="400" font-style="normal"  > <text fill="#ff0000" fill-opacity="1" stroke="none" xml:space="preserve" x="0" y="4" font-family="Verdana" font-size="3pt" font-weight="400" font-style="normal"   >gc39-seq9</text> </g>      <g fill="#929292" fill-opacity="1" stroke="none" transform="matrix(1,0,0,1,125,158.5)" font-family="Sans Serif" font-size="9pt" font-weight="400" font-style="normal"  opacity="0.65" > <rect x="0" y="0" width="1.5" height="1.5"/> </g>              <g fill="none" stroke="#929292" stroke-opacity="1" stroke-width="1" stroke-linecap="butt" stroke-linejoin="bevel" transform="matrix(1,0,0,1,89,160)" font-family="Sans Serif" font-size="9pt" font-weight="400" font-style="normal"  > <polyline fill="none" vector-effect="non-scaling-stroke" points="53,2.65 53,10.35 " /> </g>            <g fill="none" stroke="#fb7454" stroke-opacity="1" stroke-width="1" stroke-linecap="butt" stroke-linejoin="bevel" transform="matrix(1,0,0,1,89,160)" font-family="Sans Serif" font-size="9pt" font-weight="400" font-style="normal"  > <polyline fill="none" vector-effect="none" points="0,6.5 36,6.5 " /> </g>          <g fill="none" stroke="#ff0000" stroke-opacity="1" stroke-width="1" stroke-linecap="square" stroke-linejoin="bevel" transform="matrix(1,0,0,1,125,161.5)" font-family="Verdana" font-size="3pt" font-weight="400" font-style="normal"  > <text fill="#ff0000" fill-opacity="1" stroke="none" xml:space="preserve" x="0" y="4" font-family="Verdana" font-size="3pt" font-weight="400" font-style="normal"   >gc39-10</text> </g>      <g fill="#23a982" fill-opacity="1" stroke="none" transform="matrix(1,0,0,1,125,166.5)" font-family="Sans Serif" font-size="9pt" font-weight="400" font-style="normal"  opacity="0.65" > <rect x="0" y="0" width="5" height="5"/> </g>                    <g fill="none" stroke="#fddccd" stroke-opacity="1" stroke-width="1" stroke-linecap="butt" stroke-linejoin="bevel" transform="matrix(1,0,0,1,142,160)" font-family="Sans Serif" font-size="9pt" font-weight="400" font-style="normal"  > <polyline fill="none" vector-effect="none" points="0,3.25 36,3.25 " /> </g>          <g fill="none" stroke="#ff0000" stroke-opacity="1" stroke-width="1" stroke-linecap="square" stroke-linejoin="bevel" transform="matrix(1,0,0,1,178,160)" font-family="Verdana" font-size="3pt" font-weight="400" font-style="normal"  > <text fill="#ff0000" fill-opacity="1" stroke="none" xml:space="preserve" x="0" y="4" font-family="Verdana" font-size="3pt" font-weight="400" font-style="normal"   >gc39-seq16</text> </g>      <g fill="#929292" fill-opacity="1" stroke="none" transform="matrix(1,0,0,1,178,165)" font-family="Sans Serif" font-size="9pt" font-weight="400" font-style="normal"  opacity="0.65" > <rect x="0" y="0" width="1.5" height="1.5"/> </g>                    <g fill="none" stroke="#d4e4f3" stroke-opacity="1" stroke-width="1" stroke-linecap="butt" stroke-linejoin="bevel" transform="matrix(1,0,0,1,142,166.5)" font-family="Sans Serif" font-size="9pt" font-weight="400" font-style="normal"  > <polyline fill="none" vector-effect="none" points="0,3.25 72,3.25 " /> </g>          <g fill="none" stroke="#ff0000" stroke-opacity="1" stroke-width="1" stroke-linecap="square" stroke-linejoin="bevel" transform="matrix(1,0,0,1,214,166.5)" font-family="Verdana" font-size="3pt" font-weight="400" font-style="normal"  > <text fill="#ff0000" fill-opacity="1" stroke="none" xml:space="preserve" x="0" y="4" font-family="Verdana" font-size="3pt" font-weight="400" font-style="normal"   >gc39-seq23</text> </g>      <g fill="#929292" fill-opacity="1" stroke="none" transform="matrix(1,0,0,1,214,171.5)" font-family="Sans Serif" font-size="9pt" font-weight="400" font-style="normal"  opacity="0.65" > <rect x="0" y="0" width="1.5" height="1.5"/> </g>              <g fill="none" stroke="#929292" stroke-opacity="1" stroke-width="1" stroke-linecap="butt" stroke-linejoin="bevel" transform="matrix(1,0,0,1,89,173)" font-family="Sans Serif" font-size="9pt" font-weight="400" font-style="normal"  > <polyline fill="none" vector-effect="non-scaling-stroke" points="50,3.25 50,16.85 " /> </g>            <g fill="none" stroke="#cfe1f2" stroke-opacity="1" stroke-width="1" stroke-linecap="butt" stroke-linejoin="bevel" transform="matrix(1,0,0,1,89,173)" font-family="Sans Serif" font-size="9pt" font-weight="400" font-style="normal"  > <polyline fill="none" vector-effect="none" points="0,9.75 36,9.75 " /> </g>          <g fill="none" stroke="#ff0000" stroke-opacity="1" stroke-width="1" stroke-linecap="square" stroke-linejoin="bevel" transform="matrix(1,0,0,1,125,177.75)" font-family="Verdana" font-size="3pt" font-weight="400" font-style="normal"  > <text fill="#ff0000" fill-opacity="1" stroke="none" xml:space="preserve" x="0" y="4" font-family="Verdana" font-size="3pt" font-weight="400" font-style="normal"   >gc39-8</text> </g>      <g fill="#267f8e" fill-opacity="1" stroke="none" transform="matrix(1,0,0,1,125,182.75)" font-family="Sans Serif" font-size="9pt" font-weight="400" font-style="normal"  opacity="0.65" > <rect x="0" y="0" width="5" height="5"/> </g>                              <g fill="none" stroke="#ff0000" stroke-opacity="1" stroke-width="1" stroke-linecap="square" stroke-linejoin="bevel" transform="matrix(1,0,0,1,139,173)" font-family="Verdana" font-size="3pt" font-weight="400" font-style="normal"  > <text fill="#ff0000" fill-opacity="1" stroke="none" xml:space="preserve" x="0" y="4" font-family="Verdana" font-size="3pt" font-weight="400" font-style="normal"   >gc39-seq24</text> </g>      <g fill="#929292" fill-opacity="1" stroke="none" transform="matrix(1,0,0,1,139,178)" font-family="Sans Serif" font-size="9pt" font-weight="400" font-style="normal"  opacity="0.65" > <rect x="0" y="0" width="1.5" height="1.5"/> </g>                              <g fill="none" stroke="#ff0000" stroke-opacity="1" stroke-width="1" stroke-linecap="square" stroke-linejoin="bevel" transform="matrix(1,0,0,1,139,179.5)" font-family="Verdana" font-size="3pt" font-weight="400" font-style="normal"  > <text fill="#ff0000" fill-opacity="1" stroke="none" xml:space="preserve" x="0" y="4" font-family="Verdana" font-size="3pt" font-weight="400" font-style="normal"   >gc39-seq19</text> </g>      <g fill="#929292" fill-opacity="1" stroke="none" transform="matrix(1,0,0,1,139,184.5)" font-family="Sans Serif" font-size="9pt" font-weight="400" font-style="normal"  opacity="0.65" > <rect x="0" y="0" width="1.5" height="1.5"/> </g>                    <g fill="none" stroke="#c8dcef" stroke-opacity="1" stroke-width="1" stroke-linecap="butt" stroke-linejoin="bevel" transform="matrix(1,0,0,1,139,186)" font-family="Sans Serif" font-size="9pt" font-weight="400" font-style="normal"  > <polyline fill="none" vector-effect="none" points="0,3.25 36,3.25 " /> </g>          <g fill="none" stroke="#ff0000" stroke-opacity="1" stroke-width="1" stroke-linecap="square" stroke-linejoin="bevel" transform="matrix(1,0,0,1,175,186)" font-family="Verdana" font-size="3pt" font-weight="400" font-style="normal"  > <text fill="#ff0000" fill-opacity="1" stroke="none" xml:space="preserve" x="0" y="4" font-family="Verdana" font-size="3pt" font-weight="400" font-style="normal"   >gc39-seq17</text> </g>      <g fill="#929292" fill-opacity="1" stroke="none" transform="matrix(1,0,0,1,175,191)" font-family="Sans Serif" font-size="9pt" font-weight="400" font-style="normal"  opacity="0.65" > <rect x="0" y="0" width="1.5" height="1.5"/> </g>                                                                                                                                              <g fill="none" stroke="#000000" stroke-opacity="1" stroke-width="1" stroke-linecap="square" stroke-linejoin="bevel" transform="matrix(1,0,0,1,2,0)" font-family="Verdana" font-size="4pt" font-weight="400" font-style="normal"  > <text fill="#000000" fill-opacity="1" stroke="none" xml:space="preserve" x="0" y="6" font-family="Verdana" font-size="4pt" font-weight="400" font-style="normal"   >   AA lb ratio </text> </g>                          <g fill="#443982" fill-opacity="1" stroke="none" transform="matrix(1,0,0,1,41,1)" font-family="Sans Serif" font-size="9pt" font-weight="400" font-style="normal"  opacity="0.65" > <rect x="0" y="0" width="6" height="6"/> </g>      <g fill="#2c728e" fill-opacity="1" stroke="none" transform="matrix(1,0,0,1,41,9)" font-family="Sans Serif" font-size="9pt" font-weight="400" font-style="normal"  opacity="0.65" > <rect x="0" y="0" width="6" height="6"/> </g>      <g fill="#20a485" fill-opacity="1" stroke="none" transform="matrix(1,0,0,1,41,17)" font-family="Sans Serif" font-size="9pt" font-weight="400" font-style="normal"  opacity="0.65" > <rect x="0" y="0" width="6" height="6"/> </g>      <g fill="#74d054" fill-opacity="1" stroke="none" transform="matrix(1,0,0,1,41,25)" font-family="Sans Serif" font-size="9pt" font-weight="400" font-style="normal"  opacity="0.65" > <rect x="0" y="0" width="6" height="6"/> </g>      <g fill="#fde724" fill-opacity="1" stroke="none" transform="matrix(1,0,0,1,41,33)" font-family="Sans Serif" font-size="9pt" font-weight="400" font-style="normal"  opacity="0.65" > <rect x="0" y="0" width="6" height="6"/> </g>      <g fill="none" stroke="#000000" stroke-opacity="1" stroke-width="1" stroke-linecap="square" stroke-linejoin="bevel" transform="matrix(1,0,0,1,47,0)" font-family="Verdana" font-size="4pt" font-weight="400" font-style="normal"  > <text fill="#000000" fill-opacity="1" stroke="none" xml:space="preserve" x="0" y="6" font-family="Verdana" font-size="4pt" font-weight="400" font-style="normal"   >  0.28</text> </g>      <g fill="none" stroke="#000000" stroke-opacity="1" stroke-width="1" stroke-linecap="square" stroke-linejoin="bevel" transform="matrix(1,0,0,1,47,8)" font-family="Verdana" font-size="4pt" font-weight="400" font-style="normal"  > <text fill="#000000" fill-opacity="1" stroke="none" xml:space="preserve" x="0" y="6" font-family="Verdana" font-size="4pt" font-weight="400" font-style="normal"   >  0.65</text> </g>      <g fill="none" stroke="#000000" stroke-opacity="1" stroke-width="1" stroke-linecap="square" stroke-linejoin="bevel" transform="matrix(1,0,0,1,47,16)" font-family="Verdana" font-size="4pt" font-weight="400" font-style="normal"  > <text fill="#000000" fill-opacity="1" stroke="none" xml:space="preserve" x="0" y="6" font-family="Verdana" font-size="4pt" font-weight="400" font-style="normal"   >  1.49</text> </g>      <g fill="none" stroke="#000000" stroke-opacity="1" stroke-width="1" stroke-linecap="square" stroke-linejoin="bevel" transform="matrix(1,0,0,1,47,24)" font-family="Verdana" font-size="4pt" font-weight="400" font-style="normal"  > <text fill="#000000" fill-opacity="1" stroke="none" xml:space="preserve" x="0" y="6" font-family="Verdana" font-size="4pt" font-weight="400" font-style="normal"   >  3.40</text> </g>      <g fill="none" stroke="#000000" stroke-opacity="1" stroke-width="1" stroke-linecap="square" stroke-linejoin="bevel" transform="matrix(1,0,0,1,47,32)" font-family="Verdana" font-size="4pt" font-weight="400" font-style="normal"  > <text fill="#000000" fill-opacity="1" stroke="none" xml:space="preserve" x="0" y="6" font-family="Verdana" font-size="4pt" font-weight="400" font-style="normal"   >  7.78</text> </g>      <g fill="none" stroke="#000000" stroke-opacity="1" stroke-width="1" stroke-linecap="square" stroke-linejoin="bevel" transform="matrix(1,0,0,1,65,0)" font-family="Verdana" font-size="4pt" font-weight="400" font-style="normal"  > <text fill="#000000" fill-opacity="1" stroke="none" xml:space="preserve" x="0" y="6" font-family="Verdana" font-size="4pt" font-weight="400" font-style="normal"   >   affinity decrease </text> </g>                          <g fill="#ddeaf6" fill-opacity="1" stroke="none" transform="matrix(1,0,0,1,123,1)" font-family="Sans Serif" font-size="9pt" font-weight="400" font-style="normal"  > <rect x="0" y="0" width="6" height="6"/> </g>      <g fill="#bad6ea" fill-opacity="1" stroke="none" transform="matrix(1,0,0,1,123,9)" font-family="Sans Serif" font-size="9pt" font-weight="400" font-style="normal"  > <rect x="0" y="0" width="6" height="6"/> </g>      <g fill="#80b9da" fill-opacity="1" stroke="none" transform="matrix(1,0,0,1,123,17)" font-family="Sans Serif" font-size="9pt" font-weight="400" font-style="normal"  > <rect x="0" y="0" width="6" height="6"/> </g>      <g fill="#4795c8" fill-opacity="1" stroke="none" transform="matrix(1,0,0,1,123,25)" font-family="Sans Serif" font-size="9pt" font-weight="400" font-style="normal"  > <rect x="0" y="0" width="6" height="6"/> </g>      <g fill="#1d6cb1" fill-opacity="1" stroke="none" transform="matrix(1,0,0,1,123,33)" font-family="Sans Serif" font-size="9pt" font-weight="400" font-style="normal"  > <rect x="0" y="0" width="6" height="6"/> </g>      <g fill="none" stroke="#000000" stroke-opacity="1" stroke-width="1" stroke-linecap="square" stroke-linejoin="bevel" transform="matrix(1,0,0,1,129,0)" font-family="Verdana" font-size="4pt" font-weight="400" font-style="normal"  > <text fill="#000000" fill-opacity="1" stroke="none" xml:space="preserve" x="0" y="6" font-family="Verdana" font-size="4pt" font-weight="400" font-style="normal"   >  -0.011</text> </g>      <g fill="none" stroke="#000000" stroke-opacity="1" stroke-width="1" stroke-linecap="square" stroke-linejoin="bevel" transform="matrix(1,0,0,1,129,8)" font-family="Verdana" font-size="4pt" font-weight="400" font-style="normal"  > <text fill="#000000" fill-opacity="1" stroke="none" xml:space="preserve" x="0" y="6" font-family="Verdana" font-size="4pt" font-weight="400" font-style="normal"   >  -0.82</text> </g>      <g fill="none" stroke="#000000" stroke-opacity="1" stroke-width="1" stroke-linecap="square" stroke-linejoin="bevel" transform="matrix(1,0,0,1,129,16)" font-family="Verdana" font-size="4pt" font-weight="400" font-style="normal"  > <text fill="#000000" fill-opacity="1" stroke="none" xml:space="preserve" x="0" y="6" font-family="Verdana" font-size="4pt" font-weight="400" font-style="normal"   >  -1.6</text> </g>      <g fill="none" stroke="#000000" stroke-opacity="1" stroke-width="1" stroke-linecap="square" stroke-linejoin="bevel" transform="matrix(1,0,0,1,129,24)" font-family="Verdana" font-size="4pt" font-weight="400" font-style="normal"  > <text fill="#000000" fill-opacity="1" stroke="none" xml:space="preserve" x="0" y="6" font-family="Verdana" font-size="4pt" font-weight="400" font-style="normal"   >  -2.5</text> </g>      <g fill="none" stroke="#000000" stroke-opacity="1" stroke-width="1" stroke-linecap="square" stroke-linejoin="bevel" transform="matrix(1,0,0,1,129,32)" font-family="Verdana" font-size="4pt" font-weight="400" font-style="normal"  > <text fill="#000000" fill-opacity="1" stroke="none" xml:space="preserve" x="0" y="6" font-family="Verdana" font-size="4pt" font-weight="400" font-style="normal"   >  -3.3</text> </g>      <g fill="none" stroke="#000000" stroke-opacity="1" stroke-width="1" stroke-linecap="square" stroke-linejoin="bevel" transform="matrix(1,0,0,1,153,0)" font-family="Verdana" font-size="4pt" font-weight="400" font-style="normal"  > <text fill="#000000" fill-opacity="1" stroke="none" xml:space="preserve" x="0" y="6" font-family="Verdana" font-size="4pt" font-weight="400" font-style="normal"   >   affinity increase </text> </g>                          <g fill="#fddfd1" fill-opacity="1" stroke="none" transform="matrix(1,0,0,1,209,1)" font-family="Sans Serif" font-size="9pt" font-weight="400" font-style="normal"  > <rect x="0" y="0" width="6" height="6"/> </g>      <g fill="#fcaf93" fill-opacity="1" stroke="none" transform="matrix(1,0,0,1,209,9)" font-family="Sans Serif" font-size="9pt" font-weight="400" font-style="normal"  > <rect x="0" y="0" width="6" height="6"/> </g>      <g fill="#fb7a5a" fill-opacity="1" stroke="none" transform="matrix(1,0,0,1,209,17)" font-family="Sans Serif" font-size="9pt" font-weight="400" font-style="normal"  > <rect x="0" y="0" width="6" height="6"/> </g>      <g fill="#f04130" fill-opacity="1" stroke="none" transform="matrix(1,0,0,1,209,25)" font-family="Sans Serif" font-size="9pt" font-weight="400" font-style="normal"  > <rect x="0" y="0" width="6" height="6"/> </g>      <g fill="#c5161b" fill-opacity="1" stroke="none" transform="matrix(1,0,0,1,209,33)" font-family="Sans Serif" font-size="9pt" font-weight="400" font-style="normal"  > <rect x="0" y="0" width="6" height="6"/> </g>      <g fill="none" stroke="#000000" stroke-opacity="1" stroke-width="1" stroke-linecap="square" stroke-linejoin="bevel" transform="matrix(1,0,0,1,215,0)" font-family="Verdana" font-size="4pt" font-weight="400" font-style="normal"  > <text fill="#000000" fill-opacity="1" stroke="none" xml:space="preserve" x="0" y="6" font-family="Verdana" font-size="4pt" font-weight="400" font-style="normal"   >  +0.014</text> </g>      <g fill="none" stroke="#000000" stroke-opacity="1" stroke-width="1" stroke-linecap="square" stroke-linejoin="bevel" transform="matrix(1,0,0,1,215,8)" font-family="Verdana" font-size="4pt" font-weight="400" font-style="normal"  > <text fill="#000000" fill-opacity="1" stroke="none" xml:space="preserve" x="0" y="6" font-family="Verdana" font-size="4pt" font-weight="400" font-style="normal"   >  +0.42</text> </g>      <g fill="none" stroke="#000000" stroke-opacity="1" stroke-width="1" stroke-linecap="square" stroke-linejoin="bevel" transform="matrix(1,0,0,1,215,16)" font-family="Verdana" font-size="4pt" font-weight="400" font-style="normal"  > <text fill="#000000" fill-opacity="1" stroke="none" xml:space="preserve" x="0" y="6" font-family="Verdana" font-size="4pt" font-weight="400" font-style="normal"   >  +0.82</text> </g>      <g fill="none" stroke="#000000" stroke-opacity="1" stroke-width="1" stroke-linecap="square" stroke-linejoin="bevel" transform="matrix(1,0,0,1,215,24)" font-family="Verdana" font-size="4pt" font-weight="400" font-style="normal"  > <text fill="#000000" fill-opacity="1" stroke="none" xml:space="preserve" x="0" y="6" font-family="Verdana" font-size="4pt" font-weight="400" font-style="normal"   >  +1.2</text> </g>      <g fill="none" stroke="#000000" stroke-opacity="1" stroke-width="1" stroke-linecap="square" stroke-linejoin="bevel" transform="matrix(1,0,0,1,215,32)" font-family="Verdana" font-size="4pt" font-weight="400" font-style="normal"  > <text fill="#000000" fill-opacity="1" stroke="none" xml:space="preserve" x="0" y="6" font-family="Verdana" font-size="4pt" font-weight="400" font-style="normal"   >  +1.6</text> </g>      <g fill="none" stroke="#000000" stroke-opacity="1" stroke-width="1" stroke-linecap="square" stroke-linejoin="bevel" transform="matrix(1,0,0,1,1,193.5)" font-family="Sans Serif" font-size="9pt" font-weight="400" font-style="normal"  > <polyline fill="none" vector-effect="none" points="0,5 50,5 " /> </g>      <g fill="none" stroke="#000000" stroke-opacity="1" stroke-width="1" stroke-linecap="square" stroke-linejoin="bevel" transform="matrix(1,0,0,1,1,193.5)" font-family="Sans Serif" font-size="9pt" font-weight="400" font-style="normal"  > <polyline fill="none" vector-effect="none" points="0,0 0,10 " /> </g>      <g fill="none" stroke="#000000" stroke-opacity="1" stroke-width="1" stroke-linecap="square" stroke-linejoin="bevel" transform="matrix(1,0,0,1,1,193.5)" font-family="Sans Serif" font-size="9pt" font-weight="400" font-style="normal"  > <polyline fill="none" vector-effect="none" points="50,0 50,10 " /> </g>      <g fill="none" stroke="#000000" stroke-opacity="1" stroke-width="1" stroke-linecap="square" stroke-linejoin="bevel" transform="matrix(1,0,0,1,1,203.5)" font-family="Sans Serif" font-size="9pt" font-weight="400" font-style="normal"  > <text fill="#000000" fill-opacity="1" stroke="none" xml:space="preserve" x="0" y="13" font-family="Sans Serif" font-size="9pt" font-weight="400" font-style="normal"   >0.0124008</text> </g>     </g> </svg> 