<?xml version="1.0" encoding="UTF-8" standalone="no"?> <svg width="85.0194mm" height="105.833mm"  viewBox="0 0 241 300.661"  xmlns="http://www.w3.org/2000/svg" xmlns:xlink="http://www.w3.org/1999/xlink"  version="1.2" baseProfile="tiny"> <title>Generated with ETE http://etetoolkit.org</title> <desc>Generated with ETE http://etetoolkit.org</desc> <defs> </defs> <g fill="none" stroke="black" stroke-width="1" fill-rule="evenodd" stroke-linecap="square" stroke-linejoin="bevel" >      <g fill="none" stroke="none" transform="matrix(1,0,0,1,0,50)" font-family="Sans Serif" font-size="9pt" font-weight="400" font-style="normal"  > <rect x="0" y="-50" width="241" height="300.661"/> </g>      <g fill="none" stroke="none" transform="matrix(1,0,0,1,1,51)" font-family="Sans Serif" font-size="9pt" font-weight="400" font-style="normal"  > <rect x="0" y="0" width="239" height="198.661"/> </g>                                                                                                                                  <g fill="none" stroke="#000000" stroke-opacity="1" stroke-width="1" stroke-linecap="butt" stroke-linejoin="bevel" transform="matrix(1,0,0,1,1,51)" font-family="Sans Serif" font-size="9pt" font-weight="400" font-style="normal"  > <polyline fill="none" vector-effect="non-scaling-stroke" points="24,11.046 24,103.695 " /> </g>                      <g fill="none" stroke="#ff0000" stroke-opacity="1" stroke-width="1" stroke-linecap="square" stroke-linejoin="bevel" transform="matrix(1,0,0,1,1,103.957)" font-family="Verdana" font-size="3pt" font-weight="400" font-style="normal"  > <text fill="#ff0000" fill-opacity="1" stroke="none" xml:space="preserve" x="0" y="4" font-family="Verdana" font-size="3pt" font-weight="400" font-style="normal"   >gc39-naive</text> </g>      <g fill="#77d052" fill-opacity="1" stroke="none" transform="matrix(1,0,0,1,1,108.957)" font-family="Sans Serif" font-size="9pt" font-weight="400" font-style="normal"  opacity="0.65" > <rect x="0" y="0" width="3.82696" height="3.82696"/> </g>              <g fill="none" stroke="#000000" stroke-opacity="1" stroke-width="1" stroke-linecap="butt" stroke-linejoin="bevel" transform="matrix(1,0,0,1,25,51)" font-family="Sans Serif" font-size="9pt" font-weight="400" font-style="normal"  > <polyline fill="none" vector-effect="non-scaling-stroke" points="122,3.25 122,18.842 " /> </g>            <g fill="none" stroke="#000000" stroke-opacity="1" stroke-width="1" stroke-linecap="butt" stroke-linejoin="bevel" transform="matrix(1,0,0,1,25,51)" font-family="Sans Serif" font-size="9pt" font-weight="400" font-style="normal"  > <polyline fill="none" vector-effect="non-scaling-stroke" points="0,11.046 108,11.046 " /> </g>          <g fill="none" stroke="#ff0000" stroke-opacity="1" stroke-width="1" stroke-linecap="square" stroke-linejoin="bevel" transform="matrix(1,0,0,1,133,57.932)" font-family="Verdana" font-size="3pt" font-weight="400" font-style="normal"  > <text fill="#ff0000" fill-opacity="1" stroke="none" xml:space="preserve" x="0" y="4" font-family="Verdana" font-size="3pt" font-weight="400" font-style="normal"   >gc39-2</text> </g>      <g fill="#228a8d" fill-opacity="1" stroke="none" transform="matrix(1,0,0,1,133,62.932)" font-family="Sans Serif" font-size="9pt" font-weight="400" font-style="normal"  opacity="0.65" > <rect x="0" y="0" width="3.22802" height="3.22802"/> </g>                    <g fill="none" stroke="#000000" stroke-opacity="1" stroke-width="1" stroke-linecap="butt" stroke-linejoin="bevel" transform="matrix(1,0,0,1,147,51)" font-family="Sans Serif" font-size="9pt" font-weight="400" font-style="normal"  > <polyline fill="none" vector-effect="non-scaling-stroke" points="0,3.25 72,3.25 " /> </g>          <g fill="none" stroke="#ff0000" stroke-opacity="1" stroke-width="1" stroke-linecap="square" stroke-linejoin="bevel" transform="matrix(1,0,0,1,219,51)" font-family="Verdana" font-size="3pt" font-weight="400" font-style="normal"  > <text fill="#ff0000" fill-opacity="1" stroke="none" xml:space="preserve" x="0" y="4" font-family="Verdana" font-size="3pt" font-weight="400" font-style="normal"   >gc39-seq2</text> </g>      <g fill="#443982" fill-opacity="1" stroke="none" transform="matrix(1,0,0,1,219,56)" font-family="Sans Serif" font-size="9pt" font-weight="400" font-style="normal"  opacity="0.65" > <rect x="0" y="0" width="1.5" height="1.5"/> </g>              <g fill="none" stroke="#000000" stroke-opacity="1" stroke-width="1" stroke-linecap="butt" stroke-linejoin="bevel" transform="matrix(1,0,0,1,147,57.5)" font-family="Sans Serif" font-size="9pt" font-weight="400" font-style="normal"  > <polyline fill="none" vector-effect="non-scaling-stroke" points="24,4.11401 24,20.5701 " /> </g>                      <g fill="none" stroke="#ff0000" stroke-opacity="1" stroke-width="1" stroke-linecap="square" stroke-linejoin="bevel" transform="matrix(1,0,0,1,147,65.728)" font-family="Verdana" font-size="3pt" font-weight="400" font-style="normal"  > <text fill="#ff0000" fill-opacity="1" stroke="none" xml:space="preserve" x="0" y="4" font-family="Verdana" font-size="3pt" font-weight="400" font-style="normal"   >gc39-seq10</text> </g>      <g fill="#22898d" fill-opacity="1" stroke="none" transform="matrix(1,0,0,1,147,70.728)" font-family="Sans Serif" font-size="9pt" font-weight="400" font-style="normal"  opacity="0.65" > <rect x="0" y="0" width="3.22802" height="3.22802"/> </g>                              <g fill="none" stroke="#ff0000" stroke-opacity="1" stroke-width="1" stroke-linecap="square" stroke-linejoin="bevel" transform="matrix(1,0,0,1,171,57.5)" font-family="Verdana" font-size="3pt" font-weight="400" font-style="normal"  > <text fill="#ff0000" fill-opacity="1" stroke="none" xml:space="preserve" x="0" y="4" font-family="Verdana" font-size="3pt" font-weight="400" font-style="normal"   >gc39-seq5</text> </g>      <g fill="#22898d" fill-opacity="1" stroke="none" transform="matrix(1,0,0,1,171,62.5)" font-family="Sans Serif" font-size="9pt" font-weight="400" font-style="normal"  opacity="0.65" > <rect x="0" y="0" width="3.22802" height="3.22802"/> </g>                              <g fill="none" stroke="#ff0000" stroke-opacity="1" stroke-width="1" stroke-linecap="square" stroke-linejoin="bevel" transform="matrix(1,0,0,1,171,65.728)" font-family="Verdana" font-size="3pt" font-weight="400" font-style="normal"  > <text fill="#ff0000" fill-opacity="1" stroke="none" xml:space="preserve" x="0" y="4" font-family="Verdana" font-size="3pt" font-weight="400" font-style="normal"   >gc39-seq12</text> </g>      <g fill="#22898d" fill-opacity="1" stroke="none" transform="matrix(1,0,0,1,171,70.728)" font-family="Sans Serif" font-size="9pt" font-weight="400" font-style="normal"  opacity="0.65" > <rect x="0" y="0" width="3.22802" height="3.22802"/> </g>                              <g fill="none" stroke="#ff0000" stroke-opacity="1" stroke-width="1" stroke-linecap="square" stroke-linejoin="bevel" transform="matrix(1,0,0,1,171,73.956)" font-family="Verdana" font-size="3pt" font-weight="400" font-style="normal"  > <text fill="#ff0000" fill-opacity="1" stroke="none" xml:space="preserve" x="0" y="4" font-family="Verdana" font-size="3pt" font-weight="400" font-style="normal"   >gc39-seq3</text> </g>      <g fill="#22898d" fill-opacity="1" stroke="none" transform="matrix(1,0,0,1,171,78.956)" font-family="Sans Serif" font-size="9pt" font-weight="400" font-style="normal"  opacity="0.65" > <rect x="0" y="0" width="3.22802" height="3.22802"/> </g>              <g fill="none" stroke="#000000" stroke-opacity="1" stroke-width="1" stroke-linecap="butt" stroke-linejoin="bevel" transform="matrix(1,0,0,1,25,82.1841)" font-family="Sans Serif" font-size="9pt" font-weight="400" font-style="normal"  > <polyline fill="none" vector-effect="non-scaling-stroke" points="50,7.5 50,137.521 " /> </g>            <g fill="none" stroke="#000000" stroke-opacity="1" stroke-width="1" stroke-linecap="butt" stroke-linejoin="bevel" transform="matrix(1,0,0,1,25,82.1841)" font-family="Sans Serif" font-size="9pt" font-weight="400" font-style="normal"  > <polyline fill="none" vector-effect="non-scaling-stroke" points="0,72.5107 36,72.5107 " /> </g>          <g fill="none" stroke="#ff0000" stroke-opacity="1" stroke-width="1" stroke-linecap="square" stroke-linejoin="bevel" transform="matrix(1,0,0,1,61,147.195)" font-family="Verdana" font-size="3pt" font-weight="400" font-style="normal"  > <text fill="#ff0000" fill-opacity="1" stroke="none" xml:space="preserve" x="0" y="4" font-family="Verdana" font-size="3pt" font-weight="400" font-style="normal"   >gc39-3</text> </g>      <g fill="#c5df21" fill-opacity="1" stroke="none" transform="matrix(1,0,0,1,61,152.195)" font-family="Sans Serif" font-size="9pt" font-weight="400" font-style="normal"  opacity="0.65" > <rect x="0" y="0" width="10" height="10"/> </g>                              <g fill="none" stroke="#ff0000" stroke-opacity="1" stroke-width="1" stroke-linecap="square" stroke-linejoin="bevel" transform="matrix(1,0,0,1,75,82.1841)" font-family="Verdana" font-size="3pt" font-weight="400" font-style="normal"  > <text fill="#ff0000" fill-opacity="1" stroke="none" xml:space="preserve" x="0" y="4" font-family="Verdana" font-size="3pt" font-weight="400" font-style="normal"   >gc39-seq20</text> </g>      <g fill="#bade27" fill-opacity="1" stroke="none" transform="matrix(1,0,0,1,75,87.1841)" font-family="Sans Serif" font-size="9pt" font-weight="400" font-style="normal"  opacity="0.65" > <rect x="0" y="0" width="10" height="10"/> </g>                              <g fill="none" stroke="#ff0000" stroke-opacity="1" stroke-width="1" stroke-linecap="square" stroke-linejoin="bevel" transform="matrix(1,0,0,1,75,97.1841)" font-family="Verdana" font-size="3pt" font-weight="400" font-style="normal"  > <text fill="#ff0000" fill-opacity="1" stroke="none" xml:space="preserve" x="0" y="4" font-family="Verdana" font-size="3pt" font-weight="400" font-style="normal"   >gc39-seq8</text> </g>      <g fill="#bfdf24" fill-opacity="1" stroke="none" transform="matrix(1,0,0,1,75,102.184)" font-family="Sans Serif" font-size="9pt" font-weight="400" font-style="normal"  opacity="0.65" > <rect x="0" y="0" width="10" height="10"/> </g>                              <g fill="none" stroke="#ff0000" stroke-opacity="1" stroke-width="1" stroke-linecap="square" stroke-linejoin="bevel" transform="matrix(1,0,0,1,75,112.184)" font-family="Verdana" font-size="3pt" font-weight="400" font-style="normal"  > <text fill="#ff0000" fill-opacity="1" stroke="none" xml:space="preserve" x="0" y="4" font-family="Verdana" font-size="3pt" font-weight="400" font-style="normal"   >gc39-seq7</text> </g>      <g fill="#95d73f" fill-opacity="1" stroke="none" transform="matrix(1,0,0,1,75,117.184)" font-family="Sans Serif" font-size="9pt" font-weight="400" font-style="normal"  opacity="0.65" > <rect x="0" y="0" width="10" height="10"/> </g>                              <g fill="none" stroke="#ff0000" stroke-opacity="1" stroke-width="1" stroke-linecap="square" stroke-linejoin="bevel" transform="matrix(1,0,0,1,75,127.184)" font-family="Verdana" font-size="3pt" font-weight="400" font-style="normal"  > <text fill="#ff0000" fill-opacity="1" stroke="none" xml:space="preserve" x="0" y="4" font-family="Verdana" font-size="3pt" font-weight="400" font-style="normal"   >gc39-seq6</text> </g>      <g fill="#c7e01f" fill-opacity="1" stroke="none" transform="matrix(1,0,0,1,75,132.184)" font-family="Sans Serif" font-size="9pt" font-weight="400" font-style="normal"  opacity="0.65" > <rect x="0" y="0" width="10" height="10"/> </g>                              <g fill="none" stroke="#ff0000" stroke-opacity="1" stroke-width="1" stroke-linecap="square" stroke-linejoin="bevel" transform="matrix(1,0,0,1,75,142.184)" font-family="Verdana" font-size="3pt" font-weight="400" font-style="normal"  > <text fill="#ff0000" fill-opacity="1" stroke="none" xml:space="preserve" x="0" y="4" font-family="Verdana" font-size="3pt" font-weight="400" font-style="normal"   >gc39-seq13</text> </g>      <g fill="#bdde26" fill-opacity="1" stroke="none" transform="matrix(1,0,0,1,75,147.184)" font-family="Sans Serif" font-size="9pt" font-weight="400" font-style="normal"  opacity="0.65" > <rect x="0" y="0" width="10" height="10"/> </g>                    <g fill="none" stroke="#000000" stroke-opacity="1" stroke-width="1" stroke-linecap="butt" stroke-linejoin="bevel" transform="matrix(1,0,0,1,75,157.184)" font-family="Sans Serif" font-size="9pt" font-weight="400" font-style="normal"  > <polyline fill="none" vector-effect="non-scaling-stroke" points="0,3.25268 72,3.25268 " /> </g>          <g fill="none" stroke="#ff0000" stroke-opacity="1" stroke-width="1" stroke-linecap="square" stroke-linejoin="bevel" transform="matrix(1,0,0,1,147,157.184)" font-family="Verdana" font-size="3pt" font-weight="400" font-style="normal"  > <text fill="#ff0000" fill-opacity="1" stroke="none" xml:space="preserve" x="0" y="4" font-family="Verdana" font-size="3pt" font-weight="400" font-style="normal"   >gc39-seq21</text> </g>      <g fill="#cde01d" fill-opacity="1" stroke="none" transform="matrix(1,0,0,1,147,162.184)" font-family="Sans Serif" font-size="9pt" font-weight="400" font-style="normal"  opacity="0.65" > <rect x="0" y="0" width="1.50535" height="1.50535"/> </g>                          <g fill="none" stroke="#000000" stroke-opacity="1" stroke-width="1" stroke-linecap="butt" stroke-linejoin="bevel" transform="matrix(1,0,0,1,75,163.689)" font-family="Sans Serif" font-size="9pt" font-weight="400" font-style="normal"  > <polyline fill="none" vector-effect="non-scaling-stroke" points="0,3.86924 36,3.86924 " /> </g>          <g fill="none" stroke="#ff0000" stroke-opacity="1" stroke-width="1" stroke-linecap="square" stroke-linejoin="bevel" transform="matrix(1,0,0,1,111,163.689)" font-family="Verdana" font-size="3pt" font-weight="400" font-style="normal"  > <text fill="#ff0000" fill-opacity="1" stroke="none" xml:space="preserve" x="0" y="4" font-family="Verdana" font-size="3pt" font-weight="400" font-style="normal"   >gc39-seq18</text> </g>      <g fill="#c5df21" fill-opacity="1" stroke="none" transform="matrix(1,0,0,1,111,168.689)" font-family="Sans Serif" font-size="9pt" font-weight="400" font-style="normal"  opacity="0.65" > <rect x="0" y="0" width="2.73849" height="2.73849"/> </g>                    <g fill="none" stroke="#000000" stroke-opacity="1" stroke-width="1" stroke-linecap="butt" stroke-linejoin="bevel" transform="matrix(1,0,0,1,135,164.306)" font-family="Sans Serif" font-size="9pt" font-weight="400" font-style="normal"  > <polyline fill="none" vector-effect="non-scaling-stroke" points="0,3.25268 36,3.25268 " /> </g>          <g fill="none" stroke="#ff0000" stroke-opacity="1" stroke-width="1" stroke-linecap="square" stroke-linejoin="bevel" transform="matrix(1,0,0,1,171,164.306)" font-family="Verdana" font-size="3pt" font-weight="400" font-style="normal"  > <text fill="#ff0000" fill-opacity="1" stroke="none" xml:space="preserve" x="0" y="4" font-family="Verdana" font-size="3pt" font-weight="400" font-style="normal"   >gc39-seq4</text> </g>      <g fill="#afdc2e" fill-opacity="1" stroke="none" transform="matrix(1,0,0,1,171,169.306)" font-family="Sans Serif" font-size="9pt" font-weight="400" font-style="normal"  opacity="0.65" > <rect x="0" y="0" width="1.50535" height="1.50535"/> </g>              <g fill="none" stroke="#000000" stroke-opacity="1" stroke-width="1" stroke-linecap="butt" stroke-linejoin="bevel" transform="matrix(1,0,0,1,75,171.428)" font-family="Sans Serif" font-size="9pt" font-weight="400" font-style="normal"  > <polyline fill="none" vector-effect="non-scaling-stroke" points="14,4.24732 14,10.7527 " /> </g>                      <g fill="none" stroke="#ff0000" stroke-opacity="1" stroke-width="1" stroke-linecap="square" stroke-linejoin="bevel" transform="matrix(1,0,0,1,75,171.428)" font-family="Verdana" font-size="3pt" font-weight="400" font-style="normal"  > <text fill="#ff0000" fill-opacity="1" stroke="none" xml:space="preserve" x="0" y="4" font-family="Verdana" font-size="3pt" font-weight="400" font-style="normal"   >gc39-9</text> </g>      <g fill="#d2e11b" fill-opacity="1" stroke="none" transform="matrix(1,0,0,1,75,176.428)" font-family="Sans Serif" font-size="9pt" font-weight="400" font-style="normal"  opacity="0.65" > <rect x="0" y="0" width="10" height="10"/> </g>                    <g fill="none" stroke="#000000" stroke-opacity="1" stroke-width="1" stroke-linecap="butt" stroke-linejoin="bevel" transform="matrix(1,0,0,1,89,172.423)" font-family="Sans Serif" font-size="9pt" font-weight="400" font-style="normal"  > <polyline fill="none" vector-effect="non-scaling-stroke" points="0,3.25268 72,3.25268 " /> </g>          <g fill="none" stroke="#ff0000" stroke-opacity="1" stroke-width="1" stroke-linecap="square" stroke-linejoin="bevel" transform="matrix(1,0,0,1,161,172.423)" font-family="Verdana" font-size="3pt" font-weight="400" font-style="normal"  > <text fill="#ff0000" fill-opacity="1" stroke="none" xml:space="preserve" x="0" y="4" font-family="Verdana" font-size="3pt" font-weight="400" font-style="normal"   >gc39-seq14</text> </g>      <g fill="#d4e11a" fill-opacity="1" stroke="none" transform="matrix(1,0,0,1,161,177.423)" font-family="Sans Serif" font-size="9pt" font-weight="400" font-style="normal"  opacity="0.65" > <rect x="0" y="0" width="1.50535" height="1.50535"/> </g>                    <g fill="none" stroke="#000000" stroke-opacity="1" stroke-width="1" stroke-linecap="butt" stroke-linejoin="bevel" transform="matrix(1,0,0,1,89,178.928)" font-family="Sans Serif" font-size="9pt" font-weight="400" font-style="normal"  > <polyline fill="none" vector-effect="non-scaling-stroke" points="0,3.25268 72,3.25268 " /> </g>          <g fill="none" stroke="#ff0000" stroke-opacity="1" stroke-width="1" stroke-linecap="square" stroke-linejoin="bevel" transform="matrix(1,0,0,1,161,178.928)" font-family="Verdana" font-size="3pt" font-weight="400" font-style="normal"  > <text fill="#ff0000" fill-opacity="1" stroke="none" xml:space="preserve" x="0" y="4" font-family="Verdana" font-size="3pt" font-weight="400" font-style="normal"   >gc39-seq22</text> </g>      <g fill="#92d741" fill-opacity="1" stroke="none" transform="matrix(1,0,0,1,161,183.928)" font-family="Sans Serif" font-size="9pt" font-weight="400" font-style="normal"  opacity="0.65" > <rect x="0" y="0" width="1.50535" height="1.50535"/> </g>                          <g fill="none" stroke="#000000" stroke-opacity="1" stroke-width="1" stroke-linecap="butt" stroke-linejoin="bevel" transform="matrix(1,0,0,1,75,186.428)" font-family="Sans Serif" font-size="9pt" font-weight="400" font-style="normal"  > <polyline fill="none" vector-effect="non-scaling-stroke" points="0,3.25268 72,3.25268 " /> </g>          <g fill="none" stroke="#ff0000" stroke-opacity="1" stroke-width="1" stroke-linecap="square" stroke-linejoin="bevel" transform="matrix(1,0,0,1,147,186.428)" font-family="Verdana" font-size="3pt" font-weight="400" font-style="normal"  > <text fill="#ff0000" fill-opacity="1" stroke="none" xml:space="preserve" x="0" y="4" font-family="Verdana" font-size="3pt" font-weight="400" font-style="normal"   >gc39-seq1</text> </g>      <g fill="#cae01e" fill-opacity="1" stroke="none" transform="matrix(1,0,0,1,147,191.428)" font-family="Sans Serif" font-size="9pt" font-weight="400" font-style="normal"  opacity="0.65" > <rect x="0" y="0" width="1.50535" height="1.50535"/> </g>                              <g fill="none" stroke="#ff0000" stroke-opacity="1" stroke-width="1" stroke-linecap="square" stroke-linejoin="bevel" transform="matrix(1,0,0,1,168,186.428)" font-family="Verdana" font-size="3pt" font-weight="400" font-style="normal"  > <text fill="#ff0000" fill-opacity="1" stroke="none" xml:space="preserve" x="0" y="4" font-family="Verdana" font-size="3pt" font-weight="400" font-style="normal"   >gc39-seq15</text> </g>      <g fill="#cfe11c" fill-opacity="1" stroke="none" transform="matrix(1,0,0,1,168,191.428)" font-family="Sans Serif" font-size="9pt" font-weight="400" font-style="normal"  opacity="0.65" > <rect x="0" y="0" width="1.50535" height="1.50535"/> </g>              <g fill="none" stroke="#000000" stroke-opacity="1" stroke-width="1" stroke-linecap="butt" stroke-linejoin="bevel" transform="matrix(1,0,0,1,75,192.933)" font-family="Sans Serif" font-size="9pt" font-weight="400" font-style="normal"  > <polyline fill="none" vector-effect="non-scaling-stroke" points="14,7.5 14,46.0445 " /> </g>                      <g fill="none" stroke="#ff0000" stroke-opacity="1" stroke-width="1" stroke-linecap="square" stroke-linejoin="bevel" transform="matrix(1,0,0,1,75,212.206)" font-family="Verdana" font-size="3pt" font-weight="400" font-style="normal"  > <text fill="#ff0000" fill-opacity="1" stroke="none" xml:space="preserve" x="0" y="4" font-family="Verdana" font-size="3pt" font-weight="400" font-style="normal"   >gc39-5</text> </g>      <g fill="#95d73f" fill-opacity="1" stroke="none" transform="matrix(1,0,0,1,75,217.206)" font-family="Sans Serif" font-size="9pt" font-weight="400" font-style="normal"  opacity="0.65" > <rect x="0" y="0" width="10" height="10"/> </g>                              <g fill="none" stroke="#ff0000" stroke-opacity="1" stroke-width="1" stroke-linecap="square" stroke-linejoin="bevel" transform="matrix(1,0,0,1,89,192.933)" font-family="Verdana" font-size="3pt" font-weight="400" font-style="normal"  > <text fill="#ff0000" fill-opacity="1" stroke="none" xml:space="preserve" x="0" y="4" font-family="Verdana" font-size="3pt" font-weight="400" font-style="normal"   >gc39-seq11</text> </g>      <g fill="#c7e01f" fill-opacity="1" stroke="none" transform="matrix(1,0,0,1,89,197.933)" font-family="Sans Serif" font-size="9pt" font-weight="400" font-style="normal"  opacity="0.65" > <rect x="0" y="0" width="10" height="10"/> </g>                    <g fill="none" stroke="#000000" stroke-opacity="1" stroke-width="1" stroke-linecap="butt" stroke-linejoin="bevel" transform="matrix(1,0,0,1,89,207.933)" font-family="Sans Serif" font-size="9pt" font-weight="400" font-style="normal"  > <polyline fill="none" vector-effect="non-scaling-stroke" points="0,3.35476 36,3.35476 " /> </g>          <g fill="none" stroke="#ff0000" stroke-opacity="1" stroke-width="1" stroke-linecap="square" stroke-linejoin="bevel" transform="matrix(1,0,0,1,125,207.933)" font-family="Verdana" font-size="3pt" font-weight="400" font-style="normal"  > <text fill="#ff0000" fill-opacity="1" stroke="none" xml:space="preserve" x="0" y="4" font-family="Verdana" font-size="3pt" font-weight="400" font-style="normal"   >gc39-seq9</text> </g>      <g fill="#fde724" fill-opacity="1" stroke="none" transform="matrix(1,0,0,1,125,212.933)" font-family="Sans Serif" font-size="9pt" font-weight="400" font-style="normal"  opacity="0.65" > <rect x="0" y="0" width="1.70952" height="1.70952"/> </g>              <g fill="none" stroke="#000000" stroke-opacity="1" stroke-width="1" stroke-linecap="butt" stroke-linejoin="bevel" transform="matrix(1,0,0,1,89,214.643)" font-family="Sans Serif" font-size="9pt" font-weight="400" font-style="normal"  > <polyline fill="none" vector-effect="non-scaling-stroke" points="53,3.26755 53,9.78532 " /> </g>            <g fill="none" stroke="#000000" stroke-opacity="1" stroke-width="1" stroke-linecap="butt" stroke-linejoin="bevel" transform="matrix(1,0,0,1,89,214.643)" font-family="Sans Serif" font-size="9pt" font-weight="400" font-style="normal"  > <polyline fill="none" vector-effect="non-scaling-stroke" points="0,6.52643 36,6.52643 " /> </g>          <g fill="none" stroke="#ff0000" stroke-opacity="1" stroke-width="1" stroke-linecap="square" stroke-linejoin="bevel" transform="matrix(1,0,0,1,125,216.771)" font-family="Verdana" font-size="3pt" font-weight="400" font-style="normal"  > <text fill="#ff0000" fill-opacity="1" stroke="none" xml:space="preserve" x="0" y="4" font-family="Verdana" font-size="3pt" font-weight="400" font-style="normal"   >gc39-10</text> </g>      <g fill="#cfe11c" fill-opacity="1" stroke="none" transform="matrix(1,0,0,1,125,221.771)" font-family="Sans Serif" font-size="9pt" font-weight="400" font-style="normal"  opacity="0.65" > <rect x="0" y="0" width="3.79639" height="3.79639"/> </g>                    <g fill="none" stroke="#000000" stroke-opacity="1" stroke-width="1" stroke-linecap="butt" stroke-linejoin="bevel" transform="matrix(1,0,0,1,142,214.643)" font-family="Sans Serif" font-size="9pt" font-weight="400" font-style="normal"  > <polyline fill="none" vector-effect="non-scaling-stroke" points="0,3.26755 36,3.26755 " /> </g>          <g fill="none" stroke="#ff0000" stroke-opacity="1" stroke-width="1" stroke-linecap="square" stroke-linejoin="bevel" transform="matrix(1,0,0,1,178,214.643)" font-family="Verdana" font-size="3pt" font-weight="400" font-style="normal"  > <text fill="#ff0000" fill-opacity="1" stroke="none" xml:space="preserve" x="0" y="4" font-family="Verdana" font-size="3pt" font-weight="400" font-style="normal"   >gc39-seq16</text> </g>      <g fill="#cfe11c" fill-opacity="1" stroke="none" transform="matrix(1,0,0,1,178,219.643)" font-family="Sans Serif" font-size="9pt" font-weight="400" font-style="normal"  opacity="0.65" > <rect x="0" y="0" width="1.5351" height="1.5351"/> </g>                    <g fill="none" stroke="#000000" stroke-opacity="1" stroke-width="1" stroke-linecap="butt" stroke-linejoin="bevel" transform="matrix(1,0,0,1,142,221.178)" font-family="Sans Serif" font-size="9pt" font-weight="400" font-style="normal"  > <polyline fill="none" vector-effect="non-scaling-stroke" points="0,3.25022 72,3.25022 " /> </g>          <g fill="none" stroke="#ff0000" stroke-opacity="1" stroke-width="1" stroke-linecap="square" stroke-linejoin="bevel" transform="matrix(1,0,0,1,214,221.178)" font-family="Verdana" font-size="3pt" font-weight="400" font-style="normal"  > <text fill="#ff0000" fill-opacity="1" stroke="none" xml:space="preserve" x="0" y="4" font-family="Verdana" font-size="3pt" font-weight="400" font-style="normal"   >gc39-seq23</text> </g>      <g fill="#bdde26" fill-opacity="1" stroke="none" transform="matrix(1,0,0,1,214,226.178)" font-family="Sans Serif" font-size="9pt" font-weight="400" font-style="normal"  opacity="0.65" > <rect x="0" y="0" width="1.50045" height="1.50045"/> </g>              <g fill="none" stroke="#000000" stroke-opacity="1" stroke-width="1" stroke-linecap="butt" stroke-linejoin="bevel" transform="matrix(1,0,0,1,89,227.678)" font-family="Sans Serif" font-size="9pt" font-weight="400" font-style="normal"  > <polyline fill="none" vector-effect="non-scaling-stroke" points="50,3.86924 50,18.7297 " /> </g>            <g fill="none" stroke="#000000" stroke-opacity="1" stroke-width="1" stroke-linecap="butt" stroke-linejoin="bevel" transform="matrix(1,0,0,1,89,227.678)" font-family="Sans Serif" font-size="9pt" font-weight="400" font-style="normal"  > <polyline fill="none" vector-effect="non-scaling-stroke" points="0,11.2994 36,11.2994 " /> </g>          <g fill="none" stroke="#ff0000" stroke-opacity="1" stroke-width="1" stroke-linecap="square" stroke-linejoin="bevel" transform="matrix(1,0,0,1,125,235.109)" font-family="Verdana" font-size="3pt" font-weight="400" font-style="normal"  > <text fill="#ff0000" fill-opacity="1" stroke="none" xml:space="preserve" x="0" y="4" font-family="Verdana" font-size="3pt" font-weight="400" font-style="normal"   >gc39-8</text> </g>      <g fill="#7cd24f" fill-opacity="1" stroke="none" transform="matrix(1,0,0,1,125,240.109)" font-family="Sans Serif" font-size="9pt" font-weight="400" font-style="normal"  opacity="0.65" > <rect x="0" y="0" width="2.73849" height="2.73849"/> </g>                              <g fill="none" stroke="#ff0000" stroke-opacity="1" stroke-width="1" stroke-linecap="square" stroke-linejoin="bevel" transform="matrix(1,0,0,1,139,227.678)" font-family="Verdana" font-size="3pt" font-weight="400" font-style="normal"  > <text fill="#ff0000" fill-opacity="1" stroke="none" xml:space="preserve" x="0" y="4" font-family="Verdana" font-size="3pt" font-weight="400" font-style="normal"   >gc39-seq24</text> </g>      <g fill="#7cd24f" fill-opacity="1" stroke="none" transform="matrix(1,0,0,1,139,232.678)" font-family="Sans Serif" font-size="9pt" font-weight="400" font-style="normal"  opacity="0.65" > <rect x="0" y="0" width="2.73849" height="2.73849"/> </g>                              <g fill="none" stroke="#ff0000" stroke-opacity="1" stroke-width="1" stroke-linecap="square" stroke-linejoin="bevel" transform="matrix(1,0,0,1,139,235.417)" font-family="Verdana" font-size="3pt" font-weight="400" font-style="normal"  > <text fill="#ff0000" fill-opacity="1" stroke="none" xml:space="preserve" x="0" y="4" font-family="Verdana" font-size="3pt" font-weight="400" font-style="normal"   >gc39-seq19</text> </g>      <g fill="#74d054" fill-opacity="1" stroke="none" transform="matrix(1,0,0,1,139,240.417)" font-family="Sans Serif" font-size="9pt" font-weight="400" font-style="normal"  opacity="0.65" > <rect x="0" y="0" width="2.73849" height="2.73849"/> </g>                    <g fill="none" stroke="#000000" stroke-opacity="1" stroke-width="1" stroke-linecap="butt" stroke-linejoin="bevel" transform="matrix(1,0,0,1,139,243.155)" font-family="Sans Serif" font-size="9pt" font-weight="400" font-style="normal"  > <polyline fill="none" vector-effect="non-scaling-stroke" points="0,3.25268 36,3.25268 " /> </g>          <g fill="none" stroke="#ff0000" stroke-opacity="1" stroke-width="1" stroke-linecap="square" stroke-linejoin="bevel" transform="matrix(1,0,0,1,175,243.155)" font-family="Verdana" font-size="3pt" font-weight="400" font-style="normal"  > <text fill="#ff0000" fill-opacity="1" stroke="none" xml:space="preserve" x="0" y="4" font-family="Verdana" font-size="3pt" font-weight="400" font-style="normal"   >gc39-seq17</text> </g>      <g fill="#5bc862" fill-opacity="1" stroke="none" transform="matrix(1,0,0,1,175,248.155)" font-family="Sans Serif" font-size="9pt" font-weight="400" font-style="normal"  opacity="0.65" > <rect x="0" y="0" width="1.50535" height="1.50535"/> </g>                                                                                                                                              <g fill="none" stroke="#000000" stroke-opacity="1" stroke-width="1" stroke-linecap="square" stroke-linejoin="bevel" transform="matrix(1,0,0,1,112,0)" font-family="Verdana" font-size="4pt" font-weight="400" font-style="normal"  > <text fill="#000000" fill-opacity="1" stroke="none" xml:space="preserve" x="0" y="6" font-family="Verdana" font-size="4pt" font-weight="400" font-style="normal"   >   AA lb index </text> </g>                      <g fill="#929292" fill-opacity="1" stroke="none" transform="matrix(1,0,0,1,154,3.25)" font-family="Sans Serif" font-size="9pt" font-weight="400" font-style="normal"  opacity="0.65" > <rect x="0" y="0" width="1.5" height="1.5"/> </g>      <g fill="#929292" fill-opacity="1" stroke="none" transform="matrix(1,0,0,1,154,9.83333)" font-family="Sans Serif" font-size="9pt" font-weight="400" font-style="normal"  opacity="0.65" > <rect x="0" y="0" width="4.33333" height="4.33333"/> </g>      <g fill="#929292" fill-opacity="1" stroke="none" transform="matrix(1,0,0,1,154,16.4167)" font-family="Sans Serif" font-size="9pt" font-weight="400" font-style="normal"  opacity="0.65" > <rect x="0" y="0" width="7.16667" height="7.16667"/> </g>      <g fill="#929292" fill-opacity="1" stroke="none" transform="matrix(1,0,0,1,154,24)" font-family="Sans Serif" font-size="9pt" font-weight="400" font-style="normal"  opacity="0.65" > <rect x="0" y="0" width="10" height="10"/> </g>      <g fill="none" stroke="#000000" stroke-opacity="1" stroke-width="1" stroke-linecap="square" stroke-linejoin="bevel" transform="matrix(1,0,0,1,164,0)" font-family="Verdana" font-size="4pt" font-weight="400" font-style="normal"  > <text fill="#000000" fill-opacity="1" stroke="none" xml:space="preserve" x="0" y="6" font-family="Verdana" font-size="4pt" font-weight="400" font-style="normal"   >  0.00</text> </g>      <g fill="none" stroke="#000000" stroke-opacity="1" stroke-width="1" stroke-linecap="square" stroke-linejoin="bevel" transform="matrix(1,0,0,1,164,8)" font-family="Verdana" font-size="4pt" font-weight="400" font-style="normal"  > <text fill="#000000" fill-opacity="1" stroke="none" xml:space="preserve" x="0" y="6" font-family="Verdana" font-size="4pt" font-weight="400" font-style="normal"   >  0.44</text> </g>      <g fill="none" stroke="#000000" stroke-opacity="1" stroke-width="1" stroke-linecap="square" stroke-linejoin="bevel" transform="matrix(1,0,0,1,164,16)" font-family="Verdana" font-size="4pt" font-weight="400" font-style="normal"  > <text fill="#000000" fill-opacity="1" stroke="none" xml:space="preserve" x="0" y="6" font-family="Verdana" font-size="4pt" font-weight="400" font-style="normal"   >  0.89</text> </g>      <g fill="none" stroke="#000000" stroke-opacity="1" stroke-width="1" stroke-linecap="square" stroke-linejoin="bevel" transform="matrix(1,0,0,1,164,25)" font-family="Verdana" font-size="4pt" font-weight="400" font-style="normal"  > <text fill="#000000" fill-opacity="1" stroke="none" xml:space="preserve" x="0" y="6" font-family="Verdana" font-size="4pt" font-weight="400" font-style="normal"   >  1.33</text> </g>      <g fill="none" stroke="#000000" stroke-opacity="1" stroke-width="1" stroke-linecap="square" stroke-linejoin="bevel" transform="matrix(1,0,0,1,182,0)" font-family="Verdana" font-size="4pt" font-weight="400" font-style="normal"  > <text fill="#000000" fill-opacity="1" stroke="none" xml:space="preserve" x="0" y="6" font-family="Verdana" font-size="4pt" font-weight="400" font-style="normal"   >   affinity </text> </g>                          <g fill="#443982" fill-opacity="1" stroke="none" transform="matrix(1,0,0,1,211,1)" font-family="Sans Serif" font-size="9pt" font-weight="400" font-style="normal"  opacity="0.65" > <rect x="0" y="0" width="6" height="6"/> </g>      <g fill="#2c728e" fill-opacity="1" stroke="none" transform="matrix(1,0,0,1,211,9)" font-family="Sans Serif" font-size="9pt" font-weight="400" font-style="normal"  opacity="0.65" > <rect x="0" y="0" width="6" height="6"/> </g>      <g fill="#20a485" fill-opacity="1" stroke="none" transform="matrix(1,0,0,1,211,17)" font-family="Sans Serif" font-size="9pt" font-weight="400" font-style="normal"  opacity="0.65" > <rect x="0" y="0" width="6" height="6"/> </g>      <g fill="#74d054" fill-opacity="1" stroke="none" transform="matrix(1,0,0,1,211,26)" font-family="Sans Serif" font-size="9pt" font-weight="400" font-style="normal"  opacity="0.65" > <rect x="0" y="0" width="6" height="6"/> </g>      <g fill="#fde724" fill-opacity="1" stroke="none" transform="matrix(1,0,0,1,211,35)" font-family="Sans Serif" font-size="9pt" font-weight="400" font-style="normal"  opacity="0.65" > <rect x="0" y="0" width="6" height="6"/> </g>      <g fill="none" stroke="#000000" stroke-opacity="1" stroke-width="1" stroke-linecap="square" stroke-linejoin="bevel" transform="matrix(1,0,0,1,217,0)" font-family="Verdana" font-size="4pt" font-weight="400" font-style="normal"  > <text fill="#000000" fill-opacity="1" stroke="none" xml:space="preserve" x="0" y="6" font-family="Verdana" font-size="4pt" font-weight="400" font-style="normal"   >  -6.4</text> </g>      <g fill="none" stroke="#000000" stroke-opacity="1" stroke-width="1" stroke-linecap="square" stroke-linejoin="bevel" transform="matrix(1,0,0,1,217,8)" font-family="Verdana" font-size="4pt" font-weight="400" font-style="normal"  > <text fill="#000000" fill-opacity="1" stroke="none" xml:space="preserve" x="0" y="6" font-family="Verdana" font-size="4pt" font-weight="400" font-style="normal"   >  -4.3</text> </g>      <g fill="none" stroke="#000000" stroke-opacity="1" stroke-width="1" stroke-linecap="square" stroke-linejoin="bevel" transform="matrix(1,0,0,1,217,16)" font-family="Verdana" font-size="4pt" font-weight="400" font-style="normal"  > <text fill="#000000" fill-opacity="1" stroke="none" xml:space="preserve" x="0" y="6" font-family="Verdana" font-size="4pt" font-weight="400" font-style="normal"   >  -2.2</text> </g>      <g fill="none" stroke="#000000" stroke-opacity="1" stroke-width="1" stroke-linecap="square" stroke-linejoin="bevel" transform="matrix(1,0,0,1,217,25)" font-family="Verdana" font-size="4pt" font-weight="400" font-style="normal"  > <text fill="#000000" fill-opacity="1" stroke="none" xml:space="preserve" x="0" y="6" font-family="Verdana" font-size="4pt" font-weight="400" font-style="normal"   >  -0.045</text> </g>      <g fill="none" stroke="#000000" stroke-opacity="1" stroke-width="1" stroke-linecap="square" stroke-linejoin="bevel" transform="matrix(1,0,0,1,217,34)" font-family="Verdana" font-size="4pt" font-weight="400" font-style="normal"  > <text fill="#000000" fill-opacity="1" stroke="none" xml:space="preserve" x="0" y="6" font-family="Verdana" font-size="4pt" font-weight="400" font-style="normal"   >  2.1</text> </g>      <g fill="none" stroke="#000000" stroke-opacity="1" stroke-width="1" stroke-linecap="square" stroke-linejoin="bevel" transform="matrix(1,0,0,1,1,250.661)" font-family="Sans Serif" font-size="9pt" font-weight="400" font-style="normal"  > <polyline fill="none" vector-effect="none" points="0,5 50,5 " /> </g>      <g fill="none" stroke="#000000" stroke-opacity="1" stroke-width="1" stroke-linecap="square" stroke-linejoin="bevel" transform="matrix(1,0,0,1,1,250.661)" font-family="Sans Serif" font-size="9pt" font-weight="400" font-style="normal"  > <polyline fill="none" vector-effect="none" points="0,0 0,10 " /> </g>      <g fill="none" stroke="#000000" stroke-opacity="1" stroke-width="1" stroke-linecap="square" stroke-linejoin="bevel" transform="matrix(1,0,0,1,1,250.661)" font-family="Sans Serif" font-size="9pt" font-weight="400" font-style="normal"  > <polyline fill="none" vector-effect="none" points="50,0 50,10 " /> </g>      <g fill="none" stroke="#000000" stroke-opacity="1" stroke-width="1" stroke-linecap="square" stroke-linejoin="bevel" transform="matrix(1,0,0,1,1,260.661)" font-family="Sans Serif" font-size="9pt" font-weight="400" font-style="normal"  > <text fill="#000000" fill-opacity="1" stroke="none" xml:space="preserve" x="0" y="13" font-family="Sans Serif" font-size="9pt" font-weight="400" font-style="normal"   >0.0124008</text> </g>     </g> </svg> 