<?xml version="1.0" encoding="utf-8" standalone="no"?>
<!DOCTYPE svg PUBLIC "-//W3C//DTD SVG 1.1//EN"
  "http://www.w3.org/Graphics/SVG/1.1/DTD/svg11.dtd">
<!-- Created with matplotlib (http://matplotlib.org/) -->
<svg height="345.6pt" version="1.1" viewBox="0 0 460.8 345.6" width="460.8pt" xmlns="http://www.w3.org/2000/svg" xmlns:xlink="http://www.w3.org/1999/xlink">
 <defs>
  <style type="text/css">
*{stroke-linecap:butt;stroke-linejoin:round;}
  </style>
 </defs>
 <g id="figure_1">
  <g id="patch_1">
   <path d="M 0 345.6 
L 460.8 345.6 
L 460.8 0 
L 0 0 
z
" style="fill:#ffffff;"/>
  </g>
  <g id="axes_1">
   <g id="patch_2">
    <path d="M 68.209375 281.133594 
L 416.114875 281.133594 
L 416.114875 39.232031 
L 68.209375 39.232031 
z
" style="fill:#ffffff;"/>
   </g>
   <g id="matplotlib.axis_1">
    <g id="xtick_1">
     <g id="line2d_1">
      <defs>
       <path d="M 0 0 
L 0 3.5 
" id="m10e6606eb7" style="stroke:#262626;stroke-width:0.8;"/>
      </defs>
      <g>
       <use style="fill:#262626;stroke:#262626;stroke-width:0.8;" x="68.209375" xlink:href="#m10e6606eb7" y="281.133594"/>
      </g>
     </g>
     <g id="text_1">
      <text style="fill:#262626;font-family:Lato;font-size:15px;font-style:normal;font-weight:600;text-anchor:middle;" transform="rotate(-0, 68.209375, 299.278125)" x="68.209375" y="299.278125">0</text>
     </g>
    </g>
    <g id="xtick_2">
     <g id="line2d_2">
      <g>
       <use style="fill:#262626;stroke:#262626;stroke-width:0.8;" x="163.793647" xlink:href="#m10e6606eb7" y="281.133594"/>
      </g>
     </g>
     <g id="text_2">
      <text style="fill:#262626;font-family:Lato;font-size:15px;font-style:normal;font-weight:600;text-anchor:middle;" transform="rotate(-0, 163.793647, 299.278125)" x="163.793647" y="299.278125">2</text>
     </g>
    </g>
    <g id="xtick_3">
     <g id="line2d_3">
      <g>
       <use style="fill:#262626;stroke:#262626;stroke-width:0.8;" x="259.377918" xlink:href="#m10e6606eb7" y="281.133594"/>
      </g>
     </g>
     <g id="text_3">
      <text style="fill:#262626;font-family:Lato;font-size:15px;font-style:normal;font-weight:600;text-anchor:middle;" transform="rotate(-0, 259.377918, 299.278125)" x="259.377918" y="299.278125">4</text>
     </g>
    </g>
    <g id="xtick_4">
     <g id="line2d_4">
      <g>
       <use style="fill:#262626;stroke:#262626;stroke-width:0.8;" x="354.96219" xlink:href="#m10e6606eb7" y="281.133594"/>
      </g>
     </g>
     <g id="text_4">
      <text style="fill:#262626;font-family:Lato;font-size:15px;font-style:normal;font-weight:600;text-anchor:middle;" transform="rotate(-0, 354.96219, 299.278125)" x="354.96219" y="299.278125">6</text>
     </g>
    </g>
    <g id="text_5">
     <text style="fill:#262626;font-family:Lato;font-size:20px;font-style:normal;font-weight:600;text-anchor:middle;" transform="rotate(-0, 242.162125, 320.65)" x="242.162125" y="320.65">lb ratio</text>
    </g>
   </g>
   <g id="matplotlib.axis_2">
    <g id="ytick_1">
     <g id="line2d_5">
      <defs>
       <path d="M 0 0 
L -3.5 0 
" id="m638f2e867e" style="stroke:#262626;stroke-width:0.8;"/>
      </defs>
      <g>
       <use style="fill:#262626;stroke:#262626;stroke-width:0.8;" x="68.209375" xlink:href="#m638f2e867e" y="274.983554"/>
      </g>
     </g>
     <g id="text_6">
      <text style="fill:#262626;font-family:Lato;font-size:15px;font-style:normal;font-weight:600;text-anchor:end;" transform="rotate(-0, 61.209375, 280.55582)" x="61.209375" y="280.55582">0</text>
     </g>
    </g>
    <g id="ytick_2">
     <g id="line2d_6">
      <g>
       <use style="fill:#262626;stroke:#262626;stroke-width:0.8;" x="68.209375" xlink:href="#m638f2e867e" y="229.427704"/>
      </g>
     </g>
     <g id="text_7">
      <text style="fill:#262626;font-family:Lato;font-size:15px;font-style:normal;font-weight:600;text-anchor:end;" transform="rotate(-0, 61.209375, 234.99997)" x="61.209375" y="234.99997">2</text>
     </g>
    </g>
    <g id="ytick_3">
     <g id="line2d_7">
      <g>
       <use style="fill:#262626;stroke:#262626;stroke-width:0.8;" x="68.209375" xlink:href="#m638f2e867e" y="183.871854"/>
      </g>
     </g>
     <g id="text_8">
      <text style="fill:#262626;font-family:Lato;font-size:15px;font-style:normal;font-weight:600;text-anchor:end;" transform="rotate(-0, 61.209375, 189.44412)" x="61.209375" y="189.44412">4</text>
     </g>
    </g>
    <g id="ytick_4">
     <g id="line2d_8">
      <g>
       <use style="fill:#262626;stroke:#262626;stroke-width:0.8;" x="68.209375" xlink:href="#m638f2e867e" y="138.316005"/>
      </g>
     </g>
     <g id="text_9">
      <text style="fill:#262626;font-family:Lato;font-size:15px;font-style:normal;font-weight:600;text-anchor:end;" transform="rotate(-0, 61.209375, 143.88827)" x="61.209375" y="143.88827">6</text>
     </g>
    </g>
    <g id="ytick_5">
     <g id="line2d_9">
      <g>
       <use style="fill:#262626;stroke:#262626;stroke-width:0.8;" x="68.209375" xlink:href="#m638f2e867e" y="92.760155"/>
      </g>
     </g>
     <g id="text_10">
      <text style="fill:#262626;font-family:Lato;font-size:15px;font-style:normal;font-weight:600;text-anchor:end;" transform="rotate(-0, 61.209375, 98.33242)" x="61.209375" y="98.33242">8</text>
     </g>
    </g>
    <g id="ytick_6">
     <g id="line2d_10">
      <g>
       <use style="fill:#262626;stroke:#262626;stroke-width:0.8;" x="68.209375" xlink:href="#m638f2e867e" y="47.204305"/>
      </g>
     </g>
     <g id="text_11">
      <text style="fill:#262626;font-family:Lato;font-size:15px;font-style:normal;font-weight:600;text-anchor:end;" transform="rotate(-0, 61.209375, 52.776571)" x="61.209375" y="52.776571">10</text>
     </g>
    </g>
    <g id="text_12">
     <text style="fill:#262626;font-family:Lato;font-size:20px;font-style:normal;font-weight:600;text-anchor:middle;" transform="rotate(-90, 36.459375, 160.182813)" x="36.459375" y="160.182813">counts</text>
    </g>
   </g>
   <g id="LineCollection_1">
    <path clip-path="url(#p25527b7a90)" d="M 74.0078 274.983554 
L 74.0078 274.983554 
" style="fill:none;stroke:#006600;stroke-opacity:0.7;stroke-width:6;"/>
    <path clip-path="url(#p25527b7a90)" d="M 85.60465 138.316005 
L 85.60465 1.648455 
" style="fill:none;stroke:#006600;stroke-opacity:0.7;stroke-width:6;"/>
    <path clip-path="url(#p25527b7a90)" d="M 97.2015 246.102303 
L 97.2015 167.197256 
" style="fill:none;stroke:#006600;stroke-opacity:0.7;stroke-width:6;"/>
    <path clip-path="url(#p25527b7a90)" d="M 108.79835 246.102303 
L 108.79835 167.197256 
" style="fill:none;stroke:#006600;stroke-opacity:0.7;stroke-width:6;"/>
    <path clip-path="url(#p25527b7a90)" d="M 120.3952 274.983554 
L 120.3952 274.983554 
" style="fill:none;stroke:#006600;stroke-opacity:0.7;stroke-width:6;"/>
    <path clip-path="url(#p25527b7a90)" d="M 131.99205 274.983554 
L 131.99205 274.983554 
" style="fill:none;stroke:#006600;stroke-opacity:0.7;stroke-width:6;"/>
    <path clip-path="url(#p25527b7a90)" d="M 143.5889 274.983554 
L 143.5889 274.983554 
" style="fill:none;stroke:#006600;stroke-opacity:0.7;stroke-width:6;"/>
    <path clip-path="url(#p25527b7a90)" d="M 155.18575 274.983554 
L 155.18575 229.427704 
" style="fill:none;stroke:#006600;stroke-opacity:0.7;stroke-width:6;"/>
    <path clip-path="url(#p25527b7a90)" d="M 166.7826 274.983554 
L 166.7826 229.427704 
" style="fill:none;stroke:#006600;stroke-opacity:0.7;stroke-width:6;"/>
    <path clip-path="url(#p25527b7a90)" d="M 178.37945 274.983554 
L 178.37945 274.983554 
" style="fill:none;stroke:#006600;stroke-opacity:0.7;stroke-width:6;"/>
    <path clip-path="url(#p25527b7a90)" d="M 189.9763 274.983554 
L 189.9763 274.983554 
" style="fill:none;stroke:#006600;stroke-opacity:0.7;stroke-width:6;"/>
    <path clip-path="url(#p25527b7a90)" d="M 201.57315 274.983554 
L 201.57315 274.983554 
" style="fill:none;stroke:#006600;stroke-opacity:0.7;stroke-width:6;"/>
    <path clip-path="url(#p25527b7a90)" d="M 213.17 274.983554 
L 213.17 229.427704 
" style="fill:none;stroke:#006600;stroke-opacity:0.7;stroke-width:6;"/>
    <path clip-path="url(#p25527b7a90)" d="M 224.76685 274.983554 
L 224.76685 274.983554 
" style="fill:none;stroke:#006600;stroke-opacity:0.7;stroke-width:6;"/>
    <path clip-path="url(#p25527b7a90)" d="M 236.3637 274.983554 
L 236.3637 274.983554 
" style="fill:none;stroke:#006600;stroke-opacity:0.7;stroke-width:6;"/>
    <path clip-path="url(#p25527b7a90)" d="M 247.96055 274.983554 
L 247.96055 274.983554 
" style="fill:none;stroke:#006600;stroke-opacity:0.7;stroke-width:6;"/>
    <path clip-path="url(#p25527b7a90)" d="M 259.5574 274.983554 
L 259.5574 274.983554 
" style="fill:none;stroke:#006600;stroke-opacity:0.7;stroke-width:6;"/>
    <path clip-path="url(#p25527b7a90)" d="M 271.15425 274.983554 
L 271.15425 274.983554 
" style="fill:none;stroke:#006600;stroke-opacity:0.7;stroke-width:6;"/>
    <path clip-path="url(#p25527b7a90)" d="M 282.7511 274.983554 
L 282.7511 274.983554 
" style="fill:none;stroke:#006600;stroke-opacity:0.7;stroke-width:6;"/>
    <path clip-path="url(#p25527b7a90)" d="M 294.34795 274.983554 
L 294.34795 274.983554 
" style="fill:none;stroke:#006600;stroke-opacity:0.7;stroke-width:6;"/>
    <path clip-path="url(#p25527b7a90)" d="M 305.9448 274.983554 
L 305.9448 274.983554 
" style="fill:none;stroke:#006600;stroke-opacity:0.7;stroke-width:6;"/>
    <path clip-path="url(#p25527b7a90)" d="M 317.54165 274.983554 
L 317.54165 274.983554 
" style="fill:none;stroke:#006600;stroke-opacity:0.7;stroke-width:6;"/>
    <path clip-path="url(#p25527b7a90)" d="M 329.1385 274.983554 
L 329.1385 229.427704 
" style="fill:none;stroke:#006600;stroke-opacity:0.7;stroke-width:6;"/>
    <path clip-path="url(#p25527b7a90)" d="M 340.73535 274.983554 
L 340.73535 274.983554 
" style="fill:none;stroke:#006600;stroke-opacity:0.7;stroke-width:6;"/>
    <path clip-path="url(#p25527b7a90)" d="M 352.3322 274.983554 
L 352.3322 274.983554 
" style="fill:none;stroke:#006600;stroke-opacity:0.7;stroke-width:6;"/>
    <path clip-path="url(#p25527b7a90)" d="M 363.92905 274.983554 
L 363.92905 274.983554 
" style="fill:none;stroke:#006600;stroke-opacity:0.7;stroke-width:6;"/>
    <path clip-path="url(#p25527b7a90)" d="M 375.5259 274.983554 
L 375.5259 274.983554 
" style="fill:none;stroke:#006600;stroke-opacity:0.7;stroke-width:6;"/>
    <path clip-path="url(#p25527b7a90)" d="M 387.12275 274.983554 
L 387.12275 274.983554 
" style="fill:none;stroke:#006600;stroke-opacity:0.7;stroke-width:6;"/>
    <path clip-path="url(#p25527b7a90)" d="M 398.7196 274.983554 
L 398.7196 274.983554 
" style="fill:none;stroke:#006600;stroke-opacity:0.7;stroke-width:6;"/>
    <path clip-path="url(#p25527b7a90)" d="M 410.31645 274.983554 
L 410.31645 274.983554 
" style="fill:none;stroke:#006600;stroke-opacity:0.7;stroke-width:6;"/>
   </g>
   <g id="LineCollection_2">
    <path clip-path="url(#p25527b7a90)" d="M 74.0078 274.983554 
L 74.0078 274.983554 
" style="fill:none;stroke:#8b0000;stroke-opacity:0.7;stroke-width:5;"/>
    <path clip-path="url(#p25527b7a90)" d="M 85.60465 261.640555 
L 85.60465 197.214854 
" style="fill:none;stroke:#8b0000;stroke-opacity:0.7;stroke-width:5;"/>
    <path clip-path="url(#p25527b7a90)" d="M 97.2015 212.026918 
L 97.2015 110.160941 
" style="fill:none;stroke:#8b0000;stroke-opacity:0.7;stroke-width:5;"/>
    <path clip-path="url(#p25527b7a90)" d="M 108.79835 212.026918 
L 108.79835 110.160941 
" style="fill:none;stroke:#8b0000;stroke-opacity:0.7;stroke-width:5;"/>
    <path clip-path="url(#p25527b7a90)" d="M 120.3952 261.640555 
L 120.3952 197.214854 
" style="fill:none;stroke:#8b0000;stroke-opacity:0.7;stroke-width:5;"/>
    <path clip-path="url(#p25527b7a90)" d="M 131.99205 274.983554 
L 131.99205 229.427704 
" style="fill:none;stroke:#8b0000;stroke-opacity:0.7;stroke-width:5;"/>
    <path clip-path="url(#p25527b7a90)" d="M 143.5889 246.102303 
L 143.5889 167.197256 
" style="fill:none;stroke:#8b0000;stroke-opacity:0.7;stroke-width:5;"/>
    <path clip-path="url(#p25527b7a90)" d="M 155.18575 261.640555 
L 155.18575 197.214854 
" style="fill:none;stroke:#8b0000;stroke-opacity:0.7;stroke-width:5;"/>
    <path clip-path="url(#p25527b7a90)" d="M 166.7826 274.983554 
L 166.7826 274.983554 
" style="fill:none;stroke:#8b0000;stroke-opacity:0.7;stroke-width:5;"/>
    <path clip-path="url(#p25527b7a90)" d="M 178.37945 274.983554 
L 178.37945 274.983554 
" style="fill:none;stroke:#8b0000;stroke-opacity:0.7;stroke-width:5;"/>
    <path clip-path="url(#p25527b7a90)" d="M 189.9763 274.983554 
L 189.9763 274.983554 
" style="fill:none;stroke:#8b0000;stroke-opacity:0.7;stroke-width:5;"/>
    <path clip-path="url(#p25527b7a90)" d="M 201.57315 274.983554 
L 201.57315 274.983554 
" style="fill:none;stroke:#8b0000;stroke-opacity:0.7;stroke-width:5;"/>
    <path clip-path="url(#p25527b7a90)" d="M 213.17 274.983554 
L 213.17 229.427704 
" style="fill:none;stroke:#8b0000;stroke-opacity:0.7;stroke-width:5;"/>
    <path clip-path="url(#p25527b7a90)" d="M 224.76685 274.983554 
L 224.76685 274.983554 
" style="fill:none;stroke:#8b0000;stroke-opacity:0.7;stroke-width:5;"/>
    <path clip-path="url(#p25527b7a90)" d="M 236.3637 274.983554 
L 236.3637 274.983554 
" style="fill:none;stroke:#8b0000;stroke-opacity:0.7;stroke-width:5;"/>
    <path clip-path="url(#p25527b7a90)" d="M 247.96055 274.983554 
L 247.96055 274.983554 
" style="fill:none;stroke:#8b0000;stroke-opacity:0.7;stroke-width:5;"/>
    <path clip-path="url(#p25527b7a90)" d="M 259.5574 274.983554 
L 259.5574 274.983554 
" style="fill:none;stroke:#8b0000;stroke-opacity:0.7;stroke-width:5;"/>
    <path clip-path="url(#p25527b7a90)" d="M 271.15425 274.983554 
L 271.15425 229.427704 
" style="fill:none;stroke:#8b0000;stroke-opacity:0.7;stroke-width:5;"/>
    <path clip-path="url(#p25527b7a90)" d="M 282.7511 274.983554 
L 282.7511 274.983554 
" style="fill:none;stroke:#8b0000;stroke-opacity:0.7;stroke-width:5;"/>
    <path clip-path="url(#p25527b7a90)" d="M 294.34795 274.983554 
L 294.34795 274.983554 
" style="fill:none;stroke:#8b0000;stroke-opacity:0.7;stroke-width:5;"/>
    <path clip-path="url(#p25527b7a90)" d="M 305.9448 274.983554 
L 305.9448 274.983554 
" style="fill:none;stroke:#8b0000;stroke-opacity:0.7;stroke-width:5;"/>
    <path clip-path="url(#p25527b7a90)" d="M 317.54165 274.983554 
L 317.54165 274.983554 
" style="fill:none;stroke:#8b0000;stroke-opacity:0.7;stroke-width:5;"/>
    <path clip-path="url(#p25527b7a90)" d="M 329.1385 274.983554 
L 329.1385 274.983554 
" style="fill:none;stroke:#8b0000;stroke-opacity:0.7;stroke-width:5;"/>
    <path clip-path="url(#p25527b7a90)" d="M 340.73535 274.983554 
L 340.73535 274.983554 
" style="fill:none;stroke:#8b0000;stroke-opacity:0.7;stroke-width:5;"/>
    <path clip-path="url(#p25527b7a90)" d="M 352.3322 274.983554 
L 352.3322 274.983554 
" style="fill:none;stroke:#8b0000;stroke-opacity:0.7;stroke-width:5;"/>
    <path clip-path="url(#p25527b7a90)" d="M 363.92905 274.983554 
L 363.92905 274.983554 
" style="fill:none;stroke:#8b0000;stroke-opacity:0.7;stroke-width:5;"/>
    <path clip-path="url(#p25527b7a90)" d="M 375.5259 274.983554 
L 375.5259 274.983554 
" style="fill:none;stroke:#8b0000;stroke-opacity:0.7;stroke-width:5;"/>
    <path clip-path="url(#p25527b7a90)" d="M 387.12275 274.983554 
L 387.12275 274.983554 
" style="fill:none;stroke:#8b0000;stroke-opacity:0.7;stroke-width:5;"/>
    <path clip-path="url(#p25527b7a90)" d="M 398.7196 274.983554 
L 398.7196 274.983554 
" style="fill:none;stroke:#8b0000;stroke-opacity:0.7;stroke-width:5;"/>
    <path clip-path="url(#p25527b7a90)" d="M 410.31645 274.983554 
L 410.31645 229.427704 
" style="fill:none;stroke:#8b0000;stroke-opacity:0.7;stroke-width:5;"/>
   </g>
   <g id="line2d_11">
    <path clip-path="url(#p25527b7a90)" d="M 74.0078 274.983554 
L 85.60465 69.98223 
L 97.2015 206.649779 
L 108.79835 206.649779 
L 120.3952 274.983554 
L 131.99205 274.983554 
L 143.5889 274.983554 
L 155.18575 252.205629 
L 166.7826 252.205629 
L 178.37945 274.983554 
L 189.9763 274.983554 
L 201.57315 274.983554 
L 213.17 252.205629 
L 224.76685 274.983554 
L 236.3637 274.983554 
L 247.96055 274.983554 
L 259.5574 274.983554 
L 271.15425 274.983554 
L 282.7511 274.983554 
L 294.34795 274.983554 
L 305.9448 274.983554 
L 317.54165 274.983554 
L 329.1385 252.205629 
L 340.73535 274.983554 
L 352.3322 274.983554 
L 363.92905 274.983554 
L 375.5259 274.983554 
L 387.12275 274.983554 
L 398.7196 274.983554 
L 410.31645 274.983554 
" style="fill:none;stroke:#006600;stroke-linecap:round;stroke-opacity:0.7;stroke-width:6;"/>
    <defs>
     <path d="M 0 3.25 
C 0.86191 3.25 1.688635 2.907559 2.298097 2.298097 
C 2.907559 1.688635 3.25 0.86191 3.25 0 
C 3.25 -0.86191 2.907559 -1.688635 2.298097 -2.298097 
C 1.688635 -2.907559 0.86191 -3.25 0 -3.25 
C -0.86191 -3.25 -1.688635 -2.907559 -2.298097 -2.298097 
C -2.907559 -1.688635 -3.25 -0.86191 -3.25 0 
C -3.25 0.86191 -2.907559 1.688635 -2.298097 2.298097 
C -1.688635 2.907559 -0.86191 3.25 0 3.25 
z
" id="ma447d7f07f" style="stroke:#006600;stroke-opacity:0.7;"/>
    </defs>
    <g clip-path="url(#p25527b7a90)">
     <use style="fill:#006600;fill-opacity:0.7;stroke:#006600;stroke-opacity:0.7;" x="74.0078" xlink:href="#ma447d7f07f" y="274.983554"/>
     <use style="fill:#006600;fill-opacity:0.7;stroke:#006600;stroke-opacity:0.7;" x="85.60465" xlink:href="#ma447d7f07f" y="69.98223"/>
     <use style="fill:#006600;fill-opacity:0.7;stroke:#006600;stroke-opacity:0.7;" x="97.2015" xlink:href="#ma447d7f07f" y="206.649779"/>
     <use style="fill:#006600;fill-opacity:0.7;stroke:#006600;stroke-opacity:0.7;" x="108.79835" xlink:href="#ma447d7f07f" y="206.649779"/>
     <use style="fill:#006600;fill-opacity:0.7;stroke:#006600;stroke-opacity:0.7;" x="120.3952" xlink:href="#ma447d7f07f" y="274.983554"/>
     <use style="fill:#006600;fill-opacity:0.7;stroke:#006600;stroke-opacity:0.7;" x="131.99205" xlink:href="#ma447d7f07f" y="274.983554"/>
     <use style="fill:#006600;fill-opacity:0.7;stroke:#006600;stroke-opacity:0.7;" x="143.5889" xlink:href="#ma447d7f07f" y="274.983554"/>
     <use style="fill:#006600;fill-opacity:0.7;stroke:#006600;stroke-opacity:0.7;" x="155.18575" xlink:href="#ma447d7f07f" y="252.205629"/>
     <use style="fill:#006600;fill-opacity:0.7;stroke:#006600;stroke-opacity:0.7;" x="166.7826" xlink:href="#ma447d7f07f" y="252.205629"/>
     <use style="fill:#006600;fill-opacity:0.7;stroke:#006600;stroke-opacity:0.7;" x="178.37945" xlink:href="#ma447d7f07f" y="274.983554"/>
     <use style="fill:#006600;fill-opacity:0.7;stroke:#006600;stroke-opacity:0.7;" x="189.9763" xlink:href="#ma447d7f07f" y="274.983554"/>
     <use style="fill:#006600;fill-opacity:0.7;stroke:#006600;stroke-opacity:0.7;" x="201.57315" xlink:href="#ma447d7f07f" y="274.983554"/>
     <use style="fill:#006600;fill-opacity:0.7;stroke:#006600;stroke-opacity:0.7;" x="213.17" xlink:href="#ma447d7f07f" y="252.205629"/>
     <use style="fill:#006600;fill-opacity:0.7;stroke:#006600;stroke-opacity:0.7;" x="224.76685" xlink:href="#ma447d7f07f" y="274.983554"/>
     <use style="fill:#006600;fill-opacity:0.7;stroke:#006600;stroke-opacity:0.7;" x="236.3637" xlink:href="#ma447d7f07f" y="274.983554"/>
     <use style="fill:#006600;fill-opacity:0.7;stroke:#006600;stroke-opacity:0.7;" x="247.96055" xlink:href="#ma447d7f07f" y="274.983554"/>
     <use style="fill:#006600;fill-opacity:0.7;stroke:#006600;stroke-opacity:0.7;" x="259.5574" xlink:href="#ma447d7f07f" y="274.983554"/>
     <use style="fill:#006600;fill-opacity:0.7;stroke:#006600;stroke-opacity:0.7;" x="271.15425" xlink:href="#ma447d7f07f" y="274.983554"/>
     <use style="fill:#006600;fill-opacity:0.7;stroke:#006600;stroke-opacity:0.7;" x="282.7511" xlink:href="#ma447d7f07f" y="274.983554"/>
     <use style="fill:#006600;fill-opacity:0.7;stroke:#006600;stroke-opacity:0.7;" x="294.34795" xlink:href="#ma447d7f07f" y="274.983554"/>
     <use style="fill:#006600;fill-opacity:0.7;stroke:#006600;stroke-opacity:0.7;" x="305.9448" xlink:href="#ma447d7f07f" y="274.983554"/>
     <use style="fill:#006600;fill-opacity:0.7;stroke:#006600;stroke-opacity:0.7;" x="317.54165" xlink:href="#ma447d7f07f" y="274.983554"/>
     <use style="fill:#006600;fill-opacity:0.7;stroke:#006600;stroke-opacity:0.7;" x="329.1385" xlink:href="#ma447d7f07f" y="252.205629"/>
     <use style="fill:#006600;fill-opacity:0.7;stroke:#006600;stroke-opacity:0.7;" x="340.73535" xlink:href="#ma447d7f07f" y="274.983554"/>
     <use style="fill:#006600;fill-opacity:0.7;stroke:#006600;stroke-opacity:0.7;" x="352.3322" xlink:href="#ma447d7f07f" y="274.983554"/>
     <use style="fill:#006600;fill-opacity:0.7;stroke:#006600;stroke-opacity:0.7;" x="363.92905" xlink:href="#ma447d7f07f" y="274.983554"/>
     <use style="fill:#006600;fill-opacity:0.7;stroke:#006600;stroke-opacity:0.7;" x="375.5259" xlink:href="#ma447d7f07f" y="274.983554"/>
     <use style="fill:#006600;fill-opacity:0.7;stroke:#006600;stroke-opacity:0.7;" x="387.12275" xlink:href="#ma447d7f07f" y="274.983554"/>
     <use style="fill:#006600;fill-opacity:0.7;stroke:#006600;stroke-opacity:0.7;" x="398.7196" xlink:href="#ma447d7f07f" y="274.983554"/>
     <use style="fill:#006600;fill-opacity:0.7;stroke:#006600;stroke-opacity:0.7;" x="410.31645" xlink:href="#ma447d7f07f" y="274.983554"/>
    </g>
   </g>
   <g id="line2d_12">
    <path clip-path="url(#p25527b7a90)" d="M 74.0078 274.983554 
L 85.60465 229.427704 
L 97.2015 161.093929 
L 108.79835 161.093929 
L 120.3952 229.427704 
L 131.99205 252.205629 
L 143.5889 206.649779 
L 155.18575 229.427704 
L 166.7826 274.983554 
L 178.37945 274.983554 
L 189.9763 274.983554 
L 201.57315 274.983554 
L 213.17 252.205629 
L 224.76685 274.983554 
L 236.3637 274.983554 
L 247.96055 274.983554 
L 259.5574 274.983554 
L 271.15425 252.205629 
L 282.7511 274.983554 
L 294.34795 274.983554 
L 305.9448 274.983554 
L 317.54165 274.983554 
L 329.1385 274.983554 
L 340.73535 274.983554 
L 352.3322 274.983554 
L 363.92905 274.983554 
L 375.5259 274.983554 
L 387.12275 274.983554 
L 398.7196 274.983554 
L 410.31645 252.205629 
" style="fill:none;stroke:#8b0000;stroke-linecap:round;stroke-opacity:0.7;stroke-width:5;"/>
    <defs>
     <path d="M 0 3.25 
C 0.86191 3.25 1.688635 2.907559 2.298097 2.298097 
C 2.907559 1.688635 3.25 0.86191 3.25 0 
C 3.25 -0.86191 2.907559 -1.688635 2.298097 -2.298097 
C 1.688635 -2.907559 0.86191 -3.25 0 -3.25 
C -0.86191 -3.25 -1.688635 -2.907559 -2.298097 -2.298097 
C -2.907559 -1.688635 -3.25 -0.86191 -3.25 0 
C -3.25 0.86191 -2.907559 1.688635 -2.298097 2.298097 
C -1.688635 2.907559 -0.86191 3.25 0 3.25 
z
" id="m926602100c" style="stroke:#8b0000;stroke-opacity:0.7;"/>
    </defs>
    <g clip-path="url(#p25527b7a90)">
     <use style="fill:#8b0000;fill-opacity:0.7;stroke:#8b0000;stroke-opacity:0.7;" x="74.0078" xlink:href="#m926602100c" y="274.983554"/>
     <use style="fill:#8b0000;fill-opacity:0.7;stroke:#8b0000;stroke-opacity:0.7;" x="85.60465" xlink:href="#m926602100c" y="229.427704"/>
     <use style="fill:#8b0000;fill-opacity:0.7;stroke:#8b0000;stroke-opacity:0.7;" x="97.2015" xlink:href="#m926602100c" y="161.093929"/>
     <use style="fill:#8b0000;fill-opacity:0.7;stroke:#8b0000;stroke-opacity:0.7;" x="108.79835" xlink:href="#m926602100c" y="161.093929"/>
     <use style="fill:#8b0000;fill-opacity:0.7;stroke:#8b0000;stroke-opacity:0.7;" x="120.3952" xlink:href="#m926602100c" y="229.427704"/>
     <use style="fill:#8b0000;fill-opacity:0.7;stroke:#8b0000;stroke-opacity:0.7;" x="131.99205" xlink:href="#m926602100c" y="252.205629"/>
     <use style="fill:#8b0000;fill-opacity:0.7;stroke:#8b0000;stroke-opacity:0.7;" x="143.5889" xlink:href="#m926602100c" y="206.649779"/>
     <use style="fill:#8b0000;fill-opacity:0.7;stroke:#8b0000;stroke-opacity:0.7;" x="155.18575" xlink:href="#m926602100c" y="229.427704"/>
     <use style="fill:#8b0000;fill-opacity:0.7;stroke:#8b0000;stroke-opacity:0.7;" x="166.7826" xlink:href="#m926602100c" y="274.983554"/>
     <use style="fill:#8b0000;fill-opacity:0.7;stroke:#8b0000;stroke-opacity:0.7;" x="178.37945" xlink:href="#m926602100c" y="274.983554"/>
     <use style="fill:#8b0000;fill-opacity:0.7;stroke:#8b0000;stroke-opacity:0.7;" x="189.9763" xlink:href="#m926602100c" y="274.983554"/>
     <use style="fill:#8b0000;fill-opacity:0.7;stroke:#8b0000;stroke-opacity:0.7;" x="201.57315" xlink:href="#m926602100c" y="274.983554"/>
     <use style="fill:#8b0000;fill-opacity:0.7;stroke:#8b0000;stroke-opacity:0.7;" x="213.17" xlink:href="#m926602100c" y="252.205629"/>
     <use style="fill:#8b0000;fill-opacity:0.7;stroke:#8b0000;stroke-opacity:0.7;" x="224.76685" xlink:href="#m926602100c" y="274.983554"/>
     <use style="fill:#8b0000;fill-opacity:0.7;stroke:#8b0000;stroke-opacity:0.7;" x="236.3637" xlink:href="#m926602100c" y="274.983554"/>
     <use style="fill:#8b0000;fill-opacity:0.7;stroke:#8b0000;stroke-opacity:0.7;" x="247.96055" xlink:href="#m926602100c" y="274.983554"/>
     <use style="fill:#8b0000;fill-opacity:0.7;stroke:#8b0000;stroke-opacity:0.7;" x="259.5574" xlink:href="#m926602100c" y="274.983554"/>
     <use style="fill:#8b0000;fill-opacity:0.7;stroke:#8b0000;stroke-opacity:0.7;" x="271.15425" xlink:href="#m926602100c" y="252.205629"/>
     <use style="fill:#8b0000;fill-opacity:0.7;stroke:#8b0000;stroke-opacity:0.7;" x="282.7511" xlink:href="#m926602100c" y="274.983554"/>
     <use style="fill:#8b0000;fill-opacity:0.7;stroke:#8b0000;stroke-opacity:0.7;" x="294.34795" xlink:href="#m926602100c" y="274.983554"/>
     <use style="fill:#8b0000;fill-opacity:0.7;stroke:#8b0000;stroke-opacity:0.7;" x="305.9448" xlink:href="#m926602100c" y="274.983554"/>
     <use style="fill:#8b0000;fill-opacity:0.7;stroke:#8b0000;stroke-opacity:0.7;" x="317.54165" xlink:href="#m926602100c" y="274.983554"/>
     <use style="fill:#8b0000;fill-opacity:0.7;stroke:#8b0000;stroke-opacity:0.7;" x="329.1385" xlink:href="#m926602100c" y="274.983554"/>
     <use style="fill:#8b0000;fill-opacity:0.7;stroke:#8b0000;stroke-opacity:0.7;" x="340.73535" xlink:href="#m926602100c" y="274.983554"/>
     <use style="fill:#8b0000;fill-opacity:0.7;stroke:#8b0000;stroke-opacity:0.7;" x="352.3322" xlink:href="#m926602100c" y="274.983554"/>
     <use style="fill:#8b0000;fill-opacity:0.7;stroke:#8b0000;stroke-opacity:0.7;" x="363.92905" xlink:href="#m926602100c" y="274.983554"/>
     <use style="fill:#8b0000;fill-opacity:0.7;stroke:#8b0000;stroke-opacity:0.7;" x="375.5259" xlink:href="#m926602100c" y="274.983554"/>
     <use style="fill:#8b0000;fill-opacity:0.7;stroke:#8b0000;stroke-opacity:0.7;" x="387.12275" xlink:href="#m926602100c" y="274.983554"/>
     <use style="fill:#8b0000;fill-opacity:0.7;stroke:#8b0000;stroke-opacity:0.7;" x="398.7196" xlink:href="#m926602100c" y="274.983554"/>
     <use style="fill:#8b0000;fill-opacity:0.7;stroke:#8b0000;stroke-opacity:0.7;" x="410.31645" xlink:href="#m926602100c" y="252.205629"/>
    </g>
   </g>
   <g id="patch_3">
    <path d="M 68.209375 281.133594 
L 68.209375 39.232031 
" style="fill:none;stroke:#262626;stroke-linecap:square;stroke-linejoin:miter;stroke-width:0.8;"/>
   </g>
   <g id="patch_4">
    <path d="M 68.209375 281.133594 
L 416.114875 281.133594 
" style="fill:none;stroke:#262626;stroke-linecap:square;stroke-linejoin:miter;stroke-width:0.8;"/>
   </g>
   <g id="text_13">
    <text style="fill:#262626;font-family:Lato;font-size:15px;font-style:normal;font-weight:bold;text-anchor:middle;" transform="rotate(-0, 242.162125, 33.232031)" x="242.162125" y="33.232031">lb ratio on inferred tree (cluster 2)</text>
   </g>
   <g id="legend_1">
    <g id="patch_5">
     <path d="M 321.701335 135.992656 
L 435.55446 135.992656 
Q 438.55446 135.992656 438.55446 132.992656 
L 438.55446 45.287969 
Q 438.55446 42.287969 435.55446 42.287969 
L 321.701335 42.287969 
Q 318.701335 42.287969 318.701335 45.287969 
L 318.701335 132.992656 
Q 318.701335 135.992656 321.701335 135.992656 
z
" style="fill:#ffffff;opacity:0.8;stroke:#cccccc;stroke-linejoin:miter;"/>
    </g>
    <g id="text_14">
     <text style="fill:#262626;font-family:Lato;font-size:20px;font-style:normal;font-weight:600;" transform="translate(324.701335 63.147344)">N steps to</text>
     <text style="fill:#262626;font-family:Lato;font-size:20px;font-style:normal;font-weight:600;" transform="translate(324.701335 84.328594)">aff. increase</text>
    </g>
    <g id="LineCollection_3">
     <path d="M 355.127116 108.573125 
L 355.127116 93.573125 
" style="fill:none;stroke:#006600;stroke-opacity:0.7;stroke-width:6;"/>
    </g>
    <g id="line2d_13">
     <path d="M 340.127116 101.073125 
L 370.127116 101.073125 
" style="fill:none;stroke:#006600;stroke-linecap:round;stroke-opacity:0.7;stroke-width:6;"/>
    </g>
    <g id="line2d_14">
     <g>
      <use style="fill:#006600;fill-opacity:0.7;stroke:#006600;stroke-opacity:0.7;" x="355.127116" xlink:href="#ma447d7f07f" y="101.073125"/>
     </g>
    </g>
    <g id="text_15">
     <text style="fill:#262626;font-family:Lato;font-size:15px;font-style:normal;font-weight:600;text-anchor:start;" transform="rotate(-0, 382.127116, 106.323125)" x="382.127116" y="106.323125">not 0</text>
    </g>
    <g id="LineCollection_4">
     <path d="M 355.127116 129.730156 
L 355.127116 114.730156 
" style="fill:none;stroke:#8b0000;stroke-opacity:0.7;stroke-width:5;"/>
    </g>
    <g id="line2d_15">
     <path d="M 340.127116 122.230156 
L 370.127116 122.230156 
" style="fill:none;stroke:#8b0000;stroke-linecap:round;stroke-opacity:0.7;stroke-width:5;"/>
    </g>
    <g id="line2d_16">
     <g>
      <use style="fill:#8b0000;fill-opacity:0.7;stroke:#8b0000;stroke-opacity:0.7;" x="355.127116" xlink:href="#m926602100c" y="122.230156"/>
     </g>
    </g>
    <g id="text_16">
     <text style="fill:#262626;font-family:Lato;font-size:15px;font-style:normal;font-weight:600;text-anchor:start;" transform="rotate(-0, 382.127116, 127.480156)" x="382.127116" y="127.480156">zero</text>
    </g>
   </g>
  </g>
 </g>
 <defs>
  <clipPath id="p25527b7a90">
   <rect height="241.901562" width="347.9055" x="68.209375" y="39.232031"/>
  </clipPath>
 </defs>
</svg>
