<?xml version="1.0" encoding="UTF-8" standalone="no"?> <svg width="85.0194mm" height="86.4306mm"  viewBox="0 0 241 245.5"  xmlns="http://www.w3.org/2000/svg" xmlns:xlink="http://www.w3.org/1999/xlink"  version="1.2" baseProfile="tiny"> <title>Generated with ETE http://etetoolkit.org</title> <desc>Generated with ETE http://etetoolkit.org</desc> <defs> </defs> <g fill="none" stroke="black" stroke-width="1" fill-rule="evenodd" stroke-linecap="square" stroke-linejoin="bevel" >      <g fill="none" stroke="none" transform="matrix(1,0,0,1,0,50)" font-family="Sans Serif" font-size="9pt" font-weight="400" font-style="normal"  > <rect x="0" y="-50" width="241" height="245.5"/> </g>      <g fill="none" stroke="none" transform="matrix(1,0,0,1,1,51)" font-family="Sans Serif" font-size="9pt" font-weight="400" font-style="normal"  > <rect x="0" y="0" width="239" height="143.5"/> </g>                                                                                                                                  <g fill="none" stroke="#929292" stroke-opacity="1" stroke-width="1" stroke-linecap="butt" stroke-linejoin="bevel" transform="matrix(1,0,0,1,1,51)" font-family="Sans Serif" font-size="9pt" font-weight="400" font-style="normal"  > <polyline fill="none" vector-effect="non-scaling-stroke" points="24,10.1875 24,75.125 " /> </g>                      <g fill="none" stroke="#ff0000" stroke-opacity="1" stroke-width="1" stroke-linecap="square" stroke-linejoin="bevel" transform="matrix(1,0,0,1,1,90.4063)" font-family="Verdana" font-size="3pt" font-weight="400" font-style="normal"  > <text fill="#ff0000" fill-opacity="1" stroke="none" xml:space="preserve" x="0" y="4" font-family="Verdana" font-size="3pt" font-weight="400" font-style="normal"   >gc39-naive</text> </g>      <g fill="#929292" fill-opacity="1" stroke="none" transform="matrix(1,0,0,1,1,95.4063)" font-family="Sans Serif" font-size="9pt" font-weight="400" font-style="normal"  opacity="0.65" > <rect x="0" y="0" width="1.5" height="1.5"/> </g>              <g fill="none" stroke="#929292" stroke-opacity="1" stroke-width="1" stroke-linecap="butt" stroke-linejoin="bevel" transform="matrix(1,0,0,1,25,51)" font-family="Sans Serif" font-size="9pt" font-weight="400" font-style="normal"  > <polyline fill="none" vector-effect="non-scaling-stroke" points="122,3.25 122,17.125 " /> </g>            <g fill="none" stroke="#000000" stroke-opacity="1" stroke-width="1" stroke-linecap="butt" stroke-linejoin="bevel" transform="matrix(1,0,0,1,25,51)" font-family="Sans Serif" font-size="9pt" font-weight="400" font-style="normal"  > <polyline fill="none" vector-effect="non-scaling-stroke" points="0,10.1875 108,10.1875 " /> </g>          <g fill="none" stroke="#ff0000" stroke-opacity="1" stroke-width="1" stroke-linecap="square" stroke-linejoin="bevel" transform="matrix(1,0,0,1,133,56.1875)" font-family="Verdana" font-size="3pt" font-weight="400" font-style="normal"  > <text fill="#ff0000" fill-opacity="1" stroke="none" xml:space="preserve" x="0" y="4" font-family="Verdana" font-size="3pt" font-weight="400" font-style="normal"   >gc39-2</text> </g>      <g fill="#23a982" fill-opacity="1" stroke="none" transform="matrix(1,0,0,1,133,61.1875)" font-family="Sans Serif" font-size="9pt" font-weight="400" font-style="normal"  opacity="0.65" > <rect x="0" y="0" width="5" height="5"/> </g>                    <g fill="none" stroke="#000000" stroke-opacity="1" stroke-width="1" stroke-linecap="butt" stroke-linejoin="bevel" transform="matrix(1,0,0,1,147,51)" font-family="Sans Serif" font-size="9pt" font-weight="400" font-style="normal"  > <polyline fill="none" vector-effect="non-scaling-stroke" points="0,3.25 72,3.25 " /> </g>          <g fill="none" stroke="#ff0000" stroke-opacity="1" stroke-width="1" stroke-linecap="square" stroke-linejoin="bevel" transform="matrix(1,0,0,1,219,51)" font-family="Verdana" font-size="3pt" font-weight="400" font-style="normal"  > <text fill="#ff0000" fill-opacity="1" stroke="none" xml:space="preserve" x="0" y="4" font-family="Verdana" font-size="3pt" font-weight="400" font-style="normal"   >gc39-seq2</text> </g>      <g fill="#929292" fill-opacity="1" stroke="none" transform="matrix(1,0,0,1,219,56)" font-family="Sans Serif" font-size="9pt" font-weight="400" font-style="normal"  opacity="0.65" > <rect x="0" y="0" width="1.5" height="1.5"/> </g>              <g fill="none" stroke="#929292" stroke-opacity="1" stroke-width="1" stroke-linecap="butt" stroke-linejoin="bevel" transform="matrix(1,0,0,1,147,57.5)" font-family="Sans Serif" font-size="9pt" font-weight="400" font-style="normal"  > <polyline fill="none" vector-effect="non-scaling-stroke" points="24,3.25 24,18 " /> </g>                      <g fill="none" stroke="#ff0000" stroke-opacity="1" stroke-width="1" stroke-linecap="square" stroke-linejoin="bevel" transform="matrix(1,0,0,1,147,63.125)" font-family="Verdana" font-size="3pt" font-weight="400" font-style="normal"  > <text fill="#ff0000" fill-opacity="1" stroke="none" xml:space="preserve" x="0" y="4" font-family="Verdana" font-size="3pt" font-weight="400" font-style="normal"   >gc39-seq10</text> </g>      <g fill="#414186" fill-opacity="1" stroke="none" transform="matrix(1,0,0,1,147,68.125)" font-family="Sans Serif" font-size="9pt" font-weight="400" font-style="normal"  opacity="0.65" > <rect x="0" y="0" width="5" height="5"/> </g>                              <g fill="none" stroke="#ff0000" stroke-opacity="1" stroke-width="1" stroke-linecap="square" stroke-linejoin="bevel" transform="matrix(1,0,0,1,171,57.5)" font-family="Verdana" font-size="3pt" font-weight="400" font-style="normal"  > <text fill="#ff0000" fill-opacity="1" stroke="none" xml:space="preserve" x="0" y="4" font-family="Verdana" font-size="3pt" font-weight="400" font-style="normal"   >gc39-seq5</text> </g>      <g fill="#929292" fill-opacity="1" stroke="none" transform="matrix(1,0,0,1,171,62.5)" font-family="Sans Serif" font-size="9pt" font-weight="400" font-style="normal"  opacity="0.65" > <rect x="0" y="0" width="1.5" height="1.5"/> </g>                              <g fill="none" stroke="#ff0000" stroke-opacity="1" stroke-width="1" stroke-linecap="square" stroke-linejoin="bevel" transform="matrix(1,0,0,1,171,64)" font-family="Verdana" font-size="3pt" font-weight="400" font-style="normal"  > <text fill="#ff0000" fill-opacity="1" stroke="none" xml:space="preserve" x="0" y="4" font-family="Verdana" font-size="3pt" font-weight="400" font-style="normal"   >gc39-seq12</text> </g>      <g fill="#929292" fill-opacity="1" stroke="none" transform="matrix(1,0,0,1,171,69)" font-family="Sans Serif" font-size="9pt" font-weight="400" font-style="normal"  opacity="0.65" > <rect x="0" y="0" width="1.5" height="1.5"/> </g>                              <g fill="none" stroke="#ff0000" stroke-opacity="1" stroke-width="1" stroke-linecap="square" stroke-linejoin="bevel" transform="matrix(1,0,0,1,171,70.5)" font-family="Verdana" font-size="3pt" font-weight="400" font-style="normal"  > <text fill="#ff0000" fill-opacity="1" stroke="none" xml:space="preserve" x="0" y="4" font-family="Verdana" font-size="3pt" font-weight="400" font-style="normal"   >gc39-seq3</text> </g>      <g fill="#414186" fill-opacity="1" stroke="none" transform="matrix(1,0,0,1,171,75.5)" font-family="Sans Serif" font-size="9pt" font-weight="400" font-style="normal"  opacity="0.65" > <rect x="0" y="0" width="5" height="5"/> </g>              <g fill="none" stroke="#929292" stroke-opacity="1" stroke-width="1" stroke-linecap="butt" stroke-linejoin="bevel" transform="matrix(1,0,0,1,25,80.5)" font-family="Sans Serif" font-size="9pt" font-weight="400" font-style="normal"  > <polyline fill="none" vector-effect="non-scaling-stroke" points="50,3.25 50,88 " /> </g>            <g fill="none" stroke="#000000" stroke-opacity="1" stroke-width="1" stroke-linecap="butt" stroke-linejoin="bevel" transform="matrix(1,0,0,1,25,80.5)" font-family="Sans Serif" font-size="9pt" font-weight="400" font-style="normal"  > <polyline fill="none" vector-effect="non-scaling-stroke" points="0,45.625 36,45.625 " /> </g>          <g fill="none" stroke="#ff0000" stroke-opacity="1" stroke-width="1" stroke-linecap="square" stroke-linejoin="bevel" transform="matrix(1,0,0,1,61,121.125)" font-family="Verdana" font-size="3pt" font-weight="400" font-style="normal"  > <text fill="#ff0000" fill-opacity="1" stroke="none" xml:space="preserve" x="0" y="4" font-family="Verdana" font-size="3pt" font-weight="400" font-style="normal"   >gc39-3</text> </g>      <g fill="#fde724" fill-opacity="1" stroke="none" transform="matrix(1,0,0,1,61,126.125)" font-family="Sans Serif" font-size="9pt" font-weight="400" font-style="normal"  opacity="0.65" > <rect x="0" y="0" width="5" height="5"/> </g>                              <g fill="none" stroke="#ff0000" stroke-opacity="1" stroke-width="1" stroke-linecap="square" stroke-linejoin="bevel" transform="matrix(1,0,0,1,75,80.5)" font-family="Verdana" font-size="3pt" font-weight="400" font-style="normal"  > <text fill="#ff0000" fill-opacity="1" stroke="none" xml:space="preserve" x="0" y="4" font-family="Verdana" font-size="3pt" font-weight="400" font-style="normal"   >gc39-seq20</text> </g>      <g fill="#929292" fill-opacity="1" stroke="none" transform="matrix(1,0,0,1,75,85.5)" font-family="Sans Serif" font-size="9pt" font-weight="400" font-style="normal"  opacity="0.65" > <rect x="0" y="0" width="1.5" height="1.5"/> </g>                              <g fill="none" stroke="#ff0000" stroke-opacity="1" stroke-width="1" stroke-linecap="square" stroke-linejoin="bevel" transform="matrix(1,0,0,1,75,87)" font-family="Verdana" font-size="3pt" font-weight="400" font-style="normal"  > <text fill="#ff0000" fill-opacity="1" stroke="none" xml:space="preserve" x="0" y="4" font-family="Verdana" font-size="3pt" font-weight="400" font-style="normal"   >gc39-seq8</text> </g>      <g fill="#929292" fill-opacity="1" stroke="none" transform="matrix(1,0,0,1,75,92)" font-family="Sans Serif" font-size="9pt" font-weight="400" font-style="normal"  opacity="0.65" > <rect x="0" y="0" width="1.5" height="1.5"/> </g>                              <g fill="none" stroke="#ff0000" stroke-opacity="1" stroke-width="1" stroke-linecap="square" stroke-linejoin="bevel" transform="matrix(1,0,0,1,75,93.5)" font-family="Verdana" font-size="3pt" font-weight="400" font-style="normal"  > <text fill="#ff0000" fill-opacity="1" stroke="none" xml:space="preserve" x="0" y="4" font-family="Verdana" font-size="3pt" font-weight="400" font-style="normal"   >gc39-seq7</text> </g>      <g fill="#929292" fill-opacity="1" stroke="none" transform="matrix(1,0,0,1,75,98.5)" font-family="Sans Serif" font-size="9pt" font-weight="400" font-style="normal"  opacity="0.65" > <rect x="0" y="0" width="1.5" height="1.5"/> </g>                              <g fill="none" stroke="#ff0000" stroke-opacity="1" stroke-width="1" stroke-linecap="square" stroke-linejoin="bevel" transform="matrix(1,0,0,1,75,100)" font-family="Verdana" font-size="3pt" font-weight="400" font-style="normal"  > <text fill="#ff0000" fill-opacity="1" stroke="none" xml:space="preserve" x="0" y="4" font-family="Verdana" font-size="3pt" font-weight="400" font-style="normal"   >gc39-seq6</text> </g>      <g fill="#929292" fill-opacity="1" stroke="none" transform="matrix(1,0,0,1,75,105)" font-family="Sans Serif" font-size="9pt" font-weight="400" font-style="normal"  opacity="0.65" > <rect x="0" y="0" width="1.5" height="1.5"/> </g>                              <g fill="none" stroke="#ff0000" stroke-opacity="1" stroke-width="1" stroke-linecap="square" stroke-linejoin="bevel" transform="matrix(1,0,0,1,75,106.5)" font-family="Verdana" font-size="3pt" font-weight="400" font-style="normal"  > <text fill="#ff0000" fill-opacity="1" stroke="none" xml:space="preserve" x="0" y="4" font-family="Verdana" font-size="3pt" font-weight="400" font-style="normal"   >gc39-seq13</text> </g>      <g fill="#929292" fill-opacity="1" stroke="none" transform="matrix(1,0,0,1,75,111.5)" font-family="Sans Serif" font-size="9pt" font-weight="400" font-style="normal"  opacity="0.65" > <rect x="0" y="0" width="1.5" height="1.5"/> </g>                    <g fill="none" stroke="#000000" stroke-opacity="1" stroke-width="1" stroke-linecap="butt" stroke-linejoin="bevel" transform="matrix(1,0,0,1,75,113)" font-family="Sans Serif" font-size="9pt" font-weight="400" font-style="normal"  > <polyline fill="none" vector-effect="non-scaling-stroke" points="0,3.25 72,3.25 " /> </g>          <g fill="none" stroke="#ff0000" stroke-opacity="1" stroke-width="1" stroke-linecap="square" stroke-linejoin="bevel" transform="matrix(1,0,0,1,147,113)" font-family="Verdana" font-size="3pt" font-weight="400" font-style="normal"  > <text fill="#ff0000" fill-opacity="1" stroke="none" xml:space="preserve" x="0" y="4" font-family="Verdana" font-size="3pt" font-weight="400" font-style="normal"   >gc39-seq21</text> </g>      <g fill="#929292" fill-opacity="1" stroke="none" transform="matrix(1,0,0,1,147,118)" font-family="Sans Serif" font-size="9pt" font-weight="400" font-style="normal"  opacity="0.65" > <rect x="0" y="0" width="1.5" height="1.5"/> </g>                          <g fill="none" stroke="#000000" stroke-opacity="1" stroke-width="1" stroke-linecap="butt" stroke-linejoin="bevel" transform="matrix(1,0,0,1,75,119.5)" font-family="Sans Serif" font-size="9pt" font-weight="400" font-style="normal"  > <polyline fill="none" vector-effect="non-scaling-stroke" points="0,5 36,5 " /> </g>          <g fill="none" stroke="#ff0000" stroke-opacity="1" stroke-width="1" stroke-linecap="square" stroke-linejoin="bevel" transform="matrix(1,0,0,1,111,119.5)" font-family="Verdana" font-size="3pt" font-weight="400" font-style="normal"  > <text fill="#ff0000" fill-opacity="1" stroke="none" xml:space="preserve" x="0" y="4" font-family="Verdana" font-size="3pt" font-weight="400" font-style="normal"   >gc39-seq18</text> </g>      <g fill="#267f8e" fill-opacity="1" stroke="none" transform="matrix(1,0,0,1,111,124.5)" font-family="Sans Serif" font-size="9pt" font-weight="400" font-style="normal"  opacity="0.65" > <rect x="0" y="0" width="5" height="5"/> </g>                    <g fill="none" stroke="#000000" stroke-opacity="1" stroke-width="1" stroke-linecap="butt" stroke-linejoin="bevel" transform="matrix(1,0,0,1,135,121.25)" font-family="Sans Serif" font-size="9pt" font-weight="400" font-style="normal"  > <polyline fill="none" vector-effect="non-scaling-stroke" points="0,3.25 36,3.25 " /> </g>          <g fill="none" stroke="#ff0000" stroke-opacity="1" stroke-width="1" stroke-linecap="square" stroke-linejoin="bevel" transform="matrix(1,0,0,1,171,121.25)" font-family="Verdana" font-size="3pt" font-weight="400" font-style="normal"  > <text fill="#ff0000" fill-opacity="1" stroke="none" xml:space="preserve" x="0" y="4" font-family="Verdana" font-size="3pt" font-weight="400" font-style="normal"   >gc39-seq4</text> </g>      <g fill="#929292" fill-opacity="1" stroke="none" transform="matrix(1,0,0,1,171,126.25)" font-family="Sans Serif" font-size="9pt" font-weight="400" font-style="normal"  opacity="0.65" > <rect x="0" y="0" width="1.5" height="1.5"/> </g>              <g fill="none" stroke="#929292" stroke-opacity="1" stroke-width="1" stroke-linecap="butt" stroke-linejoin="bevel" transform="matrix(1,0,0,1,75,129.5)" font-family="Sans Serif" font-size="9pt" font-weight="400" font-style="normal"  > <polyline fill="none" vector-effect="non-scaling-stroke" points="14,3.25 14,9.75 " /> </g>                      <g fill="none" stroke="#ff0000" stroke-opacity="1" stroke-width="1" stroke-linecap="square" stroke-linejoin="bevel" transform="matrix(1,0,0,1,75,131)" font-family="Verdana" font-size="3pt" font-weight="400" font-style="normal"  > <text fill="#ff0000" fill-opacity="1" stroke="none" xml:space="preserve" x="0" y="4" font-family="Verdana" font-size="3pt" font-weight="400" font-style="normal"   >gc39-9</text> </g>      <g fill="#443982" fill-opacity="1" stroke="none" transform="matrix(1,0,0,1,75,136)" font-family="Sans Serif" font-size="9pt" font-weight="400" font-style="normal"  opacity="0.65" > <rect x="0" y="0" width="5" height="5"/> </g>                    <g fill="none" stroke="#000000" stroke-opacity="1" stroke-width="1" stroke-linecap="butt" stroke-linejoin="bevel" transform="matrix(1,0,0,1,89,129.5)" font-family="Sans Serif" font-size="9pt" font-weight="400" font-style="normal"  > <polyline fill="none" vector-effect="non-scaling-stroke" points="0,3.25 72,3.25 " /> </g>          <g fill="none" stroke="#ff0000" stroke-opacity="1" stroke-width="1" stroke-linecap="square" stroke-linejoin="bevel" transform="matrix(1,0,0,1,161,129.5)" font-family="Verdana" font-size="3pt" font-weight="400" font-style="normal"  > <text fill="#ff0000" fill-opacity="1" stroke="none" xml:space="preserve" x="0" y="4" font-family="Verdana" font-size="3pt" font-weight="400" font-style="normal"   >gc39-seq14</text> </g>      <g fill="#929292" fill-opacity="1" stroke="none" transform="matrix(1,0,0,1,161,134.5)" font-family="Sans Serif" font-size="9pt" font-weight="400" font-style="normal"  opacity="0.65" > <rect x="0" y="0" width="1.5" height="1.5"/> </g>                    <g fill="none" stroke="#000000" stroke-opacity="1" stroke-width="1" stroke-linecap="butt" stroke-linejoin="bevel" transform="matrix(1,0,0,1,89,136)" font-family="Sans Serif" font-size="9pt" font-weight="400" font-style="normal"  > <polyline fill="none" vector-effect="non-scaling-stroke" points="0,3.25 72,3.25 " /> </g>          <g fill="none" stroke="#ff0000" stroke-opacity="1" stroke-width="1" stroke-linecap="square" stroke-linejoin="bevel" transform="matrix(1,0,0,1,161,136)" font-family="Verdana" font-size="3pt" font-weight="400" font-style="normal"  > <text fill="#ff0000" fill-opacity="1" stroke="none" xml:space="preserve" x="0" y="4" font-family="Verdana" font-size="3pt" font-weight="400" font-style="normal"   >gc39-seq22</text> </g>      <g fill="#929292" fill-opacity="1" stroke="none" transform="matrix(1,0,0,1,161,141)" font-family="Sans Serif" font-size="9pt" font-weight="400" font-style="normal"  opacity="0.65" > <rect x="0" y="0" width="1.5" height="1.5"/> </g>                          <g fill="none" stroke="#000000" stroke-opacity="1" stroke-width="1" stroke-linecap="butt" stroke-linejoin="bevel" transform="matrix(1,0,0,1,75,142.5)" font-family="Sans Serif" font-size="9pt" font-weight="400" font-style="normal"  > <polyline fill="none" vector-effect="non-scaling-stroke" points="0,3.25 72,3.25 " /> </g>          <g fill="none" stroke="#ff0000" stroke-opacity="1" stroke-width="1" stroke-linecap="square" stroke-linejoin="bevel" transform="matrix(1,0,0,1,147,142.5)" font-family="Verdana" font-size="3pt" font-weight="400" font-style="normal"  > <text fill="#ff0000" fill-opacity="1" stroke="none" xml:space="preserve" x="0" y="4" font-family="Verdana" font-size="3pt" font-weight="400" font-style="normal"   >gc39-seq1</text> </g>      <g fill="#929292" fill-opacity="1" stroke="none" transform="matrix(1,0,0,1,147,147.5)" font-family="Sans Serif" font-size="9pt" font-weight="400" font-style="normal"  opacity="0.65" > <rect x="0" y="0" width="1.5" height="1.5"/> </g>                              <g fill="none" stroke="#ff0000" stroke-opacity="1" stroke-width="1" stroke-linecap="square" stroke-linejoin="bevel" transform="matrix(1,0,0,1,168,142.5)" font-family="Verdana" font-size="3pt" font-weight="400" font-style="normal"  > <text fill="#ff0000" fill-opacity="1" stroke="none" xml:space="preserve" x="0" y="4" font-family="Verdana" font-size="3pt" font-weight="400" font-style="normal"   >gc39-seq15</text> </g>      <g fill="#929292" fill-opacity="1" stroke="none" transform="matrix(1,0,0,1,168,147.5)" font-family="Sans Serif" font-size="9pt" font-weight="400" font-style="normal"  opacity="0.65" > <rect x="0" y="0" width="1.5" height="1.5"/> </g>              <g fill="none" stroke="#929292" stroke-opacity="1" stroke-width="1" stroke-linecap="butt" stroke-linejoin="bevel" transform="matrix(1,0,0,1,75,149)" font-family="Sans Serif" font-size="9pt" font-weight="400" font-style="normal"  > <polyline fill="none" vector-effect="non-scaling-stroke" points="14,3.25 14,35.75 " /> </g>                      <g fill="none" stroke="#ff0000" stroke-opacity="1" stroke-width="1" stroke-linecap="square" stroke-linejoin="bevel" transform="matrix(1,0,0,1,75,163.5)" font-family="Verdana" font-size="3pt" font-weight="400" font-style="normal"  > <text fill="#ff0000" fill-opacity="1" stroke="none" xml:space="preserve" x="0" y="4" font-family="Verdana" font-size="3pt" font-weight="400" font-style="normal"   >gc39-5</text> </g>      <g fill="#33608d" fill-opacity="1" stroke="none" transform="matrix(1,0,0,1,75,168.5)" font-family="Sans Serif" font-size="9pt" font-weight="400" font-style="normal"  opacity="0.65" > <rect x="0" y="0" width="5" height="5"/> </g>                              <g fill="none" stroke="#ff0000" stroke-opacity="1" stroke-width="1" stroke-linecap="square" stroke-linejoin="bevel" transform="matrix(1,0,0,1,89,149)" font-family="Verdana" font-size="3pt" font-weight="400" font-style="normal"  > <text fill="#ff0000" fill-opacity="1" stroke="none" xml:space="preserve" x="0" y="4" font-family="Verdana" font-size="3pt" font-weight="400" font-style="normal"   >gc39-seq11</text> </g>      <g fill="#929292" fill-opacity="1" stroke="none" transform="matrix(1,0,0,1,89,154)" font-family="Sans Serif" font-size="9pt" font-weight="400" font-style="normal"  opacity="0.65" > <rect x="0" y="0" width="1.5" height="1.5"/> </g>                    <g fill="none" stroke="#000000" stroke-opacity="1" stroke-width="1" stroke-linecap="butt" stroke-linejoin="bevel" transform="matrix(1,0,0,1,89,155.5)" font-family="Sans Serif" font-size="9pt" font-weight="400" font-style="normal"  > <polyline fill="none" vector-effect="non-scaling-stroke" points="0,3.25 36,3.25 " /> </g>          <g fill="none" stroke="#ff0000" stroke-opacity="1" stroke-width="1" stroke-linecap="square" stroke-linejoin="bevel" transform="matrix(1,0,0,1,125,155.5)" font-family="Verdana" font-size="3pt" font-weight="400" font-style="normal"  > <text fill="#ff0000" fill-opacity="1" stroke="none" xml:space="preserve" x="0" y="4" font-family="Verdana" font-size="3pt" font-weight="400" font-style="normal"   >gc39-seq9</text> </g>      <g fill="#929292" fill-opacity="1" stroke="none" transform="matrix(1,0,0,1,125,160.5)" font-family="Sans Serif" font-size="9pt" font-weight="400" font-style="normal"  opacity="0.65" > <rect x="0" y="0" width="1.5" height="1.5"/> </g>              <g fill="none" stroke="#929292" stroke-opacity="1" stroke-width="1" stroke-linecap="butt" stroke-linejoin="bevel" transform="matrix(1,0,0,1,89,162)" font-family="Sans Serif" font-size="9pt" font-weight="400" font-style="normal"  > <polyline fill="none" vector-effect="non-scaling-stroke" points="53,3.25 53,9.75 " /> </g>            <g fill="none" stroke="#000000" stroke-opacity="1" stroke-width="1" stroke-linecap="butt" stroke-linejoin="bevel" transform="matrix(1,0,0,1,89,162)" font-family="Sans Serif" font-size="9pt" font-weight="400" font-style="normal"  > <polyline fill="none" vector-effect="non-scaling-stroke" points="0,6.5 36,6.5 " /> </g>          <g fill="none" stroke="#ff0000" stroke-opacity="1" stroke-width="1" stroke-linecap="square" stroke-linejoin="bevel" transform="matrix(1,0,0,1,125,163.5)" font-family="Verdana" font-size="3pt" font-weight="400" font-style="normal"  > <text fill="#ff0000" fill-opacity="1" stroke="none" xml:space="preserve" x="0" y="4" font-family="Verdana" font-size="3pt" font-weight="400" font-style="normal"   >gc39-10</text> </g>      <g fill="#23a982" fill-opacity="1" stroke="none" transform="matrix(1,0,0,1,125,168.5)" font-family="Sans Serif" font-size="9pt" font-weight="400" font-style="normal"  opacity="0.65" > <rect x="0" y="0" width="5" height="5"/> </g>                    <g fill="none" stroke="#000000" stroke-opacity="1" stroke-width="1" stroke-linecap="butt" stroke-linejoin="bevel" transform="matrix(1,0,0,1,142,162)" font-family="Sans Serif" font-size="9pt" font-weight="400" font-style="normal"  > <polyline fill="none" vector-effect="non-scaling-stroke" points="0,3.25 36,3.25 " /> </g>          <g fill="none" stroke="#ff0000" stroke-opacity="1" stroke-width="1" stroke-linecap="square" stroke-linejoin="bevel" transform="matrix(1,0,0,1,178,162)" font-family="Verdana" font-size="3pt" font-weight="400" font-style="normal"  > <text fill="#ff0000" fill-opacity="1" stroke="none" xml:space="preserve" x="0" y="4" font-family="Verdana" font-size="3pt" font-weight="400" font-style="normal"   >gc39-seq16</text> </g>      <g fill="#929292" fill-opacity="1" stroke="none" transform="matrix(1,0,0,1,178,167)" font-family="Sans Serif" font-size="9pt" font-weight="400" font-style="normal"  opacity="0.65" > <rect x="0" y="0" width="1.5" height="1.5"/> </g>                    <g fill="none" stroke="#000000" stroke-opacity="1" stroke-width="1" stroke-linecap="butt" stroke-linejoin="bevel" transform="matrix(1,0,0,1,142,168.5)" font-family="Sans Serif" font-size="9pt" font-weight="400" font-style="normal"  > <polyline fill="none" vector-effect="non-scaling-stroke" points="0,3.25 72,3.25 " /> </g>          <g fill="none" stroke="#ff0000" stroke-opacity="1" stroke-width="1" stroke-linecap="square" stroke-linejoin="bevel" transform="matrix(1,0,0,1,214,168.5)" font-family="Verdana" font-size="3pt" font-weight="400" font-style="normal"  > <text fill="#ff0000" fill-opacity="1" stroke="none" xml:space="preserve" x="0" y="4" font-family="Verdana" font-size="3pt" font-weight="400" font-style="normal"   >gc39-seq23</text> </g>      <g fill="#929292" fill-opacity="1" stroke="none" transform="matrix(1,0,0,1,214,173.5)" font-family="Sans Serif" font-size="9pt" font-weight="400" font-style="normal"  opacity="0.65" > <rect x="0" y="0" width="1.5" height="1.5"/> </g>              <g fill="none" stroke="#929292" stroke-opacity="1" stroke-width="1" stroke-linecap="butt" stroke-linejoin="bevel" transform="matrix(1,0,0,1,89,175)" font-family="Sans Serif" font-size="9pt" font-weight="400" font-style="normal"  > <polyline fill="none" vector-effect="non-scaling-stroke" points="50,3.25 50,16.25 " /> </g>            <g fill="none" stroke="#000000" stroke-opacity="1" stroke-width="1" stroke-linecap="butt" stroke-linejoin="bevel" transform="matrix(1,0,0,1,89,175)" font-family="Sans Serif" font-size="9pt" font-weight="400" font-style="normal"  > <polyline fill="none" vector-effect="non-scaling-stroke" points="0,9.75 36,9.75 " /> </g>          <g fill="none" stroke="#ff0000" stroke-opacity="1" stroke-width="1" stroke-linecap="square" stroke-linejoin="bevel" transform="matrix(1,0,0,1,125,179.75)" font-family="Verdana" font-size="3pt" font-weight="400" font-style="normal"  > <text fill="#ff0000" fill-opacity="1" stroke="none" xml:space="preserve" x="0" y="4" font-family="Verdana" font-size="3pt" font-weight="400" font-style="normal"   >gc39-8</text> </g>      <g fill="#267f8e" fill-opacity="1" stroke="none" transform="matrix(1,0,0,1,125,184.75)" font-family="Sans Serif" font-size="9pt" font-weight="400" font-style="normal"  opacity="0.65" > <rect x="0" y="0" width="5" height="5"/> </g>                              <g fill="none" stroke="#ff0000" stroke-opacity="1" stroke-width="1" stroke-linecap="square" stroke-linejoin="bevel" transform="matrix(1,0,0,1,139,175)" font-family="Verdana" font-size="3pt" font-weight="400" font-style="normal"  > <text fill="#ff0000" fill-opacity="1" stroke="none" xml:space="preserve" x="0" y="4" font-family="Verdana" font-size="3pt" font-weight="400" font-style="normal"   >gc39-seq24</text> </g>      <g fill="#929292" fill-opacity="1" stroke="none" transform="matrix(1,0,0,1,139,180)" font-family="Sans Serif" font-size="9pt" font-weight="400" font-style="normal"  opacity="0.65" > <rect x="0" y="0" width="1.5" height="1.5"/> </g>                              <g fill="none" stroke="#ff0000" stroke-opacity="1" stroke-width="1" stroke-linecap="square" stroke-linejoin="bevel" transform="matrix(1,0,0,1,139,181.5)" font-family="Verdana" font-size="3pt" font-weight="400" font-style="normal"  > <text fill="#ff0000" fill-opacity="1" stroke="none" xml:space="preserve" x="0" y="4" font-family="Verdana" font-size="3pt" font-weight="400" font-style="normal"   >gc39-seq19</text> </g>      <g fill="#929292" fill-opacity="1" stroke="none" transform="matrix(1,0,0,1,139,186.5)" font-family="Sans Serif" font-size="9pt" font-weight="400" font-style="normal"  opacity="0.65" > <rect x="0" y="0" width="1.5" height="1.5"/> </g>                    <g fill="none" stroke="#000000" stroke-opacity="1" stroke-width="1" stroke-linecap="butt" stroke-linejoin="bevel" transform="matrix(1,0,0,1,139,188)" font-family="Sans Serif" font-size="9pt" font-weight="400" font-style="normal"  > <polyline fill="none" vector-effect="non-scaling-stroke" points="0,3.25 36,3.25 " /> </g>          <g fill="none" stroke="#ff0000" stroke-opacity="1" stroke-width="1" stroke-linecap="square" stroke-linejoin="bevel" transform="matrix(1,0,0,1,175,188)" font-family="Verdana" font-size="3pt" font-weight="400" font-style="normal"  > <text fill="#ff0000" fill-opacity="1" stroke="none" xml:space="preserve" x="0" y="4" font-family="Verdana" font-size="3pt" font-weight="400" font-style="normal"   >gc39-seq17</text> </g>      <g fill="#929292" fill-opacity="1" stroke="none" transform="matrix(1,0,0,1,175,193)" font-family="Sans Serif" font-size="9pt" font-weight="400" font-style="normal"  opacity="0.65" > <rect x="0" y="0" width="1.5" height="1.5"/> </g>                                                                                                                                              <g fill="none" stroke="#000000" stroke-opacity="1" stroke-width="1" stroke-linecap="square" stroke-linejoin="bevel" transform="matrix(1,0,0,1,5,0)" font-family="Verdana" font-size="4pt" font-weight="400" font-style="normal"  > <text fill="#000000" fill-opacity="1" stroke="none" xml:space="preserve" x="0" y="6" font-family="Verdana" font-size="4pt" font-weight="400" font-style="normal"   >   AA lb ratio </text> </g>                          <g fill="#443982" fill-opacity="1" stroke="none" transform="matrix(1,0,0,1,44,1)" font-family="Sans Serif" font-size="9pt" font-weight="400" font-style="normal"  opacity="0.65" > <rect x="0" y="0" width="6" height="6"/> </g>      <g fill="#2c728e" fill-opacity="1" stroke="none" transform="matrix(1,0,0,1,44,9)" font-family="Sans Serif" font-size="9pt" font-weight="400" font-style="normal"  opacity="0.65" > <rect x="0" y="0" width="6" height="6"/> </g>      <g fill="#20a485" fill-opacity="1" stroke="none" transform="matrix(1,0,0,1,44,17)" font-family="Sans Serif" font-size="9pt" font-weight="400" font-style="normal"  opacity="0.65" > <rect x="0" y="0" width="6" height="6"/> </g>      <g fill="#74d054" fill-opacity="1" stroke="none" transform="matrix(1,0,0,1,44,25)" font-family="Sans Serif" font-size="9pt" font-weight="400" font-style="normal"  opacity="0.65" > <rect x="0" y="0" width="6" height="6"/> </g>      <g fill="#fde724" fill-opacity="1" stroke="none" transform="matrix(1,0,0,1,44,34)" font-family="Sans Serif" font-size="9pt" font-weight="400" font-style="normal"  opacity="0.65" > <rect x="0" y="0" width="6" height="6"/> </g>      <g fill="none" stroke="#000000" stroke-opacity="1" stroke-width="1" stroke-linecap="square" stroke-linejoin="bevel" transform="matrix(1,0,0,1,50,0)" font-family="Verdana" font-size="4pt" font-weight="400" font-style="normal"  > <text fill="#000000" fill-opacity="1" stroke="none" xml:space="preserve" x="0" y="6" font-family="Verdana" font-size="4pt" font-weight="400" font-style="normal"   >  0.28</text> </g>      <g fill="none" stroke="#000000" stroke-opacity="1" stroke-width="1" stroke-linecap="square" stroke-linejoin="bevel" transform="matrix(1,0,0,1,50,8)" font-family="Verdana" font-size="4pt" font-weight="400" font-style="normal"  > <text fill="#000000" fill-opacity="1" stroke="none" xml:space="preserve" x="0" y="6" font-family="Verdana" font-size="4pt" font-weight="400" font-style="normal"   >  0.65</text> </g>      <g fill="none" stroke="#000000" stroke-opacity="1" stroke-width="1" stroke-linecap="square" stroke-linejoin="bevel" transform="matrix(1,0,0,1,50,16)" font-family="Verdana" font-size="4pt" font-weight="400" font-style="normal"  > <text fill="#000000" fill-opacity="1" stroke="none" xml:space="preserve" x="0" y="6" font-family="Verdana" font-size="4pt" font-weight="400" font-style="normal"   >  1.49</text> </g>      <g fill="none" stroke="#000000" stroke-opacity="1" stroke-width="1" stroke-linecap="square" stroke-linejoin="bevel" transform="matrix(1,0,0,1,50,24)" font-family="Verdana" font-size="4pt" font-weight="400" font-style="normal"  > <text fill="#000000" fill-opacity="1" stroke="none" xml:space="preserve" x="0" y="6" font-family="Verdana" font-size="4pt" font-weight="400" font-style="normal"   >  3.40</text> </g>      <g fill="none" stroke="#000000" stroke-opacity="1" stroke-width="1" stroke-linecap="square" stroke-linejoin="bevel" transform="matrix(1,0,0,1,50,33)" font-family="Verdana" font-size="4pt" font-weight="400" font-style="normal"  > <text fill="#000000" fill-opacity="1" stroke="none" xml:space="preserve" x="0" y="6" font-family="Verdana" font-size="4pt" font-weight="400" font-style="normal"   >  7.78</text> </g>      <g fill="none" stroke="#000000" stroke-opacity="1" stroke-width="1" stroke-linecap="square" stroke-linejoin="bevel" transform="matrix(1,0,0,1,68,0)" font-family="Verdana" font-size="4pt" font-weight="400" font-style="normal"  > <text fill="#000000" fill-opacity="1" stroke="none" xml:space="preserve" x="0" y="6" font-family="Verdana" font-size="4pt" font-weight="400" font-style="normal"   >   affinity decrease </text> </g>                          <g fill="#929292" fill-opacity="1" stroke="none" transform="matrix(1,0,0,1,126,3.25)" font-family="Sans Serif" font-size="9pt" font-weight="400" font-style="normal"  > <rect x="0" y="0" width="1.5" height="1.5"/> </g>      <g fill="#929292" fill-opacity="1" stroke="none" transform="matrix(1,0,0,1,126,10.1875)" font-family="Sans Serif" font-size="9pt" font-weight="400" font-style="normal"  > <rect x="0" y="0" width="3.625" height="3.625"/> </g>      <g fill="#929292" fill-opacity="1" stroke="none" transform="matrix(1,0,0,1,126,17.125)" font-family="Sans Serif" font-size="9pt" font-weight="400" font-style="normal"  > <rect x="0" y="0" width="5.75" height="5.75"/> </g>      <g fill="#929292" fill-opacity="1" stroke="none" transform="matrix(1,0,0,1,126,24.0625)" font-family="Sans Serif" font-size="9pt" font-weight="400" font-style="normal"  > <rect x="0" y="0" width="7.875" height="7.875"/> </g>      <g fill="#929292" fill-opacity="1" stroke="none" transform="matrix(1,0,0,1,126,32)" font-family="Sans Serif" font-size="9pt" font-weight="400" font-style="normal"  > <rect x="0" y="0" width="10" height="10"/> </g>      <g fill="none" stroke="#000000" stroke-opacity="1" stroke-width="1" stroke-linecap="square" stroke-linejoin="bevel" transform="matrix(1,0,0,1,136,0)" font-family="Verdana" font-size="4pt" font-weight="400" font-style="normal"  > <text fill="#000000" fill-opacity="1" stroke="none" xml:space="preserve" x="0" y="6" font-family="Verdana" font-size="4pt" font-weight="400" font-style="normal"   >  --1.0</text> </g>      <g fill="none" stroke="#000000" stroke-opacity="1" stroke-width="1" stroke-linecap="square" stroke-linejoin="bevel" transform="matrix(1,0,0,1,136,8)" font-family="Verdana" font-size="4pt" font-weight="400" font-style="normal"  > <text fill="#000000" fill-opacity="1" stroke="none" xml:space="preserve" x="0" y="6" font-family="Verdana" font-size="4pt" font-weight="400" font-style="normal"   >  --0.5</text> </g>      <g fill="none" stroke="#000000" stroke-opacity="1" stroke-width="1" stroke-linecap="square" stroke-linejoin="bevel" transform="matrix(1,0,0,1,136,16)" font-family="Verdana" font-size="4pt" font-weight="400" font-style="normal"  > <text fill="#000000" fill-opacity="1" stroke="none" xml:space="preserve" x="0" y="6" font-family="Verdana" font-size="4pt" font-weight="400" font-style="normal"   >  -0.0</text> </g>      <g fill="none" stroke="#000000" stroke-opacity="1" stroke-width="1" stroke-linecap="square" stroke-linejoin="bevel" transform="matrix(1,0,0,1,136,24)" font-family="Verdana" font-size="4pt" font-weight="400" font-style="normal"  > <text fill="#000000" fill-opacity="1" stroke="none" xml:space="preserve" x="0" y="6" font-family="Verdana" font-size="4pt" font-weight="400" font-style="normal"   >  -0.5</text> </g>      <g fill="none" stroke="#000000" stroke-opacity="1" stroke-width="1" stroke-linecap="square" stroke-linejoin="bevel" transform="matrix(1,0,0,1,136,33)" font-family="Verdana" font-size="4pt" font-weight="400" font-style="normal"  > <text fill="#000000" fill-opacity="1" stroke="none" xml:space="preserve" x="0" y="6" font-family="Verdana" font-size="4pt" font-weight="400" font-style="normal"   >  -1.0</text> </g>      <g fill="none" stroke="#000000" stroke-opacity="1" stroke-width="1" stroke-linecap="square" stroke-linejoin="bevel" transform="matrix(1,0,0,1,154,0)" font-family="Verdana" font-size="4pt" font-weight="400" font-style="normal"  > <text fill="#000000" fill-opacity="1" stroke="none" xml:space="preserve" x="0" y="6" font-family="Verdana" font-size="4pt" font-weight="400" font-style="normal"   >   affinity increase </text> </g>                          <g fill="#929292" fill-opacity="1" stroke="none" transform="matrix(1,0,0,1,210,3.25)" font-family="Sans Serif" font-size="9pt" font-weight="400" font-style="normal"  > <rect x="0" y="0" width="1.5" height="1.5"/> </g>      <g fill="#929292" fill-opacity="1" stroke="none" transform="matrix(1,0,0,1,210,10.1875)" font-family="Sans Serif" font-size="9pt" font-weight="400" font-style="normal"  > <rect x="0" y="0" width="3.625" height="3.625"/> </g>      <g fill="#929292" fill-opacity="1" stroke="none" transform="matrix(1,0,0,1,210,17.125)" font-family="Sans Serif" font-size="9pt" font-weight="400" font-style="normal"  > <rect x="0" y="0" width="5.75" height="5.75"/> </g>      <g fill="#929292" fill-opacity="1" stroke="none" transform="matrix(1,0,0,1,210,24.0625)" font-family="Sans Serif" font-size="9pt" font-weight="400" font-style="normal"  > <rect x="0" y="0" width="7.875" height="7.875"/> </g>      <g fill="#929292" fill-opacity="1" stroke="none" transform="matrix(1,0,0,1,210,32)" font-family="Sans Serif" font-size="9pt" font-weight="400" font-style="normal"  > <rect x="0" y="0" width="10" height="10"/> </g>      <g fill="none" stroke="#000000" stroke-opacity="1" stroke-width="1" stroke-linecap="square" stroke-linejoin="bevel" transform="matrix(1,0,0,1,220,0)" font-family="Verdana" font-size="4pt" font-weight="400" font-style="normal"  > <text fill="#000000" fill-opacity="1" stroke="none" xml:space="preserve" x="0" y="6" font-family="Verdana" font-size="4pt" font-weight="400" font-style="normal"   >  +-1.0</text> </g>      <g fill="none" stroke="#000000" stroke-opacity="1" stroke-width="1" stroke-linecap="square" stroke-linejoin="bevel" transform="matrix(1,0,0,1,220,8)" font-family="Verdana" font-size="4pt" font-weight="400" font-style="normal"  > <text fill="#000000" fill-opacity="1" stroke="none" xml:space="preserve" x="0" y="6" font-family="Verdana" font-size="4pt" font-weight="400" font-style="normal"   >  +-0.5</text> </g>      <g fill="none" stroke="#000000" stroke-opacity="1" stroke-width="1" stroke-linecap="square" stroke-linejoin="bevel" transform="matrix(1,0,0,1,220,16)" font-family="Verdana" font-size="4pt" font-weight="400" font-style="normal"  > <text fill="#000000" fill-opacity="1" stroke="none" xml:space="preserve" x="0" y="6" font-family="Verdana" font-size="4pt" font-weight="400" font-style="normal"   >  +0.0</text> </g>      <g fill="none" stroke="#000000" stroke-opacity="1" stroke-width="1" stroke-linecap="square" stroke-linejoin="bevel" transform="matrix(1,0,0,1,220,24)" font-family="Verdana" font-size="4pt" font-weight="400" font-style="normal"  > <text fill="#000000" fill-opacity="1" stroke="none" xml:space="preserve" x="0" y="6" font-family="Verdana" font-size="4pt" font-weight="400" font-style="normal"   >  +0.5</text> </g>      <g fill="none" stroke="#000000" stroke-opacity="1" stroke-width="1" stroke-linecap="square" stroke-linejoin="bevel" transform="matrix(1,0,0,1,220,33)" font-family="Verdana" font-size="4pt" font-weight="400" font-style="normal"  > <text fill="#000000" fill-opacity="1" stroke="none" xml:space="preserve" x="0" y="6" font-family="Verdana" font-size="4pt" font-weight="400" font-style="normal"   >  +1.0</text> </g>      <g fill="none" stroke="#000000" stroke-opacity="1" stroke-width="1" stroke-linecap="square" stroke-linejoin="bevel" transform="matrix(1,0,0,1,1,195.5)" font-family="Sans Serif" font-size="9pt" font-weight="400" font-style="normal"  > <polyline fill="none" vector-effect="none" points="0,5 50,5 " /> </g>      <g fill="none" stroke="#000000" stroke-opacity="1" stroke-width="1" stroke-linecap="square" stroke-linejoin="bevel" transform="matrix(1,0,0,1,1,195.5)" font-family="Sans Serif" font-size="9pt" font-weight="400" font-style="normal"  > <polyline fill="none" vector-effect="none" points="0,0 0,10 " /> </g>      <g fill="none" stroke="#000000" stroke-opacity="1" stroke-width="1" stroke-linecap="square" stroke-linejoin="bevel" transform="matrix(1,0,0,1,1,195.5)" font-family="Sans Serif" font-size="9pt" font-weight="400" font-style="normal"  > <polyline fill="none" vector-effect="none" points="50,0 50,10 " /> </g>      <g fill="none" stroke="#000000" stroke-opacity="1" stroke-width="1" stroke-linecap="square" stroke-linejoin="bevel" transform="matrix(1,0,0,1,1,205.5)" font-family="Sans Serif" font-size="9pt" font-weight="400" font-style="normal"  > <text fill="#000000" fill-opacity="1" stroke="none" xml:space="preserve" x="0" y="13" font-family="Sans Serif" font-size="9pt" font-weight="400" font-style="normal"   >0.0124008</text> </g>     </g> </svg> 