<?xml version="1.0" encoding="UTF-8" standalone="no"?> <svg width="89.9583mm" height="124.178mm"  viewBox="0 0 255 352.9"  xmlns="http://www.w3.org/2000/svg" xmlns:xlink="http://www.w3.org/1999/xlink"  version="1.2" baseProfile="tiny"> <title>Generated with ETE http://etetoolkit.org</title> <desc>Generated with ETE http://etetoolkit.org</desc> <defs> </defs> <g fill="none" stroke="black" stroke-width="1" fill-rule="evenodd" stroke-linecap="square" stroke-linejoin="bevel" >      <g fill="none" stroke="none" transform="matrix(1,0,0,1,0,42)" font-family="Sans Serif" font-size="9pt" font-weight="400" font-style="normal"  > <rect x="0" y="-42" width="255" height="352.9"/> </g>      <g fill="none" stroke="none" transform="matrix(1,0,0,1,1,43)" font-family="Sans Serif" font-size="9pt" font-weight="400" font-style="normal"  > <rect x="0" y="0" width="253" height="258.9"/> </g>                                                                                                                                  <g fill="none" stroke="#000000" stroke-opacity="1" stroke-width="1" stroke-linecap="butt" stroke-linejoin="bevel" transform="matrix(1,0,0,1,1,43)" font-family="Sans Serif" font-size="9pt" font-weight="400" font-style="normal"  > <polyline fill="none" vector-effect="non-scaling-stroke" points="24,12.3 24,126.506 " /> </g>                      <g fill="none" stroke="#ff0000" stroke-opacity="1" stroke-width="1" stroke-linecap="square" stroke-linejoin="bevel" transform="matrix(1,0,0,1,1,105.753)" font-family="Verdana" font-size="3pt" font-weight="400" font-style="normal"  > <text fill="#ff0000" fill-opacity="1" stroke="none" xml:space="preserve" x="0" y="4" font-family="Verdana" font-size="3pt" font-weight="400" font-style="normal"   >gc39-naive</text> </g>      <g fill="#440154" fill-opacity="1" stroke="none" transform="matrix(1,0,0,1,1,110.753)" font-family="Sans Serif" font-size="9pt" font-weight="400" font-style="normal"  opacity="0.65" > <rect x="0" y="0" width="8.3" height="8.3"/> </g>              <g fill="none" stroke="#000000" stroke-opacity="1" stroke-width="1" stroke-linecap="butt" stroke-linejoin="bevel" transform="matrix(1,0,0,1,25,43)" font-family="Sans Serif" font-size="9pt" font-weight="400" font-style="normal"  > <polyline fill="none" vector-effect="non-scaling-stroke" points="52.5714,3.25 52.5714,21.35 " /> </g>            <g fill="none" stroke="#000000" stroke-opacity="1" stroke-width="1" stroke-linecap="butt" stroke-linejoin="bevel" transform="matrix(1,0,0,1,25,43)" font-family="Sans Serif" font-size="9pt" font-weight="400" font-style="normal"  > <polyline fill="none" vector-effect="non-scaling-stroke" points="0,12.3 38.5714,12.3 " /> </g>          <g fill="none" stroke="#ff0000" stroke-opacity="1" stroke-width="1" stroke-linecap="square" stroke-linejoin="bevel" transform="matrix(1,0,0,1,63.5714,50.35)" font-family="Verdana" font-size="3pt" font-weight="400" font-style="normal"  > <text fill="#ff0000" fill-opacity="1" stroke="none" xml:space="preserve" x="0" y="4" font-family="Verdana" font-size="3pt" font-weight="400" font-style="normal"   >gc39-2</text> </g>      <g fill="#929292" fill-opacity="1" stroke="none" transform="matrix(1,0,0,1,63.5714,55.35)" font-family="Sans Serif" font-size="9pt" font-weight="400" font-style="normal"  opacity="0.65" > <rect x="0" y="0" width="4.9" height="4.9"/> </g>                    <g fill="none" stroke="#000000" stroke-opacity="1" stroke-width="1" stroke-linecap="butt" stroke-linejoin="bevel" transform="matrix(1,0,0,1,77.5714,43)" font-family="Sans Serif" font-size="9pt" font-weight="400" font-style="normal"  > <polyline fill="none" vector-effect="non-scaling-stroke" points="0,3.25 64.2857,3.25 " /> </g>          <g fill="none" stroke="#ff0000" stroke-opacity="1" stroke-width="1" stroke-linecap="square" stroke-linejoin="bevel" transform="matrix(1,0,0,1,141.857,43)" font-family="Verdana" font-size="3pt" font-weight="400" font-style="normal"  > <text fill="#ff0000" fill-opacity="1" stroke="none" xml:space="preserve" x="0" y="4" font-family="Verdana" font-size="3pt" font-weight="400" font-style="normal"   >gc39-seq2</text> </g>      <g fill="#929292" fill-opacity="1" stroke="none" transform="matrix(1,0,0,1,141.857,48)" font-family="Sans Serif" font-size="9pt" font-weight="400" font-style="normal"  opacity="0.65" > <rect x="0" y="0" width="1.5" height="1.5"/> </g>              <g fill="none" stroke="#000000" stroke-opacity="1" stroke-width="1" stroke-linecap="butt" stroke-linejoin="bevel" transform="matrix(1,0,0,1,77.5714,49.5)" font-family="Sans Serif" font-size="9pt" font-weight="400" font-style="normal"  > <polyline fill="none" vector-effect="non-scaling-stroke" points="62.5714,4.95 62.5714,24.75 " /> </g>            <g fill="none" stroke="#000000" stroke-opacity="1" stroke-width="1" stroke-linecap="butt" stroke-linejoin="bevel" transform="matrix(1,0,0,1,77.5714,49.5)" font-family="Sans Serif" font-size="9pt" font-weight="400" font-style="normal"  > <polyline fill="none" vector-effect="non-scaling-stroke" points="0,14.85 38.5714,14.85 " /> </g>          <g fill="none" stroke="#ff0000" stroke-opacity="1" stroke-width="1" stroke-linecap="square" stroke-linejoin="bevel" transform="matrix(1,0,0,1,116.143,59.4)" font-family="Verdana" font-size="3pt" font-weight="400" font-style="normal"  > <text fill="#ff0000" fill-opacity="1" stroke="none" xml:space="preserve" x="0" y="4" font-family="Verdana" font-size="3pt" font-weight="400" font-style="normal"   >gc39-seq10</text> </g>      <g fill="#929292" fill-opacity="1" stroke="none" transform="matrix(1,0,0,1,116.143,64.4)" font-family="Sans Serif" font-size="9pt" font-weight="400" font-style="normal"  opacity="0.65" > <rect x="0" y="0" width="4.9" height="4.9"/> </g>                    <g fill="none" stroke="#000000" stroke-opacity="1" stroke-width="1" stroke-linecap="butt" stroke-linejoin="bevel" transform="matrix(1,0,0,1,140.143,49.5)" font-family="Sans Serif" font-size="9pt" font-weight="400" font-style="normal"  > <polyline fill="none" vector-effect="non-scaling-stroke" points="0,4.95 12.8571,4.95 " /> </g>          <g fill="none" stroke="#ff0000" stroke-opacity="1" stroke-width="1" stroke-linecap="square" stroke-linejoin="bevel" transform="matrix(1,0,0,1,153,49.5)" font-family="Verdana" font-size="3pt" font-weight="400" font-style="normal"  > <text fill="#ff0000" fill-opacity="1" stroke="none" xml:space="preserve" x="0" y="4" font-family="Verdana" font-size="3pt" font-weight="400" font-style="normal"   >gc39-seq5</text> </g>      <g fill="#929292" fill-opacity="1" stroke="none" transform="matrix(1,0,0,1,153,54.5)" font-family="Sans Serif" font-size="9pt" font-weight="400" font-style="normal"  opacity="0.65" > <rect x="0" y="0" width="4.9" height="4.9"/> </g>                    <g fill="none" stroke="#000000" stroke-opacity="1" stroke-width="1" stroke-linecap="butt" stroke-linejoin="bevel" transform="matrix(1,0,0,1,140.143,59.4)" font-family="Sans Serif" font-size="9pt" font-weight="400" font-style="normal"  > <polyline fill="none" vector-effect="non-scaling-stroke" points="0,4.95 12.8571,4.95 " /> </g>          <g fill="none" stroke="#ff0000" stroke-opacity="1" stroke-width="1" stroke-linecap="square" stroke-linejoin="bevel" transform="matrix(1,0,0,1,153,59.4)" font-family="Verdana" font-size="3pt" font-weight="400" font-style="normal"  > <text fill="#ff0000" fill-opacity="1" stroke="none" xml:space="preserve" x="0" y="4" font-family="Verdana" font-size="3pt" font-weight="400" font-style="normal"   >gc39-seq12</text> </g>      <g fill="#929292" fill-opacity="1" stroke="none" transform="matrix(1,0,0,1,153,64.4)" font-family="Sans Serif" font-size="9pt" font-weight="400" font-style="normal"  opacity="0.65" > <rect x="0" y="0" width="4.9" height="4.9"/> </g>                    <g fill="none" stroke="#000000" stroke-opacity="1" stroke-width="1" stroke-linecap="butt" stroke-linejoin="bevel" transform="matrix(1,0,0,1,140.143,69.3)" font-family="Sans Serif" font-size="9pt" font-weight="400" font-style="normal"  > <polyline fill="none" vector-effect="non-scaling-stroke" points="0,4.95 12.8571,4.95 " /> </g>          <g fill="none" stroke="#ff0000" stroke-opacity="1" stroke-width="1" stroke-linecap="square" stroke-linejoin="bevel" transform="matrix(1,0,0,1,153,69.3)" font-family="Verdana" font-size="3pt" font-weight="400" font-style="normal"  > <text fill="#ff0000" fill-opacity="1" stroke="none" xml:space="preserve" x="0" y="4" font-family="Verdana" font-size="3pt" font-weight="400" font-style="normal"   >gc39-seq3</text> </g>      <g fill="#929292" fill-opacity="1" stroke="none" transform="matrix(1,0,0,1,153,74.3)" font-family="Sans Serif" font-size="9pt" font-weight="400" font-style="normal"  opacity="0.65" > <rect x="0" y="0" width="4.9" height="4.9"/> </g>              <g fill="none" stroke="#000000" stroke-opacity="1" stroke-width="1" stroke-linecap="butt" stroke-linejoin="bevel" transform="matrix(1,0,0,1,25,79.2)" font-family="Sans Serif" font-size="9pt" font-weight="400" font-style="normal"  > <polyline fill="none" vector-effect="non-scaling-stroke" points="39.7143,7.5 39.7143,173.112 " /> </g>            <g fill="none" stroke="#000000" stroke-opacity="1" stroke-width="1" stroke-linecap="butt" stroke-linejoin="bevel" transform="matrix(1,0,0,1,25,79.2)" font-family="Sans Serif" font-size="9pt" font-weight="400" font-style="normal"  > <polyline fill="none" vector-effect="non-scaling-stroke" points="0,90.3062 25.7143,90.3062 " /> </g>          <g fill="none" stroke="#ff0000" stroke-opacity="1" stroke-width="1" stroke-linecap="square" stroke-linejoin="bevel" transform="matrix(1,0,0,1,50.7143,162.006)" font-family="Verdana" font-size="3pt" font-weight="400" font-style="normal"  > <text fill="#ff0000" fill-opacity="1" stroke="none" xml:space="preserve" x="0" y="4" font-family="Verdana" font-size="3pt" font-weight="400" font-style="normal"   >gc39-3</text> </g>      <g fill="#929292" fill-opacity="1" stroke="none" transform="matrix(1,0,0,1,50.7143,167.006)" font-family="Sans Serif" font-size="9pt" font-weight="400" font-style="normal"  opacity="0.65" > <rect x="0" y="0" width="10" height="10"/> </g>                    <g fill="none" stroke="#000000" stroke-opacity="1" stroke-width="1" stroke-linecap="butt" stroke-linejoin="bevel" transform="matrix(1,0,0,1,64.7143,79.2)" font-family="Sans Serif" font-size="9pt" font-weight="400" font-style="normal"  > <polyline fill="none" vector-effect="non-scaling-stroke" points="0,7.5 38.5714,7.5 " /> </g>          <g fill="none" stroke="#ff0000" stroke-opacity="1" stroke-width="1" stroke-linecap="square" stroke-linejoin="bevel" transform="matrix(1,0,0,1,103.286,79.2)" font-family="Verdana" font-size="3pt" font-weight="400" font-style="normal"  > <text fill="#ff0000" fill-opacity="1" stroke="none" xml:space="preserve" x="0" y="4" font-family="Verdana" font-size="3pt" font-weight="400" font-style="normal"   >gc39-seq20</text> </g>      <g fill="#929292" fill-opacity="1" stroke="none" transform="matrix(1,0,0,1,103.286,84.2)" font-family="Sans Serif" font-size="9pt" font-weight="400" font-style="normal"  opacity="0.65" > <rect x="0" y="0" width="10" height="10"/> </g>                    <g fill="none" stroke="#000000" stroke-opacity="1" stroke-width="1" stroke-linecap="butt" stroke-linejoin="bevel" transform="matrix(1,0,0,1,64.7143,94.2)" font-family="Sans Serif" font-size="9pt" font-weight="400" font-style="normal"  > <polyline fill="none" vector-effect="non-scaling-stroke" points="0,7.5 12.8571,7.5 " /> </g>          <g fill="none" stroke="#ff0000" stroke-opacity="1" stroke-width="1" stroke-linecap="square" stroke-linejoin="bevel" transform="matrix(1,0,0,1,77.5714,94.2)" font-family="Verdana" font-size="3pt" font-weight="400" font-style="normal"  > <text fill="#ff0000" fill-opacity="1" stroke="none" xml:space="preserve" x="0" y="4" font-family="Verdana" font-size="3pt" font-weight="400" font-style="normal"   >gc39-seq8</text> </g>      <g fill="#929292" fill-opacity="1" stroke="none" transform="matrix(1,0,0,1,77.5714,99.2)" font-family="Sans Serif" font-size="9pt" font-weight="400" font-style="normal"  opacity="0.65" > <rect x="0" y="0" width="10" height="10"/> </g>                    <g fill="none" stroke="#000000" stroke-opacity="1" stroke-width="1" stroke-linecap="butt" stroke-linejoin="bevel" transform="matrix(1,0,0,1,64.7143,109.2)" font-family="Sans Serif" font-size="9pt" font-weight="400" font-style="normal"  > <polyline fill="none" vector-effect="non-scaling-stroke" points="0,7.5 38.5714,7.5 " /> </g>          <g fill="none" stroke="#ff0000" stroke-opacity="1" stroke-width="1" stroke-linecap="square" stroke-linejoin="bevel" transform="matrix(1,0,0,1,103.286,109.2)" font-family="Verdana" font-size="3pt" font-weight="400" font-style="normal"  > <text fill="#ff0000" fill-opacity="1" stroke="none" xml:space="preserve" x="0" y="4" font-family="Verdana" font-size="3pt" font-weight="400" font-style="normal"   >gc39-seq7</text> </g>      <g fill="#929292" fill-opacity="1" stroke="none" transform="matrix(1,0,0,1,103.286,114.2)" font-family="Sans Serif" font-size="9pt" font-weight="400" font-style="normal"  opacity="0.65" > <rect x="0" y="0" width="10" height="10"/> </g>                    <g fill="none" stroke="#000000" stroke-opacity="1" stroke-width="1" stroke-linecap="butt" stroke-linejoin="bevel" transform="matrix(1,0,0,1,64.7143,124.2)" font-family="Sans Serif" font-size="9pt" font-weight="400" font-style="normal"  > <polyline fill="none" vector-effect="non-scaling-stroke" points="0,7.5 51.4286,7.5 " /> </g>          <g fill="none" stroke="#ff0000" stroke-opacity="1" stroke-width="1" stroke-linecap="square" stroke-linejoin="bevel" transform="matrix(1,0,0,1,116.143,124.2)" font-family="Verdana" font-size="3pt" font-weight="400" font-style="normal"  > <text fill="#ff0000" fill-opacity="1" stroke="none" xml:space="preserve" x="0" y="4" font-family="Verdana" font-size="3pt" font-weight="400" font-style="normal"   >gc39-seq6</text> </g>      <g fill="#929292" fill-opacity="1" stroke="none" transform="matrix(1,0,0,1,116.143,129.2)" font-family="Sans Serif" font-size="9pt" font-weight="400" font-style="normal"  opacity="0.65" > <rect x="0" y="0" width="10" height="10"/> </g>                    <g fill="none" stroke="#000000" stroke-opacity="1" stroke-width="1" stroke-linecap="butt" stroke-linejoin="bevel" transform="matrix(1,0,0,1,64.7143,139.2)" font-family="Sans Serif" font-size="9pt" font-weight="400" font-style="normal"  > <polyline fill="none" vector-effect="non-scaling-stroke" points="0,7.5 51.4286,7.5 " /> </g>          <g fill="none" stroke="#ff0000" stroke-opacity="1" stroke-width="1" stroke-linecap="square" stroke-linejoin="bevel" transform="matrix(1,0,0,1,116.143,139.2)" font-family="Verdana" font-size="3pt" font-weight="400" font-style="normal"  > <text fill="#ff0000" fill-opacity="1" stroke="none" xml:space="preserve" x="0" y="4" font-family="Verdana" font-size="3pt" font-weight="400" font-style="normal"   >gc39-seq13</text> </g>      <g fill="#929292" fill-opacity="1" stroke="none" transform="matrix(1,0,0,1,116.143,144.2)" font-family="Sans Serif" font-size="9pt" font-weight="400" font-style="normal"  opacity="0.65" > <rect x="0" y="0" width="10" height="10"/> </g>                    <g fill="none" stroke="#000000" stroke-opacity="1" stroke-width="1" stroke-linecap="butt" stroke-linejoin="bevel" transform="matrix(1,0,0,1,64.7143,154.2)" font-family="Sans Serif" font-size="9pt" font-weight="400" font-style="normal"  > <polyline fill="none" vector-effect="non-scaling-stroke" points="0,5.8 38.5714,5.8 " /> </g>          <g fill="none" stroke="#ff0000" stroke-opacity="1" stroke-width="1" stroke-linecap="square" stroke-linejoin="bevel" transform="matrix(1,0,0,1,103.286,154.2)" font-family="Verdana" font-size="3pt" font-weight="400" font-style="normal"  > <text fill="#ff0000" fill-opacity="1" stroke="none" xml:space="preserve" x="0" y="4" font-family="Verdana" font-size="3pt" font-weight="400" font-style="normal"   >gc39-seq21</text> </g>      <g fill="#929292" fill-opacity="1" stroke="none" transform="matrix(1,0,0,1,103.286,159.2)" font-family="Sans Serif" font-size="9pt" font-weight="400" font-style="normal"  opacity="0.65" > <rect x="0" y="0" width="6.6" height="6.6"/> </g>                          <g fill="none" stroke="#000000" stroke-opacity="1" stroke-width="1" stroke-linecap="butt" stroke-linejoin="bevel" transform="matrix(1,0,0,1,64.7143,165.8)" font-family="Sans Serif" font-size="9pt" font-weight="400" font-style="normal"  > <polyline fill="none" vector-effect="non-scaling-stroke" points="0,6.65 25.7143,6.65 " /> </g>          <g fill="none" stroke="#ff0000" stroke-opacity="1" stroke-width="1" stroke-linecap="square" stroke-linejoin="bevel" transform="matrix(1,0,0,1,90.4286,165.8)" font-family="Verdana" font-size="3pt" font-weight="400" font-style="normal"  > <text fill="#ff0000" fill-opacity="1" stroke="none" xml:space="preserve" x="0" y="4" font-family="Verdana" font-size="3pt" font-weight="400" font-style="normal"   >gc39-seq18</text> </g>      <g fill="#929292" fill-opacity="1" stroke="none" transform="matrix(1,0,0,1,90.4286,170.8)" font-family="Sans Serif" font-size="9pt" font-weight="400" font-style="normal"  opacity="0.65" > <rect x="0" y="0" width="8.3" height="8.3"/> </g>                    <g fill="none" stroke="#000000" stroke-opacity="1" stroke-width="1" stroke-linecap="butt" stroke-linejoin="bevel" transform="matrix(1,0,0,1,114.429,166.65)" font-family="Sans Serif" font-size="9pt" font-weight="400" font-style="normal"  > <polyline fill="none" vector-effect="non-scaling-stroke" points="0,5.8 25.7143,5.8 " /> </g>          <g fill="none" stroke="#ff0000" stroke-opacity="1" stroke-width="1" stroke-linecap="square" stroke-linejoin="bevel" transform="matrix(1,0,0,1,140.143,166.65)" font-family="Verdana" font-size="3pt" font-weight="400" font-style="normal"  > <text fill="#ff0000" fill-opacity="1" stroke="none" xml:space="preserve" x="0" y="4" font-family="Verdana" font-size="3pt" font-weight="400" font-style="normal"   >gc39-seq4</text> </g>      <g fill="#929292" fill-opacity="1" stroke="none" transform="matrix(1,0,0,1,140.143,171.65)" font-family="Sans Serif" font-size="9pt" font-weight="400" font-style="normal"  opacity="0.65" > <rect x="0" y="0" width="6.6" height="6.6"/> </g>              <g fill="none" stroke="#000000" stroke-opacity="1" stroke-width="1" stroke-linecap="butt" stroke-linejoin="bevel" transform="matrix(1,0,0,1,64.7143,179.1)" font-family="Sans Serif" font-size="9pt" font-weight="400" font-style="normal"  > <polyline fill="none" vector-effect="non-scaling-stroke" points="26.8571,5.8 26.8571,17.4 " /> </g>            <g fill="none" stroke="#000000" stroke-opacity="1" stroke-width="1" stroke-linecap="butt" stroke-linejoin="bevel" transform="matrix(1,0,0,1,64.7143,179.1)" font-family="Sans Serif" font-size="9pt" font-weight="400" font-style="normal"  > <polyline fill="none" vector-effect="non-scaling-stroke" points="0,11.6 12.8571,11.6 " /> </g>          <g fill="none" stroke="#ff0000" stroke-opacity="1" stroke-width="1" stroke-linecap="square" stroke-linejoin="bevel" transform="matrix(1,0,0,1,77.5714,183.2)" font-family="Verdana" font-size="3pt" font-weight="400" font-style="normal"  > <text fill="#ff0000" fill-opacity="1" stroke="none" xml:space="preserve" x="0" y="4" font-family="Verdana" font-size="3pt" font-weight="400" font-style="normal"   >gc39-9</text> </g>      <g fill="#929292" fill-opacity="1" stroke="none" transform="matrix(1,0,0,1,77.5714,188.2)" font-family="Sans Serif" font-size="9pt" font-weight="400" font-style="normal"  opacity="0.65" > <rect x="0" y="0" width="10" height="10"/> </g>                    <g fill="none" stroke="#000000" stroke-opacity="1" stroke-width="1" stroke-linecap="butt" stroke-linejoin="bevel" transform="matrix(1,0,0,1,91.5714,179.1)" font-family="Sans Serif" font-size="9pt" font-weight="400" font-style="normal"  > <polyline fill="none" vector-effect="non-scaling-stroke" points="0,5.8 51.4286,5.8 " /> </g>          <g fill="none" stroke="#ff0000" stroke-opacity="1" stroke-width="1" stroke-linecap="square" stroke-linejoin="bevel" transform="matrix(1,0,0,1,143,179.1)" font-family="Verdana" font-size="3pt" font-weight="400" font-style="normal"  > <text fill="#ff0000" fill-opacity="1" stroke="none" xml:space="preserve" x="0" y="4" font-family="Verdana" font-size="3pt" font-weight="400" font-style="normal"   >gc39-seq14</text> </g>      <g fill="#929292" fill-opacity="1" stroke="none" transform="matrix(1,0,0,1,143,184.1)" font-family="Sans Serif" font-size="9pt" font-weight="400" font-style="normal"  opacity="0.65" > <rect x="0" y="0" width="6.6" height="6.6"/> </g>                    <g fill="none" stroke="#000000" stroke-opacity="1" stroke-width="1" stroke-linecap="butt" stroke-linejoin="bevel" transform="matrix(1,0,0,1,91.5714,190.7)" font-family="Sans Serif" font-size="9pt" font-weight="400" font-style="normal"  > <polyline fill="none" vector-effect="non-scaling-stroke" points="0,5.8 51.4286,5.8 " /> </g>          <g fill="none" stroke="#ff0000" stroke-opacity="1" stroke-width="1" stroke-linecap="square" stroke-linejoin="bevel" transform="matrix(1,0,0,1,143,190.7)" font-family="Verdana" font-size="3pt" font-weight="400" font-style="normal"  > <text fill="#ff0000" fill-opacity="1" stroke="none" xml:space="preserve" x="0" y="4" font-family="Verdana" font-size="3pt" font-weight="400" font-style="normal"   >gc39-seq22</text> </g>      <g fill="#929292" fill-opacity="1" stroke="none" transform="matrix(1,0,0,1,143,195.7)" font-family="Sans Serif" font-size="9pt" font-weight="400" font-style="normal"  opacity="0.65" > <rect x="0" y="0" width="6.6" height="6.6"/> </g>                          <g fill="none" stroke="#000000" stroke-opacity="1" stroke-width="1" stroke-linecap="butt" stroke-linejoin="bevel" transform="matrix(1,0,0,1,64.7143,202.3)" font-family="Sans Serif" font-size="9pt" font-weight="400" font-style="normal"  > <polyline fill="none" vector-effect="non-scaling-stroke" points="0,5.8 64.2857,5.8 " /> </g>          <g fill="none" stroke="#ff0000" stroke-opacity="1" stroke-width="1" stroke-linecap="square" stroke-linejoin="bevel" transform="matrix(1,0,0,1,129,202.3)" font-family="Verdana" font-size="3pt" font-weight="400" font-style="normal"  > <text fill="#ff0000" fill-opacity="1" stroke="none" xml:space="preserve" x="0" y="4" font-family="Verdana" font-size="3pt" font-weight="400" font-style="normal"   >gc39-seq1</text> </g>      <g fill="#929292" fill-opacity="1" stroke="none" transform="matrix(1,0,0,1,129,207.3)" font-family="Sans Serif" font-size="9pt" font-weight="400" font-style="normal"  opacity="0.65" > <rect x="0" y="0" width="6.6" height="6.6"/> </g>                    <g fill="none" stroke="#000000" stroke-opacity="1" stroke-width="1" stroke-linecap="butt" stroke-linejoin="bevel" transform="matrix(1,0,0,1,150,202.3)" font-family="Sans Serif" font-size="9pt" font-weight="400" font-style="normal"  > <polyline fill="none" vector-effect="non-scaling-stroke" points="0,5.8 12.8571,5.8 " /> </g>          <g fill="none" stroke="#ff0000" stroke-opacity="1" stroke-width="1" stroke-linecap="square" stroke-linejoin="bevel" transform="matrix(1,0,0,1,162.857,202.3)" font-family="Verdana" font-size="3pt" font-weight="400" font-style="normal"  > <text fill="#ff0000" fill-opacity="1" stroke="none" xml:space="preserve" x="0" y="4" font-family="Verdana" font-size="3pt" font-weight="400" font-style="normal"   >gc39-seq15</text> </g>      <g fill="#929292" fill-opacity="1" stroke="none" transform="matrix(1,0,0,1,162.857,207.3)" font-family="Sans Serif" font-size="9pt" font-weight="400" font-style="normal"  opacity="0.65" > <rect x="0" y="0" width="6.6" height="6.6"/> </g>              <g fill="none" stroke="#000000" stroke-opacity="1" stroke-width="1" stroke-linecap="butt" stroke-linejoin="bevel" transform="matrix(1,0,0,1,64.7143,213.9)" font-family="Sans Serif" font-size="9pt" font-weight="400" font-style="normal"  > <polyline fill="none" vector-effect="non-scaling-stroke" points="39.7143,7.5 39.7143,69.325 " /> </g>            <g fill="none" stroke="#000000" stroke-opacity="1" stroke-width="1" stroke-linecap="butt" stroke-linejoin="bevel" transform="matrix(1,0,0,1,64.7143,213.9)" font-family="Sans Serif" font-size="9pt" font-weight="400" font-style="normal"  > <polyline fill="none" vector-effect="non-scaling-stroke" points="0,38.4125 25.7143,38.4125 " /> </g>          <g fill="none" stroke="#ff0000" stroke-opacity="1" stroke-width="1" stroke-linecap="square" stroke-linejoin="bevel" transform="matrix(1,0,0,1,90.4286,244.812)" font-family="Verdana" font-size="3pt" font-weight="400" font-style="normal"  > <text fill="#ff0000" fill-opacity="1" stroke="none" xml:space="preserve" x="0" y="4" font-family="Verdana" font-size="3pt" font-weight="400" font-style="normal"   >gc39-5</text> </g>      <g fill="#929292" fill-opacity="1" stroke="none" transform="matrix(1,0,0,1,90.4286,249.812)" font-family="Sans Serif" font-size="9pt" font-weight="400" font-style="normal"  opacity="0.65" > <rect x="0" y="0" width="10" height="10"/> </g>                    <g fill="none" stroke="#000000" stroke-opacity="1" stroke-width="1" stroke-linecap="butt" stroke-linejoin="bevel" transform="matrix(1,0,0,1,104.429,213.9)" font-family="Sans Serif" font-size="9pt" font-weight="400" font-style="normal"  > <polyline fill="none" vector-effect="non-scaling-stroke" points="0,7.5 38.5714,7.5 " /> </g>          <g fill="none" stroke="#ff0000" stroke-opacity="1" stroke-width="1" stroke-linecap="square" stroke-linejoin="bevel" transform="matrix(1,0,0,1,143,213.9)" font-family="Verdana" font-size="3pt" font-weight="400" font-style="normal"  > <text fill="#ff0000" fill-opacity="1" stroke="none" xml:space="preserve" x="0" y="4" font-family="Verdana" font-size="3pt" font-weight="400" font-style="normal"   >gc39-seq11</text> </g>      <g fill="#929292" fill-opacity="1" stroke="none" transform="matrix(1,0,0,1,143,218.9)" font-family="Sans Serif" font-size="9pt" font-weight="400" font-style="normal"  opacity="0.65" > <rect x="0" y="0" width="10" height="10"/> </g>                    <g fill="none" stroke="#000000" stroke-opacity="1" stroke-width="1" stroke-linecap="butt" stroke-linejoin="bevel" transform="matrix(1,0,0,1,104.429,228.9)" font-family="Sans Serif" font-size="9pt" font-weight="400" font-style="normal"  > <polyline fill="none" vector-effect="non-scaling-stroke" points="0,6.65 128.571,6.65 " /> </g>          <g fill="none" stroke="#ff0000" stroke-opacity="1" stroke-width="1" stroke-linecap="square" stroke-linejoin="bevel" transform="matrix(1,0,0,1,233,228.9)" font-family="Verdana" font-size="3pt" font-weight="400" font-style="normal"  > <text fill="#ff0000" fill-opacity="1" stroke="none" xml:space="preserve" x="0" y="4" font-family="Verdana" font-size="3pt" font-weight="400" font-style="normal"   >gc39-seq9</text> </g>      <g fill="#929292" fill-opacity="1" stroke="none" transform="matrix(1,0,0,1,233,233.9)" font-family="Sans Serif" font-size="9pt" font-weight="400" font-style="normal"  opacity="0.65" > <rect x="0" y="0" width="8.3" height="8.3"/> </g>              <g fill="none" stroke="#000000" stroke-opacity="1" stroke-width="1" stroke-linecap="butt" stroke-linejoin="bevel" transform="matrix(1,0,0,1,104.429,242.2)" font-family="Sans Serif" font-size="9pt" font-weight="400" font-style="normal"  > <polyline fill="none" vector-effect="non-scaling-stroke" points="29.8571,5.8 29.8571,16.55 " /> </g>            <g fill="none" stroke="#000000" stroke-opacity="1" stroke-width="1" stroke-linecap="butt" stroke-linejoin="bevel" transform="matrix(1,0,0,1,104.429,242.2)" font-family="Sans Serif" font-size="9pt" font-weight="400" font-style="normal"  > <polyline fill="none" vector-effect="non-scaling-stroke" points="0,11.175 12.8571,11.175 " /> </g>          <g fill="none" stroke="#ff0000" stroke-opacity="1" stroke-width="1" stroke-linecap="square" stroke-linejoin="bevel" transform="matrix(1,0,0,1,117.286,246.725)" font-family="Verdana" font-size="3pt" font-weight="400" font-style="normal"  > <text fill="#ff0000" fill-opacity="1" stroke="none" xml:space="preserve" x="0" y="4" font-family="Verdana" font-size="3pt" font-weight="400" font-style="normal"   >gc39-10</text> </g>      <g fill="#929292" fill-opacity="1" stroke="none" transform="matrix(1,0,0,1,117.286,251.725)" font-family="Sans Serif" font-size="9pt" font-weight="400" font-style="normal"  opacity="0.65" > <rect x="0" y="0" width="8.3" height="8.3"/> </g>                    <g fill="none" stroke="#000000" stroke-opacity="1" stroke-width="1" stroke-linecap="butt" stroke-linejoin="bevel" transform="matrix(1,0,0,1,134.286,242.2)" font-family="Sans Serif" font-size="9pt" font-weight="400" font-style="normal"  > <polyline fill="none" vector-effect="non-scaling-stroke" points="0,5.8 38.5714,5.8 " /> </g>          <g fill="none" stroke="#ff0000" stroke-opacity="1" stroke-width="1" stroke-linecap="square" stroke-linejoin="bevel" transform="matrix(1,0,0,1,172.857,242.2)" font-family="Verdana" font-size="3pt" font-weight="400" font-style="normal"  > <text fill="#ff0000" fill-opacity="1" stroke="none" xml:space="preserve" x="0" y="4" font-family="Verdana" font-size="3pt" font-weight="400" font-style="normal"   >gc39-seq16</text> </g>      <g fill="#929292" fill-opacity="1" stroke="none" transform="matrix(1,0,0,1,172.857,247.2)" font-family="Sans Serif" font-size="9pt" font-weight="400" font-style="normal"  opacity="0.65" > <rect x="0" y="0" width="6.6" height="6.6"/> </g>                    <g fill="none" stroke="#000000" stroke-opacity="1" stroke-width="1" stroke-linecap="butt" stroke-linejoin="bevel" transform="matrix(1,0,0,1,134.286,253.8)" font-family="Sans Serif" font-size="9pt" font-weight="400" font-style="normal"  > <polyline fill="none" vector-effect="non-scaling-stroke" points="0,4.95 38.5714,4.95 " /> </g>          <g fill="none" stroke="#ff0000" stroke-opacity="1" stroke-width="1" stroke-linecap="square" stroke-linejoin="bevel" transform="matrix(1,0,0,1,172.857,253.8)" font-family="Verdana" font-size="3pt" font-weight="400" font-style="normal"  > <text fill="#ff0000" fill-opacity="1" stroke="none" xml:space="preserve" x="0" y="4" font-family="Verdana" font-size="3pt" font-weight="400" font-style="normal"   >gc39-seq23</text> </g>      <g fill="#929292" fill-opacity="1" stroke="none" transform="matrix(1,0,0,1,172.857,258.8)" font-family="Sans Serif" font-size="9pt" font-weight="400" font-style="normal"  opacity="0.65" > <rect x="0" y="0" width="4.9" height="4.9"/> </g>              <g fill="none" stroke="#000000" stroke-opacity="1" stroke-width="1" stroke-linecap="butt" stroke-linejoin="bevel" transform="matrix(1,0,0,1,104.429,263.7)" font-family="Sans Serif" font-size="9pt" font-weight="400" font-style="normal"  > <polyline fill="none" vector-effect="non-scaling-stroke" points="52.5714,6.65 52.5714,32.4 " /> </g>            <g fill="none" stroke="#000000" stroke-opacity="1" stroke-width="1" stroke-linecap="butt" stroke-linejoin="bevel" transform="matrix(1,0,0,1,104.429,263.7)" font-family="Sans Serif" font-size="9pt" font-weight="400" font-style="normal"  > <polyline fill="none" vector-effect="non-scaling-stroke" points="0,19.525 38.5714,19.525 " /> </g>          <g fill="none" stroke="#ff0000" stroke-opacity="1" stroke-width="1" stroke-linecap="square" stroke-linejoin="bevel" transform="matrix(1,0,0,1,143,276.575)" font-family="Verdana" font-size="3pt" font-weight="400" font-style="normal"  > <text fill="#ff0000" fill-opacity="1" stroke="none" xml:space="preserve" x="0" y="4" font-family="Verdana" font-size="3pt" font-weight="400" font-style="normal"   >gc39-8</text> </g>      <g fill="#929292" fill-opacity="1" stroke="none" transform="matrix(1,0,0,1,143,281.575)" font-family="Sans Serif" font-size="9pt" font-weight="400" font-style="normal"  opacity="0.65" > <rect x="0" y="0" width="8.3" height="8.3"/> </g>                    <g fill="none" stroke="#000000" stroke-opacity="1" stroke-width="1" stroke-linecap="butt" stroke-linejoin="bevel" transform="matrix(1,0,0,1,157,263.7)" font-family="Sans Serif" font-size="9pt" font-weight="400" font-style="normal"  > <polyline fill="none" vector-effect="non-scaling-stroke" points="0,6.65 12.8571,6.65 " /> </g>          <g fill="none" stroke="#ff0000" stroke-opacity="1" stroke-width="1" stroke-linecap="square" stroke-linejoin="bevel" transform="matrix(1,0,0,1,169.857,263.7)" font-family="Verdana" font-size="3pt" font-weight="400" font-style="normal"  > <text fill="#ff0000" fill-opacity="1" stroke="none" xml:space="preserve" x="0" y="4" font-family="Verdana" font-size="3pt" font-weight="400" font-style="normal"   >gc39-seq24</text> </g>      <g fill="#929292" fill-opacity="1" stroke="none" transform="matrix(1,0,0,1,169.857,268.7)" font-family="Sans Serif" font-size="9pt" font-weight="400" font-style="normal"  opacity="0.65" > <rect x="0" y="0" width="8.3" height="8.3"/> </g>                    <g fill="none" stroke="#000000" stroke-opacity="1" stroke-width="1" stroke-linecap="butt" stroke-linejoin="bevel" transform="matrix(1,0,0,1,157,277)" font-family="Sans Serif" font-size="9pt" font-weight="400" font-style="normal"  > <polyline fill="none" vector-effect="non-scaling-stroke" points="0,6.65 25.7143,6.65 " /> </g>          <g fill="none" stroke="#ff0000" stroke-opacity="1" stroke-width="1" stroke-linecap="square" stroke-linejoin="bevel" transform="matrix(1,0,0,1,182.714,277)" font-family="Verdana" font-size="3pt" font-weight="400" font-style="normal"  > <text fill="#ff0000" fill-opacity="1" stroke="none" xml:space="preserve" x="0" y="4" font-family="Verdana" font-size="3pt" font-weight="400" font-style="normal"   >gc39-seq19</text> </g>      <g fill="#929292" fill-opacity="1" stroke="none" transform="matrix(1,0,0,1,182.714,282)" font-family="Sans Serif" font-size="9pt" font-weight="400" font-style="normal"  opacity="0.65" > <rect x="0" y="0" width="8.3" height="8.3"/> </g>                    <g fill="none" stroke="#000000" stroke-opacity="1" stroke-width="1" stroke-linecap="butt" stroke-linejoin="bevel" transform="matrix(1,0,0,1,157,290.3)" font-family="Sans Serif" font-size="9pt" font-weight="400" font-style="normal"  > <polyline fill="none" vector-effect="non-scaling-stroke" points="0,5.8 51.4286,5.8 " /> </g>          <g fill="none" stroke="#ff0000" stroke-opacity="1" stroke-width="1" stroke-linecap="square" stroke-linejoin="bevel" transform="matrix(1,0,0,1,208.429,290.3)" font-family="Verdana" font-size="3pt" font-weight="400" font-style="normal"  > <text fill="#ff0000" fill-opacity="1" stroke="none" xml:space="preserve" x="0" y="4" font-family="Verdana" font-size="3pt" font-weight="400" font-style="normal"   >gc39-seq17</text> </g>      <g fill="#929292" fill-opacity="1" stroke="none" transform="matrix(1,0,0,1,208.429,295.3)" font-family="Sans Serif" font-size="9pt" font-weight="400" font-style="normal"  opacity="0.65" > <rect x="0" y="0" width="6.6" height="6.6"/> </g>                                                                                                                                              <g fill="none" stroke="#000000" stroke-opacity="1" stroke-width="1" stroke-linecap="square" stroke-linejoin="bevel" transform="matrix(1,0,0,1,144,0)" font-family="Verdana" font-size="4pt" font-weight="400" font-style="normal"  > <text fill="#000000" fill-opacity="1" stroke="none" xml:space="preserve" x="0" y="6" font-family="Verdana" font-size="4pt" font-weight="400" font-style="normal"   >   aa-cdist </text> </g>                      <g fill="#929292" fill-opacity="1" stroke="none" transform="matrix(1,0,0,1,176,3.25)" font-family="Sans Serif" font-size="9pt" font-weight="400" font-style="normal"  opacity="0.65" > <rect x="0" y="0" width="1.5" height="1.5"/> </g>      <g fill="#929292" fill-opacity="1" stroke="none" transform="matrix(1,0,0,1,176,9.83333)" font-family="Sans Serif" font-size="9pt" font-weight="400" font-style="normal"  opacity="0.65" > <rect x="0" y="0" width="4.33333" height="4.33333"/> </g>      <g fill="#929292" fill-opacity="1" stroke="none" transform="matrix(1,0,0,1,176,16.4167)" font-family="Sans Serif" font-size="9pt" font-weight="400" font-style="normal"  opacity="0.65" > <rect x="0" y="0" width="7.16667" height="7.16667"/> </g>      <g fill="#929292" fill-opacity="1" stroke="none" transform="matrix(1,0,0,1,176,24)" font-family="Sans Serif" font-size="9pt" font-weight="400" font-style="normal"  opacity="0.65" > <rect x="0" y="0" width="10" height="10"/> </g>      <g fill="none" stroke="#000000" stroke-opacity="1" stroke-width="1" stroke-linecap="square" stroke-linejoin="bevel" transform="matrix(1,0,0,1,186,0)" font-family="Verdana" font-size="4pt" font-weight="400" font-style="normal"  > <text fill="#000000" fill-opacity="1" stroke="none" xml:space="preserve" x="0" y="6" font-family="Verdana" font-size="4pt" font-weight="400" font-style="normal"   >  -5.00</text> </g>      <g fill="none" stroke="#000000" stroke-opacity="1" stroke-width="1" stroke-linecap="square" stroke-linejoin="bevel" transform="matrix(1,0,0,1,186,8)" font-family="Verdana" font-size="4pt" font-weight="400" font-style="normal"  > <text fill="#000000" fill-opacity="1" stroke="none" xml:space="preserve" x="0" y="6" font-family="Verdana" font-size="4pt" font-weight="400" font-style="normal"   >  -3.33</text> </g>      <g fill="none" stroke="#000000" stroke-opacity="1" stroke-width="1" stroke-linecap="square" stroke-linejoin="bevel" transform="matrix(1,0,0,1,186,16)" font-family="Verdana" font-size="4pt" font-weight="400" font-style="normal"  > <text fill="#000000" fill-opacity="1" stroke="none" xml:space="preserve" x="0" y="6" font-family="Verdana" font-size="4pt" font-weight="400" font-style="normal"   >  -1.67</text> </g>      <g fill="none" stroke="#000000" stroke-opacity="1" stroke-width="1" stroke-linecap="square" stroke-linejoin="bevel" transform="matrix(1,0,0,1,186,25)" font-family="Verdana" font-size="4pt" font-weight="400" font-style="normal"  > <text fill="#000000" fill-opacity="1" stroke="none" xml:space="preserve" x="0" y="6" font-family="Verdana" font-size="4pt" font-weight="400" font-style="normal"   >  0.00</text> </g>      <g fill="none" stroke="#000000" stroke-opacity="1" stroke-width="1" stroke-linecap="square" stroke-linejoin="bevel" transform="matrix(1,0,0,1,206,0)" font-family="Verdana" font-size="4pt" font-weight="400" font-style="normal"  > <text fill="#000000" fill-opacity="1" stroke="none" xml:space="preserve" x="0" y="6" font-family="Verdana" font-size="4pt" font-weight="400" font-style="normal"   >   affinity </text> </g>          <g fill="#440154" fill-opacity="1" stroke="none" transform="matrix(1,0,0,1,235,1)" font-family="Sans Serif" font-size="9pt" font-weight="400" font-style="normal"  opacity="0.65" > <rect x="0" y="0" width="6" height="6"/> </g>      <g fill="none" stroke="#000000" stroke-opacity="1" stroke-width="1" stroke-linecap="square" stroke-linejoin="bevel" transform="matrix(1,0,0,1,241,0)" font-family="Verdana" font-size="4pt" font-weight="400" font-style="normal"  > <text fill="#000000" fill-opacity="1" stroke="none" xml:space="preserve" x="0" y="6" font-family="Verdana" font-size="4pt" font-weight="400" font-style="normal"   >  0.0</text> </g>      <g fill="none" stroke="#000000" stroke-opacity="1" stroke-width="1" stroke-linecap="square" stroke-linejoin="bevel" transform="matrix(1,0,0,1,1,302.9)" font-family="Sans Serif" font-size="9pt" font-weight="400" font-style="normal"  > <polyline fill="none" vector-effect="none" points="0,5 50,5 " /> </g>      <g fill="none" stroke="#000000" stroke-opacity="1" stroke-width="1" stroke-linecap="square" stroke-linejoin="bevel" transform="matrix(1,0,0,1,1,302.9)" font-family="Sans Serif" font-size="9pt" font-weight="400" font-style="normal"  > <polyline fill="none" vector-effect="none" points="0,0 0,10 " /> </g>      <g fill="none" stroke="#000000" stroke-opacity="1" stroke-width="1" stroke-linecap="square" stroke-linejoin="bevel" transform="matrix(1,0,0,1,1,302.9)" font-family="Sans Serif" font-size="9pt" font-weight="400" font-style="normal"  > <polyline fill="none" vector-effect="none" points="50,0 50,10 " /> </g>      <g fill="none" stroke="#000000" stroke-opacity="1" stroke-width="1" stroke-linecap="square" stroke-linejoin="bevel" transform="matrix(1,0,0,1,1,312.9)" font-family="Sans Serif" font-size="9pt" font-weight="400" font-style="normal"  > <text fill="#000000" fill-opacity="1" stroke="none" xml:space="preserve" x="0" y="13" font-family="Sans Serif" font-size="9pt" font-weight="400" font-style="normal"   >0.00972222</text> </g>     </g> </svg> 