<?xml version="1.0" encoding="utf-8" standalone="no"?>
<!DOCTYPE svg PUBLIC "-//W3C//DTD SVG 1.1//EN"
  "http://www.w3.org/Graphics/SVG/1.1/DTD/svg11.dtd">
<!-- Created with matplotlib (http://matplotlib.org/) -->
<svg height="345.6pt" version="1.1" viewBox="0 0 460.8 345.6" width="460.8pt" xmlns="http://www.w3.org/2000/svg" xmlns:xlink="http://www.w3.org/1999/xlink">
 <defs>
  <style type="text/css">
*{stroke-linecap:butt;stroke-linejoin:round;}
  </style>
 </defs>
 <g id="figure_1">
  <g id="patch_1">
   <path d="M 0 345.6 
L 460.8 345.6 
L 460.8 0 
L 0 0 
z
" style="fill:#ffffff;"/>
  </g>
  <g id="axes_1">
   <g id="patch_2">
    <path d="M 71.771875 280.042969 
L 435.438469 280.042969 
L 435.438469 39.232031 
L 71.771875 39.232031 
z
" style="fill:#ffffff;"/>
   </g>
   <g id="matplotlib.axis_1">
    <g id="xtick_1">
     <g id="line2d_1">
      <defs>
       <path d="M 0 0 
L 0 3.5 
" id="m677c9407f6" style="stroke:#262626;stroke-width:0.8;"/>
      </defs>
      <g>
       <use style="fill:#262626;stroke:#262626;stroke-width:0.8;" x="77.85024" xlink:href="#m677c9407f6" y="280.042969"/>
      </g>
     </g>
     <g id="text_1">
      <text style="fill:#262626;font-family:Lato;font-size:15px;font-style:normal;font-weight:600;text-anchor:middle;" transform="rotate(-0, 77.85024, 298.1875)" x="77.85024" y="298.1875">−5</text>
     </g>
    </g>
    <g id="xtick_2">
     <g id="line2d_2">
      <g>
       <use style="fill:#262626;stroke:#262626;stroke-width:0.8;" x="147.178701" xlink:href="#m677c9407f6" y="280.042969"/>
      </g>
     </g>
     <g id="text_2">
      <text style="fill:#262626;font-family:Lato;font-size:15px;font-style:normal;font-weight:600;text-anchor:middle;" transform="rotate(-0, 147.178701, 298.1875)" x="147.178701" y="298.1875">−4</text>
     </g>
    </g>
    <g id="xtick_3">
     <g id="line2d_3">
      <g>
       <use style="fill:#262626;stroke:#262626;stroke-width:0.8;" x="216.507163" xlink:href="#m677c9407f6" y="280.042969"/>
      </g>
     </g>
     <g id="text_3">
      <text style="fill:#262626;font-family:Lato;font-size:15px;font-style:normal;font-weight:600;text-anchor:middle;" transform="rotate(-0, 216.507163, 298.1875)" x="216.507163" y="298.1875">−3</text>
     </g>
    </g>
    <g id="xtick_4">
     <g id="line2d_4">
      <g>
       <use style="fill:#262626;stroke:#262626;stroke-width:0.8;" x="285.835624" xlink:href="#m677c9407f6" y="280.042969"/>
      </g>
     </g>
     <g id="text_4">
      <text style="fill:#262626;font-family:Lato;font-size:15px;font-style:normal;font-weight:600;text-anchor:middle;" transform="rotate(-0, 285.835624, 298.1875)" x="285.835624" y="298.1875">−2</text>
     </g>
    </g>
    <g id="xtick_5">
     <g id="line2d_5">
      <g>
       <use style="fill:#262626;stroke:#262626;stroke-width:0.8;" x="355.164085" xlink:href="#m677c9407f6" y="280.042969"/>
      </g>
     </g>
     <g id="text_5">
      <text style="fill:#262626;font-family:Lato;font-size:15px;font-style:normal;font-weight:600;text-anchor:middle;" transform="rotate(-0, 355.164085, 298.1875)" x="355.164085" y="298.1875">−1</text>
     </g>
    </g>
    <g id="xtick_6">
     <g id="line2d_6">
      <g>
       <use style="fill:#262626;stroke:#262626;stroke-width:0.8;" x="424.492546" xlink:href="#m677c9407f6" y="280.042969"/>
      </g>
     </g>
     <g id="text_6">
      <text style="fill:#262626;font-family:Lato;font-size:15px;font-style:normal;font-weight:600;text-anchor:middle;" transform="rotate(-0, 424.492546, 298.1875)" x="424.492546" y="298.1875">0</text>
     </g>
    </g>
    <g id="text_7">
     <text style="fill:#262626;font-family:Lato;font-size:20px;font-style:normal;font-weight:600;text-anchor:middle;" transform="rotate(-0, 253.605172, 320.4)" x="253.605172" y="320.4">aa-cdist (+jitter)</text>
    </g>
   </g>
   <g id="matplotlib.axis_2">
    <g id="ytick_1">
     <g id="line2d_7">
      <defs>
       <path d="M 0 0 
L -3.5 0 
" id="m7c1f39d840" style="stroke:#262626;stroke-width:0.8;"/>
      </defs>
      <g>
       <use style="fill:#262626;stroke:#262626;stroke-width:0.8;" x="71.771875" xlink:href="#m7c1f39d840" y="273.534692"/>
      </g>
     </g>
     <g id="text_8">
      <text style="fill:#262626;font-family:Lato;font-size:15px;font-style:normal;font-weight:600;text-anchor:end;" transform="rotate(-0, 64.771875, 279.106958)" x="64.771875" y="279.106958">0.0</text>
     </g>
    </g>
    <g id="ytick_2">
     <g id="line2d_8">
      <g>
       <use style="fill:#262626;stroke:#262626;stroke-width:0.8;" x="71.771875" xlink:href="#m7c1f39d840" y="233.210943"/>
      </g>
     </g>
     <g id="text_9">
      <text style="fill:#262626;font-family:Lato;font-size:15px;font-style:normal;font-weight:600;text-anchor:end;" transform="rotate(-0, 64.771875, 238.783208)" x="64.771875" y="238.783208">0.5</text>
     </g>
    </g>
    <g id="ytick_3">
     <g id="line2d_9">
      <g>
       <use style="fill:#262626;stroke:#262626;stroke-width:0.8;" x="71.771875" xlink:href="#m7c1f39d840" y="192.887193"/>
      </g>
     </g>
     <g id="text_10">
      <text style="fill:#262626;font-family:Lato;font-size:15px;font-style:normal;font-weight:600;text-anchor:end;" transform="rotate(-0, 64.771875, 198.459459)" x="64.771875" y="198.459459">1.0</text>
     </g>
    </g>
    <g id="ytick_4">
     <g id="line2d_10">
      <g>
       <use style="fill:#262626;stroke:#262626;stroke-width:0.8;" x="71.771875" xlink:href="#m7c1f39d840" y="152.563443"/>
      </g>
     </g>
     <g id="text_11">
      <text style="fill:#262626;font-family:Lato;font-size:15px;font-style:normal;font-weight:600;text-anchor:end;" transform="rotate(-0, 64.771875, 158.135709)" x="64.771875" y="158.135709">1.5</text>
     </g>
    </g>
    <g id="ytick_5">
     <g id="line2d_11">
      <g>
       <use style="fill:#262626;stroke:#262626;stroke-width:0.8;" x="71.771875" xlink:href="#m7c1f39d840" y="112.239694"/>
      </g>
     </g>
     <g id="text_12">
      <text style="fill:#262626;font-family:Lato;font-size:15px;font-style:normal;font-weight:600;text-anchor:end;" transform="rotate(-0, 64.771875, 117.811959)" x="64.771875" y="117.811959">2.0</text>
     </g>
    </g>
    <g id="ytick_6">
     <g id="line2d_12">
      <g>
       <use style="fill:#262626;stroke:#262626;stroke-width:0.8;" x="71.771875" xlink:href="#m7c1f39d840" y="71.915944"/>
      </g>
     </g>
     <g id="text_13">
      <text style="fill:#262626;font-family:Lato;font-size:15px;font-style:normal;font-weight:600;text-anchor:end;" transform="rotate(-0, 64.771875, 77.48821)" x="64.771875" y="77.48821">2.5</text>
     </g>
    </g>
    <g id="text_14">
     <text style="fill:#262626;font-family:Lato;font-size:20px;font-style:normal;font-weight:600;text-anchor:middle;" transform="rotate(-90, 36.459375, 159.6375)" x="36.459375" y="159.6375">AA lb index</text>
    </g>
   </g>
   <g id="line2d_13">
    <path clip-path="url(#p8960ba478a)" d="M 350.538679 84.280259 
" style="fill:none;stroke:#eee51b;stroke-linecap:round;stroke-opacity:0.65;stroke-width:1.5;"/>
    <defs>
     <path d="M 0 3.75 
C 0.994512 3.75 1.948425 3.354876 2.65165 2.65165 
C 3.354876 1.948425 3.75 0.994512 3.75 0 
C 3.75 -0.994512 3.354876 -1.948425 2.65165 -2.65165 
C 1.948425 -3.354876 0.994512 -3.75 0 -3.75 
C -0.994512 -3.75 -1.948425 -3.354876 -2.65165 -2.65165 
C -3.354876 -1.948425 -3.75 -0.994512 -3.75 0 
C -3.75 0.994512 -3.354876 1.948425 -2.65165 2.65165 
C -1.948425 3.354876 -0.994512 3.75 0 3.75 
z
" id="m4046039c7c" style="stroke:#eee51b;stroke-opacity:0.65;"/>
    </defs>
    <g clip-path="url(#p8960ba478a)">
     <use style="fill:#eee51b;fill-opacity:0.65;stroke:#eee51b;stroke-opacity:0.65;" x="350.538679" xlink:href="#m4046039c7c" y="84.280259"/>
    </g>
   </g>
   <g id="line2d_14">
    <path clip-path="url(#p8960ba478a)" d="M 281.129415 268.578531 
" style="fill:none;stroke:#dfe318;stroke-linecap:round;stroke-opacity:0.65;stroke-width:1.5;"/>
    <defs>
     <path d="M 0 3.75 
C 0.994512 3.75 1.948425 3.354876 2.65165 2.65165 
C 3.354876 1.948425 3.75 0.994512 3.75 0 
C 3.75 -0.994512 3.354876 -1.948425 2.65165 -2.65165 
C 1.948425 -3.354876 0.994512 -3.75 0 -3.75 
C -0.994512 -3.75 -1.948425 -3.354876 -2.65165 -2.65165 
C -3.354876 -1.948425 -3.75 -0.994512 -3.75 0 
C -3.75 0.994512 -3.354876 1.948425 -2.65165 2.65165 
C -1.948425 3.354876 -0.994512 3.75 0 3.75 
z
" id="mcab91d5d82" style="stroke:#dfe318;stroke-opacity:0.65;"/>
    </defs>
    <g clip-path="url(#p8960ba478a)">
     <use style="fill:#dfe318;fill-opacity:0.65;stroke:#dfe318;stroke-opacity:0.65;" x="281.129415" xlink:href="#mcab91d5d82" y="268.578531"/>
    </g>
   </g>
   <g id="line2d_15">
    <path clip-path="url(#p8960ba478a)" d="M 143.249237 273.530783 
" style="fill:none;stroke:#a5da35;stroke-linecap:round;stroke-opacity:0.65;stroke-width:1.5;"/>
    <defs>
     <path d="M 0 3.75 
C 0.994512 3.75 1.948425 3.354876 2.65165 2.65165 
C 3.354876 1.948425 3.75 0.994512 3.75 0 
C 3.75 -0.994512 3.354876 -1.948425 2.65165 -2.65165 
C 1.948425 -3.354876 0.994512 -3.75 0 -3.75 
C -0.994512 -3.75 -1.948425 -3.354876 -2.65165 -2.65165 
C -3.354876 -1.948425 -3.75 -0.994512 -3.75 0 
C -3.75 0.994512 -3.354876 1.948425 -2.65165 2.65165 
C -1.948425 3.354876 -0.994512 3.75 0 3.75 
z
" id="m8d0e493e50" style="stroke:#a5da35;stroke-opacity:0.65;"/>
    </defs>
    <g clip-path="url(#p8960ba478a)">
     <use style="fill:#a5da35;fill-opacity:0.65;stroke:#a5da35;stroke-opacity:0.65;" x="143.249237" xlink:href="#m8d0e493e50" y="273.530783"/>
    </g>
   </g>
   <g id="line2d_16">
    <path clip-path="url(#p8960ba478a)" d="M 280.21288 273.373744 
" style="fill:none;stroke:#fde724;stroke-linecap:round;stroke-opacity:0.65;stroke-width:1.5;"/>
    <defs>
     <path d="M 0 3.75 
C 0.994512 3.75 1.948425 3.354876 2.65165 2.65165 
C 3.354876 1.948425 3.75 0.994512 3.75 0 
C 3.75 -0.994512 3.354876 -1.948425 2.65165 -2.65165 
C 1.948425 -3.354876 0.994512 -3.75 0 -3.75 
C -0.994512 -3.75 -1.948425 -3.354876 -2.65165 -2.65165 
C -3.354876 -1.948425 -3.75 -0.994512 -3.75 0 
C -3.75 0.994512 -3.354876 1.948425 -2.65165 2.65165 
C -1.948425 3.354876 -0.994512 3.75 0 3.75 
z
" id="m7ffdf65bcf" style="stroke:#fde724;stroke-opacity:0.65;"/>
    </defs>
    <g clip-path="url(#p8960ba478a)">
     <use style="fill:#fde724;fill-opacity:0.65;stroke:#fde724;stroke-opacity:0.65;" x="280.21288" xlink:href="#m7ffdf65bcf" y="273.373744"/>
    </g>
   </g>
   <g id="line2d_17">
    <path clip-path="url(#p8960ba478a)" d="M 152.464244 273.534565 
" style="fill:none;stroke:#90d643;stroke-linecap:round;stroke-opacity:0.65;stroke-width:1.5;"/>
    <defs>
     <path d="M 0 3.75 
C 0.994512 3.75 1.948425 3.354876 2.65165 2.65165 
C 3.354876 1.948425 3.75 0.994512 3.75 0 
C 3.75 -0.994512 3.354876 -1.948425 2.65165 -2.65165 
C 1.948425 -3.354876 0.994512 -3.75 0 -3.75 
C -0.994512 -3.75 -1.948425 -3.354876 -2.65165 -2.65165 
C -3.354876 -1.948425 -3.75 -0.994512 -3.75 0 
C -3.75 0.994512 -3.354876 1.948425 -2.65165 2.65165 
C -1.948425 3.354876 -0.994512 3.75 0 3.75 
z
" id="m841253a0cf" style="stroke:#90d643;stroke-opacity:0.65;"/>
    </defs>
    <g clip-path="url(#p8960ba478a)">
     <use style="fill:#90d643;fill-opacity:0.65;stroke:#90d643;stroke-opacity:0.65;" x="152.464244" xlink:href="#m841253a0cf" y="273.534565"/>
    </g>
   </g>
   <g id="line2d_18">
    <path clip-path="url(#p8960ba478a)" d="M 284.785373 268.578531 
" style="fill:none;stroke:#72cf55;stroke-linecap:round;stroke-opacity:0.65;stroke-width:1.5;"/>
    <defs>
     <path d="M 0 3.75 
C 0.994512 3.75 1.948425 3.354876 2.65165 2.65165 
C 3.354876 1.948425 3.75 0.994512 3.75 0 
C 3.75 -0.994512 3.354876 -1.948425 2.65165 -2.65165 
C 1.948425 -3.354876 0.994512 -3.75 0 -3.75 
C -0.994512 -3.75 -1.948425 -3.354876 -2.65165 -2.65165 
C -3.354876 -1.948425 -3.75 -0.994512 -3.75 0 
C -3.75 0.994512 -3.354876 1.948425 -2.65165 2.65165 
C -1.948425 3.354876 -0.994512 3.75 0 3.75 
z
" id="me7ea78f302" style="stroke:#72cf55;stroke-opacity:0.65;"/>
    </defs>
    <g clip-path="url(#p8960ba478a)">
     <use style="fill:#72cf55;fill-opacity:0.65;stroke:#72cf55;stroke-opacity:0.65;" x="284.785373" xlink:href="#me7ea78f302" y="268.578531"/>
    </g>
   </g>
   <g id="line2d_19">
    <path clip-path="url(#p8960ba478a)" d="M 359.405767 215.194281 
" style="fill:none;stroke:#cde01d;stroke-linecap:round;stroke-opacity:0.65;stroke-width:1.5;"/>
    <defs>
     <path d="M 0 3.75 
C 0.994512 3.75 1.948425 3.354876 2.65165 2.65165 
C 3.354876 1.948425 3.75 0.994512 3.75 0 
C 3.75 -0.994512 3.354876 -1.948425 2.65165 -2.65165 
C 1.948425 -3.354876 0.994512 -3.75 0 -3.75 
C -0.994512 -3.75 -1.948425 -3.354876 -2.65165 -2.65165 
C -3.354876 -1.948425 -3.75 -0.994512 -3.75 0 
C -3.75 0.994512 -3.354876 1.948425 -2.65165 2.65165 
C -1.948425 3.354876 -0.994512 3.75 0 3.75 
z
" id="meaeaaa552f" style="stroke:#cde01d;stroke-opacity:0.65;"/>
    </defs>
    <g clip-path="url(#p8960ba478a)">
     <use style="fill:#cde01d;fill-opacity:0.65;stroke:#cde01d;stroke-opacity:0.65;" x="359.405767" xlink:href="#meaeaaa552f" y="215.194281"/>
    </g>
   </g>
   <g id="line2d_20">
    <path clip-path="url(#p8960ba478a)" d="M 285.400886 268.578531 
" style="fill:none;stroke:#79d151;stroke-linecap:round;stroke-opacity:0.65;stroke-width:1.5;"/>
    <defs>
     <path d="M 0 3.75 
C 0.994512 3.75 1.948425 3.354876 2.65165 2.65165 
C 3.354876 1.948425 3.75 0.994512 3.75 0 
C 3.75 -0.994512 3.354876 -1.948425 2.65165 -2.65165 
C 1.948425 -3.354876 0.994512 -3.75 0 -3.75 
C -0.994512 -3.75 -1.948425 -3.354876 -2.65165 -2.65165 
C -3.354876 -1.948425 -3.75 -0.994512 -3.75 0 
C -3.75 0.994512 -3.354876 1.948425 -2.65165 2.65165 
C -1.948425 3.354876 -0.994512 3.75 0 3.75 
z
" id="mb95e61713d" style="stroke:#79d151;stroke-opacity:0.65;"/>
    </defs>
    <g clip-path="url(#p8960ba478a)">
     <use style="fill:#79d151;fill-opacity:0.65;stroke:#79d151;stroke-opacity:0.65;" x="285.400886" xlink:href="#mb95e61713d" y="268.578531"/>
    </g>
   </g>
   <g id="line2d_21">
    <path clip-path="url(#p8960ba478a)" d="M 290.141207 268.578531 
" style="fill:none;stroke:#f3e51e;stroke-linecap:round;stroke-opacity:0.65;stroke-width:1.5;"/>
    <defs>
     <path d="M 0 3.75 
C 0.994512 3.75 1.948425 3.354876 2.65165 2.65165 
C 3.354876 1.948425 3.75 0.994512 3.75 0 
C 3.75 -0.994512 3.354876 -1.948425 2.65165 -2.65165 
C 1.948425 -3.354876 0.994512 -3.75 0 -3.75 
C -0.994512 -3.75 -1.948425 -3.354876 -2.65165 -2.65165 
C -3.354876 -1.948425 -3.75 -0.994512 -3.75 0 
C -3.75 0.994512 -3.354876 1.948425 -2.65165 2.65165 
C -1.948425 3.354876 -0.994512 3.75 0 3.75 
z
" id="m83dcbbdccc" style="stroke:#f3e51e;stroke-opacity:0.65;"/>
    </defs>
    <g clip-path="url(#p8960ba478a)">
     <use style="fill:#f3e51e;fill-opacity:0.65;stroke:#f3e51e;stroke-opacity:0.65;" x="290.141207" xlink:href="#m83dcbbdccc" y="268.578531"/>
    </g>
   </g>
   <g id="line2d_22">
    <path clip-path="url(#p8960ba478a)" d="M 144.84397 273.533692 
" style="fill:none;stroke:#95d73f;stroke-linecap:round;stroke-opacity:0.65;stroke-width:1.5;"/>
    <defs>
     <path d="M 0 3.75 
C 0.994512 3.75 1.948425 3.354876 2.65165 2.65165 
C 3.354876 1.948425 3.75 0.994512 3.75 0 
C 3.75 -0.994512 3.354876 -1.948425 2.65165 -2.65165 
C 1.948425 -3.354876 0.994512 -3.75 0 -3.75 
C -0.994512 -3.75 -1.948425 -3.354876 -2.65165 -2.65165 
C -3.354876 -1.948425 -3.75 -0.994512 -3.75 0 
C -3.75 0.994512 -3.354876 1.948425 -2.65165 2.65165 
C -1.948425 3.354876 -0.994512 3.75 0 3.75 
z
" id="md5a7cdb62a" style="stroke:#95d73f;stroke-opacity:0.65;"/>
    </defs>
    <g clip-path="url(#p8960ba478a)">
     <use style="fill:#95d73f;fill-opacity:0.65;stroke:#95d73f;stroke-opacity:0.65;" x="144.84397" xlink:href="#md5a7cdb62a" y="273.533692"/>
    </g>
   </g>
   <g id="line2d_23">
    <path clip-path="url(#p8960ba478a)" d="M 214.426974 273.530167 
" style="fill:none;stroke:#70ce56;stroke-linecap:round;stroke-opacity:0.65;stroke-width:1.5;"/>
    <defs>
     <path d="M 0 3.75 
C 0.994512 3.75 1.948425 3.354876 2.65165 2.65165 
C 3.354876 1.948425 3.75 0.994512 3.75 0 
C 3.75 -0.994512 3.354876 -1.948425 2.65165 -2.65165 
C 1.948425 -3.354876 0.994512 -3.75 0 -3.75 
C -0.994512 -3.75 -1.948425 -3.354876 -2.65165 -2.65165 
C -3.354876 -1.948425 -3.75 -0.994512 -3.75 0 
C -3.75 0.994512 -3.354876 1.948425 -2.65165 2.65165 
C -1.948425 3.354876 -0.994512 3.75 0 3.75 
z
" id="me8c78bb380" style="stroke:#70ce56;stroke-opacity:0.65;"/>
    </defs>
    <g clip-path="url(#p8960ba478a)">
     <use style="fill:#70ce56;fill-opacity:0.65;stroke:#70ce56;stroke-opacity:0.65;" x="214.426974" xlink:href="#me8c78bb380" y="273.530167"/>
    </g>
   </g>
   <g id="line2d_24">
    <path clip-path="url(#p8960ba478a)" d="M 427.202824 56.587774 
" style="fill:none;stroke:#6dce58;stroke-linecap:round;stroke-opacity:0.65;stroke-width:1.5;"/>
    <defs>
     <path d="M 0 3.75 
C 0.994512 3.75 1.948425 3.354876 2.65165 2.65165 
C 3.354876 1.948425 3.75 0.994512 3.75 0 
C 3.75 -0.994512 3.354876 -1.948425 2.65165 -2.65165 
C 1.948425 -3.354876 0.994512 -3.75 0 -3.75 
C -0.994512 -3.75 -1.948425 -3.354876 -2.65165 -2.65165 
C -3.354876 -1.948425 -3.75 -0.994512 -3.75 0 
C -3.75 0.994512 -3.354876 1.948425 -2.65165 2.65165 
C -1.948425 3.354876 -0.994512 3.75 0 3.75 
z
" id="maf5eae47ad" style="stroke:#6dce58;stroke-opacity:0.65;"/>
    </defs>
    <g clip-path="url(#p8960ba478a)">
     <use style="fill:#6dce58;fill-opacity:0.65;stroke:#6dce58;stroke-opacity:0.65;" x="427.202824" xlink:href="#maf5eae47ad" y="56.587774"/>
    </g>
   </g>
   <g id="line2d_25">
    <path clip-path="url(#p8960ba478a)" d="M 213.680278 226.657947 
" style="fill:none;stroke:#cfe11c;stroke-linecap:round;stroke-opacity:0.65;stroke-width:1.5;"/>
    <defs>
     <path d="M 0 3.75 
C 0.994512 3.75 1.948425 3.354876 2.65165 2.65165 
C 3.354876 1.948425 3.75 0.994512 3.75 0 
C 3.75 -0.994512 3.354876 -1.948425 2.65165 -2.65165 
C 1.948425 -3.354876 0.994512 -3.75 0 -3.75 
C -0.994512 -3.75 -1.948425 -3.354876 -2.65165 -2.65165 
C -3.354876 -1.948425 -3.75 -0.994512 -3.75 0 
C -3.75 0.994512 -3.354876 1.948425 -2.65165 2.65165 
C -1.948425 3.354876 -0.994512 3.75 0 3.75 
z
" id="m0e000c3dbc" style="stroke:#cfe11c;stroke-opacity:0.65;"/>
    </defs>
    <g clip-path="url(#p8960ba478a)">
     <use style="fill:#cfe11c;fill-opacity:0.65;stroke:#cfe11c;stroke-opacity:0.65;" x="213.680278" xlink:href="#m0e000c3dbc" y="226.657947"/>
    </g>
   </g>
   <g id="line2d_26">
    <path clip-path="url(#p8960ba478a)" d="M 290.288339 272.259265 
" style="fill:none;stroke:#29798e;stroke-linecap:round;stroke-opacity:0.65;stroke-width:1.5;"/>
    <defs>
     <path d="M 0 3.75 
C 0.994512 3.75 1.948425 3.354876 2.65165 2.65165 
C 3.354876 1.948425 3.75 0.994512 3.75 0 
C 3.75 -0.994512 3.354876 -1.948425 2.65165 -2.65165 
C 1.948425 -3.354876 0.994512 -3.75 0 -3.75 
C -0.994512 -3.75 -1.948425 -3.354876 -2.65165 -2.65165 
C -3.354876 -1.948425 -3.75 -0.994512 -3.75 0 
C -3.75 0.994512 -3.354876 1.948425 -2.65165 2.65165 
C -1.948425 3.354876 -0.994512 3.75 0 3.75 
z
" id="m87d8c9fd11" style="stroke:#29798e;stroke-opacity:0.65;"/>
    </defs>
    <g clip-path="url(#p8960ba478a)">
     <use style="fill:#29798e;fill-opacity:0.65;stroke:#29798e;stroke-opacity:0.65;" x="290.288339" xlink:href="#m87d8c9fd11" y="272.259265"/>
    </g>
   </g>
   <g id="line2d_27">
    <path clip-path="url(#p8960ba478a)" d="M 356.074138 84.280259 
" style="fill:none;stroke:#9dd93a;stroke-linecap:round;stroke-opacity:0.65;stroke-width:1.5;"/>
    <defs>
     <path d="M 0 3.75 
C 0.994512 3.75 1.948425 3.354876 2.65165 2.65165 
C 3.354876 1.948425 3.75 0.994512 3.75 0 
C 3.75 -0.994512 3.354876 -1.948425 2.65165 -2.65165 
C 1.948425 -3.354876 0.994512 -3.75 0 -3.75 
C -0.994512 -3.75 -1.948425 -3.354876 -2.65165 -2.65165 
C -3.354876 -1.948425 -3.75 -0.994512 -3.75 0 
C -3.75 0.994512 -3.354876 1.948425 -2.65165 2.65165 
C -1.948425 3.354876 -0.994512 3.75 0 3.75 
z
" id="m6990074a46" style="stroke:#9dd93a;stroke-opacity:0.65;"/>
    </defs>
    <g clip-path="url(#p8960ba478a)">
     <use style="fill:#9dd93a;fill-opacity:0.65;stroke:#9dd93a;stroke-opacity:0.65;" x="356.074138" xlink:href="#m6990074a46" y="84.280259"/>
    </g>
   </g>
   <g id="line2d_28">
    <path clip-path="url(#p8960ba478a)" d="M 221.286119 273.499121 
" style="fill:none;stroke:#1e9e88;stroke-linecap:round;stroke-opacity:0.65;stroke-width:1.5;"/>
    <defs>
     <path d="M 0 3.75 
C 0.994512 3.75 1.948425 3.354876 2.65165 2.65165 
C 3.354876 1.948425 3.75 0.994512 3.75 0 
C 3.75 -0.994512 3.354876 -1.948425 2.65165 -2.65165 
C 1.948425 -3.354876 0.994512 -3.75 0 -3.75 
C -0.994512 -3.75 -1.948425 -3.354876 -2.65165 -2.65165 
C -3.354876 -1.948425 -3.75 -0.994512 -3.75 0 
C -3.75 0.994512 -3.354876 1.948425 -2.65165 2.65165 
C -1.948425 3.354876 -0.994512 3.75 0 3.75 
z
" id="m9661dd43d2" style="stroke:#1e9e88;stroke-opacity:0.65;"/>
    </defs>
    <g clip-path="url(#p8960ba478a)">
     <use style="fill:#1e9e88;fill-opacity:0.65;stroke:#1e9e88;stroke-opacity:0.65;" x="221.286119" xlink:href="#m9661dd43d2" y="273.499121"/>
    </g>
   </g>
   <g id="line2d_29">
    <path clip-path="url(#p8960ba478a)" d="M 290.489827 273.373744 
" style="fill:none;stroke:#fde724;stroke-linecap:round;stroke-opacity:0.65;stroke-width:1.5;"/>
    <g clip-path="url(#p8960ba478a)">
     <use style="fill:#fde724;fill-opacity:0.65;stroke:#fde724;stroke-opacity:0.65;" x="290.489827" xlink:href="#m7ffdf65bcf" y="273.373744"/>
    </g>
   </g>
   <g id="line2d_30">
    <path clip-path="url(#p8960ba478a)" d="M 282.776539 268.578531 
" style="fill:none;stroke:#25ab81;stroke-linecap:round;stroke-opacity:0.65;stroke-width:1.5;"/>
    <defs>
     <path d="M 0 3.75 
C 0.994512 3.75 1.948425 3.354876 2.65165 2.65165 
C 3.354876 1.948425 3.75 0.994512 3.75 0 
C 3.75 -0.994512 3.354876 -1.948425 2.65165 -2.65165 
C 1.948425 -3.354876 0.994512 -3.75 0 -3.75 
C -0.994512 -3.75 -1.948425 -3.354876 -2.65165 -2.65165 
C -3.354876 -1.948425 -3.75 -0.994512 -3.75 0 
C -3.75 0.994512 -3.354876 1.948425 -2.65165 2.65165 
C -1.948425 3.354876 -0.994512 3.75 0 3.75 
z
" id="mf1b7299272" style="stroke:#25ab81;stroke-opacity:0.65;"/>
    </defs>
    <g clip-path="url(#p8960ba478a)">
     <use style="fill:#25ab81;fill-opacity:0.65;stroke:#25ab81;stroke-opacity:0.65;" x="282.776539" xlink:href="#mf1b7299272" y="268.578531"/>
    </g>
   </g>
   <g id="line2d_31">
    <path clip-path="url(#p8960ba478a)" d="M 359.370045 267.799939 
" style="fill:none;stroke:#67cc5c;stroke-linecap:round;stroke-opacity:0.65;stroke-width:1.5;"/>
    <defs>
     <path d="M 0 3.75 
C 0.994512 3.75 1.948425 3.354876 2.65165 2.65165 
C 3.354876 1.948425 3.75 0.994512 3.75 0 
C 3.75 -0.994512 3.354876 -1.948425 2.65165 -2.65165 
C 1.948425 -3.354876 0.994512 -3.75 0 -3.75 
C -0.994512 -3.75 -1.948425 -3.354876 -2.65165 -2.65165 
C -3.354876 -1.948425 -3.75 -0.994512 -3.75 0 
C -3.75 0.994512 -3.354876 1.948425 -2.65165 2.65165 
C -1.948425 3.354876 -0.994512 3.75 0 3.75 
z
" id="mfd803b84cc" style="stroke:#67cc5c;stroke-opacity:0.65;"/>
    </defs>
    <g clip-path="url(#p8960ba478a)">
     <use style="fill:#67cc5c;fill-opacity:0.65;stroke:#67cc5c;stroke-opacity:0.65;" x="359.370045" xlink:href="#mfd803b84cc" y="267.799939"/>
    </g>
   </g>
   <g id="line2d_32">
    <path clip-path="url(#p8960ba478a)" d="M 286.491319 273.373744 
" style="fill:none;stroke:#90d643;stroke-linecap:round;stroke-opacity:0.65;stroke-width:1.5;"/>
    <g clip-path="url(#p8960ba478a)">
     <use style="fill:#90d643;fill-opacity:0.65;stroke:#90d643;stroke-opacity:0.65;" x="286.491319" xlink:href="#m841253a0cf" y="273.373744"/>
    </g>
   </g>
   <g id="line2d_33">
    <path clip-path="url(#p8960ba478a)" d="M 290.892827 242.280827 
" style="fill:none;stroke:#a2da37;stroke-linecap:round;stroke-opacity:0.65;stroke-width:1.5;"/>
    <defs>
     <path d="M 0 3.75 
C 0.994512 3.75 1.948425 3.354876 2.65165 2.65165 
C 3.354876 1.948425 3.75 0.994512 3.75 0 
C 3.75 -0.994512 3.354876 -1.948425 2.65165 -2.65165 
C 1.948425 -3.354876 0.994512 -3.75 0 -3.75 
C -0.994512 -3.75 -1.948425 -3.354876 -2.65165 -2.65165 
C -3.354876 -1.948425 -3.75 -0.994512 -3.75 0 
C -3.75 0.994512 -3.354876 1.948425 -2.65165 2.65165 
C -1.948425 3.354876 -0.994512 3.75 0 3.75 
z
" id="m2bae4fb51d" style="stroke:#a2da37;stroke-opacity:0.65;"/>
    </defs>
    <g clip-path="url(#p8960ba478a)">
     <use style="fill:#a2da37;fill-opacity:0.65;stroke:#a2da37;stroke-opacity:0.65;" x="290.892827" xlink:href="#m2bae4fb51d" y="242.280827"/>
    </g>
   </g>
   <g id="line2d_34">
    <path clip-path="url(#p8960ba478a)" d="M 219.274044 260.553339 
" style="fill:none;stroke:#8dd644;stroke-linecap:round;stroke-opacity:0.65;stroke-width:1.5;"/>
    <defs>
     <path d="M 0 3.75 
C 0.994512 3.75 1.948425 3.354876 2.65165 2.65165 
C 3.354876 1.948425 3.75 0.994512 3.75 0 
C 3.75 -0.994512 3.354876 -1.948425 2.65165 -2.65165 
C 1.948425 -3.354876 0.994512 -3.75 0 -3.75 
C -0.994512 -3.75 -1.948425 -3.354876 -2.65165 -2.65165 
C -3.354876 -1.948425 -3.75 -0.994512 -3.75 0 
C -3.75 0.994512 -3.354876 1.948425 -2.65165 2.65165 
C -1.948425 3.354876 -0.994512 3.75 0 3.75 
z
" id="m615ac939b6" style="stroke:#8dd644;stroke-opacity:0.65;"/>
    </defs>
    <g clip-path="url(#p8960ba478a)">
     <use style="fill:#8dd644;fill-opacity:0.65;stroke:#8dd644;stroke-opacity:0.65;" x="219.274044" xlink:href="#m615ac939b6" y="260.553339"/>
    </g>
   </g>
   <g id="line2d_35">
    <path clip-path="url(#p8960ba478a)" d="M 280.585734 255.247397 
" style="fill:none;stroke:#e4e318;stroke-linecap:round;stroke-opacity:0.65;stroke-width:1.5;"/>
    <defs>
     <path d="M 0 3.75 
C 0.994512 3.75 1.948425 3.354876 2.65165 2.65165 
C 3.354876 1.948425 3.75 0.994512 3.75 0 
C 3.75 -0.994512 3.354876 -1.948425 2.65165 -2.65165 
C 1.948425 -3.354876 0.994512 -3.75 0 -3.75 
C -0.994512 -3.75 -1.948425 -3.354876 -2.65165 -2.65165 
C -3.354876 -1.948425 -3.75 -0.994512 -3.75 0 
C -3.75 0.994512 -3.354876 1.948425 -2.65165 2.65165 
C -1.948425 3.354876 -0.994512 3.75 0 3.75 
z
" id="m294b29a494" style="stroke:#e4e318;stroke-opacity:0.65;"/>
    </defs>
    <g clip-path="url(#p8960ba478a)">
     <use style="fill:#e4e318;fill-opacity:0.65;stroke:#e4e318;stroke-opacity:0.65;" x="280.585734" xlink:href="#m294b29a494" y="255.247397"/>
    </g>
   </g>
   <g id="line2d_36">
    <path clip-path="url(#p8960ba478a)" d="M 361.23464 84.280259 
" style="fill:none;stroke:#eee51b;stroke-linecap:round;stroke-opacity:0.65;stroke-width:1.5;"/>
    <g clip-path="url(#p8960ba478a)">
     <use style="fill:#eee51b;fill-opacity:0.65;stroke:#eee51b;stroke-opacity:0.65;" x="361.23464" xlink:href="#m4046039c7c" y="84.280259"/>
    </g>
   </g>
   <g id="line2d_37">
    <path clip-path="url(#p8960ba478a)" d="M 286.538614 255.247397 
" style="fill:none;stroke:#e4e318;stroke-linecap:round;stroke-opacity:0.65;stroke-width:1.5;"/>
    <g clip-path="url(#p8960ba478a)">
     <use style="fill:#e4e318;fill-opacity:0.65;stroke:#e4e318;stroke-opacity:0.65;" x="286.538614" xlink:href="#m294b29a494" y="255.247397"/>
    </g>
   </g>
   <g id="line2d_38">
    <path clip-path="url(#p8960ba478a)" d="M 348.774958 267.799939 
" style="fill:none;stroke:#355d8c;stroke-linecap:round;stroke-opacity:0.65;stroke-width:1.5;"/>
    <defs>
     <path d="M 0 3.75 
C 0.994512 3.75 1.948425 3.354876 2.65165 2.65165 
C 3.354876 1.948425 3.75 0.994512 3.75 0 
C 3.75 -0.994512 3.354876 -1.948425 2.65165 -2.65165 
C 1.948425 -3.354876 0.994512 -3.75 0 -3.75 
C -0.994512 -3.75 -1.948425 -3.354876 -2.65165 -2.65165 
C -3.354876 -1.948425 -3.75 -0.994512 -3.75 0 
C -3.75 0.994512 -3.354876 1.948425 -2.65165 2.65165 
C -1.948425 3.354876 -0.994512 3.75 0 3.75 
z
" id="mf6dbb1d844" style="stroke:#355d8c;stroke-opacity:0.65;"/>
    </defs>
    <g clip-path="url(#p8960ba478a)">
     <use style="fill:#355d8c;fill-opacity:0.65;stroke:#355d8c;stroke-opacity:0.65;" x="348.774958" xlink:href="#mf6dbb1d844" y="267.799939"/>
    </g>
   </g>
   <g id="line2d_39">
    <path clip-path="url(#p8960ba478a)" d="M 354.534464 267.799939 
" style="fill:none;stroke:#23888d;stroke-linecap:round;stroke-opacity:0.65;stroke-width:1.5;"/>
    <defs>
     <path d="M 0 3.75 
C 0.994512 3.75 1.948425 3.354876 2.65165 2.65165 
C 3.354876 1.948425 3.75 0.994512 3.75 0 
C 3.75 -0.994512 3.354876 -1.948425 2.65165 -2.65165 
C 1.948425 -3.354876 0.994512 -3.75 0 -3.75 
C -0.994512 -3.75 -1.948425 -3.354876 -2.65165 -2.65165 
C -3.354876 -1.948425 -3.75 -0.994512 -3.75 0 
C -3.75 0.994512 -3.354876 1.948425 -2.65165 2.65165 
C -1.948425 3.354876 -0.994512 3.75 0 3.75 
z
" id="m804b8362fa" style="stroke:#23888d;stroke-opacity:0.65;"/>
    </defs>
    <g clip-path="url(#p8960ba478a)">
     <use style="fill:#23888d;fill-opacity:0.65;stroke:#23888d;stroke-opacity:0.65;" x="354.534464" xlink:href="#m804b8362fa" y="267.799939"/>
    </g>
   </g>
   <g id="line2d_40">
    <path clip-path="url(#p8960ba478a)" d="M 348.365208 84.280259 
" style="fill:none;stroke:#e4e318;stroke-linecap:round;stroke-opacity:0.65;stroke-width:1.5;"/>
    <g clip-path="url(#p8960ba478a)">
     <use style="fill:#e4e318;fill-opacity:0.65;stroke:#e4e318;stroke-opacity:0.65;" x="348.365208" xlink:href="#m294b29a494" y="84.280259"/>
    </g>
   </g>
   <g id="line2d_41">
    <path clip-path="url(#p8960ba478a)" d="M 348.298971 267.799939 
" style="fill:none;stroke:#8bd546;stroke-linecap:round;stroke-opacity:0.65;stroke-width:1.5;"/>
    <defs>
     <path d="M 0 3.75 
C 0.994512 3.75 1.948425 3.354876 2.65165 2.65165 
C 3.354876 1.948425 3.75 0.994512 3.75 0 
C 3.75 -0.994512 3.354876 -1.948425 2.65165 -2.65165 
C 1.948425 -3.354876 0.994512 -3.75 0 -3.75 
C -0.994512 -3.75 -1.948425 -3.354876 -2.65165 -2.65165 
C -3.354876 -1.948425 -3.75 -0.994512 -3.75 0 
C -3.75 0.994512 -3.354876 1.948425 -2.65165 2.65165 
C -1.948425 3.354876 -0.994512 3.75 0 3.75 
z
" id="md45ad8144d" style="stroke:#8bd546;stroke-opacity:0.65;"/>
    </defs>
    <g clip-path="url(#p8960ba478a)">
     <use style="fill:#8bd546;fill-opacity:0.65;stroke:#8bd546;stroke-opacity:0.65;" x="348.298971" xlink:href="#md45ad8144d" y="267.799939"/>
    </g>
   </g>
   <g id="line2d_42">
    <path clip-path="url(#p8960ba478a)" d="M 150.411772 273.520533 
" style="fill:none;stroke:#dce218;stroke-linecap:round;stroke-opacity:0.65;stroke-width:1.5;"/>
    <defs>
     <path d="M 0 3.75 
C 0.994512 3.75 1.948425 3.354876 2.65165 2.65165 
C 3.354876 1.948425 3.75 0.994512 3.75 0 
C 3.75 -0.994512 3.354876 -1.948425 2.65165 -2.65165 
C 1.948425 -3.354876 0.994512 -3.75 0 -3.75 
C -0.994512 -3.75 -1.948425 -3.354876 -2.65165 -2.65165 
C -3.354876 -1.948425 -3.75 -0.994512 -3.75 0 
C -3.75 0.994512 -3.354876 1.948425 -2.65165 2.65165 
C -1.948425 3.354876 -0.994512 3.75 0 3.75 
z
" id="m58aa7b7bbe" style="stroke:#dce218;stroke-opacity:0.65;"/>
    </defs>
    <g clip-path="url(#p8960ba478a)">
     <use style="fill:#dce218;fill-opacity:0.65;stroke:#dce218;stroke-opacity:0.65;" x="150.411772" xlink:href="#m58aa7b7bbe" y="273.520533"/>
    </g>
   </g>
   <g id="line2d_43">
    <path clip-path="url(#p8960ba478a)" d="M 359.829302 84.280259 
" style="fill:none;stroke:#228b8d;stroke-linecap:round;stroke-opacity:0.65;stroke-width:1.5;"/>
    <defs>
     <path d="M 0 3.75 
C 0.994512 3.75 1.948425 3.354876 2.65165 2.65165 
C 3.354876 1.948425 3.75 0.994512 3.75 0 
C 3.75 -0.994512 3.354876 -1.948425 2.65165 -2.65165 
C 1.948425 -3.354876 0.994512 -3.75 0 -3.75 
C -0.994512 -3.75 -1.948425 -3.354876 -2.65165 -2.65165 
C -3.354876 -1.948425 -3.75 -0.994512 -3.75 0 
C -3.75 0.994512 -3.354876 1.948425 -2.65165 2.65165 
C -1.948425 3.354876 -0.994512 3.75 0 3.75 
z
" id="m49aa21c064" style="stroke:#228b8d;stroke-opacity:0.65;"/>
    </defs>
    <g clip-path="url(#p8960ba478a)">
     <use style="fill:#228b8d;fill-opacity:0.65;stroke:#228b8d;stroke-opacity:0.65;" x="359.829302" xlink:href="#m49aa21c064" y="84.280259"/>
    </g>
   </g>
   <g id="line2d_44">
    <path clip-path="url(#p8960ba478a)" d="M 221.480317 260.553339 
" style="fill:none;stroke:#4bc26c;stroke-linecap:round;stroke-opacity:0.65;stroke-width:1.5;"/>
    <defs>
     <path d="M 0 3.75 
C 0.994512 3.75 1.948425 3.354876 2.65165 2.65165 
C 3.354876 1.948425 3.75 0.994512 3.75 0 
C 3.75 -0.994512 3.354876 -1.948425 2.65165 -2.65165 
C 1.948425 -3.354876 0.994512 -3.75 0 -3.75 
C -0.994512 -3.75 -1.948425 -3.354876 -2.65165 -2.65165 
C -3.354876 -1.948425 -3.75 -0.994512 -3.75 0 
C -3.75 0.994512 -3.354876 1.948425 -2.65165 2.65165 
C -1.948425 3.354876 -0.994512 3.75 0 3.75 
z
" id="mc68fde0f8b" style="stroke:#4bc26c;stroke-opacity:0.65;"/>
    </defs>
    <g clip-path="url(#p8960ba478a)">
     <use style="fill:#4bc26c;fill-opacity:0.65;stroke:#4bc26c;stroke-opacity:0.65;" x="221.480317" xlink:href="#mc68fde0f8b" y="260.553339"/>
    </g>
   </g>
   <g id="line2d_45">
    <path clip-path="url(#p8960ba478a)" d="M 423.69451 56.587774 
" style="fill:none;stroke:#92d741;stroke-linecap:round;stroke-opacity:0.65;stroke-width:1.5;"/>
    <defs>
     <path d="M 0 3.75 
C 0.994512 3.75 1.948425 3.354876 2.65165 2.65165 
C 3.354876 1.948425 3.75 0.994512 3.75 0 
C 3.75 -0.994512 3.354876 -1.948425 2.65165 -2.65165 
C 1.948425 -3.354876 0.994512 -3.75 0 -3.75 
C -0.994512 -3.75 -1.948425 -3.354876 -2.65165 -2.65165 
C -3.354876 -1.948425 -3.75 -0.994512 -3.75 0 
C -3.75 0.994512 -3.354876 1.948425 -2.65165 2.65165 
C -1.948425 3.354876 -0.994512 3.75 0 3.75 
z
" id="m51af1582f9" style="stroke:#92d741;stroke-opacity:0.65;"/>
    </defs>
    <g clip-path="url(#p8960ba478a)">
     <use style="fill:#92d741;fill-opacity:0.65;stroke:#92d741;stroke-opacity:0.65;" x="423.69451" xlink:href="#m51af1582f9" y="56.587774"/>
    </g>
   </g>
   <g id="line2d_46">
    <path clip-path="url(#p8960ba478a)" d="M 84.230081 273.16973 
" style="fill:none;stroke:#443982;stroke-linecap:round;stroke-opacity:0.65;stroke-width:1.5;"/>
    <defs>
     <path d="M 0 3.75 
C 0.994512 3.75 1.948425 3.354876 2.65165 2.65165 
C 3.354876 1.948425 3.75 0.994512 3.75 0 
C 3.75 -0.994512 3.354876 -1.948425 2.65165 -2.65165 
C 1.948425 -3.354876 0.994512 -3.75 0 -3.75 
C -0.994512 -3.75 -1.948425 -3.354876 -2.65165 -2.65165 
C -3.354876 -1.948425 -3.75 -0.994512 -3.75 0 
C -3.75 0.994512 -3.354876 1.948425 -2.65165 2.65165 
C -1.948425 3.354876 -0.994512 3.75 0 3.75 
z
" id="mbfb23d3c8f" style="stroke:#443982;stroke-opacity:0.65;"/>
    </defs>
    <g clip-path="url(#p8960ba478a)">
     <use style="fill:#443982;fill-opacity:0.65;stroke:#443982;stroke-opacity:0.65;" x="84.230081" xlink:href="#mbfb23d3c8f" y="273.16973"/>
    </g>
   </g>
   <g id="line2d_47">
    <path clip-path="url(#p8960ba478a)" d="M 355.284948 84.280259 
" style="fill:none;stroke:#2cb17d;stroke-linecap:round;stroke-opacity:0.65;stroke-width:1.5;"/>
    <defs>
     <path d="M 0 3.75 
C 0.994512 3.75 1.948425 3.354876 2.65165 2.65165 
C 3.354876 1.948425 3.75 0.994512 3.75 0 
C 3.75 -0.994512 3.354876 -1.948425 2.65165 -2.65165 
C 1.948425 -3.354876 0.994512 -3.75 0 -3.75 
C -0.994512 -3.75 -1.948425 -3.354876 -2.65165 -2.65165 
C -3.354876 -1.948425 -3.75 -0.994512 -3.75 0 
C -3.75 0.994512 -3.354876 1.948425 -2.65165 2.65165 
C -1.948425 3.354876 -0.994512 3.75 0 3.75 
z
" id="mcd16bd9a00" style="stroke:#2cb17d;stroke-opacity:0.65;"/>
    </defs>
    <g clip-path="url(#p8960ba478a)">
     <use style="fill:#2cb17d;fill-opacity:0.65;stroke:#2cb17d;stroke-opacity:0.65;" x="355.284948" xlink:href="#mcd16bd9a00" y="84.280259"/>
    </g>
   </g>
   <g id="line2d_48">
    <path clip-path="url(#p8960ba478a)" d="M 152.679687 272.581574 
" style="fill:none;stroke:#d4e11a;stroke-linecap:round;stroke-opacity:0.65;stroke-width:1.5;"/>
    <defs>
     <path d="M 0 3.75 
C 0.994512 3.75 1.948425 3.354876 2.65165 2.65165 
C 3.354876 1.948425 3.75 0.994512 3.75 0 
C 3.75 -0.994512 3.354876 -1.948425 2.65165 -2.65165 
C 1.948425 -3.354876 0.994512 -3.75 0 -3.75 
C -0.994512 -3.75 -1.948425 -3.354876 -2.65165 -2.65165 
C -3.354876 -1.948425 -3.75 -0.994512 -3.75 0 
C -3.75 0.994512 -3.354876 1.948425 -2.65165 2.65165 
C -1.948425 3.354876 -0.994512 3.75 0 3.75 
z
" id="m8ca60ff5c0" style="stroke:#d4e11a;stroke-opacity:0.65;"/>
    </defs>
    <g clip-path="url(#p8960ba478a)">
     <use style="fill:#d4e11a;fill-opacity:0.65;stroke:#d4e11a;stroke-opacity:0.65;" x="152.679687" xlink:href="#m8ca60ff5c0" y="272.581574"/>
    </g>
   </g>
   <g id="line2d_49">
    <path clip-path="url(#p8960ba478a)" d="M 419.15215 56.587774 
" style="fill:none;stroke:#afdc2e;stroke-linecap:round;stroke-opacity:0.65;stroke-width:1.5;"/>
    <defs>
     <path d="M 0 3.75 
C 0.994512 3.75 1.948425 3.354876 2.65165 2.65165 
C 3.354876 1.948425 3.75 0.994512 3.75 0 
C 3.75 -0.994512 3.354876 -1.948425 2.65165 -2.65165 
C 1.948425 -3.354876 0.994512 -3.75 0 -3.75 
C -0.994512 -3.75 -1.948425 -3.354876 -2.65165 -2.65165 
C -3.354876 -1.948425 -3.75 -0.994512 -3.75 0 
C -3.75 0.994512 -3.354876 1.948425 -2.65165 2.65165 
C -1.948425 3.354876 -0.994512 3.75 0 3.75 
z
" id="m123acd491e" style="stroke:#afdc2e;stroke-opacity:0.65;"/>
    </defs>
    <g clip-path="url(#p8960ba478a)">
     <use style="fill:#afdc2e;fill-opacity:0.65;stroke:#afdc2e;stroke-opacity:0.65;" x="419.15215" xlink:href="#m123acd491e" y="56.587774"/>
    </g>
   </g>
   <g id="line2d_50">
    <path clip-path="url(#p8960ba478a)" d="M 78.765463 273.16973 
" style="fill:none;stroke:#92d741;stroke-linecap:round;stroke-opacity:0.65;stroke-width:1.5;"/>
    <g clip-path="url(#p8960ba478a)">
     <use style="fill:#92d741;fill-opacity:0.65;stroke:#92d741;stroke-opacity:0.65;" x="78.765463" xlink:href="#m51af1582f9" y="273.16973"/>
    </g>
   </g>
   <g id="line2d_51">
    <path clip-path="url(#p8960ba478a)" d="M 351.365571 215.194281 
" style="fill:none;stroke:#cde01d;stroke-linecap:round;stroke-opacity:0.65;stroke-width:1.5;"/>
    <g clip-path="url(#p8960ba478a)">
     <use style="fill:#cde01d;fill-opacity:0.65;stroke:#cde01d;stroke-opacity:0.65;" x="351.365571" xlink:href="#meaeaaa552f" y="215.194281"/>
    </g>
   </g>
   <g id="line2d_52">
    <path clip-path="url(#p8960ba478a)" d="M 217.983283 273.516834 
" style="fill:none;stroke:#404487;stroke-linecap:round;stroke-opacity:0.65;stroke-width:1.5;"/>
    <defs>
     <path d="M 0 3.75 
C 0.994512 3.75 1.948425 3.354876 2.65165 2.65165 
C 3.354876 1.948425 3.75 0.994512 3.75 0 
C 3.75 -0.994512 3.354876 -1.948425 2.65165 -2.65165 
C 1.948425 -3.354876 0.994512 -3.75 0 -3.75 
C -0.994512 -3.75 -1.948425 -3.354876 -2.65165 -2.65165 
C -3.354876 -1.948425 -3.75 -0.994512 -3.75 0 
C -3.75 0.994512 -3.354876 1.948425 -2.65165 2.65165 
C -1.948425 3.354876 -0.994512 3.75 0 3.75 
z
" id="md0fcf0f43a" style="stroke:#404487;stroke-opacity:0.65;"/>
    </defs>
    <g clip-path="url(#p8960ba478a)">
     <use style="fill:#404487;fill-opacity:0.65;stroke:#404487;stroke-opacity:0.65;" x="217.983283" xlink:href="#md0fcf0f43a" y="273.516834"/>
    </g>
   </g>
   <g id="line2d_53">
    <path clip-path="url(#p8960ba478a)" d="M 349.947816 215.194281 
" style="fill:none;stroke:#cde01d;stroke-linecap:round;stroke-opacity:0.65;stroke-width:1.5;"/>
    <g clip-path="url(#p8960ba478a)">
     <use style="fill:#cde01d;fill-opacity:0.65;stroke:#cde01d;stroke-opacity:0.65;" x="349.947816" xlink:href="#meaeaaa552f" y="215.194281"/>
    </g>
   </g>
   <g id="line2d_54">
    <path clip-path="url(#p8960ba478a)" d="M 351.495323 237.601704 
" style="fill:none;stroke:#90d643;stroke-linecap:round;stroke-opacity:0.65;stroke-width:1.5;"/>
    <g clip-path="url(#p8960ba478a)">
     <use style="fill:#90d643;fill-opacity:0.65;stroke:#90d643;stroke-opacity:0.65;" x="351.495323" xlink:href="#m841253a0cf" y="237.601704"/>
    </g>
   </g>
   <g id="line2d_55">
    <path clip-path="url(#p8960ba478a)" d="M 356.311932 215.194281 
" style="fill:none;stroke:#86d449;stroke-linecap:round;stroke-opacity:0.65;stroke-width:1.5;"/>
    <defs>
     <path d="M 0 3.75 
C 0.994512 3.75 1.948425 3.354876 2.65165 2.65165 
C 3.354876 1.948425 3.75 0.994512 3.75 0 
C 3.75 -0.994512 3.354876 -1.948425 2.65165 -2.65165 
C 1.948425 -3.354876 0.994512 -3.75 0 -3.75 
C -0.994512 -3.75 -1.948425 -3.354876 -2.65165 -2.65165 
C -3.354876 -1.948425 -3.75 -0.994512 -3.75 0 
C -3.75 0.994512 -3.354876 1.948425 -2.65165 2.65165 
C -1.948425 3.354876 -0.994512 3.75 0 3.75 
z
" id="m5484901991" style="stroke:#86d449;stroke-opacity:0.65;"/>
    </defs>
    <g clip-path="url(#p8960ba478a)">
     <use style="fill:#86d449;fill-opacity:0.65;stroke:#86d449;stroke-opacity:0.65;" x="356.311932" xlink:href="#m5484901991" y="215.194281"/>
    </g>
   </g>
   <g id="line2d_56">
    <path clip-path="url(#p8960ba478a)" d="M 418.721948 56.587774 
" style="fill:none;stroke:#83d34b;stroke-linecap:round;stroke-opacity:0.65;stroke-width:1.5;"/>
    <defs>
     <path d="M 0 3.75 
C 0.994512 3.75 1.948425 3.354876 2.65165 2.65165 
C 3.354876 1.948425 3.75 0.994512 3.75 0 
C 3.75 -0.994512 3.354876 -1.948425 2.65165 -2.65165 
C 1.948425 -3.354876 0.994512 -3.75 0 -3.75 
C -0.994512 -3.75 -1.948425 -3.354876 -2.65165 -2.65165 
C -3.354876 -1.948425 -3.75 -0.994512 -3.75 0 
C -3.75 0.994512 -3.354876 1.948425 -2.65165 2.65165 
C -1.948425 3.354876 -0.994512 3.75 0 3.75 
z
" id="mdc58f3e7b0" style="stroke:#83d34b;stroke-opacity:0.65;"/>
    </defs>
    <g clip-path="url(#p8960ba478a)">
     <use style="fill:#83d34b;fill-opacity:0.65;stroke:#83d34b;stroke-opacity:0.65;" x="418.721948" xlink:href="#mdc58f3e7b0" y="56.587774"/>
    </g>
   </g>
   <g id="line2d_57">
    <path clip-path="url(#p8960ba478a)" d="M 223.237157 260.553339 
" style="fill:none;stroke:#a2da37;stroke-linecap:round;stroke-opacity:0.65;stroke-width:1.5;"/>
    <g clip-path="url(#p8960ba478a)">
     <use style="fill:#a2da37;fill-opacity:0.65;stroke:#a2da37;stroke-opacity:0.65;" x="223.237157" xlink:href="#m2bae4fb51d" y="260.553339"/>
    </g>
   </g>
   <g id="line2d_58">
    <path clip-path="url(#p8960ba478a)" d="M 425.79536 56.587774 
" style="fill:none;stroke:#67cc5c;stroke-linecap:round;stroke-opacity:0.65;stroke-width:1.5;"/>
    <g clip-path="url(#p8960ba478a)">
     <use style="fill:#67cc5c;fill-opacity:0.65;stroke:#67cc5c;stroke-opacity:0.65;" x="425.79536" xlink:href="#mfd803b84cc" y="56.587774"/>
    </g>
   </g>
   <g id="line2d_59">
    <path clip-path="url(#p8960ba478a)" d="M 281.100731 273.373744 
" style="fill:none;stroke:#28ae7f;stroke-linecap:round;stroke-opacity:0.65;stroke-width:1.5;"/>
    <defs>
     <path d="M 0 3.75 
C 0.994512 3.75 1.948425 3.354876 2.65165 2.65165 
C 3.354876 1.948425 3.75 0.994512 3.75 0 
C 3.75 -0.994512 3.354876 -1.948425 2.65165 -2.65165 
C 1.948425 -3.354876 0.994512 -3.75 0 -3.75 
C -0.994512 -3.75 -1.948425 -3.354876 -2.65165 -2.65165 
C -3.354876 -1.948425 -3.75 -0.994512 -3.75 0 
C -3.75 0.994512 -3.354876 1.948425 -2.65165 2.65165 
C -1.948425 3.354876 -0.994512 3.75 0 3.75 
z
" id="mbbdf4b5c60" style="stroke:#28ae7f;stroke-opacity:0.65;"/>
    </defs>
    <g clip-path="url(#p8960ba478a)">
     <use style="fill:#28ae7f;fill-opacity:0.65;stroke:#28ae7f;stroke-opacity:0.65;" x="281.100731" xlink:href="#mbbdf4b5c60" y="273.373744"/>
    </g>
   </g>
   <g id="line2d_60">
    <path clip-path="url(#p8960ba478a)" d="M 353.538676 84.280259 
" style="fill:none;stroke:#eee51b;stroke-linecap:round;stroke-opacity:0.65;stroke-width:1.5;"/>
    <g clip-path="url(#p8960ba478a)">
     <use style="fill:#eee51b;fill-opacity:0.65;stroke:#eee51b;stroke-opacity:0.65;" x="353.538676" xlink:href="#m4046039c7c" y="84.280259"/>
    </g>
   </g>
   <g id="line2d_61">
    <path clip-path="url(#p8960ba478a)" d="M 222.262722 273.020821 
" style="fill:none;stroke:#a2da37;stroke-linecap:round;stroke-opacity:0.65;stroke-width:1.5;"/>
    <g clip-path="url(#p8960ba478a)">
     <use style="fill:#a2da37;fill-opacity:0.65;stroke:#a2da37;stroke-opacity:0.65;" x="222.262722" xlink:href="#m2bae4fb51d" y="273.020821"/>
    </g>
   </g>
   <g id="line2d_62">
    <path clip-path="url(#p8960ba478a)" d="M 213.508756 226.657947 
" style="fill:none;stroke:#cfe11c;stroke-linecap:round;stroke-opacity:0.65;stroke-width:1.5;"/>
    <g clip-path="url(#p8960ba478a)">
     <use style="fill:#cfe11c;fill-opacity:0.65;stroke:#cfe11c;stroke-opacity:0.65;" x="213.508756" xlink:href="#m0e000c3dbc" y="226.657947"/>
    </g>
   </g>
   <g id="line2d_63">
    <path clip-path="url(#p8960ba478a)" d="M 219.270696 273.530167 
" style="fill:none;stroke:#21a685;stroke-linecap:round;stroke-opacity:0.65;stroke-width:1.5;"/>
    <defs>
     <path d="M 0 3.75 
C 0.994512 3.75 1.948425 3.354876 2.65165 2.65165 
C 3.354876 1.948425 3.75 0.994512 3.75 0 
C 3.75 -0.994512 3.354876 -1.948425 2.65165 -2.65165 
C 1.948425 -3.354876 0.994512 -3.75 0 -3.75 
C -0.994512 -3.75 -1.948425 -3.354876 -2.65165 -2.65165 
C -3.354876 -1.948425 -3.75 -0.994512 -3.75 0 
C -3.75 0.994512 -3.354876 1.948425 -2.65165 2.65165 
C -1.948425 3.354876 -0.994512 3.75 0 3.75 
z
" id="mabfb3f617f" style="stroke:#21a685;stroke-opacity:0.65;"/>
    </defs>
    <g clip-path="url(#p8960ba478a)">
     <use style="fill:#21a685;fill-opacity:0.65;stroke:#21a685;stroke-opacity:0.65;" x="219.270696" xlink:href="#mabfb3f617f" y="273.530167"/>
    </g>
   </g>
   <g id="line2d_64">
    <path clip-path="url(#p8960ba478a)" d="M 282.80938 272.259265 
" style="fill:none;stroke:#c5df21;stroke-linecap:round;stroke-opacity:0.65;stroke-width:1.5;"/>
    <defs>
     <path d="M 0 3.75 
C 0.994512 3.75 1.948425 3.354876 2.65165 2.65165 
C 3.354876 1.948425 3.75 0.994512 3.75 0 
C 3.75 -0.994512 3.354876 -1.948425 2.65165 -2.65165 
C 1.948425 -3.354876 0.994512 -3.75 0 -3.75 
C -0.994512 -3.75 -1.948425 -3.354876 -2.65165 -2.65165 
C -3.354876 -1.948425 -3.75 -0.994512 -3.75 0 
C -3.75 0.994512 -3.354876 1.948425 -2.65165 2.65165 
C -1.948425 3.354876 -0.994512 3.75 0 3.75 
z
" id="m90b45a3c3b" style="stroke:#c5df21;stroke-opacity:0.65;"/>
    </defs>
    <g clip-path="url(#p8960ba478a)">
     <use style="fill:#c5df21;fill-opacity:0.65;stroke:#c5df21;stroke-opacity:0.65;" x="282.80938" xlink:href="#m90b45a3c3b" y="272.259265"/>
    </g>
   </g>
   <g id="line2d_65">
    <path clip-path="url(#p8960ba478a)" d="M 357.557417 259.366388 
" style="fill:none;stroke:#86d449;stroke-linecap:round;stroke-opacity:0.65;stroke-width:1.5;"/>
    <g clip-path="url(#p8960ba478a)">
     <use style="fill:#86d449;fill-opacity:0.65;stroke:#86d449;stroke-opacity:0.65;" x="357.557417" xlink:href="#m5484901991" y="259.366388"/>
    </g>
   </g>
   <g id="line2d_66">
    <path clip-path="url(#p8960ba478a)" d="M 428.44488 56.587774 
" style="fill:none;stroke:#6dce58;stroke-linecap:round;stroke-opacity:0.65;stroke-width:1.5;"/>
    <g clip-path="url(#p8960ba478a)">
     <use style="fill:#6dce58;fill-opacity:0.65;stroke:#6dce58;stroke-opacity:0.65;" x="428.44488" xlink:href="#maf5eae47ad" y="56.587774"/>
    </g>
   </g>
   <g id="line2d_67">
    <path clip-path="url(#p8960ba478a)" d="M 291.306835 273.395635 
" style="fill:none;stroke:#95d73f;stroke-linecap:round;stroke-opacity:0.65;stroke-width:1.5;"/>
    <g clip-path="url(#p8960ba478a)">
     <use style="fill:#95d73f;fill-opacity:0.65;stroke:#95d73f;stroke-opacity:0.65;" x="291.306835" xlink:href="#md5a7cdb62a" y="273.395635"/>
    </g>
   </g>
   <g id="line2d_68">
    <path clip-path="url(#p8960ba478a)" d="M 358.518801 84.280259 
" style="fill:none;stroke:#addc30;stroke-linecap:round;stroke-opacity:0.65;stroke-width:1.5;"/>
    <defs>
     <path d="M 0 3.75 
C 0.994512 3.75 1.948425 3.354876 2.65165 2.65165 
C 3.354876 1.948425 3.75 0.994512 3.75 0 
C 3.75 -0.994512 3.354876 -1.948425 2.65165 -2.65165 
C 1.948425 -3.354876 0.994512 -3.75 0 -3.75 
C -0.994512 -3.75 -1.948425 -3.354876 -2.65165 -2.65165 
C -3.354876 -1.948425 -3.75 -0.994512 -3.75 0 
C -3.75 0.994512 -3.354876 1.948425 -2.65165 2.65165 
C -1.948425 3.354876 -0.994512 3.75 0 3.75 
z
" id="m0e80295e4d" style="stroke:#addc30;stroke-opacity:0.65;"/>
    </defs>
    <g clip-path="url(#p8960ba478a)">
     <use style="fill:#addc30;fill-opacity:0.65;stroke:#addc30;stroke-opacity:0.65;" x="358.518801" xlink:href="#m0e80295e4d" y="84.280259"/>
    </g>
   </g>
   <g id="line2d_69">
    <path clip-path="url(#p8960ba478a)" d="M 352.605017 84.280259 
" style="fill:none;stroke:#addc30;stroke-linecap:round;stroke-opacity:0.65;stroke-width:1.5;"/>
    <g clip-path="url(#p8960ba478a)">
     <use style="fill:#addc30;fill-opacity:0.65;stroke:#addc30;stroke-opacity:0.65;" x="352.605017" xlink:href="#m0e80295e4d" y="84.280259"/>
    </g>
   </g>
   <g id="line2d_70">
    <path clip-path="url(#p8960ba478a)" d="M 420.39366 56.587774 
" style="fill:none;stroke:#92d741;stroke-linecap:round;stroke-opacity:0.65;stroke-width:1.5;"/>
    <g clip-path="url(#p8960ba478a)">
     <use style="fill:#92d741;fill-opacity:0.65;stroke:#92d741;stroke-opacity:0.65;" x="420.39366" xlink:href="#m51af1582f9" y="56.587774"/>
    </g>
   </g>
   <g id="line2d_71">
    <path clip-path="url(#p8960ba478a)" d="M 223.034106 273.395635 
" style="fill:none;stroke:#f6e61f;stroke-linecap:round;stroke-opacity:0.65;stroke-width:1.5;"/>
    <defs>
     <path d="M 0 3.75 
C 0.994512 3.75 1.948425 3.354876 2.65165 2.65165 
C 3.354876 1.948425 3.75 0.994512 3.75 0 
C 3.75 -0.994512 3.354876 -1.948425 2.65165 -2.65165 
C 1.948425 -3.354876 0.994512 -3.75 0 -3.75 
C -0.994512 -3.75 -1.948425 -3.354876 -2.65165 -2.65165 
C -3.354876 -1.948425 -3.75 -0.994512 -3.75 0 
C -3.75 0.994512 -3.354876 1.948425 -2.65165 2.65165 
C -1.948425 3.354876 -0.994512 3.75 0 3.75 
z
" id="m11ced218c7" style="stroke:#f6e61f;stroke-opacity:0.65;"/>
    </defs>
    <g clip-path="url(#p8960ba478a)">
     <use style="fill:#f6e61f;fill-opacity:0.65;stroke:#f6e61f;stroke-opacity:0.65;" x="223.034106" xlink:href="#m11ced218c7" y="273.395635"/>
    </g>
   </g>
   <g id="line2d_72">
    <path clip-path="url(#p8960ba478a)" d="M 218.338264 226.657947 
" style="fill:none;stroke:#cfe11c;stroke-linecap:round;stroke-opacity:0.65;stroke-width:1.5;"/>
    <g clip-path="url(#p8960ba478a)">
     <use style="fill:#cfe11c;fill-opacity:0.65;stroke:#cfe11c;stroke-opacity:0.65;" x="218.338264" xlink:href="#m0e000c3dbc" y="226.657947"/>
    </g>
   </g>
   <g id="line2d_73">
    <path clip-path="url(#p8960ba478a)" d="M 350.945714 84.280259 
" style="fill:none;stroke:#a7db33;stroke-linecap:round;stroke-opacity:0.65;stroke-width:1.5;"/>
    <defs>
     <path d="M 0 3.75 
C 0.994512 3.75 1.948425 3.354876 2.65165 2.65165 
C 3.354876 1.948425 3.75 0.994512 3.75 0 
C 3.75 -0.994512 3.354876 -1.948425 2.65165 -2.65165 
C 1.948425 -3.354876 0.994512 -3.75 0 -3.75 
C -0.994512 -3.75 -1.948425 -3.354876 -2.65165 -2.65165 
C -3.354876 -1.948425 -3.75 -0.994512 -3.75 0 
C -3.75 0.994512 -3.354876 1.948425 -2.65165 2.65165 
C -1.948425 3.354876 -0.994512 3.75 0 3.75 
z
" id="m26a406bb30" style="stroke:#a7db33;stroke-opacity:0.65;"/>
    </defs>
    <g clip-path="url(#p8960ba478a)">
     <use style="fill:#a7db33;fill-opacity:0.65;stroke:#a7db33;stroke-opacity:0.65;" x="350.945714" xlink:href="#m26a406bb30" y="84.280259"/>
    </g>
   </g>
   <g id="line2d_74">
    <path clip-path="url(#p8960ba478a)" d="M 292.502184 268.578531 
" style="fill:none;stroke:#21a784;stroke-linecap:round;stroke-opacity:0.65;stroke-width:1.5;"/>
    <defs>
     <path d="M 0 3.75 
C 0.994512 3.75 1.948425 3.354876 2.65165 2.65165 
C 3.354876 1.948425 3.75 0.994512 3.75 0 
C 3.75 -0.994512 3.354876 -1.948425 2.65165 -2.65165 
C 1.948425 -3.354876 0.994512 -3.75 0 -3.75 
C -0.994512 -3.75 -1.948425 -3.354876 -2.65165 -2.65165 
C -3.354876 -1.948425 -3.75 -0.994512 -3.75 0 
C -3.75 0.994512 -3.354876 1.948425 -2.65165 2.65165 
C -1.948425 3.354876 -0.994512 3.75 0 3.75 
z
" id="m0a76dfc8f2" style="stroke:#21a784;stroke-opacity:0.65;"/>
    </defs>
    <g clip-path="url(#p8960ba478a)">
     <use style="fill:#21a784;fill-opacity:0.65;stroke:#21a784;stroke-opacity:0.65;" x="292.502184" xlink:href="#m0a76dfc8f2" y="268.578531"/>
    </g>
   </g>
   <g id="line2d_75">
    <path clip-path="url(#p8960ba478a)" d="M 290.638414 273.373744 
" style="fill:none;stroke:#fde724;stroke-linecap:round;stroke-opacity:0.65;stroke-width:1.5;"/>
    <g clip-path="url(#p8960ba478a)">
     <use style="fill:#fde724;fill-opacity:0.65;stroke:#fde724;stroke-opacity:0.65;" x="290.638414" xlink:href="#m7ffdf65bcf" y="273.373744"/>
    </g>
   </g>
   <g id="line2d_76">
    <path clip-path="url(#p8960ba478a)" d="M 141.630026 247.577127 
" style="fill:none;stroke:#fde724;stroke-linecap:round;stroke-opacity:0.65;stroke-width:1.5;"/>
    <g clip-path="url(#p8960ba478a)">
     <use style="fill:#fde724;fill-opacity:0.65;stroke:#fde724;stroke-opacity:0.65;" x="141.630026" xlink:href="#m7ffdf65bcf" y="247.577127"/>
    </g>
   </g>
   <g id="line2d_77"/>
   <g id="line2d_78"/>
   <g id="line2d_79"/>
   <g id="line2d_80"/>
   <g id="patch_3">
    <path d="M 71.771875 280.042969 
L 71.771875 39.232031 
" style="fill:none;stroke:#262626;stroke-linecap:square;stroke-linejoin:miter;stroke-width:0.8;"/>
   </g>
   <g id="patch_4">
    <path d="M 71.771875 280.042969 
L 435.438469 280.042969 
" style="fill:none;stroke:#262626;stroke-linecap:square;stroke-linejoin:miter;stroke-width:0.8;"/>
   </g>
   <g id="text_15">
    <text style="fill:#262626;font-family:Lato;font-size:15px;font-style:normal;font-weight:bold;text-anchor:middle;" transform="rotate(-0, 253.605172, 33.232031)" x="253.605172" y="33.232031">inferred AA lb index vs aa-cdist (64 observed, 64 total)</text>
   </g>
   <g id="legend_1">
    <g id="patch_5">
     <path d="M 92.355205 147.596953 
L 165.92083 147.596953 
Q 168.32083 147.596953 168.32083 145.196953 
L 168.32083 54.485078 
Q 168.32083 52.085078 165.92083 52.085078 
L 92.355205 52.085078 
Q 89.955205 52.085078 89.955205 54.485078 
L 89.955205 145.196953 
Q 89.955205 147.596953 92.355205 147.596953 
z
" style="fill:#ffffff;opacity:0.8;stroke:#cccccc;stroke-linejoin:miter;"/>
    </g>
    <g id="text_16">
     <text style="fill:#262626;font-family:Lato;font-size:20px;font-style:normal;font-weight:600;text-anchor:start;" transform="rotate(-0, 97.17708, 71.744453)" x="97.17708" y="71.744453">affinity</text>
    </g>
    <g id="line2d_81">
     <path d="M 94.755205 85.810078 
L 118.755205 85.810078 
" style="fill:none;"/>
    </g>
    <g id="line2d_82">
     <g>
      <use style="fill:#443982;fill-opacity:0.65;stroke:#443982;stroke-opacity:0.65;" x="106.755205" xlink:href="#mbfb23d3c8f" y="85.810078"/>
     </g>
    </g>
    <g id="text_17">
     <text style="fill:#262626;font-family:Lato;font-size:12px;font-style:normal;font-weight:600;text-anchor:start;" transform="rotate(-0, 128.355205, 90.010078)" x="128.355205" y="90.010078">-5.097</text>
    </g>
    <g id="line2d_83">
     <path d="M 94.755205 102.735703 
L 118.755205 102.735703 
" style="fill:none;"/>
    </g>
    <g id="line2d_84">
     <defs>
      <path d="M 0 3.75 
C 0.994512 3.75 1.948425 3.354876 2.65165 2.65165 
C 3.354876 1.948425 3.75 0.994512 3.75 0 
C 3.75 -0.994512 3.354876 -1.948425 2.65165 -2.65165 
C 1.948425 -3.354876 0.994512 -3.75 0 -3.75 
C -0.994512 -3.75 -1.948425 -3.354876 -2.65165 -2.65165 
C -3.354876 -1.948425 -3.75 -0.994512 -3.75 0 
C -3.75 0.994512 -3.354876 1.948425 -2.65165 2.65165 
C -1.948425 3.354876 -0.994512 3.75 0 3.75 
z
" id="m8e075ec094" style="stroke:#25828e;stroke-opacity:0.65;"/>
     </defs>
     <g>
      <use style="fill:#25828e;fill-opacity:0.65;stroke:#25828e;stroke-opacity:0.65;" x="106.755205" xlink:href="#m8e075ec094" y="102.735703"/>
     </g>
    </g>
    <g id="text_18">
     <text style="fill:#262626;font-family:Lato;font-size:12px;font-style:normal;font-weight:600;text-anchor:start;" transform="rotate(-0, 128.355205, 106.935703)" x="128.355205" y="106.935703">-3.111</text>
    </g>
    <g id="line2d_85">
     <path d="M 94.755205 119.661328 
L 118.755205 119.661328 
" style="fill:none;"/>
    </g>
    <g id="line2d_86">
     <defs>
      <path d="M 0 3.75 
C 0.994512 3.75 1.948425 3.354876 2.65165 2.65165 
C 3.354876 1.948425 3.75 0.994512 3.75 0 
C 3.75 -0.994512 3.354876 -1.948425 2.65165 -2.65165 
C 1.948425 -3.354876 0.994512 -3.75 0 -3.75 
C -0.994512 -3.75 -1.948425 -3.354876 -2.65165 -2.65165 
C -3.354876 -1.948425 -3.75 -0.994512 -3.75 0 
C -3.75 0.994512 -3.354876 1.948425 -2.65165 2.65165 
C -1.948425 3.354876 -0.994512 3.75 0 3.75 
z
" id="me18f8ab55b" style="stroke:#4dc26b;stroke-opacity:0.65;"/>
     </defs>
     <g>
      <use style="fill:#4dc26b;fill-opacity:0.65;stroke:#4dc26b;stroke-opacity:0.65;" x="106.755205" xlink:href="#me18f8ab55b" y="119.661328"/>
     </g>
    </g>
    <g id="text_19">
     <text style="fill:#262626;font-family:Lato;font-size:12px;font-style:normal;font-weight:600;text-anchor:start;" transform="rotate(-0, 128.355205, 123.861328)" x="128.355205" y="123.861328">-1.126</text>
    </g>
    <g id="line2d_87">
     <path d="M 94.755205 136.586953 
L 118.755205 136.586953 
" style="fill:none;"/>
    </g>
    <g id="line2d_88">
     <g>
      <use style="fill:#fde724;fill-opacity:0.65;stroke:#fde724;stroke-opacity:0.65;" x="106.755205" xlink:href="#m7ffdf65bcf" y="136.586953"/>
     </g>
    </g>
    <g id="text_20">
     <text style="fill:#262626;font-family:Lato;font-size:12px;font-style:normal;font-weight:600;text-anchor:start;" transform="rotate(-0, 128.355205, 140.786953)" x="128.355205" y="140.786953">0.859</text>
    </g>
   </g>
  </g>
  <g id="text_21">
   <text style="fill:#262626;font-family:Lato;font-size:20px;font-style:normal;font-weight:bold;text-anchor:start;" transform="rotate(-0, 92.16, 58.752)" x="92.16" y="58.752">r = 0.694</text>
  </g>
 </g>
 <defs>
  <clipPath id="p8960ba478a">
   <rect height="240.810937" width="363.666594" x="71.771875" y="39.232031"/>
  </clipPath>
 </defs>
</svg>
