<?xml version="1.0" encoding="utf-8" standalone="no"?>
<!DOCTYPE svg PUBLIC "-//W3C//DTD SVG 1.1//EN"
  "http://www.w3.org/Graphics/SVG/1.1/DTD/svg11.dtd">
<!-- Created with matplotlib (http://matplotlib.org/) -->
<svg height="345.6pt" version="1.1" viewBox="0 0 460.8 345.6" width="460.8pt" xmlns="http://www.w3.org/2000/svg" xmlns:xlink="http://www.w3.org/1999/xlink">
 <defs>
  <style type="text/css">
*{stroke-linecap:butt;stroke-linejoin:round;}
  </style>
 </defs>
 <g id="figure_1">
  <g id="patch_1">
   <path d="M 0 345.6 
L 460.8 345.6 
L 460.8 0 
L 0 0 
z
" style="fill:#ffffff;"/>
  </g>
  <g id="axes_1">
   <g id="patch_2">
    <path d="M 71.771875 280.042969 
L 435.438469 280.042969 
L 435.438469 39.232031 
L 71.771875 39.232031 
z
" style="fill:#ffffff;"/>
   </g>
   <g id="matplotlib.axis_1">
    <g id="xtick_1">
     <g id="line2d_1">
      <defs>
       <path d="M 0 0 
L 0 3.5 
" id="m50ed3cc35b" style="stroke:#262626;stroke-width:0.8;"/>
      </defs>
      <g>
       <use style="fill:#262626;stroke:#262626;stroke-width:0.8;" x="81.443582" xlink:href="#m50ed3cc35b" y="280.042969"/>
      </g>
     </g>
     <g id="text_1">
      <text style="fill:#262626;font-family:Lato;font-size:15px;font-style:normal;font-weight:600;text-anchor:middle;" transform="rotate(-0, 81.443582, 298.1875)" x="81.443582" y="298.1875">−5</text>
     </g>
    </g>
    <g id="xtick_2">
     <g id="line2d_2">
      <g>
       <use style="fill:#262626;stroke:#262626;stroke-width:0.8;" x="149.653787" xlink:href="#m50ed3cc35b" y="280.042969"/>
      </g>
     </g>
     <g id="text_2">
      <text style="fill:#262626;font-family:Lato;font-size:15px;font-style:normal;font-weight:600;text-anchor:middle;" transform="rotate(-0, 149.653787, 298.1875)" x="149.653787" y="298.1875">−4</text>
     </g>
    </g>
    <g id="xtick_3">
     <g id="line2d_3">
      <g>
       <use style="fill:#262626;stroke:#262626;stroke-width:0.8;" x="217.863991" xlink:href="#m50ed3cc35b" y="280.042969"/>
      </g>
     </g>
     <g id="text_3">
      <text style="fill:#262626;font-family:Lato;font-size:15px;font-style:normal;font-weight:600;text-anchor:middle;" transform="rotate(-0, 217.863991, 298.1875)" x="217.863991" y="298.1875">−3</text>
     </g>
    </g>
    <g id="xtick_4">
     <g id="line2d_4">
      <g>
       <use style="fill:#262626;stroke:#262626;stroke-width:0.8;" x="286.074196" xlink:href="#m50ed3cc35b" y="280.042969"/>
      </g>
     </g>
     <g id="text_4">
      <text style="fill:#262626;font-family:Lato;font-size:15px;font-style:normal;font-weight:600;text-anchor:middle;" transform="rotate(-0, 286.074196, 298.1875)" x="286.074196" y="298.1875">−2</text>
     </g>
    </g>
    <g id="xtick_5">
     <g id="line2d_5">
      <g>
       <use style="fill:#262626;stroke:#262626;stroke-width:0.8;" x="354.2844" xlink:href="#m50ed3cc35b" y="280.042969"/>
      </g>
     </g>
     <g id="text_5">
      <text style="fill:#262626;font-family:Lato;font-size:15px;font-style:normal;font-weight:600;text-anchor:middle;" transform="rotate(-0, 354.2844, 298.1875)" x="354.2844" y="298.1875">−1</text>
     </g>
    </g>
    <g id="xtick_6">
     <g id="line2d_6">
      <g>
       <use style="fill:#262626;stroke:#262626;stroke-width:0.8;" x="422.494605" xlink:href="#m50ed3cc35b" y="280.042969"/>
      </g>
     </g>
     <g id="text_6">
      <text style="fill:#262626;font-family:Lato;font-size:15px;font-style:normal;font-weight:600;text-anchor:middle;" transform="rotate(-0, 422.494605, 298.1875)" x="422.494605" y="298.1875">0</text>
     </g>
    </g>
    <g id="text_7">
     <text style="fill:#262626;font-family:Lato;font-size:20px;font-style:normal;font-weight:600;text-anchor:middle;" transform="rotate(-0, 253.605172, 320.4)" x="253.605172" y="320.4">aa-cdist (+jitter)</text>
    </g>
   </g>
   <g id="matplotlib.axis_2">
    <g id="ytick_1">
     <g id="line2d_7">
      <defs>
       <path d="M 0 0 
L -3.5 0 
" id="mdc5f5aed1f" style="stroke:#262626;stroke-width:0.8;"/>
      </defs>
      <g>
       <use style="fill:#262626;stroke:#262626;stroke-width:0.8;" x="71.771875" xlink:href="#mdc5f5aed1f" y="273.534692"/>
      </g>
     </g>
     <g id="text_8">
      <text style="fill:#262626;font-family:Lato;font-size:15px;font-style:normal;font-weight:600;text-anchor:end;" transform="rotate(-0, 64.771875, 279.106958)" x="64.771875" y="279.106958">0.0</text>
     </g>
    </g>
    <g id="ytick_2">
     <g id="line2d_8">
      <g>
       <use style="fill:#262626;stroke:#262626;stroke-width:0.8;" x="71.771875" xlink:href="#mdc5f5aed1f" y="233.210943"/>
      </g>
     </g>
     <g id="text_9">
      <text style="fill:#262626;font-family:Lato;font-size:15px;font-style:normal;font-weight:600;text-anchor:end;" transform="rotate(-0, 64.771875, 238.783208)" x="64.771875" y="238.783208">0.5</text>
     </g>
    </g>
    <g id="ytick_3">
     <g id="line2d_9">
      <g>
       <use style="fill:#262626;stroke:#262626;stroke-width:0.8;" x="71.771875" xlink:href="#mdc5f5aed1f" y="192.887193"/>
      </g>
     </g>
     <g id="text_10">
      <text style="fill:#262626;font-family:Lato;font-size:15px;font-style:normal;font-weight:600;text-anchor:end;" transform="rotate(-0, 64.771875, 198.459459)" x="64.771875" y="198.459459">1.0</text>
     </g>
    </g>
    <g id="ytick_4">
     <g id="line2d_10">
      <g>
       <use style="fill:#262626;stroke:#262626;stroke-width:0.8;" x="71.771875" xlink:href="#mdc5f5aed1f" y="152.563443"/>
      </g>
     </g>
     <g id="text_11">
      <text style="fill:#262626;font-family:Lato;font-size:15px;font-style:normal;font-weight:600;text-anchor:end;" transform="rotate(-0, 64.771875, 158.135709)" x="64.771875" y="158.135709">1.5</text>
     </g>
    </g>
    <g id="ytick_5">
     <g id="line2d_11">
      <g>
       <use style="fill:#262626;stroke:#262626;stroke-width:0.8;" x="71.771875" xlink:href="#mdc5f5aed1f" y="112.239694"/>
      </g>
     </g>
     <g id="text_12">
      <text style="fill:#262626;font-family:Lato;font-size:15px;font-style:normal;font-weight:600;text-anchor:end;" transform="rotate(-0, 64.771875, 117.811959)" x="64.771875" y="117.811959">2.0</text>
     </g>
    </g>
    <g id="ytick_6">
     <g id="line2d_12">
      <g>
       <use style="fill:#262626;stroke:#262626;stroke-width:0.8;" x="71.771875" xlink:href="#mdc5f5aed1f" y="71.915944"/>
      </g>
     </g>
     <g id="text_13">
      <text style="fill:#262626;font-family:Lato;font-size:15px;font-style:normal;font-weight:600;text-anchor:end;" transform="rotate(-0, 64.771875, 77.48821)" x="64.771875" y="77.48821">2.5</text>
     </g>
    </g>
    <g id="text_14">
     <text style="fill:#262626;font-family:Lato;font-size:20px;font-style:normal;font-weight:600;text-anchor:middle;" transform="rotate(-90, 36.459375, 159.6375)" x="36.459375" y="159.6375">AA lb index</text>
    </g>
   </g>
   <g id="line2d_13">
    <path clip-path="url(#p79ea99e45d)" d="M 359.775683 84.280259 
" style="fill:none;stroke:#eee51b;stroke-linecap:round;stroke-opacity:0.65;stroke-width:1.5;"/>
    <defs>
     <path d="M 0 3.75 
C 0.994512 3.75 1.948425 3.354876 2.65165 2.65165 
C 3.354876 1.948425 3.75 0.994512 3.75 0 
C 3.75 -0.994512 3.354876 -1.948425 2.65165 -2.65165 
C 1.948425 -3.354876 0.994512 -3.75 0 -3.75 
C -0.994512 -3.75 -1.948425 -3.354876 -2.65165 -2.65165 
C -3.354876 -1.948425 -3.75 -0.994512 -3.75 0 
C -3.75 0.994512 -3.354876 1.948425 -2.65165 2.65165 
C -1.948425 3.354876 -0.994512 3.75 0 3.75 
z
" id="m52f67c8aa8" style="stroke:#eee51b;stroke-opacity:0.65;"/>
    </defs>
    <g clip-path="url(#p79ea99e45d)">
     <use style="fill:#eee51b;fill-opacity:0.65;stroke:#eee51b;stroke-opacity:0.65;" x="359.775683" xlink:href="#m52f67c8aa8" y="84.280259"/>
    </g>
   </g>
   <g id="line2d_14">
    <path clip-path="url(#p79ea99e45d)" d="M 287.571745 268.578531 
" style="fill:none;stroke:#dfe318;stroke-linecap:round;stroke-opacity:0.65;stroke-width:1.5;"/>
    <defs>
     <path d="M 0 3.75 
C 0.994512 3.75 1.948425 3.354876 2.65165 2.65165 
C 3.354876 1.948425 3.75 0.994512 3.75 0 
C 3.75 -0.994512 3.354876 -1.948425 2.65165 -2.65165 
C 1.948425 -3.354876 0.994512 -3.75 0 -3.75 
C -0.994512 -3.75 -1.948425 -3.354876 -2.65165 -2.65165 
C -3.354876 -1.948425 -3.75 -0.994512 -3.75 0 
C -3.75 0.994512 -3.354876 1.948425 -2.65165 2.65165 
C -1.948425 3.354876 -0.994512 3.75 0 3.75 
z
" id="m9dd788da36" style="stroke:#dfe318;stroke-opacity:0.65;"/>
    </defs>
    <g clip-path="url(#p79ea99e45d)">
     <use style="fill:#dfe318;fill-opacity:0.65;stroke:#dfe318;stroke-opacity:0.65;" x="287.571745" xlink:href="#m9dd788da36" y="268.578531"/>
    </g>
   </g>
   <g id="line2d_15">
    <path clip-path="url(#p79ea99e45d)" d="M 155.950052 273.530783 
" style="fill:none;stroke:#a5da35;stroke-linecap:round;stroke-opacity:0.65;stroke-width:1.5;"/>
    <defs>
     <path d="M 0 3.75 
C 0.994512 3.75 1.948425 3.354876 2.65165 2.65165 
C 3.354876 1.948425 3.75 0.994512 3.75 0 
C 3.75 -0.994512 3.354876 -1.948425 2.65165 -2.65165 
C 1.948425 -3.354876 0.994512 -3.75 0 -3.75 
C -0.994512 -3.75 -1.948425 -3.354876 -2.65165 -2.65165 
C -3.354876 -1.948425 -3.75 -0.994512 -3.75 0 
C -3.75 0.994512 -3.354876 1.948425 -2.65165 2.65165 
C -1.948425 3.354876 -0.994512 3.75 0 3.75 
z
" id="m8f3847523b" style="stroke:#a5da35;stroke-opacity:0.65;"/>
    </defs>
    <g clip-path="url(#p79ea99e45d)">
     <use style="fill:#a5da35;fill-opacity:0.65;stroke:#a5da35;stroke-opacity:0.65;" x="155.950052" xlink:href="#m8f3847523b" y="273.530783"/>
    </g>
   </g>
   <g id="line2d_16">
    <path clip-path="url(#p79ea99e45d)" d="M 281.035523 273.373744 
" style="fill:none;stroke:#fde724;stroke-linecap:round;stroke-opacity:0.65;stroke-width:1.5;"/>
    <defs>
     <path d="M 0 3.75 
C 0.994512 3.75 1.948425 3.354876 2.65165 2.65165 
C 3.354876 1.948425 3.75 0.994512 3.75 0 
C 3.75 -0.994512 3.354876 -1.948425 2.65165 -2.65165 
C 1.948425 -3.354876 0.994512 -3.75 0 -3.75 
C -0.994512 -3.75 -1.948425 -3.354876 -2.65165 -2.65165 
C -3.354876 -1.948425 -3.75 -0.994512 -3.75 0 
C -3.75 0.994512 -3.354876 1.948425 -2.65165 2.65165 
C -1.948425 3.354876 -0.994512 3.75 0 3.75 
z
" id="md598a61507" style="stroke:#fde724;stroke-opacity:0.65;"/>
    </defs>
    <g clip-path="url(#p79ea99e45d)">
     <use style="fill:#fde724;fill-opacity:0.65;stroke:#fde724;stroke-opacity:0.65;" x="281.035523" xlink:href="#md598a61507" y="273.373744"/>
    </g>
   </g>
   <g id="line2d_17">
    <path clip-path="url(#p79ea99e45d)" d="M 155.218441 273.534565 
" style="fill:none;stroke:#90d643;stroke-linecap:round;stroke-opacity:0.65;stroke-width:1.5;"/>
    <defs>
     <path d="M 0 3.75 
C 0.994512 3.75 1.948425 3.354876 2.65165 2.65165 
C 3.354876 1.948425 3.75 0.994512 3.75 0 
C 3.75 -0.994512 3.354876 -1.948425 2.65165 -2.65165 
C 1.948425 -3.354876 0.994512 -3.75 0 -3.75 
C -0.994512 -3.75 -1.948425 -3.354876 -2.65165 -2.65165 
C -3.354876 -1.948425 -3.75 -0.994512 -3.75 0 
C -3.75 0.994512 -3.354876 1.948425 -2.65165 2.65165 
C -1.948425 3.354876 -0.994512 3.75 0 3.75 
z
" id="me8b3e082ce" style="stroke:#90d643;stroke-opacity:0.65;"/>
    </defs>
    <g clip-path="url(#p79ea99e45d)">
     <use style="fill:#90d643;fill-opacity:0.65;stroke:#90d643;stroke-opacity:0.65;" x="155.218441" xlink:href="#me8b3e082ce" y="273.534565"/>
    </g>
   </g>
   <g id="line2d_18">
    <path clip-path="url(#p79ea99e45d)" d="M 284.680658 268.578531 
" style="fill:none;stroke:#72cf55;stroke-linecap:round;stroke-opacity:0.65;stroke-width:1.5;"/>
    <defs>
     <path d="M 0 3.75 
C 0.994512 3.75 1.948425 3.354876 2.65165 2.65165 
C 3.354876 1.948425 3.75 0.994512 3.75 0 
C 3.75 -0.994512 3.354876 -1.948425 2.65165 -2.65165 
C 1.948425 -3.354876 0.994512 -3.75 0 -3.75 
C -0.994512 -3.75 -1.948425 -3.354876 -2.65165 -2.65165 
C -3.354876 -1.948425 -3.75 -0.994512 -3.75 0 
C -3.75 0.994512 -3.354876 1.948425 -2.65165 2.65165 
C -1.948425 3.354876 -0.994512 3.75 0 3.75 
z
" id="me8fdf3c623" style="stroke:#72cf55;stroke-opacity:0.65;"/>
    </defs>
    <g clip-path="url(#p79ea99e45d)">
     <use style="fill:#72cf55;fill-opacity:0.65;stroke:#72cf55;stroke-opacity:0.65;" x="284.680658" xlink:href="#me8fdf3c623" y="268.578531"/>
    </g>
   </g>
   <g id="line2d_19">
    <path clip-path="url(#p79ea99e45d)" d="M 359.635732 215.194281 
" style="fill:none;stroke:#cde01d;stroke-linecap:round;stroke-opacity:0.65;stroke-width:1.5;"/>
    <defs>
     <path d="M 0 3.75 
C 0.994512 3.75 1.948425 3.354876 2.65165 2.65165 
C 3.354876 1.948425 3.75 0.994512 3.75 0 
C 3.75 -0.994512 3.354876 -1.948425 2.65165 -2.65165 
C 1.948425 -3.354876 0.994512 -3.75 0 -3.75 
C -0.994512 -3.75 -1.948425 -3.354876 -2.65165 -2.65165 
C -3.354876 -1.948425 -3.75 -0.994512 -3.75 0 
C -3.75 0.994512 -3.354876 1.948425 -2.65165 2.65165 
C -1.948425 3.354876 -0.994512 3.75 0 3.75 
z
" id="mcfccf6d725" style="stroke:#cde01d;stroke-opacity:0.65;"/>
    </defs>
    <g clip-path="url(#p79ea99e45d)">
     <use style="fill:#cde01d;fill-opacity:0.65;stroke:#cde01d;stroke-opacity:0.65;" x="359.635732" xlink:href="#mcfccf6d725" y="215.194281"/>
    </g>
   </g>
   <g id="line2d_20">
    <path clip-path="url(#p79ea99e45d)" d="M 285.195353 268.578531 
" style="fill:none;stroke:#79d151;stroke-linecap:round;stroke-opacity:0.65;stroke-width:1.5;"/>
    <defs>
     <path d="M 0 3.75 
C 0.994512 3.75 1.948425 3.354876 2.65165 2.65165 
C 3.354876 1.948425 3.75 0.994512 3.75 0 
C 3.75 -0.994512 3.354876 -1.948425 2.65165 -2.65165 
C 1.948425 -3.354876 0.994512 -3.75 0 -3.75 
C -0.994512 -3.75 -1.948425 -3.354876 -2.65165 -2.65165 
C -3.354876 -1.948425 -3.75 -0.994512 -3.75 0 
C -3.75 0.994512 -3.354876 1.948425 -2.65165 2.65165 
C -1.948425 3.354876 -0.994512 3.75 0 3.75 
z
" id="mee1c8e0a89" style="stroke:#79d151;stroke-opacity:0.65;"/>
    </defs>
    <g clip-path="url(#p79ea99e45d)">
     <use style="fill:#79d151;fill-opacity:0.65;stroke:#79d151;stroke-opacity:0.65;" x="285.195353" xlink:href="#mee1c8e0a89" y="268.578531"/>
    </g>
   </g>
   <g id="line2d_21">
    <path clip-path="url(#p79ea99e45d)" d="M 280.902309 268.578531 
" style="fill:none;stroke:#f3e51e;stroke-linecap:round;stroke-opacity:0.65;stroke-width:1.5;"/>
    <defs>
     <path d="M 0 3.75 
C 0.994512 3.75 1.948425 3.354876 2.65165 2.65165 
C 3.354876 1.948425 3.75 0.994512 3.75 0 
C 3.75 -0.994512 3.354876 -1.948425 2.65165 -2.65165 
C 1.948425 -3.354876 0.994512 -3.75 0 -3.75 
C -0.994512 -3.75 -1.948425 -3.354876 -2.65165 -2.65165 
C -3.354876 -1.948425 -3.75 -0.994512 -3.75 0 
C -3.75 0.994512 -3.354876 1.948425 -2.65165 2.65165 
C -1.948425 3.354876 -0.994512 3.75 0 3.75 
z
" id="mc36f087151" style="stroke:#f3e51e;stroke-opacity:0.65;"/>
    </defs>
    <g clip-path="url(#p79ea99e45d)">
     <use style="fill:#f3e51e;fill-opacity:0.65;stroke:#f3e51e;stroke-opacity:0.65;" x="280.902309" xlink:href="#mc36f087151" y="268.578531"/>
    </g>
   </g>
   <g id="line2d_22">
    <path clip-path="url(#p79ea99e45d)" d="M 144.189557 273.533692 
" style="fill:none;stroke:#95d73f;stroke-linecap:round;stroke-opacity:0.65;stroke-width:1.5;"/>
    <defs>
     <path d="M 0 3.75 
C 0.994512 3.75 1.948425 3.354876 2.65165 2.65165 
C 3.354876 1.948425 3.75 0.994512 3.75 0 
C 3.75 -0.994512 3.354876 -1.948425 2.65165 -2.65165 
C 1.948425 -3.354876 0.994512 -3.75 0 -3.75 
C -0.994512 -3.75 -1.948425 -3.354876 -2.65165 -2.65165 
C -3.354876 -1.948425 -3.75 -0.994512 -3.75 0 
C -3.75 0.994512 -3.354876 1.948425 -2.65165 2.65165 
C -1.948425 3.354876 -0.994512 3.75 0 3.75 
z
" id="meac22acdf7" style="stroke:#95d73f;stroke-opacity:0.65;"/>
    </defs>
    <g clip-path="url(#p79ea99e45d)">
     <use style="fill:#95d73f;fill-opacity:0.65;stroke:#95d73f;stroke-opacity:0.65;" x="144.189557" xlink:href="#meac22acdf7" y="273.533692"/>
    </g>
   </g>
   <g id="line2d_23">
    <path clip-path="url(#p79ea99e45d)" d="M 219.965932 273.530167 
" style="fill:none;stroke:#70ce56;stroke-linecap:round;stroke-opacity:0.65;stroke-width:1.5;"/>
    <defs>
     <path d="M 0 3.75 
C 0.994512 3.75 1.948425 3.354876 2.65165 2.65165 
C 3.354876 1.948425 3.75 0.994512 3.75 0 
C 3.75 -0.994512 3.354876 -1.948425 2.65165 -2.65165 
C 1.948425 -3.354876 0.994512 -3.75 0 -3.75 
C -0.994512 -3.75 -1.948425 -3.354876 -2.65165 -2.65165 
C -3.354876 -1.948425 -3.75 -0.994512 -3.75 0 
C -3.75 0.994512 -3.354876 1.948425 -2.65165 2.65165 
C -1.948425 3.354876 -0.994512 3.75 0 3.75 
z
" id="m6eb941e592" style="stroke:#70ce56;stroke-opacity:0.65;"/>
    </defs>
    <g clip-path="url(#p79ea99e45d)">
     <use style="fill:#70ce56;fill-opacity:0.65;stroke:#70ce56;stroke-opacity:0.65;" x="219.965932" xlink:href="#m6eb941e592" y="273.530167"/>
    </g>
   </g>
   <g id="line2d_24">
    <path clip-path="url(#p79ea99e45d)" d="M 424.338321 56.587774 
" style="fill:none;stroke:#6dce58;stroke-linecap:round;stroke-opacity:0.65;stroke-width:1.5;"/>
    <defs>
     <path d="M 0 3.75 
C 0.994512 3.75 1.948425 3.354876 2.65165 2.65165 
C 3.354876 1.948425 3.75 0.994512 3.75 0 
C 3.75 -0.994512 3.354876 -1.948425 2.65165 -2.65165 
C 1.948425 -3.354876 0.994512 -3.75 0 -3.75 
C -0.994512 -3.75 -1.948425 -3.354876 -2.65165 -2.65165 
C -3.354876 -1.948425 -3.75 -0.994512 -3.75 0 
C -3.75 0.994512 -3.354876 1.948425 -2.65165 2.65165 
C -1.948425 3.354876 -0.994512 3.75 0 3.75 
z
" id="m06ea4a065e" style="stroke:#6dce58;stroke-opacity:0.65;"/>
    </defs>
    <g clip-path="url(#p79ea99e45d)">
     <use style="fill:#6dce58;fill-opacity:0.65;stroke:#6dce58;stroke-opacity:0.65;" x="424.338321" xlink:href="#m06ea4a065e" y="56.587774"/>
    </g>
   </g>
   <g id="line2d_25">
    <path clip-path="url(#p79ea99e45d)" d="M 224.646705 226.657947 
" style="fill:none;stroke:#cfe11c;stroke-linecap:round;stroke-opacity:0.65;stroke-width:1.5;"/>
    <defs>
     <path d="M 0 3.75 
C 0.994512 3.75 1.948425 3.354876 2.65165 2.65165 
C 3.354876 1.948425 3.75 0.994512 3.75 0 
C 3.75 -0.994512 3.354876 -1.948425 2.65165 -2.65165 
C 1.948425 -3.354876 0.994512 -3.75 0 -3.75 
C -0.994512 -3.75 -1.948425 -3.354876 -2.65165 -2.65165 
C -3.354876 -1.948425 -3.75 -0.994512 -3.75 0 
C -3.75 0.994512 -3.354876 1.948425 -2.65165 2.65165 
C -1.948425 3.354876 -0.994512 3.75 0 3.75 
z
" id="mebb4cb6568" style="stroke:#cfe11c;stroke-opacity:0.65;"/>
    </defs>
    <g clip-path="url(#p79ea99e45d)">
     <use style="fill:#cfe11c;fill-opacity:0.65;stroke:#cfe11c;stroke-opacity:0.65;" x="224.646705" xlink:href="#mebb4cb6568" y="226.657947"/>
    </g>
   </g>
   <g id="line2d_26">
    <path clip-path="url(#p79ea99e45d)" d="M 290.948512 272.259265 
" style="fill:none;stroke:#29798e;stroke-linecap:round;stroke-opacity:0.65;stroke-width:1.5;"/>
    <defs>
     <path d="M 0 3.75 
C 0.994512 3.75 1.948425 3.354876 2.65165 2.65165 
C 3.354876 1.948425 3.75 0.994512 3.75 0 
C 3.75 -0.994512 3.354876 -1.948425 2.65165 -2.65165 
C 1.948425 -3.354876 0.994512 -3.75 0 -3.75 
C -0.994512 -3.75 -1.948425 -3.354876 -2.65165 -2.65165 
C -3.354876 -1.948425 -3.75 -0.994512 -3.75 0 
C -3.75 0.994512 -3.354876 1.948425 -2.65165 2.65165 
C -1.948425 3.354876 -0.994512 3.75 0 3.75 
z
" id="m6df09a6b88" style="stroke:#29798e;stroke-opacity:0.65;"/>
    </defs>
    <g clip-path="url(#p79ea99e45d)">
     <use style="fill:#29798e;fill-opacity:0.65;stroke:#29798e;stroke-opacity:0.65;" x="290.948512" xlink:href="#m6df09a6b88" y="272.259265"/>
    </g>
   </g>
   <g id="line2d_27">
    <path clip-path="url(#p79ea99e45d)" d="M 352.358932 84.280259 
" style="fill:none;stroke:#9dd93a;stroke-linecap:round;stroke-opacity:0.65;stroke-width:1.5;"/>
    <defs>
     <path d="M 0 3.75 
C 0.994512 3.75 1.948425 3.354876 2.65165 2.65165 
C 3.354876 1.948425 3.75 0.994512 3.75 0 
C 3.75 -0.994512 3.354876 -1.948425 2.65165 -2.65165 
C 1.948425 -3.354876 0.994512 -3.75 0 -3.75 
C -0.994512 -3.75 -1.948425 -3.354876 -2.65165 -2.65165 
C -3.354876 -1.948425 -3.75 -0.994512 -3.75 0 
C -3.75 0.994512 -3.354876 1.948425 -2.65165 2.65165 
C -1.948425 3.354876 -0.994512 3.75 0 3.75 
z
" id="ma067e5473f" style="stroke:#9dd93a;stroke-opacity:0.65;"/>
    </defs>
    <g clip-path="url(#p79ea99e45d)">
     <use style="fill:#9dd93a;fill-opacity:0.65;stroke:#9dd93a;stroke-opacity:0.65;" x="352.358932" xlink:href="#ma067e5473f" y="84.280259"/>
    </g>
   </g>
   <g id="line2d_28">
    <path clip-path="url(#p79ea99e45d)" d="M 214.963613 273.499121 
" style="fill:none;stroke:#1e9e88;stroke-linecap:round;stroke-opacity:0.65;stroke-width:1.5;"/>
    <defs>
     <path d="M 0 3.75 
C 0.994512 3.75 1.948425 3.354876 2.65165 2.65165 
C 3.354876 1.948425 3.75 0.994512 3.75 0 
C 3.75 -0.994512 3.354876 -1.948425 2.65165 -2.65165 
C 1.948425 -3.354876 0.994512 -3.75 0 -3.75 
C -0.994512 -3.75 -1.948425 -3.354876 -2.65165 -2.65165 
C -3.354876 -1.948425 -3.75 -0.994512 -3.75 0 
C -3.75 0.994512 -3.354876 1.948425 -2.65165 2.65165 
C -1.948425 3.354876 -0.994512 3.75 0 3.75 
z
" id="m45bc76faa4" style="stroke:#1e9e88;stroke-opacity:0.65;"/>
    </defs>
    <g clip-path="url(#p79ea99e45d)">
     <use style="fill:#1e9e88;fill-opacity:0.65;stroke:#1e9e88;stroke-opacity:0.65;" x="214.963613" xlink:href="#m45bc76faa4" y="273.499121"/>
    </g>
   </g>
   <g id="line2d_29">
    <path clip-path="url(#p79ea99e45d)" d="M 290.245822 273.373744 
" style="fill:none;stroke:#fde724;stroke-linecap:round;stroke-opacity:0.65;stroke-width:1.5;"/>
    <g clip-path="url(#p79ea99e45d)">
     <use style="fill:#fde724;fill-opacity:0.65;stroke:#fde724;stroke-opacity:0.65;" x="290.245822" xlink:href="#md598a61507" y="273.373744"/>
    </g>
   </g>
   <g id="line2d_30">
    <path clip-path="url(#p79ea99e45d)" d="M 290.772645 268.578531 
" style="fill:none;stroke:#25ab81;stroke-linecap:round;stroke-opacity:0.65;stroke-width:1.5;"/>
    <defs>
     <path d="M 0 3.75 
C 0.994512 3.75 1.948425 3.354876 2.65165 2.65165 
C 3.354876 1.948425 3.75 0.994512 3.75 0 
C 3.75 -0.994512 3.354876 -1.948425 2.65165 -2.65165 
C 1.948425 -3.354876 0.994512 -3.75 0 -3.75 
C -0.994512 -3.75 -1.948425 -3.354876 -2.65165 -2.65165 
C -3.354876 -1.948425 -3.75 -0.994512 -3.75 0 
C -3.75 0.994512 -3.354876 1.948425 -2.65165 2.65165 
C -1.948425 3.354876 -0.994512 3.75 0 3.75 
z
" id="mc7162d0ea1" style="stroke:#25ab81;stroke-opacity:0.65;"/>
    </defs>
    <g clip-path="url(#p79ea99e45d)">
     <use style="fill:#25ab81;fill-opacity:0.65;stroke:#25ab81;stroke-opacity:0.65;" x="290.772645" xlink:href="#mc7162d0ea1" y="268.578531"/>
    </g>
   </g>
   <g id="line2d_31">
    <path clip-path="url(#p79ea99e45d)" d="M 354.20066 267.799939 
" style="fill:none;stroke:#67cc5c;stroke-linecap:round;stroke-opacity:0.65;stroke-width:1.5;"/>
    <defs>
     <path d="M 0 3.75 
C 0.994512 3.75 1.948425 3.354876 2.65165 2.65165 
C 3.354876 1.948425 3.75 0.994512 3.75 0 
C 3.75 -0.994512 3.354876 -1.948425 2.65165 -2.65165 
C 1.948425 -3.354876 0.994512 -3.75 0 -3.75 
C -0.994512 -3.75 -1.948425 -3.354876 -2.65165 -2.65165 
C -3.354876 -1.948425 -3.75 -0.994512 -3.75 0 
C -3.75 0.994512 -3.354876 1.948425 -2.65165 2.65165 
C -1.948425 3.354876 -0.994512 3.75 0 3.75 
z
" id="meb64c14c70" style="stroke:#67cc5c;stroke-opacity:0.65;"/>
    </defs>
    <g clip-path="url(#p79ea99e45d)">
     <use style="fill:#67cc5c;fill-opacity:0.65;stroke:#67cc5c;stroke-opacity:0.65;" x="354.20066" xlink:href="#meb64c14c70" y="267.799939"/>
    </g>
   </g>
   <g id="line2d_32">
    <path clip-path="url(#p79ea99e45d)" d="M 287.194797 273.373744 
" style="fill:none;stroke:#90d643;stroke-linecap:round;stroke-opacity:0.65;stroke-width:1.5;"/>
    <g clip-path="url(#p79ea99e45d)">
     <use style="fill:#90d643;fill-opacity:0.65;stroke:#90d643;stroke-opacity:0.65;" x="287.194797" xlink:href="#me8b3e082ce" y="273.373744"/>
    </g>
   </g>
   <g id="line2d_33">
    <path clip-path="url(#p79ea99e45d)" d="M 291.99997 242.280827 
" style="fill:none;stroke:#a2da37;stroke-linecap:round;stroke-opacity:0.65;stroke-width:1.5;"/>
    <defs>
     <path d="M 0 3.75 
C 0.994512 3.75 1.948425 3.354876 2.65165 2.65165 
C 3.354876 1.948425 3.75 0.994512 3.75 0 
C 3.75 -0.994512 3.354876 -1.948425 2.65165 -2.65165 
C 1.948425 -3.354876 0.994512 -3.75 0 -3.75 
C -0.994512 -3.75 -1.948425 -3.354876 -2.65165 -2.65165 
C -3.354876 -1.948425 -3.75 -0.994512 -3.75 0 
C -3.75 0.994512 -3.354876 1.948425 -2.65165 2.65165 
C -1.948425 3.354876 -0.994512 3.75 0 3.75 
z
" id="m2b1410968a" style="stroke:#a2da37;stroke-opacity:0.65;"/>
    </defs>
    <g clip-path="url(#p79ea99e45d)">
     <use style="fill:#a2da37;fill-opacity:0.65;stroke:#a2da37;stroke-opacity:0.65;" x="291.99997" xlink:href="#m2b1410968a" y="242.280827"/>
    </g>
   </g>
   <g id="line2d_34">
    <path clip-path="url(#p79ea99e45d)" d="M 212.047088 260.553339 
" style="fill:none;stroke:#8dd644;stroke-linecap:round;stroke-opacity:0.65;stroke-width:1.5;"/>
    <defs>
     <path d="M 0 3.75 
C 0.994512 3.75 1.948425 3.354876 2.65165 2.65165 
C 3.354876 1.948425 3.75 0.994512 3.75 0 
C 3.75 -0.994512 3.354876 -1.948425 2.65165 -2.65165 
C 1.948425 -3.354876 0.994512 -3.75 0 -3.75 
C -0.994512 -3.75 -1.948425 -3.354876 -2.65165 -2.65165 
C -3.354876 -1.948425 -3.75 -0.994512 -3.75 0 
C -3.75 0.994512 -3.354876 1.948425 -2.65165 2.65165 
C -1.948425 3.354876 -0.994512 3.75 0 3.75 
z
" id="m4f38025592" style="stroke:#8dd644;stroke-opacity:0.65;"/>
    </defs>
    <g clip-path="url(#p79ea99e45d)">
     <use style="fill:#8dd644;fill-opacity:0.65;stroke:#8dd644;stroke-opacity:0.65;" x="212.047088" xlink:href="#m4f38025592" y="260.553339"/>
    </g>
   </g>
   <g id="line2d_35">
    <path clip-path="url(#p79ea99e45d)" d="M 286.973387 255.247397 
" style="fill:none;stroke:#e4e318;stroke-linecap:round;stroke-opacity:0.65;stroke-width:1.5;"/>
    <defs>
     <path d="M 0 3.75 
C 0.994512 3.75 1.948425 3.354876 2.65165 2.65165 
C 3.354876 1.948425 3.75 0.994512 3.75 0 
C 3.75 -0.994512 3.354876 -1.948425 2.65165 -2.65165 
C 1.948425 -3.354876 0.994512 -3.75 0 -3.75 
C -0.994512 -3.75 -1.948425 -3.354876 -2.65165 -2.65165 
C -3.354876 -1.948425 -3.75 -0.994512 -3.75 0 
C -3.75 0.994512 -3.354876 1.948425 -2.65165 2.65165 
C -1.948425 3.354876 -0.994512 3.75 0 3.75 
z
" id="m627882f647" style="stroke:#e4e318;stroke-opacity:0.65;"/>
    </defs>
    <g clip-path="url(#p79ea99e45d)">
     <use style="fill:#e4e318;fill-opacity:0.65;stroke:#e4e318;stroke-opacity:0.65;" x="286.973387" xlink:href="#m627882f647" y="255.247397"/>
    </g>
   </g>
   <g id="line2d_36">
    <path clip-path="url(#p79ea99e45d)" d="M 349.187688 84.280259 
" style="fill:none;stroke:#eee51b;stroke-linecap:round;stroke-opacity:0.65;stroke-width:1.5;"/>
    <g clip-path="url(#p79ea99e45d)">
     <use style="fill:#eee51b;fill-opacity:0.65;stroke:#eee51b;stroke-opacity:0.65;" x="349.187688" xlink:href="#m52f67c8aa8" y="84.280259"/>
    </g>
   </g>
   <g id="line2d_37">
    <path clip-path="url(#p79ea99e45d)" d="M 281.9448 255.247397 
" style="fill:none;stroke:#e4e318;stroke-linecap:round;stroke-opacity:0.65;stroke-width:1.5;"/>
    <g clip-path="url(#p79ea99e45d)">
     <use style="fill:#e4e318;fill-opacity:0.65;stroke:#e4e318;stroke-opacity:0.65;" x="281.9448" xlink:href="#m627882f647" y="255.247397"/>
    </g>
   </g>
   <g id="line2d_38">
    <path clip-path="url(#p79ea99e45d)" d="M 349.592393 267.799939 
" style="fill:none;stroke:#355d8c;stroke-linecap:round;stroke-opacity:0.65;stroke-width:1.5;"/>
    <defs>
     <path d="M 0 3.75 
C 0.994512 3.75 1.948425 3.354876 2.65165 2.65165 
C 3.354876 1.948425 3.75 0.994512 3.75 0 
C 3.75 -0.994512 3.354876 -1.948425 2.65165 -2.65165 
C 1.948425 -3.354876 0.994512 -3.75 0 -3.75 
C -0.994512 -3.75 -1.948425 -3.354876 -2.65165 -2.65165 
C -3.354876 -1.948425 -3.75 -0.994512 -3.75 0 
C -3.75 0.994512 -3.354876 1.948425 -2.65165 2.65165 
C -1.948425 3.354876 -0.994512 3.75 0 3.75 
z
" id="m1e4dea2cf4" style="stroke:#355d8c;stroke-opacity:0.65;"/>
    </defs>
    <g clip-path="url(#p79ea99e45d)">
     <use style="fill:#355d8c;fill-opacity:0.65;stroke:#355d8c;stroke-opacity:0.65;" x="349.592393" xlink:href="#m1e4dea2cf4" y="267.799939"/>
    </g>
   </g>
   <g id="line2d_39">
    <path clip-path="url(#p79ea99e45d)" d="M 359.032769 267.799939 
" style="fill:none;stroke:#23888d;stroke-linecap:round;stroke-opacity:0.65;stroke-width:1.5;"/>
    <defs>
     <path d="M 0 3.75 
C 0.994512 3.75 1.948425 3.354876 2.65165 2.65165 
C 3.354876 1.948425 3.75 0.994512 3.75 0 
C 3.75 -0.994512 3.354876 -1.948425 2.65165 -2.65165 
C 1.948425 -3.354876 0.994512 -3.75 0 -3.75 
C -0.994512 -3.75 -1.948425 -3.354876 -2.65165 -2.65165 
C -3.354876 -1.948425 -3.75 -0.994512 -3.75 0 
C -3.75 0.994512 -3.354876 1.948425 -2.65165 2.65165 
C -1.948425 3.354876 -0.994512 3.75 0 3.75 
z
" id="mb54957f630" style="stroke:#23888d;stroke-opacity:0.65;"/>
    </defs>
    <g clip-path="url(#p79ea99e45d)">
     <use style="fill:#23888d;fill-opacity:0.65;stroke:#23888d;stroke-opacity:0.65;" x="359.032769" xlink:href="#mb54957f630" y="267.799939"/>
    </g>
   </g>
   <g id="line2d_40">
    <path clip-path="url(#p79ea99e45d)" d="M 347.865163 84.280259 
" style="fill:none;stroke:#e4e318;stroke-linecap:round;stroke-opacity:0.65;stroke-width:1.5;"/>
    <g clip-path="url(#p79ea99e45d)">
     <use style="fill:#e4e318;fill-opacity:0.65;stroke:#e4e318;stroke-opacity:0.65;" x="347.865163" xlink:href="#m627882f647" y="84.280259"/>
    </g>
   </g>
   <g id="line2d_41">
    <path clip-path="url(#p79ea99e45d)" d="M 351.397034 267.799939 
" style="fill:none;stroke:#8bd546;stroke-linecap:round;stroke-opacity:0.65;stroke-width:1.5;"/>
    <defs>
     <path d="M 0 3.75 
C 0.994512 3.75 1.948425 3.354876 2.65165 2.65165 
C 3.354876 1.948425 3.75 0.994512 3.75 0 
C 3.75 -0.994512 3.354876 -1.948425 2.65165 -2.65165 
C 1.948425 -3.354876 0.994512 -3.75 0 -3.75 
C -0.994512 -3.75 -1.948425 -3.354876 -2.65165 -2.65165 
C -3.354876 -1.948425 -3.75 -0.994512 -3.75 0 
C -3.75 0.994512 -3.354876 1.948425 -2.65165 2.65165 
C -1.948425 3.354876 -0.994512 3.75 0 3.75 
z
" id="m152021ef0f" style="stroke:#8bd546;stroke-opacity:0.65;"/>
    </defs>
    <g clip-path="url(#p79ea99e45d)">
     <use style="fill:#8bd546;fill-opacity:0.65;stroke:#8bd546;stroke-opacity:0.65;" x="351.397034" xlink:href="#m152021ef0f" y="267.799939"/>
    </g>
   </g>
   <g id="line2d_42">
    <path clip-path="url(#p79ea99e45d)" d="M 143.817515 273.520533 
" style="fill:none;stroke:#dce218;stroke-linecap:round;stroke-opacity:0.65;stroke-width:1.5;"/>
    <defs>
     <path d="M 0 3.75 
C 0.994512 3.75 1.948425 3.354876 2.65165 2.65165 
C 3.354876 1.948425 3.75 0.994512 3.75 0 
C 3.75 -0.994512 3.354876 -1.948425 2.65165 -2.65165 
C 1.948425 -3.354876 0.994512 -3.75 0 -3.75 
C -0.994512 -3.75 -1.948425 -3.354876 -2.65165 -2.65165 
C -3.354876 -1.948425 -3.75 -0.994512 -3.75 0 
C -3.75 0.994512 -3.354876 1.948425 -2.65165 2.65165 
C -1.948425 3.354876 -0.994512 3.75 0 3.75 
z
" id="md024466963" style="stroke:#dce218;stroke-opacity:0.65;"/>
    </defs>
    <g clip-path="url(#p79ea99e45d)">
     <use style="fill:#dce218;fill-opacity:0.65;stroke:#dce218;stroke-opacity:0.65;" x="143.817515" xlink:href="#md024466963" y="273.520533"/>
    </g>
   </g>
   <g id="line2d_43">
    <path clip-path="url(#p79ea99e45d)" d="M 357.267183 84.280259 
" style="fill:none;stroke:#228b8d;stroke-linecap:round;stroke-opacity:0.65;stroke-width:1.5;"/>
    <defs>
     <path d="M 0 3.75 
C 0.994512 3.75 1.948425 3.354876 2.65165 2.65165 
C 3.354876 1.948425 3.75 0.994512 3.75 0 
C 3.75 -0.994512 3.354876 -1.948425 2.65165 -2.65165 
C 1.948425 -3.354876 0.994512 -3.75 0 -3.75 
C -0.994512 -3.75 -1.948425 -3.354876 -2.65165 -2.65165 
C -3.354876 -1.948425 -3.75 -0.994512 -3.75 0 
C -3.75 0.994512 -3.354876 1.948425 -2.65165 2.65165 
C -1.948425 3.354876 -0.994512 3.75 0 3.75 
z
" id="md4af559501" style="stroke:#228b8d;stroke-opacity:0.65;"/>
    </defs>
    <g clip-path="url(#p79ea99e45d)">
     <use style="fill:#228b8d;fill-opacity:0.65;stroke:#228b8d;stroke-opacity:0.65;" x="357.267183" xlink:href="#md4af559501" y="84.280259"/>
    </g>
   </g>
   <g id="line2d_44">
    <path clip-path="url(#p79ea99e45d)" d="M 213.113176 260.553339 
" style="fill:none;stroke:#4bc26c;stroke-linecap:round;stroke-opacity:0.65;stroke-width:1.5;"/>
    <defs>
     <path d="M 0 3.75 
C 0.994512 3.75 1.948425 3.354876 2.65165 2.65165 
C 3.354876 1.948425 3.75 0.994512 3.75 0 
C 3.75 -0.994512 3.354876 -1.948425 2.65165 -2.65165 
C 1.948425 -3.354876 0.994512 -3.75 0 -3.75 
C -0.994512 -3.75 -1.948425 -3.354876 -2.65165 -2.65165 
C -3.354876 -1.948425 -3.75 -0.994512 -3.75 0 
C -3.75 0.994512 -3.354876 1.948425 -2.65165 2.65165 
C -1.948425 3.354876 -0.994512 3.75 0 3.75 
z
" id="m0dc3fa45fd" style="stroke:#4bc26c;stroke-opacity:0.65;"/>
    </defs>
    <g clip-path="url(#p79ea99e45d)">
     <use style="fill:#4bc26c;fill-opacity:0.65;stroke:#4bc26c;stroke-opacity:0.65;" x="213.113176" xlink:href="#m0dc3fa45fd" y="260.553339"/>
    </g>
   </g>
   <g id="line2d_45">
    <path clip-path="url(#p79ea99e45d)" d="M 418.443338 56.587774 
" style="fill:none;stroke:#92d741;stroke-linecap:round;stroke-opacity:0.65;stroke-width:1.5;"/>
    <defs>
     <path d="M 0 3.75 
C 0.994512 3.75 1.948425 3.354876 2.65165 2.65165 
C 3.354876 1.948425 3.75 0.994512 3.75 0 
C 3.75 -0.994512 3.354876 -1.948425 2.65165 -2.65165 
C 1.948425 -3.354876 0.994512 -3.75 0 -3.75 
C -0.994512 -3.75 -1.948425 -3.354876 -2.65165 -2.65165 
C -3.354876 -1.948425 -3.75 -0.994512 -3.75 0 
C -3.75 0.994512 -3.354876 1.948425 -2.65165 2.65165 
C -1.948425 3.354876 -0.994512 3.75 0 3.75 
z
" id="md0a719a34d" style="stroke:#92d741;stroke-opacity:0.65;"/>
    </defs>
    <g clip-path="url(#p79ea99e45d)">
     <use style="fill:#92d741;fill-opacity:0.65;stroke:#92d741;stroke-opacity:0.65;" x="418.443338" xlink:href="#md0a719a34d" y="56.587774"/>
    </g>
   </g>
   <g id="line2d_46">
    <path clip-path="url(#p79ea99e45d)" d="M 83.265799 273.16973 
" style="fill:none;stroke:#443982;stroke-linecap:round;stroke-opacity:0.65;stroke-width:1.5;"/>
    <defs>
     <path d="M 0 3.75 
C 0.994512 3.75 1.948425 3.354876 2.65165 2.65165 
C 3.354876 1.948425 3.75 0.994512 3.75 0 
C 3.75 -0.994512 3.354876 -1.948425 2.65165 -2.65165 
C 1.948425 -3.354876 0.994512 -3.75 0 -3.75 
C -0.994512 -3.75 -1.948425 -3.354876 -2.65165 -2.65165 
C -3.354876 -1.948425 -3.75 -0.994512 -3.75 0 
C -3.75 0.994512 -3.354876 1.948425 -2.65165 2.65165 
C -1.948425 3.354876 -0.994512 3.75 0 3.75 
z
" id="meb2c3582b0" style="stroke:#443982;stroke-opacity:0.65;"/>
    </defs>
    <g clip-path="url(#p79ea99e45d)">
     <use style="fill:#443982;fill-opacity:0.65;stroke:#443982;stroke-opacity:0.65;" x="83.265799" xlink:href="#meb2c3582b0" y="273.16973"/>
    </g>
   </g>
   <g id="line2d_47">
    <path clip-path="url(#p79ea99e45d)" d="M 353.20421 84.280259 
" style="fill:none;stroke:#2cb17d;stroke-linecap:round;stroke-opacity:0.65;stroke-width:1.5;"/>
    <defs>
     <path d="M 0 3.75 
C 0.994512 3.75 1.948425 3.354876 2.65165 2.65165 
C 3.354876 1.948425 3.75 0.994512 3.75 0 
C 3.75 -0.994512 3.354876 -1.948425 2.65165 -2.65165 
C 1.948425 -3.354876 0.994512 -3.75 0 -3.75 
C -0.994512 -3.75 -1.948425 -3.354876 -2.65165 -2.65165 
C -3.354876 -1.948425 -3.75 -0.994512 -3.75 0 
C -3.75 0.994512 -3.354876 1.948425 -2.65165 2.65165 
C -1.948425 3.354876 -0.994512 3.75 0 3.75 
z
" id="mebe649b3b6" style="stroke:#2cb17d;stroke-opacity:0.65;"/>
    </defs>
    <g clip-path="url(#p79ea99e45d)">
     <use style="fill:#2cb17d;fill-opacity:0.65;stroke:#2cb17d;stroke-opacity:0.65;" x="353.20421" xlink:href="#mebe649b3b6" y="84.280259"/>
    </g>
   </g>
   <g id="line2d_48">
    <path clip-path="url(#p79ea99e45d)" d="M 143.386286 272.581574 
" style="fill:none;stroke:#d4e11a;stroke-linecap:round;stroke-opacity:0.65;stroke-width:1.5;"/>
    <defs>
     <path d="M 0 3.75 
C 0.994512 3.75 1.948425 3.354876 2.65165 2.65165 
C 3.354876 1.948425 3.75 0.994512 3.75 0 
C 3.75 -0.994512 3.354876 -1.948425 2.65165 -2.65165 
C 1.948425 -3.354876 0.994512 -3.75 0 -3.75 
C -0.994512 -3.75 -1.948425 -3.354876 -2.65165 -2.65165 
C -3.354876 -1.948425 -3.75 -0.994512 -3.75 0 
C -3.75 0.994512 -3.354876 1.948425 -2.65165 2.65165 
C -1.948425 3.354876 -0.994512 3.75 0 3.75 
z
" id="mc2c434bad9" style="stroke:#d4e11a;stroke-opacity:0.65;"/>
    </defs>
    <g clip-path="url(#p79ea99e45d)">
     <use style="fill:#d4e11a;fill-opacity:0.65;stroke:#d4e11a;stroke-opacity:0.65;" x="143.386286" xlink:href="#mc2c434bad9" y="272.581574"/>
    </g>
   </g>
   <g id="line2d_49">
    <path clip-path="url(#p79ea99e45d)" d="M 420.855553 56.587774 
" style="fill:none;stroke:#afdc2e;stroke-linecap:round;stroke-opacity:0.65;stroke-width:1.5;"/>
    <defs>
     <path d="M 0 3.75 
C 0.994512 3.75 1.948425 3.354876 2.65165 2.65165 
C 3.354876 1.948425 3.75 0.994512 3.75 0 
C 3.75 -0.994512 3.354876 -1.948425 2.65165 -2.65165 
C 1.948425 -3.354876 0.994512 -3.75 0 -3.75 
C -0.994512 -3.75 -1.948425 -3.354876 -2.65165 -2.65165 
C -3.354876 -1.948425 -3.75 -0.994512 -3.75 0 
C -3.75 0.994512 -3.354876 1.948425 -2.65165 2.65165 
C -1.948425 3.354876 -0.994512 3.75 0 3.75 
z
" id="m114dc8b0fb" style="stroke:#afdc2e;stroke-opacity:0.65;"/>
    </defs>
    <g clip-path="url(#p79ea99e45d)">
     <use style="fill:#afdc2e;fill-opacity:0.65;stroke:#afdc2e;stroke-opacity:0.65;" x="420.855553" xlink:href="#m114dc8b0fb" y="56.587774"/>
    </g>
   </g>
   <g id="line2d_50">
    <path clip-path="url(#p79ea99e45d)" d="M 78.765463 273.16973 
" style="fill:none;stroke:#92d741;stroke-linecap:round;stroke-opacity:0.65;stroke-width:1.5;"/>
    <g clip-path="url(#p79ea99e45d)">
     <use style="fill:#92d741;fill-opacity:0.65;stroke:#92d741;stroke-opacity:0.65;" x="78.765463" xlink:href="#md0a719a34d" y="273.16973"/>
    </g>
   </g>
   <g id="line2d_51">
    <path clip-path="url(#p79ea99e45d)" d="M 355.891765 215.194281 
" style="fill:none;stroke:#cde01d;stroke-linecap:round;stroke-opacity:0.65;stroke-width:1.5;"/>
    <g clip-path="url(#p79ea99e45d)">
     <use style="fill:#cde01d;fill-opacity:0.65;stroke:#cde01d;stroke-opacity:0.65;" x="355.891765" xlink:href="#mcfccf6d725" y="215.194281"/>
    </g>
   </g>
   <g id="line2d_52">
    <path clip-path="url(#p79ea99e45d)" d="M 213.498752 273.516834 
" style="fill:none;stroke:#404487;stroke-linecap:round;stroke-opacity:0.65;stroke-width:1.5;"/>
    <defs>
     <path d="M 0 3.75 
C 0.994512 3.75 1.948425 3.354876 2.65165 2.65165 
C 3.354876 1.948425 3.75 0.994512 3.75 0 
C 3.75 -0.994512 3.354876 -1.948425 2.65165 -2.65165 
C 1.948425 -3.354876 0.994512 -3.75 0 -3.75 
C -0.994512 -3.75 -1.948425 -3.354876 -2.65165 -2.65165 
C -3.354876 -1.948425 -3.75 -0.994512 -3.75 0 
C -3.75 0.994512 -3.354876 1.948425 -2.65165 2.65165 
C -1.948425 3.354876 -0.994512 3.75 0 3.75 
z
" id="m1dced69b6a" style="stroke:#404487;stroke-opacity:0.65;"/>
    </defs>
    <g clip-path="url(#p79ea99e45d)">
     <use style="fill:#404487;fill-opacity:0.65;stroke:#404487;stroke-opacity:0.65;" x="213.498752" xlink:href="#m1dced69b6a" y="273.516834"/>
    </g>
   </g>
   <g id="line2d_53">
    <path clip-path="url(#p79ea99e45d)" d="M 355.83179 215.194281 
" style="fill:none;stroke:#cde01d;stroke-linecap:round;stroke-opacity:0.65;stroke-width:1.5;"/>
    <g clip-path="url(#p79ea99e45d)">
     <use style="fill:#cde01d;fill-opacity:0.65;stroke:#cde01d;stroke-opacity:0.65;" x="355.83179" xlink:href="#mcfccf6d725" y="215.194281"/>
    </g>
   </g>
   <g id="line2d_54">
    <path clip-path="url(#p79ea99e45d)" d="M 354.966369 237.601704 
" style="fill:none;stroke:#90d643;stroke-linecap:round;stroke-opacity:0.65;stroke-width:1.5;"/>
    <g clip-path="url(#p79ea99e45d)">
     <use style="fill:#90d643;fill-opacity:0.65;stroke:#90d643;stroke-opacity:0.65;" x="354.966369" xlink:href="#me8b3e082ce" y="237.601704"/>
    </g>
   </g>
   <g id="line2d_55">
    <path clip-path="url(#p79ea99e45d)" d="M 349.169676 215.194281 
" style="fill:none;stroke:#86d449;stroke-linecap:round;stroke-opacity:0.65;stroke-width:1.5;"/>
    <defs>
     <path d="M 0 3.75 
C 0.994512 3.75 1.948425 3.354876 2.65165 2.65165 
C 3.354876 1.948425 3.75 0.994512 3.75 0 
C 3.75 -0.994512 3.354876 -1.948425 2.65165 -2.65165 
C 1.948425 -3.354876 0.994512 -3.75 0 -3.75 
C -0.994512 -3.75 -1.948425 -3.354876 -2.65165 -2.65165 
C -3.354876 -1.948425 -3.75 -0.994512 -3.75 0 
C -3.75 0.994512 -3.354876 1.948425 -2.65165 2.65165 
C -1.948425 3.354876 -0.994512 3.75 0 3.75 
z
" id="m6e31a6ad7e" style="stroke:#86d449;stroke-opacity:0.65;"/>
    </defs>
    <g clip-path="url(#p79ea99e45d)">
     <use style="fill:#86d449;fill-opacity:0.65;stroke:#86d449;stroke-opacity:0.65;" x="349.169676" xlink:href="#m6e31a6ad7e" y="215.194281"/>
    </g>
   </g>
   <g id="line2d_56">
    <path clip-path="url(#p79ea99e45d)" d="M 428.44488 56.587774 
" style="fill:none;stroke:#83d34b;stroke-linecap:round;stroke-opacity:0.65;stroke-width:1.5;"/>
    <defs>
     <path d="M 0 3.75 
C 0.994512 3.75 1.948425 3.354876 2.65165 2.65165 
C 3.354876 1.948425 3.75 0.994512 3.75 0 
C 3.75 -0.994512 3.354876 -1.948425 2.65165 -2.65165 
C 1.948425 -3.354876 0.994512 -3.75 0 -3.75 
C -0.994512 -3.75 -1.948425 -3.354876 -2.65165 -2.65165 
C -3.354876 -1.948425 -3.75 -0.994512 -3.75 0 
C -3.75 0.994512 -3.354876 1.948425 -2.65165 2.65165 
C -1.948425 3.354876 -0.994512 3.75 0 3.75 
z
" id="m6237d9237c" style="stroke:#83d34b;stroke-opacity:0.65;"/>
    </defs>
    <g clip-path="url(#p79ea99e45d)">
     <use style="fill:#83d34b;fill-opacity:0.65;stroke:#83d34b;stroke-opacity:0.65;" x="428.44488" xlink:href="#m6237d9237c" y="56.587774"/>
    </g>
   </g>
   <g id="line2d_57">
    <path clip-path="url(#p79ea99e45d)" d="M 216.163115 260.553339 
" style="fill:none;stroke:#a2da37;stroke-linecap:round;stroke-opacity:0.65;stroke-width:1.5;"/>
    <g clip-path="url(#p79ea99e45d)">
     <use style="fill:#a2da37;fill-opacity:0.65;stroke:#a2da37;stroke-opacity:0.65;" x="216.163115" xlink:href="#m2b1410968a" y="260.553339"/>
    </g>
   </g>
   <g id="line2d_58">
    <path clip-path="url(#p79ea99e45d)" d="M 425.946146 56.587774 
" style="fill:none;stroke:#67cc5c;stroke-linecap:round;stroke-opacity:0.65;stroke-width:1.5;"/>
    <g clip-path="url(#p79ea99e45d)">
     <use style="fill:#67cc5c;fill-opacity:0.65;stroke:#67cc5c;stroke-opacity:0.65;" x="425.946146" xlink:href="#meb64c14c70" y="56.587774"/>
    </g>
   </g>
   <g id="line2d_59">
    <path clip-path="url(#p79ea99e45d)" d="M 285.124496 273.373744 
" style="fill:none;stroke:#28ae7f;stroke-linecap:round;stroke-opacity:0.65;stroke-width:1.5;"/>
    <defs>
     <path d="M 0 3.75 
C 0.994512 3.75 1.948425 3.354876 2.65165 2.65165 
C 3.354876 1.948425 3.75 0.994512 3.75 0 
C 3.75 -0.994512 3.354876 -1.948425 2.65165 -2.65165 
C 1.948425 -3.354876 0.994512 -3.75 0 -3.75 
C -0.994512 -3.75 -1.948425 -3.354876 -2.65165 -2.65165 
C -3.354876 -1.948425 -3.75 -0.994512 -3.75 0 
C -3.75 0.994512 -3.354876 1.948425 -2.65165 2.65165 
C -1.948425 3.354876 -0.994512 3.75 0 3.75 
z
" id="mc1061c08e6" style="stroke:#28ae7f;stroke-opacity:0.65;"/>
    </defs>
    <g clip-path="url(#p79ea99e45d)">
     <use style="fill:#28ae7f;fill-opacity:0.65;stroke:#28ae7f;stroke-opacity:0.65;" x="285.124496" xlink:href="#mc1061c08e6" y="273.373744"/>
    </g>
   </g>
   <g id="line2d_60">
    <path clip-path="url(#p79ea99e45d)" d="M 349.044581 84.280259 
" style="fill:none;stroke:#eee51b;stroke-linecap:round;stroke-opacity:0.65;stroke-width:1.5;"/>
    <g clip-path="url(#p79ea99e45d)">
     <use style="fill:#eee51b;fill-opacity:0.65;stroke:#eee51b;stroke-opacity:0.65;" x="349.044581" xlink:href="#m52f67c8aa8" y="84.280259"/>
    </g>
   </g>
   <g id="line2d_61">
    <path clip-path="url(#p79ea99e45d)" d="M 223.125129 273.020821 
" style="fill:none;stroke:#a2da37;stroke-linecap:round;stroke-opacity:0.65;stroke-width:1.5;"/>
    <g clip-path="url(#p79ea99e45d)">
     <use style="fill:#a2da37;fill-opacity:0.65;stroke:#a2da37;stroke-opacity:0.65;" x="223.125129" xlink:href="#m2b1410968a" y="273.020821"/>
    </g>
   </g>
   <g id="line2d_62">
    <path clip-path="url(#p79ea99e45d)" d="M 220.662013 226.657947 
" style="fill:none;stroke:#cfe11c;stroke-linecap:round;stroke-opacity:0.65;stroke-width:1.5;"/>
    <g clip-path="url(#p79ea99e45d)">
     <use style="fill:#cfe11c;fill-opacity:0.65;stroke:#cfe11c;stroke-opacity:0.65;" x="220.662013" xlink:href="#mebb4cb6568" y="226.657947"/>
    </g>
   </g>
   <g id="line2d_63">
    <path clip-path="url(#p79ea99e45d)" d="M 223.218706 273.530167 
" style="fill:none;stroke:#21a685;stroke-linecap:round;stroke-opacity:0.65;stroke-width:1.5;"/>
    <defs>
     <path d="M 0 3.75 
C 0.994512 3.75 1.948425 3.354876 2.65165 2.65165 
C 3.354876 1.948425 3.75 0.994512 3.75 0 
C 3.75 -0.994512 3.354876 -1.948425 2.65165 -2.65165 
C 1.948425 -3.354876 0.994512 -3.75 0 -3.75 
C -0.994512 -3.75 -1.948425 -3.354876 -2.65165 -2.65165 
C -3.354876 -1.948425 -3.75 -0.994512 -3.75 0 
C -3.75 0.994512 -3.354876 1.948425 -2.65165 2.65165 
C -1.948425 3.354876 -0.994512 3.75 0 3.75 
z
" id="m62f19cbc6a" style="stroke:#21a685;stroke-opacity:0.65;"/>
    </defs>
    <g clip-path="url(#p79ea99e45d)">
     <use style="fill:#21a685;fill-opacity:0.65;stroke:#21a685;stroke-opacity:0.65;" x="223.218706" xlink:href="#m62f19cbc6a" y="273.530167"/>
    </g>
   </g>
   <g id="line2d_64">
    <path clip-path="url(#p79ea99e45d)" d="M 286.888077 272.259265 
" style="fill:none;stroke:#c5df21;stroke-linecap:round;stroke-opacity:0.65;stroke-width:1.5;"/>
    <defs>
     <path d="M 0 3.75 
C 0.994512 3.75 1.948425 3.354876 2.65165 2.65165 
C 3.354876 1.948425 3.75 0.994512 3.75 0 
C 3.75 -0.994512 3.354876 -1.948425 2.65165 -2.65165 
C 1.948425 -3.354876 0.994512 -3.75 0 -3.75 
C -0.994512 -3.75 -1.948425 -3.354876 -2.65165 -2.65165 
C -3.354876 -1.948425 -3.75 -0.994512 -3.75 0 
C -3.75 0.994512 -3.354876 1.948425 -2.65165 2.65165 
C -1.948425 3.354876 -0.994512 3.75 0 3.75 
z
" id="mb80a0c9e40" style="stroke:#c5df21;stroke-opacity:0.65;"/>
    </defs>
    <g clip-path="url(#p79ea99e45d)">
     <use style="fill:#c5df21;fill-opacity:0.65;stroke:#c5df21;stroke-opacity:0.65;" x="286.888077" xlink:href="#mb80a0c9e40" y="272.259265"/>
    </g>
   </g>
   <g id="line2d_65">
    <path clip-path="url(#p79ea99e45d)" d="M 349.823405 259.366388 
" style="fill:none;stroke:#86d449;stroke-linecap:round;stroke-opacity:0.65;stroke-width:1.5;"/>
    <g clip-path="url(#p79ea99e45d)">
     <use style="fill:#86d449;fill-opacity:0.65;stroke:#86d449;stroke-opacity:0.65;" x="349.823405" xlink:href="#m6e31a6ad7e" y="259.366388"/>
    </g>
   </g>
   <g id="line2d_66">
    <path clip-path="url(#p79ea99e45d)" d="M 426.991295 56.587774 
" style="fill:none;stroke:#6dce58;stroke-linecap:round;stroke-opacity:0.65;stroke-width:1.5;"/>
    <g clip-path="url(#p79ea99e45d)">
     <use style="fill:#6dce58;fill-opacity:0.65;stroke:#6dce58;stroke-opacity:0.65;" x="426.991295" xlink:href="#m06ea4a065e" y="56.587774"/>
    </g>
   </g>
   <g id="line2d_67">
    <path clip-path="url(#p79ea99e45d)" d="M 281.651968 273.395635 
" style="fill:none;stroke:#95d73f;stroke-linecap:round;stroke-opacity:0.65;stroke-width:1.5;"/>
    <g clip-path="url(#p79ea99e45d)">
     <use style="fill:#95d73f;fill-opacity:0.65;stroke:#95d73f;stroke-opacity:0.65;" x="281.651968" xlink:href="#meac22acdf7" y="273.395635"/>
    </g>
   </g>
   <g id="line2d_68">
    <path clip-path="url(#p79ea99e45d)" d="M 353.239242 84.280259 
" style="fill:none;stroke:#addc30;stroke-linecap:round;stroke-opacity:0.65;stroke-width:1.5;"/>
    <defs>
     <path d="M 0 3.75 
C 0.994512 3.75 1.948425 3.354876 2.65165 2.65165 
C 3.354876 1.948425 3.75 0.994512 3.75 0 
C 3.75 -0.994512 3.354876 -1.948425 2.65165 -2.65165 
C 1.948425 -3.354876 0.994512 -3.75 0 -3.75 
C -0.994512 -3.75 -1.948425 -3.354876 -2.65165 -2.65165 
C -3.354876 -1.948425 -3.75 -0.994512 -3.75 0 
C -3.75 0.994512 -3.354876 1.948425 -2.65165 2.65165 
C -1.948425 3.354876 -0.994512 3.75 0 3.75 
z
" id="mf241f5d9ec" style="stroke:#addc30;stroke-opacity:0.65;"/>
    </defs>
    <g clip-path="url(#p79ea99e45d)">
     <use style="fill:#addc30;fill-opacity:0.65;stroke:#addc30;stroke-opacity:0.65;" x="353.239242" xlink:href="#mf241f5d9ec" y="84.280259"/>
    </g>
   </g>
   <g id="line2d_69">
    <path clip-path="url(#p79ea99e45d)" d="M 355.551875 84.280259 
" style="fill:none;stroke:#addc30;stroke-linecap:round;stroke-opacity:0.65;stroke-width:1.5;"/>
    <g clip-path="url(#p79ea99e45d)">
     <use style="fill:#addc30;fill-opacity:0.65;stroke:#addc30;stroke-opacity:0.65;" x="355.551875" xlink:href="#mf241f5d9ec" y="84.280259"/>
    </g>
   </g>
   <g id="line2d_70">
    <path clip-path="url(#p79ea99e45d)" d="M 420.60114 56.587774 
" style="fill:none;stroke:#92d741;stroke-linecap:round;stroke-opacity:0.65;stroke-width:1.5;"/>
    <g clip-path="url(#p79ea99e45d)">
     <use style="fill:#92d741;fill-opacity:0.65;stroke:#92d741;stroke-opacity:0.65;" x="420.60114" xlink:href="#md0a719a34d" y="56.587774"/>
    </g>
   </g>
   <g id="line2d_71">
    <path clip-path="url(#p79ea99e45d)" d="M 222.401074 273.395635 
" style="fill:none;stroke:#f6e61f;stroke-linecap:round;stroke-opacity:0.65;stroke-width:1.5;"/>
    <defs>
     <path d="M 0 3.75 
C 0.994512 3.75 1.948425 3.354876 2.65165 2.65165 
C 3.354876 1.948425 3.75 0.994512 3.75 0 
C 3.75 -0.994512 3.354876 -1.948425 2.65165 -2.65165 
C 1.948425 -3.354876 0.994512 -3.75 0 -3.75 
C -0.994512 -3.75 -1.948425 -3.354876 -2.65165 -2.65165 
C -3.354876 -1.948425 -3.75 -0.994512 -3.75 0 
C -3.75 0.994512 -3.354876 1.948425 -2.65165 2.65165 
C -1.948425 3.354876 -0.994512 3.75 0 3.75 
z
" id="m2f75864818" style="stroke:#f6e61f;stroke-opacity:0.65;"/>
    </defs>
    <g clip-path="url(#p79ea99e45d)">
     <use style="fill:#f6e61f;fill-opacity:0.65;stroke:#f6e61f;stroke-opacity:0.65;" x="222.401074" xlink:href="#m2f75864818" y="273.395635"/>
    </g>
   </g>
   <g id="line2d_72">
    <path clip-path="url(#p79ea99e45d)" d="M 212.166471 226.657947 
" style="fill:none;stroke:#cfe11c;stroke-linecap:round;stroke-opacity:0.65;stroke-width:1.5;"/>
    <g clip-path="url(#p79ea99e45d)">
     <use style="fill:#cfe11c;fill-opacity:0.65;stroke:#cfe11c;stroke-opacity:0.65;" x="212.166471" xlink:href="#mebb4cb6568" y="226.657947"/>
    </g>
   </g>
   <g id="line2d_73">
    <path clip-path="url(#p79ea99e45d)" d="M 348.440978 84.280259 
" style="fill:none;stroke:#a7db33;stroke-linecap:round;stroke-opacity:0.65;stroke-width:1.5;"/>
    <defs>
     <path d="M 0 3.75 
C 0.994512 3.75 1.948425 3.354876 2.65165 2.65165 
C 3.354876 1.948425 3.75 0.994512 3.75 0 
C 3.75 -0.994512 3.354876 -1.948425 2.65165 -2.65165 
C 1.948425 -3.354876 0.994512 -3.75 0 -3.75 
C -0.994512 -3.75 -1.948425 -3.354876 -2.65165 -2.65165 
C -3.354876 -1.948425 -3.75 -0.994512 -3.75 0 
C -3.75 0.994512 -3.354876 1.948425 -2.65165 2.65165 
C -1.948425 3.354876 -0.994512 3.75 0 3.75 
z
" id="m0e14b4b703" style="stroke:#a7db33;stroke-opacity:0.65;"/>
    </defs>
    <g clip-path="url(#p79ea99e45d)">
     <use style="fill:#a7db33;fill-opacity:0.65;stroke:#a7db33;stroke-opacity:0.65;" x="348.440978" xlink:href="#m0e14b4b703" y="84.280259"/>
    </g>
   </g>
   <g id="line2d_74">
    <path clip-path="url(#p79ea99e45d)" d="M 286.099108 268.578531 
" style="fill:none;stroke:#21a784;stroke-linecap:round;stroke-opacity:0.65;stroke-width:1.5;"/>
    <defs>
     <path d="M 0 3.75 
C 0.994512 3.75 1.948425 3.354876 2.65165 2.65165 
C 3.354876 1.948425 3.75 0.994512 3.75 0 
C 3.75 -0.994512 3.354876 -1.948425 2.65165 -2.65165 
C 1.948425 -3.354876 0.994512 -3.75 0 -3.75 
C -0.994512 -3.75 -1.948425 -3.354876 -2.65165 -2.65165 
C -3.354876 -1.948425 -3.75 -0.994512 -3.75 0 
C -3.75 0.994512 -3.354876 1.948425 -2.65165 2.65165 
C -1.948425 3.354876 -0.994512 3.75 0 3.75 
z
" id="m1cea2c942a" style="stroke:#21a784;stroke-opacity:0.65;"/>
    </defs>
    <g clip-path="url(#p79ea99e45d)">
     <use style="fill:#21a784;fill-opacity:0.65;stroke:#21a784;stroke-opacity:0.65;" x="286.099108" xlink:href="#m1cea2c942a" y="268.578531"/>
    </g>
   </g>
   <g id="line2d_75">
    <path clip-path="url(#p79ea99e45d)" d="M 281.926305 273.373744 
" style="fill:none;stroke:#fde724;stroke-linecap:round;stroke-opacity:0.65;stroke-width:1.5;"/>
    <g clip-path="url(#p79ea99e45d)">
     <use style="fill:#fde724;fill-opacity:0.65;stroke:#fde724;stroke-opacity:0.65;" x="281.926305" xlink:href="#md598a61507" y="273.373744"/>
    </g>
   </g>
   <g id="line2d_76">
    <path clip-path="url(#p79ea99e45d)" d="M 147.446584 247.577127 
" style="fill:none;stroke:#fde724;stroke-linecap:round;stroke-opacity:0.65;stroke-width:1.5;"/>
    <g clip-path="url(#p79ea99e45d)">
     <use style="fill:#fde724;fill-opacity:0.65;stroke:#fde724;stroke-opacity:0.65;" x="147.446584" xlink:href="#md598a61507" y="247.577127"/>
    </g>
   </g>
   <g id="line2d_77"/>
   <g id="line2d_78"/>
   <g id="line2d_79"/>
   <g id="line2d_80"/>
   <g id="patch_3">
    <path d="M 71.771875 280.042969 
L 71.771875 39.232031 
" style="fill:none;stroke:#262626;stroke-linecap:square;stroke-linejoin:miter;stroke-width:0.8;"/>
   </g>
   <g id="patch_4">
    <path d="M 71.771875 280.042969 
L 435.438469 280.042969 
" style="fill:none;stroke:#262626;stroke-linecap:square;stroke-linejoin:miter;stroke-width:0.8;"/>
   </g>
   <g id="text_15">
    <text style="fill:#262626;font-family:Lato;font-size:15px;font-style:normal;font-weight:bold;text-anchor:middle;" transform="rotate(-0, 253.605172, 33.232031)" x="253.605172" y="33.232031">inferred AA lb index vs aa-cdist (64 observed, 64 total)</text>
   </g>
   <g id="legend_1">
    <g id="patch_5">
     <path d="M 92.355205 147.596953 
L 165.92083 147.596953 
Q 168.32083 147.596953 168.32083 145.196953 
L 168.32083 54.485078 
Q 168.32083 52.085078 165.92083 52.085078 
L 92.355205 52.085078 
Q 89.955205 52.085078 89.955205 54.485078 
L 89.955205 145.196953 
Q 89.955205 147.596953 92.355205 147.596953 
z
" style="fill:#ffffff;opacity:0.8;stroke:#cccccc;stroke-linejoin:miter;"/>
    </g>
    <g id="text_16">
     <text style="fill:#262626;font-family:Lato;font-size:20px;font-style:normal;font-weight:600;text-anchor:start;" transform="rotate(-0, 97.17708, 71.744453)" x="97.17708" y="71.744453">affinity</text>
    </g>
    <g id="line2d_81">
     <path d="M 94.755205 85.810078 
L 118.755205 85.810078 
" style="fill:none;"/>
    </g>
    <g id="line2d_82">
     <g>
      <use style="fill:#443982;fill-opacity:0.65;stroke:#443982;stroke-opacity:0.65;" x="106.755205" xlink:href="#meb2c3582b0" y="85.810078"/>
     </g>
    </g>
    <g id="text_17">
     <text style="fill:#262626;font-family:Lato;font-size:12px;font-style:normal;font-weight:600;text-anchor:start;" transform="rotate(-0, 128.355205, 90.010078)" x="128.355205" y="90.010078">-5.097</text>
    </g>
    <g id="line2d_83">
     <path d="M 94.755205 102.735703 
L 118.755205 102.735703 
" style="fill:none;"/>
    </g>
    <g id="line2d_84">
     <defs>
      <path d="M 0 3.75 
C 0.994512 3.75 1.948425 3.354876 2.65165 2.65165 
C 3.354876 1.948425 3.75 0.994512 3.75 0 
C 3.75 -0.994512 3.354876 -1.948425 2.65165 -2.65165 
C 1.948425 -3.354876 0.994512 -3.75 0 -3.75 
C -0.994512 -3.75 -1.948425 -3.354876 -2.65165 -2.65165 
C -3.354876 -1.948425 -3.75 -0.994512 -3.75 0 
C -3.75 0.994512 -3.354876 1.948425 -2.65165 2.65165 
C -1.948425 3.354876 -0.994512 3.75 0 3.75 
z
" id="m608746d185" style="stroke:#25828e;stroke-opacity:0.65;"/>
     </defs>
     <g>
      <use style="fill:#25828e;fill-opacity:0.65;stroke:#25828e;stroke-opacity:0.65;" x="106.755205" xlink:href="#m608746d185" y="102.735703"/>
     </g>
    </g>
    <g id="text_18">
     <text style="fill:#262626;font-family:Lato;font-size:12px;font-style:normal;font-weight:600;text-anchor:start;" transform="rotate(-0, 128.355205, 106.935703)" x="128.355205" y="106.935703">-3.111</text>
    </g>
    <g id="line2d_85">
     <path d="M 94.755205 119.661328 
L 118.755205 119.661328 
" style="fill:none;"/>
    </g>
    <g id="line2d_86">
     <defs>
      <path d="M 0 3.75 
C 0.994512 3.75 1.948425 3.354876 2.65165 2.65165 
C 3.354876 1.948425 3.75 0.994512 3.75 0 
C 3.75 -0.994512 3.354876 -1.948425 2.65165 -2.65165 
C 1.948425 -3.354876 0.994512 -3.75 0 -3.75 
C -0.994512 -3.75 -1.948425 -3.354876 -2.65165 -2.65165 
C -3.354876 -1.948425 -3.75 -0.994512 -3.75 0 
C -3.75 0.994512 -3.354876 1.948425 -2.65165 2.65165 
C -1.948425 3.354876 -0.994512 3.75 0 3.75 
z
" id="m4cab389d74" style="stroke:#4dc26b;stroke-opacity:0.65;"/>
     </defs>
     <g>
      <use style="fill:#4dc26b;fill-opacity:0.65;stroke:#4dc26b;stroke-opacity:0.65;" x="106.755205" xlink:href="#m4cab389d74" y="119.661328"/>
     </g>
    </g>
    <g id="text_19">
     <text style="fill:#262626;font-family:Lato;font-size:12px;font-style:normal;font-weight:600;text-anchor:start;" transform="rotate(-0, 128.355205, 123.861328)" x="128.355205" y="123.861328">-1.126</text>
    </g>
    <g id="line2d_87">
     <path d="M 94.755205 136.586953 
L 118.755205 136.586953 
" style="fill:none;"/>
    </g>
    <g id="line2d_88">
     <g>
      <use style="fill:#fde724;fill-opacity:0.65;stroke:#fde724;stroke-opacity:0.65;" x="106.755205" xlink:href="#md598a61507" y="136.586953"/>
     </g>
    </g>
    <g id="text_20">
     <text style="fill:#262626;font-family:Lato;font-size:12px;font-style:normal;font-weight:600;text-anchor:start;" transform="rotate(-0, 128.355205, 140.786953)" x="128.355205" y="140.786953">0.859</text>
    </g>
   </g>
  </g>
  <g id="text_21">
   <text style="fill:#262626;font-family:Lato;font-size:20px;font-style:normal;font-weight:bold;text-anchor:start;" transform="rotate(-0, 92.16, 58.752)" x="92.16" y="58.752">r = 0.693</text>
  </g>
 </g>
 <defs>
  <clipPath id="p79ea99e45d">
   <rect height="240.810937" width="363.666594" x="71.771875" y="39.232031"/>
  </clipPath>
 </defs>
</svg>
