<?xml version="1.0" encoding="utf-8" standalone="no"?>
<!DOCTYPE svg PUBLIC "-//W3C//DTD SVG 1.1//EN"
  "http://www.w3.org/Graphics/SVG/1.1/DTD/svg11.dtd">
<!-- Created with matplotlib (http://matplotlib.org/) -->
<svg height="345.6pt" version="1.1" viewBox="0 0 460.8 345.6" width="460.8pt" xmlns="http://www.w3.org/2000/svg" xmlns:xlink="http://www.w3.org/1999/xlink">
 <defs>
  <style type="text/css">
*{stroke-linecap:butt;stroke-linejoin:round;}
  </style>
 </defs>
 <g id="figure_1">
  <g id="patch_1">
   <path d="M 0 345.6 
L 460.8 345.6 
L 460.8 0 
L 0 0 
z
" style="fill:#ffffff;"/>
  </g>
  <g id="axes_1">
   <g id="patch_2">
    <path d="M 71.771875 280.042969 
L 435.438469 280.042969 
L 435.438469 39.232031 
L 71.771875 39.232031 
z
" style="fill:#ffffff;"/>
   </g>
   <g id="matplotlib.axis_1">
    <g id="xtick_1">
     <g id="line2d_1">
      <defs>
       <path d="M 0 0 
L 0 3.5 
" id="m32423c1e66" style="stroke:#262626;stroke-width:0.8;"/>
      </defs>
      <g>
       <use style="fill:#262626;stroke:#262626;stroke-width:0.8;" x="81.786579" xlink:href="#m32423c1e66" y="280.042969"/>
      </g>
     </g>
     <g id="text_1">
      <text style="fill:#262626;font-family:Lato;font-size:15px;font-style:normal;font-weight:600;text-anchor:middle;" transform="rotate(-0, 81.786579, 298.1875)" x="81.786579" y="298.1875">−8</text>
     </g>
    </g>
    <g id="xtick_2">
     <g id="line2d_2">
      <g>
       <use style="fill:#262626;stroke:#262626;stroke-width:0.8;" x="166.941664" xlink:href="#m32423c1e66" y="280.042969"/>
      </g>
     </g>
     <g id="text_2">
      <text style="fill:#262626;font-family:Lato;font-size:15px;font-style:normal;font-weight:600;text-anchor:middle;" transform="rotate(-0, 166.941664, 298.1875)" x="166.941664" y="298.1875">−6</text>
     </g>
    </g>
    <g id="xtick_3">
     <g id="line2d_3">
      <g>
       <use style="fill:#262626;stroke:#262626;stroke-width:0.8;" x="252.096749" xlink:href="#m32423c1e66" y="280.042969"/>
      </g>
     </g>
     <g id="text_3">
      <text style="fill:#262626;font-family:Lato;font-size:15px;font-style:normal;font-weight:600;text-anchor:middle;" transform="rotate(-0, 252.096749, 298.1875)" x="252.096749" y="298.1875">−4</text>
     </g>
    </g>
    <g id="xtick_4">
     <g id="line2d_4">
      <g>
       <use style="fill:#262626;stroke:#262626;stroke-width:0.8;" x="337.251834" xlink:href="#m32423c1e66" y="280.042969"/>
      </g>
     </g>
     <g id="text_4">
      <text style="fill:#262626;font-family:Lato;font-size:15px;font-style:normal;font-weight:600;text-anchor:middle;" transform="rotate(-0, 337.251834, 298.1875)" x="337.251834" y="298.1875">−2</text>
     </g>
    </g>
    <g id="xtick_5">
     <g id="line2d_5">
      <g>
       <use style="fill:#262626;stroke:#262626;stroke-width:0.8;" x="422.406919" xlink:href="#m32423c1e66" y="280.042969"/>
      </g>
     </g>
     <g id="text_5">
      <text style="fill:#262626;font-family:Lato;font-size:15px;font-style:normal;font-weight:600;text-anchor:middle;" transform="rotate(-0, 422.406919, 298.1875)" x="422.406919" y="298.1875">0</text>
     </g>
    </g>
    <g id="text_6">
     <text style="fill:#262626;font-family:Lato;font-size:20px;font-style:normal;font-weight:600;text-anchor:middle;" transform="rotate(-0, 253.605172, 320.4)" x="253.605172" y="320.4">aa-cdist (+jitter)</text>
    </g>
   </g>
   <g id="matplotlib.axis_2">
    <g id="ytick_1">
     <g id="line2d_6">
      <defs>
       <path d="M 0 0 
L -3.5 0 
" id="me7649c01bb" style="stroke:#262626;stroke-width:0.8;"/>
      </defs>
      <g>
       <use style="fill:#262626;stroke:#262626;stroke-width:0.8;" x="71.771875" xlink:href="#me7649c01bb" y="273.534565"/>
      </g>
     </g>
     <g id="text_7">
      <text style="fill:#262626;font-family:Lato;font-size:15px;font-style:normal;font-weight:600;text-anchor:end;" transform="rotate(-0, 64.771875, 279.106831)" x="64.771875" y="279.106831">0.0</text>
     </g>
    </g>
    <g id="ytick_2">
     <g id="line2d_7">
      <g>
       <use style="fill:#262626;stroke:#262626;stroke-width:0.8;" x="71.771875" xlink:href="#me7649c01bb" y="222.319395"/>
      </g>
     </g>
     <g id="text_8">
      <text style="fill:#262626;font-family:Lato;font-size:15px;font-style:normal;font-weight:600;text-anchor:end;" transform="rotate(-0, 64.771875, 227.891661)" x="64.771875" y="227.891661">0.5</text>
     </g>
    </g>
    <g id="ytick_3">
     <g id="line2d_8">
      <g>
       <use style="fill:#262626;stroke:#262626;stroke-width:0.8;" x="71.771875" xlink:href="#me7649c01bb" y="171.104225"/>
      </g>
     </g>
     <g id="text_9">
      <text style="fill:#262626;font-family:Lato;font-size:15px;font-style:normal;font-weight:600;text-anchor:end;" transform="rotate(-0, 64.771875, 176.67649)" x="64.771875" y="176.67649">1.0</text>
     </g>
    </g>
    <g id="ytick_4">
     <g id="line2d_9">
      <g>
       <use style="fill:#262626;stroke:#262626;stroke-width:0.8;" x="71.771875" xlink:href="#me7649c01bb" y="119.889054"/>
      </g>
     </g>
     <g id="text_10">
      <text style="fill:#262626;font-family:Lato;font-size:15px;font-style:normal;font-weight:600;text-anchor:end;" transform="rotate(-0, 64.771875, 125.46132)" x="64.771875" y="125.46132">1.5</text>
     </g>
    </g>
    <g id="ytick_5">
     <g id="line2d_10">
      <g>
       <use style="fill:#262626;stroke:#262626;stroke-width:0.8;" x="71.771875" xlink:href="#me7649c01bb" y="68.673884"/>
      </g>
     </g>
     <g id="text_11">
      <text style="fill:#262626;font-family:Lato;font-size:15px;font-style:normal;font-weight:600;text-anchor:end;" transform="rotate(-0, 64.771875, 74.24615)" x="64.771875" y="74.24615">2.0</text>
     </g>
    </g>
    <g id="text_12">
     <text style="fill:#262626;font-family:Lato;font-size:20px;font-style:normal;font-weight:600;text-anchor:middle;" transform="rotate(-90, 36.459375, 159.6375)" x="36.459375" y="159.6375">AA lb index</text>
    </g>
   </g>
   <g id="line2d_11">
    <path clip-path="url(#pf8548e34d6)" d="M 378.720322 181.482946 
" style="fill:none;stroke:#d2e11b;stroke-linecap:round;stroke-opacity:0.65;stroke-width:1.5;"/>
    <defs>
     <path d="M 0 3.75 
C 0.994512 3.75 1.948425 3.354876 2.65165 2.65165 
C 3.354876 1.948425 3.75 0.994512 3.75 0 
C 3.75 -0.994512 3.354876 -1.948425 2.65165 -2.65165 
C 1.948425 -3.354876 0.994512 -3.75 0 -3.75 
C -0.994512 -3.75 -1.948425 -3.354876 -2.65165 -2.65165 
C -3.354876 -1.948425 -3.75 -0.994512 -3.75 0 
C -3.75 0.994512 -3.354876 1.948425 -2.65165 2.65165 
C -1.948425 3.354876 -0.994512 3.75 0 3.75 
z
" id="me7e7a24f43" style="stroke:#d2e11b;stroke-opacity:0.65;"/>
    </defs>
    <g clip-path="url(#pf8548e34d6)">
     <use style="fill:#d2e11b;fill-opacity:0.65;stroke:#d2e11b;stroke-opacity:0.65;" x="378.720322" xlink:href="#me7e7a24f43" y="181.482946"/>
    </g>
   </g>
   <g id="line2d_12">
    <path clip-path="url(#pf8548e34d6)" d="M 203.603127 273.508084 
" style="fill:none;stroke:#24848d;stroke-linecap:round;stroke-opacity:0.65;stroke-width:1.5;"/>
    <defs>
     <path d="M 0 3.75 
C 0.994512 3.75 1.948425 3.354876 2.65165 2.65165 
C 3.354876 1.948425 3.75 0.994512 3.75 0 
C 3.75 -0.994512 3.354876 -1.948425 2.65165 -2.65165 
C 1.948425 -3.354876 0.994512 -3.75 0 -3.75 
C -0.994512 -3.75 -1.948425 -3.354876 -2.65165 -2.65165 
C -3.354876 -1.948425 -3.75 -0.994512 -3.75 0 
C -3.75 0.994512 -3.354876 1.948425 -2.65165 2.65165 
C -1.948425 3.354876 -0.994512 3.75 0 3.75 
z
" id="m1909553a22" style="stroke:#24848d;stroke-opacity:0.65;"/>
    </defs>
    <g clip-path="url(#pf8548e34d6)">
     <use style="fill:#24848d;fill-opacity:0.65;stroke:#24848d;stroke-opacity:0.65;" x="203.603127" xlink:href="#m1909553a22" y="273.508084"/>
    </g>
   </g>
   <g id="line2d_13">
    <path clip-path="url(#pf8548e34d6)" d="M 338.626079 234.5993 
" style="fill:none;stroke:#f6e61f;stroke-linecap:round;stroke-opacity:0.65;stroke-width:1.5;"/>
    <defs>
     <path d="M 0 3.75 
C 0.994512 3.75 1.948425 3.354876 2.65165 2.65165 
C 3.354876 1.948425 3.75 0.994512 3.75 0 
C 3.75 -0.994512 3.354876 -1.948425 2.65165 -2.65165 
C 1.948425 -3.354876 0.994512 -3.75 0 -3.75 
C -0.994512 -3.75 -1.948425 -3.354876 -2.65165 -2.65165 
C -3.354876 -1.948425 -3.75 -0.994512 -3.75 0 
C -3.75 0.994512 -3.354876 1.948425 -2.65165 2.65165 
C -1.948425 3.354876 -0.994512 3.75 0 3.75 
z
" id="ma944a1720e" style="stroke:#f6e61f;stroke-opacity:0.65;"/>
    </defs>
    <g clip-path="url(#pf8548e34d6)">
     <use style="fill:#f6e61f;fill-opacity:0.65;stroke:#f6e61f;stroke-opacity:0.65;" x="338.626079" xlink:href="#ma944a1720e" y="234.5993"/>
    </g>
   </g>
   <g id="line2d_14">
    <path clip-path="url(#pf8548e34d6)" d="M 251.07648 273.517182 
" style="fill:none;stroke:#f6e61f;stroke-linecap:round;stroke-opacity:0.65;stroke-width:1.5;"/>
    <g clip-path="url(#pf8548e34d6)">
     <use style="fill:#f6e61f;fill-opacity:0.65;stroke:#f6e61f;stroke-opacity:0.65;" x="251.07648" xlink:href="#ma944a1720e" y="273.517182"/>
    </g>
   </g>
   <g id="line2d_15">
    <path clip-path="url(#pf8548e34d6)" d="M 334.660529 194.823093 
" style="fill:none;stroke:#dae218;stroke-linecap:round;stroke-opacity:0.65;stroke-width:1.5;"/>
    <defs>
     <path d="M 0 3.75 
C 0.994512 3.75 1.948425 3.354876 2.65165 2.65165 
C 3.354876 1.948425 3.75 0.994512 3.75 0 
C 3.75 -0.994512 3.354876 -1.948425 2.65165 -2.65165 
C 1.948425 -3.354876 0.994512 -3.75 0 -3.75 
C -0.994512 -3.75 -1.948425 -3.354876 -2.65165 -2.65165 
C -3.354876 -1.948425 -3.75 -0.994512 -3.75 0 
C -3.75 0.994512 -3.354876 1.948425 -2.65165 2.65165 
C -1.948425 3.354876 -0.994512 3.75 0 3.75 
z
" id="m775cbffca9" style="stroke:#dae218;stroke-opacity:0.65;"/>
    </defs>
    <g clip-path="url(#pf8548e34d6)">
     <use style="fill:#dae218;fill-opacity:0.65;stroke:#dae218;stroke-opacity:0.65;" x="334.660529" xlink:href="#m775cbffca9" y="194.823093"/>
    </g>
   </g>
   <g id="line2d_16">
    <path clip-path="url(#pf8548e34d6)" d="M 340.181619 238.009174 
" style="fill:none;stroke:#dce218;stroke-linecap:round;stroke-opacity:0.65;stroke-width:1.5;"/>
    <defs>
     <path d="M 0 3.75 
C 0.994512 3.75 1.948425 3.354876 2.65165 2.65165 
C 3.354876 1.948425 3.75 0.994512 3.75 0 
C 3.75 -0.994512 3.354876 -1.948425 2.65165 -2.65165 
C 1.948425 -3.354876 0.994512 -3.75 0 -3.75 
C -0.994512 -3.75 -1.948425 -3.354876 -2.65165 -2.65165 
C -3.354876 -1.948425 -3.75 -0.994512 -3.75 0 
C -3.75 0.994512 -3.354876 1.948425 -2.65165 2.65165 
C -1.948425 3.354876 -0.994512 3.75 0 3.75 
z
" id="m58b4f5c9fc" style="stroke:#dce218;stroke-opacity:0.65;"/>
    </defs>
    <g clip-path="url(#pf8548e34d6)">
     <use style="fill:#dce218;fill-opacity:0.65;stroke:#dce218;stroke-opacity:0.65;" x="340.181619" xlink:href="#m58b4f5c9fc" y="238.009174"/>
    </g>
   </g>
   <g id="line2d_17">
    <path clip-path="url(#pf8548e34d6)" d="M 247.283985 273.517492 
" style="fill:none;stroke:#74d054;stroke-linecap:round;stroke-opacity:0.65;stroke-width:1.5;"/>
    <defs>
     <path d="M 0 3.75 
C 0.994512 3.75 1.948425 3.354876 2.65165 2.65165 
C 3.354876 1.948425 3.75 0.994512 3.75 0 
C 3.75 -0.994512 3.354876 -1.948425 2.65165 -2.65165 
C 1.948425 -3.354876 0.994512 -3.75 0 -3.75 
C -0.994512 -3.75 -1.948425 -3.354876 -2.65165 -2.65165 
C -3.354876 -1.948425 -3.75 -0.994512 -3.75 0 
C -3.75 0.994512 -3.354876 1.948425 -2.65165 2.65165 
C -1.948425 3.354876 -0.994512 3.75 0 3.75 
z
" id="m43af3d6dea" style="stroke:#74d054;stroke-opacity:0.65;"/>
    </defs>
    <g clip-path="url(#pf8548e34d6)">
     <use style="fill:#74d054;fill-opacity:0.65;stroke:#74d054;stroke-opacity:0.65;" x="247.283985" xlink:href="#m43af3d6dea" y="273.517492"/>
    </g>
   </g>
   <g id="line2d_18">
    <path clip-path="url(#pf8548e34d6)" d="M 128.76009 273.534565 
" style="fill:none;stroke:#2bb17d;stroke-linecap:round;stroke-opacity:0.65;stroke-width:1.5;"/>
    <defs>
     <path d="M 0 3.75 
C 0.994512 3.75 1.948425 3.354876 2.65165 2.65165 
C 3.354876 1.948425 3.75 0.994512 3.75 0 
C 3.75 -0.994512 3.354876 -1.948425 2.65165 -2.65165 
C 1.948425 -3.354876 0.994512 -3.75 0 -3.75 
C -0.994512 -3.75 -1.948425 -3.354876 -2.65165 -2.65165 
C -3.354876 -1.948425 -3.75 -0.994512 -3.75 0 
C -3.75 0.994512 -3.354876 1.948425 -2.65165 2.65165 
C -1.948425 3.354876 -0.994512 3.75 0 3.75 
z
" id="mb44e6d3d93" style="stroke:#2bb17d;stroke-opacity:0.65;"/>
    </defs>
    <g clip-path="url(#pf8548e34d6)">
     <use style="fill:#2bb17d;fill-opacity:0.65;stroke:#2bb17d;stroke-opacity:0.65;" x="128.76009" xlink:href="#mb44e6d3d93" y="273.534565"/>
    </g>
   </g>
   <g id="line2d_19">
    <path clip-path="url(#pf8548e34d6)" d="M 416.891527 56.587774 
" style="fill:none;stroke:#7cd24f;stroke-linecap:round;stroke-opacity:0.65;stroke-width:1.5;"/>
    <defs>
     <path d="M 0 3.75 
C 0.994512 3.75 1.948425 3.354876 2.65165 2.65165 
C 3.354876 1.948425 3.75 0.994512 3.75 0 
C 3.75 -0.994512 3.354876 -1.948425 2.65165 -2.65165 
C 1.948425 -3.354876 0.994512 -3.75 0 -3.75 
C -0.994512 -3.75 -1.948425 -3.354876 -2.65165 -2.65165 
C -3.354876 -1.948425 -3.75 -0.994512 -3.75 0 
C -3.75 0.994512 -3.354876 1.948425 -2.65165 2.65165 
C -1.948425 3.354876 -0.994512 3.75 0 3.75 
z
" id="mc75cf3748c" style="stroke:#7cd24f;stroke-opacity:0.65;"/>
    </defs>
    <g clip-path="url(#pf8548e34d6)">
     <use style="fill:#7cd24f;fill-opacity:0.65;stroke:#7cd24f;stroke-opacity:0.65;" x="416.891527" xlink:href="#mc75cf3748c" y="56.587774"/>
    </g>
   </g>
   <g id="line2d_20">
    <path clip-path="url(#pf8548e34d6)" d="M 420.317062 56.587774 
" style="fill:none;stroke:#88d547;stroke-linecap:round;stroke-opacity:0.65;stroke-width:1.5;"/>
    <defs>
     <path d="M 0 3.75 
C 0.994512 3.75 1.948425 3.354876 2.65165 2.65165 
C 3.354876 1.948425 3.75 0.994512 3.75 0 
C 3.75 -0.994512 3.354876 -1.948425 2.65165 -2.65165 
C 1.948425 -3.354876 0.994512 -3.75 0 -3.75 
C -0.994512 -3.75 -1.948425 -3.354876 -2.65165 -2.65165 
C -3.354876 -1.948425 -3.75 -0.994512 -3.75 0 
C -3.75 0.994512 -3.354876 1.948425 -2.65165 2.65165 
C -1.948425 3.354876 -0.994512 3.75 0 3.75 
z
" id="mfde0065985" style="stroke:#88d547;stroke-opacity:0.65;"/>
    </defs>
    <g clip-path="url(#pf8548e34d6)">
     <use style="fill:#88d547;fill-opacity:0.65;stroke:#88d547;stroke-opacity:0.65;" x="420.317062" xlink:href="#mfde0065985" y="56.587774"/>
    </g>
   </g>
   <g id="line2d_21">
    <path clip-path="url(#pf8548e34d6)" d="M 383.837831 250.351159 
" style="fill:none;stroke:#2cb17d;stroke-linecap:round;stroke-opacity:0.65;stroke-width:1.5;"/>
    <defs>
     <path d="M 0 3.75 
C 0.994512 3.75 1.948425 3.354876 2.65165 2.65165 
C 3.354876 1.948425 3.75 0.994512 3.75 0 
C 3.75 -0.994512 3.354876 -1.948425 2.65165 -2.65165 
C 1.948425 -3.354876 0.994512 -3.75 0 -3.75 
C -0.994512 -3.75 -1.948425 -3.354876 -2.65165 -2.65165 
C -3.354876 -1.948425 -3.75 -0.994512 -3.75 0 
C -3.75 0.994512 -3.354876 1.948425 -2.65165 2.65165 
C -1.948425 3.354876 -0.994512 3.75 0 3.75 
z
" id="m7f91d396d6" style="stroke:#2cb17d;stroke-opacity:0.65;"/>
    </defs>
    <g clip-path="url(#pf8548e34d6)">
     <use style="fill:#2cb17d;fill-opacity:0.65;stroke:#2cb17d;stroke-opacity:0.65;" x="383.837831" xlink:href="#m7f91d396d6" y="250.351159"/>
    </g>
   </g>
   <g id="line2d_22">
    <path clip-path="url(#pf8548e34d6)" d="M 297.273264 273.53012 
" style="fill:none;stroke:#32b57a;stroke-linecap:round;stroke-opacity:0.65;stroke-width:1.5;"/>
    <defs>
     <path d="M 0 3.75 
C 0.994512 3.75 1.948425 3.354876 2.65165 2.65165 
C 3.354876 1.948425 3.75 0.994512 3.75 0 
C 3.75 -0.994512 3.354876 -1.948425 2.65165 -2.65165 
C 1.948425 -3.354876 0.994512 -3.75 0 -3.75 
C -0.994512 -3.75 -1.948425 -3.354876 -2.65165 -2.65165 
C -3.354876 -1.948425 -3.75 -0.994512 -3.75 0 
C -3.75 0.994512 -3.354876 1.948425 -2.65165 2.65165 
C -1.948425 3.354876 -0.994512 3.75 0 3.75 
z
" id="m81394cbfc7" style="stroke:#32b57a;stroke-opacity:0.65;"/>
    </defs>
    <g clip-path="url(#pf8548e34d6)">
     <use style="fill:#32b57a;fill-opacity:0.65;stroke:#32b57a;stroke-opacity:0.65;" x="297.273264" xlink:href="#m81394cbfc7" y="273.53012"/>
    </g>
   </g>
   <g id="line2d_23">
    <path clip-path="url(#pf8548e34d6)" d="M 208.979455 234.799678 
" style="fill:none;stroke:#dae218;stroke-linecap:round;stroke-opacity:0.65;stroke-width:1.5;"/>
    <g clip-path="url(#pf8548e34d6)">
     <use style="fill:#dae218;fill-opacity:0.65;stroke:#dae218;stroke-opacity:0.65;" x="208.979455" xlink:href="#m775cbffca9" y="234.799678"/>
    </g>
   </g>
   <g id="line2d_24">
    <path clip-path="url(#pf8548e34d6)" d="M 379.875632 138.522708 
" style="fill:none;stroke:#9ad83c;stroke-linecap:round;stroke-opacity:0.65;stroke-width:1.5;"/>
    <defs>
     <path d="M 0 3.75 
C 0.994512 3.75 1.948425 3.354876 2.65165 2.65165 
C 3.354876 1.948425 3.75 0.994512 3.75 0 
C 3.75 -0.994512 3.354876 -1.948425 2.65165 -2.65165 
C 1.948425 -3.354876 0.994512 -3.75 0 -3.75 
C -0.994512 -3.75 -1.948425 -3.354876 -2.65165 -2.65165 
C -3.354876 -1.948425 -3.75 -0.994512 -3.75 0 
C -3.75 0.994512 -3.354876 1.948425 -2.65165 2.65165 
C -1.948425 3.354876 -0.994512 3.75 0 3.75 
z
" id="ma31fe1fd7c" style="stroke:#9ad83c;stroke-opacity:0.65;"/>
    </defs>
    <g clip-path="url(#pf8548e34d6)">
     <use style="fill:#9ad83c;fill-opacity:0.65;stroke:#9ad83c;stroke-opacity:0.65;" x="379.875632" xlink:href="#ma31fe1fd7c" y="138.522708"/>
    </g>
   </g>
   <g id="line2d_25">
    <path clip-path="url(#pf8548e34d6)" d="M 337.187579 253.256756 
" style="fill:none;stroke:#64cb5d;stroke-linecap:round;stroke-opacity:0.65;stroke-width:1.5;"/>
    <defs>
     <path d="M 0 3.75 
C 0.994512 3.75 1.948425 3.354876 2.65165 2.65165 
C 3.354876 1.948425 3.75 0.994512 3.75 0 
C 3.75 -0.994512 3.354876 -1.948425 2.65165 -2.65165 
C 1.948425 -3.354876 0.994512 -3.75 0 -3.75 
C -0.994512 -3.75 -1.948425 -3.354876 -2.65165 -2.65165 
C -3.354876 -1.948425 -3.75 -0.994512 -3.75 0 
C -3.75 0.994512 -3.354876 1.948425 -2.65165 2.65165 
C -1.948425 3.354876 -0.994512 3.75 0 3.75 
z
" id="m5706938846" style="stroke:#64cb5d;stroke-opacity:0.65;"/>
    </defs>
    <g clip-path="url(#pf8548e34d6)">
     <use style="fill:#64cb5d;fill-opacity:0.65;stroke:#64cb5d;stroke-opacity:0.65;" x="337.187579" xlink:href="#m5706938846" y="253.256756"/>
    </g>
   </g>
   <g id="line2d_26">
    <path clip-path="url(#pf8548e34d6)" d="M 343.756806 253.256756 
" style="fill:none;stroke:#5ec961;stroke-linecap:round;stroke-opacity:0.65;stroke-width:1.5;"/>
    <defs>
     <path d="M 0 3.75 
C 0.994512 3.75 1.948425 3.354876 2.65165 2.65165 
C 3.354876 1.948425 3.75 0.994512 3.75 0 
C 3.75 -0.994512 3.354876 -1.948425 2.65165 -2.65165 
C 1.948425 -3.354876 0.994512 -3.75 0 -3.75 
C -0.994512 -3.75 -1.948425 -3.354876 -2.65165 -2.65165 
C -3.354876 -1.948425 -3.75 -0.994512 -3.75 0 
C -3.75 0.994512 -3.354876 1.948425 -2.65165 2.65165 
C -1.948425 3.354876 -0.994512 3.75 0 3.75 
z
" id="m80808baa95" style="stroke:#5ec961;stroke-opacity:0.65;"/>
    </defs>
    <g clip-path="url(#pf8548e34d6)">
     <use style="fill:#5ec961;fill-opacity:0.65;stroke:#5ec961;stroke-opacity:0.65;" x="343.756806" xlink:href="#m80808baa95" y="253.256756"/>
    </g>
   </g>
   <g id="line2d_27">
    <path clip-path="url(#pf8548e34d6)" d="M 416.698169 56.587774 
" style="fill:none;stroke:#32b57a;stroke-linecap:round;stroke-opacity:0.65;stroke-width:1.5;"/>
    <g clip-path="url(#pf8548e34d6)">
     <use style="fill:#32b57a;fill-opacity:0.65;stroke:#32b57a;stroke-opacity:0.65;" x="416.698169" xlink:href="#m81394cbfc7" y="56.587774"/>
    </g>
   </g>
   <g id="line2d_28">
    <path clip-path="url(#pf8548e34d6)" d="M 258.781001 273.531941 
" style="fill:none;stroke:#355d8c;stroke-linecap:round;stroke-opacity:0.65;stroke-width:1.5;"/>
    <defs>
     <path d="M 0 3.75 
C 0.994512 3.75 1.948425 3.354876 2.65165 2.65165 
C 3.354876 1.948425 3.75 0.994512 3.75 0 
C 3.75 -0.994512 3.354876 -1.948425 2.65165 -2.65165 
C 1.948425 -3.354876 0.994512 -3.75 0 -3.75 
C -0.994512 -3.75 -1.948425 -3.354876 -2.65165 -2.65165 
C -3.354876 -1.948425 -3.75 -0.994512 -3.75 0 
C -3.75 0.994512 -3.354876 1.948425 -2.65165 2.65165 
C -1.948425 3.354876 -0.994512 3.75 0 3.75 
z
" id="m09d7ebf821" style="stroke:#355d8c;stroke-opacity:0.65;"/>
    </defs>
    <g clip-path="url(#pf8548e34d6)">
     <use style="fill:#355d8c;fill-opacity:0.65;stroke:#355d8c;stroke-opacity:0.65;" x="258.781001" xlink:href="#m09d7ebf821" y="273.531941"/>
    </g>
   </g>
   <g id="line2d_29">
    <path clip-path="url(#pf8548e34d6)" d="M 335.436557 273.376466 
" style="fill:none;stroke:#83d34b;stroke-linecap:round;stroke-opacity:0.65;stroke-width:1.5;"/>
    <defs>
     <path d="M 0 3.75 
C 0.994512 3.75 1.948425 3.354876 2.65165 2.65165 
C 3.354876 1.948425 3.75 0.994512 3.75 0 
C 3.75 -0.994512 3.354876 -1.948425 2.65165 -2.65165 
C 1.948425 -3.354876 0.994512 -3.75 0 -3.75 
C -0.994512 -3.75 -1.948425 -3.354876 -2.65165 -2.65165 
C -3.354876 -1.948425 -3.75 -0.994512 -3.75 0 
C -3.75 0.994512 -3.354876 1.948425 -2.65165 2.65165 
C -1.948425 3.354876 -0.994512 3.75 0 3.75 
z
" id="mfcc00eb5ec" style="stroke:#83d34b;stroke-opacity:0.65;"/>
    </defs>
    <g clip-path="url(#pf8548e34d6)">
     <use style="fill:#83d34b;fill-opacity:0.65;stroke:#83d34b;stroke-opacity:0.65;" x="335.436557" xlink:href="#mfcc00eb5ec" y="273.376466"/>
    </g>
   </g>
   <g id="line2d_30">
    <path clip-path="url(#pf8548e34d6)" d="M 293.130918 271.784939 
" style="fill:none;stroke:#dfe318;stroke-linecap:round;stroke-opacity:0.65;stroke-width:1.5;"/>
    <defs>
     <path d="M 0 3.75 
C 0.994512 3.75 1.948425 3.354876 2.65165 2.65165 
C 3.354876 1.948425 3.75 0.994512 3.75 0 
C 3.75 -0.994512 3.354876 -1.948425 2.65165 -2.65165 
C 1.948425 -3.354876 0.994512 -3.75 0 -3.75 
C -0.994512 -3.75 -1.948425 -3.354876 -2.65165 -2.65165 
C -3.354876 -1.948425 -3.75 -0.994512 -3.75 0 
C -3.75 0.994512 -3.354876 1.948425 -2.65165 2.65165 
C -1.948425 3.354876 -0.994512 3.75 0 3.75 
z
" id="ma5a5f152e9" style="stroke:#dfe318;stroke-opacity:0.65;"/>
    </defs>
    <g clip-path="url(#pf8548e34d6)">
     <use style="fill:#dfe318;fill-opacity:0.65;stroke:#dfe318;stroke-opacity:0.65;" x="293.130918" xlink:href="#ma5a5f152e9" y="271.784939"/>
    </g>
   </g>
   <g id="line2d_31">
    <path clip-path="url(#pf8548e34d6)" d="M 255.165073 262.814642 
" style="fill:none;stroke:#1f958b;stroke-linecap:round;stroke-opacity:0.65;stroke-width:1.5;"/>
    <defs>
     <path d="M 0 3.75 
C 0.994512 3.75 1.948425 3.354876 2.65165 2.65165 
C 3.354876 1.948425 3.75 0.994512 3.75 0 
C 3.75 -0.994512 3.354876 -1.948425 2.65165 -2.65165 
C 1.948425 -3.354876 0.994512 -3.75 0 -3.75 
C -0.994512 -3.75 -1.948425 -3.354876 -2.65165 -2.65165 
C -3.354876 -1.948425 -3.75 -0.994512 -3.75 0 
C -3.75 0.994512 -3.354876 1.948425 -2.65165 2.65165 
C -1.948425 3.354876 -0.994512 3.75 0 3.75 
z
" id="ma67f091e3b" style="stroke:#1f958b;stroke-opacity:0.65;"/>
    </defs>
    <g clip-path="url(#pf8548e34d6)">
     <use style="fill:#1f958b;fill-opacity:0.65;stroke:#1f958b;stroke-opacity:0.65;" x="255.165073" xlink:href="#ma67f091e3b" y="262.814642"/>
    </g>
   </g>
   <g id="line2d_32">
    <path clip-path="url(#pf8548e34d6)" d="M 171.856251 272.908907 
" style="fill:none;stroke:#dce218;stroke-linecap:round;stroke-opacity:0.65;stroke-width:1.5;"/>
    <g clip-path="url(#pf8548e34d6)">
     <use style="fill:#dce218;fill-opacity:0.65;stroke:#dce218;stroke-opacity:0.65;" x="171.856251" xlink:href="#m58b4f5c9fc" y="272.908907"/>
    </g>
   </g>
   <g id="line2d_33">
    <path clip-path="url(#pf8548e34d6)" d="M 291.802413 223.089439 
" style="fill:none;stroke:#1e9f88;stroke-linecap:round;stroke-opacity:0.65;stroke-width:1.5;"/>
    <defs>
     <path d="M 0 3.75 
C 0.994512 3.75 1.948425 3.354876 2.65165 2.65165 
C 3.354876 1.948425 3.75 0.994512 3.75 0 
C 3.75 -0.994512 3.354876 -1.948425 2.65165 -2.65165 
C 1.948425 -3.354876 0.994512 -3.75 0 -3.75 
C -0.994512 -3.75 -1.948425 -3.354876 -2.65165 -2.65165 
C -3.354876 -1.948425 -3.75 -0.994512 -3.75 0 
C -3.75 0.994512 -3.354876 1.948425 -2.65165 2.65165 
C -1.948425 3.354876 -0.994512 3.75 0 3.75 
z
" id="m01a9fa6d0f" style="stroke:#1e9f88;stroke-opacity:0.65;"/>
    </defs>
    <g clip-path="url(#pf8548e34d6)">
     <use style="fill:#1e9f88;fill-opacity:0.65;stroke:#1e9f88;stroke-opacity:0.65;" x="291.802413" xlink:href="#m01a9fa6d0f" y="223.089439"/>
    </g>
   </g>
   <g id="line2d_34">
    <path clip-path="url(#pf8548e34d6)" d="M 299.991422 273.53012 
" style="fill:none;stroke:#4fc369;stroke-linecap:round;stroke-opacity:0.65;stroke-width:1.5;"/>
    <defs>
     <path d="M 0 3.75 
C 0.994512 3.75 1.948425 3.354876 2.65165 2.65165 
C 3.354876 1.948425 3.75 0.994512 3.75 0 
C 3.75 -0.994512 3.354876 -1.948425 2.65165 -2.65165 
C 1.948425 -3.354876 0.994512 -3.75 0 -3.75 
C -0.994512 -3.75 -1.948425 -3.354876 -2.65165 -2.65165 
C -3.354876 -1.948425 -3.75 -0.994512 -3.75 0 
C -3.75 0.994512 -3.354876 1.948425 -2.65165 2.65165 
C -1.948425 3.354876 -0.994512 3.75 0 3.75 
z
" id="mb6eadeccd1" style="stroke:#4fc369;stroke-opacity:0.65;"/>
    </defs>
    <g clip-path="url(#pf8548e34d6)">
     <use style="fill:#4fc369;fill-opacity:0.65;stroke:#4fc369;stroke-opacity:0.65;" x="299.991422" xlink:href="#mb6eadeccd1" y="273.53012"/>
    </g>
   </g>
   <g id="line2d_35">
    <path clip-path="url(#pf8548e34d6)" d="M 381.281403 138.522708 
" style="fill:none;stroke:#9ad83c;stroke-linecap:round;stroke-opacity:0.65;stroke-width:1.5;"/>
    <g clip-path="url(#pf8548e34d6)">
     <use style="fill:#9ad83c;fill-opacity:0.65;stroke:#9ad83c;stroke-opacity:0.65;" x="381.281403" xlink:href="#ma31fe1fd7c" y="138.522708"/>
    </g>
   </g>
   <g id="line2d_36">
    <path clip-path="url(#pf8548e34d6)" d="M 374.096454 267.898361 
" style="fill:none;stroke:#32b57a;stroke-linecap:round;stroke-opacity:0.65;stroke-width:1.5;"/>
    <g clip-path="url(#pf8548e34d6)">
     <use style="fill:#32b57a;fill-opacity:0.65;stroke:#32b57a;stroke-opacity:0.65;" x="374.096454" xlink:href="#m81394cbfc7" y="267.898361"/>
    </g>
   </g>
   <g id="line2d_37">
    <path clip-path="url(#pf8548e34d6)" d="M 342.68597 253.270151 
" style="fill:none;stroke:#8dd644;stroke-linecap:round;stroke-opacity:0.65;stroke-width:1.5;"/>
    <defs>
     <path d="M 0 3.75 
C 0.994512 3.75 1.948425 3.354876 2.65165 2.65165 
C 3.354876 1.948425 3.75 0.994512 3.75 0 
C 3.75 -0.994512 3.354876 -1.948425 2.65165 -2.65165 
C 1.948425 -3.354876 0.994512 -3.75 0 -3.75 
C -0.994512 -3.75 -1.948425 -3.354876 -2.65165 -2.65165 
C -3.354876 -1.948425 -3.75 -0.994512 -3.75 0 
C -3.75 0.994512 -3.354876 1.948425 -2.65165 2.65165 
C -1.948425 3.354876 -0.994512 3.75 0 3.75 
z
" id="mf744830b7e" style="stroke:#8dd644;stroke-opacity:0.65;"/>
    </defs>
    <g clip-path="url(#pf8548e34d6)">
     <use style="fill:#8dd644;fill-opacity:0.65;stroke:#8dd644;stroke-opacity:0.65;" x="342.68597" xlink:href="#mf744830b7e" y="253.270151"/>
    </g>
   </g>
   <g id="line2d_38">
    <path clip-path="url(#pf8548e34d6)" d="M 377.672563 267.898361 
" style="fill:none;stroke:#67cc5c;stroke-linecap:round;stroke-opacity:0.65;stroke-width:1.5;"/>
    <defs>
     <path d="M 0 3.75 
C 0.994512 3.75 1.948425 3.354876 2.65165 2.65165 
C 3.354876 1.948425 3.75 0.994512 3.75 0 
C 3.75 -0.994512 3.354876 -1.948425 2.65165 -2.65165 
C 1.948425 -3.354876 0.994512 -3.75 0 -3.75 
C -0.994512 -3.75 -1.948425 -3.354876 -2.65165 -2.65165 
C -3.354876 -1.948425 -3.75 -0.994512 -3.75 0 
C -3.75 0.994512 -3.354876 1.948425 -2.65165 2.65165 
C -1.948425 3.354876 -0.994512 3.75 0 3.75 
z
" id="m90fee5f199" style="stroke:#67cc5c;stroke-opacity:0.65;"/>
    </defs>
    <g clip-path="url(#pf8548e34d6)">
     <use style="fill:#67cc5c;fill-opacity:0.65;stroke:#67cc5c;stroke-opacity:0.65;" x="377.672563" xlink:href="#m90fee5f199" y="267.898361"/>
    </g>
   </g>
   <g id="line2d_39">
    <path clip-path="url(#pf8548e34d6)" d="M 256.564875 273.532896 
" style="fill:none;stroke:#443982;stroke-linecap:round;stroke-opacity:0.65;stroke-width:1.5;"/>
    <defs>
     <path d="M 0 3.75 
C 0.994512 3.75 1.948425 3.354876 2.65165 2.65165 
C 3.354876 1.948425 3.75 0.994512 3.75 0 
C 3.75 -0.994512 3.354876 -1.948425 2.65165 -2.65165 
C 1.948425 -3.354876 0.994512 -3.75 0 -3.75 
C -0.994512 -3.75 -1.948425 -3.354876 -2.65165 -2.65165 
C -3.354876 -1.948425 -3.75 -0.994512 -3.75 0 
C -3.75 0.994512 -3.354876 1.948425 -2.65165 2.65165 
C -1.948425 3.354876 -0.994512 3.75 0 3.75 
z
" id="m5e796860b6" style="stroke:#443982;stroke-opacity:0.65;"/>
    </defs>
    <g clip-path="url(#pf8548e34d6)">
     <use style="fill:#443982;fill-opacity:0.65;stroke:#443982;stroke-opacity:0.65;" x="256.564875" xlink:href="#m5e796860b6" y="273.532896"/>
    </g>
   </g>
   <g id="line2d_40">
    <path clip-path="url(#pf8548e34d6)" d="M 377.358564 267.898361 
" style="fill:none;stroke:#59c764;stroke-linecap:round;stroke-opacity:0.65;stroke-width:1.5;"/>
    <defs>
     <path d="M 0 3.75 
C 0.994512 3.75 1.948425 3.354876 2.65165 2.65165 
C 3.354876 1.948425 3.75 0.994512 3.75 0 
C 3.75 -0.994512 3.354876 -1.948425 2.65165 -2.65165 
C 1.948425 -3.354876 0.994512 -3.75 0 -3.75 
C -0.994512 -3.75 -1.948425 -3.354876 -2.65165 -2.65165 
C -3.354876 -1.948425 -3.75 -0.994512 -3.75 0 
C -3.75 0.994512 -3.354876 1.948425 -2.65165 2.65165 
C -1.948425 3.354876 -0.994512 3.75 0 3.75 
z
" id="m8d86179a89" style="stroke:#59c764;stroke-opacity:0.65;"/>
    </defs>
    <g clip-path="url(#pf8548e34d6)">
     <use style="fill:#59c764;fill-opacity:0.65;stroke:#59c764;stroke-opacity:0.65;" x="377.358564" xlink:href="#m8d86179a89" y="267.898361"/>
    </g>
   </g>
   <g id="line2d_41">
    <path clip-path="url(#pf8548e34d6)" d="M 339.592352 234.991387 
" style="fill:none;stroke:#6bcd59;stroke-linecap:round;stroke-opacity:0.65;stroke-width:1.5;"/>
    <defs>
     <path d="M 0 3.75 
C 0.994512 3.75 1.948425 3.354876 2.65165 2.65165 
C 3.354876 1.948425 3.75 0.994512 3.75 0 
C 3.75 -0.994512 3.354876 -1.948425 2.65165 -2.65165 
C 1.948425 -3.354876 0.994512 -3.75 0 -3.75 
C -0.994512 -3.75 -1.948425 -3.354876 -2.65165 -2.65165 
C -3.354876 -1.948425 -3.75 -0.994512 -3.75 0 
C -3.75 0.994512 -3.354876 1.948425 -2.65165 2.65165 
C -1.948425 3.354876 -0.994512 3.75 0 3.75 
z
" id="mbf08964cec" style="stroke:#6bcd59;stroke-opacity:0.65;"/>
    </defs>
    <g clip-path="url(#pf8548e34d6)">
     <use style="fill:#6bcd59;fill-opacity:0.65;stroke:#6bcd59;stroke-opacity:0.65;" x="339.592352" xlink:href="#mbf08964cec" y="234.991387"/>
    </g>
   </g>
   <g id="line2d_42">
    <path clip-path="url(#pf8548e34d6)" d="M 252.683748 273.531941 
" style="fill:none;stroke:#a7db33;stroke-linecap:round;stroke-opacity:0.65;stroke-width:1.5;"/>
    <defs>
     <path d="M 0 3.75 
C 0.994512 3.75 1.948425 3.354876 2.65165 2.65165 
C 3.354876 1.948425 3.75 0.994512 3.75 0 
C 3.75 -0.994512 3.354876 -1.948425 2.65165 -2.65165 
C 1.948425 -3.354876 0.994512 -3.75 0 -3.75 
C -0.994512 -3.75 -1.948425 -3.354876 -2.65165 -2.65165 
C -3.354876 -1.948425 -3.75 -0.994512 -3.75 0 
C -3.75 0.994512 -3.354876 1.948425 -2.65165 2.65165 
C -1.948425 3.354876 -0.994512 3.75 0 3.75 
z
" id="m101ae72e70" style="stroke:#a7db33;stroke-opacity:0.65;"/>
    </defs>
    <g clip-path="url(#pf8548e34d6)">
     <use style="fill:#a7db33;fill-opacity:0.65;stroke:#a7db33;stroke-opacity:0.65;" x="252.683748" xlink:href="#m101ae72e70" y="273.531941"/>
    </g>
   </g>
   <g id="line2d_43">
    <path clip-path="url(#pf8548e34d6)" d="M 256.571301 271.778196 
" style="fill:none;stroke:#f1e51c;stroke-linecap:round;stroke-opacity:0.65;stroke-width:1.5;"/>
    <defs>
     <path d="M 0 3.75 
C 0.994512 3.75 1.948425 3.354876 2.65165 2.65165 
C 3.354876 1.948425 3.75 0.994512 3.75 0 
C 3.75 -0.994512 3.354876 -1.948425 2.65165 -2.65165 
C 1.948425 -3.354876 0.994512 -3.75 0 -3.75 
C -0.994512 -3.75 -1.948425 -3.354876 -2.65165 -2.65165 
C -3.354876 -1.948425 -3.75 -0.994512 -3.75 0 
C -3.75 0.994512 -3.354876 1.948425 -2.65165 2.65165 
C -1.948425 3.354876 -0.994512 3.75 0 3.75 
z
" id="md99dabbe35" style="stroke:#f1e51c;stroke-opacity:0.65;"/>
    </defs>
    <g clip-path="url(#pf8548e34d6)">
     <use style="fill:#f1e51c;fill-opacity:0.65;stroke:#f1e51c;stroke-opacity:0.65;" x="256.571301" xlink:href="#md99dabbe35" y="271.778196"/>
    </g>
   </g>
   <g id="line2d_44">
    <path clip-path="url(#pf8548e34d6)" d="M 254.154261 227.063732 
" style="fill:none;stroke:#e7e419;stroke-linecap:round;stroke-opacity:0.65;stroke-width:1.5;"/>
    <defs>
     <path d="M 0 3.75 
C 0.994512 3.75 1.948425 3.354876 2.65165 2.65165 
C 3.354876 1.948425 3.75 0.994512 3.75 0 
C 3.75 -0.994512 3.354876 -1.948425 2.65165 -2.65165 
C 1.948425 -3.354876 0.994512 -3.75 0 -3.75 
C -0.994512 -3.75 -1.948425 -3.354876 -2.65165 -2.65165 
C -3.354876 -1.948425 -3.75 -0.994512 -3.75 0 
C -3.75 0.994512 -3.354876 1.948425 -2.65165 2.65165 
C -1.948425 3.354876 -0.994512 3.75 0 3.75 
z
" id="m01e3c11f96" style="stroke:#e7e419;stroke-opacity:0.65;"/>
    </defs>
    <g clip-path="url(#pf8548e34d6)">
     <use style="fill:#e7e419;fill-opacity:0.65;stroke:#e7e419;stroke-opacity:0.65;" x="254.154261" xlink:href="#m01e3c11f96" y="227.063732"/>
    </g>
   </g>
   <g id="line2d_45">
    <path clip-path="url(#pf8548e34d6)" d="M 382.73471 181.482946 
" style="fill:none;stroke:#cfe11c;stroke-linecap:round;stroke-opacity:0.65;stroke-width:1.5;"/>
    <defs>
     <path d="M 0 3.75 
C 0.994512 3.75 1.948425 3.354876 2.65165 2.65165 
C 3.354876 1.948425 3.75 0.994512 3.75 0 
C 3.75 -0.994512 3.354876 -1.948425 2.65165 -2.65165 
C 1.948425 -3.354876 0.994512 -3.75 0 -3.75 
C -0.994512 -3.75 -1.948425 -3.354876 -2.65165 -2.65165 
C -3.354876 -1.948425 -3.75 -0.994512 -3.75 0 
C -3.75 0.994512 -3.354876 1.948425 -2.65165 2.65165 
C -1.948425 3.354876 -0.994512 3.75 0 3.75 
z
" id="m003cb0f1a2" style="stroke:#cfe11c;stroke-opacity:0.65;"/>
    </defs>
    <g clip-path="url(#pf8548e34d6)">
     <use style="fill:#cfe11c;fill-opacity:0.65;stroke:#cfe11c;stroke-opacity:0.65;" x="382.73471" xlink:href="#m003cb0f1a2" y="181.482946"/>
    </g>
   </g>
   <g id="line2d_46">
    <path clip-path="url(#pf8548e34d6)" d="M 376.139909 250.351159 
" style="fill:none;stroke:#27ad80;stroke-linecap:round;stroke-opacity:0.65;stroke-width:1.5;"/>
    <defs>
     <path d="M 0 3.75 
C 0.994512 3.75 1.948425 3.354876 2.65165 2.65165 
C 3.354876 1.948425 3.75 0.994512 3.75 0 
C 3.75 -0.994512 3.354876 -1.948425 2.65165 -2.65165 
C 1.948425 -3.354876 0.994512 -3.75 0 -3.75 
C -0.994512 -3.75 -1.948425 -3.354876 -2.65165 -2.65165 
C -3.354876 -1.948425 -3.75 -0.994512 -3.75 0 
C -3.75 0.994512 -3.354876 1.948425 -2.65165 2.65165 
C -1.948425 3.354876 -0.994512 3.75 0 3.75 
z
" id="m47b8eab9ef" style="stroke:#27ad80;stroke-opacity:0.65;"/>
    </defs>
    <g clip-path="url(#pf8548e34d6)">
     <use style="fill:#27ad80;fill-opacity:0.65;stroke:#27ad80;stroke-opacity:0.65;" x="376.139909" xlink:href="#m47b8eab9ef" y="250.351159"/>
    </g>
   </g>
   <g id="line2d_47">
    <path clip-path="url(#pf8548e34d6)" d="M 385.910558 251.429529 
" style="fill:none;stroke:#29788e;stroke-linecap:round;stroke-opacity:0.65;stroke-width:1.5;"/>
    <defs>
     <path d="M 0 3.75 
C 0.994512 3.75 1.948425 3.354876 2.65165 2.65165 
C 3.354876 1.948425 3.75 0.994512 3.75 0 
C 3.75 -0.994512 3.354876 -1.948425 2.65165 -2.65165 
C 1.948425 -3.354876 0.994512 -3.75 0 -3.75 
C -0.994512 -3.75 -1.948425 -3.354876 -2.65165 -2.65165 
C -3.354876 -1.948425 -3.75 -0.994512 -3.75 0 
C -3.75 0.994512 -3.354876 1.948425 -2.65165 2.65165 
C -1.948425 3.354876 -0.994512 3.75 0 3.75 
z
" id="mb901cab704" style="stroke:#29788e;stroke-opacity:0.65;"/>
    </defs>
    <g clip-path="url(#pf8548e34d6)">
     <use style="fill:#29788e;fill-opacity:0.65;stroke:#29788e;stroke-opacity:0.65;" x="385.910558" xlink:href="#mb901cab704" y="251.429529"/>
    </g>
   </g>
   <g id="line2d_48">
    <path clip-path="url(#pf8548e34d6)" d="M 173.522787 273.534563 
" style="fill:none;stroke:#29af7f;stroke-linecap:round;stroke-opacity:0.65;stroke-width:1.5;"/>
    <defs>
     <path d="M 0 3.75 
C 0.994512 3.75 1.948425 3.354876 2.65165 2.65165 
C 3.354876 1.948425 3.75 0.994512 3.75 0 
C 3.75 -0.994512 3.354876 -1.948425 2.65165 -2.65165 
C 1.948425 -3.354876 0.994512 -3.75 0 -3.75 
C -0.994512 -3.75 -1.948425 -3.354876 -2.65165 -2.65165 
C -3.354876 -1.948425 -3.75 -0.994512 -3.75 0 
C -3.75 0.994512 -3.354876 1.948425 -2.65165 2.65165 
C -1.948425 3.354876 -0.994512 3.75 0 3.75 
z
" id="mfcc3091e82" style="stroke:#29af7f;stroke-opacity:0.65;"/>
    </defs>
    <g clip-path="url(#pf8548e34d6)">
     <use style="fill:#29af7f;fill-opacity:0.65;stroke:#29af7f;stroke-opacity:0.65;" x="173.522787" xlink:href="#mfcc3091e82" y="273.534563"/>
    </g>
   </g>
   <g id="line2d_49">
    <path clip-path="url(#pf8548e34d6)" d="M 299.45682 194.583267 
" style="fill:none;stroke:#f3e51e;stroke-linecap:round;stroke-opacity:0.65;stroke-width:1.5;"/>
    <defs>
     <path d="M 0 3.75 
C 0.994512 3.75 1.948425 3.354876 2.65165 2.65165 
C 3.354876 1.948425 3.75 0.994512 3.75 0 
C 3.75 -0.994512 3.354876 -1.948425 2.65165 -2.65165 
C 1.948425 -3.354876 0.994512 -3.75 0 -3.75 
C -0.994512 -3.75 -1.948425 -3.354876 -2.65165 -2.65165 
C -3.354876 -1.948425 -3.75 -0.994512 -3.75 0 
C -3.75 0.994512 -3.354876 1.948425 -2.65165 2.65165 
C -1.948425 3.354876 -0.994512 3.75 0 3.75 
z
" id="m382bd84e26" style="stroke:#f3e51e;stroke-opacity:0.65;"/>
    </defs>
    <g clip-path="url(#pf8548e34d6)">
     <use style="fill:#f3e51e;fill-opacity:0.65;stroke:#f3e51e;stroke-opacity:0.65;" x="299.45682" xlink:href="#m382bd84e26" y="194.583267"/>
    </g>
   </g>
   <g id="line2d_50">
    <path clip-path="url(#pf8548e34d6)" d="M 428.44488 56.587774 
" style="fill:none;stroke:#8bd546;stroke-linecap:round;stroke-opacity:0.65;stroke-width:1.5;"/>
    <defs>
     <path d="M 0 3.75 
C 0.994512 3.75 1.948425 3.354876 2.65165 2.65165 
C 3.354876 1.948425 3.75 0.994512 3.75 0 
C 3.75 -0.994512 3.354876 -1.948425 2.65165 -2.65165 
C 1.948425 -3.354876 0.994512 -3.75 0 -3.75 
C -0.994512 -3.75 -1.948425 -3.354876 -2.65165 -2.65165 
C -3.354876 -1.948425 -3.75 -0.994512 -3.75 0 
C -3.75 0.994512 -3.354876 1.948425 -2.65165 2.65165 
C -1.948425 3.354876 -0.994512 3.75 0 3.75 
z
" id="md428e765f2" style="stroke:#8bd546;stroke-opacity:0.65;"/>
    </defs>
    <g clip-path="url(#pf8548e34d6)">
     <use style="fill:#8bd546;fill-opacity:0.65;stroke:#8bd546;stroke-opacity:0.65;" x="428.44488" xlink:href="#md428e765f2" y="56.587774"/>
    </g>
   </g>
   <g id="line2d_51">
    <path clip-path="url(#pf8548e34d6)" d="M 384.319326 267.898361 
" style="fill:none;stroke:#7ed24e;stroke-linecap:round;stroke-opacity:0.65;stroke-width:1.5;"/>
    <defs>
     <path d="M 0 3.75 
C 0.994512 3.75 1.948425 3.354876 2.65165 2.65165 
C 3.354876 1.948425 3.75 0.994512 3.75 0 
C 3.75 -0.994512 3.354876 -1.948425 2.65165 -2.65165 
C 1.948425 -3.354876 0.994512 -3.75 0 -3.75 
C -0.994512 -3.75 -1.948425 -3.354876 -2.65165 -2.65165 
C -3.354876 -1.948425 -3.75 -0.994512 -3.75 0 
C -3.75 0.994512 -3.354876 1.948425 -2.65165 2.65165 
C -1.948425 3.354876 -0.994512 3.75 0 3.75 
z
" id="m762d9ddd07" style="stroke:#7ed24e;stroke-opacity:0.65;"/>
    </defs>
    <g clip-path="url(#pf8548e34d6)">
     <use style="fill:#7ed24e;fill-opacity:0.65;stroke:#7ed24e;stroke-opacity:0.65;" x="384.319326" xlink:href="#m762d9ddd07" y="267.898361"/>
    </g>
   </g>
   <g id="line2d_52">
    <path clip-path="url(#pf8548e34d6)" d="M 380.431771 267.898361 
" style="fill:none;stroke:#23a883;stroke-linecap:round;stroke-opacity:0.65;stroke-width:1.5;"/>
    <defs>
     <path d="M 0 3.75 
C 0.994512 3.75 1.948425 3.354876 2.65165 2.65165 
C 3.354876 1.948425 3.75 0.994512 3.75 0 
C 3.75 -0.994512 3.354876 -1.948425 2.65165 -2.65165 
C 1.948425 -3.354876 0.994512 -3.75 0 -3.75 
C -0.994512 -3.75 -1.948425 -3.354876 -2.65165 -2.65165 
C -3.354876 -1.948425 -3.75 -0.994512 -3.75 0 
C -3.75 0.994512 -3.354876 1.948425 -2.65165 2.65165 
C -1.948425 3.354876 -0.994512 3.75 0 3.75 
z
" id="mcd9ab49a0d" style="stroke:#23a883;stroke-opacity:0.65;"/>
    </defs>
    <g clip-path="url(#pf8548e34d6)">
     <use style="fill:#23a883;fill-opacity:0.65;stroke:#23a883;stroke-opacity:0.65;" x="380.431771" xlink:href="#mcd9ab49a0d" y="267.898361"/>
    </g>
   </g>
   <g id="line2d_53">
    <path clip-path="url(#pf8548e34d6)" d="M 419.205025 56.587774 
" style="fill:none;stroke:#2eb27c;stroke-linecap:round;stroke-opacity:0.65;stroke-width:1.5;"/>
    <defs>
     <path d="M 0 3.75 
C 0.994512 3.75 1.948425 3.354876 2.65165 2.65165 
C 3.354876 1.948425 3.75 0.994512 3.75 0 
C 3.75 -0.994512 3.354876 -1.948425 2.65165 -2.65165 
C 1.948425 -3.354876 0.994512 -3.75 0 -3.75 
C -0.994512 -3.75 -1.948425 -3.354876 -2.65165 -2.65165 
C -3.354876 -1.948425 -3.75 -0.994512 -3.75 0 
C -3.75 0.994512 -3.354876 1.948425 -2.65165 2.65165 
C -1.948425 3.354876 -0.994512 3.75 0 3.75 
z
" id="me50c16d3d7" style="stroke:#2eb27c;stroke-opacity:0.65;"/>
    </defs>
    <g clip-path="url(#pf8548e34d6)">
     <use style="fill:#2eb27c;fill-opacity:0.65;stroke:#2eb27c;stroke-opacity:0.65;" x="419.205025" xlink:href="#me50c16d3d7" y="56.587774"/>
    </g>
   </g>
   <g id="line2d_54">
    <path clip-path="url(#pf8548e34d6)" d="M 419.142917 56.587774 
" style="fill:none;stroke:#8bd546;stroke-linecap:round;stroke-opacity:0.65;stroke-width:1.5;"/>
    <g clip-path="url(#pf8548e34d6)">
     <use style="fill:#8bd546;fill-opacity:0.65;stroke:#8bd546;stroke-opacity:0.65;" x="419.142917" xlink:href="#md428e765f2" y="56.587774"/>
    </g>
   </g>
   <g id="line2d_55">
    <path clip-path="url(#pf8548e34d6)" d="M 299.790726 223.089439 
" style="fill:none;stroke:#1e9f88;stroke-linecap:round;stroke-opacity:0.65;stroke-width:1.5;"/>
    <g clip-path="url(#pf8548e34d6)">
     <use style="fill:#1e9f88;fill-opacity:0.65;stroke:#1e9f88;stroke-opacity:0.65;" x="299.790726" xlink:href="#m01a9fa6d0f" y="223.089439"/>
    </g>
   </g>
   <g id="line2d_56">
    <path clip-path="url(#pf8548e34d6)" d="M 335.707483 273.376466 
" style="fill:none;stroke:#345f8d;stroke-linecap:round;stroke-opacity:0.65;stroke-width:1.5;"/>
    <defs>
     <path d="M 0 3.75 
C 0.994512 3.75 1.948425 3.354876 2.65165 2.65165 
C 3.354876 1.948425 3.75 0.994512 3.75 0 
C 3.75 -0.994512 3.354876 -1.948425 2.65165 -2.65165 
C 1.948425 -3.354876 0.994512 -3.75 0 -3.75 
C -0.994512 -3.75 -1.948425 -3.354876 -2.65165 -2.65165 
C -3.354876 -1.948425 -3.75 -0.994512 -3.75 0 
C -3.75 0.994512 -3.354876 1.948425 -2.65165 2.65165 
C -1.948425 3.354876 -0.994512 3.75 0 3.75 
z
" id="m6fd140dc58" style="stroke:#345f8d;stroke-opacity:0.65;"/>
    </defs>
    <g clip-path="url(#pf8548e34d6)">
     <use style="fill:#345f8d;fill-opacity:0.65;stroke:#345f8d;stroke-opacity:0.65;" x="335.707483" xlink:href="#m6fd140dc58" y="273.376466"/>
    </g>
   </g>
   <g id="line2d_57">
    <path clip-path="url(#pf8548e34d6)" d="M 424.342835 56.587774 
" style="fill:none;stroke:#77d052;stroke-linecap:round;stroke-opacity:0.65;stroke-width:1.5;"/>
    <defs>
     <path d="M 0 3.75 
C 0.994512 3.75 1.948425 3.354876 2.65165 2.65165 
C 3.354876 1.948425 3.75 0.994512 3.75 0 
C 3.75 -0.994512 3.354876 -1.948425 2.65165 -2.65165 
C 1.948425 -3.354876 0.994512 -3.75 0 -3.75 
C -0.994512 -3.75 -1.948425 -3.354876 -2.65165 -2.65165 
C -3.354876 -1.948425 -3.75 -0.994512 -3.75 0 
C -3.75 0.994512 -3.354876 1.948425 -2.65165 2.65165 
C -1.948425 3.354876 -0.994512 3.75 0 3.75 
z
" id="m4792826084" style="stroke:#77d052;stroke-opacity:0.65;"/>
    </defs>
    <g clip-path="url(#pf8548e34d6)">
     <use style="fill:#77d052;fill-opacity:0.65;stroke:#77d052;stroke-opacity:0.65;" x="424.342835" xlink:href="#m4792826084" y="56.587774"/>
    </g>
   </g>
   <g id="line2d_58">
    <path clip-path="url(#pf8548e34d6)" d="M 257.79335 271.778196 
" style="fill:none;stroke:#fde724;stroke-linecap:round;stroke-opacity:0.65;stroke-width:1.5;"/>
    <defs>
     <path d="M 0 3.75 
C 0.994512 3.75 1.948425 3.354876 2.65165 2.65165 
C 3.354876 1.948425 3.75 0.994512 3.75 0 
C 3.75 -0.994512 3.354876 -1.948425 2.65165 -2.65165 
C 1.948425 -3.354876 0.994512 -3.75 0 -3.75 
C -0.994512 -3.75 -1.948425 -3.354876 -2.65165 -2.65165 
C -3.354876 -1.948425 -3.75 -0.994512 -3.75 0 
C -3.75 0.994512 -3.354876 1.948425 -2.65165 2.65165 
C -1.948425 3.354876 -0.994512 3.75 0 3.75 
z
" id="mb441b0ceff" style="stroke:#fde724;stroke-opacity:0.65;"/>
    </defs>
    <g clip-path="url(#pf8548e34d6)">
     <use style="fill:#fde724;fill-opacity:0.65;stroke:#fde724;stroke-opacity:0.65;" x="257.79335" xlink:href="#mb441b0ceff" y="271.778196"/>
    </g>
   </g>
   <g id="line2d_59">
    <path clip-path="url(#pf8548e34d6)" d="M 340.412009 253.270151 
" style="fill:none;stroke:#97d83e;stroke-linecap:round;stroke-opacity:0.65;stroke-width:1.5;"/>
    <defs>
     <path d="M 0 3.75 
C 0.994512 3.75 1.948425 3.354876 2.65165 2.65165 
C 3.354876 1.948425 3.75 0.994512 3.75 0 
C 3.75 -0.994512 3.354876 -1.948425 2.65165 -2.65165 
C 1.948425 -3.354876 0.994512 -3.75 0 -3.75 
C -0.994512 -3.75 -1.948425 -3.354876 -2.65165 -2.65165 
C -3.354876 -1.948425 -3.75 -0.994512 -3.75 0 
C -3.75 0.994512 -3.354876 1.948425 -2.65165 2.65165 
C -1.948425 3.354876 -0.994512 3.75 0 3.75 
z
" id="m027c86cb19" style="stroke:#97d83e;stroke-opacity:0.65;"/>
    </defs>
    <g clip-path="url(#pf8548e34d6)">
     <use style="fill:#97d83e;fill-opacity:0.65;stroke:#97d83e;stroke-opacity:0.65;" x="340.412009" xlink:href="#m027c86cb19" y="253.270151"/>
    </g>
   </g>
   <g id="line2d_60">
    <path clip-path="url(#pf8548e34d6)" d="M 331.382446 270.202016 
" style="fill:none;stroke:#8dd644;stroke-linecap:round;stroke-opacity:0.65;stroke-width:1.5;"/>
    <g clip-path="url(#pf8548e34d6)">
     <use style="fill:#8dd644;fill-opacity:0.65;stroke:#8dd644;stroke-opacity:0.65;" x="331.382446" xlink:href="#mf744830b7e" y="270.202016"/>
    </g>
   </g>
   <g id="line2d_61">
    <path clip-path="url(#pf8548e34d6)" d="M 419.535037 56.587774 
" style="fill:none;stroke:#8bd546;stroke-linecap:round;stroke-opacity:0.65;stroke-width:1.5;"/>
    <g clip-path="url(#pf8548e34d6)">
     <use style="fill:#8bd546;fill-opacity:0.65;stroke:#8bd546;stroke-opacity:0.65;" x="419.535037" xlink:href="#md428e765f2" y="56.587774"/>
    </g>
   </g>
   <g id="line2d_62">
    <path clip-path="url(#pf8548e34d6)" d="M 254.403635 272.579665 
" style="fill:none;stroke:#25828e;stroke-linecap:round;stroke-opacity:0.65;stroke-width:1.5;"/>
    <defs>
     <path d="M 0 3.75 
C 0.994512 3.75 1.948425 3.354876 2.65165 2.65165 
C 3.354876 1.948425 3.75 0.994512 3.75 0 
C 3.75 -0.994512 3.354876 -1.948425 2.65165 -2.65165 
C 1.948425 -3.354876 0.994512 -3.75 0 -3.75 
C -0.994512 -3.75 -1.948425 -3.354876 -2.65165 -2.65165 
C -3.354876 -1.948425 -3.75 -0.994512 -3.75 0 
C -3.75 0.994512 -3.354876 1.948425 -2.65165 2.65165 
C -1.948425 3.354876 -0.994512 3.75 0 3.75 
z
" id="m090ab5a5c2" style="stroke:#25828e;stroke-opacity:0.65;"/>
    </defs>
    <g clip-path="url(#pf8548e34d6)">
     <use style="fill:#25828e;fill-opacity:0.65;stroke:#25828e;stroke-opacity:0.65;" x="254.403635" xlink:href="#m090ab5a5c2" y="272.579665"/>
    </g>
   </g>
   <g id="line2d_63">
    <path clip-path="url(#pf8548e34d6)" d="M 416.313339 56.587774 
" style="fill:none;stroke:#2eb27c;stroke-linecap:round;stroke-opacity:0.65;stroke-width:1.5;"/>
    <g clip-path="url(#pf8548e34d6)">
     <use style="fill:#2eb27c;fill-opacity:0.65;stroke:#2eb27c;stroke-opacity:0.65;" x="416.313339" xlink:href="#me50c16d3d7" y="56.587774"/>
    </g>
   </g>
   <g id="line2d_64">
    <path clip-path="url(#pf8548e34d6)" d="M 374.330846 267.898361 
" style="fill:none;stroke:#7ed24e;stroke-linecap:round;stroke-opacity:0.65;stroke-width:1.5;"/>
    <g clip-path="url(#pf8548e34d6)">
     <use style="fill:#7ed24e;fill-opacity:0.65;stroke:#7ed24e;stroke-opacity:0.65;" x="374.330846" xlink:href="#m762d9ddd07" y="267.898361"/>
    </g>
   </g>
   <g id="line2d_65">
    <path clip-path="url(#pf8548e34d6)" d="M 297.368255 271.784939 
" style="fill:none;stroke:#d2e11b;stroke-linecap:round;stroke-opacity:0.65;stroke-width:1.5;"/>
    <g clip-path="url(#pf8548e34d6)">
     <use style="fill:#d2e11b;fill-opacity:0.65;stroke:#d2e11b;stroke-opacity:0.65;" x="297.368255" xlink:href="#me7e7a24f43" y="271.784939"/>
    </g>
   </g>
   <g id="line2d_66">
    <path clip-path="url(#pf8548e34d6)" d="M 374.465177 251.429529 
" style="fill:none;stroke:#8bd546;stroke-linecap:round;stroke-opacity:0.65;stroke-width:1.5;"/>
    <g clip-path="url(#pf8548e34d6)">
     <use style="fill:#8bd546;fill-opacity:0.65;stroke:#8bd546;stroke-opacity:0.65;" x="374.465177" xlink:href="#md428e765f2" y="251.429529"/>
    </g>
   </g>
   <g id="line2d_67">
    <path clip-path="url(#pf8548e34d6)" d="M 295.030158 272.999144 
" style="fill:none;stroke:#dce218;stroke-linecap:round;stroke-opacity:0.65;stroke-width:1.5;"/>
    <g clip-path="url(#pf8548e34d6)">
     <use style="fill:#dce218;fill-opacity:0.65;stroke:#dce218;stroke-opacity:0.65;" x="295.030158" xlink:href="#m58b4f5c9fc" y="272.999144"/>
    </g>
   </g>
   <g id="line2d_68">
    <path clip-path="url(#pf8548e34d6)" d="M 334.837842 234.991387 
" style="fill:none;stroke:#6bcd59;stroke-linecap:round;stroke-opacity:0.65;stroke-width:1.5;"/>
    <g clip-path="url(#pf8548e34d6)">
     <use style="fill:#6bcd59;fill-opacity:0.65;stroke:#6bcd59;stroke-opacity:0.65;" x="334.837842" xlink:href="#mbf08964cec" y="234.991387"/>
    </g>
   </g>
   <g id="line2d_69">
    <path clip-path="url(#pf8548e34d6)" d="M 379.280857 181.482946 
" style="fill:none;stroke:#d2e11b;stroke-linecap:round;stroke-opacity:0.65;stroke-width:1.5;"/>
    <g clip-path="url(#pf8548e34d6)">
     <use style="fill:#d2e11b;fill-opacity:0.65;stroke:#d2e11b;stroke-opacity:0.65;" x="379.280857" xlink:href="#me7e7a24f43" y="181.482946"/>
    </g>
   </g>
   <g id="line2d_70">
    <path clip-path="url(#pf8548e34d6)" d="M 380.233299 250.351159 
" style="fill:none;stroke:#2cb17d;stroke-linecap:round;stroke-opacity:0.65;stroke-width:1.5;"/>
    <g clip-path="url(#pf8548e34d6)">
     <use style="fill:#2cb17d;fill-opacity:0.65;stroke:#2cb17d;stroke-opacity:0.65;" x="380.233299" xlink:href="#m7f91d396d6" y="250.351159"/>
    </g>
   </g>
   <g id="line2d_71">
    <path clip-path="url(#pf8548e34d6)" d="M 300.229925 271.784939 
" style="fill:none;stroke:#44be70;stroke-linecap:round;stroke-opacity:0.65;stroke-width:1.5;"/>
    <defs>
     <path d="M 0 3.75 
C 0.994512 3.75 1.948425 3.354876 2.65165 2.65165 
C 3.354876 1.948425 3.75 0.994512 3.75 0 
C 3.75 -0.994512 3.354876 -1.948425 2.65165 -2.65165 
C 1.948425 -3.354876 0.994512 -3.75 0 -3.75 
C -0.994512 -3.75 -1.948425 -3.354876 -2.65165 -2.65165 
C -3.354876 -1.948425 -3.75 -0.994512 -3.75 0 
C -3.75 0.994512 -3.354876 1.948425 -2.65165 2.65165 
C -1.948425 3.354876 -0.994512 3.75 0 3.75 
z
" id="mca42fe7b37" style="stroke:#44be70;stroke-opacity:0.65;"/>
    </defs>
    <g clip-path="url(#pf8548e34d6)">
     <use style="fill:#44be70;fill-opacity:0.65;stroke:#44be70;stroke-opacity:0.65;" x="300.229925" xlink:href="#mca42fe7b37" y="271.784939"/>
    </g>
   </g>
   <g id="line2d_72">
    <path clip-path="url(#pf8548e34d6)" d="M 332.095624 256.894615 
" style="fill:none;stroke:#2fb37b;stroke-linecap:round;stroke-opacity:0.65;stroke-width:1.5;"/>
    <defs>
     <path d="M 0 3.75 
C 0.994512 3.75 1.948425 3.354876 2.65165 2.65165 
C 3.354876 1.948425 3.75 0.994512 3.75 0 
C 3.75 -0.994512 3.354876 -1.948425 2.65165 -2.65165 
C 1.948425 -3.354876 0.994512 -3.75 0 -3.75 
C -0.994512 -3.75 -1.948425 -3.354876 -2.65165 -2.65165 
C -3.354876 -1.948425 -3.75 -0.994512 -3.75 0 
C -3.75 0.994512 -3.354876 1.948425 -2.65165 2.65165 
C -1.948425 3.354876 -0.994512 3.75 0 3.75 
z
" id="m96933976d4" style="stroke:#2fb37b;stroke-opacity:0.65;"/>
    </defs>
    <g clip-path="url(#pf8548e34d6)">
     <use style="fill:#2fb37b;fill-opacity:0.65;stroke:#2fb37b;stroke-opacity:0.65;" x="332.095624" xlink:href="#m96933976d4" y="256.894615"/>
    </g>
   </g>
   <g id="line2d_73">
    <path clip-path="url(#pf8548e34d6)" d="M 340.886843 238.009174 
" style="fill:none;stroke:#dce218;stroke-linecap:round;stroke-opacity:0.65;stroke-width:1.5;"/>
    <g clip-path="url(#pf8548e34d6)">
     <use style="fill:#dce218;fill-opacity:0.65;stroke:#dce218;stroke-opacity:0.65;" x="340.886843" xlink:href="#m58b4f5c9fc" y="238.009174"/>
    </g>
   </g>
   <g id="line2d_74">
    <path clip-path="url(#pf8548e34d6)" d="M 380.38706 138.522708 
" style="fill:none;stroke:#49c16d;stroke-linecap:round;stroke-opacity:0.65;stroke-width:1.5;"/>
    <defs>
     <path d="M 0 3.75 
C 0.994512 3.75 1.948425 3.354876 2.65165 2.65165 
C 3.354876 1.948425 3.75 0.994512 3.75 0 
C 3.75 -0.994512 3.354876 -1.948425 2.65165 -2.65165 
C 1.948425 -3.354876 0.994512 -3.75 0 -3.75 
C -0.994512 -3.75 -1.948425 -3.354876 -2.65165 -2.65165 
C -3.354876 -1.948425 -3.75 -0.994512 -3.75 0 
C -3.75 0.994512 -3.354876 1.948425 -2.65165 2.65165 
C -1.948425 3.354876 -0.994512 3.75 0 3.75 
z
" id="m2c1bef3fd3" style="stroke:#49c16d;stroke-opacity:0.65;"/>
    </defs>
    <g clip-path="url(#pf8548e34d6)">
     <use style="fill:#49c16d;fill-opacity:0.65;stroke:#49c16d;stroke-opacity:0.65;" x="380.38706" xlink:href="#m2c1bef3fd3" y="138.522708"/>
    </g>
   </g>
   <g id="line2d_75">
    <path clip-path="url(#pf8548e34d6)" d="M 428.30664 56.587774 
" style="fill:none;stroke:#7cd24f;stroke-linecap:round;stroke-opacity:0.65;stroke-width:1.5;"/>
    <g clip-path="url(#pf8548e34d6)">
     <use style="fill:#7cd24f;fill-opacity:0.65;stroke:#7cd24f;stroke-opacity:0.65;" x="428.30664" xlink:href="#mc75cf3748c" y="56.587774"/>
    </g>
   </g>
   <g id="line2d_76">
    <path clip-path="url(#pf8548e34d6)" d="M 81.212974 273.071167 
" style="fill:none;stroke:#1f948b;stroke-linecap:round;stroke-opacity:0.65;stroke-width:1.5;"/>
    <defs>
     <path d="M 0 3.75 
C 0.994512 3.75 1.948425 3.354876 2.65165 2.65165 
C 3.354876 1.948425 3.75 0.994512 3.75 0 
C 3.75 -0.994512 3.354876 -1.948425 2.65165 -2.65165 
C 1.948425 -3.354876 0.994512 -3.75 0 -3.75 
C -0.994512 -3.75 -1.948425 -3.354876 -2.65165 -2.65165 
C -3.354876 -1.948425 -3.75 -0.994512 -3.75 0 
C -3.75 0.994512 -3.354876 1.948425 -2.65165 2.65165 
C -1.948425 3.354876 -0.994512 3.75 0 3.75 
z
" id="m4592ce0c53" style="stroke:#1f948b;stroke-opacity:0.65;"/>
    </defs>
    <g clip-path="url(#pf8548e34d6)">
     <use style="fill:#1f948b;fill-opacity:0.65;stroke:#1f948b;stroke-opacity:0.65;" x="81.212974" xlink:href="#m4592ce0c53" y="273.071167"/>
    </g>
   </g>
   <g id="line2d_77">
    <path clip-path="url(#pf8548e34d6)" d="M 375.450065 267.898361 
" style="fill:none;stroke:#5ec961;stroke-linecap:round;stroke-opacity:0.65;stroke-width:1.5;"/>
    <g clip-path="url(#pf8548e34d6)">
     <use style="fill:#5ec961;fill-opacity:0.65;stroke:#5ec961;stroke-opacity:0.65;" x="375.450065" xlink:href="#m80808baa95" y="267.898361"/>
    </g>
   </g>
   <g id="line2d_78">
    <path clip-path="url(#pf8548e34d6)" d="M 422.900686 56.587774 
" style="fill:none;stroke:#2eb27c;stroke-linecap:round;stroke-opacity:0.65;stroke-width:1.5;"/>
    <g clip-path="url(#pf8548e34d6)">
     <use style="fill:#2eb27c;fill-opacity:0.65;stroke:#2eb27c;stroke-opacity:0.65;" x="422.900686" xlink:href="#me50c16d3d7" y="56.587774"/>
    </g>
   </g>
   <g id="line2d_79">
    <path clip-path="url(#pf8548e34d6)" d="M 296.176898 271.784939 
" style="fill:none;stroke:#dae218;stroke-linecap:round;stroke-opacity:0.65;stroke-width:1.5;"/>
    <g clip-path="url(#pf8548e34d6)">
     <use style="fill:#dae218;fill-opacity:0.65;stroke:#dae218;stroke-opacity:0.65;" x="296.176898" xlink:href="#m775cbffca9" y="271.784939"/>
    </g>
   </g>
   <g id="line2d_80">
    <path clip-path="url(#pf8548e34d6)" d="M 209.289785 273.533187 
" style="fill:none;stroke:#f1e51c;stroke-linecap:round;stroke-opacity:0.65;stroke-width:1.5;"/>
    <g clip-path="url(#pf8548e34d6)">
     <use style="fill:#f1e51c;fill-opacity:0.65;stroke:#f1e51c;stroke-opacity:0.65;" x="209.289785" xlink:href="#md99dabbe35" y="273.533187"/>
    </g>
   </g>
   <g id="line2d_81">
    <path clip-path="url(#pf8548e34d6)" d="M 78.765463 273.071167 
" style="fill:none;stroke:#20918c;stroke-linecap:round;stroke-opacity:0.65;stroke-width:1.5;"/>
    <defs>
     <path d="M 0 3.75 
C 0.994512 3.75 1.948425 3.354876 2.65165 2.65165 
C 3.354876 1.948425 3.75 0.994512 3.75 0 
C 3.75 -0.994512 3.354876 -1.948425 2.65165 -2.65165 
C 1.948425 -3.354876 0.994512 -3.75 0 -3.75 
C -0.994512 -3.75 -1.948425 -3.354876 -2.65165 -2.65165 
C -3.354876 -1.948425 -3.75 -0.994512 -3.75 0 
C -3.75 0.994512 -3.354876 1.948425 -2.65165 2.65165 
C -1.948425 3.354876 -0.994512 3.75 0 3.75 
z
" id="m1c7d9f7a40" style="stroke:#20918c;stroke-opacity:0.65;"/>
    </defs>
    <g clip-path="url(#pf8548e34d6)">
     <use style="fill:#20918c;fill-opacity:0.65;stroke:#20918c;stroke-opacity:0.65;" x="78.765463" xlink:href="#m1c7d9f7a40" y="273.071167"/>
    </g>
   </g>
   <g id="line2d_82">
    <path clip-path="url(#pf8548e34d6)" d="M 212.179814 272.691405 
" style="fill:none;stroke:#e9e419;stroke-linecap:round;stroke-opacity:0.65;stroke-width:1.5;"/>
    <defs>
     <path d="M 0 3.75 
C 0.994512 3.75 1.948425 3.354876 2.65165 2.65165 
C 3.354876 1.948425 3.75 0.994512 3.75 0 
C 3.75 -0.994512 3.354876 -1.948425 2.65165 -2.65165 
C 1.948425 -3.354876 0.994512 -3.75 0 -3.75 
C -0.994512 -3.75 -1.948425 -3.354876 -2.65165 -2.65165 
C -3.354876 -1.948425 -3.75 -0.994512 -3.75 0 
C -3.75 0.994512 -3.354876 1.948425 -2.65165 2.65165 
C -1.948425 3.354876 -0.994512 3.75 0 3.75 
z
" id="m395e579826" style="stroke:#e9e419;stroke-opacity:0.65;"/>
    </defs>
    <g clip-path="url(#pf8548e34d6)">
     <use style="fill:#e9e419;fill-opacity:0.65;stroke:#e9e419;stroke-opacity:0.65;" x="212.179814" xlink:href="#m395e579826" y="272.691405"/>
    </g>
   </g>
   <g id="line2d_83">
    <path clip-path="url(#pf8548e34d6)" d="M 373.174905 250.351159 
" style="fill:none;stroke:#2cb17d;stroke-linecap:round;stroke-opacity:0.65;stroke-width:1.5;"/>
    <g clip-path="url(#pf8548e34d6)">
     <use style="fill:#2cb17d;fill-opacity:0.65;stroke:#2cb17d;stroke-opacity:0.65;" x="373.174905" xlink:href="#m7f91d396d6" y="250.351159"/>
    </g>
   </g>
   <g id="line2d_84">
    <path clip-path="url(#pf8548e34d6)" d="M 334.848042 271.409872 
" style="fill:none;stroke:#d2e11b;stroke-linecap:round;stroke-opacity:0.65;stroke-width:1.5;"/>
    <g clip-path="url(#pf8548e34d6)">
     <use style="fill:#d2e11b;fill-opacity:0.65;stroke:#d2e11b;stroke-opacity:0.65;" x="334.848042" xlink:href="#me7e7a24f43" y="271.409872"/>
    </g>
   </g>
   <g id="line2d_85">
    <path clip-path="url(#pf8548e34d6)" d="M 417.486141 56.587774 
" style="fill:none;stroke:#2eb27c;stroke-linecap:round;stroke-opacity:0.65;stroke-width:1.5;"/>
    <g clip-path="url(#pf8548e34d6)">
     <use style="fill:#2eb27c;fill-opacity:0.65;stroke:#2eb27c;stroke-opacity:0.65;" x="417.486141" xlink:href="#me50c16d3d7" y="56.587774"/>
    </g>
   </g>
   <g id="line2d_86">
    <path clip-path="url(#pf8548e34d6)" d="M 126.054193 240.570842 
" style="fill:none;stroke:#1f948b;stroke-linecap:round;stroke-opacity:0.65;stroke-width:1.5;"/>
    <g clip-path="url(#pf8548e34d6)">
     <use style="fill:#1f948b;fill-opacity:0.65;stroke:#1f948b;stroke-opacity:0.65;" x="126.054193" xlink:href="#m4592ce0c53" y="240.570842"/>
    </g>
   </g>
   <g id="line2d_87">
    <path clip-path="url(#pf8548e34d6)" d="M 257.332983 227.063732 
" style="fill:none;stroke:#60c960;stroke-linecap:round;stroke-opacity:0.65;stroke-width:1.5;"/>
    <defs>
     <path d="M 0 3.75 
C 0.994512 3.75 1.948425 3.354876 2.65165 2.65165 
C 3.354876 1.948425 3.75 0.994512 3.75 0 
C 3.75 -0.994512 3.354876 -1.948425 2.65165 -2.65165 
C 1.948425 -3.354876 0.994512 -3.75 0 -3.75 
C -0.994512 -3.75 -1.948425 -3.354876 -2.65165 -2.65165 
C -3.354876 -1.948425 -3.75 -0.994512 -3.75 0 
C -3.75 0.994512 -3.354876 1.948425 -2.65165 2.65165 
C -1.948425 3.354876 -0.994512 3.75 0 3.75 
z
" id="m3350a01cc8" style="stroke:#60c960;stroke-opacity:0.65;"/>
    </defs>
    <g clip-path="url(#pf8548e34d6)">
     <use style="fill:#60c960;fill-opacity:0.65;stroke:#60c960;stroke-opacity:0.65;" x="257.332983" xlink:href="#m3350a01cc8" y="227.063732"/>
    </g>
   </g>
   <g id="line2d_88">
    <path clip-path="url(#pf8548e34d6)" d="M 381.231022 267.898361 
" style="fill:none;stroke:#70ce56;stroke-linecap:round;stroke-opacity:0.65;stroke-width:1.5;"/>
    <defs>
     <path d="M 0 3.75 
C 0.994512 3.75 1.948425 3.354876 2.65165 2.65165 
C 3.354876 1.948425 3.75 0.994512 3.75 0 
C 3.75 -0.994512 3.354876 -1.948425 2.65165 -2.65165 
C 1.948425 -3.354876 0.994512 -3.75 0 -3.75 
C -0.994512 -3.75 -1.948425 -3.354876 -2.65165 -2.65165 
C -3.354876 -1.948425 -3.75 -0.994512 -3.75 0 
C -3.75 0.994512 -3.354876 1.948425 -2.65165 2.65165 
C -1.948425 3.354876 -0.994512 3.75 0 3.75 
z
" id="me00c433df3" style="stroke:#70ce56;stroke-opacity:0.65;"/>
    </defs>
    <g clip-path="url(#pf8548e34d6)">
     <use style="fill:#70ce56;fill-opacity:0.65;stroke:#70ce56;stroke-opacity:0.65;" x="381.231022" xlink:href="#me00c433df3" y="267.898361"/>
    </g>
   </g>
   <g id="line2d_89">
    <path clip-path="url(#pf8548e34d6)" d="M 247.479099 273.519878 
" style="fill:none;stroke:#f6e61f;stroke-linecap:round;stroke-opacity:0.65;stroke-width:1.5;"/>
    <g clip-path="url(#pf8548e34d6)">
     <use style="fill:#f6e61f;fill-opacity:0.65;stroke:#f6e61f;stroke-opacity:0.65;" x="247.479099" xlink:href="#ma944a1720e" y="273.519878"/>
    </g>
   </g>
   <g id="line2d_90">
    <path clip-path="url(#pf8548e34d6)" d="M 332.308747 234.991387 
" style="fill:none;stroke:#2cb17d;stroke-linecap:round;stroke-opacity:0.65;stroke-width:1.5;"/>
    <g clip-path="url(#pf8548e34d6)">
     <use style="fill:#2cb17d;fill-opacity:0.65;stroke:#2cb17d;stroke-opacity:0.65;" x="332.308747" xlink:href="#m7f91d396d6" y="234.991387"/>
    </g>
   </g>
   <g id="line2d_91"/>
   <g id="line2d_92"/>
   <g id="line2d_93"/>
   <g id="line2d_94"/>
   <g id="patch_3">
    <path d="M 71.771875 280.042969 
L 71.771875 39.232031 
" style="fill:none;stroke:#262626;stroke-linecap:square;stroke-linejoin:miter;stroke-width:0.8;"/>
   </g>
   <g id="patch_4">
    <path d="M 71.771875 280.042969 
L 435.438469 280.042969 
" style="fill:none;stroke:#262626;stroke-linecap:square;stroke-linejoin:miter;stroke-width:0.8;"/>
   </g>
   <g id="text_13">
    <text style="fill:#262626;font-family:Lato;font-size:15px;font-style:normal;font-weight:bold;text-anchor:middle;" transform="rotate(-0, 253.605172, 33.232031)" x="253.605172" y="33.232031">inferred AA lb index vs aa-cdist (80 observed, 80 total)</text>
   </g>
   <g id="legend_1">
    <g id="patch_5">
     <path d="M 92.355205 147.596953 
L 165.92083 147.596953 
Q 168.32083 147.596953 168.32083 145.196953 
L 168.32083 54.485078 
Q 168.32083 52.085078 165.92083 52.085078 
L 92.355205 52.085078 
Q 89.955205 52.085078 89.955205 54.485078 
L 89.955205 145.196953 
Q 89.955205 147.596953 92.355205 147.596953 
z
" style="fill:#ffffff;opacity:0.8;stroke:#cccccc;stroke-linejoin:miter;"/>
    </g>
    <g id="text_14">
     <text style="fill:#262626;font-family:Lato;font-size:20px;font-style:normal;font-weight:600;text-anchor:start;" transform="rotate(-0, 97.17708, 71.744453)" x="97.17708" y="71.744453">affinity</text>
    </g>
    <g id="line2d_95">
     <path d="M 94.755205 85.810078 
L 118.755205 85.810078 
" style="fill:none;"/>
    </g>
    <g id="line2d_96">
     <g>
      <use style="fill:#443982;fill-opacity:0.65;stroke:#443982;stroke-opacity:0.65;" x="106.755205" xlink:href="#m5e796860b6" y="85.810078"/>
     </g>
    </g>
    <g id="text_15">
     <text style="fill:#262626;font-family:Lato;font-size:12px;font-style:normal;font-weight:600;text-anchor:start;" transform="rotate(-0, 128.355205, 90.010078)" x="128.355205" y="90.010078">-4.430</text>
    </g>
    <g id="line2d_97">
     <path d="M 94.755205 102.735703 
L 118.755205 102.735703 
" style="fill:none;"/>
    </g>
    <g id="line2d_98">
     <g>
      <use style="fill:#25828e;fill-opacity:0.65;stroke:#25828e;stroke-opacity:0.65;" x="106.755205" xlink:href="#m090ab5a5c2" y="102.735703"/>
     </g>
    </g>
    <g id="text_16">
     <text style="fill:#262626;font-family:Lato;font-size:12px;font-style:normal;font-weight:600;text-anchor:start;" transform="rotate(-0, 128.355205, 106.935703)" x="128.355205" y="106.935703">-2.497</text>
    </g>
    <g id="line2d_99">
     <path d="M 94.755205 119.661328 
L 118.755205 119.661328 
" style="fill:none;"/>
    </g>
    <g id="line2d_100">
     <defs>
      <path d="M 0 3.75 
C 0.994512 3.75 1.948425 3.354876 2.65165 2.65165 
C 3.354876 1.948425 3.75 0.994512 3.75 0 
C 3.75 -0.994512 3.354876 -1.948425 2.65165 -2.65165 
C 1.948425 -3.354876 0.994512 -3.75 0 -3.75 
C -0.994512 -3.75 -1.948425 -3.354876 -2.65165 -2.65165 
C -3.354876 -1.948425 -3.75 -0.994512 -3.75 0 
C -3.75 0.994512 -3.354876 1.948425 -2.65165 2.65165 
C -1.948425 3.354876 -0.994512 3.75 0 3.75 
z
" id="m1a6932a78d" style="stroke:#4dc26b;stroke-opacity:0.65;"/>
     </defs>
     <g>
      <use style="fill:#4dc26b;fill-opacity:0.65;stroke:#4dc26b;stroke-opacity:0.65;" x="106.755205" xlink:href="#m1a6932a78d" y="119.661328"/>
     </g>
    </g>
    <g id="text_17">
     <text style="fill:#262626;font-family:Lato;font-size:12px;font-style:normal;font-weight:600;text-anchor:start;" transform="rotate(-0, 128.355205, 123.861328)" x="128.355205" y="123.861328">-0.564</text>
    </g>
    <g id="line2d_101">
     <path d="M 94.755205 136.586953 
L 118.755205 136.586953 
" style="fill:none;"/>
    </g>
    <g id="line2d_102">
     <g>
      <use style="fill:#fde724;fill-opacity:0.65;stroke:#fde724;stroke-opacity:0.65;" x="106.755205" xlink:href="#mb441b0ceff" y="136.586953"/>
     </g>
    </g>
    <g id="text_18">
     <text style="fill:#262626;font-family:Lato;font-size:12px;font-style:normal;font-weight:600;text-anchor:start;" transform="rotate(-0, 128.355205, 140.786953)" x="128.355205" y="140.786953">1.368</text>
    </g>
   </g>
  </g>
  <g id="text_19">
   <text style="fill:#262626;font-family:Lato;font-size:20px;font-style:normal;font-weight:bold;text-anchor:start;" transform="rotate(-0, 92.16, 58.752)" x="92.16" y="58.752">r = 0.599</text>
  </g>
 </g>
 <defs>
  <clipPath id="pf8548e34d6">
   <rect height="240.810937" width="363.666594" x="71.771875" y="39.232031"/>
  </clipPath>
 </defs>
</svg>
