<?xml version="1.0" encoding="utf-8" standalone="no"?>
<!DOCTYPE svg PUBLIC "-//W3C//DTD SVG 1.1//EN"
  "http://www.w3.org/Graphics/SVG/1.1/DTD/svg11.dtd">
<!-- Created with matplotlib (http://matplotlib.org/) -->
<svg height="345.6pt" version="1.1" viewBox="0 0 460.8 345.6" width="460.8pt" xmlns="http://www.w3.org/2000/svg" xmlns:xlink="http://www.w3.org/1999/xlink">
 <defs>
  <style type="text/css">
*{stroke-linecap:butt;stroke-linejoin:round;}
  </style>
 </defs>
 <g id="figure_1">
  <g id="patch_1">
   <path d="M 0 345.6 
L 460.8 345.6 
L 460.8 0 
L 0 0 
z
" style="fill:#ffffff;"/>
  </g>
  <g id="axes_1">
   <g id="patch_2">
    <path d="M 71.771875 280.042969 
L 435.438469 280.042969 
L 435.438469 39.232031 
L 71.771875 39.232031 
z
" style="fill:#ffffff;"/>
   </g>
   <g id="matplotlib.axis_1">
    <g id="xtick_1">
     <g id="line2d_1">
      <defs>
       <path d="M 0 0 
L 0 3.5 
" id="m5c4709bf14" style="stroke:#262626;stroke-width:0.8;"/>
      </defs>
      <g>
       <use style="fill:#262626;stroke:#262626;stroke-width:0.8;" x="85.44259" xlink:href="#m5c4709bf14" y="280.042969"/>
      </g>
     </g>
     <g id="text_1">
      <text style="fill:#262626;font-family:Lato;font-size:15px;font-style:normal;font-weight:600;text-anchor:middle;" transform="rotate(-0, 85.44259, 298.1875)" x="85.44259" y="298.1875">−8</text>
     </g>
    </g>
    <g id="xtick_2">
     <g id="line2d_2">
      <g>
       <use style="fill:#262626;stroke:#262626;stroke-width:0.8;" x="169.606102" xlink:href="#m5c4709bf14" y="280.042969"/>
      </g>
     </g>
     <g id="text_2">
      <text style="fill:#262626;font-family:Lato;font-size:15px;font-style:normal;font-weight:600;text-anchor:middle;" transform="rotate(-0, 169.606102, 298.1875)" x="169.606102" y="298.1875">−6</text>
     </g>
    </g>
    <g id="xtick_3">
     <g id="line2d_3">
      <g>
       <use style="fill:#262626;stroke:#262626;stroke-width:0.8;" x="253.769614" xlink:href="#m5c4709bf14" y="280.042969"/>
      </g>
     </g>
     <g id="text_3">
      <text style="fill:#262626;font-family:Lato;font-size:15px;font-style:normal;font-weight:600;text-anchor:middle;" transform="rotate(-0, 253.769614, 298.1875)" x="253.769614" y="298.1875">−4</text>
     </g>
    </g>
    <g id="xtick_4">
     <g id="line2d_4">
      <g>
       <use style="fill:#262626;stroke:#262626;stroke-width:0.8;" x="337.933126" xlink:href="#m5c4709bf14" y="280.042969"/>
      </g>
     </g>
     <g id="text_4">
      <text style="fill:#262626;font-family:Lato;font-size:15px;font-style:normal;font-weight:600;text-anchor:middle;" transform="rotate(-0, 337.933126, 298.1875)" x="337.933126" y="298.1875">−2</text>
     </g>
    </g>
    <g id="xtick_5">
     <g id="line2d_5">
      <g>
       <use style="fill:#262626;stroke:#262626;stroke-width:0.8;" x="422.096638" xlink:href="#m5c4709bf14" y="280.042969"/>
      </g>
     </g>
     <g id="text_5">
      <text style="fill:#262626;font-family:Lato;font-size:15px;font-style:normal;font-weight:600;text-anchor:middle;" transform="rotate(-0, 422.096638, 298.1875)" x="422.096638" y="298.1875">0</text>
     </g>
    </g>
    <g id="text_6">
     <text style="fill:#262626;font-family:Lato;font-size:20px;font-style:normal;font-weight:600;text-anchor:middle;" transform="rotate(-0, 253.605172, 320.4)" x="253.605172" y="320.4">aa-cdist (+jitter)</text>
    </g>
   </g>
   <g id="matplotlib.axis_2">
    <g id="ytick_1">
     <g id="line2d_6">
      <defs>
       <path d="M 0 0 
L -3.5 0 
" id="m62c053fa67" style="stroke:#262626;stroke-width:0.8;"/>
      </defs>
      <g>
       <use style="fill:#262626;stroke:#262626;stroke-width:0.8;" x="71.771875" xlink:href="#m62c053fa67" y="273.534565"/>
      </g>
     </g>
     <g id="text_7">
      <text style="fill:#262626;font-family:Lato;font-size:15px;font-style:normal;font-weight:600;text-anchor:end;" transform="rotate(-0, 64.771875, 279.106831)" x="64.771875" y="279.106831">0.0</text>
     </g>
    </g>
    <g id="ytick_2">
     <g id="line2d_7">
      <g>
       <use style="fill:#262626;stroke:#262626;stroke-width:0.8;" x="71.771875" xlink:href="#m62c053fa67" y="222.319395"/>
      </g>
     </g>
     <g id="text_8">
      <text style="fill:#262626;font-family:Lato;font-size:15px;font-style:normal;font-weight:600;text-anchor:end;" transform="rotate(-0, 64.771875, 227.891661)" x="64.771875" y="227.891661">0.5</text>
     </g>
    </g>
    <g id="ytick_3">
     <g id="line2d_8">
      <g>
       <use style="fill:#262626;stroke:#262626;stroke-width:0.8;" x="71.771875" xlink:href="#m62c053fa67" y="171.104225"/>
      </g>
     </g>
     <g id="text_9">
      <text style="fill:#262626;font-family:Lato;font-size:15px;font-style:normal;font-weight:600;text-anchor:end;" transform="rotate(-0, 64.771875, 176.67649)" x="64.771875" y="176.67649">1.0</text>
     </g>
    </g>
    <g id="ytick_4">
     <g id="line2d_9">
      <g>
       <use style="fill:#262626;stroke:#262626;stroke-width:0.8;" x="71.771875" xlink:href="#m62c053fa67" y="119.889054"/>
      </g>
     </g>
     <g id="text_10">
      <text style="fill:#262626;font-family:Lato;font-size:15px;font-style:normal;font-weight:600;text-anchor:end;" transform="rotate(-0, 64.771875, 125.46132)" x="64.771875" y="125.46132">1.5</text>
     </g>
    </g>
    <g id="ytick_5">
     <g id="line2d_10">
      <g>
       <use style="fill:#262626;stroke:#262626;stroke-width:0.8;" x="71.771875" xlink:href="#m62c053fa67" y="68.673884"/>
      </g>
     </g>
     <g id="text_11">
      <text style="fill:#262626;font-family:Lato;font-size:15px;font-style:normal;font-weight:600;text-anchor:end;" transform="rotate(-0, 64.771875, 74.24615)" x="64.771875" y="74.24615">2.0</text>
     </g>
    </g>
    <g id="text_12">
     <text style="fill:#262626;font-family:Lato;font-size:20px;font-style:normal;font-weight:600;text-anchor:middle;" transform="rotate(-90, 36.459375, 159.6375)" x="36.459375" y="159.6375">AA lb index</text>
    </g>
   </g>
   <g id="line2d_11">
    <path clip-path="url(#pc60e176718)" d="M 386.567244 181.482946 
" style="fill:none;stroke:#d2e11b;stroke-linecap:round;stroke-opacity:0.65;stroke-width:1.5;"/>
    <defs>
     <path d="M 0 3.75 
C 0.994512 3.75 1.948425 3.354876 2.65165 2.65165 
C 3.354876 1.948425 3.75 0.994512 3.75 0 
C 3.75 -0.994512 3.354876 -1.948425 2.65165 -2.65165 
C 1.948425 -3.354876 0.994512 -3.75 0 -3.75 
C -0.994512 -3.75 -1.948425 -3.354876 -2.65165 -2.65165 
C -3.354876 -1.948425 -3.75 -0.994512 -3.75 0 
C -3.75 0.994512 -3.354876 1.948425 -2.65165 2.65165 
C -1.948425 3.354876 -0.994512 3.75 0 3.75 
z
" id="mea92fa0193" style="stroke:#d2e11b;stroke-opacity:0.65;"/>
    </defs>
    <g clip-path="url(#pc60e176718)">
     <use style="fill:#d2e11b;fill-opacity:0.65;stroke:#d2e11b;stroke-opacity:0.65;" x="386.567244" xlink:href="#mea92fa0193" y="181.482946"/>
    </g>
   </g>
   <g id="line2d_12">
    <path clip-path="url(#pc60e176718)" d="M 209.571156 273.508084 
" style="fill:none;stroke:#24848d;stroke-linecap:round;stroke-opacity:0.65;stroke-width:1.5;"/>
    <defs>
     <path d="M 0 3.75 
C 0.994512 3.75 1.948425 3.354876 2.65165 2.65165 
C 3.354876 1.948425 3.75 0.994512 3.75 0 
C 3.75 -0.994512 3.354876 -1.948425 2.65165 -2.65165 
C 1.948425 -3.354876 0.994512 -3.75 0 -3.75 
C -0.994512 -3.75 -1.948425 -3.354876 -2.65165 -2.65165 
C -3.354876 -1.948425 -3.75 -0.994512 -3.75 0 
C -3.75 0.994512 -3.354876 1.948425 -2.65165 2.65165 
C -1.948425 3.354876 -0.994512 3.75 0 3.75 
z
" id="m33ec94e254" style="stroke:#24848d;stroke-opacity:0.65;"/>
    </defs>
    <g clip-path="url(#pc60e176718)">
     <use style="fill:#24848d;fill-opacity:0.65;stroke:#24848d;stroke-opacity:0.65;" x="209.571156" xlink:href="#m33ec94e254" y="273.508084"/>
    </g>
   </g>
   <g id="line2d_13">
    <path clip-path="url(#pc60e176718)" d="M 342.578682 234.5993 
" style="fill:none;stroke:#f6e61f;stroke-linecap:round;stroke-opacity:0.65;stroke-width:1.5;"/>
    <defs>
     <path d="M 0 3.75 
C 0.994512 3.75 1.948425 3.354876 2.65165 2.65165 
C 3.354876 1.948425 3.75 0.994512 3.75 0 
C 3.75 -0.994512 3.354876 -1.948425 2.65165 -2.65165 
C 1.948425 -3.354876 0.994512 -3.75 0 -3.75 
C -0.994512 -3.75 -1.948425 -3.354876 -2.65165 -2.65165 
C -3.354876 -1.948425 -3.75 -0.994512 -3.75 0 
C -3.75 0.994512 -3.354876 1.948425 -2.65165 2.65165 
C -1.948425 3.354876 -0.994512 3.75 0 3.75 
z
" id="m993da33bcf" style="stroke:#f6e61f;stroke-opacity:0.65;"/>
    </defs>
    <g clip-path="url(#pc60e176718)">
     <use style="fill:#f6e61f;fill-opacity:0.65;stroke:#f6e61f;stroke-opacity:0.65;" x="342.578682" xlink:href="#m993da33bcf" y="234.5993"/>
    </g>
   </g>
   <g id="line2d_14">
    <path clip-path="url(#pc60e176718)" d="M 253.290657 273.517182 
" style="fill:none;stroke:#f6e61f;stroke-linecap:round;stroke-opacity:0.65;stroke-width:1.5;"/>
    <g clip-path="url(#pc60e176718)">
     <use style="fill:#f6e61f;fill-opacity:0.65;stroke:#f6e61f;stroke-opacity:0.65;" x="253.290657" xlink:href="#m993da33bcf" y="273.517182"/>
    </g>
   </g>
   <g id="line2d_15">
    <path clip-path="url(#pc60e176718)" d="M 337.629692 194.823093 
" style="fill:none;stroke:#dae218;stroke-linecap:round;stroke-opacity:0.65;stroke-width:1.5;"/>
    <defs>
     <path d="M 0 3.75 
C 0.994512 3.75 1.948425 3.354876 2.65165 2.65165 
C 3.354876 1.948425 3.75 0.994512 3.75 0 
C 3.75 -0.994512 3.354876 -1.948425 2.65165 -2.65165 
C 1.948425 -3.354876 0.994512 -3.75 0 -3.75 
C -0.994512 -3.75 -1.948425 -3.354876 -2.65165 -2.65165 
C -3.354876 -1.948425 -3.75 -0.994512 -3.75 0 
C -3.75 0.994512 -3.354876 1.948425 -2.65165 2.65165 
C -1.948425 3.354876 -0.994512 3.75 0 3.75 
z
" id="m8d01c7e690" style="stroke:#dae218;stroke-opacity:0.65;"/>
    </defs>
    <g clip-path="url(#pc60e176718)">
     <use style="fill:#dae218;fill-opacity:0.65;stroke:#dae218;stroke-opacity:0.65;" x="337.629692" xlink:href="#m8d01c7e690" y="194.823093"/>
    </g>
   </g>
   <g id="line2d_16">
    <path clip-path="url(#pc60e176718)" d="M 332.854485 238.009174 
" style="fill:none;stroke:#dce218;stroke-linecap:round;stroke-opacity:0.65;stroke-width:1.5;"/>
    <defs>
     <path d="M 0 3.75 
C 0.994512 3.75 1.948425 3.354876 2.65165 2.65165 
C 3.354876 1.948425 3.75 0.994512 3.75 0 
C 3.75 -0.994512 3.354876 -1.948425 2.65165 -2.65165 
C 1.948425 -3.354876 0.994512 -3.75 0 -3.75 
C -0.994512 -3.75 -1.948425 -3.354876 -2.65165 -2.65165 
C -3.354876 -1.948425 -3.75 -0.994512 -3.75 0 
C -3.75 0.994512 -3.354876 1.948425 -2.65165 2.65165 
C -1.948425 3.354876 -0.994512 3.75 0 3.75 
z
" id="me4941f4136" style="stroke:#dce218;stroke-opacity:0.65;"/>
    </defs>
    <g clip-path="url(#pc60e176718)">
     <use style="fill:#dce218;fill-opacity:0.65;stroke:#dce218;stroke-opacity:0.65;" x="332.854485" xlink:href="#me4941f4136" y="238.009174"/>
    </g>
   </g>
   <g id="line2d_17">
    <path clip-path="url(#pc60e176718)" d="M 256.688492 273.517492 
" style="fill:none;stroke:#74d054;stroke-linecap:round;stroke-opacity:0.65;stroke-width:1.5;"/>
    <defs>
     <path d="M 0 3.75 
C 0.994512 3.75 1.948425 3.354876 2.65165 2.65165 
C 3.354876 1.948425 3.75 0.994512 3.75 0 
C 3.75 -0.994512 3.354876 -1.948425 2.65165 -2.65165 
C 1.948425 -3.354876 0.994512 -3.75 0 -3.75 
C -0.994512 -3.75 -1.948425 -3.354876 -2.65165 -2.65165 
C -3.354876 -1.948425 -3.75 -0.994512 -3.75 0 
C -3.75 0.994512 -3.354876 1.948425 -2.65165 2.65165 
C -1.948425 3.354876 -0.994512 3.75 0 3.75 
z
" id="m8a1834180a" style="stroke:#74d054;stroke-opacity:0.65;"/>
    </defs>
    <g clip-path="url(#pc60e176718)">
     <use style="fill:#74d054;fill-opacity:0.65;stroke:#74d054;stroke-opacity:0.65;" x="256.688492" xlink:href="#m8a1834180a" y="273.517492"/>
    </g>
   </g>
   <g id="line2d_18">
    <path clip-path="url(#pc60e176718)" d="M 124.120139 273.534565 
" style="fill:none;stroke:#2bb17d;stroke-linecap:round;stroke-opacity:0.65;stroke-width:1.5;"/>
    <defs>
     <path d="M 0 3.75 
C 0.994512 3.75 1.948425 3.354876 2.65165 2.65165 
C 3.354876 1.948425 3.75 0.994512 3.75 0 
C 3.75 -0.994512 3.354876 -1.948425 2.65165 -2.65165 
C 1.948425 -3.354876 0.994512 -3.75 0 -3.75 
C -0.994512 -3.75 -1.948425 -3.354876 -2.65165 -2.65165 
C -3.354876 -1.948425 -3.75 -0.994512 -3.75 0 
C -3.75 0.994512 -3.354876 1.948425 -2.65165 2.65165 
C -1.948425 3.354876 -0.994512 3.75 0 3.75 
z
" id="m8dd5537c59" style="stroke:#2bb17d;stroke-opacity:0.65;"/>
    </defs>
    <g clip-path="url(#pc60e176718)">
     <use style="fill:#2bb17d;fill-opacity:0.65;stroke:#2bb17d;stroke-opacity:0.65;" x="124.120139" xlink:href="#m8dd5537c59" y="273.534565"/>
    </g>
   </g>
   <g id="line2d_19">
    <path clip-path="url(#pc60e176718)" d="M 426.344484 56.587774 
" style="fill:none;stroke:#7cd24f;stroke-linecap:round;stroke-opacity:0.65;stroke-width:1.5;"/>
    <defs>
     <path d="M 0 3.75 
C 0.994512 3.75 1.948425 3.354876 2.65165 2.65165 
C 3.354876 1.948425 3.75 0.994512 3.75 0 
C 3.75 -0.994512 3.354876 -1.948425 2.65165 -2.65165 
C 1.948425 -3.354876 0.994512 -3.75 0 -3.75 
C -0.994512 -3.75 -1.948425 -3.354876 -2.65165 -2.65165 
C -3.354876 -1.948425 -3.75 -0.994512 -3.75 0 
C -3.75 0.994512 -3.354876 1.948425 -2.65165 2.65165 
C -1.948425 3.354876 -0.994512 3.75 0 3.75 
z
" id="m64b2f4be7d" style="stroke:#7cd24f;stroke-opacity:0.65;"/>
    </defs>
    <g clip-path="url(#pc60e176718)">
     <use style="fill:#7cd24f;fill-opacity:0.65;stroke:#7cd24f;stroke-opacity:0.65;" x="426.344484" xlink:href="#m64b2f4be7d" y="56.587774"/>
    </g>
   </g>
   <g id="line2d_20">
    <path clip-path="url(#pc60e176718)" d="M 426.486241 56.587774 
" style="fill:none;stroke:#88d547;stroke-linecap:round;stroke-opacity:0.65;stroke-width:1.5;"/>
    <defs>
     <path d="M 0 3.75 
C 0.994512 3.75 1.948425 3.354876 2.65165 2.65165 
C 3.354876 1.948425 3.75 0.994512 3.75 0 
C 3.75 -0.994512 3.354876 -1.948425 2.65165 -2.65165 
C 1.948425 -3.354876 0.994512 -3.75 0 -3.75 
C -0.994512 -3.75 -1.948425 -3.354876 -2.65165 -2.65165 
C -3.354876 -1.948425 -3.75 -0.994512 -3.75 0 
C -3.75 0.994512 -3.354876 1.948425 -2.65165 2.65165 
C -1.948425 3.354876 -0.994512 3.75 0 3.75 
z
" id="mc55c37ec47" style="stroke:#88d547;stroke-opacity:0.65;"/>
    </defs>
    <g clip-path="url(#pc60e176718)">
     <use style="fill:#88d547;fill-opacity:0.65;stroke:#88d547;stroke-opacity:0.65;" x="426.486241" xlink:href="#mc55c37ec47" y="56.587774"/>
    </g>
   </g>
   <g id="line2d_21">
    <path clip-path="url(#pc60e176718)" d="M 380.46125 250.351159 
" style="fill:none;stroke:#2cb17d;stroke-linecap:round;stroke-opacity:0.65;stroke-width:1.5;"/>
    <defs>
     <path d="M 0 3.75 
C 0.994512 3.75 1.948425 3.354876 2.65165 2.65165 
C 3.354876 1.948425 3.75 0.994512 3.75 0 
C 3.75 -0.994512 3.354876 -1.948425 2.65165 -2.65165 
C 1.948425 -3.354876 0.994512 -3.75 0 -3.75 
C -0.994512 -3.75 -1.948425 -3.354876 -2.65165 -2.65165 
C -3.354876 -1.948425 -3.75 -0.994512 -3.75 0 
C -3.75 0.994512 -3.354876 1.948425 -2.65165 2.65165 
C -1.948425 3.354876 -0.994512 3.75 0 3.75 
z
" id="ma78590bf1a" style="stroke:#2cb17d;stroke-opacity:0.65;"/>
    </defs>
    <g clip-path="url(#pc60e176718)">
     <use style="fill:#2cb17d;fill-opacity:0.65;stroke:#2cb17d;stroke-opacity:0.65;" x="380.46125" xlink:href="#ma78590bf1a" y="250.351159"/>
    </g>
   </g>
   <g id="line2d_22">
    <path clip-path="url(#pc60e176718)" d="M 298.726001 273.53012 
" style="fill:none;stroke:#32b57a;stroke-linecap:round;stroke-opacity:0.65;stroke-width:1.5;"/>
    <defs>
     <path d="M 0 3.75 
C 0.994512 3.75 1.948425 3.354876 2.65165 2.65165 
C 3.354876 1.948425 3.75 0.994512 3.75 0 
C 3.75 -0.994512 3.354876 -1.948425 2.65165 -2.65165 
C 1.948425 -3.354876 0.994512 -3.75 0 -3.75 
C -0.994512 -3.75 -1.948425 -3.354876 -2.65165 -2.65165 
C -3.354876 -1.948425 -3.75 -0.994512 -3.75 0 
C -3.75 0.994512 -3.354876 1.948425 -2.65165 2.65165 
C -1.948425 3.354876 -0.994512 3.75 0 3.75 
z
" id="me8347dc54c" style="stroke:#32b57a;stroke-opacity:0.65;"/>
    </defs>
    <g clip-path="url(#pc60e176718)">
     <use style="fill:#32b57a;fill-opacity:0.65;stroke:#32b57a;stroke-opacity:0.65;" x="298.726001" xlink:href="#me8347dc54c" y="273.53012"/>
    </g>
   </g>
   <g id="line2d_23">
    <path clip-path="url(#pc60e176718)" d="M 211.250835 234.799678 
" style="fill:none;stroke:#dae218;stroke-linecap:round;stroke-opacity:0.65;stroke-width:1.5;"/>
    <g clip-path="url(#pc60e176718)">
     <use style="fill:#dae218;fill-opacity:0.65;stroke:#dae218;stroke-opacity:0.65;" x="211.250835" xlink:href="#m8d01c7e690" y="234.799678"/>
    </g>
   </g>
   <g id="line2d_24">
    <path clip-path="url(#pc60e176718)" d="M 379.532911 138.522708 
" style="fill:none;stroke:#9ad83c;stroke-linecap:round;stroke-opacity:0.65;stroke-width:1.5;"/>
    <defs>
     <path d="M 0 3.75 
C 0.994512 3.75 1.948425 3.354876 2.65165 2.65165 
C 3.354876 1.948425 3.75 0.994512 3.75 0 
C 3.75 -0.994512 3.354876 -1.948425 2.65165 -2.65165 
C 1.948425 -3.354876 0.994512 -3.75 0 -3.75 
C -0.994512 -3.75 -1.948425 -3.354876 -2.65165 -2.65165 
C -3.354876 -1.948425 -3.75 -0.994512 -3.75 0 
C -3.75 0.994512 -3.354876 1.948425 -2.65165 2.65165 
C -1.948425 3.354876 -0.994512 3.75 0 3.75 
z
" id="m3851afcc81" style="stroke:#9ad83c;stroke-opacity:0.65;"/>
    </defs>
    <g clip-path="url(#pc60e176718)">
     <use style="fill:#9ad83c;fill-opacity:0.65;stroke:#9ad83c;stroke-opacity:0.65;" x="379.532911" xlink:href="#m3851afcc81" y="138.522708"/>
    </g>
   </g>
   <g id="line2d_25">
    <path clip-path="url(#pc60e176718)" d="M 342.829191 253.256756 
" style="fill:none;stroke:#64cb5d;stroke-linecap:round;stroke-opacity:0.65;stroke-width:1.5;"/>
    <defs>
     <path d="M 0 3.75 
C 0.994512 3.75 1.948425 3.354876 2.65165 2.65165 
C 3.354876 1.948425 3.75 0.994512 3.75 0 
C 3.75 -0.994512 3.354876 -1.948425 2.65165 -2.65165 
C 1.948425 -3.354876 0.994512 -3.75 0 -3.75 
C -0.994512 -3.75 -1.948425 -3.354876 -2.65165 -2.65165 
C -3.354876 -1.948425 -3.75 -0.994512 -3.75 0 
C -3.75 0.994512 -3.354876 1.948425 -2.65165 2.65165 
C -1.948425 3.354876 -0.994512 3.75 0 3.75 
z
" id="me6a1381d03" style="stroke:#64cb5d;stroke-opacity:0.65;"/>
    </defs>
    <g clip-path="url(#pc60e176718)">
     <use style="fill:#64cb5d;fill-opacity:0.65;stroke:#64cb5d;stroke-opacity:0.65;" x="342.829191" xlink:href="#me6a1381d03" y="253.256756"/>
    </g>
   </g>
   <g id="line2d_26">
    <path clip-path="url(#pc60e176718)" d="M 336.54057 253.256756 
" style="fill:none;stroke:#5ec961;stroke-linecap:round;stroke-opacity:0.65;stroke-width:1.5;"/>
    <defs>
     <path d="M 0 3.75 
C 0.994512 3.75 1.948425 3.354876 2.65165 2.65165 
C 3.354876 1.948425 3.75 0.994512 3.75 0 
C 3.75 -0.994512 3.354876 -1.948425 2.65165 -2.65165 
C 1.948425 -3.354876 0.994512 -3.75 0 -3.75 
C -0.994512 -3.75 -1.948425 -3.354876 -2.65165 -2.65165 
C -3.354876 -1.948425 -3.75 -0.994512 -3.75 0 
C -3.75 0.994512 -3.354876 1.948425 -2.65165 2.65165 
C -1.948425 3.354876 -0.994512 3.75 0 3.75 
z
" id="m55d94d8f0f" style="stroke:#5ec961;stroke-opacity:0.65;"/>
    </defs>
    <g clip-path="url(#pc60e176718)">
     <use style="fill:#5ec961;fill-opacity:0.65;stroke:#5ec961;stroke-opacity:0.65;" x="336.54057" xlink:href="#m55d94d8f0f" y="253.256756"/>
    </g>
   </g>
   <g id="line2d_27">
    <path clip-path="url(#pc60e176718)" d="M 428.44488 56.587774 
" style="fill:none;stroke:#32b57a;stroke-linecap:round;stroke-opacity:0.65;stroke-width:1.5;"/>
    <g clip-path="url(#pc60e176718)">
     <use style="fill:#32b57a;fill-opacity:0.65;stroke:#32b57a;stroke-opacity:0.65;" x="428.44488" xlink:href="#me8347dc54c" y="56.587774"/>
    </g>
   </g>
   <g id="line2d_28">
    <path clip-path="url(#pc60e176718)" d="M 248.714586 273.531941 
" style="fill:none;stroke:#355d8c;stroke-linecap:round;stroke-opacity:0.65;stroke-width:1.5;"/>
    <defs>
     <path d="M 0 3.75 
C 0.994512 3.75 1.948425 3.354876 2.65165 2.65165 
C 3.354876 1.948425 3.75 0.994512 3.75 0 
C 3.75 -0.994512 3.354876 -1.948425 2.65165 -2.65165 
C 1.948425 -3.354876 0.994512 -3.75 0 -3.75 
C -0.994512 -3.75 -1.948425 -3.354876 -2.65165 -2.65165 
C -3.354876 -1.948425 -3.75 -0.994512 -3.75 0 
C -3.75 0.994512 -3.354876 1.948425 -2.65165 2.65165 
C -1.948425 3.354876 -0.994512 3.75 0 3.75 
z
" id="mdd7ad267d2" style="stroke:#355d8c;stroke-opacity:0.65;"/>
    </defs>
    <g clip-path="url(#pc60e176718)">
     <use style="fill:#355d8c;fill-opacity:0.65;stroke:#355d8c;stroke-opacity:0.65;" x="248.714586" xlink:href="#mdd7ad267d2" y="273.531941"/>
    </g>
   </g>
   <g id="line2d_29">
    <path clip-path="url(#pc60e176718)" d="M 336.821141 273.376466 
" style="fill:none;stroke:#83d34b;stroke-linecap:round;stroke-opacity:0.65;stroke-width:1.5;"/>
    <defs>
     <path d="M 0 3.75 
C 0.994512 3.75 1.948425 3.354876 2.65165 2.65165 
C 3.354876 1.948425 3.75 0.994512 3.75 0 
C 3.75 -0.994512 3.354876 -1.948425 2.65165 -2.65165 
C 1.948425 -3.354876 0.994512 -3.75 0 -3.75 
C -0.994512 -3.75 -1.948425 -3.354876 -2.65165 -2.65165 
C -3.354876 -1.948425 -3.75 -0.994512 -3.75 0 
C -3.75 0.994512 -3.354876 1.948425 -2.65165 2.65165 
C -1.948425 3.354876 -0.994512 3.75 0 3.75 
z
" id="meb9081f020" style="stroke:#83d34b;stroke-opacity:0.65;"/>
    </defs>
    <g clip-path="url(#pc60e176718)">
     <use style="fill:#83d34b;fill-opacity:0.65;stroke:#83d34b;stroke-opacity:0.65;" x="336.821141" xlink:href="#meb9081f020" y="273.376466"/>
    </g>
   </g>
   <g id="line2d_30">
    <path clip-path="url(#pc60e176718)" d="M 298.582409 271.784939 
" style="fill:none;stroke:#dfe318;stroke-linecap:round;stroke-opacity:0.65;stroke-width:1.5;"/>
    <defs>
     <path d="M 0 3.75 
C 0.994512 3.75 1.948425 3.354876 2.65165 2.65165 
C 3.354876 1.948425 3.75 0.994512 3.75 0 
C 3.75 -0.994512 3.354876 -1.948425 2.65165 -2.65165 
C 1.948425 -3.354876 0.994512 -3.75 0 -3.75 
C -0.994512 -3.75 -1.948425 -3.354876 -2.65165 -2.65165 
C -3.354876 -1.948425 -3.75 -0.994512 -3.75 0 
C -3.75 0.994512 -3.354876 1.948425 -2.65165 2.65165 
C -1.948425 3.354876 -0.994512 3.75 0 3.75 
z
" id="ma72bc0173a" style="stroke:#dfe318;stroke-opacity:0.65;"/>
    </defs>
    <g clip-path="url(#pc60e176718)">
     <use style="fill:#dfe318;fill-opacity:0.65;stroke:#dfe318;stroke-opacity:0.65;" x="298.582409" xlink:href="#ma72bc0173a" y="271.784939"/>
    </g>
   </g>
   <g id="line2d_31">
    <path clip-path="url(#pc60e176718)" d="M 249.710215 262.814642 
" style="fill:none;stroke:#1f958b;stroke-linecap:round;stroke-opacity:0.65;stroke-width:1.5;"/>
    <defs>
     <path d="M 0 3.75 
C 0.994512 3.75 1.948425 3.354876 2.65165 2.65165 
C 3.354876 1.948425 3.75 0.994512 3.75 0 
C 3.75 -0.994512 3.354876 -1.948425 2.65165 -2.65165 
C 1.948425 -3.354876 0.994512 -3.75 0 -3.75 
C -0.994512 -3.75 -1.948425 -3.354876 -2.65165 -2.65165 
C -3.354876 -1.948425 -3.75 -0.994512 -3.75 0 
C -3.75 0.994512 -3.354876 1.948425 -2.65165 2.65165 
C -1.948425 3.354876 -0.994512 3.75 0 3.75 
z
" id="m4dbec7d6c6" style="stroke:#1f958b;stroke-opacity:0.65;"/>
    </defs>
    <g clip-path="url(#pc60e176718)">
     <use style="fill:#1f958b;fill-opacity:0.65;stroke:#1f958b;stroke-opacity:0.65;" x="249.710215" xlink:href="#m4dbec7d6c6" y="262.814642"/>
    </g>
   </g>
   <g id="line2d_32">
    <path clip-path="url(#pc60e176718)" d="M 163.441838 272.908907 
" style="fill:none;stroke:#dce218;stroke-linecap:round;stroke-opacity:0.65;stroke-width:1.5;"/>
    <g clip-path="url(#pc60e176718)">
     <use style="fill:#dce218;fill-opacity:0.65;stroke:#dce218;stroke-opacity:0.65;" x="163.441838" xlink:href="#me4941f4136" y="272.908907"/>
    </g>
   </g>
   <g id="line2d_33">
    <path clip-path="url(#pc60e176718)" d="M 291.163772 223.089439 
" style="fill:none;stroke:#1e9f88;stroke-linecap:round;stroke-opacity:0.65;stroke-width:1.5;"/>
    <defs>
     <path d="M 0 3.75 
C 0.994512 3.75 1.948425 3.354876 2.65165 2.65165 
C 3.354876 1.948425 3.75 0.994512 3.75 0 
C 3.75 -0.994512 3.354876 -1.948425 2.65165 -2.65165 
C 1.948425 -3.354876 0.994512 -3.75 0 -3.75 
C -0.994512 -3.75 -1.948425 -3.354876 -2.65165 -2.65165 
C -3.354876 -1.948425 -3.75 -0.994512 -3.75 0 
C -3.75 0.994512 -3.354876 1.948425 -2.65165 2.65165 
C -1.948425 3.354876 -0.994512 3.75 0 3.75 
z
" id="mff8a580beb" style="stroke:#1e9f88;stroke-opacity:0.65;"/>
    </defs>
    <g clip-path="url(#pc60e176718)">
     <use style="fill:#1e9f88;fill-opacity:0.65;stroke:#1e9f88;stroke-opacity:0.65;" x="291.163772" xlink:href="#mff8a580beb" y="223.089439"/>
    </g>
   </g>
   <g id="line2d_34">
    <path clip-path="url(#pc60e176718)" d="M 298.143565 273.53012 
" style="fill:none;stroke:#4fc369;stroke-linecap:round;stroke-opacity:0.65;stroke-width:1.5;"/>
    <defs>
     <path d="M 0 3.75 
C 0.994512 3.75 1.948425 3.354876 2.65165 2.65165 
C 3.354876 1.948425 3.75 0.994512 3.75 0 
C 3.75 -0.994512 3.354876 -1.948425 2.65165 -2.65165 
C 1.948425 -3.354876 0.994512 -3.75 0 -3.75 
C -0.994512 -3.75 -1.948425 -3.354876 -2.65165 -2.65165 
C -3.354876 -1.948425 -3.75 -0.994512 -3.75 0 
C -3.75 0.994512 -3.354876 1.948425 -2.65165 2.65165 
C -1.948425 3.354876 -0.994512 3.75 0 3.75 
z
" id="ma1e355e268" style="stroke:#4fc369;stroke-opacity:0.65;"/>
    </defs>
    <g clip-path="url(#pc60e176718)">
     <use style="fill:#4fc369;fill-opacity:0.65;stroke:#4fc369;stroke-opacity:0.65;" x="298.143565" xlink:href="#ma1e355e268" y="273.53012"/>
    </g>
   </g>
   <g id="line2d_35">
    <path clip-path="url(#pc60e176718)" d="M 386.218748 138.522708 
" style="fill:none;stroke:#9ad83c;stroke-linecap:round;stroke-opacity:0.65;stroke-width:1.5;"/>
    <g clip-path="url(#pc60e176718)">
     <use style="fill:#9ad83c;fill-opacity:0.65;stroke:#9ad83c;stroke-opacity:0.65;" x="386.218748" xlink:href="#m3851afcc81" y="138.522708"/>
    </g>
   </g>
   <g id="line2d_36">
    <path clip-path="url(#pc60e176718)" d="M 385.527022 267.898361 
" style="fill:none;stroke:#32b57a;stroke-linecap:round;stroke-opacity:0.65;stroke-width:1.5;"/>
    <g clip-path="url(#pc60e176718)">
     <use style="fill:#32b57a;fill-opacity:0.65;stroke:#32b57a;stroke-opacity:0.65;" x="385.527022" xlink:href="#me8347dc54c" y="267.898361"/>
    </g>
   </g>
   <g id="line2d_37">
    <path clip-path="url(#pc60e176718)" d="M 340.2363 253.270151 
" style="fill:none;stroke:#8dd644;stroke-linecap:round;stroke-opacity:0.65;stroke-width:1.5;"/>
    <defs>
     <path d="M 0 3.75 
C 0.994512 3.75 1.948425 3.354876 2.65165 2.65165 
C 3.354876 1.948425 3.75 0.994512 3.75 0 
C 3.75 -0.994512 3.354876 -1.948425 2.65165 -2.65165 
C 1.948425 -3.354876 0.994512 -3.75 0 -3.75 
C -0.994512 -3.75 -1.948425 -3.354876 -2.65165 -2.65165 
C -3.354876 -1.948425 -3.75 -0.994512 -3.75 0 
C -3.75 0.994512 -3.354876 1.948425 -2.65165 2.65165 
C -1.948425 3.354876 -0.994512 3.75 0 3.75 
z
" id="md9d3c68308" style="stroke:#8dd644;stroke-opacity:0.65;"/>
    </defs>
    <g clip-path="url(#pc60e176718)">
     <use style="fill:#8dd644;fill-opacity:0.65;stroke:#8dd644;stroke-opacity:0.65;" x="340.2363" xlink:href="#md9d3c68308" y="253.270151"/>
    </g>
   </g>
   <g id="line2d_38">
    <path clip-path="url(#pc60e176718)" d="M 377.385075 267.898361 
" style="fill:none;stroke:#67cc5c;stroke-linecap:round;stroke-opacity:0.65;stroke-width:1.5;"/>
    <defs>
     <path d="M 0 3.75 
C 0.994512 3.75 1.948425 3.354876 2.65165 2.65165 
C 3.354876 1.948425 3.75 0.994512 3.75 0 
C 3.75 -0.994512 3.354876 -1.948425 2.65165 -2.65165 
C 1.948425 -3.354876 0.994512 -3.75 0 -3.75 
C -0.994512 -3.75 -1.948425 -3.354876 -2.65165 -2.65165 
C -3.354876 -1.948425 -3.75 -0.994512 -3.75 0 
C -3.75 0.994512 -3.354876 1.948425 -2.65165 2.65165 
C -1.948425 3.354876 -0.994512 3.75 0 3.75 
z
" id="m12cba7348e" style="stroke:#67cc5c;stroke-opacity:0.65;"/>
    </defs>
    <g clip-path="url(#pc60e176718)">
     <use style="fill:#67cc5c;fill-opacity:0.65;stroke:#67cc5c;stroke-opacity:0.65;" x="377.385075" xlink:href="#m12cba7348e" y="267.898361"/>
    </g>
   </g>
   <g id="line2d_39">
    <path clip-path="url(#pc60e176718)" d="M 258.60646 273.532896 
" style="fill:none;stroke:#443982;stroke-linecap:round;stroke-opacity:0.65;stroke-width:1.5;"/>
    <defs>
     <path d="M 0 3.75 
C 0.994512 3.75 1.948425 3.354876 2.65165 2.65165 
C 3.354876 1.948425 3.75 0.994512 3.75 0 
C 3.75 -0.994512 3.354876 -1.948425 2.65165 -2.65165 
C 1.948425 -3.354876 0.994512 -3.75 0 -3.75 
C -0.994512 -3.75 -1.948425 -3.354876 -2.65165 -2.65165 
C -3.354876 -1.948425 -3.75 -0.994512 -3.75 0 
C -3.75 0.994512 -3.354876 1.948425 -2.65165 2.65165 
C -1.948425 3.354876 -0.994512 3.75 0 3.75 
z
" id="mb59e451f8c" style="stroke:#443982;stroke-opacity:0.65;"/>
    </defs>
    <g clip-path="url(#pc60e176718)">
     <use style="fill:#443982;fill-opacity:0.65;stroke:#443982;stroke-opacity:0.65;" x="258.60646" xlink:href="#mb59e451f8c" y="273.532896"/>
    </g>
   </g>
   <g id="line2d_40">
    <path clip-path="url(#pc60e176718)" d="M 380.165797 267.898361 
" style="fill:none;stroke:#59c764;stroke-linecap:round;stroke-opacity:0.65;stroke-width:1.5;"/>
    <defs>
     <path d="M 0 3.75 
C 0.994512 3.75 1.948425 3.354876 2.65165 2.65165 
C 3.354876 1.948425 3.75 0.994512 3.75 0 
C 3.75 -0.994512 3.354876 -1.948425 2.65165 -2.65165 
C 1.948425 -3.354876 0.994512 -3.75 0 -3.75 
C -0.994512 -3.75 -1.948425 -3.354876 -2.65165 -2.65165 
C -3.354876 -1.948425 -3.75 -0.994512 -3.75 0 
C -3.75 0.994512 -3.354876 1.948425 -2.65165 2.65165 
C -1.948425 3.354876 -0.994512 3.75 0 3.75 
z
" id="mba06abc81a" style="stroke:#59c764;stroke-opacity:0.65;"/>
    </defs>
    <g clip-path="url(#pc60e176718)">
     <use style="fill:#59c764;fill-opacity:0.65;stroke:#59c764;stroke-opacity:0.65;" x="380.165797" xlink:href="#mba06abc81a" y="267.898361"/>
    </g>
   </g>
   <g id="line2d_41">
    <path clip-path="url(#pc60e176718)" d="M 340.824066 234.991387 
" style="fill:none;stroke:#6bcd59;stroke-linecap:round;stroke-opacity:0.65;stroke-width:1.5;"/>
    <defs>
     <path d="M 0 3.75 
C 0.994512 3.75 1.948425 3.354876 2.65165 2.65165 
C 3.354876 1.948425 3.75 0.994512 3.75 0 
C 3.75 -0.994512 3.354876 -1.948425 2.65165 -2.65165 
C 1.948425 -3.354876 0.994512 -3.75 0 -3.75 
C -0.994512 -3.75 -1.948425 -3.354876 -2.65165 -2.65165 
C -3.354876 -1.948425 -3.75 -0.994512 -3.75 0 
C -3.75 0.994512 -3.354876 1.948425 -2.65165 2.65165 
C -1.948425 3.354876 -0.994512 3.75 0 3.75 
z
" id="mf8825b00c7" style="stroke:#6bcd59;stroke-opacity:0.65;"/>
    </defs>
    <g clip-path="url(#pc60e176718)">
     <use style="fill:#6bcd59;fill-opacity:0.65;stroke:#6bcd59;stroke-opacity:0.65;" x="340.824066" xlink:href="#mf8825b00c7" y="234.991387"/>
    </g>
   </g>
   <g id="line2d_42">
    <path clip-path="url(#pc60e176718)" d="M 251.576376 273.531941 
" style="fill:none;stroke:#a7db33;stroke-linecap:round;stroke-opacity:0.65;stroke-width:1.5;"/>
    <defs>
     <path d="M 0 3.75 
C 0.994512 3.75 1.948425 3.354876 2.65165 2.65165 
C 3.354876 1.948425 3.75 0.994512 3.75 0 
C 3.75 -0.994512 3.354876 -1.948425 2.65165 -2.65165 
C 1.948425 -3.354876 0.994512 -3.75 0 -3.75 
C -0.994512 -3.75 -1.948425 -3.354876 -2.65165 -2.65165 
C -3.354876 -1.948425 -3.75 -0.994512 -3.75 0 
C -3.75 0.994512 -3.354876 1.948425 -2.65165 2.65165 
C -1.948425 3.354876 -0.994512 3.75 0 3.75 
z
" id="m377933f360" style="stroke:#a7db33;stroke-opacity:0.65;"/>
    </defs>
    <g clip-path="url(#pc60e176718)">
     <use style="fill:#a7db33;fill-opacity:0.65;stroke:#a7db33;stroke-opacity:0.65;" x="251.576376" xlink:href="#m377933f360" y="273.531941"/>
    </g>
   </g>
   <g id="line2d_43">
    <path clip-path="url(#pc60e176718)" d="M 257.045025 271.778196 
" style="fill:none;stroke:#f1e51c;stroke-linecap:round;stroke-opacity:0.65;stroke-width:1.5;"/>
    <defs>
     <path d="M 0 3.75 
C 0.994512 3.75 1.948425 3.354876 2.65165 2.65165 
C 3.354876 1.948425 3.75 0.994512 3.75 0 
C 3.75 -0.994512 3.354876 -1.948425 2.65165 -2.65165 
C 1.948425 -3.354876 0.994512 -3.75 0 -3.75 
C -0.994512 -3.75 -1.948425 -3.354876 -2.65165 -2.65165 
C -3.354876 -1.948425 -3.75 -0.994512 -3.75 0 
C -3.75 0.994512 -3.354876 1.948425 -2.65165 2.65165 
C -1.948425 3.354876 -0.994512 3.75 0 3.75 
z
" id="mdada7caa02" style="stroke:#f1e51c;stroke-opacity:0.65;"/>
    </defs>
    <g clip-path="url(#pc60e176718)">
     <use style="fill:#f1e51c;fill-opacity:0.65;stroke:#f1e51c;stroke-opacity:0.65;" x="257.045025" xlink:href="#mdada7caa02" y="271.778196"/>
    </g>
   </g>
   <g id="line2d_44">
    <path clip-path="url(#pc60e176718)" d="M 248.895508 227.063732 
" style="fill:none;stroke:#e7e419;stroke-linecap:round;stroke-opacity:0.65;stroke-width:1.5;"/>
    <defs>
     <path d="M 0 3.75 
C 0.994512 3.75 1.948425 3.354876 2.65165 2.65165 
C 3.354876 1.948425 3.75 0.994512 3.75 0 
C 3.75 -0.994512 3.354876 -1.948425 2.65165 -2.65165 
C 1.948425 -3.354876 0.994512 -3.75 0 -3.75 
C -0.994512 -3.75 -1.948425 -3.354876 -2.65165 -2.65165 
C -3.354876 -1.948425 -3.75 -0.994512 -3.75 0 
C -3.75 0.994512 -3.354876 1.948425 -2.65165 2.65165 
C -1.948425 3.354876 -0.994512 3.75 0 3.75 
z
" id="m0a722ac975" style="stroke:#e7e419;stroke-opacity:0.65;"/>
    </defs>
    <g clip-path="url(#pc60e176718)">
     <use style="fill:#e7e419;fill-opacity:0.65;stroke:#e7e419;stroke-opacity:0.65;" x="248.895508" xlink:href="#m0a722ac975" y="227.063732"/>
    </g>
   </g>
   <g id="line2d_45">
    <path clip-path="url(#pc60e176718)" d="M 378.438103 181.482946 
" style="fill:none;stroke:#cfe11c;stroke-linecap:round;stroke-opacity:0.65;stroke-width:1.5;"/>
    <defs>
     <path d="M 0 3.75 
C 0.994512 3.75 1.948425 3.354876 2.65165 2.65165 
C 3.354876 1.948425 3.75 0.994512 3.75 0 
C 3.75 -0.994512 3.354876 -1.948425 2.65165 -2.65165 
C 1.948425 -3.354876 0.994512 -3.75 0 -3.75 
C -0.994512 -3.75 -1.948425 -3.354876 -2.65165 -2.65165 
C -3.354876 -1.948425 -3.75 -0.994512 -3.75 0 
C -3.75 0.994512 -3.354876 1.948425 -2.65165 2.65165 
C -1.948425 3.354876 -0.994512 3.75 0 3.75 
z
" id="md4161ac254" style="stroke:#cfe11c;stroke-opacity:0.65;"/>
    </defs>
    <g clip-path="url(#pc60e176718)">
     <use style="fill:#cfe11c;fill-opacity:0.65;stroke:#cfe11c;stroke-opacity:0.65;" x="378.438103" xlink:href="#md4161ac254" y="181.482946"/>
    </g>
   </g>
   <g id="line2d_46">
    <path clip-path="url(#pc60e176718)" d="M 382.084757 250.351159 
" style="fill:none;stroke:#27ad80;stroke-linecap:round;stroke-opacity:0.65;stroke-width:1.5;"/>
    <defs>
     <path d="M 0 3.75 
C 0.994512 3.75 1.948425 3.354876 2.65165 2.65165 
C 3.354876 1.948425 3.75 0.994512 3.75 0 
C 3.75 -0.994512 3.354876 -1.948425 2.65165 -2.65165 
C 1.948425 -3.354876 0.994512 -3.75 0 -3.75 
C -0.994512 -3.75 -1.948425 -3.354876 -2.65165 -2.65165 
C -3.354876 -1.948425 -3.75 -0.994512 -3.75 0 
C -3.75 0.994512 -3.354876 1.948425 -2.65165 2.65165 
C -1.948425 3.354876 -0.994512 3.75 0 3.75 
z
" id="md84051f195" style="stroke:#27ad80;stroke-opacity:0.65;"/>
    </defs>
    <g clip-path="url(#pc60e176718)">
     <use style="fill:#27ad80;fill-opacity:0.65;stroke:#27ad80;stroke-opacity:0.65;" x="382.084757" xlink:href="#md84051f195" y="250.351159"/>
    </g>
   </g>
   <g id="line2d_47">
    <path clip-path="url(#pc60e176718)" d="M 374.04797 251.429529 
" style="fill:none;stroke:#29788e;stroke-linecap:round;stroke-opacity:0.65;stroke-width:1.5;"/>
    <defs>
     <path d="M 0 3.75 
C 0.994512 3.75 1.948425 3.354876 2.65165 2.65165 
C 3.354876 1.948425 3.75 0.994512 3.75 0 
C 3.75 -0.994512 3.354876 -1.948425 2.65165 -2.65165 
C 1.948425 -3.354876 0.994512 -3.75 0 -3.75 
C -0.994512 -3.75 -1.948425 -3.354876 -2.65165 -2.65165 
C -3.354876 -1.948425 -3.75 -0.994512 -3.75 0 
C -3.75 0.994512 -3.354876 1.948425 -2.65165 2.65165 
C -1.948425 3.354876 -0.994512 3.75 0 3.75 
z
" id="mbb601ffd2d" style="stroke:#29788e;stroke-opacity:0.65;"/>
    </defs>
    <g clip-path="url(#pc60e176718)">
     <use style="fill:#29788e;fill-opacity:0.65;stroke:#29788e;stroke-opacity:0.65;" x="374.04797" xlink:href="#mbb601ffd2d" y="251.429529"/>
    </g>
   </g>
   <g id="line2d_48">
    <path clip-path="url(#pc60e176718)" d="M 169.212767 273.534563 
" style="fill:none;stroke:#29af7f;stroke-linecap:round;stroke-opacity:0.65;stroke-width:1.5;"/>
    <defs>
     <path d="M 0 3.75 
C 0.994512 3.75 1.948425 3.354876 2.65165 2.65165 
C 3.354876 1.948425 3.75 0.994512 3.75 0 
C 3.75 -0.994512 3.354876 -1.948425 2.65165 -2.65165 
C 1.948425 -3.354876 0.994512 -3.75 0 -3.75 
C -0.994512 -3.75 -1.948425 -3.354876 -2.65165 -2.65165 
C -3.354876 -1.948425 -3.75 -0.994512 -3.75 0 
C -3.75 0.994512 -3.354876 1.948425 -2.65165 2.65165 
C -1.948425 3.354876 -0.994512 3.75 0 3.75 
z
" id="m618b79f513" style="stroke:#29af7f;stroke-opacity:0.65;"/>
    </defs>
    <g clip-path="url(#pc60e176718)">
     <use style="fill:#29af7f;fill-opacity:0.65;stroke:#29af7f;stroke-opacity:0.65;" x="169.212767" xlink:href="#m618b79f513" y="273.534563"/>
    </g>
   </g>
   <g id="line2d_49">
    <path clip-path="url(#pc60e176718)" d="M 289.581074 194.583267 
" style="fill:none;stroke:#f3e51e;stroke-linecap:round;stroke-opacity:0.65;stroke-width:1.5;"/>
    <defs>
     <path d="M 0 3.75 
C 0.994512 3.75 1.948425 3.354876 2.65165 2.65165 
C 3.354876 1.948425 3.75 0.994512 3.75 0 
C 3.75 -0.994512 3.354876 -1.948425 2.65165 -2.65165 
C 1.948425 -3.354876 0.994512 -3.75 0 -3.75 
C -0.994512 -3.75 -1.948425 -3.354876 -2.65165 -2.65165 
C -3.354876 -1.948425 -3.75 -0.994512 -3.75 0 
C -3.75 0.994512 -3.354876 1.948425 -2.65165 2.65165 
C -1.948425 3.354876 -0.994512 3.75 0 3.75 
z
" id="mf5cbea2d08" style="stroke:#f3e51e;stroke-opacity:0.65;"/>
    </defs>
    <g clip-path="url(#pc60e176718)">
     <use style="fill:#f3e51e;fill-opacity:0.65;stroke:#f3e51e;stroke-opacity:0.65;" x="289.581074" xlink:href="#mf5cbea2d08" y="194.583267"/>
    </g>
   </g>
   <g id="line2d_50">
    <path clip-path="url(#pc60e176718)" d="M 422.431923 56.587774 
" style="fill:none;stroke:#8bd546;stroke-linecap:round;stroke-opacity:0.65;stroke-width:1.5;"/>
    <defs>
     <path d="M 0 3.75 
C 0.994512 3.75 1.948425 3.354876 2.65165 2.65165 
C 3.354876 1.948425 3.75 0.994512 3.75 0 
C 3.75 -0.994512 3.354876 -1.948425 2.65165 -2.65165 
C 1.948425 -3.354876 0.994512 -3.75 0 -3.75 
C -0.994512 -3.75 -1.948425 -3.354876 -2.65165 -2.65165 
C -3.354876 -1.948425 -3.75 -0.994512 -3.75 0 
C -3.75 0.994512 -3.354876 1.948425 -2.65165 2.65165 
C -1.948425 3.354876 -0.994512 3.75 0 3.75 
z
" id="me6a90a9dcc" style="stroke:#8bd546;stroke-opacity:0.65;"/>
    </defs>
    <g clip-path="url(#pc60e176718)">
     <use style="fill:#8bd546;fill-opacity:0.65;stroke:#8bd546;stroke-opacity:0.65;" x="422.431923" xlink:href="#me6a90a9dcc" y="56.587774"/>
    </g>
   </g>
   <g id="line2d_51">
    <path clip-path="url(#pc60e176718)" d="M 385.129664 267.898361 
" style="fill:none;stroke:#7ed24e;stroke-linecap:round;stroke-opacity:0.65;stroke-width:1.5;"/>
    <defs>
     <path d="M 0 3.75 
C 0.994512 3.75 1.948425 3.354876 2.65165 2.65165 
C 3.354876 1.948425 3.75 0.994512 3.75 0 
C 3.75 -0.994512 3.354876 -1.948425 2.65165 -2.65165 
C 1.948425 -3.354876 0.994512 -3.75 0 -3.75 
C -0.994512 -3.75 -1.948425 -3.354876 -2.65165 -2.65165 
C -3.354876 -1.948425 -3.75 -0.994512 -3.75 0 
C -3.75 0.994512 -3.354876 1.948425 -2.65165 2.65165 
C -1.948425 3.354876 -0.994512 3.75 0 3.75 
z
" id="m6074aa0e0d" style="stroke:#7ed24e;stroke-opacity:0.65;"/>
    </defs>
    <g clip-path="url(#pc60e176718)">
     <use style="fill:#7ed24e;fill-opacity:0.65;stroke:#7ed24e;stroke-opacity:0.65;" x="385.129664" xlink:href="#m6074aa0e0d" y="267.898361"/>
    </g>
   </g>
   <g id="line2d_52">
    <path clip-path="url(#pc60e176718)" d="M 386.166058 267.898361 
" style="fill:none;stroke:#23a883;stroke-linecap:round;stroke-opacity:0.65;stroke-width:1.5;"/>
    <defs>
     <path d="M 0 3.75 
C 0.994512 3.75 1.948425 3.354876 2.65165 2.65165 
C 3.354876 1.948425 3.75 0.994512 3.75 0 
C 3.75 -0.994512 3.354876 -1.948425 2.65165 -2.65165 
C 1.948425 -3.354876 0.994512 -3.75 0 -3.75 
C -0.994512 -3.75 -1.948425 -3.354876 -2.65165 -2.65165 
C -3.354876 -1.948425 -3.75 -0.994512 -3.75 0 
C -3.75 0.994512 -3.354876 1.948425 -2.65165 2.65165 
C -1.948425 3.354876 -0.994512 3.75 0 3.75 
z
" id="md18bb540ad" style="stroke:#23a883;stroke-opacity:0.65;"/>
    </defs>
    <g clip-path="url(#pc60e176718)">
     <use style="fill:#23a883;fill-opacity:0.65;stroke:#23a883;stroke-opacity:0.65;" x="386.166058" xlink:href="#md18bb540ad" y="267.898361"/>
    </g>
   </g>
   <g id="line2d_53">
    <path clip-path="url(#pc60e176718)" d="M 427.832046 56.587774 
" style="fill:none;stroke:#2eb27c;stroke-linecap:round;stroke-opacity:0.65;stroke-width:1.5;"/>
    <defs>
     <path d="M 0 3.75 
C 0.994512 3.75 1.948425 3.354876 2.65165 2.65165 
C 3.354876 1.948425 3.75 0.994512 3.75 0 
C 3.75 -0.994512 3.354876 -1.948425 2.65165 -2.65165 
C 1.948425 -3.354876 0.994512 -3.75 0 -3.75 
C -0.994512 -3.75 -1.948425 -3.354876 -2.65165 -2.65165 
C -3.354876 -1.948425 -3.75 -0.994512 -3.75 0 
C -3.75 0.994512 -3.354876 1.948425 -2.65165 2.65165 
C -1.948425 3.354876 -0.994512 3.75 0 3.75 
z
" id="m8e4635fd8f" style="stroke:#2eb27c;stroke-opacity:0.65;"/>
    </defs>
    <g clip-path="url(#pc60e176718)">
     <use style="fill:#2eb27c;fill-opacity:0.65;stroke:#2eb27c;stroke-opacity:0.65;" x="427.832046" xlink:href="#m8e4635fd8f" y="56.587774"/>
    </g>
   </g>
   <g id="line2d_54">
    <path clip-path="url(#pc60e176718)" d="M 420.348839 56.587774 
" style="fill:none;stroke:#8bd546;stroke-linecap:round;stroke-opacity:0.65;stroke-width:1.5;"/>
    <g clip-path="url(#pc60e176718)">
     <use style="fill:#8bd546;fill-opacity:0.65;stroke:#8bd546;stroke-opacity:0.65;" x="420.348839" xlink:href="#me6a90a9dcc" y="56.587774"/>
    </g>
   </g>
   <g id="line2d_55">
    <path clip-path="url(#pc60e176718)" d="M 293.545407 223.089439 
" style="fill:none;stroke:#1e9f88;stroke-linecap:round;stroke-opacity:0.65;stroke-width:1.5;"/>
    <g clip-path="url(#pc60e176718)">
     <use style="fill:#1e9f88;fill-opacity:0.65;stroke:#1e9f88;stroke-opacity:0.65;" x="293.545407" xlink:href="#mff8a580beb" y="223.089439"/>
    </g>
   </g>
   <g id="line2d_56">
    <path clip-path="url(#pc60e176718)" d="M 341.353508 273.376466 
" style="fill:none;stroke:#345f8d;stroke-linecap:round;stroke-opacity:0.65;stroke-width:1.5;"/>
    <defs>
     <path d="M 0 3.75 
C 0.994512 3.75 1.948425 3.354876 2.65165 2.65165 
C 3.354876 1.948425 3.75 0.994512 3.75 0 
C 3.75 -0.994512 3.354876 -1.948425 2.65165 -2.65165 
C 1.948425 -3.354876 0.994512 -3.75 0 -3.75 
C -0.994512 -3.75 -1.948425 -3.354876 -2.65165 -2.65165 
C -3.354876 -1.948425 -3.75 -0.994512 -3.75 0 
C -3.75 0.994512 -3.354876 1.948425 -2.65165 2.65165 
C -1.948425 3.354876 -0.994512 3.75 0 3.75 
z
" id="mfa1080bac6" style="stroke:#345f8d;stroke-opacity:0.65;"/>
    </defs>
    <g clip-path="url(#pc60e176718)">
     <use style="fill:#345f8d;fill-opacity:0.65;stroke:#345f8d;stroke-opacity:0.65;" x="341.353508" xlink:href="#mfa1080bac6" y="273.376466"/>
    </g>
   </g>
   <g id="line2d_57">
    <path clip-path="url(#pc60e176718)" d="M 419.923526 56.587774 
" style="fill:none;stroke:#77d052;stroke-linecap:round;stroke-opacity:0.65;stroke-width:1.5;"/>
    <defs>
     <path d="M 0 3.75 
C 0.994512 3.75 1.948425 3.354876 2.65165 2.65165 
C 3.354876 1.948425 3.75 0.994512 3.75 0 
C 3.75 -0.994512 3.354876 -1.948425 2.65165 -2.65165 
C 1.948425 -3.354876 0.994512 -3.75 0 -3.75 
C -0.994512 -3.75 -1.948425 -3.354876 -2.65165 -2.65165 
C -3.354876 -1.948425 -3.75 -0.994512 -3.75 0 
C -3.75 0.994512 -3.354876 1.948425 -2.65165 2.65165 
C -1.948425 3.354876 -0.994512 3.75 0 3.75 
z
" id="m56cb3d3bc6" style="stroke:#77d052;stroke-opacity:0.65;"/>
    </defs>
    <g clip-path="url(#pc60e176718)">
     <use style="fill:#77d052;fill-opacity:0.65;stroke:#77d052;stroke-opacity:0.65;" x="419.923526" xlink:href="#m56cb3d3bc6" y="56.587774"/>
    </g>
   </g>
   <g id="line2d_58">
    <path clip-path="url(#pc60e176718)" d="M 260.124053 271.778196 
" style="fill:none;stroke:#fde724;stroke-linecap:round;stroke-opacity:0.65;stroke-width:1.5;"/>
    <defs>
     <path d="M 0 3.75 
C 0.994512 3.75 1.948425 3.354876 2.65165 2.65165 
C 3.354876 1.948425 3.75 0.994512 3.75 0 
C 3.75 -0.994512 3.354876 -1.948425 2.65165 -2.65165 
C 1.948425 -3.354876 0.994512 -3.75 0 -3.75 
C -0.994512 -3.75 -1.948425 -3.354876 -2.65165 -2.65165 
C -3.354876 -1.948425 -3.75 -0.994512 -3.75 0 
C -3.75 0.994512 -3.354876 1.948425 -2.65165 2.65165 
C -1.948425 3.354876 -0.994512 3.75 0 3.75 
z
" id="md87051e0d6" style="stroke:#fde724;stroke-opacity:0.65;"/>
    </defs>
    <g clip-path="url(#pc60e176718)">
     <use style="fill:#fde724;fill-opacity:0.65;stroke:#fde724;stroke-opacity:0.65;" x="260.124053" xlink:href="#md87051e0d6" y="271.778196"/>
    </g>
   </g>
   <g id="line2d_59">
    <path clip-path="url(#pc60e176718)" d="M 332.052349 253.270151 
" style="fill:none;stroke:#97d83e;stroke-linecap:round;stroke-opacity:0.65;stroke-width:1.5;"/>
    <defs>
     <path d="M 0 3.75 
C 0.994512 3.75 1.948425 3.354876 2.65165 2.65165 
C 3.354876 1.948425 3.75 0.994512 3.75 0 
C 3.75 -0.994512 3.354876 -1.948425 2.65165 -2.65165 
C 1.948425 -3.354876 0.994512 -3.75 0 -3.75 
C -0.994512 -3.75 -1.948425 -3.354876 -2.65165 -2.65165 
C -3.354876 -1.948425 -3.75 -0.994512 -3.75 0 
C -3.75 0.994512 -3.354876 1.948425 -2.65165 2.65165 
C -1.948425 3.354876 -0.994512 3.75 0 3.75 
z
" id="mdb2a8dd3a2" style="stroke:#97d83e;stroke-opacity:0.65;"/>
    </defs>
    <g clip-path="url(#pc60e176718)">
     <use style="fill:#97d83e;fill-opacity:0.65;stroke:#97d83e;stroke-opacity:0.65;" x="332.052349" xlink:href="#mdb2a8dd3a2" y="253.270151"/>
    </g>
   </g>
   <g id="line2d_60">
    <path clip-path="url(#pc60e176718)" d="M 337.082879 270.202016 
" style="fill:none;stroke:#8dd644;stroke-linecap:round;stroke-opacity:0.65;stroke-width:1.5;"/>
    <g clip-path="url(#pc60e176718)">
     <use style="fill:#8dd644;fill-opacity:0.65;stroke:#8dd644;stroke-opacity:0.65;" x="337.082879" xlink:href="#md9d3c68308" y="270.202016"/>
    </g>
   </g>
   <g id="line2d_61">
    <path clip-path="url(#pc60e176718)" d="M 425.29986 56.587774 
" style="fill:none;stroke:#8bd546;stroke-linecap:round;stroke-opacity:0.65;stroke-width:1.5;"/>
    <g clip-path="url(#pc60e176718)">
     <use style="fill:#8bd546;fill-opacity:0.65;stroke:#8bd546;stroke-opacity:0.65;" x="425.29986" xlink:href="#me6a90a9dcc" y="56.587774"/>
    </g>
   </g>
   <g id="line2d_62">
    <path clip-path="url(#pc60e176718)" d="M 258.243627 272.579665 
" style="fill:none;stroke:#25828e;stroke-linecap:round;stroke-opacity:0.65;stroke-width:1.5;"/>
    <defs>
     <path d="M 0 3.75 
C 0.994512 3.75 1.948425 3.354876 2.65165 2.65165 
C 3.354876 1.948425 3.75 0.994512 3.75 0 
C 3.75 -0.994512 3.354876 -1.948425 2.65165 -2.65165 
C 1.948425 -3.354876 0.994512 -3.75 0 -3.75 
C -0.994512 -3.75 -1.948425 -3.354876 -2.65165 -2.65165 
C -3.354876 -1.948425 -3.75 -0.994512 -3.75 0 
C -3.75 0.994512 -3.354876 1.948425 -2.65165 2.65165 
C -1.948425 3.354876 -0.994512 3.75 0 3.75 
z
" id="mbac701b15d" style="stroke:#25828e;stroke-opacity:0.65;"/>
    </defs>
    <g clip-path="url(#pc60e176718)">
     <use style="fill:#25828e;fill-opacity:0.65;stroke:#25828e;stroke-opacity:0.65;" x="258.243627" xlink:href="#mbac701b15d" y="272.579665"/>
    </g>
   </g>
   <g id="line2d_63">
    <path clip-path="url(#pc60e176718)" d="M 424.656195 56.587774 
" style="fill:none;stroke:#2eb27c;stroke-linecap:round;stroke-opacity:0.65;stroke-width:1.5;"/>
    <g clip-path="url(#pc60e176718)">
     <use style="fill:#2eb27c;fill-opacity:0.65;stroke:#2eb27c;stroke-opacity:0.65;" x="424.656195" xlink:href="#m8e4635fd8f" y="56.587774"/>
    </g>
   </g>
   <g id="line2d_64">
    <path clip-path="url(#pc60e176718)" d="M 386.484231 267.898361 
" style="fill:none;stroke:#7ed24e;stroke-linecap:round;stroke-opacity:0.65;stroke-width:1.5;"/>
    <g clip-path="url(#pc60e176718)">
     <use style="fill:#7ed24e;fill-opacity:0.65;stroke:#7ed24e;stroke-opacity:0.65;" x="386.484231" xlink:href="#m6074aa0e0d" y="267.898361"/>
    </g>
   </g>
   <g id="line2d_65">
    <path clip-path="url(#pc60e176718)" d="M 297.770658 271.784939 
" style="fill:none;stroke:#d2e11b;stroke-linecap:round;stroke-opacity:0.65;stroke-width:1.5;"/>
    <g clip-path="url(#pc60e176718)">
     <use style="fill:#d2e11b;fill-opacity:0.65;stroke:#d2e11b;stroke-opacity:0.65;" x="297.770658" xlink:href="#mea92fa0193" y="271.784939"/>
    </g>
   </g>
   <g id="line2d_66">
    <path clip-path="url(#pc60e176718)" d="M 384.51493 251.429529 
" style="fill:none;stroke:#8bd546;stroke-linecap:round;stroke-opacity:0.65;stroke-width:1.5;"/>
    <g clip-path="url(#pc60e176718)">
     <use style="fill:#8bd546;fill-opacity:0.65;stroke:#8bd546;stroke-opacity:0.65;" x="384.51493" xlink:href="#me6a90a9dcc" y="251.429529"/>
    </g>
   </g>
   <g id="line2d_67">
    <path clip-path="url(#pc60e176718)" d="M 298.243212 272.999144 
" style="fill:none;stroke:#dce218;stroke-linecap:round;stroke-opacity:0.65;stroke-width:1.5;"/>
    <g clip-path="url(#pc60e176718)">
     <use style="fill:#dce218;fill-opacity:0.65;stroke:#dce218;stroke-opacity:0.65;" x="298.243212" xlink:href="#me4941f4136" y="272.999144"/>
    </g>
   </g>
   <g id="line2d_68">
    <path clip-path="url(#pc60e176718)" d="M 334.837864 234.991387 
" style="fill:none;stroke:#6bcd59;stroke-linecap:round;stroke-opacity:0.65;stroke-width:1.5;"/>
    <g clip-path="url(#pc60e176718)">
     <use style="fill:#6bcd59;fill-opacity:0.65;stroke:#6bcd59;stroke-opacity:0.65;" x="334.837864" xlink:href="#mf8825b00c7" y="234.991387"/>
    </g>
   </g>
   <g id="line2d_69">
    <path clip-path="url(#pc60e176718)" d="M 374.216313 181.482946 
" style="fill:none;stroke:#d2e11b;stroke-linecap:round;stroke-opacity:0.65;stroke-width:1.5;"/>
    <g clip-path="url(#pc60e176718)">
     <use style="fill:#d2e11b;fill-opacity:0.65;stroke:#d2e11b;stroke-opacity:0.65;" x="374.216313" xlink:href="#mea92fa0193" y="181.482946"/>
    </g>
   </g>
   <g id="line2d_70">
    <path clip-path="url(#pc60e176718)" d="M 380.571429 250.351159 
" style="fill:none;stroke:#2cb17d;stroke-linecap:round;stroke-opacity:0.65;stroke-width:1.5;"/>
    <g clip-path="url(#pc60e176718)">
     <use style="fill:#2cb17d;fill-opacity:0.65;stroke:#2cb17d;stroke-opacity:0.65;" x="380.571429" xlink:href="#ma78590bf1a" y="250.351159"/>
    </g>
   </g>
   <g id="line2d_71">
    <path clip-path="url(#pc60e176718)" d="M 298.535852 271.784939 
" style="fill:none;stroke:#44be70;stroke-linecap:round;stroke-opacity:0.65;stroke-width:1.5;"/>
    <defs>
     <path d="M 0 3.75 
C 0.994512 3.75 1.948425 3.354876 2.65165 2.65165 
C 3.354876 1.948425 3.75 0.994512 3.75 0 
C 3.75 -0.994512 3.354876 -1.948425 2.65165 -2.65165 
C 1.948425 -3.354876 0.994512 -3.75 0 -3.75 
C -0.994512 -3.75 -1.948425 -3.354876 -2.65165 -2.65165 
C -3.354876 -1.948425 -3.75 -0.994512 -3.75 0 
C -3.75 0.994512 -3.354876 1.948425 -2.65165 2.65165 
C -1.948425 3.354876 -0.994512 3.75 0 3.75 
z
" id="m2fa6a7e646" style="stroke:#44be70;stroke-opacity:0.65;"/>
    </defs>
    <g clip-path="url(#pc60e176718)">
     <use style="fill:#44be70;fill-opacity:0.65;stroke:#44be70;stroke-opacity:0.65;" x="298.535852" xlink:href="#m2fa6a7e646" y="271.784939"/>
    </g>
   </g>
   <g id="line2d_72">
    <path clip-path="url(#pc60e176718)" d="M 340.912566 256.894615 
" style="fill:none;stroke:#2fb37b;stroke-linecap:round;stroke-opacity:0.65;stroke-width:1.5;"/>
    <defs>
     <path d="M 0 3.75 
C 0.994512 3.75 1.948425 3.354876 2.65165 2.65165 
C 3.354876 1.948425 3.75 0.994512 3.75 0 
C 3.75 -0.994512 3.354876 -1.948425 2.65165 -2.65165 
C 1.948425 -3.354876 0.994512 -3.75 0 -3.75 
C -0.994512 -3.75 -1.948425 -3.354876 -2.65165 -2.65165 
C -3.354876 -1.948425 -3.75 -0.994512 -3.75 0 
C -3.75 0.994512 -3.354876 1.948425 -2.65165 2.65165 
C -1.948425 3.354876 -0.994512 3.75 0 3.75 
z
" id="mf78be9677b" style="stroke:#2fb37b;stroke-opacity:0.65;"/>
    </defs>
    <g clip-path="url(#pc60e176718)">
     <use style="fill:#2fb37b;fill-opacity:0.65;stroke:#2fb37b;stroke-opacity:0.65;" x="340.912566" xlink:href="#mf78be9677b" y="256.894615"/>
    </g>
   </g>
   <g id="line2d_73">
    <path clip-path="url(#pc60e176718)" d="M 332.66933 238.009174 
" style="fill:none;stroke:#dce218;stroke-linecap:round;stroke-opacity:0.65;stroke-width:1.5;"/>
    <g clip-path="url(#pc60e176718)">
     <use style="fill:#dce218;fill-opacity:0.65;stroke:#dce218;stroke-opacity:0.65;" x="332.66933" xlink:href="#me4941f4136" y="238.009174"/>
    </g>
   </g>
   <g id="line2d_74">
    <path clip-path="url(#pc60e176718)" d="M 381.523198 138.522708 
" style="fill:none;stroke:#49c16d;stroke-linecap:round;stroke-opacity:0.65;stroke-width:1.5;"/>
    <defs>
     <path d="M 0 3.75 
C 0.994512 3.75 1.948425 3.354876 2.65165 2.65165 
C 3.354876 1.948425 3.75 0.994512 3.75 0 
C 3.75 -0.994512 3.354876 -1.948425 2.65165 -2.65165 
C 1.948425 -3.354876 0.994512 -3.75 0 -3.75 
C -0.994512 -3.75 -1.948425 -3.354876 -2.65165 -2.65165 
C -3.354876 -1.948425 -3.75 -0.994512 -3.75 0 
C -3.75 0.994512 -3.354876 1.948425 -2.65165 2.65165 
C -1.948425 3.354876 -0.994512 3.75 0 3.75 
z
" id="madcac35ffb" style="stroke:#49c16d;stroke-opacity:0.65;"/>
    </defs>
    <g clip-path="url(#pc60e176718)">
     <use style="fill:#49c16d;fill-opacity:0.65;stroke:#49c16d;stroke-opacity:0.65;" x="381.523198" xlink:href="#madcac35ffb" y="138.522708"/>
    </g>
   </g>
   <g id="line2d_75">
    <path clip-path="url(#pc60e176718)" d="M 420.508863 56.587774 
" style="fill:none;stroke:#7cd24f;stroke-linecap:round;stroke-opacity:0.65;stroke-width:1.5;"/>
    <g clip-path="url(#pc60e176718)">
     <use style="fill:#7cd24f;fill-opacity:0.65;stroke:#7cd24f;stroke-opacity:0.65;" x="420.508863" xlink:href="#m64b2f4be7d" y="56.587774"/>
    </g>
   </g>
   <g id="line2d_76">
    <path clip-path="url(#pc60e176718)" d="M 78.765463 273.071167 
" style="fill:none;stroke:#1f948b;stroke-linecap:round;stroke-opacity:0.65;stroke-width:1.5;"/>
    <defs>
     <path d="M 0 3.75 
C 0.994512 3.75 1.948425 3.354876 2.65165 2.65165 
C 3.354876 1.948425 3.75 0.994512 3.75 0 
C 3.75 -0.994512 3.354876 -1.948425 2.65165 -2.65165 
C 1.948425 -3.354876 0.994512 -3.75 0 -3.75 
C -0.994512 -3.75 -1.948425 -3.354876 -2.65165 -2.65165 
C -3.354876 -1.948425 -3.75 -0.994512 -3.75 0 
C -3.75 0.994512 -3.354876 1.948425 -2.65165 2.65165 
C -1.948425 3.354876 -0.994512 3.75 0 3.75 
z
" id="mbf6511680a" style="stroke:#1f948b;stroke-opacity:0.65;"/>
    </defs>
    <g clip-path="url(#pc60e176718)">
     <use style="fill:#1f948b;fill-opacity:0.65;stroke:#1f948b;stroke-opacity:0.65;" x="78.765463" xlink:href="#mbf6511680a" y="273.071167"/>
    </g>
   </g>
   <g id="line2d_77">
    <path clip-path="url(#pc60e176718)" d="M 377.394557 267.898361 
" style="fill:none;stroke:#5ec961;stroke-linecap:round;stroke-opacity:0.65;stroke-width:1.5;"/>
    <g clip-path="url(#pc60e176718)">
     <use style="fill:#5ec961;fill-opacity:0.65;stroke:#5ec961;stroke-opacity:0.65;" x="377.394557" xlink:href="#m55d94d8f0f" y="267.898361"/>
    </g>
   </g>
   <g id="line2d_78">
    <path clip-path="url(#pc60e176718)" d="M 427.729385 56.587774 
" style="fill:none;stroke:#2eb27c;stroke-linecap:round;stroke-opacity:0.65;stroke-width:1.5;"/>
    <g clip-path="url(#pc60e176718)">
     <use style="fill:#2eb27c;fill-opacity:0.65;stroke:#2eb27c;stroke-opacity:0.65;" x="427.729385" xlink:href="#m8e4635fd8f" y="56.587774"/>
    </g>
   </g>
   <g id="line2d_79">
    <path clip-path="url(#pc60e176718)" d="M 295.430908 271.784939 
" style="fill:none;stroke:#dae218;stroke-linecap:round;stroke-opacity:0.65;stroke-width:1.5;"/>
    <g clip-path="url(#pc60e176718)">
     <use style="fill:#dae218;fill-opacity:0.65;stroke:#dae218;stroke-opacity:0.65;" x="295.430908" xlink:href="#m8d01c7e690" y="271.784939"/>
    </g>
   </g>
   <g id="line2d_80">
    <path clip-path="url(#pc60e176718)" d="M 205.487598 273.533187 
" style="fill:none;stroke:#f1e51c;stroke-linecap:round;stroke-opacity:0.65;stroke-width:1.5;"/>
    <g clip-path="url(#pc60e176718)">
     <use style="fill:#f1e51c;fill-opacity:0.65;stroke:#f1e51c;stroke-opacity:0.65;" x="205.487598" xlink:href="#mdada7caa02" y="273.533187"/>
    </g>
   </g>
   <g id="line2d_81">
    <path clip-path="url(#pc60e176718)" d="M 90.243809 273.071167 
" style="fill:none;stroke:#20918c;stroke-linecap:round;stroke-opacity:0.65;stroke-width:1.5;"/>
    <defs>
     <path d="M 0 3.75 
C 0.994512 3.75 1.948425 3.354876 2.65165 2.65165 
C 3.354876 1.948425 3.75 0.994512 3.75 0 
C 3.75 -0.994512 3.354876 -1.948425 2.65165 -2.65165 
C 1.948425 -3.354876 0.994512 -3.75 0 -3.75 
C -0.994512 -3.75 -1.948425 -3.354876 -2.65165 -2.65165 
C -3.354876 -1.948425 -3.75 -0.994512 -3.75 0 
C -3.75 0.994512 -3.354876 1.948425 -2.65165 2.65165 
C -1.948425 3.354876 -0.994512 3.75 0 3.75 
z
" id="m99002dd2dd" style="stroke:#20918c;stroke-opacity:0.65;"/>
    </defs>
    <g clip-path="url(#pc60e176718)">
     <use style="fill:#20918c;fill-opacity:0.65;stroke:#20918c;stroke-opacity:0.65;" x="90.243809" xlink:href="#m99002dd2dd" y="273.071167"/>
    </g>
   </g>
   <g id="line2d_82">
    <path clip-path="url(#pc60e176718)" d="M 205.056138 272.691405 
" style="fill:none;stroke:#e9e419;stroke-linecap:round;stroke-opacity:0.65;stroke-width:1.5;"/>
    <defs>
     <path d="M 0 3.75 
C 0.994512 3.75 1.948425 3.354876 2.65165 2.65165 
C 3.354876 1.948425 3.75 0.994512 3.75 0 
C 3.75 -0.994512 3.354876 -1.948425 2.65165 -2.65165 
C 1.948425 -3.354876 0.994512 -3.75 0 -3.75 
C -0.994512 -3.75 -1.948425 -3.354876 -2.65165 -2.65165 
C -3.354876 -1.948425 -3.75 -0.994512 -3.75 0 
C -3.75 0.994512 -3.354876 1.948425 -2.65165 2.65165 
C -1.948425 3.354876 -0.994512 3.75 0 3.75 
z
" id="m8e93a1046f" style="stroke:#e9e419;stroke-opacity:0.65;"/>
    </defs>
    <g clip-path="url(#pc60e176718)">
     <use style="fill:#e9e419;fill-opacity:0.65;stroke:#e9e419;stroke-opacity:0.65;" x="205.056138" xlink:href="#m8e93a1046f" y="272.691405"/>
    </g>
   </g>
   <g id="line2d_83">
    <path clip-path="url(#pc60e176718)" d="M 385.832685 250.351159 
" style="fill:none;stroke:#2cb17d;stroke-linecap:round;stroke-opacity:0.65;stroke-width:1.5;"/>
    <g clip-path="url(#pc60e176718)">
     <use style="fill:#2cb17d;fill-opacity:0.65;stroke:#2cb17d;stroke-opacity:0.65;" x="385.832685" xlink:href="#ma78590bf1a" y="250.351159"/>
    </g>
   </g>
   <g id="line2d_84">
    <path clip-path="url(#pc60e176718)" d="M 336.932653 271.409872 
" style="fill:none;stroke:#d2e11b;stroke-linecap:round;stroke-opacity:0.65;stroke-width:1.5;"/>
    <g clip-path="url(#pc60e176718)">
     <use style="fill:#d2e11b;fill-opacity:0.65;stroke:#d2e11b;stroke-opacity:0.65;" x="336.932653" xlink:href="#mea92fa0193" y="271.409872"/>
    </g>
   </g>
   <g id="line2d_85">
    <path clip-path="url(#pc60e176718)" d="M 425.378405 56.587774 
" style="fill:none;stroke:#2eb27c;stroke-linecap:round;stroke-opacity:0.65;stroke-width:1.5;"/>
    <g clip-path="url(#pc60e176718)">
     <use style="fill:#2eb27c;fill-opacity:0.65;stroke:#2eb27c;stroke-opacity:0.65;" x="425.378405" xlink:href="#m8e4635fd8f" y="56.587774"/>
    </g>
   </g>
   <g id="line2d_86">
    <path clip-path="url(#pc60e176718)" d="M 133.761606 240.570842 
" style="fill:none;stroke:#1f948b;stroke-linecap:round;stroke-opacity:0.65;stroke-width:1.5;"/>
    <g clip-path="url(#pc60e176718)">
     <use style="fill:#1f948b;fill-opacity:0.65;stroke:#1f948b;stroke-opacity:0.65;" x="133.761606" xlink:href="#mbf6511680a" y="240.570842"/>
    </g>
   </g>
   <g id="line2d_87">
    <path clip-path="url(#pc60e176718)" d="M 249.832243 227.063732 
" style="fill:none;stroke:#60c960;stroke-linecap:round;stroke-opacity:0.65;stroke-width:1.5;"/>
    <defs>
     <path d="M 0 3.75 
C 0.994512 3.75 1.948425 3.354876 2.65165 2.65165 
C 3.354876 1.948425 3.75 0.994512 3.75 0 
C 3.75 -0.994512 3.354876 -1.948425 2.65165 -2.65165 
C 1.948425 -3.354876 0.994512 -3.75 0 -3.75 
C -0.994512 -3.75 -1.948425 -3.354876 -2.65165 -2.65165 
C -3.354876 -1.948425 -3.75 -0.994512 -3.75 0 
C -3.75 0.994512 -3.354876 1.948425 -2.65165 2.65165 
C -1.948425 3.354876 -0.994512 3.75 0 3.75 
z
" id="m37b7bdbd58" style="stroke:#60c960;stroke-opacity:0.65;"/>
    </defs>
    <g clip-path="url(#pc60e176718)">
     <use style="fill:#60c960;fill-opacity:0.65;stroke:#60c960;stroke-opacity:0.65;" x="249.832243" xlink:href="#m37b7bdbd58" y="227.063732"/>
    </g>
   </g>
   <g id="line2d_88">
    <path clip-path="url(#pc60e176718)" d="M 376.465378 267.898361 
" style="fill:none;stroke:#70ce56;stroke-linecap:round;stroke-opacity:0.65;stroke-width:1.5;"/>
    <defs>
     <path d="M 0 3.75 
C 0.994512 3.75 1.948425 3.354876 2.65165 2.65165 
C 3.354876 1.948425 3.75 0.994512 3.75 0 
C 3.75 -0.994512 3.354876 -1.948425 2.65165 -2.65165 
C 1.948425 -3.354876 0.994512 -3.75 0 -3.75 
C -0.994512 -3.75 -1.948425 -3.354876 -2.65165 -2.65165 
C -3.354876 -1.948425 -3.75 -0.994512 -3.75 0 
C -3.75 0.994512 -3.354876 1.948425 -2.65165 2.65165 
C -1.948425 3.354876 -0.994512 3.75 0 3.75 
z
" id="m1c93560863" style="stroke:#70ce56;stroke-opacity:0.65;"/>
    </defs>
    <g clip-path="url(#pc60e176718)">
     <use style="fill:#70ce56;fill-opacity:0.65;stroke:#70ce56;stroke-opacity:0.65;" x="376.465378" xlink:href="#m1c93560863" y="267.898361"/>
    </g>
   </g>
   <g id="line2d_89">
    <path clip-path="url(#pc60e176718)" d="M 247.253017 273.519878 
" style="fill:none;stroke:#f6e61f;stroke-linecap:round;stroke-opacity:0.65;stroke-width:1.5;"/>
    <g clip-path="url(#pc60e176718)">
     <use style="fill:#f6e61f;fill-opacity:0.65;stroke:#f6e61f;stroke-opacity:0.65;" x="247.253017" xlink:href="#m993da33bcf" y="273.519878"/>
    </g>
   </g>
   <g id="line2d_90">
    <path clip-path="url(#pc60e176718)" d="M 341.570115 234.991387 
" style="fill:none;stroke:#2cb17d;stroke-linecap:round;stroke-opacity:0.65;stroke-width:1.5;"/>
    <g clip-path="url(#pc60e176718)">
     <use style="fill:#2cb17d;fill-opacity:0.65;stroke:#2cb17d;stroke-opacity:0.65;" x="341.570115" xlink:href="#ma78590bf1a" y="234.991387"/>
    </g>
   </g>
   <g id="line2d_91"/>
   <g id="line2d_92"/>
   <g id="line2d_93"/>
   <g id="line2d_94"/>
   <g id="patch_3">
    <path d="M 71.771875 280.042969 
L 71.771875 39.232031 
" style="fill:none;stroke:#262626;stroke-linecap:square;stroke-linejoin:miter;stroke-width:0.8;"/>
   </g>
   <g id="patch_4">
    <path d="M 71.771875 280.042969 
L 435.438469 280.042969 
" style="fill:none;stroke:#262626;stroke-linecap:square;stroke-linejoin:miter;stroke-width:0.8;"/>
   </g>
   <g id="text_13">
    <text style="fill:#262626;font-family:Lato;font-size:15px;font-style:normal;font-weight:bold;text-anchor:middle;" transform="rotate(-0, 253.605172, 33.232031)" x="253.605172" y="33.232031">inferred AA lb index vs aa-cdist (80 observed, 80 total)</text>
   </g>
   <g id="legend_1">
    <g id="patch_5">
     <path d="M 92.355205 147.596953 
L 165.92083 147.596953 
Q 168.32083 147.596953 168.32083 145.196953 
L 168.32083 54.485078 
Q 168.32083 52.085078 165.92083 52.085078 
L 92.355205 52.085078 
Q 89.955205 52.085078 89.955205 54.485078 
L 89.955205 145.196953 
Q 89.955205 147.596953 92.355205 147.596953 
z
" style="fill:#ffffff;opacity:0.8;stroke:#cccccc;stroke-linejoin:miter;"/>
    </g>
    <g id="text_14">
     <text style="fill:#262626;font-family:Lato;font-size:20px;font-style:normal;font-weight:600;text-anchor:start;" transform="rotate(-0, 97.17708, 71.744453)" x="97.17708" y="71.744453">affinity</text>
    </g>
    <g id="line2d_95">
     <path d="M 94.755205 85.810078 
L 118.755205 85.810078 
" style="fill:none;"/>
    </g>
    <g id="line2d_96">
     <g>
      <use style="fill:#443982;fill-opacity:0.65;stroke:#443982;stroke-opacity:0.65;" x="106.755205" xlink:href="#mb59e451f8c" y="85.810078"/>
     </g>
    </g>
    <g id="text_15">
     <text style="fill:#262626;font-family:Lato;font-size:12px;font-style:normal;font-weight:600;text-anchor:start;" transform="rotate(-0, 128.355205, 90.010078)" x="128.355205" y="90.010078">-4.430</text>
    </g>
    <g id="line2d_97">
     <path d="M 94.755205 102.735703 
L 118.755205 102.735703 
" style="fill:none;"/>
    </g>
    <g id="line2d_98">
     <g>
      <use style="fill:#25828e;fill-opacity:0.65;stroke:#25828e;stroke-opacity:0.65;" x="106.755205" xlink:href="#mbac701b15d" y="102.735703"/>
     </g>
    </g>
    <g id="text_16">
     <text style="fill:#262626;font-family:Lato;font-size:12px;font-style:normal;font-weight:600;text-anchor:start;" transform="rotate(-0, 128.355205, 106.935703)" x="128.355205" y="106.935703">-2.497</text>
    </g>
    <g id="line2d_99">
     <path d="M 94.755205 119.661328 
L 118.755205 119.661328 
" style="fill:none;"/>
    </g>
    <g id="line2d_100">
     <defs>
      <path d="M 0 3.75 
C 0.994512 3.75 1.948425 3.354876 2.65165 2.65165 
C 3.354876 1.948425 3.75 0.994512 3.75 0 
C 3.75 -0.994512 3.354876 -1.948425 2.65165 -2.65165 
C 1.948425 -3.354876 0.994512 -3.75 0 -3.75 
C -0.994512 -3.75 -1.948425 -3.354876 -2.65165 -2.65165 
C -3.354876 -1.948425 -3.75 -0.994512 -3.75 0 
C -3.75 0.994512 -3.354876 1.948425 -2.65165 2.65165 
C -1.948425 3.354876 -0.994512 3.75 0 3.75 
z
" id="m305cdba03c" style="stroke:#4dc26b;stroke-opacity:0.65;"/>
     </defs>
     <g>
      <use style="fill:#4dc26b;fill-opacity:0.65;stroke:#4dc26b;stroke-opacity:0.65;" x="106.755205" xlink:href="#m305cdba03c" y="119.661328"/>
     </g>
    </g>
    <g id="text_17">
     <text style="fill:#262626;font-family:Lato;font-size:12px;font-style:normal;font-weight:600;text-anchor:start;" transform="rotate(-0, 128.355205, 123.861328)" x="128.355205" y="123.861328">-0.564</text>
    </g>
    <g id="line2d_101">
     <path d="M 94.755205 136.586953 
L 118.755205 136.586953 
" style="fill:none;"/>
    </g>
    <g id="line2d_102">
     <g>
      <use style="fill:#fde724;fill-opacity:0.65;stroke:#fde724;stroke-opacity:0.65;" x="106.755205" xlink:href="#md87051e0d6" y="136.586953"/>
     </g>
    </g>
    <g id="text_18">
     <text style="fill:#262626;font-family:Lato;font-size:12px;font-style:normal;font-weight:600;text-anchor:start;" transform="rotate(-0, 128.355205, 140.786953)" x="128.355205" y="140.786953">1.368</text>
    </g>
   </g>
  </g>
  <g id="text_19">
   <text style="fill:#262626;font-family:Lato;font-size:20px;font-style:normal;font-weight:bold;text-anchor:start;" transform="rotate(-0, 92.16, 58.752)" x="92.16" y="58.752">r = 0.600</text>
  </g>
 </g>
 <defs>
  <clipPath id="pc60e176718">
   <rect height="240.810937" width="363.666594" x="71.771875" y="39.232031"/>
  </clipPath>
 </defs>
</svg>
