<?xml version="1.0" encoding="utf-8" standalone="no"?>
<!DOCTYPE svg PUBLIC "-//W3C//DTD SVG 1.1//EN"
  "http://www.w3.org/Graphics/SVG/1.1/DTD/svg11.dtd">
<!-- Created with matplotlib (http://matplotlib.org/) -->
<svg height="345.6pt" version="1.1" viewBox="0 0 460.8 345.6" width="460.8pt" xmlns="http://www.w3.org/2000/svg" xmlns:xlink="http://www.w3.org/1999/xlink">
 <defs>
  <style type="text/css">
*{stroke-linecap:butt;stroke-linejoin:round;}
  </style>
 </defs>
 <g id="figure_1">
  <g id="patch_1">
   <path d="M 0 345.6 
L 460.8 345.6 
L 460.8 0 
L 0 0 
z
" style="fill:#ffffff;"/>
  </g>
  <g id="axes_1">
   <g id="patch_2">
    <path d="M 92.953125 280.292969 
L 426.15 280.292969 
L 426.15 42.459375 
L 92.953125 42.459375 
z
" style="fill:#ffffff;"/>
   </g>
   <g id="matplotlib.axis_1">
    <g id="xtick_1">
     <g id="line2d_1">
      <defs>
       <path d="M 0 0 
L 0 3.5 
" id="ma35113905d" style="stroke:#262626;stroke-width:0.8;"/>
      </defs>
      <g>
       <use style="fill:#262626;stroke:#262626;stroke-width:0.8;" x="92.953125" xlink:href="#ma35113905d" y="280.292969"/>
      </g>
     </g>
     <g id="text_1">
      <text style="fill:#262626;font-family:Lato;font-size:15px;font-style:normal;font-weight:600;text-anchor:middle;" transform="rotate(-0, 92.953125, 298.4375)" x="92.953125" y="298.4375">50</text>
     </g>
    </g>
    <g id="xtick_2">
     <g id="line2d_2">
      <g>
       <use style="fill:#262626;stroke:#262626;stroke-width:0.8;" x="159.5925" xlink:href="#ma35113905d" y="280.292969"/>
      </g>
     </g>
     <g id="text_2">
      <text style="fill:#262626;font-family:Lato;font-size:15px;font-style:normal;font-weight:600;text-anchor:middle;" transform="rotate(-0, 159.5925, 298.4375)" x="159.5925" y="298.4375">60</text>
     </g>
    </g>
    <g id="xtick_3">
     <g id="line2d_3">
      <g>
       <use style="fill:#262626;stroke:#262626;stroke-width:0.8;" x="226.231875" xlink:href="#ma35113905d" y="280.292969"/>
      </g>
     </g>
     <g id="text_3">
      <text style="fill:#262626;font-family:Lato;font-size:15px;font-style:normal;font-weight:600;text-anchor:middle;" transform="rotate(-0, 226.231875, 298.4375)" x="226.231875" y="298.4375">70</text>
     </g>
    </g>
    <g id="xtick_4">
     <g id="line2d_4">
      <g>
       <use style="fill:#262626;stroke:#262626;stroke-width:0.8;" x="292.87125" xlink:href="#ma35113905d" y="280.292969"/>
      </g>
     </g>
     <g id="text_4">
      <text style="fill:#262626;font-family:Lato;font-size:15px;font-style:normal;font-weight:600;text-anchor:middle;" transform="rotate(-0, 292.87125, 298.4375)" x="292.87125" y="298.4375">80</text>
     </g>
    </g>
    <g id="xtick_5">
     <g id="line2d_5">
      <g>
       <use style="fill:#262626;stroke:#262626;stroke-width:0.8;" x="359.510625" xlink:href="#ma35113905d" y="280.292969"/>
      </g>
     </g>
     <g id="text_5">
      <text style="fill:#262626;font-family:Lato;font-size:15px;font-style:normal;font-weight:600;text-anchor:middle;" transform="rotate(-0, 359.510625, 298.4375)" x="359.510625" y="298.4375">90</text>
     </g>
    </g>
    <g id="xtick_6">
     <g id="line2d_6">
      <g>
       <use style="fill:#262626;stroke:#262626;stroke-width:0.8;" x="426.15" xlink:href="#ma35113905d" y="280.292969"/>
      </g>
     </g>
     <g id="text_6">
      <text style="fill:#262626;font-family:Lato;font-size:15px;font-style:normal;font-weight:600;text-anchor:middle;" transform="rotate(-0, 426.15, 298.4375)" x="426.15" y="298.4375">100</text>
     </g>
    </g>
    <g id="text_7">
     <text style="fill:#262626;font-family:Lato;font-size:20px;font-style:normal;font-weight:600;text-anchor:middle;" transform="rotate(-0, 259.551562, 320.65)" x="259.551562" y="320.65">AA lb ratio threshold (percentile)</text>
    </g>
   </g>
   <g id="matplotlib.axis_2">
    <g id="ytick_1">
     <g id="line2d_7">
      <defs>
       <path d="M 0 0 
L -3.5 0 
" id="m0f95844fa8" style="stroke:#262626;stroke-width:0.8;"/>
      </defs>
      <g>
       <use style="fill:#262626;stroke:#262626;stroke-width:0.8;" x="92.953125" xlink:href="#m0f95844fa8" y="276.04594"/>
      </g>
     </g>
     <g id="text_8">
      <text style="fill:#262626;font-family:Lato;font-size:15px;font-style:normal;font-weight:600;text-anchor:end;" transform="rotate(-0, 85.953125, 281.618206)" x="85.953125" y="281.618206">0.0</text>
     </g>
    </g>
    <g id="ytick_2">
     <g id="line2d_8">
      <g>
       <use style="fill:#262626;stroke:#262626;stroke-width:0.8;" x="92.953125" xlink:href="#m0f95844fa8" y="235.69917"/>
      </g>
     </g>
     <g id="text_9">
      <text style="fill:#262626;font-family:Lato;font-size:15px;font-style:normal;font-weight:600;text-anchor:end;" transform="rotate(-0, 85.953125, 241.271436)" x="85.953125" y="241.271436">0.1</text>
     </g>
    </g>
    <g id="ytick_3">
     <g id="line2d_9">
      <g>
       <use style="fill:#262626;stroke:#262626;stroke-width:0.8;" x="92.953125" xlink:href="#m0f95844fa8" y="195.3524"/>
      </g>
     </g>
     <g id="text_10">
      <text style="fill:#262626;font-family:Lato;font-size:15px;font-style:normal;font-weight:600;text-anchor:end;" transform="rotate(-0, 85.953125, 200.924665)" x="85.953125" y="200.924665">0.2</text>
     </g>
    </g>
    <g id="ytick_4">
     <g id="line2d_10">
      <g>
       <use style="fill:#262626;stroke:#262626;stroke-width:0.8;" x="92.953125" xlink:href="#m0f95844fa8" y="155.005629"/>
      </g>
     </g>
     <g id="text_11">
      <text style="fill:#262626;font-family:Lato;font-size:15px;font-style:normal;font-weight:600;text-anchor:end;" transform="rotate(-0, 85.953125, 160.577895)" x="85.953125" y="160.577895">0.3</text>
     </g>
    </g>
    <g id="ytick_5">
     <g id="line2d_11">
      <g>
       <use style="fill:#262626;stroke:#262626;stroke-width:0.8;" x="92.953125" xlink:href="#m0f95844fa8" y="114.658859"/>
      </g>
     </g>
     <g id="text_12">
      <text style="fill:#262626;font-family:Lato;font-size:15px;font-style:normal;font-weight:600;text-anchor:end;" transform="rotate(-0, 85.953125, 120.231124)" x="85.953125" y="120.231124">0.4</text>
     </g>
    </g>
    <g id="ytick_6">
     <g id="line2d_12">
      <g>
       <use style="fill:#262626;stroke:#262626;stroke-width:0.8;" x="92.953125" xlink:href="#m0f95844fa8" y="74.312088"/>
      </g>
     </g>
     <g id="text_13">
      <text style="fill:#262626;font-family:Lato;font-size:15px;font-style:normal;font-weight:600;text-anchor:end;" transform="rotate(-0, 85.953125, 79.884354)" x="85.953125" y="79.884354">0.5</text>
     </g>
    </g>
    <g id="text_14">
     <text style="fill:#262626;font-family:Lato;font-size:20px;font-style:normal;font-weight:600;" transform="translate(36.459375 241.233984)rotate(-90)">mean N ancestors</text>
     <text style="fill:#262626;font-family:Lato;font-size:20px;font-style:normal;font-weight:600;" transform="translate(57.640625 257.812109)rotate(-90)">since affinity increase</text>
    </g>
   </g>
   <g id="line2d_13">
    <path clip-path="url(#p3a796ca2e8)" d="M 92.953125 194.231656 
L 106.281 227.853965 
L 119.608875 227.853965 
L 132.93675 227.853965 
L 146.264625 227.853965 
L 159.5925 227.853965 
L 172.920375 232.336939 
L 186.24825 232.336939 
L 199.576125 232.336939 
L 212.904 269.321479 
L 226.231875 269.321479 
L 239.55975 269.321479 
L 252.887625 269.321479 
L 266.2155 269.321479 
L 279.543375 269.321479 
L 292.87125 269.321479 
L 306.199125 269.321479 
L 319.527 269.321479 
L 332.854875 269.321479 
L 346.18275 269.321479 
L 359.510625 269.321479 
L 372.8385 269.321479 
L 386.166375 269.321479 
L 399.49425 269.321479 
L 412.822125 269.321479 
" style="fill:none;stroke:#1f77b4;stroke-linecap:round;stroke-opacity:0.7;stroke-width:3;"/>
   </g>
   <g id="line2d_14">
    <path clip-path="url(#p3a796ca2e8)" d="M 76.959675 63.694517 
L 428.815575 63.694517 
" style="fill:none;stroke:#8b0000;stroke-dasharray:11.1,4.8;stroke-dashoffset:0;stroke-opacity:0.7;stroke-width:3;"/>
   </g>
   <g id="line2d_15">
    <path clip-path="url(#p3a796ca2e8)" d="M 92.953125 241.302888 
L 106.281 261.476273 
L 119.608875 261.476273 
L 132.93675 261.476273 
L 146.264625 261.476273 
L 159.5925 261.476273 
L 172.920375 265.959248 
L 186.24825 265.959248 
L 199.576125 265.959248 
L 212.904 269.321479 
L 226.231875 269.321479 
L 239.55975 269.321479 
L 252.887625 269.321479 
L 266.2155 269.321479 
L 279.543375 269.321479 
L 292.87125 269.321479 
L 306.199125 269.321479 
L 319.527 269.321479 
L 332.854875 269.321479 
L 346.18275 269.321479 
L 359.510625 269.321479 
L 372.8385 269.321479 
L 386.166375 269.321479 
L 399.49425 269.321479 
L 412.822125 269.321479 
" style="fill:none;stroke:#006400;stroke-dasharray:11.1,4.8;stroke-dashoffset:0;stroke-opacity:0.7;stroke-width:3;"/>
   </g>
   <g id="patch_3">
    <path d="M 92.953125 280.292969 
L 92.953125 42.459375 
" style="fill:none;stroke:#262626;stroke-linecap:square;stroke-linejoin:miter;stroke-width:0.8;"/>
   </g>
   <g id="patch_4">
    <path d="M 92.953125 280.292969 
L 426.15 280.292969 
" style="fill:none;stroke:#262626;stroke-linecap:square;stroke-linejoin:miter;stroke-width:0.8;"/>
   </g>
   <g id="text_15">
    <text style="fill:#262626;font-family:Lato;font-size:20px;font-style:normal;font-weight:bold;text-anchor:middle;" transform="rotate(-0, 259.551562, 36.459375)" x="259.551562" y="36.459375">affinity change </text>
   </g>
   <g id="legend_1">
    <g id="patch_5">
     <path d="M 262.351562 137.592812 
L 423.65125 137.592812 
Q 426.45125 137.592812 426.45125 134.792812 
L 426.45125 96.699687 
Q 426.45125 93.899687 423.65125 93.899687 
L 262.351562 93.899687 
Q 259.551562 93.899687 259.551562 96.699687 
L 259.551562 134.792812 
Q 259.551562 137.592812 262.351562 137.592812 
z
" style="fill:#ffffff;opacity:0.8;stroke:#cccccc;stroke-linejoin:miter;"/>
    </g>
    <g id="line2d_16">
     <path d="M 265.151563 105.00125 
L 293.151563 105.00125 
" style="fill:none;stroke:#8b0000;stroke-dasharray:11.1,4.8;stroke-dashoffset:0;stroke-opacity:0.7;stroke-width:3;"/>
    </g>
    <g id="line2d_17"/>
    <g id="text_16">
     <text style="fill:#262626;font-family:Lato;font-size:14px;font-style:normal;font-weight:600;text-anchor:start;" transform="rotate(-0, 304.351562, 109.90125)" x="304.351562" y="109.90125">no correlation</text>
    </g>
    <g id="line2d_18">
     <path d="M 265.151563 124.747812 
L 293.151563 124.747812 
" style="fill:none;stroke:#006400;stroke-dasharray:11.1,4.8;stroke-dashoffset:0;stroke-opacity:0.7;stroke-width:3;"/>
    </g>
    <g id="line2d_19"/>
    <g id="text_17">
     <text style="fill:#262626;font-family:Lato;font-size:14px;font-style:normal;font-weight:600;text-anchor:start;" transform="rotate(-0, 304.351562, 129.647812)" x="304.351562" y="129.647812">perfect correlation</text>
    </g>
   </g>
  </g>
  <g id="text_18">
   <text style="fill:#262626;font-family:Lato;font-size:12px;font-style:normal;font-weight:bold;text-anchor:start;" transform="rotate(-0, 115.2, 55.296)" x="115.2" y="55.296">within-cluster average over 34 families</text>
  </g>
 </g>
 <defs>
  <clipPath id="p3a796ca2e8">
   <rect height="237.833594" width="333.196875" x="92.953125" y="42.459375"/>
  </clipPath>
 </defs>
</svg>
