<?xml version="1.0" encoding="utf-8" standalone="no"?>
<!DOCTYPE svg PUBLIC "-//W3C//DTD SVG 1.1//EN"
  "http://www.w3.org/Graphics/SVG/1.1/DTD/svg11.dtd">
<svg height="144pt" version="1.1" viewBox="0 0 468 144" width="468pt" xmlns="http://www.w3.org/2000/svg" xmlns:xlink="http://www.w3.org/1999/xlink">
 <metadata>
  <rdf:RDF xmlns:cc="http://creativecommons.org/ns#" xmlns:dc="http://purl.org/dc/elements/1.1/" xmlns:rdf="http://www.w3.org/1999/02/22-rdf-syntax-ns#">
   <cc:Work>
    <dc:type rdf:resource="http://purl.org/dc/dcmitype/StillImage"/>
    <dc:date>2021-10-29T09:21:16.520872</dc:date>
    <dc:format>image/svg+xml</dc:format>
    <dc:creator>
     <cc:Agent>
      <dc:title>Matplotlib v3.4.2, https://matplotlib.org/</dc:title>
     </cc:Agent>
    </dc:creator>
   </cc:Work>
  </rdf:RDF>
 </metadata>
 <defs>
  <style type="text/css">*{stroke-linecap:butt;stroke-linejoin:round;}</style>
 </defs>
 <g id="figure_1">
  <g id="patch_1">
   <path d="M 0 144 
L 468 144 
L 468 0 
L 0 0 
z
" style="fill:#ffffff;"/>
  </g>
  <g id="axes_1">
   <g id="patch_2">
    <path d="M 58.5 128.16 
L 421.2 128.16 
L 421.2 17.28 
L 58.5 17.28 
z
" style="fill:#ffffff;"/>
   </g>
   <g id="matplotlib.axis_1">
    <g id="xtick_1">
     <g id="line2d_1">
      <defs>
       <path d="M 0 0 
L 0 3.5 
" id="m49fe3641c3" style="stroke:#000000;stroke-width:0.8;"/>
      </defs>
      <g>
       <use style="stroke:#000000;stroke-width:0.8;" x="61.333594" xlink:href="#m49fe3641c3" y="128.16"/>
      </g>
     </g>
     <g id="line2d_2">
      <defs>
       <path d="M 0 0 
L 0 -3.5 
" id="m8904052bbb" style="stroke:#000000;stroke-width:0.8;"/>
      </defs>
      <g>
       <use style="stroke:#000000;stroke-width:0.8;" x="61.333594" xlink:href="#m8904052bbb" y="17.28"/>
      </g>
     </g>
     <g id="text_1">
      <!-- 0 -->
      <g transform="translate(58.152344 142.758438)scale(0.1 -0.1)">
       <defs>
        <path d="M 2034 4250 
Q 1547 4250 1301 3770 
Q 1056 3291 1056 2328 
Q 1056 1369 1301 889 
Q 1547 409 2034 409 
Q 2525 409 2770 889 
Q 3016 1369 3016 2328 
Q 3016 3291 2770 3770 
Q 2525 4250 2034 4250 
z
M 2034 4750 
Q 2819 4750 3233 4129 
Q 3647 3509 3647 2328 
Q 3647 1150 3233 529 
Q 2819 -91 2034 -91 
Q 1250 -91 836 529 
Q 422 1150 422 2328 
Q 422 3509 836 4129 
Q 1250 4750 2034 4750 
z
" id="DejaVuSans-30" transform="scale(0.015625)"/>
       </defs>
       <use xlink:href="#DejaVuSans-30"/>
      </g>
     </g>
    </g>
    <g id="xtick_2">
     <g id="line2d_3">
      <g>
       <use style="stroke:#000000;stroke-width:0.8;" x="118.005469" xlink:href="#m49fe3641c3" y="128.16"/>
      </g>
     </g>
     <g id="line2d_4">
      <g>
       <use style="stroke:#000000;stroke-width:0.8;" x="118.005469" xlink:href="#m8904052bbb" y="17.28"/>
      </g>
     </g>
     <g id="text_2">
      <!-- 20 -->
      <g transform="translate(111.642969 142.758438)scale(0.1 -0.1)">
       <defs>
        <path d="M 1228 531 
L 3431 531 
L 3431 0 
L 469 0 
L 469 531 
Q 828 903 1448 1529 
Q 2069 2156 2228 2338 
Q 2531 2678 2651 2914 
Q 2772 3150 2772 3378 
Q 2772 3750 2511 3984 
Q 2250 4219 1831 4219 
Q 1534 4219 1204 4116 
Q 875 4013 500 3803 
L 500 4441 
Q 881 4594 1212 4672 
Q 1544 4750 1819 4750 
Q 2544 4750 2975 4387 
Q 3406 4025 3406 3419 
Q 3406 3131 3298 2873 
Q 3191 2616 2906 2266 
Q 2828 2175 2409 1742 
Q 1991 1309 1228 531 
z
" id="DejaVuSans-32" transform="scale(0.015625)"/>
       </defs>
       <use xlink:href="#DejaVuSans-32"/>
       <use x="63.623047" xlink:href="#DejaVuSans-30"/>
      </g>
     </g>
    </g>
    <g id="xtick_3">
     <g id="line2d_5">
      <g>
       <use style="stroke:#000000;stroke-width:0.8;" x="174.677344" xlink:href="#m49fe3641c3" y="128.16"/>
      </g>
     </g>
     <g id="line2d_6">
      <g>
       <use style="stroke:#000000;stroke-width:0.8;" x="174.677344" xlink:href="#m8904052bbb" y="17.28"/>
      </g>
     </g>
     <g id="text_3">
      <!-- 40 -->
      <g transform="translate(168.314844 142.758438)scale(0.1 -0.1)">
       <defs>
        <path d="M 2419 4116 
L 825 1625 
L 2419 1625 
L 2419 4116 
z
M 2253 4666 
L 3047 4666 
L 3047 1625 
L 3713 1625 
L 3713 1100 
L 3047 1100 
L 3047 0 
L 2419 0 
L 2419 1100 
L 313 1100 
L 313 1709 
L 2253 4666 
z
" id="DejaVuSans-34" transform="scale(0.015625)"/>
       </defs>
       <use xlink:href="#DejaVuSans-34"/>
       <use x="63.623047" xlink:href="#DejaVuSans-30"/>
      </g>
     </g>
    </g>
    <g id="xtick_4">
     <g id="line2d_7">
      <g>
       <use style="stroke:#000000;stroke-width:0.8;" x="231.349219" xlink:href="#m49fe3641c3" y="128.16"/>
      </g>
     </g>
     <g id="line2d_8">
      <g>
       <use style="stroke:#000000;stroke-width:0.8;" x="231.349219" xlink:href="#m8904052bbb" y="17.28"/>
      </g>
     </g>
     <g id="text_4">
      <!-- 60 -->
      <g transform="translate(224.986719 142.758438)scale(0.1 -0.1)">
       <defs>
        <path d="M 2113 2584 
Q 1688 2584 1439 2293 
Q 1191 2003 1191 1497 
Q 1191 994 1439 701 
Q 1688 409 2113 409 
Q 2538 409 2786 701 
Q 3034 994 3034 1497 
Q 3034 2003 2786 2293 
Q 2538 2584 2113 2584 
z
M 3366 4563 
L 3366 3988 
Q 3128 4100 2886 4159 
Q 2644 4219 2406 4219 
Q 1781 4219 1451 3797 
Q 1122 3375 1075 2522 
Q 1259 2794 1537 2939 
Q 1816 3084 2150 3084 
Q 2853 3084 3261 2657 
Q 3669 2231 3669 1497 
Q 3669 778 3244 343 
Q 2819 -91 2113 -91 
Q 1303 -91 875 529 
Q 447 1150 447 2328 
Q 447 3434 972 4092 
Q 1497 4750 2381 4750 
Q 2619 4750 2861 4703 
Q 3103 4656 3366 4563 
z
" id="DejaVuSans-36" transform="scale(0.015625)"/>
       </defs>
       <use xlink:href="#DejaVuSans-36"/>
       <use x="63.623047" xlink:href="#DejaVuSans-30"/>
      </g>
     </g>
    </g>
    <g id="xtick_5">
     <g id="line2d_9">
      <g>
       <use style="stroke:#000000;stroke-width:0.8;" x="288.021094" xlink:href="#m49fe3641c3" y="128.16"/>
      </g>
     </g>
     <g id="line2d_10">
      <g>
       <use style="stroke:#000000;stroke-width:0.8;" x="288.021094" xlink:href="#m8904052bbb" y="17.28"/>
      </g>
     </g>
     <g id="text_5">
      <!-- 80 -->
      <g transform="translate(281.658594 142.758438)scale(0.1 -0.1)">
       <defs>
        <path d="M 2034 2216 
Q 1584 2216 1326 1975 
Q 1069 1734 1069 1313 
Q 1069 891 1326 650 
Q 1584 409 2034 409 
Q 2484 409 2743 651 
Q 3003 894 3003 1313 
Q 3003 1734 2745 1975 
Q 2488 2216 2034 2216 
z
M 1403 2484 
Q 997 2584 770 2862 
Q 544 3141 544 3541 
Q 544 4100 942 4425 
Q 1341 4750 2034 4750 
Q 2731 4750 3128 4425 
Q 3525 4100 3525 3541 
Q 3525 3141 3298 2862 
Q 3072 2584 2669 2484 
Q 3125 2378 3379 2068 
Q 3634 1759 3634 1313 
Q 3634 634 3220 271 
Q 2806 -91 2034 -91 
Q 1263 -91 848 271 
Q 434 634 434 1313 
Q 434 1759 690 2068 
Q 947 2378 1403 2484 
z
M 1172 3481 
Q 1172 3119 1398 2916 
Q 1625 2713 2034 2713 
Q 2441 2713 2670 2916 
Q 2900 3119 2900 3481 
Q 2900 3844 2670 4047 
Q 2441 4250 2034 4250 
Q 1625 4250 1398 4047 
Q 1172 3844 1172 3481 
z
" id="DejaVuSans-38" transform="scale(0.015625)"/>
       </defs>
       <use xlink:href="#DejaVuSans-38"/>
       <use x="63.623047" xlink:href="#DejaVuSans-30"/>
      </g>
     </g>
    </g>
    <g id="xtick_6">
     <g id="line2d_11">
      <g>
       <use style="stroke:#000000;stroke-width:0.8;" x="344.692969" xlink:href="#m49fe3641c3" y="128.16"/>
      </g>
     </g>
     <g id="line2d_12">
      <g>
       <use style="stroke:#000000;stroke-width:0.8;" x="344.692969" xlink:href="#m8904052bbb" y="17.28"/>
      </g>
     </g>
     <g id="text_6">
      <!-- 100 -->
      <g transform="translate(335.149219 142.758438)scale(0.1 -0.1)">
       <defs>
        <path d="M 794 531 
L 1825 531 
L 1825 4091 
L 703 3866 
L 703 4441 
L 1819 4666 
L 2450 4666 
L 2450 531 
L 3481 531 
L 3481 0 
L 794 0 
L 794 531 
z
" id="DejaVuSans-31" transform="scale(0.015625)"/>
       </defs>
       <use xlink:href="#DejaVuSans-31"/>
       <use x="63.623047" xlink:href="#DejaVuSans-30"/>
       <use x="127.246094" xlink:href="#DejaVuSans-30"/>
      </g>
     </g>
    </g>
    <g id="xtick_7">
     <g id="line2d_13">
      <g>
       <use style="stroke:#000000;stroke-width:0.8;" x="401.364844" xlink:href="#m49fe3641c3" y="128.16"/>
      </g>
     </g>
     <g id="line2d_14">
      <g>
       <use style="stroke:#000000;stroke-width:0.8;" x="401.364844" xlink:href="#m8904052bbb" y="17.28"/>
      </g>
     </g>
     <g id="text_7">
      <!-- 120 -->
      <g transform="translate(391.821094 142.758438)scale(0.1 -0.1)">
       <use xlink:href="#DejaVuSans-31"/>
       <use x="63.623047" xlink:href="#DejaVuSans-32"/>
       <use x="127.246094" xlink:href="#DejaVuSans-30"/>
      </g>
     </g>
    </g>
    <g id="text_8">
     <!-- parsimony tree -->
     <g transform="translate(201.859375 156.436563)scale(0.1 -0.1)">
      <defs>
       <path d="M 1159 525 
L 1159 -1331 
L 581 -1331 
L 581 3500 
L 1159 3500 
L 1159 2969 
Q 1341 3281 1617 3432 
Q 1894 3584 2278 3584 
Q 2916 3584 3314 3078 
Q 3713 2572 3713 1747 
Q 3713 922 3314 415 
Q 2916 -91 2278 -91 
Q 1894 -91 1617 61 
Q 1341 213 1159 525 
z
M 3116 1747 
Q 3116 2381 2855 2742 
Q 2594 3103 2138 3103 
Q 1681 3103 1420 2742 
Q 1159 2381 1159 1747 
Q 1159 1113 1420 752 
Q 1681 391 2138 391 
Q 2594 391 2855 752 
Q 3116 1113 3116 1747 
z
" id="DejaVuSans-70" transform="scale(0.015625)"/>
       <path d="M 2194 1759 
Q 1497 1759 1228 1600 
Q 959 1441 959 1056 
Q 959 750 1161 570 
Q 1363 391 1709 391 
Q 2188 391 2477 730 
Q 2766 1069 2766 1631 
L 2766 1759 
L 2194 1759 
z
M 3341 1997 
L 3341 0 
L 2766 0 
L 2766 531 
Q 2569 213 2275 61 
Q 1981 -91 1556 -91 
Q 1019 -91 701 211 
Q 384 513 384 1019 
Q 384 1609 779 1909 
Q 1175 2209 1959 2209 
L 2766 2209 
L 2766 2266 
Q 2766 2663 2505 2880 
Q 2244 3097 1772 3097 
Q 1472 3097 1187 3025 
Q 903 2953 641 2809 
L 641 3341 
Q 956 3463 1253 3523 
Q 1550 3584 1831 3584 
Q 2591 3584 2966 3190 
Q 3341 2797 3341 1997 
z
" id="DejaVuSans-61" transform="scale(0.015625)"/>
       <path d="M 2631 2963 
Q 2534 3019 2420 3045 
Q 2306 3072 2169 3072 
Q 1681 3072 1420 2755 
Q 1159 2438 1159 1844 
L 1159 0 
L 581 0 
L 581 3500 
L 1159 3500 
L 1159 2956 
Q 1341 3275 1631 3429 
Q 1922 3584 2338 3584 
Q 2397 3584 2469 3576 
Q 2541 3569 2628 3553 
L 2631 2963 
z
" id="DejaVuSans-72" transform="scale(0.015625)"/>
       <path d="M 2834 3397 
L 2834 2853 
Q 2591 2978 2328 3040 
Q 2066 3103 1784 3103 
Q 1356 3103 1142 2972 
Q 928 2841 928 2578 
Q 928 2378 1081 2264 
Q 1234 2150 1697 2047 
L 1894 2003 
Q 2506 1872 2764 1633 
Q 3022 1394 3022 966 
Q 3022 478 2636 193 
Q 2250 -91 1575 -91 
Q 1294 -91 989 -36 
Q 684 19 347 128 
L 347 722 
Q 666 556 975 473 
Q 1284 391 1588 391 
Q 1994 391 2212 530 
Q 2431 669 2431 922 
Q 2431 1156 2273 1281 
Q 2116 1406 1581 1522 
L 1381 1569 
Q 847 1681 609 1914 
Q 372 2147 372 2553 
Q 372 3047 722 3315 
Q 1072 3584 1716 3584 
Q 2034 3584 2315 3537 
Q 2597 3491 2834 3397 
z
" id="DejaVuSans-73" transform="scale(0.015625)"/>
       <path d="M 603 3500 
L 1178 3500 
L 1178 0 
L 603 0 
L 603 3500 
z
M 603 4863 
L 1178 4863 
L 1178 4134 
L 603 4134 
L 603 4863 
z
" id="DejaVuSans-69" transform="scale(0.015625)"/>
       <path d="M 3328 2828 
Q 3544 3216 3844 3400 
Q 4144 3584 4550 3584 
Q 5097 3584 5394 3201 
Q 5691 2819 5691 2113 
L 5691 0 
L 5113 0 
L 5113 2094 
Q 5113 2597 4934 2840 
Q 4756 3084 4391 3084 
Q 3944 3084 3684 2787 
Q 3425 2491 3425 1978 
L 3425 0 
L 2847 0 
L 2847 2094 
Q 2847 2600 2669 2842 
Q 2491 3084 2119 3084 
Q 1678 3084 1418 2786 
Q 1159 2488 1159 1978 
L 1159 0 
L 581 0 
L 581 3500 
L 1159 3500 
L 1159 2956 
Q 1356 3278 1631 3431 
Q 1906 3584 2284 3584 
Q 2666 3584 2933 3390 
Q 3200 3197 3328 2828 
z
" id="DejaVuSans-6d" transform="scale(0.015625)"/>
       <path d="M 1959 3097 
Q 1497 3097 1228 2736 
Q 959 2375 959 1747 
Q 959 1119 1226 758 
Q 1494 397 1959 397 
Q 2419 397 2687 759 
Q 2956 1122 2956 1747 
Q 2956 2369 2687 2733 
Q 2419 3097 1959 3097 
z
M 1959 3584 
Q 2709 3584 3137 3096 
Q 3566 2609 3566 1747 
Q 3566 888 3137 398 
Q 2709 -91 1959 -91 
Q 1206 -91 779 398 
Q 353 888 353 1747 
Q 353 2609 779 3096 
Q 1206 3584 1959 3584 
z
" id="DejaVuSans-6f" transform="scale(0.015625)"/>
       <path d="M 3513 2113 
L 3513 0 
L 2938 0 
L 2938 2094 
Q 2938 2591 2744 2837 
Q 2550 3084 2163 3084 
Q 1697 3084 1428 2787 
Q 1159 2491 1159 1978 
L 1159 0 
L 581 0 
L 581 3500 
L 1159 3500 
L 1159 2956 
Q 1366 3272 1645 3428 
Q 1925 3584 2291 3584 
Q 2894 3584 3203 3211 
Q 3513 2838 3513 2113 
z
" id="DejaVuSans-6e" transform="scale(0.015625)"/>
       <path d="M 2059 -325 
Q 1816 -950 1584 -1140 
Q 1353 -1331 966 -1331 
L 506 -1331 
L 506 -850 
L 844 -850 
Q 1081 -850 1212 -737 
Q 1344 -625 1503 -206 
L 1606 56 
L 191 3500 
L 800 3500 
L 1894 763 
L 2988 3500 
L 3597 3500 
L 2059 -325 
z
" id="DejaVuSans-79" transform="scale(0.015625)"/>
       <path id="DejaVuSans-20" transform="scale(0.015625)"/>
       <path d="M 1172 4494 
L 1172 3500 
L 2356 3500 
L 2356 3053 
L 1172 3053 
L 1172 1153 
Q 1172 725 1289 603 
Q 1406 481 1766 481 
L 2356 481 
L 2356 0 
L 1766 0 
Q 1100 0 847 248 
Q 594 497 594 1153 
L 594 3053 
L 172 3053 
L 172 3500 
L 594 3500 
L 594 4494 
L 1172 4494 
z
" id="DejaVuSans-74" transform="scale(0.015625)"/>
       <path d="M 3597 1894 
L 3597 1613 
L 953 1613 
Q 991 1019 1311 708 
Q 1631 397 2203 397 
Q 2534 397 2845 478 
Q 3156 559 3463 722 
L 3463 178 
Q 3153 47 2828 -22 
Q 2503 -91 2169 -91 
Q 1331 -91 842 396 
Q 353 884 353 1716 
Q 353 2575 817 3079 
Q 1281 3584 2069 3584 
Q 2775 3584 3186 3129 
Q 3597 2675 3597 1894 
z
M 3022 2063 
Q 3016 2534 2758 2815 
Q 2500 3097 2075 3097 
Q 1594 3097 1305 2825 
Q 1016 2553 972 2059 
L 3022 2063 
z
" id="DejaVuSans-65" transform="scale(0.015625)"/>
      </defs>
      <use xlink:href="#DejaVuSans-70"/>
      <use x="63.476562" xlink:href="#DejaVuSans-61"/>
      <use x="124.755859" xlink:href="#DejaVuSans-72"/>
      <use x="165.869141" xlink:href="#DejaVuSans-73"/>
      <use x="217.96875" xlink:href="#DejaVuSans-69"/>
      <use x="245.751953" xlink:href="#DejaVuSans-6d"/>
      <use x="343.164062" xlink:href="#DejaVuSans-6f"/>
      <use x="404.345703" xlink:href="#DejaVuSans-6e"/>
      <use x="467.724609" xlink:href="#DejaVuSans-79"/>
      <use x="526.904297" xlink:href="#DejaVuSans-20"/>
      <use x="558.691406" xlink:href="#DejaVuSans-74"/>
      <use x="597.900391" xlink:href="#DejaVuSans-72"/>
      <use x="636.763672" xlink:href="#DejaVuSans-65"/>
      <use x="698.287109" xlink:href="#DejaVuSans-65"/>
     </g>
    </g>
   </g>
   <g id="matplotlib.axis_2">
    <g id="ytick_1">
     <g id="line2d_15">
      <defs>
       <path d="M 0 0 
L -3.5 0 
" id="mdb1308951c" style="stroke:#000000;stroke-width:0.8;"/>
      </defs>
      <g>
       <use style="stroke:#000000;stroke-width:0.8;" x="58.5" xlink:href="#mdb1308951c" y="103.593739"/>
      </g>
     </g>
     <g id="text_9">
      <!-- $\mathdefault{10^{-64}}$ -->
      <g transform="translate(23.6 107.392958)scale(0.1 -0.1)">
       <defs>
        <path d="M 678 2272 
L 4684 2272 
L 4684 1741 
L 678 1741 
L 678 2272 
z
" id="DejaVuSans-2212" transform="scale(0.015625)"/>
       </defs>
       <use transform="translate(0 0.765625)" xlink:href="#DejaVuSans-31"/>
       <use transform="translate(63.623047 0.765625)" xlink:href="#DejaVuSans-30"/>
       <use transform="translate(128.203125 39.046875)scale(0.7)" xlink:href="#DejaVuSans-2212"/>
       <use transform="translate(186.855469 39.046875)scale(0.7)" xlink:href="#DejaVuSans-36"/>
       <use transform="translate(231.391602 39.046875)scale(0.7)" xlink:href="#DejaVuSans-34"/>
      </g>
     </g>
    </g>
    <g id="ytick_2">
     <g id="line2d_16">
      <g>
       <use style="stroke:#000000;stroke-width:0.8;" x="58.5" xlink:href="#mdb1308951c" y="69.870179"/>
      </g>
     </g>
     <g id="text_10">
      <!-- $\mathdefault{10^{-63}}$ -->
      <g transform="translate(23.6 73.669397)scale(0.1 -0.1)">
       <defs>
        <path d="M 2597 2516 
Q 3050 2419 3304 2112 
Q 3559 1806 3559 1356 
Q 3559 666 3084 287 
Q 2609 -91 1734 -91 
Q 1441 -91 1130 -33 
Q 819 25 488 141 
L 488 750 
Q 750 597 1062 519 
Q 1375 441 1716 441 
Q 2309 441 2620 675 
Q 2931 909 2931 1356 
Q 2931 1769 2642 2001 
Q 2353 2234 1838 2234 
L 1294 2234 
L 1294 2753 
L 1863 2753 
Q 2328 2753 2575 2939 
Q 2822 3125 2822 3475 
Q 2822 3834 2567 4026 
Q 2313 4219 1838 4219 
Q 1578 4219 1281 4162 
Q 984 4106 628 3988 
L 628 4550 
Q 988 4650 1302 4700 
Q 1616 4750 1894 4750 
Q 2613 4750 3031 4423 
Q 3450 4097 3450 3541 
Q 3450 3153 3228 2886 
Q 3006 2619 2597 2516 
z
" id="DejaVuSans-33" transform="scale(0.015625)"/>
       </defs>
       <use transform="translate(0 0.765625)" xlink:href="#DejaVuSans-31"/>
       <use transform="translate(63.623047 0.765625)" xlink:href="#DejaVuSans-30"/>
       <use transform="translate(128.203125 39.046875)scale(0.7)" xlink:href="#DejaVuSans-2212"/>
       <use transform="translate(186.855469 39.046875)scale(0.7)" xlink:href="#DejaVuSans-36"/>
       <use transform="translate(231.391602 39.046875)scale(0.7)" xlink:href="#DejaVuSans-33"/>
      </g>
     </g>
    </g>
    <g id="ytick_3">
     <g id="line2d_17">
      <g>
       <use style="stroke:#000000;stroke-width:0.8;" x="58.5" xlink:href="#mdb1308951c" y="36.146619"/>
      </g>
     </g>
     <g id="text_11">
      <!-- $\mathdefault{10^{-62}}$ -->
      <g transform="translate(23.6 39.945837)scale(0.1 -0.1)">
       <use transform="translate(0 0.765625)" xlink:href="#DejaVuSans-31"/>
       <use transform="translate(63.623047 0.765625)" xlink:href="#DejaVuSans-30"/>
       <use transform="translate(128.203125 39.046875)scale(0.7)" xlink:href="#DejaVuSans-2212"/>
       <use transform="translate(186.855469 39.046875)scale(0.7)" xlink:href="#DejaVuSans-36"/>
       <use transform="translate(231.391602 39.046875)scale(0.7)" xlink:href="#DejaVuSans-32"/>
      </g>
     </g>
    </g>
    <g id="ytick_4">
     <g id="line2d_18">
      <defs>
       <path d="M 0 0 
L -2 0 
" id="m155b879146" style="stroke:#000000;stroke-width:0.6;"/>
      </defs>
      <g>
       <use style="stroke:#000000;stroke-width:0.6;" x="58.5" xlink:href="#m155b879146" y="127.165496"/>
      </g>
     </g>
    </g>
    <g id="ytick_5">
     <g id="line2d_19">
      <g>
       <use style="stroke:#000000;stroke-width:0.6;" x="58.5" xlink:href="#m155b879146" y="121.227072"/>
      </g>
     </g>
    </g>
    <g id="ytick_6">
     <g id="line2d_20">
      <g>
       <use style="stroke:#000000;stroke-width:0.6;" x="58.5" xlink:href="#m155b879146" y="117.013693"/>
      </g>
     </g>
    </g>
    <g id="ytick_7">
     <g id="line2d_21">
      <g>
       <use style="stroke:#000000;stroke-width:0.6;" x="58.5" xlink:href="#m155b879146" y="113.745542"/>
      </g>
     </g>
    </g>
    <g id="ytick_8">
     <g id="line2d_22">
      <g>
       <use style="stroke:#000000;stroke-width:0.6;" x="58.5" xlink:href="#m155b879146" y="111.075268"/>
      </g>
     </g>
    </g>
    <g id="ytick_9">
     <g id="line2d_23">
      <g>
       <use style="stroke:#000000;stroke-width:0.6;" x="58.5" xlink:href="#m155b879146" y="108.817584"/>
      </g>
     </g>
    </g>
    <g id="ytick_10">
     <g id="line2d_24">
      <g>
       <use style="stroke:#000000;stroke-width:0.6;" x="58.5" xlink:href="#m155b879146" y="106.861889"/>
      </g>
     </g>
    </g>
    <g id="ytick_11">
     <g id="line2d_25">
      <g>
       <use style="stroke:#000000;stroke-width:0.6;" x="58.5" xlink:href="#m155b879146" y="105.136844"/>
      </g>
     </g>
    </g>
    <g id="ytick_12">
     <g id="line2d_26">
      <g>
       <use style="stroke:#000000;stroke-width:0.6;" x="58.5" xlink:href="#m155b879146" y="93.441936"/>
      </g>
     </g>
    </g>
    <g id="ytick_13">
     <g id="line2d_27">
      <g>
       <use style="stroke:#000000;stroke-width:0.6;" x="58.5" xlink:href="#m155b879146" y="87.503511"/>
      </g>
     </g>
    </g>
    <g id="ytick_14">
     <g id="line2d_28">
      <g>
       <use style="stroke:#000000;stroke-width:0.6;" x="58.5" xlink:href="#m155b879146" y="83.290132"/>
      </g>
     </g>
    </g>
    <g id="ytick_15">
     <g id="line2d_29">
      <g>
       <use style="stroke:#000000;stroke-width:0.6;" x="58.5" xlink:href="#m155b879146" y="80.021982"/>
      </g>
     </g>
    </g>
    <g id="ytick_16">
     <g id="line2d_30">
      <g>
       <use style="stroke:#000000;stroke-width:0.6;" x="58.5" xlink:href="#m155b879146" y="77.351708"/>
      </g>
     </g>
    </g>
    <g id="ytick_17">
     <g id="line2d_31">
      <g>
       <use style="stroke:#000000;stroke-width:0.6;" x="58.5" xlink:href="#m155b879146" y="75.094024"/>
      </g>
     </g>
    </g>
    <g id="ytick_18">
     <g id="line2d_32">
      <g>
       <use style="stroke:#000000;stroke-width:0.6;" x="58.5" xlink:href="#m155b879146" y="73.138329"/>
      </g>
     </g>
    </g>
    <g id="ytick_19">
     <g id="line2d_33">
      <g>
       <use style="stroke:#000000;stroke-width:0.6;" x="58.5" xlink:href="#m155b879146" y="71.413284"/>
      </g>
     </g>
    </g>
    <g id="ytick_20">
     <g id="line2d_34">
      <g>
       <use style="stroke:#000000;stroke-width:0.6;" x="58.5" xlink:href="#m155b879146" y="59.718375"/>
      </g>
     </g>
    </g>
    <g id="ytick_21">
     <g id="line2d_35">
      <g>
       <use style="stroke:#000000;stroke-width:0.6;" x="58.5" xlink:href="#m155b879146" y="53.779951"/>
      </g>
     </g>
    </g>
    <g id="ytick_22">
     <g id="line2d_36">
      <g>
       <use style="stroke:#000000;stroke-width:0.6;" x="58.5" xlink:href="#m155b879146" y="49.566572"/>
      </g>
     </g>
    </g>
    <g id="ytick_23">
     <g id="line2d_37">
      <g>
       <use style="stroke:#000000;stroke-width:0.6;" x="58.5" xlink:href="#m155b879146" y="46.298422"/>
      </g>
     </g>
    </g>
    <g id="ytick_24">
     <g id="line2d_38">
      <g>
       <use style="stroke:#000000;stroke-width:0.6;" x="58.5" xlink:href="#m155b879146" y="43.628148"/>
      </g>
     </g>
    </g>
    <g id="ytick_25">
     <g id="line2d_39">
      <g>
       <use style="stroke:#000000;stroke-width:0.6;" x="58.5" xlink:href="#m155b879146" y="41.370464"/>
      </g>
     </g>
    </g>
    <g id="ytick_26">
     <g id="line2d_40">
      <g>
       <use style="stroke:#000000;stroke-width:0.6;" x="58.5" xlink:href="#m155b879146" y="39.414769"/>
      </g>
     </g>
    </g>
    <g id="ytick_27">
     <g id="line2d_41">
      <g>
       <use style="stroke:#000000;stroke-width:0.6;" x="58.5" xlink:href="#m155b879146" y="37.689724"/>
      </g>
     </g>
    </g>
    <g id="ytick_28">
     <g id="line2d_42">
      <g>
       <use style="stroke:#000000;stroke-width:0.6;" x="58.5" xlink:href="#m155b879146" y="25.994815"/>
      </g>
     </g>
    </g>
    <g id="ytick_29">
     <g id="line2d_43">
      <g>
       <use style="stroke:#000000;stroke-width:0.6;" x="58.5" xlink:href="#m155b879146" y="20.056391"/>
      </g>
     </g>
    </g>
    <g id="text_12">
     <!-- gctree likelihood -->
     <g transform="translate(17.520312 114.097344)rotate(-90)scale(0.1 -0.1)">
      <defs>
       <path d="M 2906 1791 
Q 2906 2416 2648 2759 
Q 2391 3103 1925 3103 
Q 1463 3103 1205 2759 
Q 947 2416 947 1791 
Q 947 1169 1205 825 
Q 1463 481 1925 481 
Q 2391 481 2648 825 
Q 2906 1169 2906 1791 
z
M 3481 434 
Q 3481 -459 3084 -895 
Q 2688 -1331 1869 -1331 
Q 1566 -1331 1297 -1286 
Q 1028 -1241 775 -1147 
L 775 -588 
Q 1028 -725 1275 -790 
Q 1522 -856 1778 -856 
Q 2344 -856 2625 -561 
Q 2906 -266 2906 331 
L 2906 616 
Q 2728 306 2450 153 
Q 2172 0 1784 0 
Q 1141 0 747 490 
Q 353 981 353 1791 
Q 353 2603 747 3093 
Q 1141 3584 1784 3584 
Q 2172 3584 2450 3431 
Q 2728 3278 2906 2969 
L 2906 3500 
L 3481 3500 
L 3481 434 
z
" id="DejaVuSans-67" transform="scale(0.015625)"/>
       <path d="M 3122 3366 
L 3122 2828 
Q 2878 2963 2633 3030 
Q 2388 3097 2138 3097 
Q 1578 3097 1268 2742 
Q 959 2388 959 1747 
Q 959 1106 1268 751 
Q 1578 397 2138 397 
Q 2388 397 2633 464 
Q 2878 531 3122 666 
L 3122 134 
Q 2881 22 2623 -34 
Q 2366 -91 2075 -91 
Q 1284 -91 818 406 
Q 353 903 353 1747 
Q 353 2603 823 3093 
Q 1294 3584 2113 3584 
Q 2378 3584 2631 3529 
Q 2884 3475 3122 3366 
z
" id="DejaVuSans-63" transform="scale(0.015625)"/>
       <path d="M 603 4863 
L 1178 4863 
L 1178 0 
L 603 0 
L 603 4863 
z
" id="DejaVuSans-6c" transform="scale(0.015625)"/>
       <path d="M 581 4863 
L 1159 4863 
L 1159 1991 
L 2875 3500 
L 3609 3500 
L 1753 1863 
L 3688 0 
L 2938 0 
L 1159 1709 
L 1159 0 
L 581 0 
L 581 4863 
z
" id="DejaVuSans-6b" transform="scale(0.015625)"/>
       <path d="M 3513 2113 
L 3513 0 
L 2938 0 
L 2938 2094 
Q 2938 2591 2744 2837 
Q 2550 3084 2163 3084 
Q 1697 3084 1428 2787 
Q 1159 2491 1159 1978 
L 1159 0 
L 581 0 
L 581 4863 
L 1159 4863 
L 1159 2956 
Q 1366 3272 1645 3428 
Q 1925 3584 2291 3584 
Q 2894 3584 3203 3211 
Q 3513 2838 3513 2113 
z
" id="DejaVuSans-68" transform="scale(0.015625)"/>
       <path d="M 2906 2969 
L 2906 4863 
L 3481 4863 
L 3481 0 
L 2906 0 
L 2906 525 
Q 2725 213 2448 61 
Q 2172 -91 1784 -91 
Q 1150 -91 751 415 
Q 353 922 353 1747 
Q 353 2572 751 3078 
Q 1150 3584 1784 3584 
Q 2172 3584 2448 3432 
Q 2725 3281 2906 2969 
z
M 947 1747 
Q 947 1113 1208 752 
Q 1469 391 1925 391 
Q 2381 391 2643 752 
Q 2906 1113 2906 1747 
Q 2906 2381 2643 2742 
Q 2381 3103 1925 3103 
Q 1469 3103 1208 2742 
Q 947 2381 947 1747 
z
" id="DejaVuSans-64" transform="scale(0.015625)"/>
      </defs>
      <use xlink:href="#DejaVuSans-67"/>
      <use x="63.476562" xlink:href="#DejaVuSans-63"/>
      <use x="118.457031" xlink:href="#DejaVuSans-74"/>
      <use x="157.666016" xlink:href="#DejaVuSans-72"/>
      <use x="196.529297" xlink:href="#DejaVuSans-65"/>
      <use x="258.052734" xlink:href="#DejaVuSans-65"/>
      <use x="319.576172" xlink:href="#DejaVuSans-20"/>
      <use x="351.363281" xlink:href="#DejaVuSans-6c"/>
      <use x="379.146484" xlink:href="#DejaVuSans-69"/>
      <use x="406.929688" xlink:href="#DejaVuSans-6b"/>
      <use x="461.214844" xlink:href="#DejaVuSans-65"/>
      <use x="522.738281" xlink:href="#DejaVuSans-6c"/>
      <use x="550.521484" xlink:href="#DejaVuSans-69"/>
      <use x="578.304688" xlink:href="#DejaVuSans-68"/>
      <use x="641.683594" xlink:href="#DejaVuSans-6f"/>
      <use x="702.865234" xlink:href="#DejaVuSans-6f"/>
      <use x="764.046875" xlink:href="#DejaVuSans-64"/>
     </g>
    </g>
   </g>
   <g id="line2d_44">
    <defs>
     <path d="M 0 2 
C 0.530406 2 1.03916 1.789267 1.414214 1.414214 
C 1.789267 1.03916 2 0.530406 2 0 
C 2 -0.530406 1.789267 -1.03916 1.414214 -1.414214 
C 1.03916 -1.789267 0.530406 -2 0 -2 
C -0.530406 -2 -1.03916 -1.789267 -1.414214 -1.414214 
C -1.789267 -1.03916 -2 -0.530406 -2 0 
C -2 0.530406 -1.789267 1.03916 -1.414214 1.414214 
C -1.03916 1.789267 -0.530406 2 0 2 
z
" id="mb5e7f53935" style="stroke:#000000;"/>
    </defs>
    <g>
     <use style="stroke:#000000;" x="61.333594" xlink:href="#mb5e7f53935" y="18.675909"/>
     <use style="stroke:#000000;" x="64.167187" xlink:href="#mb5e7f53935" y="18.675909"/>
     <use style="stroke:#000000;" x="67.000781" xlink:href="#mb5e7f53935" y="18.675909"/>
     <use style="stroke:#000000;" x="69.834375" xlink:href="#mb5e7f53935" y="18.675909"/>
     <use style="stroke:#000000;" x="72.667969" xlink:href="#mb5e7f53935" y="30.154384"/>
     <use style="stroke:#000000;" x="75.501563" xlink:href="#mb5e7f53935" y="30.154384"/>
     <use style="stroke:#000000;" x="78.335156" xlink:href="#mb5e7f53935" y="30.154384"/>
     <use style="stroke:#000000;" x="81.16875" xlink:href="#mb5e7f53935" y="30.154384"/>
     <use style="stroke:#000000;" x="84.002344" xlink:href="#mb5e7f53935" y="30.154384"/>
     <use style="stroke:#000000;" x="86.835938" xlink:href="#mb5e7f53935" y="33.422535"/>
     <use style="stroke:#000000;" x="89.669531" xlink:href="#mb5e7f53935" y="33.422535"/>
     <use style="stroke:#000000;" x="92.503125" xlink:href="#mb5e7f53935" y="35.082342"/>
     <use style="stroke:#000000;" x="95.336719" xlink:href="#mb5e7f53935" y="35.082342"/>
     <use style="stroke:#000000;" x="98.170312" xlink:href="#mb5e7f53935" y="35.082342"/>
     <use style="stroke:#000000;" x="101.003906" xlink:href="#mb5e7f53935" y="35.082342"/>
     <use style="stroke:#000000;" x="103.8375" xlink:href="#mb5e7f53935" y="35.082342"/>
     <use style="stroke:#000000;" x="106.671094" xlink:href="#mb5e7f53935" y="35.082342"/>
     <use style="stroke:#000000;" x="109.504687" xlink:href="#mb5e7f53935" y="35.082342"/>
     <use style="stroke:#000000;" x="112.338281" xlink:href="#mb5e7f53935" y="35.082342"/>
     <use style="stroke:#000000;" x="115.171875" xlink:href="#mb5e7f53935" y="35.082342"/>
     <use style="stroke:#000000;" x="118.005469" xlink:href="#mb5e7f53935" y="35.082342"/>
     <use style="stroke:#000000;" x="120.839062" xlink:href="#mb5e7f53935" y="36.092809"/>
     <use style="stroke:#000000;" x="123.672656" xlink:href="#mb5e7f53935" y="36.092809"/>
     <use style="stroke:#000000;" x="126.50625" xlink:href="#mb5e7f53935" y="36.092809"/>
     <use style="stroke:#000000;" x="129.339844" xlink:href="#mb5e7f53935" y="36.092809"/>
     <use style="stroke:#000000;" x="132.173438" xlink:href="#mb5e7f53935" y="36.092809"/>
     <use style="stroke:#000000;" x="135.007031" xlink:href="#mb5e7f53935" y="36.092809"/>
     <use style="stroke:#000000;" x="137.840625" xlink:href="#mb5e7f53935" y="36.092809"/>
     <use style="stroke:#000000;" x="140.674219" xlink:href="#mb5e7f53935" y="44.901011"/>
     <use style="stroke:#000000;" x="143.507812" xlink:href="#mb5e7f53935" y="44.901011"/>
     <use style="stroke:#000000;" x="146.341406" xlink:href="#mb5e7f53935" y="44.901011"/>
     <use style="stroke:#000000;" x="149.175" xlink:href="#mb5e7f53935" y="46.560818"/>
     <use style="stroke:#000000;" x="152.008594" xlink:href="#mb5e7f53935" y="46.560818"/>
     <use style="stroke:#000000;" x="154.842187" xlink:href="#mb5e7f53935" y="46.560818"/>
     <use style="stroke:#000000;" x="157.675781" xlink:href="#mb5e7f53935" y="46.560818"/>
     <use style="stroke:#000000;" x="160.509375" xlink:href="#mb5e7f53935" y="46.560818"/>
     <use style="stroke:#000000;" x="163.342969" xlink:href="#mb5e7f53935" y="46.560818"/>
     <use style="stroke:#000000;" x="166.176562" xlink:href="#mb5e7f53935" y="46.560818"/>
     <use style="stroke:#000000;" x="169.010156" xlink:href="#mb5e7f53935" y="47.571284"/>
     <use style="stroke:#000000;" x="171.84375" xlink:href="#mb5e7f53935" y="47.571284"/>
     <use style="stroke:#000000;" x="174.677344" xlink:href="#mb5e7f53935" y="47.571284"/>
     <use style="stroke:#000000;" x="177.510937" xlink:href="#mb5e7f53935" y="47.571284"/>
     <use style="stroke:#000000;" x="180.344531" xlink:href="#mb5e7f53935" y="47.571284"/>
     <use style="stroke:#000000;" x="183.178125" xlink:href="#mb5e7f53935" y="47.571284"/>
     <use style="stroke:#000000;" x="186.011719" xlink:href="#mb5e7f53935" y="47.571284"/>
     <use style="stroke:#000000;" x="188.845313" xlink:href="#mb5e7f53935" y="47.571284"/>
     <use style="stroke:#000000;" x="191.678906" xlink:href="#mb5e7f53935" y="49.828968"/>
     <use style="stroke:#000000;" x="194.5125" xlink:href="#mb5e7f53935" y="49.828968"/>
     <use style="stroke:#000000;" x="197.346094" xlink:href="#mb5e7f53935" y="49.828968"/>
     <use style="stroke:#000000;" x="200.179688" xlink:href="#mb5e7f53935" y="49.828968"/>
     <use style="stroke:#000000;" x="203.013281" xlink:href="#mb5e7f53935" y="49.828968"/>
     <use style="stroke:#000000;" x="205.846875" xlink:href="#mb5e7f53935" y="50.839435"/>
     <use style="stroke:#000000;" x="208.680469" xlink:href="#mb5e7f53935" y="51.488775"/>
     <use style="stroke:#000000;" x="211.514062" xlink:href="#mb5e7f53935" y="51.488775"/>
     <use style="stroke:#000000;" x="214.347656" xlink:href="#mb5e7f53935" y="51.488775"/>
     <use style="stroke:#000000;" x="217.18125" xlink:href="#mb5e7f53935" y="51.488775"/>
     <use style="stroke:#000000;" x="220.014844" xlink:href="#mb5e7f53935" y="52.499242"/>
     <use style="stroke:#000000;" x="222.848437" xlink:href="#mb5e7f53935" y="52.499242"/>
     <use style="stroke:#000000;" x="225.682031" xlink:href="#mb5e7f53935" y="52.499242"/>
     <use style="stroke:#000000;" x="228.515625" xlink:href="#mb5e7f53935" y="52.499242"/>
     <use style="stroke:#000000;" x="231.349219" xlink:href="#mb5e7f53935" y="52.499242"/>
     <use style="stroke:#000000;" x="234.182813" xlink:href="#mb5e7f53935" y="52.499242"/>
     <use style="stroke:#000000;" x="237.016406" xlink:href="#mb5e7f53935" y="52.499242"/>
     <use style="stroke:#000000;" x="239.85" xlink:href="#mb5e7f53935" y="52.499242"/>
     <use style="stroke:#000000;" x="242.683594" xlink:href="#mb5e7f53935" y="52.499242"/>
     <use style="stroke:#000000;" x="245.517188" xlink:href="#mb5e7f53935" y="52.499242"/>
     <use style="stroke:#000000;" x="248.350781" xlink:href="#mb5e7f53935" y="58.039294"/>
     <use style="stroke:#000000;" x="251.184375" xlink:href="#mb5e7f53935" y="61.307444"/>
     <use style="stroke:#000000;" x="254.017969" xlink:href="#mb5e7f53935" y="61.307444"/>
     <use style="stroke:#000000;" x="256.851562" xlink:href="#mb5e7f53935" y="61.307444"/>
     <use style="stroke:#000000;" x="259.685156" xlink:href="#mb5e7f53935" y="61.307444"/>
     <use style="stroke:#000000;" x="262.51875" xlink:href="#mb5e7f53935" y="61.307444"/>
     <use style="stroke:#000000;" x="265.352344" xlink:href="#mb5e7f53935" y="62.967251"/>
     <use style="stroke:#000000;" x="268.185937" xlink:href="#mb5e7f53935" y="63.977718"/>
     <use style="stroke:#000000;" x="271.019531" xlink:href="#mb5e7f53935" y="63.977718"/>
     <use style="stroke:#000000;" x="273.853125" xlink:href="#mb5e7f53935" y="63.977718"/>
     <use style="stroke:#000000;" x="276.686719" xlink:href="#mb5e7f53935" y="63.977718"/>
     <use style="stroke:#000000;" x="279.520312" xlink:href="#mb5e7f53935" y="63.977718"/>
     <use style="stroke:#000000;" x="282.353906" xlink:href="#mb5e7f53935" y="63.977718"/>
     <use style="stroke:#000000;" x="285.1875" xlink:href="#mb5e7f53935" y="63.977718"/>
     <use style="stroke:#000000;" x="288.021094" xlink:href="#mb5e7f53935" y="63.977718"/>
     <use style="stroke:#000000;" x="290.854688" xlink:href="#mb5e7f53935" y="66.235402"/>
     <use style="stroke:#000000;" x="293.688281" xlink:href="#mb5e7f53935" y="66.235402"/>
     <use style="stroke:#000000;" x="296.521875" xlink:href="#mb5e7f53935" y="66.235402"/>
     <use style="stroke:#000000;" x="299.355469" xlink:href="#mb5e7f53935" y="67.245868"/>
     <use style="stroke:#000000;" x="302.189062" xlink:href="#mb5e7f53935" y="67.245868"/>
     <use style="stroke:#000000;" x="305.022656" xlink:href="#mb5e7f53935" y="67.245868"/>
     <use style="stroke:#000000;" x="307.85625" xlink:href="#mb5e7f53935" y="67.245868"/>
     <use style="stroke:#000000;" x="310.689844" xlink:href="#mb5e7f53935" y="67.245868"/>
     <use style="stroke:#000000;" x="313.523438" xlink:href="#mb5e7f53935" y="67.245868"/>
     <use style="stroke:#000000;" x="316.357031" xlink:href="#mb5e7f53935" y="67.245868"/>
     <use style="stroke:#000000;" x="319.190625" xlink:href="#mb5e7f53935" y="67.895209"/>
     <use style="stroke:#000000;" x="322.024219" xlink:href="#mb5e7f53935" y="68.905675"/>
     <use style="stroke:#000000;" x="324.857812" xlink:href="#mb5e7f53935" y="68.905675"/>
     <use style="stroke:#000000;" x="327.691406" xlink:href="#mb5e7f53935" y="68.905675"/>
     <use style="stroke:#000000;" x="330.525" xlink:href="#mb5e7f53935" y="68.905675"/>
     <use style="stroke:#000000;" x="333.358594" xlink:href="#mb5e7f53935" y="68.905675"/>
     <use style="stroke:#000000;" x="336.192187" xlink:href="#mb5e7f53935" y="68.905675"/>
     <use style="stroke:#000000;" x="339.025781" xlink:href="#mb5e7f53935" y="72.78592"/>
     <use style="stroke:#000000;" x="341.859375" xlink:href="#mb5e7f53935" y="72.78592"/>
     <use style="stroke:#000000;" x="344.692969" xlink:href="#mb5e7f53935" y="72.78592"/>
     <use style="stroke:#000000;" x="347.526562" xlink:href="#mb5e7f53935" y="76.054071"/>
     <use style="stroke:#000000;" x="350.360156" xlink:href="#mb5e7f53935" y="77.713878"/>
     <use style="stroke:#000000;" x="353.19375" xlink:href="#mb5e7f53935" y="77.713878"/>
     <use style="stroke:#000000;" x="356.027344" xlink:href="#mb5e7f53935" y="78.724344"/>
     <use style="stroke:#000000;" x="358.860937" xlink:href="#mb5e7f53935" y="78.724344"/>
     <use style="stroke:#000000;" x="361.694531" xlink:href="#mb5e7f53935" y="78.724344"/>
     <use style="stroke:#000000;" x="364.528125" xlink:href="#mb5e7f53935" y="78.724344"/>
     <use style="stroke:#000000;" x="367.361719" xlink:href="#mb5e7f53935" y="80.384151"/>
     <use style="stroke:#000000;" x="370.195312" xlink:href="#mb5e7f53935" y="80.384151"/>
     <use style="stroke:#000000;" x="373.028906" xlink:href="#mb5e7f53935" y="82.641835"/>
     <use style="stroke:#000000;" x="375.8625" xlink:href="#mb5e7f53935" y="83.652302"/>
     <use style="stroke:#000000;" x="378.696094" xlink:href="#mb5e7f53935" y="83.652302"/>
     <use style="stroke:#000000;" x="381.529687" xlink:href="#mb5e7f53935" y="83.652302"/>
     <use style="stroke:#000000;" x="384.363281" xlink:href="#mb5e7f53935" y="83.652302"/>
     <use style="stroke:#000000;" x="387.196875" xlink:href="#mb5e7f53935" y="83.652302"/>
     <use style="stroke:#000000;" x="390.030469" xlink:href="#mb5e7f53935" y="83.652302"/>
     <use style="stroke:#000000;" x="392.864062" xlink:href="#mb5e7f53935" y="83.652302"/>
     <use style="stroke:#000000;" x="395.697656" xlink:href="#mb5e7f53935" y="87.532546"/>
     <use style="stroke:#000000;" x="398.53125" xlink:href="#mb5e7f53935" y="89.192353"/>
     <use style="stroke:#000000;" x="401.364844" xlink:href="#mb5e7f53935" y="89.192353"/>
     <use style="stroke:#000000;" x="404.198437" xlink:href="#mb5e7f53935" y="95.130778"/>
     <use style="stroke:#000000;" x="407.032031" xlink:href="#mb5e7f53935" y="108.199845"/>
     <use style="stroke:#000000;" x="409.865625" xlink:href="#mb5e7f53935" y="108.199845"/>
     <use style="stroke:#000000;" x="412.699219" xlink:href="#mb5e7f53935" y="115.417456"/>
     <use style="stroke:#000000;" x="415.532812" xlink:href="#mb5e7f53935" y="122.946472"/>
     <use style="stroke:#000000;" x="418.366406" xlink:href="#mb5e7f53935" y="122.946472"/>
    </g>
   </g>
   <g id="patch_3">
    <path d="M 58.5 128.16 
L 58.5 17.28 
" style="fill:none;stroke:#000000;stroke-linecap:square;stroke-linejoin:miter;stroke-width:0.8;"/>
   </g>
   <g id="patch_4">
    <path d="M 421.2 128.16 
L 421.2 17.28 
" style="fill:none;stroke:#000000;stroke-linecap:square;stroke-linejoin:miter;stroke-width:0.8;"/>
   </g>
   <g id="patch_5">
    <path d="M 58.5 128.16 
L 421.2 128.16 
" style="fill:none;stroke:#000000;stroke-linecap:square;stroke-linejoin:miter;stroke-width:0.8;"/>
   </g>
   <g id="patch_6">
    <path d="M 58.5 17.28 
L 421.2 17.28 
" style="fill:none;stroke:#000000;stroke-linecap:square;stroke-linejoin:miter;stroke-width:0.8;"/>
   </g>
  </g>
 </g>
</svg>
