<?xml version="1.0" encoding="utf-8" standalone="no"?>
<!DOCTYPE svg PUBLIC "-//W3C//DTD SVG 1.1//EN"
  "http://www.w3.org/Graphics/SVG/1.1/DTD/svg11.dtd">
<!-- Created with matplotlib (http://matplotlib.org/) -->
<svg height="345.6pt" version="1.1" viewBox="0 0 460.8 345.6" width="460.8pt" xmlns="http://www.w3.org/2000/svg" xmlns:xlink="http://www.w3.org/1999/xlink">
 <defs>
  <style type="text/css">
*{stroke-linecap:butt;stroke-linejoin:round;}
  </style>
 </defs>
 <g id="figure_1">
  <g id="patch_1">
   <path d="M 0 345.6 
L 460.8 345.6 
L 460.8 0 
L 0 0 
z
" style="fill:#ffffff;"/>
  </g>
  <g id="axes_1">
   <g id="patch_2">
    <path d="M 92.953125 280.292969 
L 426.15 280.292969 
L 426.15 38.744531 
L 92.953125 38.744531 
z
" style="fill:#ffffff;"/>
   </g>
   <g id="matplotlib.axis_1">
    <g id="xtick_1">
     <g id="line2d_1">
      <defs>
       <path d="M 0 0 
L 0 3.5 
" id="mffa39842eb" style="stroke:#262626;stroke-width:0.8;"/>
      </defs>
      <g>
       <use style="fill:#262626;stroke:#262626;stroke-width:0.8;" x="92.953125" xlink:href="#mffa39842eb" y="280.292969"/>
      </g>
     </g>
     <g id="text_1">
      <text style="fill:#262626;font-family:Lato;font-size:15px;font-style:normal;font-weight:600;text-anchor:middle;" transform="rotate(-0, 92.953125, 298.4375)" x="92.953125" y="298.4375">50</text>
     </g>
    </g>
    <g id="xtick_2">
     <g id="line2d_2">
      <g>
       <use style="fill:#262626;stroke:#262626;stroke-width:0.8;" x="159.5925" xlink:href="#mffa39842eb" y="280.292969"/>
      </g>
     </g>
     <g id="text_2">
      <text style="fill:#262626;font-family:Lato;font-size:15px;font-style:normal;font-weight:600;text-anchor:middle;" transform="rotate(-0, 159.5925, 298.4375)" x="159.5925" y="298.4375">60</text>
     </g>
    </g>
    <g id="xtick_3">
     <g id="line2d_3">
      <g>
       <use style="fill:#262626;stroke:#262626;stroke-width:0.8;" x="226.231875" xlink:href="#mffa39842eb" y="280.292969"/>
      </g>
     </g>
     <g id="text_3">
      <text style="fill:#262626;font-family:Lato;font-size:15px;font-style:normal;font-weight:600;text-anchor:middle;" transform="rotate(-0, 226.231875, 298.4375)" x="226.231875" y="298.4375">70</text>
     </g>
    </g>
    <g id="xtick_4">
     <g id="line2d_4">
      <g>
       <use style="fill:#262626;stroke:#262626;stroke-width:0.8;" x="292.87125" xlink:href="#mffa39842eb" y="280.292969"/>
      </g>
     </g>
     <g id="text_4">
      <text style="fill:#262626;font-family:Lato;font-size:15px;font-style:normal;font-weight:600;text-anchor:middle;" transform="rotate(-0, 292.87125, 298.4375)" x="292.87125" y="298.4375">80</text>
     </g>
    </g>
    <g id="xtick_5">
     <g id="line2d_5">
      <g>
       <use style="fill:#262626;stroke:#262626;stroke-width:0.8;" x="359.510625" xlink:href="#mffa39842eb" y="280.292969"/>
      </g>
     </g>
     <g id="text_5">
      <text style="fill:#262626;font-family:Lato;font-size:15px;font-style:normal;font-weight:600;text-anchor:middle;" transform="rotate(-0, 359.510625, 298.4375)" x="359.510625" y="298.4375">90</text>
     </g>
    </g>
    <g id="xtick_6">
     <g id="line2d_6">
      <g>
       <use style="fill:#262626;stroke:#262626;stroke-width:0.8;" x="426.15" xlink:href="#mffa39842eb" y="280.292969"/>
      </g>
     </g>
     <g id="text_6">
      <text style="fill:#262626;font-family:Lato;font-size:15px;font-style:normal;font-weight:600;text-anchor:middle;" transform="rotate(-0, 426.15, 298.4375)" x="426.15" y="298.4375">100</text>
     </g>
    </g>
    <g id="text_7">
     <text style="fill:#262626;font-family:Lato;font-size:20px;font-style:normal;font-weight:600;text-anchor:middle;" transform="rotate(-0, 259.551562, 320.65)" x="259.551562" y="320.65">lb ratio threshold (percentile)</text>
    </g>
   </g>
   <g id="matplotlib.axis_2">
    <g id="ytick_1">
     <g id="line2d_7">
      <defs>
       <path d="M 0 0 
L -3.5 0 
" id="m57d5929f70" style="stroke:#262626;stroke-width:0.8;"/>
      </defs>
      <g>
       <use style="fill:#262626;stroke:#262626;stroke-width:0.8;" x="92.953125" xlink:href="#m57d5929f70" y="275.979604"/>
      </g>
     </g>
     <g id="text_8">
      <text style="fill:#262626;font-family:Lato;font-size:15px;font-style:normal;font-weight:600;text-anchor:end;" transform="rotate(-0, 85.953125, 281.551869)" x="85.953125" y="281.551869">0.0</text>
     </g>
    </g>
    <g id="ytick_2">
     <g id="line2d_8">
      <g>
       <use style="fill:#262626;stroke:#262626;stroke-width:0.8;" x="92.953125" xlink:href="#m57d5929f70" y="238.597108"/>
      </g>
     </g>
     <g id="text_9">
      <text style="fill:#262626;font-family:Lato;font-size:15px;font-style:normal;font-weight:600;text-anchor:end;" transform="rotate(-0, 85.953125, 244.169373)" x="85.953125" y="244.169373">0.1</text>
     </g>
    </g>
    <g id="ytick_3">
     <g id="line2d_9">
      <g>
       <use style="fill:#262626;stroke:#262626;stroke-width:0.8;" x="92.953125" xlink:href="#m57d5929f70" y="201.214611"/>
      </g>
     </g>
     <g id="text_10">
      <text style="fill:#262626;font-family:Lato;font-size:15px;font-style:normal;font-weight:600;text-anchor:end;" transform="rotate(-0, 85.953125, 206.786877)" x="85.953125" y="206.786877">0.2</text>
     </g>
    </g>
    <g id="ytick_4">
     <g id="line2d_10">
      <g>
       <use style="fill:#262626;stroke:#262626;stroke-width:0.8;" x="92.953125" xlink:href="#m57d5929f70" y="163.832115"/>
      </g>
     </g>
     <g id="text_11">
      <text style="fill:#262626;font-family:Lato;font-size:15px;font-style:normal;font-weight:600;text-anchor:end;" transform="rotate(-0, 85.953125, 169.404381)" x="85.953125" y="169.404381">0.3</text>
     </g>
    </g>
    <g id="ytick_5">
     <g id="line2d_11">
      <g>
       <use style="fill:#262626;stroke:#262626;stroke-width:0.8;" x="92.953125" xlink:href="#m57d5929f70" y="126.449619"/>
      </g>
     </g>
     <g id="text_12">
      <text style="fill:#262626;font-family:Lato;font-size:15px;font-style:normal;font-weight:600;text-anchor:end;" transform="rotate(-0, 85.953125, 132.021884)" x="85.953125" y="132.021884">0.4</text>
     </g>
    </g>
    <g id="ytick_6">
     <g id="line2d_12">
      <g>
       <use style="fill:#262626;stroke:#262626;stroke-width:0.8;" x="92.953125" xlink:href="#m57d5929f70" y="89.067122"/>
      </g>
     </g>
     <g id="text_13">
      <text style="fill:#262626;font-family:Lato;font-size:15px;font-style:normal;font-weight:600;text-anchor:end;" transform="rotate(-0, 85.953125, 94.639388)" x="85.953125" y="94.639388">0.5</text>
     </g>
    </g>
    <g id="ytick_7">
     <g id="line2d_13">
      <g>
       <use style="fill:#262626;stroke:#262626;stroke-width:0.8;" x="92.953125" xlink:href="#m57d5929f70" y="51.684626"/>
      </g>
     </g>
     <g id="text_14">
      <text style="fill:#262626;font-family:Lato;font-size:15px;font-style:normal;font-weight:600;text-anchor:end;" transform="rotate(-0, 85.953125, 57.256892)" x="85.953125" y="57.256892">0.6</text>
     </g>
    </g>
    <g id="text_15">
     <text style="fill:#262626;font-family:Lato;font-size:20px;font-style:normal;font-weight:600;" transform="translate(36.459375 239.376562)rotate(-90)">mean N ancestors</text>
     <text style="fill:#262626;font-family:Lato;font-size:20px;font-style:normal;font-weight:600;" transform="translate(57.640625 255.954687)rotate(-90)">since affinity increase</text>
    </g>
   </g>
   <g id="line2d_14">
    <path clip-path="url(#pefc8d59587)" d="M 92.953125 103.445006 
L 106.281 103.445006 
L 119.608875 120.219203 
L 132.93675 140.043254 
L 146.264625 140.043254 
L 159.5925 140.043254 
L 172.920375 163.832115 
L 186.24825 163.832115 
L 199.576125 192.90739 
L 212.904 192.90739 
L 226.231875 182.523363 
L 239.55975 182.523363 
L 252.887625 169.172472 
L 266.2155 169.172472 
L 279.543375 151.371283 
L 292.87125 151.371283 
L 306.199125 126.449619 
L 319.527 126.449619 
L 332.854875 89.067122 
L 346.18275 89.067122 
L 359.510625 275.979604 
L 372.8385 275.979604 
L 386.166375 275.979604 
L 399.49425 275.979604 
L 412.822125 275.979604 
" style="fill:none;stroke:#1f77b4;stroke-linecap:round;stroke-opacity:0.7;stroke-width:3;"/>
   </g>
   <g id="line2d_15">
    <path clip-path="url(#pefc8d59587)" d="M 76.959675 60.311356 
L 428.815575 60.311356 
" style="fill:none;stroke:#8b0000;stroke-dasharray:11.1,4.8;stroke-dashoffset:0;stroke-opacity:0.7;stroke-width:3;"/>
   </g>
   <g id="line2d_16">
    <path clip-path="url(#pefc8d59587)" d="M 92.953125 247.223837 
L 106.281 247.223837 
L 119.608875 275.979604 
L 132.93675 275.979604 
L 146.264625 275.979604 
L 159.5925 275.979604 
L 172.920375 275.979604 
L 186.24825 275.979604 
L 199.576125 275.979604 
L 212.904 275.979604 
L 226.231875 275.979604 
L 239.55975 275.979604 
L 252.887625 275.979604 
L 266.2155 275.979604 
L 279.543375 275.979604 
L 292.87125 275.979604 
L 306.199125 275.979604 
L 319.527 275.979604 
L 332.854875 275.979604 
L 346.18275 275.979604 
L 359.510625 275.979604 
L 372.8385 275.979604 
L 386.166375 275.979604 
L 399.49425 275.979604 
L 412.822125 275.979604 
" style="fill:none;stroke:#006400;stroke-dasharray:11.1,4.8;stroke-dashoffset:0;stroke-opacity:0.7;stroke-width:3;"/>
   </g>
   <g id="patch_3">
    <path d="M 92.953125 280.292969 
L 92.953125 38.744531 
" style="fill:none;stroke:#262626;stroke-linecap:square;stroke-linejoin:miter;stroke-width:0.8;"/>
   </g>
   <g id="patch_4">
    <path d="M 92.953125 280.292969 
L 426.15 280.292969 
" style="fill:none;stroke:#262626;stroke-linecap:square;stroke-linejoin:miter;stroke-width:0.8;"/>
   </g>
   <g id="text_16">
    <text style="fill:#262626;font-family:Lato;font-size:15px;font-style:normal;font-weight:bold;text-anchor:middle;" transform="rotate(-0, 259.551562, 32.744531)" x="259.551562" y="32.744531">affinity change , iclust 7</text>
   </g>
   <g id="legend_1">
    <g id="patch_5">
     <path d="M 262.351562 135.363906 
L 423.65125 135.363906 
Q 426.45125 135.363906 426.45125 132.563906 
L 426.45125 94.470781 
Q 426.45125 91.670781 423.65125 91.670781 
L 262.351562 91.670781 
Q 259.551562 91.670781 259.551562 94.470781 
L 259.551562 132.563906 
Q 259.551562 135.363906 262.351562 135.363906 
z
" style="fill:#ffffff;opacity:0.8;stroke:#cccccc;stroke-linejoin:miter;"/>
    </g>
    <g id="line2d_17">
     <path d="M 265.151563 102.772344 
L 293.151563 102.772344 
" style="fill:none;stroke:#8b0000;stroke-dasharray:11.1,4.8;stroke-dashoffset:0;stroke-opacity:0.7;stroke-width:3;"/>
    </g>
    <g id="line2d_18"/>
    <g id="text_17">
     <text style="fill:#262626;font-family:Lato;font-size:14px;font-style:normal;font-weight:600;text-anchor:start;" transform="rotate(-0, 304.351562, 107.672344)" x="304.351562" y="107.672344">no correlation</text>
    </g>
    <g id="line2d_19">
     <path d="M 265.151563 122.518906 
L 293.151563 122.518906 
" style="fill:none;stroke:#006400;stroke-dasharray:11.1,4.8;stroke-dashoffset:0;stroke-opacity:0.7;stroke-width:3;"/>
    </g>
    <g id="line2d_20"/>
    <g id="text_18">
     <text style="fill:#262626;font-family:Lato;font-size:14px;font-style:normal;font-weight:600;text-anchor:start;" transform="rotate(-0, 304.351562, 127.418906)" x="304.351562" y="127.418906">perfect correlation</text>
    </g>
   </g>
  </g>
 </g>
 <defs>
  <clipPath id="pefc8d59587">
   <rect height="241.548437" width="333.196875" x="92.953125" y="38.744531"/>
  </clipPath>
 </defs>
</svg>
