<?xml version="1.0" encoding="utf-8" standalone="no"?>
<!DOCTYPE svg PUBLIC "-//W3C//DTD SVG 1.1//EN"
  "http://www.w3.org/Graphics/SVG/1.1/DTD/svg11.dtd">
<svg height="144pt" version="1.1" viewBox="0 0 468 144" width="468pt" xmlns="http://www.w3.org/2000/svg" xmlns:xlink="http://www.w3.org/1999/xlink">
 <metadata>
  <rdf:RDF xmlns:cc="http://creativecommons.org/ns#" xmlns:dc="http://purl.org/dc/elements/1.1/" xmlns:rdf="http://www.w3.org/1999/02/22-rdf-syntax-ns#">
   <cc:Work>
    <dc:type rdf:resource="http://purl.org/dc/dcmitype/StillImage"/>
    <dc:date>2021-10-29T11:59:10.768881</dc:date>
    <dc:format>image/svg+xml</dc:format>
    <dc:creator>
     <cc:Agent>
      <dc:title>Matplotlib v3.4.2, https://matplotlib.org/</dc:title>
     </cc:Agent>
    </dc:creator>
   </cc:Work>
  </rdf:RDF>
 </metadata>
 <defs>
  <style type="text/css">*{stroke-linecap:butt;stroke-linejoin:round;}</style>
 </defs>
 <g id="figure_1">
  <g id="patch_1">
   <path d="M 0 144 
L 468 144 
L 468 0 
L 0 0 
z
" style="fill:#ffffff;"/>
  </g>
  <g id="axes_1">
   <g id="patch_2">
    <path d="M 58.5 128.16 
L 421.2 128.16 
L 421.2 17.28 
L 58.5 17.28 
z
" style="fill:#ffffff;"/>
   </g>
   <g id="matplotlib.axis_1">
    <g id="xtick_1">
     <g id="line2d_1">
      <defs>
       <path d="M 0 0 
L 0 3.5 
" id="med0d1c18b5" style="stroke:#000000;stroke-width:0.8;"/>
      </defs>
      <g>
       <use style="stroke:#000000;stroke-width:0.8;" x="61.29" xlink:href="#med0d1c18b5" y="128.16"/>
      </g>
     </g>
     <g id="line2d_2">
      <defs>
       <path d="M 0 0 
L 0 -3.5 
" id="m1b29feb675" style="stroke:#000000;stroke-width:0.8;"/>
      </defs>
      <g>
       <use style="stroke:#000000;stroke-width:0.8;" x="61.29" xlink:href="#m1b29feb675" y="17.28"/>
      </g>
     </g>
     <g id="text_1">
      <!-- 0 -->
      <g transform="translate(58.10875 142.758438)scale(0.1 -0.1)">
       <defs>
        <path d="M 2034 4250 
Q 1547 4250 1301 3770 
Q 1056 3291 1056 2328 
Q 1056 1369 1301 889 
Q 1547 409 2034 409 
Q 2525 409 2770 889 
Q 3016 1369 3016 2328 
Q 3016 3291 2770 3770 
Q 2525 4250 2034 4250 
z
M 2034 4750 
Q 2819 4750 3233 4129 
Q 3647 3509 3647 2328 
Q 3647 1150 3233 529 
Q 2819 -91 2034 -91 
Q 1250 -91 836 529 
Q 422 1150 422 2328 
Q 422 3509 836 4129 
Q 1250 4750 2034 4750 
z
" id="DejaVuSans-30" transform="scale(0.015625)"/>
       </defs>
       <use xlink:href="#DejaVuSans-30"/>
      </g>
     </g>
    </g>
    <g id="xtick_2">
     <g id="line2d_3">
      <g>
       <use style="stroke:#000000;stroke-width:0.8;" x="117.09" xlink:href="#med0d1c18b5" y="128.16"/>
      </g>
     </g>
     <g id="line2d_4">
      <g>
       <use style="stroke:#000000;stroke-width:0.8;" x="117.09" xlink:href="#m1b29feb675" y="17.28"/>
      </g>
     </g>
     <g id="text_2">
      <!-- 20 -->
      <g transform="translate(110.7275 142.758438)scale(0.1 -0.1)">
       <defs>
        <path d="M 1228 531 
L 3431 531 
L 3431 0 
L 469 0 
L 469 531 
Q 828 903 1448 1529 
Q 2069 2156 2228 2338 
Q 2531 2678 2651 2914 
Q 2772 3150 2772 3378 
Q 2772 3750 2511 3984 
Q 2250 4219 1831 4219 
Q 1534 4219 1204 4116 
Q 875 4013 500 3803 
L 500 4441 
Q 881 4594 1212 4672 
Q 1544 4750 1819 4750 
Q 2544 4750 2975 4387 
Q 3406 4025 3406 3419 
Q 3406 3131 3298 2873 
Q 3191 2616 2906 2266 
Q 2828 2175 2409 1742 
Q 1991 1309 1228 531 
z
" id="DejaVuSans-32" transform="scale(0.015625)"/>
       </defs>
       <use xlink:href="#DejaVuSans-32"/>
       <use x="63.623047" xlink:href="#DejaVuSans-30"/>
      </g>
     </g>
    </g>
    <g id="xtick_3">
     <g id="line2d_5">
      <g>
       <use style="stroke:#000000;stroke-width:0.8;" x="172.89" xlink:href="#med0d1c18b5" y="128.16"/>
      </g>
     </g>
     <g id="line2d_6">
      <g>
       <use style="stroke:#000000;stroke-width:0.8;" x="172.89" xlink:href="#m1b29feb675" y="17.28"/>
      </g>
     </g>
     <g id="text_3">
      <!-- 40 -->
      <g transform="translate(166.5275 142.758438)scale(0.1 -0.1)">
       <defs>
        <path d="M 2419 4116 
L 825 1625 
L 2419 1625 
L 2419 4116 
z
M 2253 4666 
L 3047 4666 
L 3047 1625 
L 3713 1625 
L 3713 1100 
L 3047 1100 
L 3047 0 
L 2419 0 
L 2419 1100 
L 313 1100 
L 313 1709 
L 2253 4666 
z
" id="DejaVuSans-34" transform="scale(0.015625)"/>
       </defs>
       <use xlink:href="#DejaVuSans-34"/>
       <use x="63.623047" xlink:href="#DejaVuSans-30"/>
      </g>
     </g>
    </g>
    <g id="xtick_4">
     <g id="line2d_7">
      <g>
       <use style="stroke:#000000;stroke-width:0.8;" x="228.69" xlink:href="#med0d1c18b5" y="128.16"/>
      </g>
     </g>
     <g id="line2d_8">
      <g>
       <use style="stroke:#000000;stroke-width:0.8;" x="228.69" xlink:href="#m1b29feb675" y="17.28"/>
      </g>
     </g>
     <g id="text_4">
      <!-- 60 -->
      <g transform="translate(222.3275 142.758438)scale(0.1 -0.1)">
       <defs>
        <path d="M 2113 2584 
Q 1688 2584 1439 2293 
Q 1191 2003 1191 1497 
Q 1191 994 1439 701 
Q 1688 409 2113 409 
Q 2538 409 2786 701 
Q 3034 994 3034 1497 
Q 3034 2003 2786 2293 
Q 2538 2584 2113 2584 
z
M 3366 4563 
L 3366 3988 
Q 3128 4100 2886 4159 
Q 2644 4219 2406 4219 
Q 1781 4219 1451 3797 
Q 1122 3375 1075 2522 
Q 1259 2794 1537 2939 
Q 1816 3084 2150 3084 
Q 2853 3084 3261 2657 
Q 3669 2231 3669 1497 
Q 3669 778 3244 343 
Q 2819 -91 2113 -91 
Q 1303 -91 875 529 
Q 447 1150 447 2328 
Q 447 3434 972 4092 
Q 1497 4750 2381 4750 
Q 2619 4750 2861 4703 
Q 3103 4656 3366 4563 
z
" id="DejaVuSans-36" transform="scale(0.015625)"/>
       </defs>
       <use xlink:href="#DejaVuSans-36"/>
       <use x="63.623047" xlink:href="#DejaVuSans-30"/>
      </g>
     </g>
    </g>
    <g id="xtick_5">
     <g id="line2d_9">
      <g>
       <use style="stroke:#000000;stroke-width:0.8;" x="284.49" xlink:href="#med0d1c18b5" y="128.16"/>
      </g>
     </g>
     <g id="line2d_10">
      <g>
       <use style="stroke:#000000;stroke-width:0.8;" x="284.49" xlink:href="#m1b29feb675" y="17.28"/>
      </g>
     </g>
     <g id="text_5">
      <!-- 80 -->
      <g transform="translate(278.1275 142.758438)scale(0.1 -0.1)">
       <defs>
        <path d="M 2034 2216 
Q 1584 2216 1326 1975 
Q 1069 1734 1069 1313 
Q 1069 891 1326 650 
Q 1584 409 2034 409 
Q 2484 409 2743 651 
Q 3003 894 3003 1313 
Q 3003 1734 2745 1975 
Q 2488 2216 2034 2216 
z
M 1403 2484 
Q 997 2584 770 2862 
Q 544 3141 544 3541 
Q 544 4100 942 4425 
Q 1341 4750 2034 4750 
Q 2731 4750 3128 4425 
Q 3525 4100 3525 3541 
Q 3525 3141 3298 2862 
Q 3072 2584 2669 2484 
Q 3125 2378 3379 2068 
Q 3634 1759 3634 1313 
Q 3634 634 3220 271 
Q 2806 -91 2034 -91 
Q 1263 -91 848 271 
Q 434 634 434 1313 
Q 434 1759 690 2068 
Q 947 2378 1403 2484 
z
M 1172 3481 
Q 1172 3119 1398 2916 
Q 1625 2713 2034 2713 
Q 2441 2713 2670 2916 
Q 2900 3119 2900 3481 
Q 2900 3844 2670 4047 
Q 2441 4250 2034 4250 
Q 1625 4250 1398 4047 
Q 1172 3844 1172 3481 
z
" id="DejaVuSans-38" transform="scale(0.015625)"/>
       </defs>
       <use xlink:href="#DejaVuSans-38"/>
       <use x="63.623047" xlink:href="#DejaVuSans-30"/>
      </g>
     </g>
    </g>
    <g id="xtick_6">
     <g id="line2d_11">
      <g>
       <use style="stroke:#000000;stroke-width:0.8;" x="340.29" xlink:href="#med0d1c18b5" y="128.16"/>
      </g>
     </g>
     <g id="line2d_12">
      <g>
       <use style="stroke:#000000;stroke-width:0.8;" x="340.29" xlink:href="#m1b29feb675" y="17.28"/>
      </g>
     </g>
     <g id="text_6">
      <!-- 100 -->
      <g transform="translate(330.74625 142.758438)scale(0.1 -0.1)">
       <defs>
        <path d="M 794 531 
L 1825 531 
L 1825 4091 
L 703 3866 
L 703 4441 
L 1819 4666 
L 2450 4666 
L 2450 531 
L 3481 531 
L 3481 0 
L 794 0 
L 794 531 
z
" id="DejaVuSans-31" transform="scale(0.015625)"/>
       </defs>
       <use xlink:href="#DejaVuSans-31"/>
       <use x="63.623047" xlink:href="#DejaVuSans-30"/>
       <use x="127.246094" xlink:href="#DejaVuSans-30"/>
      </g>
     </g>
    </g>
    <g id="xtick_7">
     <g id="line2d_13">
      <g>
       <use style="stroke:#000000;stroke-width:0.8;" x="396.09" xlink:href="#med0d1c18b5" y="128.16"/>
      </g>
     </g>
     <g id="line2d_14">
      <g>
       <use style="stroke:#000000;stroke-width:0.8;" x="396.09" xlink:href="#m1b29feb675" y="17.28"/>
      </g>
     </g>
     <g id="text_7">
      <!-- 120 -->
      <g transform="translate(386.54625 142.758438)scale(0.1 -0.1)">
       <use xlink:href="#DejaVuSans-31"/>
       <use x="63.623047" xlink:href="#DejaVuSans-32"/>
       <use x="127.246094" xlink:href="#DejaVuSans-30"/>
      </g>
     </g>
    </g>
    <g id="text_8">
     <!-- parsimony tree -->
     <g transform="translate(201.859375 156.436563)scale(0.1 -0.1)">
      <defs>
       <path d="M 1159 525 
L 1159 -1331 
L 581 -1331 
L 581 3500 
L 1159 3500 
L 1159 2969 
Q 1341 3281 1617 3432 
Q 1894 3584 2278 3584 
Q 2916 3584 3314 3078 
Q 3713 2572 3713 1747 
Q 3713 922 3314 415 
Q 2916 -91 2278 -91 
Q 1894 -91 1617 61 
Q 1341 213 1159 525 
z
M 3116 1747 
Q 3116 2381 2855 2742 
Q 2594 3103 2138 3103 
Q 1681 3103 1420 2742 
Q 1159 2381 1159 1747 
Q 1159 1113 1420 752 
Q 1681 391 2138 391 
Q 2594 391 2855 752 
Q 3116 1113 3116 1747 
z
" id="DejaVuSans-70" transform="scale(0.015625)"/>
       <path d="M 2194 1759 
Q 1497 1759 1228 1600 
Q 959 1441 959 1056 
Q 959 750 1161 570 
Q 1363 391 1709 391 
Q 2188 391 2477 730 
Q 2766 1069 2766 1631 
L 2766 1759 
L 2194 1759 
z
M 3341 1997 
L 3341 0 
L 2766 0 
L 2766 531 
Q 2569 213 2275 61 
Q 1981 -91 1556 -91 
Q 1019 -91 701 211 
Q 384 513 384 1019 
Q 384 1609 779 1909 
Q 1175 2209 1959 2209 
L 2766 2209 
L 2766 2266 
Q 2766 2663 2505 2880 
Q 2244 3097 1772 3097 
Q 1472 3097 1187 3025 
Q 903 2953 641 2809 
L 641 3341 
Q 956 3463 1253 3523 
Q 1550 3584 1831 3584 
Q 2591 3584 2966 3190 
Q 3341 2797 3341 1997 
z
" id="DejaVuSans-61" transform="scale(0.015625)"/>
       <path d="M 2631 2963 
Q 2534 3019 2420 3045 
Q 2306 3072 2169 3072 
Q 1681 3072 1420 2755 
Q 1159 2438 1159 1844 
L 1159 0 
L 581 0 
L 581 3500 
L 1159 3500 
L 1159 2956 
Q 1341 3275 1631 3429 
Q 1922 3584 2338 3584 
Q 2397 3584 2469 3576 
Q 2541 3569 2628 3553 
L 2631 2963 
z
" id="DejaVuSans-72" transform="scale(0.015625)"/>
       <path d="M 2834 3397 
L 2834 2853 
Q 2591 2978 2328 3040 
Q 2066 3103 1784 3103 
Q 1356 3103 1142 2972 
Q 928 2841 928 2578 
Q 928 2378 1081 2264 
Q 1234 2150 1697 2047 
L 1894 2003 
Q 2506 1872 2764 1633 
Q 3022 1394 3022 966 
Q 3022 478 2636 193 
Q 2250 -91 1575 -91 
Q 1294 -91 989 -36 
Q 684 19 347 128 
L 347 722 
Q 666 556 975 473 
Q 1284 391 1588 391 
Q 1994 391 2212 530 
Q 2431 669 2431 922 
Q 2431 1156 2273 1281 
Q 2116 1406 1581 1522 
L 1381 1569 
Q 847 1681 609 1914 
Q 372 2147 372 2553 
Q 372 3047 722 3315 
Q 1072 3584 1716 3584 
Q 2034 3584 2315 3537 
Q 2597 3491 2834 3397 
z
" id="DejaVuSans-73" transform="scale(0.015625)"/>
       <path d="M 603 3500 
L 1178 3500 
L 1178 0 
L 603 0 
L 603 3500 
z
M 603 4863 
L 1178 4863 
L 1178 4134 
L 603 4134 
L 603 4863 
z
" id="DejaVuSans-69" transform="scale(0.015625)"/>
       <path d="M 3328 2828 
Q 3544 3216 3844 3400 
Q 4144 3584 4550 3584 
Q 5097 3584 5394 3201 
Q 5691 2819 5691 2113 
L 5691 0 
L 5113 0 
L 5113 2094 
Q 5113 2597 4934 2840 
Q 4756 3084 4391 3084 
Q 3944 3084 3684 2787 
Q 3425 2491 3425 1978 
L 3425 0 
L 2847 0 
L 2847 2094 
Q 2847 2600 2669 2842 
Q 2491 3084 2119 3084 
Q 1678 3084 1418 2786 
Q 1159 2488 1159 1978 
L 1159 0 
L 581 0 
L 581 3500 
L 1159 3500 
L 1159 2956 
Q 1356 3278 1631 3431 
Q 1906 3584 2284 3584 
Q 2666 3584 2933 3390 
Q 3200 3197 3328 2828 
z
" id="DejaVuSans-6d" transform="scale(0.015625)"/>
       <path d="M 1959 3097 
Q 1497 3097 1228 2736 
Q 959 2375 959 1747 
Q 959 1119 1226 758 
Q 1494 397 1959 397 
Q 2419 397 2687 759 
Q 2956 1122 2956 1747 
Q 2956 2369 2687 2733 
Q 2419 3097 1959 3097 
z
M 1959 3584 
Q 2709 3584 3137 3096 
Q 3566 2609 3566 1747 
Q 3566 888 3137 398 
Q 2709 -91 1959 -91 
Q 1206 -91 779 398 
Q 353 888 353 1747 
Q 353 2609 779 3096 
Q 1206 3584 1959 3584 
z
" id="DejaVuSans-6f" transform="scale(0.015625)"/>
       <path d="M 3513 2113 
L 3513 0 
L 2938 0 
L 2938 2094 
Q 2938 2591 2744 2837 
Q 2550 3084 2163 3084 
Q 1697 3084 1428 2787 
Q 1159 2491 1159 1978 
L 1159 0 
L 581 0 
L 581 3500 
L 1159 3500 
L 1159 2956 
Q 1366 3272 1645 3428 
Q 1925 3584 2291 3584 
Q 2894 3584 3203 3211 
Q 3513 2838 3513 2113 
z
" id="DejaVuSans-6e" transform="scale(0.015625)"/>
       <path d="M 2059 -325 
Q 1816 -950 1584 -1140 
Q 1353 -1331 966 -1331 
L 506 -1331 
L 506 -850 
L 844 -850 
Q 1081 -850 1212 -737 
Q 1344 -625 1503 -206 
L 1606 56 
L 191 3500 
L 800 3500 
L 1894 763 
L 2988 3500 
L 3597 3500 
L 2059 -325 
z
" id="DejaVuSans-79" transform="scale(0.015625)"/>
       <path id="DejaVuSans-20" transform="scale(0.015625)"/>
       <path d="M 1172 4494 
L 1172 3500 
L 2356 3500 
L 2356 3053 
L 1172 3053 
L 1172 1153 
Q 1172 725 1289 603 
Q 1406 481 1766 481 
L 2356 481 
L 2356 0 
L 1766 0 
Q 1100 0 847 248 
Q 594 497 594 1153 
L 594 3053 
L 172 3053 
L 172 3500 
L 594 3500 
L 594 4494 
L 1172 4494 
z
" id="DejaVuSans-74" transform="scale(0.015625)"/>
       <path d="M 3597 1894 
L 3597 1613 
L 953 1613 
Q 991 1019 1311 708 
Q 1631 397 2203 397 
Q 2534 397 2845 478 
Q 3156 559 3463 722 
L 3463 178 
Q 3153 47 2828 -22 
Q 2503 -91 2169 -91 
Q 1331 -91 842 396 
Q 353 884 353 1716 
Q 353 2575 817 3079 
Q 1281 3584 2069 3584 
Q 2775 3584 3186 3129 
Q 3597 2675 3597 1894 
z
M 3022 2063 
Q 3016 2534 2758 2815 
Q 2500 3097 2075 3097 
Q 1594 3097 1305 2825 
Q 1016 2553 972 2059 
L 3022 2063 
z
" id="DejaVuSans-65" transform="scale(0.015625)"/>
      </defs>
      <use xlink:href="#DejaVuSans-70"/>
      <use x="63.476562" xlink:href="#DejaVuSans-61"/>
      <use x="124.755859" xlink:href="#DejaVuSans-72"/>
      <use x="165.869141" xlink:href="#DejaVuSans-73"/>
      <use x="217.96875" xlink:href="#DejaVuSans-69"/>
      <use x="245.751953" xlink:href="#DejaVuSans-6d"/>
      <use x="343.164062" xlink:href="#DejaVuSans-6f"/>
      <use x="404.345703" xlink:href="#DejaVuSans-6e"/>
      <use x="467.724609" xlink:href="#DejaVuSans-79"/>
      <use x="526.904297" xlink:href="#DejaVuSans-20"/>
      <use x="558.691406" xlink:href="#DejaVuSans-74"/>
      <use x="597.900391" xlink:href="#DejaVuSans-72"/>
      <use x="636.763672" xlink:href="#DejaVuSans-65"/>
      <use x="698.287109" xlink:href="#DejaVuSans-65"/>
     </g>
    </g>
   </g>
   <g id="matplotlib.axis_2">
    <g id="ytick_1">
     <g id="line2d_15">
      <defs>
       <path d="M 0 0 
L -3.5 0 
" id="mba3696a742" style="stroke:#000000;stroke-width:0.8;"/>
      </defs>
      <g>
       <use style="stroke:#000000;stroke-width:0.8;" x="58.5" xlink:href="#mba3696a742" y="114.622071"/>
      </g>
     </g>
     <g id="text_9">
      <!-- $\mathdefault{10^{-77}}$ -->
      <g transform="translate(23.7 118.42129)scale(0.1 -0.1)">
       <defs>
        <path d="M 678 2272 
L 4684 2272 
L 4684 1741 
L 678 1741 
L 678 2272 
z
" id="DejaVuSans-2212" transform="scale(0.015625)"/>
        <path d="M 525 4666 
L 3525 4666 
L 3525 4397 
L 1831 0 
L 1172 0 
L 2766 4134 
L 525 4134 
L 525 4666 
z
" id="DejaVuSans-37" transform="scale(0.015625)"/>
       </defs>
       <use transform="translate(0 0.684375)" xlink:href="#DejaVuSans-31"/>
       <use transform="translate(63.623047 0.684375)" xlink:href="#DejaVuSans-30"/>
       <use transform="translate(128.203125 38.965625)scale(0.7)" xlink:href="#DejaVuSans-2212"/>
       <use transform="translate(186.855469 38.965625)scale(0.7)" xlink:href="#DejaVuSans-37"/>
       <use transform="translate(230.166602 38.965625)scale(0.7)" xlink:href="#DejaVuSans-37"/>
      </g>
     </g>
    </g>
    <g id="ytick_2">
     <g id="line2d_16">
      <g>
       <use style="stroke:#000000;stroke-width:0.8;" x="58.5" xlink:href="#mba3696a742" y="49.145175"/>
      </g>
     </g>
     <g id="text_10">
      <!-- $\mathdefault{10^{-76}}$ -->
      <g transform="translate(23.6 52.944394)scale(0.1 -0.1)">
       <use transform="translate(0 0.765625)" xlink:href="#DejaVuSans-31"/>
       <use transform="translate(63.623047 0.765625)" xlink:href="#DejaVuSans-30"/>
       <use transform="translate(128.203125 39.046875)scale(0.7)" xlink:href="#DejaVuSans-2212"/>
       <use transform="translate(186.855469 39.046875)scale(0.7)" xlink:href="#DejaVuSans-37"/>
       <use transform="translate(231.391602 39.046875)scale(0.7)" xlink:href="#DejaVuSans-36"/>
      </g>
     </g>
    </g>
    <g id="ytick_3">
     <g id="line2d_17">
      <defs>
       <path d="M 0 0 
L -2 0 
" id="mddabfde6a1" style="stroke:#000000;stroke-width:0.6;"/>
      </defs>
      <g>
       <use style="stroke:#000000;stroke-width:0.6;" x="58.5" xlink:href="#mddabfde6a1" y="124.764571"/>
      </g>
     </g>
    </g>
    <g id="ytick_4">
     <g id="line2d_18">
      <g>
       <use style="stroke:#000000;stroke-width:0.6;" x="58.5" xlink:href="#mddabfde6a1" y="120.967438"/>
      </g>
     </g>
    </g>
    <g id="ytick_5">
     <g id="line2d_19">
      <g>
       <use style="stroke:#000000;stroke-width:0.6;" x="58.5" xlink:href="#mddabfde6a1" y="117.61813"/>
      </g>
     </g>
    </g>
    <g id="ytick_6">
     <g id="line2d_20">
      <g>
       <use style="stroke:#000000;stroke-width:0.6;" x="58.5" xlink:href="#mddabfde6a1" y="94.911561"/>
      </g>
     </g>
    </g>
    <g id="ytick_7">
     <g id="line2d_21">
      <g>
       <use style="stroke:#000000;stroke-width:0.6;" x="58.5" xlink:href="#mddabfde6a1" y="83.381652"/>
      </g>
     </g>
    </g>
    <g id="ytick_8">
     <g id="line2d_22">
      <g>
       <use style="stroke:#000000;stroke-width:0.6;" x="58.5" xlink:href="#mddabfde6a1" y="75.201052"/>
      </g>
     </g>
    </g>
    <g id="ytick_9">
     <g id="line2d_23">
      <g>
       <use style="stroke:#000000;stroke-width:0.6;" x="58.5" xlink:href="#mddabfde6a1" y="68.855685"/>
      </g>
     </g>
    </g>
    <g id="ytick_10">
     <g id="line2d_24">
      <g>
       <use style="stroke:#000000;stroke-width:0.6;" x="58.5" xlink:href="#mddabfde6a1" y="63.671142"/>
      </g>
     </g>
    </g>
    <g id="ytick_11">
     <g id="line2d_25">
      <g>
       <use style="stroke:#000000;stroke-width:0.6;" x="58.5" xlink:href="#mddabfde6a1" y="59.287674"/>
      </g>
     </g>
    </g>
    <g id="ytick_12">
     <g id="line2d_26">
      <g>
       <use style="stroke:#000000;stroke-width:0.6;" x="58.5" xlink:href="#mddabfde6a1" y="55.490542"/>
      </g>
     </g>
    </g>
    <g id="ytick_13">
     <g id="line2d_27">
      <g>
       <use style="stroke:#000000;stroke-width:0.6;" x="58.5" xlink:href="#mddabfde6a1" y="52.141233"/>
      </g>
     </g>
    </g>
    <g id="ytick_14">
     <g id="line2d_28">
      <g>
       <use style="stroke:#000000;stroke-width:0.6;" x="58.5" xlink:href="#mddabfde6a1" y="29.434665"/>
      </g>
     </g>
    </g>
    <g id="ytick_15">
     <g id="line2d_29">
      <g>
       <use style="stroke:#000000;stroke-width:0.6;" x="58.5" xlink:href="#mddabfde6a1" y="17.904756"/>
      </g>
     </g>
    </g>
    <g id="text_11">
     <!-- gctree likelihood -->
     <g transform="translate(17.520312 114.097344)rotate(-90)scale(0.1 -0.1)">
      <defs>
       <path d="M 2906 1791 
Q 2906 2416 2648 2759 
Q 2391 3103 1925 3103 
Q 1463 3103 1205 2759 
Q 947 2416 947 1791 
Q 947 1169 1205 825 
Q 1463 481 1925 481 
Q 2391 481 2648 825 
Q 2906 1169 2906 1791 
z
M 3481 434 
Q 3481 -459 3084 -895 
Q 2688 -1331 1869 -1331 
Q 1566 -1331 1297 -1286 
Q 1028 -1241 775 -1147 
L 775 -588 
Q 1028 -725 1275 -790 
Q 1522 -856 1778 -856 
Q 2344 -856 2625 -561 
Q 2906 -266 2906 331 
L 2906 616 
Q 2728 306 2450 153 
Q 2172 0 1784 0 
Q 1141 0 747 490 
Q 353 981 353 1791 
Q 353 2603 747 3093 
Q 1141 3584 1784 3584 
Q 2172 3584 2450 3431 
Q 2728 3278 2906 2969 
L 2906 3500 
L 3481 3500 
L 3481 434 
z
" id="DejaVuSans-67" transform="scale(0.015625)"/>
       <path d="M 3122 3366 
L 3122 2828 
Q 2878 2963 2633 3030 
Q 2388 3097 2138 3097 
Q 1578 3097 1268 2742 
Q 959 2388 959 1747 
Q 959 1106 1268 751 
Q 1578 397 2138 397 
Q 2388 397 2633 464 
Q 2878 531 3122 666 
L 3122 134 
Q 2881 22 2623 -34 
Q 2366 -91 2075 -91 
Q 1284 -91 818 406 
Q 353 903 353 1747 
Q 353 2603 823 3093 
Q 1294 3584 2113 3584 
Q 2378 3584 2631 3529 
Q 2884 3475 3122 3366 
z
" id="DejaVuSans-63" transform="scale(0.015625)"/>
       <path d="M 603 4863 
L 1178 4863 
L 1178 0 
L 603 0 
L 603 4863 
z
" id="DejaVuSans-6c" transform="scale(0.015625)"/>
       <path d="M 581 4863 
L 1159 4863 
L 1159 1991 
L 2875 3500 
L 3609 3500 
L 1753 1863 
L 3688 0 
L 2938 0 
L 1159 1709 
L 1159 0 
L 581 0 
L 581 4863 
z
" id="DejaVuSans-6b" transform="scale(0.015625)"/>
       <path d="M 3513 2113 
L 3513 0 
L 2938 0 
L 2938 2094 
Q 2938 2591 2744 2837 
Q 2550 3084 2163 3084 
Q 1697 3084 1428 2787 
Q 1159 2491 1159 1978 
L 1159 0 
L 581 0 
L 581 4863 
L 1159 4863 
L 1159 2956 
Q 1366 3272 1645 3428 
Q 1925 3584 2291 3584 
Q 2894 3584 3203 3211 
Q 3513 2838 3513 2113 
z
" id="DejaVuSans-68" transform="scale(0.015625)"/>
       <path d="M 2906 2969 
L 2906 4863 
L 3481 4863 
L 3481 0 
L 2906 0 
L 2906 525 
Q 2725 213 2448 61 
Q 2172 -91 1784 -91 
Q 1150 -91 751 415 
Q 353 922 353 1747 
Q 353 2572 751 3078 
Q 1150 3584 1784 3584 
Q 2172 3584 2448 3432 
Q 2725 3281 2906 2969 
z
M 947 1747 
Q 947 1113 1208 752 
Q 1469 391 1925 391 
Q 2381 391 2643 752 
Q 2906 1113 2906 1747 
Q 2906 2381 2643 2742 
Q 2381 3103 1925 3103 
Q 1469 3103 1208 2742 
Q 947 2381 947 1747 
z
" id="DejaVuSans-64" transform="scale(0.015625)"/>
      </defs>
      <use xlink:href="#DejaVuSans-67"/>
      <use x="63.476562" xlink:href="#DejaVuSans-63"/>
      <use x="118.457031" xlink:href="#DejaVuSans-74"/>
      <use x="157.666016" xlink:href="#DejaVuSans-72"/>
      <use x="196.529297" xlink:href="#DejaVuSans-65"/>
      <use x="258.052734" xlink:href="#DejaVuSans-65"/>
      <use x="319.576172" xlink:href="#DejaVuSans-20"/>
      <use x="351.363281" xlink:href="#DejaVuSans-6c"/>
      <use x="379.146484" xlink:href="#DejaVuSans-69"/>
      <use x="406.929688" xlink:href="#DejaVuSans-6b"/>
      <use x="461.214844" xlink:href="#DejaVuSans-65"/>
      <use x="522.738281" xlink:href="#DejaVuSans-6c"/>
      <use x="550.521484" xlink:href="#DejaVuSans-69"/>
      <use x="578.304688" xlink:href="#DejaVuSans-68"/>
      <use x="641.683594" xlink:href="#DejaVuSans-6f"/>
      <use x="702.865234" xlink:href="#DejaVuSans-6f"/>
      <use x="764.046875" xlink:href="#DejaVuSans-64"/>
     </g>
    </g>
   </g>
   <g id="line2d_30">
    <defs>
     <path d="M 0 2 
C 0.530406 2 1.03916 1.789267 1.414214 1.414214 
C 1.789267 1.03916 2 0.530406 2 0 
C 2 -0.530406 1.789267 -1.03916 1.414214 -1.414214 
C 1.03916 -1.789267 0.530406 -2 0 -2 
C -0.530406 -2 -1.03916 -1.789267 -1.414214 -1.414214 
C -1.789267 -1.03916 -2 -0.530406 -2 0 
C -2 0.530406 -1.789267 1.03916 -1.414214 1.414214 
C -1.03916 1.789267 -0.530406 2 0 2 
z
" id="m32e4b5b29a" style="stroke:#000000;"/>
    </defs>
    <g>
     <use style="stroke:#000000;" x="61.29" xlink:href="#m32e4b5b29a" y="19.990265"/>
     <use style="stroke:#000000;" x="64.08" xlink:href="#m32e4b5b29a" y="19.990265"/>
     <use style="stroke:#000000;" x="66.87" xlink:href="#m32e4b5b29a" y="24.34131"/>
     <use style="stroke:#000000;" x="69.66" xlink:href="#m32e4b5b29a" y="24.373733"/>
     <use style="stroke:#000000;" x="72.45" xlink:href="#m32e4b5b29a" y="28.724778"/>
     <use style="stroke:#000000;" x="75.24" xlink:href="#m32e4b5b29a" y="32.843029"/>
     <use style="stroke:#000000;" x="78.03" xlink:href="#m32e4b5b29a" y="35.070145"/>
     <use style="stroke:#000000;" x="80.82" xlink:href="#m32e4b5b29a" y="35.070145"/>
     <use style="stroke:#000000;" x="83.61" xlink:href="#m32e4b5b29a" y="37.194074"/>
     <use style="stroke:#000000;" x="86.4" xlink:href="#m32e4b5b29a" y="37.194074"/>
     <use style="stroke:#000000;" x="89.19" xlink:href="#m32e4b5b29a" y="37.865541"/>
     <use style="stroke:#000000;" x="91.98" xlink:href="#m32e4b5b29a" y="37.865541"/>
     <use style="stroke:#000000;" x="94.77" xlink:href="#m32e4b5b29a" y="39.421191"/>
     <use style="stroke:#000000;" x="97.56" xlink:href="#m32e4b5b29a" y="39.421191"/>
     <use style="stroke:#000000;" x="100.35" xlink:href="#m32e4b5b29a" y="40.439651"/>
     <use style="stroke:#000000;" x="103.14" xlink:href="#m32e4b5b29a" y="41.577542"/>
     <use style="stroke:#000000;" x="105.93" xlink:href="#m32e4b5b29a" y="41.577542"/>
     <use style="stroke:#000000;" x="108.72" xlink:href="#m32e4b5b29a" y="42.216586"/>
     <use style="stroke:#000000;" x="111.51" xlink:href="#m32e4b5b29a" y="42.216586"/>
     <use style="stroke:#000000;" x="114.3" xlink:href="#m32e4b5b29a" y="42.249009"/>
     <use style="stroke:#000000;" x="117.09" xlink:href="#m32e4b5b29a" y="43.539441"/>
     <use style="stroke:#000000;" x="119.88" xlink:href="#m32e4b5b29a" y="44.395871"/>
     <use style="stroke:#000000;" x="122.67" xlink:href="#m32e4b5b29a" y="46.567632"/>
     <use style="stroke:#000000;" x="125.46" xlink:href="#m32e4b5b29a" y="46.600054"/>
     <use style="stroke:#000000;" x="128.25" xlink:href="#m32e4b5b29a" y="46.600054"/>
     <use style="stroke:#000000;" x="131.04" xlink:href="#m32e4b5b29a" y="47.890487"/>
     <use style="stroke:#000000;" x="133.83" xlink:href="#m32e4b5b29a" y="48.941369"/>
     <use style="stroke:#000000;" x="136.62" xlink:href="#m32e4b5b29a" y="50.9511"/>
     <use style="stroke:#000000;" x="139.41" xlink:href="#m32e4b5b29a" y="50.9511"/>
     <use style="stroke:#000000;" x="142.2" xlink:href="#m32e4b5b29a" y="52.273955"/>
     <use style="stroke:#000000;" x="144.99" xlink:href="#m32e4b5b29a" y="52.273955"/>
     <use style="stroke:#000000;" x="147.78" xlink:href="#m32e4b5b29a" y="53.107452"/>
     <use style="stroke:#000000;" x="150.57" xlink:href="#m32e4b5b29a" y="53.292415"/>
     <use style="stroke:#000000;" x="153.36" xlink:href="#m32e4b5b29a" y="55.06935"/>
     <use style="stroke:#000000;" x="156.15" xlink:href="#m32e4b5b29a" y="55.06935"/>
     <use style="stroke:#000000;" x="158.94" xlink:href="#m32e4b5b29a" y="55.06935"/>
     <use style="stroke:#000000;" x="161.73" xlink:href="#m32e4b5b29a" y="55.06935"/>
     <use style="stroke:#000000;" x="164.52" xlink:href="#m32e4b5b29a" y="57.458497"/>
     <use style="stroke:#000000;" x="167.31" xlink:href="#m32e4b5b29a" y="58.314927"/>
     <use style="stroke:#000000;" x="170.1" xlink:href="#m32e4b5b29a" y="59.452818"/>
     <use style="stroke:#000000;" x="172.89" xlink:href="#m32e4b5b29a" y="59.452818"/>
     <use style="stroke:#000000;" x="175.68" xlink:href="#m32e4b5b29a" y="59.452818"/>
     <use style="stroke:#000000;" x="178.47" xlink:href="#m32e4b5b29a" y="63.803864"/>
     <use style="stroke:#000000;" x="181.26" xlink:href="#m32e4b5b29a" y="63.803864"/>
     <use style="stroke:#000000;" x="184.05" xlink:href="#m32e4b5b29a" y="63.988827"/>
     <use style="stroke:#000000;" x="186.84" xlink:href="#m32e4b5b29a" y="64.627871"/>
     <use style="stroke:#000000;" x="189.63" xlink:href="#m32e4b5b29a" y="64.637361"/>
     <use style="stroke:#000000;" x="192.42" xlink:href="#m32e4b5b29a" y="64.660293"/>
     <use style="stroke:#000000;" x="195.21" xlink:href="#m32e4b5b29a" y="64.660293"/>
     <use style="stroke:#000000;" x="198" xlink:href="#m32e4b5b29a" y="64.660293"/>
     <use style="stroke:#000000;" x="200.79" xlink:href="#m32e4b5b29a" y="65.765763"/>
     <use style="stroke:#000000;" x="203.58" xlink:href="#m32e4b5b29a" y="66.816645"/>
     <use style="stroke:#000000;" x="206.37" xlink:href="#m32e4b5b29a" y="67.860004"/>
     <use style="stroke:#000000;" x="209.16" xlink:href="#m32e4b5b29a" y="68.15491"/>
     <use style="stroke:#000000;" x="211.95" xlink:href="#m32e4b5b29a" y="68.15491"/>
     <use style="stroke:#000000;" x="214.74" xlink:href="#m32e4b5b29a" y="68.554257"/>
     <use style="stroke:#000000;" x="217.53" xlink:href="#m32e4b5b29a" y="70.116809"/>
     <use style="stroke:#000000;" x="220.32" xlink:href="#m32e4b5b29a" y="70.982728"/>
     <use style="stroke:#000000;" x="223.11" xlink:href="#m32e4b5b29a" y="71.377553"/>
     <use style="stroke:#000000;" x="225.9" xlink:href="#m32e4b5b29a" y="71.377553"/>
     <use style="stroke:#000000;" x="228.69" xlink:href="#m32e4b5b29a" y="71.377553"/>
     <use style="stroke:#000000;" x="231.48" xlink:href="#m32e4b5b29a" y="71.377553"/>
     <use style="stroke:#000000;" x="234.27" xlink:href="#m32e4b5b29a" y="71.377553"/>
     <use style="stroke:#000000;" x="237.06" xlink:href="#m32e4b5b29a" y="72.21105"/>
     <use style="stroke:#000000;" x="239.85" xlink:href="#m32e4b5b29a" y="72.21105"/>
     <use style="stroke:#000000;" x="242.64" xlink:href="#m32e4b5b29a" y="72.21105"/>
     <use style="stroke:#000000;" x="245.43" xlink:href="#m32e4b5b29a" y="72.21105"/>
     <use style="stroke:#000000;" x="248.22" xlink:href="#m32e4b5b29a" y="72.21105"/>
     <use style="stroke:#000000;" x="251.01" xlink:href="#m32e4b5b29a" y="73.339452"/>
     <use style="stroke:#000000;" x="253.8" xlink:href="#m32e4b5b29a" y="73.339452"/>
     <use style="stroke:#000000;" x="256.59" xlink:href="#m32e4b5b29a" y="73.339452"/>
     <use style="stroke:#000000;" x="259.38" xlink:href="#m32e4b5b29a" y="73.339452"/>
     <use style="stroke:#000000;" x="262.17" xlink:href="#m32e4b5b29a" y="73.371874"/>
     <use style="stroke:#000000;" x="264.96" xlink:href="#m32e4b5b29a" y="74.500277"/>
     <use style="stroke:#000000;" x="267.75" xlink:href="#m32e4b5b29a" y="74.500277"/>
     <use style="stroke:#000000;" x="270.54" xlink:href="#m32e4b5b29a" y="75.301351"/>
     <use style="stroke:#000000;" x="273.33" xlink:href="#m32e4b5b29a" y="75.333773"/>
     <use style="stroke:#000000;" x="276.12" xlink:href="#m32e4b5b29a" y="75.333773"/>
     <use style="stroke:#000000;" x="278.91" xlink:href="#m32e4b5b29a" y="76.16727"/>
     <use style="stroke:#000000;" x="281.7" xlink:href="#m32e4b5b29a" y="76.352233"/>
     <use style="stroke:#000000;" x="284.49" xlink:href="#m32e4b5b29a" y="77.023553"/>
     <use style="stroke:#000000;" x="287.28" xlink:href="#m32e4b5b29a" y="77.72292"/>
     <use style="stroke:#000000;" x="290.07" xlink:href="#m32e4b5b29a" y="78.556417"/>
     <use style="stroke:#000000;" x="292.86" xlink:href="#m32e4b5b29a" y="79.684819"/>
     <use style="stroke:#000000;" x="295.65" xlink:href="#m32e4b5b29a" y="79.684819"/>
     <use style="stroke:#000000;" x="298.44" xlink:href="#m32e4b5b29a" y="80.518316"/>
     <use style="stroke:#000000;" x="301.23" xlink:href="#m32e4b5b29a" y="81.407021"/>
     <use style="stroke:#000000;" x="304.02" xlink:href="#m32e4b5b29a" y="81.864103"/>
     <use style="stroke:#000000;" x="306.81" xlink:href="#m32e4b5b29a" y="82.073966"/>
     <use style="stroke:#000000;" x="309.6" xlink:href="#m32e4b5b29a" y="82.745432"/>
     <use style="stroke:#000000;" x="312.39" xlink:href="#m32e4b5b29a" y="82.907462"/>
     <use style="stroke:#000000;" x="315.18" xlink:href="#m32e4b5b29a" y="82.907462"/>
     <use style="stroke:#000000;" x="317.97" xlink:href="#m32e4b5b29a" y="82.907462"/>
     <use style="stroke:#000000;" x="320.76" xlink:href="#m32e4b5b29a" y="84.035865"/>
     <use style="stroke:#000000;" x="323.55" xlink:href="#m32e4b5b29a" y="84.035865"/>
     <use style="stroke:#000000;" x="326.34" xlink:href="#m32e4b5b29a" y="84.901784"/>
     <use style="stroke:#000000;" x="329.13" xlink:href="#m32e4b5b29a" y="84.901784"/>
     <use style="stroke:#000000;" x="331.92" xlink:href="#m32e4b5b29a" y="84.901784"/>
     <use style="stroke:#000000;" x="334.71" xlink:href="#m32e4b5b29a" y="85.73528"/>
     <use style="stroke:#000000;" x="337.5" xlink:href="#m32e4b5b29a" y="86.425012"/>
     <use style="stroke:#000000;" x="340.29" xlink:href="#m32e4b5b29a" y="86.863682"/>
     <use style="stroke:#000000;" x="343.08" xlink:href="#m32e4b5b29a" y="86.863682"/>
     <use style="stroke:#000000;" x="345.87" xlink:href="#m32e4b5b29a" y="87.048646"/>
     <use style="stroke:#000000;" x="348.66" xlink:href="#m32e4b5b29a" y="87.096478"/>
     <use style="stroke:#000000;" x="351.45" xlink:href="#m32e4b5b29a" y="87.258508"/>
     <use style="stroke:#000000;" x="354.24" xlink:href="#m32e4b5b29a" y="87.258508"/>
     <use style="stroke:#000000;" x="357.03" xlink:href="#m32e4b5b29a" y="89.252829"/>
     <use style="stroke:#000000;" x="359.82" xlink:href="#m32e4b5b29a" y="90.086326"/>
     <use style="stroke:#000000;" x="362.61" xlink:href="#m32e4b5b29a" y="90.086326"/>
     <use style="stroke:#000000;" x="365.4" xlink:href="#m32e4b5b29a" y="90.086326"/>
     <use style="stroke:#000000;" x="368.19" xlink:href="#m32e4b5b29a" y="90.965542"/>
     <use style="stroke:#000000;" x="370.98" xlink:href="#m32e4b5b29a" y="90.965542"/>
     <use style="stroke:#000000;" x="373.77" xlink:href="#m32e4b5b29a" y="91.214728"/>
     <use style="stroke:#000000;" x="376.56" xlink:href="#m32e4b5b29a" y="91.214728"/>
     <use style="stroke:#000000;" x="379.35" xlink:href="#m32e4b5b29a" y="91.214728"/>
     <use style="stroke:#000000;" x="382.14" xlink:href="#m32e4b5b29a" y="93.603875"/>
     <use style="stroke:#000000;" x="384.93" xlink:href="#m32e4b5b29a" y="93.603875"/>
     <use style="stroke:#000000;" x="387.72" xlink:href="#m32e4b5b29a" y="93.603875"/>
     <use style="stroke:#000000;" x="390.51" xlink:href="#m32e4b5b29a" y="93.603875"/>
     <use style="stroke:#000000;" x="393.3" xlink:href="#m32e4b5b29a" y="93.603875"/>
     <use style="stroke:#000000;" x="396.09" xlink:href="#m32e4b5b29a" y="95.598196"/>
     <use style="stroke:#000000;" x="398.88" xlink:href="#m32e4b5b29a" y="98.788417"/>
     <use style="stroke:#000000;" x="401.67" xlink:href="#m32e4b5b29a" y="99.949242"/>
     <use style="stroke:#000000;" x="404.46" xlink:href="#m32e4b5b29a" y="99.949242"/>
     <use style="stroke:#000000;" x="407.25" xlink:href="#m32e4b5b29a" y="105.133784"/>
     <use style="stroke:#000000;" x="410.04" xlink:href="#m32e4b5b29a" y="105.133784"/>
     <use style="stroke:#000000;" x="412.83" xlink:href="#m32e4b5b29a" y="113.168931"/>
     <use style="stroke:#000000;" x="415.62" xlink:href="#m32e4b5b29a" y="116.663693"/>
     <use style="stroke:#000000;" x="418.41" xlink:href="#m32e4b5b29a" y="123.00906"/>
    </g>
   </g>
   <g id="patch_3">
    <path d="M 58.5 128.16 
L 58.5 17.28 
" style="fill:none;stroke:#000000;stroke-linecap:square;stroke-linejoin:miter;stroke-width:0.8;"/>
   </g>
   <g id="patch_4">
    <path d="M 421.2 128.16 
L 421.2 17.28 
" style="fill:none;stroke:#000000;stroke-linecap:square;stroke-linejoin:miter;stroke-width:0.8;"/>
   </g>
   <g id="patch_5">
    <path d="M 58.5 128.16 
L 421.2 128.16 
" style="fill:none;stroke:#000000;stroke-linecap:square;stroke-linejoin:miter;stroke-width:0.8;"/>
   </g>
   <g id="patch_6">
    <path d="M 58.5 17.28 
L 421.2 17.28 
" style="fill:none;stroke:#000000;stroke-linecap:square;stroke-linejoin:miter;stroke-width:0.8;"/>
   </g>
  </g>
 </g>
</svg>
