<?xml version="1.0" encoding="utf-8" standalone="no"?>
<!DOCTYPE svg PUBLIC "-//W3C//DTD SVG 1.1//EN"
  "http://www.w3.org/Graphics/SVG/1.1/DTD/svg11.dtd">
<svg height="144pt" version="1.1" viewBox="0 0 468 144" width="468pt" xmlns="http://www.w3.org/2000/svg" xmlns:xlink="http://www.w3.org/1999/xlink">
 <metadata>
  <rdf:RDF xmlns:cc="http://creativecommons.org/ns#" xmlns:dc="http://purl.org/dc/elements/1.1/" xmlns:rdf="http://www.w3.org/1999/02/22-rdf-syntax-ns#">
   <cc:Work>
    <dc:type rdf:resource="http://purl.org/dc/dcmitype/StillImage"/>
    <dc:date>2021-10-23T19:07:37.445253</dc:date>
    <dc:format>image/svg+xml</dc:format>
    <dc:creator>
     <cc:Agent>
      <dc:title>Matplotlib v3.4.2, https://matplotlib.org/</dc:title>
     </cc:Agent>
    </dc:creator>
   </cc:Work>
  </rdf:RDF>
 </metadata>
 <defs>
  <style type="text/css">*{stroke-linecap:butt;stroke-linejoin:round;}</style>
 </defs>
 <g id="figure_1">
  <g id="patch_1">
   <path d="M 0 144 
L 468 144 
L 468 0 
L 0 0 
z
" style="fill:#ffffff;"/>
  </g>
  <g id="axes_1">
   <g id="patch_2">
    <path d="M 58.5 128.16 
L 421.2 128.16 
L 421.2 17.28 
L 58.5 17.28 
z
" style="fill:#ffffff;"/>
   </g>
   <g id="matplotlib.axis_1">
    <g id="xtick_1">
     <g id="line2d_1">
      <defs>
       <path d="M 0 0 
L 0 3.5 
" id="m25c37cb742" style="stroke:#000000;stroke-width:0.8;"/>
      </defs>
      <g>
       <use style="stroke:#000000;stroke-width:0.8;" x="60.369588" xlink:href="#m25c37cb742" y="128.16"/>
      </g>
     </g>
     <g id="line2d_2">
      <defs>
       <path d="M 0 0 
L 0 -3.5 
" id="m4317876487" style="stroke:#000000;stroke-width:0.8;"/>
      </defs>
      <g>
       <use style="stroke:#000000;stroke-width:0.8;" x="60.369588" xlink:href="#m4317876487" y="17.28"/>
      </g>
     </g>
     <g id="text_1">
      <!-- 0 -->
      <g transform="translate(57.188338 142.758438)scale(0.1 -0.1)">
       <defs>
        <path d="M 2034 4250 
Q 1547 4250 1301 3770 
Q 1056 3291 1056 2328 
Q 1056 1369 1301 889 
Q 1547 409 2034 409 
Q 2525 409 2770 889 
Q 3016 1369 3016 2328 
Q 3016 3291 2770 3770 
Q 2525 4250 2034 4250 
z
M 2034 4750 
Q 2819 4750 3233 4129 
Q 3647 3509 3647 2328 
Q 3647 1150 3233 529 
Q 2819 -91 2034 -91 
Q 1250 -91 836 529 
Q 422 1150 422 2328 
Q 422 3509 836 4129 
Q 1250 4750 2034 4750 
z
" id="DejaVuSans-30" transform="scale(0.015625)"/>
       </defs>
       <use xlink:href="#DejaVuSans-30"/>
      </g>
     </g>
    </g>
    <g id="xtick_2">
     <g id="line2d_3">
      <g>
       <use style="stroke:#000000;stroke-width:0.8;" x="107.109278" xlink:href="#m25c37cb742" y="128.16"/>
      </g>
     </g>
     <g id="line2d_4">
      <g>
       <use style="stroke:#000000;stroke-width:0.8;" x="107.109278" xlink:href="#m4317876487" y="17.28"/>
      </g>
     </g>
     <g id="text_2">
      <!-- 25 -->
      <g transform="translate(100.746778 142.758438)scale(0.1 -0.1)">
       <defs>
        <path d="M 1228 531 
L 3431 531 
L 3431 0 
L 469 0 
L 469 531 
Q 828 903 1448 1529 
Q 2069 2156 2228 2338 
Q 2531 2678 2651 2914 
Q 2772 3150 2772 3378 
Q 2772 3750 2511 3984 
Q 2250 4219 1831 4219 
Q 1534 4219 1204 4116 
Q 875 4013 500 3803 
L 500 4441 
Q 881 4594 1212 4672 
Q 1544 4750 1819 4750 
Q 2544 4750 2975 4387 
Q 3406 4025 3406 3419 
Q 3406 3131 3298 2873 
Q 3191 2616 2906 2266 
Q 2828 2175 2409 1742 
Q 1991 1309 1228 531 
z
" id="DejaVuSans-32" transform="scale(0.015625)"/>
        <path d="M 691 4666 
L 3169 4666 
L 3169 4134 
L 1269 4134 
L 1269 2991 
Q 1406 3038 1543 3061 
Q 1681 3084 1819 3084 
Q 2600 3084 3056 2656 
Q 3513 2228 3513 1497 
Q 3513 744 3044 326 
Q 2575 -91 1722 -91 
Q 1428 -91 1123 -41 
Q 819 9 494 109 
L 494 744 
Q 775 591 1075 516 
Q 1375 441 1709 441 
Q 2250 441 2565 725 
Q 2881 1009 2881 1497 
Q 2881 1984 2565 2268 
Q 2250 2553 1709 2553 
Q 1456 2553 1204 2497 
Q 953 2441 691 2322 
L 691 4666 
z
" id="DejaVuSans-35" transform="scale(0.015625)"/>
       </defs>
       <use xlink:href="#DejaVuSans-32"/>
       <use x="63.623047" xlink:href="#DejaVuSans-35"/>
      </g>
     </g>
    </g>
    <g id="xtick_3">
     <g id="line2d_5">
      <g>
       <use style="stroke:#000000;stroke-width:0.8;" x="153.848969" xlink:href="#m25c37cb742" y="128.16"/>
      </g>
     </g>
     <g id="line2d_6">
      <g>
       <use style="stroke:#000000;stroke-width:0.8;" x="153.848969" xlink:href="#m4317876487" y="17.28"/>
      </g>
     </g>
     <g id="text_3">
      <!-- 50 -->
      <g transform="translate(147.486469 142.758438)scale(0.1 -0.1)">
       <use xlink:href="#DejaVuSans-35"/>
       <use x="63.623047" xlink:href="#DejaVuSans-30"/>
      </g>
     </g>
    </g>
    <g id="xtick_4">
     <g id="line2d_7">
      <g>
       <use style="stroke:#000000;stroke-width:0.8;" x="200.58866" xlink:href="#m25c37cb742" y="128.16"/>
      </g>
     </g>
     <g id="line2d_8">
      <g>
       <use style="stroke:#000000;stroke-width:0.8;" x="200.58866" xlink:href="#m4317876487" y="17.28"/>
      </g>
     </g>
     <g id="text_4">
      <!-- 75 -->
      <g transform="translate(194.22616 142.758438)scale(0.1 -0.1)">
       <defs>
        <path d="M 525 4666 
L 3525 4666 
L 3525 4397 
L 1831 0 
L 1172 0 
L 2766 4134 
L 525 4134 
L 525 4666 
z
" id="DejaVuSans-37" transform="scale(0.015625)"/>
       </defs>
       <use xlink:href="#DejaVuSans-37"/>
       <use x="63.623047" xlink:href="#DejaVuSans-35"/>
      </g>
     </g>
    </g>
    <g id="xtick_5">
     <g id="line2d_9">
      <g>
       <use style="stroke:#000000;stroke-width:0.8;" x="247.328351" xlink:href="#m25c37cb742" y="128.16"/>
      </g>
     </g>
     <g id="line2d_10">
      <g>
       <use style="stroke:#000000;stroke-width:0.8;" x="247.328351" xlink:href="#m4317876487" y="17.28"/>
      </g>
     </g>
     <g id="text_5">
      <!-- 100 -->
      <g transform="translate(237.784601 142.758438)scale(0.1 -0.1)">
       <defs>
        <path d="M 794 531 
L 1825 531 
L 1825 4091 
L 703 3866 
L 703 4441 
L 1819 4666 
L 2450 4666 
L 2450 531 
L 3481 531 
L 3481 0 
L 794 0 
L 794 531 
z
" id="DejaVuSans-31" transform="scale(0.015625)"/>
       </defs>
       <use xlink:href="#DejaVuSans-31"/>
       <use x="63.623047" xlink:href="#DejaVuSans-30"/>
       <use x="127.246094" xlink:href="#DejaVuSans-30"/>
      </g>
     </g>
    </g>
    <g id="xtick_6">
     <g id="line2d_11">
      <g>
       <use style="stroke:#000000;stroke-width:0.8;" x="294.068041" xlink:href="#m25c37cb742" y="128.16"/>
      </g>
     </g>
     <g id="line2d_12">
      <g>
       <use style="stroke:#000000;stroke-width:0.8;" x="294.068041" xlink:href="#m4317876487" y="17.28"/>
      </g>
     </g>
     <g id="text_6">
      <!-- 125 -->
      <g transform="translate(284.524291 142.758438)scale(0.1 -0.1)">
       <use xlink:href="#DejaVuSans-31"/>
       <use x="63.623047" xlink:href="#DejaVuSans-32"/>
       <use x="127.246094" xlink:href="#DejaVuSans-35"/>
      </g>
     </g>
    </g>
    <g id="xtick_7">
     <g id="line2d_13">
      <g>
       <use style="stroke:#000000;stroke-width:0.8;" x="340.807732" xlink:href="#m25c37cb742" y="128.16"/>
      </g>
     </g>
     <g id="line2d_14">
      <g>
       <use style="stroke:#000000;stroke-width:0.8;" x="340.807732" xlink:href="#m4317876487" y="17.28"/>
      </g>
     </g>
     <g id="text_7">
      <!-- 150 -->
      <g transform="translate(331.263982 142.758438)scale(0.1 -0.1)">
       <use xlink:href="#DejaVuSans-31"/>
       <use x="63.623047" xlink:href="#DejaVuSans-35"/>
       <use x="127.246094" xlink:href="#DejaVuSans-30"/>
      </g>
     </g>
    </g>
    <g id="xtick_8">
     <g id="line2d_15">
      <g>
       <use style="stroke:#000000;stroke-width:0.8;" x="387.547423" xlink:href="#m25c37cb742" y="128.16"/>
      </g>
     </g>
     <g id="line2d_16">
      <g>
       <use style="stroke:#000000;stroke-width:0.8;" x="387.547423" xlink:href="#m4317876487" y="17.28"/>
      </g>
     </g>
     <g id="text_8">
      <!-- 175 -->
      <g transform="translate(378.003673 142.758438)scale(0.1 -0.1)">
       <use xlink:href="#DejaVuSans-31"/>
       <use x="63.623047" xlink:href="#DejaVuSans-37"/>
       <use x="127.246094" xlink:href="#DejaVuSans-35"/>
      </g>
     </g>
    </g>
    <g id="text_9">
     <!-- parsimony tree -->
     <g transform="translate(201.859375 156.436563)scale(0.1 -0.1)">
      <defs>
       <path d="M 1159 525 
L 1159 -1331 
L 581 -1331 
L 581 3500 
L 1159 3500 
L 1159 2969 
Q 1341 3281 1617 3432 
Q 1894 3584 2278 3584 
Q 2916 3584 3314 3078 
Q 3713 2572 3713 1747 
Q 3713 922 3314 415 
Q 2916 -91 2278 -91 
Q 1894 -91 1617 61 
Q 1341 213 1159 525 
z
M 3116 1747 
Q 3116 2381 2855 2742 
Q 2594 3103 2138 3103 
Q 1681 3103 1420 2742 
Q 1159 2381 1159 1747 
Q 1159 1113 1420 752 
Q 1681 391 2138 391 
Q 2594 391 2855 752 
Q 3116 1113 3116 1747 
z
" id="DejaVuSans-70" transform="scale(0.015625)"/>
       <path d="M 2194 1759 
Q 1497 1759 1228 1600 
Q 959 1441 959 1056 
Q 959 750 1161 570 
Q 1363 391 1709 391 
Q 2188 391 2477 730 
Q 2766 1069 2766 1631 
L 2766 1759 
L 2194 1759 
z
M 3341 1997 
L 3341 0 
L 2766 0 
L 2766 531 
Q 2569 213 2275 61 
Q 1981 -91 1556 -91 
Q 1019 -91 701 211 
Q 384 513 384 1019 
Q 384 1609 779 1909 
Q 1175 2209 1959 2209 
L 2766 2209 
L 2766 2266 
Q 2766 2663 2505 2880 
Q 2244 3097 1772 3097 
Q 1472 3097 1187 3025 
Q 903 2953 641 2809 
L 641 3341 
Q 956 3463 1253 3523 
Q 1550 3584 1831 3584 
Q 2591 3584 2966 3190 
Q 3341 2797 3341 1997 
z
" id="DejaVuSans-61" transform="scale(0.015625)"/>
       <path d="M 2631 2963 
Q 2534 3019 2420 3045 
Q 2306 3072 2169 3072 
Q 1681 3072 1420 2755 
Q 1159 2438 1159 1844 
L 1159 0 
L 581 0 
L 581 3500 
L 1159 3500 
L 1159 2956 
Q 1341 3275 1631 3429 
Q 1922 3584 2338 3584 
Q 2397 3584 2469 3576 
Q 2541 3569 2628 3553 
L 2631 2963 
z
" id="DejaVuSans-72" transform="scale(0.015625)"/>
       <path d="M 2834 3397 
L 2834 2853 
Q 2591 2978 2328 3040 
Q 2066 3103 1784 3103 
Q 1356 3103 1142 2972 
Q 928 2841 928 2578 
Q 928 2378 1081 2264 
Q 1234 2150 1697 2047 
L 1894 2003 
Q 2506 1872 2764 1633 
Q 3022 1394 3022 966 
Q 3022 478 2636 193 
Q 2250 -91 1575 -91 
Q 1294 -91 989 -36 
Q 684 19 347 128 
L 347 722 
Q 666 556 975 473 
Q 1284 391 1588 391 
Q 1994 391 2212 530 
Q 2431 669 2431 922 
Q 2431 1156 2273 1281 
Q 2116 1406 1581 1522 
L 1381 1569 
Q 847 1681 609 1914 
Q 372 2147 372 2553 
Q 372 3047 722 3315 
Q 1072 3584 1716 3584 
Q 2034 3584 2315 3537 
Q 2597 3491 2834 3397 
z
" id="DejaVuSans-73" transform="scale(0.015625)"/>
       <path d="M 603 3500 
L 1178 3500 
L 1178 0 
L 603 0 
L 603 3500 
z
M 603 4863 
L 1178 4863 
L 1178 4134 
L 603 4134 
L 603 4863 
z
" id="DejaVuSans-69" transform="scale(0.015625)"/>
       <path d="M 3328 2828 
Q 3544 3216 3844 3400 
Q 4144 3584 4550 3584 
Q 5097 3584 5394 3201 
Q 5691 2819 5691 2113 
L 5691 0 
L 5113 0 
L 5113 2094 
Q 5113 2597 4934 2840 
Q 4756 3084 4391 3084 
Q 3944 3084 3684 2787 
Q 3425 2491 3425 1978 
L 3425 0 
L 2847 0 
L 2847 2094 
Q 2847 2600 2669 2842 
Q 2491 3084 2119 3084 
Q 1678 3084 1418 2786 
Q 1159 2488 1159 1978 
L 1159 0 
L 581 0 
L 581 3500 
L 1159 3500 
L 1159 2956 
Q 1356 3278 1631 3431 
Q 1906 3584 2284 3584 
Q 2666 3584 2933 3390 
Q 3200 3197 3328 2828 
z
" id="DejaVuSans-6d" transform="scale(0.015625)"/>
       <path d="M 1959 3097 
Q 1497 3097 1228 2736 
Q 959 2375 959 1747 
Q 959 1119 1226 758 
Q 1494 397 1959 397 
Q 2419 397 2687 759 
Q 2956 1122 2956 1747 
Q 2956 2369 2687 2733 
Q 2419 3097 1959 3097 
z
M 1959 3584 
Q 2709 3584 3137 3096 
Q 3566 2609 3566 1747 
Q 3566 888 3137 398 
Q 2709 -91 1959 -91 
Q 1206 -91 779 398 
Q 353 888 353 1747 
Q 353 2609 779 3096 
Q 1206 3584 1959 3584 
z
" id="DejaVuSans-6f" transform="scale(0.015625)"/>
       <path d="M 3513 2113 
L 3513 0 
L 2938 0 
L 2938 2094 
Q 2938 2591 2744 2837 
Q 2550 3084 2163 3084 
Q 1697 3084 1428 2787 
Q 1159 2491 1159 1978 
L 1159 0 
L 581 0 
L 581 3500 
L 1159 3500 
L 1159 2956 
Q 1366 3272 1645 3428 
Q 1925 3584 2291 3584 
Q 2894 3584 3203 3211 
Q 3513 2838 3513 2113 
z
" id="DejaVuSans-6e" transform="scale(0.015625)"/>
       <path d="M 2059 -325 
Q 1816 -950 1584 -1140 
Q 1353 -1331 966 -1331 
L 506 -1331 
L 506 -850 
L 844 -850 
Q 1081 -850 1212 -737 
Q 1344 -625 1503 -206 
L 1606 56 
L 191 3500 
L 800 3500 
L 1894 763 
L 2988 3500 
L 3597 3500 
L 2059 -325 
z
" id="DejaVuSans-79" transform="scale(0.015625)"/>
       <path id="DejaVuSans-20" transform="scale(0.015625)"/>
       <path d="M 1172 4494 
L 1172 3500 
L 2356 3500 
L 2356 3053 
L 1172 3053 
L 1172 1153 
Q 1172 725 1289 603 
Q 1406 481 1766 481 
L 2356 481 
L 2356 0 
L 1766 0 
Q 1100 0 847 248 
Q 594 497 594 1153 
L 594 3053 
L 172 3053 
L 172 3500 
L 594 3500 
L 594 4494 
L 1172 4494 
z
" id="DejaVuSans-74" transform="scale(0.015625)"/>
       <path d="M 3597 1894 
L 3597 1613 
L 953 1613 
Q 991 1019 1311 708 
Q 1631 397 2203 397 
Q 2534 397 2845 478 
Q 3156 559 3463 722 
L 3463 178 
Q 3153 47 2828 -22 
Q 2503 -91 2169 -91 
Q 1331 -91 842 396 
Q 353 884 353 1716 
Q 353 2575 817 3079 
Q 1281 3584 2069 3584 
Q 2775 3584 3186 3129 
Q 3597 2675 3597 1894 
z
M 3022 2063 
Q 3016 2534 2758 2815 
Q 2500 3097 2075 3097 
Q 1594 3097 1305 2825 
Q 1016 2553 972 2059 
L 3022 2063 
z
" id="DejaVuSans-65" transform="scale(0.015625)"/>
      </defs>
      <use xlink:href="#DejaVuSans-70"/>
      <use x="63.476562" xlink:href="#DejaVuSans-61"/>
      <use x="124.755859" xlink:href="#DejaVuSans-72"/>
      <use x="165.869141" xlink:href="#DejaVuSans-73"/>
      <use x="217.96875" xlink:href="#DejaVuSans-69"/>
      <use x="245.751953" xlink:href="#DejaVuSans-6d"/>
      <use x="343.164062" xlink:href="#DejaVuSans-6f"/>
      <use x="404.345703" xlink:href="#DejaVuSans-6e"/>
      <use x="467.724609" xlink:href="#DejaVuSans-79"/>
      <use x="526.904297" xlink:href="#DejaVuSans-20"/>
      <use x="558.691406" xlink:href="#DejaVuSans-74"/>
      <use x="597.900391" xlink:href="#DejaVuSans-72"/>
      <use x="636.763672" xlink:href="#DejaVuSans-65"/>
      <use x="698.287109" xlink:href="#DejaVuSans-65"/>
     </g>
    </g>
   </g>
   <g id="matplotlib.axis_2">
    <g id="ytick_1">
     <g id="line2d_17">
      <defs>
       <path d="M 0 0 
L -3.5 0 
" id="m4d5acb3f9e" style="stroke:#000000;stroke-width:0.8;"/>
      </defs>
      <g>
       <use style="stroke:#000000;stroke-width:0.8;" x="58.5" xlink:href="#m4d5acb3f9e" y="97.75042"/>
      </g>
     </g>
     <g id="text_10">
      <!-- $\mathdefault{10^{-67}}$ -->
      <g transform="translate(23.6 101.549639)scale(0.1 -0.1)">
       <defs>
        <path d="M 678 2272 
L 4684 2272 
L 4684 1741 
L 678 1741 
L 678 2272 
z
" id="DejaVuSans-2212" transform="scale(0.015625)"/>
        <path d="M 2113 2584 
Q 1688 2584 1439 2293 
Q 1191 2003 1191 1497 
Q 1191 994 1439 701 
Q 1688 409 2113 409 
Q 2538 409 2786 701 
Q 3034 994 3034 1497 
Q 3034 2003 2786 2293 
Q 2538 2584 2113 2584 
z
M 3366 4563 
L 3366 3988 
Q 3128 4100 2886 4159 
Q 2644 4219 2406 4219 
Q 1781 4219 1451 3797 
Q 1122 3375 1075 2522 
Q 1259 2794 1537 2939 
Q 1816 3084 2150 3084 
Q 2853 3084 3261 2657 
Q 3669 2231 3669 1497 
Q 3669 778 3244 343 
Q 2819 -91 2113 -91 
Q 1303 -91 875 529 
Q 447 1150 447 2328 
Q 447 3434 972 4092 
Q 1497 4750 2381 4750 
Q 2619 4750 2861 4703 
Q 3103 4656 3366 4563 
z
" id="DejaVuSans-36" transform="scale(0.015625)"/>
       </defs>
       <use transform="translate(0 0.765625)" xlink:href="#DejaVuSans-31"/>
       <use transform="translate(63.623047 0.765625)" xlink:href="#DejaVuSans-30"/>
       <use transform="translate(128.203125 39.046875)scale(0.7)" xlink:href="#DejaVuSans-2212"/>
       <use transform="translate(186.855469 39.046875)scale(0.7)" xlink:href="#DejaVuSans-36"/>
       <use transform="translate(231.391602 39.046875)scale(0.7)" xlink:href="#DejaVuSans-37"/>
      </g>
     </g>
    </g>
    <g id="ytick_2">
     <g id="line2d_18">
      <g>
       <use style="stroke:#000000;stroke-width:0.8;" x="58.5" xlink:href="#m4d5acb3f9e" y="64.918198"/>
      </g>
     </g>
     <g id="text_11">
      <!-- $\mathdefault{10^{-66}}$ -->
      <g transform="translate(23.6 68.717417)scale(0.1 -0.1)">
       <use transform="translate(0 0.765625)" xlink:href="#DejaVuSans-31"/>
       <use transform="translate(63.623047 0.765625)" xlink:href="#DejaVuSans-30"/>
       <use transform="translate(128.203125 39.046875)scale(0.7)" xlink:href="#DejaVuSans-2212"/>
       <use transform="translate(186.855469 39.046875)scale(0.7)" xlink:href="#DejaVuSans-36"/>
       <use transform="translate(231.391602 39.046875)scale(0.7)" xlink:href="#DejaVuSans-36"/>
      </g>
     </g>
    </g>
    <g id="ytick_3">
     <g id="line2d_19">
      <g>
       <use style="stroke:#000000;stroke-width:0.8;" x="58.5" xlink:href="#m4d5acb3f9e" y="32.085976"/>
      </g>
     </g>
     <g id="text_12">
      <!-- $\mathdefault{10^{-65}}$ -->
      <g transform="translate(23.6 35.885194)scale(0.1 -0.1)">
       <use transform="translate(0 0.765625)" xlink:href="#DejaVuSans-31"/>
       <use transform="translate(63.623047 0.765625)" xlink:href="#DejaVuSans-30"/>
       <use transform="translate(128.203125 39.046875)scale(0.7)" xlink:href="#DejaVuSans-2212"/>
       <use transform="translate(186.855469 39.046875)scale(0.7)" xlink:href="#DejaVuSans-36"/>
       <use transform="translate(231.391602 39.046875)scale(0.7)" xlink:href="#DejaVuSans-35"/>
      </g>
     </g>
    </g>
    <g id="ytick_4">
     <g id="line2d_20">
      <defs>
       <path d="M 0 0 
L -2 0 
" id="m46d6eca564" style="stroke:#000000;stroke-width:0.6;"/>
      </defs>
      <g>
       <use style="stroke:#000000;stroke-width:0.6;" x="58.5" xlink:href="#m46d6eca564" y="120.699159"/>
      </g>
     </g>
    </g>
    <g id="ytick_5">
     <g id="line2d_21">
      <g>
       <use style="stroke:#000000;stroke-width:0.6;" x="58.5" xlink:href="#m46d6eca564" y="114.917692"/>
      </g>
     </g>
    </g>
    <g id="ytick_6">
     <g id="line2d_22">
      <g>
       <use style="stroke:#000000;stroke-width:0.6;" x="58.5" xlink:href="#m46d6eca564" y="110.815675"/>
      </g>
     </g>
    </g>
    <g id="ytick_7">
     <g id="line2d_23">
      <g>
       <use style="stroke:#000000;stroke-width:0.6;" x="58.5" xlink:href="#m46d6eca564" y="107.633904"/>
      </g>
     </g>
    </g>
    <g id="ytick_8">
     <g id="line2d_24">
      <g>
       <use style="stroke:#000000;stroke-width:0.6;" x="58.5" xlink:href="#m46d6eca564" y="105.034208"/>
      </g>
     </g>
    </g>
    <g id="ytick_9">
     <g id="line2d_25">
      <g>
       <use style="stroke:#000000;stroke-width:0.6;" x="58.5" xlink:href="#m46d6eca564" y="102.836196"/>
      </g>
     </g>
    </g>
    <g id="ytick_10">
     <g id="line2d_26">
      <g>
       <use style="stroke:#000000;stroke-width:0.6;" x="58.5" xlink:href="#m46d6eca564" y="100.932192"/>
      </g>
     </g>
    </g>
    <g id="ytick_11">
     <g id="line2d_27">
      <g>
       <use style="stroke:#000000;stroke-width:0.6;" x="58.5" xlink:href="#m46d6eca564" y="99.252741"/>
      </g>
     </g>
    </g>
    <g id="ytick_12">
     <g id="line2d_28">
      <g>
       <use style="stroke:#000000;stroke-width:0.6;" x="58.5" xlink:href="#m46d6eca564" y="87.866937"/>
      </g>
     </g>
    </g>
    <g id="ytick_13">
     <g id="line2d_29">
      <g>
       <use style="stroke:#000000;stroke-width:0.6;" x="58.5" xlink:href="#m46d6eca564" y="82.085469"/>
      </g>
     </g>
    </g>
    <g id="ytick_14">
     <g id="line2d_30">
      <g>
       <use style="stroke:#000000;stroke-width:0.6;" x="58.5" xlink:href="#m46d6eca564" y="77.983453"/>
      </g>
     </g>
    </g>
    <g id="ytick_15">
     <g id="line2d_31">
      <g>
       <use style="stroke:#000000;stroke-width:0.6;" x="58.5" xlink:href="#m46d6eca564" y="74.801682"/>
      </g>
     </g>
    </g>
    <g id="ytick_16">
     <g id="line2d_32">
      <g>
       <use style="stroke:#000000;stroke-width:0.6;" x="58.5" xlink:href="#m46d6eca564" y="72.201986"/>
      </g>
     </g>
    </g>
    <g id="ytick_17">
     <g id="line2d_33">
      <g>
       <use style="stroke:#000000;stroke-width:0.6;" x="58.5" xlink:href="#m46d6eca564" y="70.003974"/>
      </g>
     </g>
    </g>
    <g id="ytick_18">
     <g id="line2d_34">
      <g>
       <use style="stroke:#000000;stroke-width:0.6;" x="58.5" xlink:href="#m46d6eca564" y="68.099969"/>
      </g>
     </g>
    </g>
    <g id="ytick_19">
     <g id="line2d_35">
      <g>
       <use style="stroke:#000000;stroke-width:0.6;" x="58.5" xlink:href="#m46d6eca564" y="66.420518"/>
      </g>
     </g>
    </g>
    <g id="ytick_20">
     <g id="line2d_36">
      <g>
       <use style="stroke:#000000;stroke-width:0.6;" x="58.5" xlink:href="#m46d6eca564" y="55.034714"/>
      </g>
     </g>
    </g>
    <g id="ytick_21">
     <g id="line2d_37">
      <g>
       <use style="stroke:#000000;stroke-width:0.6;" x="58.5" xlink:href="#m46d6eca564" y="49.253247"/>
      </g>
     </g>
    </g>
    <g id="ytick_22">
     <g id="line2d_38">
      <g>
       <use style="stroke:#000000;stroke-width:0.6;" x="58.5" xlink:href="#m46d6eca564" y="45.15123"/>
      </g>
     </g>
    </g>
    <g id="ytick_23">
     <g id="line2d_39">
      <g>
       <use style="stroke:#000000;stroke-width:0.6;" x="58.5" xlink:href="#m46d6eca564" y="41.969459"/>
      </g>
     </g>
    </g>
    <g id="ytick_24">
     <g id="line2d_40">
      <g>
       <use style="stroke:#000000;stroke-width:0.6;" x="58.5" xlink:href="#m46d6eca564" y="39.369763"/>
      </g>
     </g>
    </g>
    <g id="ytick_25">
     <g id="line2d_41">
      <g>
       <use style="stroke:#000000;stroke-width:0.6;" x="58.5" xlink:href="#m46d6eca564" y="37.171751"/>
      </g>
     </g>
    </g>
    <g id="ytick_26">
     <g id="line2d_42">
      <g>
       <use style="stroke:#000000;stroke-width:0.6;" x="58.5" xlink:href="#m46d6eca564" y="35.267747"/>
      </g>
     </g>
    </g>
    <g id="ytick_27">
     <g id="line2d_43">
      <g>
       <use style="stroke:#000000;stroke-width:0.6;" x="58.5" xlink:href="#m46d6eca564" y="33.588296"/>
      </g>
     </g>
    </g>
    <g id="ytick_28">
     <g id="line2d_44">
      <g>
       <use style="stroke:#000000;stroke-width:0.6;" x="58.5" xlink:href="#m46d6eca564" y="22.202492"/>
      </g>
     </g>
    </g>
    <g id="text_13">
     <!-- gctree likelihood -->
     <g transform="translate(17.520312 114.097344)rotate(-90)scale(0.1 -0.1)">
      <defs>
       <path d="M 2906 1791 
Q 2906 2416 2648 2759 
Q 2391 3103 1925 3103 
Q 1463 3103 1205 2759 
Q 947 2416 947 1791 
Q 947 1169 1205 825 
Q 1463 481 1925 481 
Q 2391 481 2648 825 
Q 2906 1169 2906 1791 
z
M 3481 434 
Q 3481 -459 3084 -895 
Q 2688 -1331 1869 -1331 
Q 1566 -1331 1297 -1286 
Q 1028 -1241 775 -1147 
L 775 -588 
Q 1028 -725 1275 -790 
Q 1522 -856 1778 -856 
Q 2344 -856 2625 -561 
Q 2906 -266 2906 331 
L 2906 616 
Q 2728 306 2450 153 
Q 2172 0 1784 0 
Q 1141 0 747 490 
Q 353 981 353 1791 
Q 353 2603 747 3093 
Q 1141 3584 1784 3584 
Q 2172 3584 2450 3431 
Q 2728 3278 2906 2969 
L 2906 3500 
L 3481 3500 
L 3481 434 
z
" id="DejaVuSans-67" transform="scale(0.015625)"/>
       <path d="M 3122 3366 
L 3122 2828 
Q 2878 2963 2633 3030 
Q 2388 3097 2138 3097 
Q 1578 3097 1268 2742 
Q 959 2388 959 1747 
Q 959 1106 1268 751 
Q 1578 397 2138 397 
Q 2388 397 2633 464 
Q 2878 531 3122 666 
L 3122 134 
Q 2881 22 2623 -34 
Q 2366 -91 2075 -91 
Q 1284 -91 818 406 
Q 353 903 353 1747 
Q 353 2603 823 3093 
Q 1294 3584 2113 3584 
Q 2378 3584 2631 3529 
Q 2884 3475 3122 3366 
z
" id="DejaVuSans-63" transform="scale(0.015625)"/>
       <path d="M 603 4863 
L 1178 4863 
L 1178 0 
L 603 0 
L 603 4863 
z
" id="DejaVuSans-6c" transform="scale(0.015625)"/>
       <path d="M 581 4863 
L 1159 4863 
L 1159 1991 
L 2875 3500 
L 3609 3500 
L 1753 1863 
L 3688 0 
L 2938 0 
L 1159 1709 
L 1159 0 
L 581 0 
L 581 4863 
z
" id="DejaVuSans-6b" transform="scale(0.015625)"/>
       <path d="M 3513 2113 
L 3513 0 
L 2938 0 
L 2938 2094 
Q 2938 2591 2744 2837 
Q 2550 3084 2163 3084 
Q 1697 3084 1428 2787 
Q 1159 2491 1159 1978 
L 1159 0 
L 581 0 
L 581 4863 
L 1159 4863 
L 1159 2956 
Q 1366 3272 1645 3428 
Q 1925 3584 2291 3584 
Q 2894 3584 3203 3211 
Q 3513 2838 3513 2113 
z
" id="DejaVuSans-68" transform="scale(0.015625)"/>
       <path d="M 2906 2969 
L 2906 4863 
L 3481 4863 
L 3481 0 
L 2906 0 
L 2906 525 
Q 2725 213 2448 61 
Q 2172 -91 1784 -91 
Q 1150 -91 751 415 
Q 353 922 353 1747 
Q 353 2572 751 3078 
Q 1150 3584 1784 3584 
Q 2172 3584 2448 3432 
Q 2725 3281 2906 2969 
z
M 947 1747 
Q 947 1113 1208 752 
Q 1469 391 1925 391 
Q 2381 391 2643 752 
Q 2906 1113 2906 1747 
Q 2906 2381 2643 2742 
Q 2381 3103 1925 3103 
Q 1469 3103 1208 2742 
Q 947 2381 947 1747 
z
" id="DejaVuSans-64" transform="scale(0.015625)"/>
      </defs>
      <use xlink:href="#DejaVuSans-67"/>
      <use x="63.476562" xlink:href="#DejaVuSans-63"/>
      <use x="118.457031" xlink:href="#DejaVuSans-74"/>
      <use x="157.666016" xlink:href="#DejaVuSans-72"/>
      <use x="196.529297" xlink:href="#DejaVuSans-65"/>
      <use x="258.052734" xlink:href="#DejaVuSans-65"/>
      <use x="319.576172" xlink:href="#DejaVuSans-20"/>
      <use x="351.363281" xlink:href="#DejaVuSans-6c"/>
      <use x="379.146484" xlink:href="#DejaVuSans-69"/>
      <use x="406.929688" xlink:href="#DejaVuSans-6b"/>
      <use x="461.214844" xlink:href="#DejaVuSans-65"/>
      <use x="522.738281" xlink:href="#DejaVuSans-6c"/>
      <use x="550.521484" xlink:href="#DejaVuSans-69"/>
      <use x="578.304688" xlink:href="#DejaVuSans-68"/>
      <use x="641.683594" xlink:href="#DejaVuSans-6f"/>
      <use x="702.865234" xlink:href="#DejaVuSans-6f"/>
      <use x="764.046875" xlink:href="#DejaVuSans-64"/>
     </g>
    </g>
   </g>
   <g id="line2d_45">
    <defs>
     <path d="M 0 2 
C 0.530406 2 1.03916 1.789267 1.414214 1.414214 
C 1.789267 1.03916 2 0.530406 2 0 
C 2 -0.530406 1.789267 -1.03916 1.414214 -1.414214 
C 1.03916 -1.789267 0.530406 -2 0 -2 
C -0.530406 -2 -1.03916 -1.789267 -1.414214 -1.414214 
C -1.789267 -1.03916 -2 -0.530406 -2 0 
C -2 0.530406 -1.789267 1.03916 -1.414214 1.414214 
C -1.03916 1.789267 -0.530406 2 0 2 
z
" id="mb9a012c0fb" style="stroke:#000000;"/>
    </defs>
    <g>
     <use style="stroke:#000000;" x="60.369588" xlink:href="#mb9a012c0fb" y="18.639014"/>
     <use style="stroke:#000000;" x="62.239175" xlink:href="#mb9a012c0fb" y="26.200186"/>
     <use style="stroke:#000000;" x="64.108763" xlink:href="#mb9a012c0fb" y="30.010202"/>
     <use style="stroke:#000000;" x="65.978351" xlink:href="#mb9a012c0fb" y="34.280964"/>
     <use style="stroke:#000000;" x="67.847938" xlink:href="#mb9a012c0fb" y="34.389603"/>
     <use style="stroke:#000000;" x="69.717526" xlink:href="#mb9a012c0fb" y="35.209595"/>
     <use style="stroke:#000000;" x="71.587113" xlink:href="#mb9a012c0fb" y="36.01555"/>
     <use style="stroke:#000000;" x="73.456701" xlink:href="#mb9a012c0fb" y="39.078673"/>
     <use style="stroke:#000000;" x="75.326289" xlink:href="#mb9a012c0fb" y="39.407259"/>
     <use style="stroke:#000000;" x="77.195876" xlink:href="#mb9a012c0fb" y="40.062432"/>
     <use style="stroke:#000000;" x="79.065464" xlink:href="#mb9a012c0fb" y="40.799316"/>
     <use style="stroke:#000000;" x="80.935052" xlink:href="#mb9a012c0fb" y="41.023196"/>
     <use style="stroke:#000000;" x="82.804639" xlink:href="#mb9a012c0fb" y="42.470382"/>
     <use style="stroke:#000000;" x="84.674227" xlink:href="#mb9a012c0fb" y="42.470382"/>
     <use style="stroke:#000000;" x="86.543814" xlink:href="#mb9a012c0fb" y="44.204967"/>
     <use style="stroke:#000000;" x="88.413402" xlink:href="#mb9a012c0fb" y="46.580783"/>
     <use style="stroke:#000000;" x="90.28299" xlink:href="#mb9a012c0fb" y="47.26809"/>
     <use style="stroke:#000000;" x="92.152577" xlink:href="#mb9a012c0fb" y="47.26809"/>
     <use style="stroke:#000000;" x="94.022165" xlink:href="#mb9a012c0fb" y="47.958804"/>
     <use style="stroke:#000000;" x="95.891753" xlink:href="#mb9a012c0fb" y="48.251849"/>
     <use style="stroke:#000000;" x="97.76134" xlink:href="#mb9a012c0fb" y="48.251849"/>
     <use style="stroke:#000000;" x="99.630928" xlink:href="#mb9a012c0fb" y="48.306984"/>
     <use style="stroke:#000000;" x="101.500515" xlink:href="#mb9a012c0fb" y="48.306984"/>
     <use style="stroke:#000000;" x="103.370103" xlink:href="#mb9a012c0fb" y="49.180479"/>
     <use style="stroke:#000000;" x="105.239691" xlink:href="#mb9a012c0fb" y="49.862808"/>
     <use style="stroke:#000000;" x="107.109278" xlink:href="#mb9a012c0fb" y="50.5585"/>
     <use style="stroke:#000000;" x="108.978866" xlink:href="#mb9a012c0fb" y="51.378491"/>
     <use style="stroke:#000000;" x="110.848454" xlink:href="#mb9a012c0fb" y="51.488755"/>
     <use style="stroke:#000000;" x="112.718041" xlink:href="#mb9a012c0fb" y="51.835304"/>
     <use style="stroke:#000000;" x="114.587629" xlink:href="#mb9a012c0fb" y="52.36225"/>
     <use style="stroke:#000000;" x="116.457216" xlink:href="#mb9a012c0fb" y="53.049557"/>
     <use style="stroke:#000000;" x="118.326804" xlink:href="#mb9a012c0fb" y="53.896705"/>
     <use style="stroke:#000000;" x="120.196392" xlink:href="#mb9a012c0fb" y="54.660516"/>
     <use style="stroke:#000000;" x="122.065979" xlink:href="#mb9a012c0fb" y="55.766554"/>
     <use style="stroke:#000000;" x="123.935567" xlink:href="#mb9a012c0fb" y="56.496401"/>
     <use style="stroke:#000000;" x="125.805155" xlink:href="#mb9a012c0fb" y="56.496401"/>
     <use style="stroke:#000000;" x="127.674742" xlink:href="#mb9a012c0fb" y="56.496401"/>
     <use style="stroke:#000000;" x="129.54433" xlink:href="#mb9a012c0fb" y="56.719169"/>
     <use style="stroke:#000000;" x="131.413918" xlink:href="#mb9a012c0fb" y="57.951971"/>
     <use style="stroke:#000000;" x="133.283505" xlink:href="#mb9a012c0fb" y="57.951971"/>
     <use style="stroke:#000000;" x="135.153093" xlink:href="#mb9a012c0fb" y="58.826047"/>
     <use style="stroke:#000000;" x="137.02268" xlink:href="#mb9a012c0fb" y="58.831025"/>
     <use style="stroke:#000000;" x="138.892268" xlink:href="#mb9a012c0fb" y="58.872217"/>
     <use style="stroke:#000000;" x="140.761856" xlink:href="#mb9a012c0fb" y="59.678172"/>
     <use style="stroke:#000000;" x="142.631443" xlink:href="#mb9a012c0fb" y="59.678172"/>
     <use style="stroke:#000000;" x="144.501031" xlink:href="#mb9a012c0fb" y="60.024722"/>
     <use style="stroke:#000000;" x="146.370619" xlink:href="#mb9a012c0fb" y="60.024722"/>
     <use style="stroke:#000000;" x="148.240206" xlink:href="#mb9a012c0fb" y="60.441984"/>
     <use style="stroke:#000000;" x="150.109794" xlink:href="#mb9a012c0fb" y="60.551668"/>
     <use style="stroke:#000000;" x="151.979381" xlink:href="#mb9a012c0fb" y="60.564262"/>
     <use style="stroke:#000000;" x="153.848969" xlink:href="#mb9a012c0fb" y="61.238974"/>
     <use style="stroke:#000000;" x="155.718557" xlink:href="#mb9a012c0fb" y="62.726679"/>
     <use style="stroke:#000000;" x="157.588144" xlink:href="#mb9a012c0fb" y="62.74968"/>
     <use style="stroke:#000000;" x="159.457732" xlink:href="#mb9a012c0fb" y="62.859943"/>
     <use style="stroke:#000000;" x="161.32732" xlink:href="#mb9a012c0fb" y="63.623755"/>
     <use style="stroke:#000000;" x="163.196907" xlink:href="#mb9a012c0fb" y="63.955971"/>
     <use style="stroke:#000000;" x="165.066495" xlink:href="#mb9a012c0fb" y="64.147718"/>
     <use style="stroke:#000000;" x="166.936082" xlink:href="#mb9a012c0fb" y="64.147718"/>
     <use style="stroke:#000000;" x="168.80567" xlink:href="#mb9a012c0fb" y="64.420746"/>
     <use style="stroke:#000000;" x="170.675258" xlink:href="#mb9a012c0fb" y="64.529385"/>
     <use style="stroke:#000000;" x="172.544845" xlink:href="#mb9a012c0fb" y="64.82243"/>
     <use style="stroke:#000000;" x="174.414433" xlink:href="#mb9a012c0fb" y="64.82243"/>
     <use style="stroke:#000000;" x="176.284021" xlink:href="#mb9a012c0fb" y="64.82243"/>
     <use style="stroke:#000000;" x="178.153608" xlink:href="#mb9a012c0fb" y="66.031705"/>
     <use style="stroke:#000000;" x="180.023196" xlink:href="#mb9a012c0fb" y="66.141389"/>
     <use style="stroke:#000000;" x="181.892784" xlink:href="#mb9a012c0fb" y="67.020442"/>
     <use style="stroke:#000000;" x="183.762371" xlink:href="#mb9a012c0fb" y="67.020442"/>
     <use style="stroke:#000000;" x="185.631959" xlink:href="#mb9a012c0fb" y="67.160743"/>
     <use style="stroke:#000000;" x="187.501546" xlink:href="#mb9a012c0fb" y="67.643709"/>
     <use style="stroke:#000000;" x="189.371134" xlink:href="#mb9a012c0fb" y="67.76992"/>
     <use style="stroke:#000000;" x="191.240722" xlink:href="#mb9a012c0fb" y="67.867589"/>
     <use style="stroke:#000000;" x="193.110309" xlink:href="#mb9a012c0fb" y="67.867589"/>
     <use style="stroke:#000000;" x="194.979897" xlink:href="#mb9a012c0fb" y="67.867589"/>
     <use style="stroke:#000000;" x="196.849485" xlink:href="#mb9a012c0fb" y="68.004201"/>
     <use style="stroke:#000000;" x="198.719072" xlink:href="#mb9a012c0fb" y="68.144502"/>
     <use style="stroke:#000000;" x="200.58866" xlink:href="#mb9a012c0fb" y="68.214139"/>
     <use style="stroke:#000000;" x="202.458247" xlink:href="#mb9a012c0fb" y="68.631401"/>
     <use style="stroke:#000000;" x="204.327835" xlink:href="#mb9a012c0fb" y="68.75368"/>
     <use style="stroke:#000000;" x="206.197423" xlink:href="#mb9a012c0fb" y="68.75368"/>
     <use style="stroke:#000000;" x="208.06701" xlink:href="#mb9a012c0fb" y="69.155364"/>
     <use style="stroke:#000000;" x="209.936598" xlink:href="#mb9a012c0fb" y="69.620138"/>
     <use style="stroke:#000000;" x="211.806186" xlink:href="#mb9a012c0fb" y="70.369617"/>
     <use style="stroke:#000000;" x="213.675773" xlink:href="#mb9a012c0fb" y="70.412151"/>
     <use style="stroke:#000000;" x="215.545361" xlink:href="#mb9a012c0fb" y="70.951691"/>
     <use style="stroke:#000000;" x="217.414948" xlink:href="#mb9a012c0fb" y="71.049361"/>
     <use style="stroke:#000000;" x="219.284536" xlink:href="#mb9a012c0fb" y="71.813172"/>
     <use style="stroke:#000000;" x="221.154124" xlink:href="#mb9a012c0fb" y="71.813172"/>
     <use style="stroke:#000000;" x="223.023711" xlink:href="#mb9a012c0fb" y="71.813172"/>
     <use style="stroke:#000000;" x="224.893299" xlink:href="#mb9a012c0fb" y="71.81815"/>
     <use style="stroke:#000000;" x="226.762887" xlink:href="#mb9a012c0fb" y="72.337135"/>
     <use style="stroke:#000000;" x="228.632474" xlink:href="#mb9a012c0fb" y="72.337135"/>
     <use style="stroke:#000000;" x="230.502062" xlink:href="#mb9a012c0fb" y="72.337135"/>
     <use style="stroke:#000000;" x="232.371649" xlink:href="#mb9a012c0fb" y="72.337135"/>
     <use style="stroke:#000000;" x="234.241237" xlink:href="#mb9a012c0fb" y="72.610163"/>
     <use style="stroke:#000000;" x="236.110825" xlink:href="#mb9a012c0fb" y="72.610163"/>
     <use style="stroke:#000000;" x="237.980412" xlink:href="#mb9a012c0fb" y="72.801909"/>
     <use style="stroke:#000000;" x="239.85" xlink:href="#mb9a012c0fb" y="72.94221"/>
     <use style="stroke:#000000;" x="241.719588" xlink:href="#mb9a012c0fb" y="73.152148"/>
     <use style="stroke:#000000;" x="243.589175" xlink:href="#mb9a012c0fb" y="73.343895"/>
     <use style="stroke:#000000;" x="245.458763" xlink:href="#mb9a012c0fb" y="73.343895"/>
     <use style="stroke:#000000;" x="247.328351" xlink:href="#mb9a012c0fb" y="73.425176"/>
     <use style="stroke:#000000;" x="249.197938" xlink:href="#mb9a012c0fb" y="74.535147"/>
     <use style="stroke:#000000;" x="251.067526" xlink:href="#mb9a012c0fb" y="75.209859"/>
     <use style="stroke:#000000;" x="252.937113" xlink:href="#mb9a012c0fb" y="76.193618"/>
     <use style="stroke:#000000;" x="254.806701" xlink:href="#mb9a012c0fb" y="76.33392"/>
     <use style="stroke:#000000;" x="256.676289" xlink:href="#mb9a012c0fb" y="77.344781"/>
     <use style="stroke:#000000;" x="258.545876" xlink:href="#mb9a012c0fb" y="77.409859"/>
     <use style="stroke:#000000;" x="260.415464" xlink:href="#mb9a012c0fb" y="77.599617"/>
     <use style="stroke:#000000;" x="262.285052" xlink:href="#mb9a012c0fb" y="78.933616"/>
     <use style="stroke:#000000;" x="264.154639" xlink:href="#mb9a012c0fb" y="78.933616"/>
     <use style="stroke:#000000;" x="266.024227" xlink:href="#mb9a012c0fb" y="78.933616"/>
     <use style="stroke:#000000;" x="267.893814" xlink:href="#mb9a012c0fb" y="78.933616"/>
     <use style="stroke:#000000;" x="269.763402" xlink:href="#mb9a012c0fb" y="80.002589"/>
     <use style="stroke:#000000;" x="271.63299" xlink:href="#mb9a012c0fb" y="80.124868"/>
     <use style="stroke:#000000;" x="273.502577" xlink:href="#mb9a012c0fb" y="80.124868"/>
     <use style="stroke:#000000;" x="275.372165" xlink:href="#mb9a012c0fb" y="80.316614"/>
     <use style="stroke:#000000;" x="277.241753" xlink:href="#mb9a012c0fb" y="80.316614"/>
     <use style="stroke:#000000;" x="279.11134" xlink:href="#mb9a012c0fb" y="80.526552"/>
     <use style="stroke:#000000;" x="280.980928" xlink:href="#mb9a012c0fb" y="81.131628"/>
     <use style="stroke:#000000;" x="282.850515" xlink:href="#mb9a012c0fb" y="81.131628"/>
     <use style="stroke:#000000;" x="284.720103" xlink:href="#mb9a012c0fb" y="81.533312"/>
     <use style="stroke:#000000;" x="286.589691" xlink:href="#mb9a012c0fb" y="81.533312"/>
     <use style="stroke:#000000;" x="288.459278" xlink:href="#mb9a012c0fb" y="81.932551"/>
     <use style="stroke:#000000;" x="290.328866" xlink:href="#mb9a012c0fb" y="82.493647"/>
     <use style="stroke:#000000;" x="292.198454" xlink:href="#mb9a012c0fb" y="83.539578"/>
     <use style="stroke:#000000;" x="294.068041" xlink:href="#mb9a012c0fb" y="84.715083"/>
     <use style="stroke:#000000;" x="295.937629" xlink:href="#mb9a012c0fb" y="84.715083"/>
     <use style="stroke:#000000;" x="297.807216" xlink:href="#mb9a012c0fb" y="84.715083"/>
     <use style="stroke:#000000;" x="299.676804" xlink:href="#mb9a012c0fb" y="84.935954"/>
     <use style="stroke:#000000;" x="301.546392" xlink:href="#mb9a012c0fb" y="85.32426"/>
     <use style="stroke:#000000;" x="303.415979" xlink:href="#mb9a012c0fb" y="85.32426"/>
     <use style="stroke:#000000;" x="305.285567" xlink:href="#mb9a012c0fb" y="85.789035"/>
     <use style="stroke:#000000;" x="307.155155" xlink:href="#mb9a012c0fb" y="87.123033"/>
     <use style="stroke:#000000;" x="309.024742" xlink:href="#mb9a012c0fb" y="87.123033"/>
     <use style="stroke:#000000;" x="310.89433" xlink:href="#mb9a012c0fb" y="87.123033"/>
     <use style="stroke:#000000;" x="312.763918" xlink:href="#mb9a012c0fb" y="87.797288"/>
     <use style="stroke:#000000;" x="314.633505" xlink:href="#mb9a012c0fb" y="87.797288"/>
     <use style="stroke:#000000;" x="316.503093" xlink:href="#mb9a012c0fb" y="88.192007"/>
     <use style="stroke:#000000;" x="318.37268" xlink:href="#mb9a012c0fb" y="88.198972"/>
     <use style="stroke:#000000;" x="320.242268" xlink:href="#mb9a012c0fb" y="88.337286"/>
     <use style="stroke:#000000;" x="322.111856" xlink:href="#mb9a012c0fb" y="88.506032"/>
     <use style="stroke:#000000;" x="323.981443" xlink:href="#mb9a012c0fb" y="88.781047"/>
     <use style="stroke:#000000;" x="325.851031" xlink:href="#mb9a012c0fb" y="88.781047"/>
     <use style="stroke:#000000;" x="327.720619" xlink:href="#mb9a012c0fb" y="89.321045"/>
     <use style="stroke:#000000;" x="329.590206" xlink:href="#mb9a012c0fb" y="89.321045"/>
     <use style="stroke:#000000;" x="331.459794" xlink:href="#mb9a012c0fb" y="89.321045"/>
     <use style="stroke:#000000;" x="333.329381" xlink:href="#mb9a012c0fb" y="90.121969"/>
     <use style="stroke:#000000;" x="335.198969" xlink:href="#mb9a012c0fb" y="91.380743"/>
     <use style="stroke:#000000;" x="337.068557" xlink:href="#mb9a012c0fb" y="91.380743"/>
     <use style="stroke:#000000;" x="338.938144" xlink:href="#mb9a012c0fb" y="91.380743"/>
     <use style="stroke:#000000;" x="340.807732" xlink:href="#mb9a012c0fb" y="92.9045"/>
     <use style="stroke:#000000;" x="342.67732" xlink:href="#mb9a012c0fb" y="92.9045"/>
     <use style="stroke:#000000;" x="344.546907" xlink:href="#mb9a012c0fb" y="93.30374"/>
     <use style="stroke:#000000;" x="346.416495" xlink:href="#mb9a012c0fb" y="94.118753"/>
     <use style="stroke:#000000;" x="348.286082" xlink:href="#mb9a012c0fb" y="94.118753"/>
     <use style="stroke:#000000;" x="350.15567" xlink:href="#mb9a012c0fb" y="95.102512"/>
     <use style="stroke:#000000;" x="352.025258" xlink:href="#mb9a012c0fb" y="96.388389"/>
     <use style="stroke:#000000;" x="353.894845" xlink:href="#mb9a012c0fb" y="96.388389"/>
     <use style="stroke:#000000;" x="355.764433" xlink:href="#mb9a012c0fb" y="96.388389"/>
     <use style="stroke:#000000;" x="357.634021" xlink:href="#mb9a012c0fb" y="98.101448"/>
     <use style="stroke:#000000;" x="359.503608" xlink:href="#mb9a012c0fb" y="98.394655"/>
     <use style="stroke:#000000;" x="361.373196" xlink:href="#mb9a012c0fb" y="99.57016"/>
     <use style="stroke:#000000;" x="363.242784" xlink:href="#mb9a012c0fb" y="99.57016"/>
     <use style="stroke:#000000;" x="365.112371" xlink:href="#mb9a012c0fb" y="99.57016"/>
     <use style="stroke:#000000;" x="366.981959" xlink:href="#mb9a012c0fb" y="99.57016"/>
     <use style="stroke:#000000;" x="368.851546" xlink:href="#mb9a012c0fb" y="99.57016"/>
     <use style="stroke:#000000;" x="370.721134" xlink:href="#mb9a012c0fb" y="100.719236"/>
     <use style="stroke:#000000;" x="372.590722" xlink:href="#mb9a012c0fb" y="100.719236"/>
     <use style="stroke:#000000;" x="374.460309" xlink:href="#mb9a012c0fb" y="101.493157"/>
     <use style="stroke:#000000;" x="376.329897" xlink:href="#mb9a012c0fb" y="101.493157"/>
     <use style="stroke:#000000;" x="378.199485" xlink:href="#mb9a012c0fb" y="101.493157"/>
     <use style="stroke:#000000;" x="380.069072" xlink:href="#mb9a012c0fb" y="101.768172"/>
     <use style="stroke:#000000;" x="381.93866" xlink:href="#mb9a012c0fb" y="101.768172"/>
     <use style="stroke:#000000;" x="383.808247" xlink:href="#mb9a012c0fb" y="102.30817"/>
     <use style="stroke:#000000;" x="385.677835" xlink:href="#mb9a012c0fb" y="102.30817"/>
     <use style="stroke:#000000;" x="387.547423" xlink:href="#mb9a012c0fb" y="103.564957"/>
     <use style="stroke:#000000;" x="389.41701" xlink:href="#mb9a012c0fb" y="104.176122"/>
     <use style="stroke:#000000;" x="391.286598" xlink:href="#mb9a012c0fb" y="104.176122"/>
     <use style="stroke:#000000;" x="393.156186" xlink:href="#mb9a012c0fb" y="105.891626"/>
     <use style="stroke:#000000;" x="395.025773" xlink:href="#mb9a012c0fb" y="106.177248"/>
     <use style="stroke:#000000;" x="396.895361" xlink:href="#mb9a012c0fb" y="107.54964"/>
     <use style="stroke:#000000;" x="398.764948" xlink:href="#mb9a012c0fb" y="108.506969"/>
     <use style="stroke:#000000;" x="400.634536" xlink:href="#mb9a012c0fb" y="108.506969"/>
     <use style="stroke:#000000;" x="402.504124" xlink:href="#mb9a012c0fb" y="108.908654"/>
     <use style="stroke:#000000;" x="404.373711" xlink:href="#mb9a012c0fb" y="109.95759"/>
     <use style="stroke:#000000;" x="406.243299" xlink:href="#mb9a012c0fb" y="109.95759"/>
     <use style="stroke:#000000;" x="408.112887" xlink:href="#mb9a012c0fb" y="112.090425"/>
     <use style="stroke:#000000;" x="409.982474" xlink:href="#mb9a012c0fb" y="112.090425"/>
     <use style="stroke:#000000;" x="411.852062" xlink:href="#mb9a012c0fb" y="113.541045"/>
     <use style="stroke:#000000;" x="413.721649" xlink:href="#mb9a012c0fb" y="113.871105"/>
     <use style="stroke:#000000;" x="415.591237" xlink:href="#mb9a012c0fb" y="114.755298"/>
     <use style="stroke:#000000;" x="417.460825" xlink:href="#mb9a012c0fb" y="116.696386"/>
     <use style="stroke:#000000;" x="419.330412" xlink:href="#mb9a012c0fb" y="122.944715"/>
    </g>
   </g>
   <g id="patch_3">
    <path d="M 58.5 128.16 
L 58.5 17.28 
" style="fill:none;stroke:#000000;stroke-linecap:square;stroke-linejoin:miter;stroke-width:0.8;"/>
   </g>
   <g id="patch_4">
    <path d="M 421.2 128.16 
L 421.2 17.28 
" style="fill:none;stroke:#000000;stroke-linecap:square;stroke-linejoin:miter;stroke-width:0.8;"/>
   </g>
   <g id="patch_5">
    <path d="M 58.5 128.16 
L 421.2 128.16 
" style="fill:none;stroke:#000000;stroke-linecap:square;stroke-linejoin:miter;stroke-width:0.8;"/>
   </g>
   <g id="patch_6">
    <path d="M 58.5 17.28 
L 421.2 17.28 
" style="fill:none;stroke:#000000;stroke-linecap:square;stroke-linejoin:miter;stroke-width:0.8;"/>
   </g>
  </g>
 </g>
</svg>
