<?xml version="1.0" encoding="utf-8" standalone="no"?>
<!DOCTYPE svg PUBLIC "-//W3C//DTD SVG 1.1//EN"
  "http://www.w3.org/Graphics/SVG/1.1/DTD/svg11.dtd">
<!-- Created with matplotlib (http://matplotlib.org/) -->
<svg height="345.6pt" version="1.1" viewBox="0 0 460.8 345.6" width="460.8pt" xmlns="http://www.w3.org/2000/svg" xmlns:xlink="http://www.w3.org/1999/xlink">
 <defs>
  <style type="text/css">
*{stroke-linecap:butt;stroke-linejoin:round;}
  </style>
 </defs>
 <g id="figure_1">
  <g id="patch_1">
   <path d="M 0 345.6 
L 460.8 345.6 
L 460.8 0 
L 0 0 
z
" style="fill:#ffffff;"/>
  </g>
  <g id="axes_1">
   <g id="patch_2">
    <path d="M 98.090625 280.292969 
L 426.15 280.292969 
L 426.15 42.459375 
L 98.090625 42.459375 
z
" style="fill:#ffffff;"/>
   </g>
   <g id="matplotlib.axis_1">
    <g id="xtick_1">
     <g id="line2d_1">
      <defs>
       <path d="M 0 0 
L 0 3.5 
" id="m82ed7295bf" style="stroke:#262626;stroke-width:0.8;"/>
      </defs>
      <g>
       <use style="fill:#262626;stroke:#262626;stroke-width:0.8;" x="98.090625" xlink:href="#m82ed7295bf" y="280.292969"/>
      </g>
     </g>
     <g id="text_1">
      <text style="fill:#262626;font-family:Lato;font-size:15px;font-style:normal;font-weight:600;text-anchor:middle;" transform="rotate(-0, 98.090625, 298.4375)" x="98.090625" y="298.4375">50</text>
     </g>
    </g>
    <g id="xtick_2">
     <g id="line2d_2">
      <g>
       <use style="fill:#262626;stroke:#262626;stroke-width:0.8;" x="163.7025" xlink:href="#m82ed7295bf" y="280.292969"/>
      </g>
     </g>
     <g id="text_2">
      <text style="fill:#262626;font-family:Lato;font-size:15px;font-style:normal;font-weight:600;text-anchor:middle;" transform="rotate(-0, 163.7025, 298.4375)" x="163.7025" y="298.4375">60</text>
     </g>
    </g>
    <g id="xtick_3">
     <g id="line2d_3">
      <g>
       <use style="fill:#262626;stroke:#262626;stroke-width:0.8;" x="229.314375" xlink:href="#m82ed7295bf" y="280.292969"/>
      </g>
     </g>
     <g id="text_3">
      <text style="fill:#262626;font-family:Lato;font-size:15px;font-style:normal;font-weight:600;text-anchor:middle;" transform="rotate(-0, 229.314375, 298.4375)" x="229.314375" y="298.4375">70</text>
     </g>
    </g>
    <g id="xtick_4">
     <g id="line2d_4">
      <g>
       <use style="fill:#262626;stroke:#262626;stroke-width:0.8;" x="294.92625" xlink:href="#m82ed7295bf" y="280.292969"/>
      </g>
     </g>
     <g id="text_4">
      <text style="fill:#262626;font-family:Lato;font-size:15px;font-style:normal;font-weight:600;text-anchor:middle;" transform="rotate(-0, 294.92625, 298.4375)" x="294.92625" y="298.4375">80</text>
     </g>
    </g>
    <g id="xtick_5">
     <g id="line2d_5">
      <g>
       <use style="fill:#262626;stroke:#262626;stroke-width:0.8;" x="360.538125" xlink:href="#m82ed7295bf" y="280.292969"/>
      </g>
     </g>
     <g id="text_5">
      <text style="fill:#262626;font-family:Lato;font-size:15px;font-style:normal;font-weight:600;text-anchor:middle;" transform="rotate(-0, 360.538125, 298.4375)" x="360.538125" y="298.4375">90</text>
     </g>
    </g>
    <g id="xtick_6">
     <g id="line2d_6">
      <g>
       <use style="fill:#262626;stroke:#262626;stroke-width:0.8;" x="426.15" xlink:href="#m82ed7295bf" y="280.292969"/>
      </g>
     </g>
     <g id="text_6">
      <text style="fill:#262626;font-family:Lato;font-size:15px;font-style:normal;font-weight:600;text-anchor:middle;" transform="rotate(-0, 426.15, 298.4375)" x="426.15" y="298.4375">100</text>
     </g>
    </g>
    <g id="text_7">
     <text style="fill:#262626;font-family:Lato;font-size:20px;font-style:normal;font-weight:600;text-anchor:middle;" transform="rotate(-0, 262.120313, 320.65)" x="262.120313" y="320.65">lb index threshold (percentile)</text>
    </g>
   </g>
   <g id="matplotlib.axis_2">
    <g id="ytick_1">
     <g id="line2d_7">
      <defs>
       <path d="M 0 0 
L -3.5 0 
" id="md48806bde5" style="stroke:#262626;stroke-width:0.8;"/>
      </defs>
      <g>
       <use style="fill:#262626;stroke:#262626;stroke-width:0.8;" x="98.090625" xlink:href="#md48806bde5" y="260.473503"/>
      </g>
     </g>
     <g id="text_8">
      <text style="fill:#262626;font-family:Lato;font-size:15px;font-style:normal;font-weight:600;text-anchor:end;" transform="rotate(-0, 91.090625, 266.045768)" x="91.090625" y="266.045768">50</text>
     </g>
    </g>
    <g id="ytick_2">
     <g id="line2d_8">
      <g>
       <use style="fill:#262626;stroke:#262626;stroke-width:0.8;" x="98.090625" xlink:href="#md48806bde5" y="220.83457"/>
      </g>
     </g>
     <g id="text_9">
      <text style="fill:#262626;font-family:Lato;font-size:15px;font-style:normal;font-weight:600;text-anchor:end;" transform="rotate(-0, 91.090625, 226.406836)" x="91.090625" y="226.406836">60</text>
     </g>
    </g>
    <g id="ytick_3">
     <g id="line2d_9">
      <g>
       <use style="fill:#262626;stroke:#262626;stroke-width:0.8;" x="98.090625" xlink:href="#md48806bde5" y="181.195638"/>
      </g>
     </g>
     <g id="text_10">
      <text style="fill:#262626;font-family:Lato;font-size:15px;font-style:normal;font-weight:600;text-anchor:end;" transform="rotate(-0, 91.090625, 186.767904)" x="91.090625" y="186.767904">70</text>
     </g>
    </g>
    <g id="ytick_4">
     <g id="line2d_10">
      <g>
       <use style="fill:#262626;stroke:#262626;stroke-width:0.8;" x="98.090625" xlink:href="#md48806bde5" y="141.556706"/>
      </g>
     </g>
     <g id="text_11">
      <text style="fill:#262626;font-family:Lato;font-size:15px;font-style:normal;font-weight:600;text-anchor:end;" transform="rotate(-0, 91.090625, 147.128971)" x="91.090625" y="147.128971">80</text>
     </g>
    </g>
    <g id="ytick_5">
     <g id="line2d_11">
      <g>
       <use style="fill:#262626;stroke:#262626;stroke-width:0.8;" x="98.090625" xlink:href="#md48806bde5" y="101.917773"/>
      </g>
     </g>
     <g id="text_12">
      <text style="fill:#262626;font-family:Lato;font-size:15px;font-style:normal;font-weight:600;text-anchor:end;" transform="rotate(-0, 91.090625, 107.490039)" x="91.090625" y="107.490039">90</text>
     </g>
    </g>
    <g id="ytick_6">
     <g id="line2d_12">
      <g>
       <use style="fill:#262626;stroke:#262626;stroke-width:0.8;" x="98.090625" xlink:href="#md48806bde5" y="62.278841"/>
      </g>
     </g>
     <g id="text_13">
      <text style="fill:#262626;font-family:Lato;font-size:15px;font-style:normal;font-weight:600;text-anchor:end;" transform="rotate(-0, 91.090625, 67.851107)" x="91.090625" y="67.851107">100</text>
     </g>
    </g>
    <g id="text_14">
     <text style="fill:#262626;font-family:Lato;font-size:20px;font-style:normal;font-weight:600;" transform="translate(36.2 244.630859)rotate(-90)">mean percentile of</text>
     <text style="fill:#262626;font-family:Lato;font-size:20px;font-style:normal;font-weight:600;" transform="translate(57.38125 241.538672)rotate(-90)">resulting affinities</text>
    </g>
   </g>
   <g id="line2d_13">
    <path clip-path="url(#p5be35ec6d0)" d="M 98.090625 223.232481 
L 111.213 222.166111 
L 124.335375 219.295709 
L 137.45775 215.705482 
L 150.580125 220.63174 
L 163.7025 221.018084 
L 176.824875 224.089942 
L 189.94725 230.388569 
L 203.069625 231.231667 
L 216.192 232.338973 
L 229.314375 236.20893 
L 242.43675 234.263446 
L 255.559125 237.238437 
L 268.6815 227.492272 
L 281.803875 229.804356 
L 294.92625 227.50223 
L 308.048625 224.638306 
L 321.171 232.073195 
L 334.293375 221.850953 
L 347.41575 229.943517 
L 360.538125 232.212412 
L 373.6605 236.690143 
L 386.782875 225.439093 
L 399.90525 253.591744 
L 413.027625 254.968095 
" style="fill:none;stroke:#1f77b4;stroke-linecap:round;stroke-opacity:0.7;stroke-width:3;"/>
   </g>
   <g id="line2d_14">
    <path clip-path="url(#p5be35ec6d0)" d="M 98.090625 125.603259 
L 111.213 120.661765 
L 124.335375 116.64308 
L 137.45775 110.810051 
L 150.580125 106.061317 
L 163.7025 99.593268 
L 176.824875 94.57723 
L 189.94725 87.586775 
L 203.069625 87.369058 
L 216.192 87.186063 
L 229.314375 86.910441 
L 242.43675 86.675352 
L 255.559125 86.502633 
L 268.6815 85.888076 
L 281.803875 85.643252 
L 294.92625 84.912182 
L 308.048625 84.367202 
L 321.171 83.465167 
L 334.293375 82.606499 
L 347.41575 81.097324 
L 360.538125 78.917405 
L 373.6605 76.519495 
L 386.782875 72.488869 
L 399.90525 69.1606 
L 413.027625 65.031545 
" style="fill:none;stroke:#006400;stroke-dasharray:11.1,4.8;stroke-dashoffset:0;stroke-opacity:0.7;stroke-width:3;"/>
   </g>
   <g id="line2d_15">
    <path clip-path="url(#p5be35ec6d0)" d="M 82.343775 260.473503 
L 428.774475 260.473503 
" style="fill:none;stroke:#8b0000;stroke-dasharray:11.1,4.8;stroke-dashoffset:0;stroke-opacity:0.7;stroke-width:3;"/>
   </g>
   <g id="patch_3">
    <path d="M 98.090625 280.292969 
L 98.090625 42.459375 
" style="fill:none;stroke:#262626;stroke-linecap:square;stroke-linejoin:miter;stroke-width:0.8;"/>
   </g>
   <g id="patch_4">
    <path d="M 98.090625 280.292969 
L 426.15 280.292969 
" style="fill:none;stroke:#262626;stroke-linecap:square;stroke-linejoin:miter;stroke-width:0.8;"/>
   </g>
   <g id="text_15">
    <text style="fill:#262626;font-family:Lato;font-size:20px;font-style:normal;font-weight:bold;text-anchor:middle;" transform="rotate(-0, 262.120313, 36.459375)" x="262.120313" y="36.459375">affinity </text>
   </g>
   <g id="legend_1">
    <g id="patch_5">
     <path d="M 264.920313 232.72625 
L 426.22 232.72625 
Q 429.02 232.72625 429.02 229.92625 
L 429.02 191.833125 
Q 429.02 189.033125 426.22 189.033125 
L 264.920313 189.033125 
Q 262.120313 189.033125 262.120313 191.833125 
L 262.120313 229.92625 
Q 262.120313 232.72625 264.920313 232.72625 
z
" style="fill:#ffffff;opacity:0.8;stroke:#cccccc;stroke-linejoin:miter;"/>
    </g>
    <g id="line2d_16">
     <path d="M 267.720313 200.134687 
L 295.720313 200.134687 
" style="fill:none;stroke:#006400;stroke-dasharray:11.1,4.8;stroke-dashoffset:0;stroke-opacity:0.7;stroke-width:3;"/>
    </g>
    <g id="line2d_17"/>
    <g id="text_16">
     <text style="fill:#262626;font-family:Lato;font-size:14px;font-style:normal;font-weight:600;text-anchor:start;" transform="rotate(-0, 306.920313, 205.034687)" x="306.920313" y="205.034687">perfect correlation</text>
    </g>
    <g id="line2d_18">
     <path d="M 267.720313 219.88125 
L 295.720313 219.88125 
" style="fill:none;stroke:#8b0000;stroke-dasharray:11.1,4.8;stroke-dashoffset:0;stroke-opacity:0.7;stroke-width:3;"/>
    </g>
    <g id="line2d_19"/>
    <g id="text_17">
     <text style="fill:#262626;font-family:Lato;font-size:14px;font-style:normal;font-weight:600;text-anchor:start;" transform="rotate(-0, 306.920313, 224.78125)" x="306.920313" y="224.78125">no correlation</text>
    </g>
   </g>
  </g>
  <g id="text_18">
   <text style="fill:#262626;font-family:Lato;font-size:12px;font-style:normal;font-weight:bold;text-anchor:start;" transform="rotate(-0, 170.496, 55.296)" x="170.496" y="55.296">choosing among 34 families</text>
  </g>
 </g>
 <defs>
  <clipPath id="p5be35ec6d0">
   <rect height="237.833594" width="328.059375" x="98.090625" y="42.459375"/>
  </clipPath>
 </defs>
</svg>
