<?xml version="1.0" encoding="UTF-8" standalone="no"?> <svg width="89.9583mm" height="87.8417mm"  viewBox="0 0 255 249"  xmlns="http://www.w3.org/2000/svg" xmlns:xlink="http://www.w3.org/1999/xlink"  version="1.2" baseProfile="tiny"> <title>Generated with ETE http://etetoolkit.org</title> <desc>Generated with ETE http://etetoolkit.org</desc> <defs> </defs> <g fill="none" stroke="black" stroke-width="1" fill-rule="evenodd" stroke-linecap="square" stroke-linejoin="bevel" >      <g fill="none" stroke="none" transform="matrix(1,0,0,1,0,50)" font-family="Sans Serif" font-size="9pt" font-weight="400" font-style="normal"  > <rect x="0" y="-50" width="255" height="249"/> </g>      <g fill="none" stroke="none" transform="matrix(1,0,0,1,1,51)" font-family="Sans Serif" font-size="9pt" font-weight="400" font-style="normal"  > <rect x="0" y="0" width="253" height="147"/> </g>                                                                                                                                  <g fill="none" stroke="#929292" stroke-opacity="1" stroke-width="1" stroke-linecap="butt" stroke-linejoin="bevel" transform="matrix(1,0,0,1,1,51)" font-family="Sans Serif" font-size="9pt" font-weight="400" font-style="normal"  > <polyline fill="none" vector-effect="non-scaling-stroke" points="24,10.1875 24,76.875 " /> </g>                      <g fill="none" stroke="#ff0000" stroke-opacity="1" stroke-width="1" stroke-linecap="square" stroke-linejoin="bevel" transform="matrix(1,0,0,1,1,91.2813)" font-family="Verdana" font-size="3pt" font-weight="400" font-style="normal"  > <text fill="#ff0000" fill-opacity="1" stroke="none" xml:space="preserve" x="0" y="4" font-family="Verdana" font-size="3pt" font-weight="400" font-style="normal"   >gc39-naive</text> </g>      <g fill="#929292" fill-opacity="1" stroke="none" transform="matrix(1,0,0,1,1,96.2813)" font-family="Sans Serif" font-size="9pt" font-weight="400" font-style="normal"  opacity="0.65" > <rect x="0" y="0" width="1.5" height="1.5"/> </g>              <g fill="none" stroke="#929292" stroke-opacity="1" stroke-width="1" stroke-linecap="butt" stroke-linejoin="bevel" transform="matrix(1,0,0,1,25,51)" font-family="Sans Serif" font-size="9pt" font-weight="400" font-style="normal"  > <polyline fill="none" vector-effect="non-scaling-stroke" points="52.5714,3.25 52.5714,17.125 " /> </g>            <g fill="none" stroke="#000000" stroke-opacity="1" stroke-width="1" stroke-linecap="butt" stroke-linejoin="bevel" transform="matrix(1,0,0,1,25,51)" font-family="Sans Serif" font-size="9pt" font-weight="400" font-style="normal"  > <polyline fill="none" vector-effect="non-scaling-stroke" points="0,10.1875 38.5714,10.1875 " /> </g>          <g fill="none" stroke="#ff0000" stroke-opacity="1" stroke-width="1" stroke-linecap="square" stroke-linejoin="bevel" transform="matrix(1,0,0,1,63.5714,56.1875)" font-family="Verdana" font-size="3pt" font-weight="400" font-style="normal"  > <text fill="#ff0000" fill-opacity="1" stroke="none" xml:space="preserve" x="0" y="4" font-family="Verdana" font-size="3pt" font-weight="400" font-style="normal"   >gc39-2</text> </g>      <g fill="#20a485" fill-opacity="1" stroke="none" transform="matrix(1,0,0,1,63.5714,61.1875)" font-family="Sans Serif" font-size="9pt" font-weight="400" font-style="normal"  opacity="0.65" > <rect x="0" y="0" width="5" height="5"/> </g>                    <g fill="none" stroke="#000000" stroke-opacity="1" stroke-width="1" stroke-linecap="butt" stroke-linejoin="bevel" transform="matrix(1,0,0,1,77.5714,51)" font-family="Sans Serif" font-size="9pt" font-weight="400" font-style="normal"  > <polyline fill="none" vector-effect="non-scaling-stroke" points="0,3.25 64.2857,3.25 " /> </g>          <g fill="none" stroke="#ff0000" stroke-opacity="1" stroke-width="1" stroke-linecap="square" stroke-linejoin="bevel" transform="matrix(1,0,0,1,141.857,51)" font-family="Verdana" font-size="3pt" font-weight="400" font-style="normal"  > <text fill="#ff0000" fill-opacity="1" stroke="none" xml:space="preserve" x="0" y="4" font-family="Verdana" font-size="3pt" font-weight="400" font-style="normal"   >gc39-seq2</text> </g>      <g fill="#929292" fill-opacity="1" stroke="none" transform="matrix(1,0,0,1,141.857,56)" font-family="Sans Serif" font-size="9pt" font-weight="400" font-style="normal"  opacity="0.65" > <rect x="0" y="0" width="1.5" height="1.5"/> </g>              <g fill="none" stroke="#929292" stroke-opacity="1" stroke-width="1" stroke-linecap="butt" stroke-linejoin="bevel" transform="matrix(1,0,0,1,77.5714,57.5)" font-family="Sans Serif" font-size="9pt" font-weight="400" font-style="normal"  > <polyline fill="none" vector-effect="non-scaling-stroke" points="62.5714,3.25 62.5714,18 " /> </g>            <g fill="none" stroke="#000000" stroke-opacity="1" stroke-width="1" stroke-linecap="butt" stroke-linejoin="bevel" transform="matrix(1,0,0,1,77.5714,57.5)" font-family="Sans Serif" font-size="9pt" font-weight="400" font-style="normal"  > <polyline fill="none" vector-effect="non-scaling-stroke" points="0,10.625 38.5714,10.625 " /> </g>          <g fill="none" stroke="#ff0000" stroke-opacity="1" stroke-width="1" stroke-linecap="square" stroke-linejoin="bevel" transform="matrix(1,0,0,1,116.143,63.125)" font-family="Verdana" font-size="3pt" font-weight="400" font-style="normal"  > <text fill="#ff0000" fill-opacity="1" stroke="none" xml:space="preserve" x="0" y="4" font-family="Verdana" font-size="3pt" font-weight="400" font-style="normal"   >gc39-seq10</text> </g>      <g fill="#23a982" fill-opacity="1" stroke="none" transform="matrix(1,0,0,1,116.143,68.125)" font-family="Sans Serif" font-size="9pt" font-weight="400" font-style="normal"  opacity="0.65" > <rect x="0" y="0" width="5" height="5"/> </g>                    <g fill="none" stroke="#000000" stroke-opacity="1" stroke-width="1" stroke-linecap="butt" stroke-linejoin="bevel" transform="matrix(1,0,0,1,140.143,57.5)" font-family="Sans Serif" font-size="9pt" font-weight="400" font-style="normal"  > <polyline fill="none" vector-effect="non-scaling-stroke" points="0,3.25 12.8571,3.25 " /> </g>          <g fill="none" stroke="#ff0000" stroke-opacity="1" stroke-width="1" stroke-linecap="square" stroke-linejoin="bevel" transform="matrix(1,0,0,1,153,57.5)" font-family="Verdana" font-size="3pt" font-weight="400" font-style="normal"  > <text fill="#ff0000" fill-opacity="1" stroke="none" xml:space="preserve" x="0" y="4" font-family="Verdana" font-size="3pt" font-weight="400" font-style="normal"   >gc39-seq5</text> </g>      <g fill="#929292" fill-opacity="1" stroke="none" transform="matrix(1,0,0,1,153,62.5)" font-family="Sans Serif" font-size="9pt" font-weight="400" font-style="normal"  opacity="0.65" > <rect x="0" y="0" width="1.5" height="1.5"/> </g>                    <g fill="none" stroke="#000000" stroke-opacity="1" stroke-width="1" stroke-linecap="butt" stroke-linejoin="bevel" transform="matrix(1,0,0,1,140.143,64)" font-family="Sans Serif" font-size="9pt" font-weight="400" font-style="normal"  > <polyline fill="none" vector-effect="non-scaling-stroke" points="0,3.25 12.8571,3.25 " /> </g>          <g fill="none" stroke="#ff0000" stroke-opacity="1" stroke-width="1" stroke-linecap="square" stroke-linejoin="bevel" transform="matrix(1,0,0,1,153,64)" font-family="Verdana" font-size="3pt" font-weight="400" font-style="normal"  > <text fill="#ff0000" fill-opacity="1" stroke="none" xml:space="preserve" x="0" y="4" font-family="Verdana" font-size="3pt" font-weight="400" font-style="normal"   >gc39-seq12</text> </g>      <g fill="#929292" fill-opacity="1" stroke="none" transform="matrix(1,0,0,1,153,69)" font-family="Sans Serif" font-size="9pt" font-weight="400" font-style="normal"  opacity="0.65" > <rect x="0" y="0" width="1.5" height="1.5"/> </g>                    <g fill="none" stroke="#000000" stroke-opacity="1" stroke-width="1" stroke-linecap="butt" stroke-linejoin="bevel" transform="matrix(1,0,0,1,140.143,70.5)" font-family="Sans Serif" font-size="9pt" font-weight="400" font-style="normal"  > <polyline fill="none" vector-effect="non-scaling-stroke" points="0,5 12.8571,5 " /> </g>          <g fill="none" stroke="#ff0000" stroke-opacity="1" stroke-width="1" stroke-linecap="square" stroke-linejoin="bevel" transform="matrix(1,0,0,1,153,70.5)" font-family="Verdana" font-size="3pt" font-weight="400" font-style="normal"  > <text fill="#ff0000" fill-opacity="1" stroke="none" xml:space="preserve" x="0" y="4" font-family="Verdana" font-size="3pt" font-weight="400" font-style="normal"   >gc39-seq3</text> </g>      <g fill="#414286" fill-opacity="1" stroke="none" transform="matrix(1,0,0,1,153,75.5)" font-family="Sans Serif" font-size="9pt" font-weight="400" font-style="normal"  opacity="0.65" > <rect x="0" y="0" width="5" height="5"/> </g>              <g fill="none" stroke="#929292" stroke-opacity="1" stroke-width="1" stroke-linecap="butt" stroke-linejoin="bevel" transform="matrix(1,0,0,1,25,80.5)" font-family="Sans Serif" font-size="9pt" font-weight="400" font-style="normal"  > <polyline fill="none" vector-effect="non-scaling-stroke" points="39.7143,3.25 39.7143,91.5 " /> </g>            <g fill="none" stroke="#000000" stroke-opacity="1" stroke-width="1" stroke-linecap="butt" stroke-linejoin="bevel" transform="matrix(1,0,0,1,25,80.5)" font-family="Sans Serif" font-size="9pt" font-weight="400" font-style="normal"  > <polyline fill="none" vector-effect="non-scaling-stroke" points="0,47.375 25.7143,47.375 " /> </g>          <g fill="none" stroke="#ff0000" stroke-opacity="1" stroke-width="1" stroke-linecap="square" stroke-linejoin="bevel" transform="matrix(1,0,0,1,50.7143,122.875)" font-family="Verdana" font-size="3pt" font-weight="400" font-style="normal"  > <text fill="#ff0000" fill-opacity="1" stroke="none" xml:space="preserve" x="0" y="4" font-family="Verdana" font-size="3pt" font-weight="400" font-style="normal"   >gc39-3</text> </g>      <g fill="#fde724" fill-opacity="1" stroke="none" transform="matrix(1,0,0,1,50.7143,127.875)" font-family="Sans Serif" font-size="9pt" font-weight="400" font-style="normal"  opacity="0.65" > <rect x="0" y="0" width="5" height="5"/> </g>                    <g fill="none" stroke="#000000" stroke-opacity="1" stroke-width="1" stroke-linecap="butt" stroke-linejoin="bevel" transform="matrix(1,0,0,1,64.7143,80.5)" font-family="Sans Serif" font-size="9pt" font-weight="400" font-style="normal"  > <polyline fill="none" vector-effect="non-scaling-stroke" points="0,3.25 38.5714,3.25 " /> </g>          <g fill="none" stroke="#ff0000" stroke-opacity="1" stroke-width="1" stroke-linecap="square" stroke-linejoin="bevel" transform="matrix(1,0,0,1,103.286,80.5)" font-family="Verdana" font-size="3pt" font-weight="400" font-style="normal"  > <text fill="#ff0000" fill-opacity="1" stroke="none" xml:space="preserve" x="0" y="4" font-family="Verdana" font-size="3pt" font-weight="400" font-style="normal"   >gc39-seq20</text> </g>      <g fill="#929292" fill-opacity="1" stroke="none" transform="matrix(1,0,0,1,103.286,85.5)" font-family="Sans Serif" font-size="9pt" font-weight="400" font-style="normal"  opacity="0.65" > <rect x="0" y="0" width="1.5" height="1.5"/> </g>                    <g fill="none" stroke="#000000" stroke-opacity="1" stroke-width="1" stroke-linecap="butt" stroke-linejoin="bevel" transform="matrix(1,0,0,1,64.7143,87)" font-family="Sans Serif" font-size="9pt" font-weight="400" font-style="normal"  > <polyline fill="none" vector-effect="non-scaling-stroke" points="0,3.25 12.8571,3.25 " /> </g>          <g fill="none" stroke="#ff0000" stroke-opacity="1" stroke-width="1" stroke-linecap="square" stroke-linejoin="bevel" transform="matrix(1,0,0,1,77.5714,87)" font-family="Verdana" font-size="3pt" font-weight="400" font-style="normal"  > <text fill="#ff0000" fill-opacity="1" stroke="none" xml:space="preserve" x="0" y="4" font-family="Verdana" font-size="3pt" font-weight="400" font-style="normal"   >gc39-seq8</text> </g>      <g fill="#929292" fill-opacity="1" stroke="none" transform="matrix(1,0,0,1,77.5714,92)" font-family="Sans Serif" font-size="9pt" font-weight="400" font-style="normal"  opacity="0.65" > <rect x="0" y="0" width="1.5" height="1.5"/> </g>                    <g fill="none" stroke="#000000" stroke-opacity="1" stroke-width="1" stroke-linecap="butt" stroke-linejoin="bevel" transform="matrix(1,0,0,1,64.7143,93.5)" font-family="Sans Serif" font-size="9pt" font-weight="400" font-style="normal"  > <polyline fill="none" vector-effect="non-scaling-stroke" points="0,3.25 38.5714,3.25 " /> </g>          <g fill="none" stroke="#ff0000" stroke-opacity="1" stroke-width="1" stroke-linecap="square" stroke-linejoin="bevel" transform="matrix(1,0,0,1,103.286,93.5)" font-family="Verdana" font-size="3pt" font-weight="400" font-style="normal"  > <text fill="#ff0000" fill-opacity="1" stroke="none" xml:space="preserve" x="0" y="4" font-family="Verdana" font-size="3pt" font-weight="400" font-style="normal"   >gc39-seq7</text> </g>      <g fill="#929292" fill-opacity="1" stroke="none" transform="matrix(1,0,0,1,103.286,98.5)" font-family="Sans Serif" font-size="9pt" font-weight="400" font-style="normal"  opacity="0.65" > <rect x="0" y="0" width="1.5" height="1.5"/> </g>                    <g fill="none" stroke="#000000" stroke-opacity="1" stroke-width="1" stroke-linecap="butt" stroke-linejoin="bevel" transform="matrix(1,0,0,1,64.7143,100)" font-family="Sans Serif" font-size="9pt" font-weight="400" font-style="normal"  > <polyline fill="none" vector-effect="non-scaling-stroke" points="0,3.25 51.4286,3.25 " /> </g>          <g fill="none" stroke="#ff0000" stroke-opacity="1" stroke-width="1" stroke-linecap="square" stroke-linejoin="bevel" transform="matrix(1,0,0,1,116.143,100)" font-family="Verdana" font-size="3pt" font-weight="400" font-style="normal"  > <text fill="#ff0000" fill-opacity="1" stroke="none" xml:space="preserve" x="0" y="4" font-family="Verdana" font-size="3pt" font-weight="400" font-style="normal"   >gc39-seq6</text> </g>      <g fill="#929292" fill-opacity="1" stroke="none" transform="matrix(1,0,0,1,116.143,105)" font-family="Sans Serif" font-size="9pt" font-weight="400" font-style="normal"  opacity="0.65" > <rect x="0" y="0" width="1.5" height="1.5"/> </g>                    <g fill="none" stroke="#000000" stroke-opacity="1" stroke-width="1" stroke-linecap="butt" stroke-linejoin="bevel" transform="matrix(1,0,0,1,64.7143,106.5)" font-family="Sans Serif" font-size="9pt" font-weight="400" font-style="normal"  > <polyline fill="none" vector-effect="non-scaling-stroke" points="0,3.25 51.4286,3.25 " /> </g>          <g fill="none" stroke="#ff0000" stroke-opacity="1" stroke-width="1" stroke-linecap="square" stroke-linejoin="bevel" transform="matrix(1,0,0,1,116.143,106.5)" font-family="Verdana" font-size="3pt" font-weight="400" font-style="normal"  > <text fill="#ff0000" fill-opacity="1" stroke="none" xml:space="preserve" x="0" y="4" font-family="Verdana" font-size="3pt" font-weight="400" font-style="normal"   >gc39-seq13</text> </g>      <g fill="#929292" fill-opacity="1" stroke="none" transform="matrix(1,0,0,1,116.143,111.5)" font-family="Sans Serif" font-size="9pt" font-weight="400" font-style="normal"  opacity="0.65" > <rect x="0" y="0" width="1.5" height="1.5"/> </g>                    <g fill="none" stroke="#000000" stroke-opacity="1" stroke-width="1" stroke-linecap="butt" stroke-linejoin="bevel" transform="matrix(1,0,0,1,64.7143,113)" font-family="Sans Serif" font-size="9pt" font-weight="400" font-style="normal"  > <polyline fill="none" vector-effect="non-scaling-stroke" points="0,3.25 38.5714,3.25 " /> </g>          <g fill="none" stroke="#ff0000" stroke-opacity="1" stroke-width="1" stroke-linecap="square" stroke-linejoin="bevel" transform="matrix(1,0,0,1,103.286,113)" font-family="Verdana" font-size="3pt" font-weight="400" font-style="normal"  > <text fill="#ff0000" fill-opacity="1" stroke="none" xml:space="preserve" x="0" y="4" font-family="Verdana" font-size="3pt" font-weight="400" font-style="normal"   >gc39-seq21</text> </g>      <g fill="#929292" fill-opacity="1" stroke="none" transform="matrix(1,0,0,1,103.286,118)" font-family="Sans Serif" font-size="9pt" font-weight="400" font-style="normal"  opacity="0.65" > <rect x="0" y="0" width="1.5" height="1.5"/> </g>                          <g fill="none" stroke="#000000" stroke-opacity="1" stroke-width="1" stroke-linecap="butt" stroke-linejoin="bevel" transform="matrix(1,0,0,1,64.7143,119.5)" font-family="Sans Serif" font-size="9pt" font-weight="400" font-style="normal"  > <polyline fill="none" vector-effect="non-scaling-stroke" points="0,5 25.7143,5 " /> </g>          <g fill="none" stroke="#ff0000" stroke-opacity="1" stroke-width="1" stroke-linecap="square" stroke-linejoin="bevel" transform="matrix(1,0,0,1,90.4286,119.5)" font-family="Verdana" font-size="3pt" font-weight="400" font-style="normal"  > <text fill="#ff0000" fill-opacity="1" stroke="none" xml:space="preserve" x="0" y="4" font-family="Verdana" font-size="3pt" font-weight="400" font-style="normal"   >gc39-seq18</text> </g>      <g fill="#443982" fill-opacity="1" stroke="none" transform="matrix(1,0,0,1,90.4286,124.5)" font-family="Sans Serif" font-size="9pt" font-weight="400" font-style="normal"  opacity="0.65" > <rect x="0" y="0" width="5" height="5"/> </g>                    <g fill="none" stroke="#000000" stroke-opacity="1" stroke-width="1" stroke-linecap="butt" stroke-linejoin="bevel" transform="matrix(1,0,0,1,114.429,121.25)" font-family="Sans Serif" font-size="9pt" font-weight="400" font-style="normal"  > <polyline fill="none" vector-effect="non-scaling-stroke" points="0,3.25 25.7143,3.25 " /> </g>          <g fill="none" stroke="#ff0000" stroke-opacity="1" stroke-width="1" stroke-linecap="square" stroke-linejoin="bevel" transform="matrix(1,0,0,1,140.143,121.25)" font-family="Verdana" font-size="3pt" font-weight="400" font-style="normal"  > <text fill="#ff0000" fill-opacity="1" stroke="none" xml:space="preserve" x="0" y="4" font-family="Verdana" font-size="3pt" font-weight="400" font-style="normal"   >gc39-seq4</text> </g>      <g fill="#929292" fill-opacity="1" stroke="none" transform="matrix(1,0,0,1,140.143,126.25)" font-family="Sans Serif" font-size="9pt" font-weight="400" font-style="normal"  opacity="0.65" > <rect x="0" y="0" width="1.5" height="1.5"/> </g>              <g fill="none" stroke="#929292" stroke-opacity="1" stroke-width="1" stroke-linecap="butt" stroke-linejoin="bevel" transform="matrix(1,0,0,1,64.7143,129.5)" font-family="Sans Serif" font-size="9pt" font-weight="400" font-style="normal"  > <polyline fill="none" vector-effect="non-scaling-stroke" points="26.8571,3.25 26.8571,9.75 " /> </g>            <g fill="none" stroke="#000000" stroke-opacity="1" stroke-width="1" stroke-linecap="butt" stroke-linejoin="bevel" transform="matrix(1,0,0,1,64.7143,129.5)" font-family="Sans Serif" font-size="9pt" font-weight="400" font-style="normal"  > <polyline fill="none" vector-effect="non-scaling-stroke" points="0,6.5 12.8571,6.5 " /> </g>          <g fill="none" stroke="#ff0000" stroke-opacity="1" stroke-width="1" stroke-linecap="square" stroke-linejoin="bevel" transform="matrix(1,0,0,1,77.5714,131)" font-family="Verdana" font-size="3pt" font-weight="400" font-style="normal"  > <text fill="#ff0000" fill-opacity="1" stroke="none" xml:space="preserve" x="0" y="4" font-family="Verdana" font-size="3pt" font-weight="400" font-style="normal"   >gc39-9</text> </g>      <g fill="#3f4788" fill-opacity="1" stroke="none" transform="matrix(1,0,0,1,77.5714,136)" font-family="Sans Serif" font-size="9pt" font-weight="400" font-style="normal"  opacity="0.65" > <rect x="0" y="0" width="5" height="5"/> </g>                    <g fill="none" stroke="#000000" stroke-opacity="1" stroke-width="1" stroke-linecap="butt" stroke-linejoin="bevel" transform="matrix(1,0,0,1,91.5714,129.5)" font-family="Sans Serif" font-size="9pt" font-weight="400" font-style="normal"  > <polyline fill="none" vector-effect="non-scaling-stroke" points="0,3.25 51.4286,3.25 " /> </g>          <g fill="none" stroke="#ff0000" stroke-opacity="1" stroke-width="1" stroke-linecap="square" stroke-linejoin="bevel" transform="matrix(1,0,0,1,143,129.5)" font-family="Verdana" font-size="3pt" font-weight="400" font-style="normal"  > <text fill="#ff0000" fill-opacity="1" stroke="none" xml:space="preserve" x="0" y="4" font-family="Verdana" font-size="3pt" font-weight="400" font-style="normal"   >gc39-seq14</text> </g>      <g fill="#929292" fill-opacity="1" stroke="none" transform="matrix(1,0,0,1,143,134.5)" font-family="Sans Serif" font-size="9pt" font-weight="400" font-style="normal"  opacity="0.65" > <rect x="0" y="0" width="1.5" height="1.5"/> </g>                    <g fill="none" stroke="#000000" stroke-opacity="1" stroke-width="1" stroke-linecap="butt" stroke-linejoin="bevel" transform="matrix(1,0,0,1,91.5714,136)" font-family="Sans Serif" font-size="9pt" font-weight="400" font-style="normal"  > <polyline fill="none" vector-effect="non-scaling-stroke" points="0,3.25 51.4286,3.25 " /> </g>          <g fill="none" stroke="#ff0000" stroke-opacity="1" stroke-width="1" stroke-linecap="square" stroke-linejoin="bevel" transform="matrix(1,0,0,1,143,136)" font-family="Verdana" font-size="3pt" font-weight="400" font-style="normal"  > <text fill="#ff0000" fill-opacity="1" stroke="none" xml:space="preserve" x="0" y="4" font-family="Verdana" font-size="3pt" font-weight="400" font-style="normal"   >gc39-seq22</text> </g>      <g fill="#929292" fill-opacity="1" stroke="none" transform="matrix(1,0,0,1,143,141)" font-family="Sans Serif" font-size="9pt" font-weight="400" font-style="normal"  opacity="0.65" > <rect x="0" y="0" width="1.5" height="1.5"/> </g>                          <g fill="none" stroke="#000000" stroke-opacity="1" stroke-width="1" stroke-linecap="butt" stroke-linejoin="bevel" transform="matrix(1,0,0,1,64.7143,142.5)" font-family="Sans Serif" font-size="9pt" font-weight="400" font-style="normal"  > <polyline fill="none" vector-effect="non-scaling-stroke" points="0,5 64.2857,5 " /> </g>          <g fill="none" stroke="#ff0000" stroke-opacity="1" stroke-width="1" stroke-linecap="square" stroke-linejoin="bevel" transform="matrix(1,0,0,1,129,142.5)" font-family="Verdana" font-size="3pt" font-weight="400" font-style="normal"  > <text fill="#ff0000" fill-opacity="1" stroke="none" xml:space="preserve" x="0" y="4" font-family="Verdana" font-size="3pt" font-weight="400" font-style="normal"   >gc39-seq1</text> </g>      <g fill="#365a8c" fill-opacity="1" stroke="none" transform="matrix(1,0,0,1,129,147.5)" font-family="Sans Serif" font-size="9pt" font-weight="400" font-style="normal"  opacity="0.65" > <rect x="0" y="0" width="5" height="5"/> </g>                    <g fill="none" stroke="#000000" stroke-opacity="1" stroke-width="1" stroke-linecap="butt" stroke-linejoin="bevel" transform="matrix(1,0,0,1,150,144.25)" font-family="Sans Serif" font-size="9pt" font-weight="400" font-style="normal"  > <polyline fill="none" vector-effect="non-scaling-stroke" points="0,3.25 12.8571,3.25 " /> </g>          <g fill="none" stroke="#ff0000" stroke-opacity="1" stroke-width="1" stroke-linecap="square" stroke-linejoin="bevel" transform="matrix(1,0,0,1,162.857,144.25)" font-family="Verdana" font-size="3pt" font-weight="400" font-style="normal"  > <text fill="#ff0000" fill-opacity="1" stroke="none" xml:space="preserve" x="0" y="4" font-family="Verdana" font-size="3pt" font-weight="400" font-style="normal"   >gc39-seq15</text> </g>      <g fill="#929292" fill-opacity="1" stroke="none" transform="matrix(1,0,0,1,162.857,149.25)" font-family="Sans Serif" font-size="9pt" font-weight="400" font-style="normal"  opacity="0.65" > <rect x="0" y="0" width="1.5" height="1.5"/> </g>              <g fill="none" stroke="#929292" stroke-opacity="1" stroke-width="1" stroke-linecap="butt" stroke-linejoin="bevel" transform="matrix(1,0,0,1,64.7143,152.5)" font-family="Sans Serif" font-size="9pt" font-weight="400" font-style="normal"  > <polyline fill="none" vector-effect="non-scaling-stroke" points="39.7143,3.25 39.7143,35.75 " /> </g>            <g fill="none" stroke="#000000" stroke-opacity="1" stroke-width="1" stroke-linecap="butt" stroke-linejoin="bevel" transform="matrix(1,0,0,1,64.7143,152.5)" font-family="Sans Serif" font-size="9pt" font-weight="400" font-style="normal"  > <polyline fill="none" vector-effect="non-scaling-stroke" points="0,19.5 25.7143,19.5 " /> </g>          <g fill="none" stroke="#ff0000" stroke-opacity="1" stroke-width="1" stroke-linecap="square" stroke-linejoin="bevel" transform="matrix(1,0,0,1,90.4286,167)" font-family="Verdana" font-size="3pt" font-weight="400" font-style="normal"  > <text fill="#ff0000" fill-opacity="1" stroke="none" xml:space="preserve" x="0" y="4" font-family="Verdana" font-size="3pt" font-weight="400" font-style="normal"   >gc39-5</text> </g>      <g fill="#22a784" fill-opacity="1" stroke="none" transform="matrix(1,0,0,1,90.4286,172)" font-family="Sans Serif" font-size="9pt" font-weight="400" font-style="normal"  opacity="0.65" > <rect x="0" y="0" width="5" height="5"/> </g>                    <g fill="none" stroke="#000000" stroke-opacity="1" stroke-width="1" stroke-linecap="butt" stroke-linejoin="bevel" transform="matrix(1,0,0,1,104.429,152.5)" font-family="Sans Serif" font-size="9pt" font-weight="400" font-style="normal"  > <polyline fill="none" vector-effect="non-scaling-stroke" points="0,3.25 38.5714,3.25 " /> </g>          <g fill="none" stroke="#ff0000" stroke-opacity="1" stroke-width="1" stroke-linecap="square" stroke-linejoin="bevel" transform="matrix(1,0,0,1,143,152.5)" font-family="Verdana" font-size="3pt" font-weight="400" font-style="normal"  > <text fill="#ff0000" fill-opacity="1" stroke="none" xml:space="preserve" x="0" y="4" font-family="Verdana" font-size="3pt" font-weight="400" font-style="normal"   >gc39-seq11</text> </g>      <g fill="#929292" fill-opacity="1" stroke="none" transform="matrix(1,0,0,1,143,157.5)" font-family="Sans Serif" font-size="9pt" font-weight="400" font-style="normal"  opacity="0.65" > <rect x="0" y="0" width="1.5" height="1.5"/> </g>                    <g fill="none" stroke="#000000" stroke-opacity="1" stroke-width="1" stroke-linecap="butt" stroke-linejoin="bevel" transform="matrix(1,0,0,1,104.429,159)" font-family="Sans Serif" font-size="9pt" font-weight="400" font-style="normal"  > <polyline fill="none" vector-effect="non-scaling-stroke" points="0,3.25 128.571,3.25 " /> </g>          <g fill="none" stroke="#ff0000" stroke-opacity="1" stroke-width="1" stroke-linecap="square" stroke-linejoin="bevel" transform="matrix(1,0,0,1,233,159)" font-family="Verdana" font-size="3pt" font-weight="400" font-style="normal"  > <text fill="#ff0000" fill-opacity="1" stroke="none" xml:space="preserve" x="0" y="4" font-family="Verdana" font-size="3pt" font-weight="400" font-style="normal"   >gc39-seq9</text> </g>      <g fill="#929292" fill-opacity="1" stroke="none" transform="matrix(1,0,0,1,233,164)" font-family="Sans Serif" font-size="9pt" font-weight="400" font-style="normal"  opacity="0.65" > <rect x="0" y="0" width="1.5" height="1.5"/> </g>              <g fill="none" stroke="#929292" stroke-opacity="1" stroke-width="1" stroke-linecap="butt" stroke-linejoin="bevel" transform="matrix(1,0,0,1,104.429,165.5)" font-family="Sans Serif" font-size="9pt" font-weight="400" font-style="normal"  > <polyline fill="none" vector-effect="non-scaling-stroke" points="29.8571,3.25 29.8571,9.75 " /> </g>            <g fill="none" stroke="#000000" stroke-opacity="1" stroke-width="1" stroke-linecap="butt" stroke-linejoin="bevel" transform="matrix(1,0,0,1,104.429,165.5)" font-family="Sans Serif" font-size="9pt" font-weight="400" font-style="normal"  > <polyline fill="none" vector-effect="non-scaling-stroke" points="0,6.5 12.8571,6.5 " /> </g>          <g fill="none" stroke="#ff0000" stroke-opacity="1" stroke-width="1" stroke-linecap="square" stroke-linejoin="bevel" transform="matrix(1,0,0,1,117.286,167)" font-family="Verdana" font-size="3pt" font-weight="400" font-style="normal"  > <text fill="#ff0000" fill-opacity="1" stroke="none" xml:space="preserve" x="0" y="4" font-family="Verdana" font-size="3pt" font-weight="400" font-style="normal"   >gc39-10</text> </g>      <g fill="#2f698d" fill-opacity="1" stroke="none" transform="matrix(1,0,0,1,117.286,172)" font-family="Sans Serif" font-size="9pt" font-weight="400" font-style="normal"  opacity="0.65" > <rect x="0" y="0" width="5" height="5"/> </g>                    <g fill="none" stroke="#000000" stroke-opacity="1" stroke-width="1" stroke-linecap="butt" stroke-linejoin="bevel" transform="matrix(1,0,0,1,134.286,165.5)" font-family="Sans Serif" font-size="9pt" font-weight="400" font-style="normal"  > <polyline fill="none" vector-effect="non-scaling-stroke" points="0,3.25 38.5714,3.25 " /> </g>          <g fill="none" stroke="#ff0000" stroke-opacity="1" stroke-width="1" stroke-linecap="square" stroke-linejoin="bevel" transform="matrix(1,0,0,1,172.857,165.5)" font-family="Verdana" font-size="3pt" font-weight="400" font-style="normal"  > <text fill="#ff0000" fill-opacity="1" stroke="none" xml:space="preserve" x="0" y="4" font-family="Verdana" font-size="3pt" font-weight="400" font-style="normal"   >gc39-seq16</text> </g>      <g fill="#929292" fill-opacity="1" stroke="none" transform="matrix(1,0,0,1,172.857,170.5)" font-family="Sans Serif" font-size="9pt" font-weight="400" font-style="normal"  opacity="0.65" > <rect x="0" y="0" width="1.5" height="1.5"/> </g>                    <g fill="none" stroke="#000000" stroke-opacity="1" stroke-width="1" stroke-linecap="butt" stroke-linejoin="bevel" transform="matrix(1,0,0,1,134.286,172)" font-family="Sans Serif" font-size="9pt" font-weight="400" font-style="normal"  > <polyline fill="none" vector-effect="non-scaling-stroke" points="0,3.25 38.5714,3.25 " /> </g>          <g fill="none" stroke="#ff0000" stroke-opacity="1" stroke-width="1" stroke-linecap="square" stroke-linejoin="bevel" transform="matrix(1,0,0,1,172.857,172)" font-family="Verdana" font-size="3pt" font-weight="400" font-style="normal"  > <text fill="#ff0000" fill-opacity="1" stroke="none" xml:space="preserve" x="0" y="4" font-family="Verdana" font-size="3pt" font-weight="400" font-style="normal"   >gc39-seq23</text> </g>      <g fill="#929292" fill-opacity="1" stroke="none" transform="matrix(1,0,0,1,172.857,177)" font-family="Sans Serif" font-size="9pt" font-weight="400" font-style="normal"  opacity="0.65" > <rect x="0" y="0" width="1.5" height="1.5"/> </g>              <g fill="none" stroke="#929292" stroke-opacity="1" stroke-width="1" stroke-linecap="butt" stroke-linejoin="bevel" transform="matrix(1,0,0,1,104.429,178.5)" font-family="Sans Serif" font-size="9pt" font-weight="400" font-style="normal"  > <polyline fill="none" vector-effect="non-scaling-stroke" points="52.5714,3.25 52.5714,16.25 " /> </g>            <g fill="none" stroke="#000000" stroke-opacity="1" stroke-width="1" stroke-linecap="butt" stroke-linejoin="bevel" transform="matrix(1,0,0,1,104.429,178.5)" font-family="Sans Serif" font-size="9pt" font-weight="400" font-style="normal"  > <polyline fill="none" vector-effect="non-scaling-stroke" points="0,9.75 38.5714,9.75 " /> </g>          <g fill="none" stroke="#ff0000" stroke-opacity="1" stroke-width="1" stroke-linecap="square" stroke-linejoin="bevel" transform="matrix(1,0,0,1,143,183.25)" font-family="Verdana" font-size="3pt" font-weight="400" font-style="normal"  > <text fill="#ff0000" fill-opacity="1" stroke="none" xml:space="preserve" x="0" y="4" font-family="Verdana" font-size="3pt" font-weight="400" font-style="normal"   >gc39-8</text> </g>      <g fill="#23a982" fill-opacity="1" stroke="none" transform="matrix(1,0,0,1,143,188.25)" font-family="Sans Serif" font-size="9pt" font-weight="400" font-style="normal"  opacity="0.65" > <rect x="0" y="0" width="5" height="5"/> </g>                    <g fill="none" stroke="#000000" stroke-opacity="1" stroke-width="1" stroke-linecap="butt" stroke-linejoin="bevel" transform="matrix(1,0,0,1,157,178.5)" font-family="Sans Serif" font-size="9pt" font-weight="400" font-style="normal"  > <polyline fill="none" vector-effect="non-scaling-stroke" points="0,3.25 12.8571,3.25 " /> </g>          <g fill="none" stroke="#ff0000" stroke-opacity="1" stroke-width="1" stroke-linecap="square" stroke-linejoin="bevel" transform="matrix(1,0,0,1,169.857,178.5)" font-family="Verdana" font-size="3pt" font-weight="400" font-style="normal"  > <text fill="#ff0000" fill-opacity="1" stroke="none" xml:space="preserve" x="0" y="4" font-family="Verdana" font-size="3pt" font-weight="400" font-style="normal"   >gc39-seq24</text> </g>      <g fill="#929292" fill-opacity="1" stroke="none" transform="matrix(1,0,0,1,169.857,183.5)" font-family="Sans Serif" font-size="9pt" font-weight="400" font-style="normal"  opacity="0.65" > <rect x="0" y="0" width="1.5" height="1.5"/> </g>                    <g fill="none" stroke="#000000" stroke-opacity="1" stroke-width="1" stroke-linecap="butt" stroke-linejoin="bevel" transform="matrix(1,0,0,1,157,185)" font-family="Sans Serif" font-size="9pt" font-weight="400" font-style="normal"  > <polyline fill="none" vector-effect="non-scaling-stroke" points="0,3.25 25.7143,3.25 " /> </g>          <g fill="none" stroke="#ff0000" stroke-opacity="1" stroke-width="1" stroke-linecap="square" stroke-linejoin="bevel" transform="matrix(1,0,0,1,182.714,185)" font-family="Verdana" font-size="3pt" font-weight="400" font-style="normal"  > <text fill="#ff0000" fill-opacity="1" stroke="none" xml:space="preserve" x="0" y="4" font-family="Verdana" font-size="3pt" font-weight="400" font-style="normal"   >gc39-seq19</text> </g>      <g fill="#929292" fill-opacity="1" stroke="none" transform="matrix(1,0,0,1,182.714,190)" font-family="Sans Serif" font-size="9pt" font-weight="400" font-style="normal"  opacity="0.65" > <rect x="0" y="0" width="1.5" height="1.5"/> </g>                    <g fill="none" stroke="#000000" stroke-opacity="1" stroke-width="1" stroke-linecap="butt" stroke-linejoin="bevel" transform="matrix(1,0,0,1,157,191.5)" font-family="Sans Serif" font-size="9pt" font-weight="400" font-style="normal"  > <polyline fill="none" vector-effect="non-scaling-stroke" points="0,3.25 51.4286,3.25 " /> </g>          <g fill="none" stroke="#ff0000" stroke-opacity="1" stroke-width="1" stroke-linecap="square" stroke-linejoin="bevel" transform="matrix(1,0,0,1,208.429,191.5)" font-family="Verdana" font-size="3pt" font-weight="400" font-style="normal"  > <text fill="#ff0000" fill-opacity="1" stroke="none" xml:space="preserve" x="0" y="4" font-family="Verdana" font-size="3pt" font-weight="400" font-style="normal"   >gc39-seq17</text> </g>      <g fill="#929292" fill-opacity="1" stroke="none" transform="matrix(1,0,0,1,208.429,196.5)" font-family="Sans Serif" font-size="9pt" font-weight="400" font-style="normal"  opacity="0.65" > <rect x="0" y="0" width="1.5" height="1.5"/> </g>                                                                                                                                              <g fill="none" stroke="#000000" stroke-opacity="1" stroke-width="1" stroke-linecap="square" stroke-linejoin="bevel" transform="matrix(1,0,0,1,29,0)" font-family="Verdana" font-size="4pt" font-weight="400" font-style="normal"  > <text fill="#000000" fill-opacity="1" stroke="none" xml:space="preserve" x="0" y="6" font-family="Verdana" font-size="4pt" font-weight="400" font-style="normal"   >   lb ratio </text> </g>                          <g fill="#443982" fill-opacity="1" stroke="none" transform="matrix(1,0,0,1,58,1)" font-family="Sans Serif" font-size="9pt" font-weight="400" font-style="normal"  opacity="0.65" > <rect x="0" y="0" width="6" height="6"/> </g>      <g fill="#2c728e" fill-opacity="1" stroke="none" transform="matrix(1,0,0,1,58,9)" font-family="Sans Serif" font-size="9pt" font-weight="400" font-style="normal"  opacity="0.65" > <rect x="0" y="0" width="6" height="6"/> </g>      <g fill="#20a485" fill-opacity="1" stroke="none" transform="matrix(1,0,0,1,58,17)" font-family="Sans Serif" font-size="9pt" font-weight="400" font-style="normal"  opacity="0.65" > <rect x="0" y="0" width="6" height="6"/> </g>      <g fill="#74d054" fill-opacity="1" stroke="none" transform="matrix(1,0,0,1,58,25)" font-family="Sans Serif" font-size="9pt" font-weight="400" font-style="normal"  opacity="0.65" > <rect x="0" y="0" width="6" height="6"/> </g>      <g fill="#fde724" fill-opacity="1" stroke="none" transform="matrix(1,0,0,1,58,34)" font-family="Sans Serif" font-size="9pt" font-weight="400" font-style="normal"  opacity="0.65" > <rect x="0" y="0" width="6" height="6"/> </g>      <g fill="none" stroke="#000000" stroke-opacity="1" stroke-width="1" stroke-linecap="square" stroke-linejoin="bevel" transform="matrix(1,0,0,1,64,0)" font-family="Verdana" font-size="4pt" font-weight="400" font-style="normal"  > <text fill="#000000" fill-opacity="1" stroke="none" xml:space="preserve" x="0" y="6" font-family="Verdana" font-size="4pt" font-weight="400" font-style="normal"   >  0.38</text> </g>      <g fill="none" stroke="#000000" stroke-opacity="1" stroke-width="1" stroke-linecap="square" stroke-linejoin="bevel" transform="matrix(1,0,0,1,64,8)" font-family="Verdana" font-size="4pt" font-weight="400" font-style="normal"  > <text fill="#000000" fill-opacity="1" stroke="none" xml:space="preserve" x="0" y="6" font-family="Verdana" font-size="4pt" font-weight="400" font-style="normal"   >  0.84</text> </g>      <g fill="none" stroke="#000000" stroke-opacity="1" stroke-width="1" stroke-linecap="square" stroke-linejoin="bevel" transform="matrix(1,0,0,1,64,16)" font-family="Verdana" font-size="4pt" font-weight="400" font-style="normal"  > <text fill="#000000" fill-opacity="1" stroke="none" xml:space="preserve" x="0" y="6" font-family="Verdana" font-size="4pt" font-weight="400" font-style="normal"   >  1.85</text> </g>      <g fill="none" stroke="#000000" stroke-opacity="1" stroke-width="1" stroke-linecap="square" stroke-linejoin="bevel" transform="matrix(1,0,0,1,64,24)" font-family="Verdana" font-size="4pt" font-weight="400" font-style="normal"  > <text fill="#000000" fill-opacity="1" stroke="none" xml:space="preserve" x="0" y="6" font-family="Verdana" font-size="4pt" font-weight="400" font-style="normal"   >  4.07</text> </g>      <g fill="none" stroke="#000000" stroke-opacity="1" stroke-width="1" stroke-linecap="square" stroke-linejoin="bevel" transform="matrix(1,0,0,1,64,33)" font-family="Verdana" font-size="4pt" font-weight="400" font-style="normal"  > <text fill="#000000" fill-opacity="1" stroke="none" xml:space="preserve" x="0" y="6" font-family="Verdana" font-size="4pt" font-weight="400" font-style="normal"   >  8.96</text> </g>      <g fill="none" stroke="#000000" stroke-opacity="1" stroke-width="1" stroke-linecap="square" stroke-linejoin="bevel" transform="matrix(1,0,0,1,82,0)" font-family="Verdana" font-size="4pt" font-weight="400" font-style="normal"  > <text fill="#000000" fill-opacity="1" stroke="none" xml:space="preserve" x="0" y="6" font-family="Verdana" font-size="4pt" font-weight="400" font-style="normal"   >   affinity decrease </text> </g>                          <g fill="#929292" fill-opacity="1" stroke="none" transform="matrix(1,0,0,1,140,3.25)" font-family="Sans Serif" font-size="9pt" font-weight="400" font-style="normal"  > <rect x="0" y="0" width="1.5" height="1.5"/> </g>      <g fill="#929292" fill-opacity="1" stroke="none" transform="matrix(1,0,0,1,140,10.1875)" font-family="Sans Serif" font-size="9pt" font-weight="400" font-style="normal"  > <rect x="0" y="0" width="3.625" height="3.625"/> </g>      <g fill="#929292" fill-opacity="1" stroke="none" transform="matrix(1,0,0,1,140,17.125)" font-family="Sans Serif" font-size="9pt" font-weight="400" font-style="normal"  > <rect x="0" y="0" width="5.75" height="5.75"/> </g>      <g fill="#929292" fill-opacity="1" stroke="none" transform="matrix(1,0,0,1,140,24.0625)" font-family="Sans Serif" font-size="9pt" font-weight="400" font-style="normal"  > <rect x="0" y="0" width="7.875" height="7.875"/> </g>      <g fill="#929292" fill-opacity="1" stroke="none" transform="matrix(1,0,0,1,140,32)" font-family="Sans Serif" font-size="9pt" font-weight="400" font-style="normal"  > <rect x="0" y="0" width="10" height="10"/> </g>      <g fill="none" stroke="#000000" stroke-opacity="1" stroke-width="1" stroke-linecap="square" stroke-linejoin="bevel" transform="matrix(1,0,0,1,150,0)" font-family="Verdana" font-size="4pt" font-weight="400" font-style="normal"  > <text fill="#000000" fill-opacity="1" stroke="none" xml:space="preserve" x="0" y="6" font-family="Verdana" font-size="4pt" font-weight="400" font-style="normal"   >  --1.0</text> </g>      <g fill="none" stroke="#000000" stroke-opacity="1" stroke-width="1" stroke-linecap="square" stroke-linejoin="bevel" transform="matrix(1,0,0,1,150,8)" font-family="Verdana" font-size="4pt" font-weight="400" font-style="normal"  > <text fill="#000000" fill-opacity="1" stroke="none" xml:space="preserve" x="0" y="6" font-family="Verdana" font-size="4pt" font-weight="400" font-style="normal"   >  --0.5</text> </g>      <g fill="none" stroke="#000000" stroke-opacity="1" stroke-width="1" stroke-linecap="square" stroke-linejoin="bevel" transform="matrix(1,0,0,1,150,16)" font-family="Verdana" font-size="4pt" font-weight="400" font-style="normal"  > <text fill="#000000" fill-opacity="1" stroke="none" xml:space="preserve" x="0" y="6" font-family="Verdana" font-size="4pt" font-weight="400" font-style="normal"   >  -0.0</text> </g>      <g fill="none" stroke="#000000" stroke-opacity="1" stroke-width="1" stroke-linecap="square" stroke-linejoin="bevel" transform="matrix(1,0,0,1,150,24)" font-family="Verdana" font-size="4pt" font-weight="400" font-style="normal"  > <text fill="#000000" fill-opacity="1" stroke="none" xml:space="preserve" x="0" y="6" font-family="Verdana" font-size="4pt" font-weight="400" font-style="normal"   >  -0.5</text> </g>      <g fill="none" stroke="#000000" stroke-opacity="1" stroke-width="1" stroke-linecap="square" stroke-linejoin="bevel" transform="matrix(1,0,0,1,150,33)" font-family="Verdana" font-size="4pt" font-weight="400" font-style="normal"  > <text fill="#000000" fill-opacity="1" stroke="none" xml:space="preserve" x="0" y="6" font-family="Verdana" font-size="4pt" font-weight="400" font-style="normal"   >  -1.0</text> </g>      <g fill="none" stroke="#000000" stroke-opacity="1" stroke-width="1" stroke-linecap="square" stroke-linejoin="bevel" transform="matrix(1,0,0,1,168,0)" font-family="Verdana" font-size="4pt" font-weight="400" font-style="normal"  > <text fill="#000000" fill-opacity="1" stroke="none" xml:space="preserve" x="0" y="6" font-family="Verdana" font-size="4pt" font-weight="400" font-style="normal"   >   affinity increase </text> </g>                          <g fill="#929292" fill-opacity="1" stroke="none" transform="matrix(1,0,0,1,224,3.25)" font-family="Sans Serif" font-size="9pt" font-weight="400" font-style="normal"  > <rect x="0" y="0" width="1.5" height="1.5"/> </g>      <g fill="#929292" fill-opacity="1" stroke="none" transform="matrix(1,0,0,1,224,10.1875)" font-family="Sans Serif" font-size="9pt" font-weight="400" font-style="normal"  > <rect x="0" y="0" width="3.625" height="3.625"/> </g>      <g fill="#929292" fill-opacity="1" stroke="none" transform="matrix(1,0,0,1,224,17.125)" font-family="Sans Serif" font-size="9pt" font-weight="400" font-style="normal"  > <rect x="0" y="0" width="5.75" height="5.75"/> </g>      <g fill="#929292" fill-opacity="1" stroke="none" transform="matrix(1,0,0,1,224,24.0625)" font-family="Sans Serif" font-size="9pt" font-weight="400" font-style="normal"  > <rect x="0" y="0" width="7.875" height="7.875"/> </g>      <g fill="#929292" fill-opacity="1" stroke="none" transform="matrix(1,0,0,1,224,32)" font-family="Sans Serif" font-size="9pt" font-weight="400" font-style="normal"  > <rect x="0" y="0" width="10" height="10"/> </g>      <g fill="none" stroke="#000000" stroke-opacity="1" stroke-width="1" stroke-linecap="square" stroke-linejoin="bevel" transform="matrix(1,0,0,1,234,0)" font-family="Verdana" font-size="4pt" font-weight="400" font-style="normal"  > <text fill="#000000" fill-opacity="1" stroke="none" xml:space="preserve" x="0" y="6" font-family="Verdana" font-size="4pt" font-weight="400" font-style="normal"   >  +-1.0</text> </g>      <g fill="none" stroke="#000000" stroke-opacity="1" stroke-width="1" stroke-linecap="square" stroke-linejoin="bevel" transform="matrix(1,0,0,1,234,8)" font-family="Verdana" font-size="4pt" font-weight="400" font-style="normal"  > <text fill="#000000" fill-opacity="1" stroke="none" xml:space="preserve" x="0" y="6" font-family="Verdana" font-size="4pt" font-weight="400" font-style="normal"   >  +-0.5</text> </g>      <g fill="none" stroke="#000000" stroke-opacity="1" stroke-width="1" stroke-linecap="square" stroke-linejoin="bevel" transform="matrix(1,0,0,1,234,16)" font-family="Verdana" font-size="4pt" font-weight="400" font-style="normal"  > <text fill="#000000" fill-opacity="1" stroke="none" xml:space="preserve" x="0" y="6" font-family="Verdana" font-size="4pt" font-weight="400" font-style="normal"   >  +0.0</text> </g>      <g fill="none" stroke="#000000" stroke-opacity="1" stroke-width="1" stroke-linecap="square" stroke-linejoin="bevel" transform="matrix(1,0,0,1,234,24)" font-family="Verdana" font-size="4pt" font-weight="400" font-style="normal"  > <text fill="#000000" fill-opacity="1" stroke="none" xml:space="preserve" x="0" y="6" font-family="Verdana" font-size="4pt" font-weight="400" font-style="normal"   >  +0.5</text> </g>      <g fill="none" stroke="#000000" stroke-opacity="1" stroke-width="1" stroke-linecap="square" stroke-linejoin="bevel" transform="matrix(1,0,0,1,234,33)" font-family="Verdana" font-size="4pt" font-weight="400" font-style="normal"  > <text fill="#000000" fill-opacity="1" stroke="none" xml:space="preserve" x="0" y="6" font-family="Verdana" font-size="4pt" font-weight="400" font-style="normal"   >  +1.0</text> </g>      <g fill="none" stroke="#000000" stroke-opacity="1" stroke-width="1" stroke-linecap="square" stroke-linejoin="bevel" transform="matrix(1,0,0,1,1,199)" font-family="Sans Serif" font-size="9pt" font-weight="400" font-style="normal"  > <polyline fill="none" vector-effect="none" points="0,5 50,5 " /> </g>      <g fill="none" stroke="#000000" stroke-opacity="1" stroke-width="1" stroke-linecap="square" stroke-linejoin="bevel" transform="matrix(1,0,0,1,1,199)" font-family="Sans Serif" font-size="9pt" font-weight="400" font-style="normal"  > <polyline fill="none" vector-effect="none" points="0,0 0,10 " /> </g>      <g fill="none" stroke="#000000" stroke-opacity="1" stroke-width="1" stroke-linecap="square" stroke-linejoin="bevel" transform="matrix(1,0,0,1,1,199)" font-family="Sans Serif" font-size="9pt" font-weight="400" font-style="normal"  > <polyline fill="none" vector-effect="none" points="50,0 50,10 " /> </g>      <g fill="none" stroke="#000000" stroke-opacity="1" stroke-width="1" stroke-linecap="square" stroke-linejoin="bevel" transform="matrix(1,0,0,1,1,209)" font-family="Sans Serif" font-size="9pt" font-weight="400" font-style="normal"  > <text fill="#000000" fill-opacity="1" stroke="none" xml:space="preserve" x="0" y="13" font-family="Sans Serif" font-size="9pt" font-weight="400" font-style="normal"   >0.00972222</text> </g>     </g> </svg> 