<?xml version="1.0" encoding="utf-8" standalone="no"?>
<!DOCTYPE svg PUBLIC "-//W3C//DTD SVG 1.1//EN"
  "http://www.w3.org/Graphics/SVG/1.1/DTD/svg11.dtd">
<!-- Created with matplotlib (http://matplotlib.org/) -->
<svg height="345.6pt" version="1.1" viewBox="0 0 460.8 345.6" width="460.8pt" xmlns="http://www.w3.org/2000/svg" xmlns:xlink="http://www.w3.org/1999/xlink">
 <defs>
  <style type="text/css">
*{stroke-linecap:butt;stroke-linejoin:round;}
  </style>
 </defs>
 <g id="figure_1">
  <g id="patch_1">
   <path d="M 0 345.6 
L 460.8 345.6 
L 460.8 0 
L 0 0 
z
" style="fill:#ffffff;"/>
  </g>
  <g id="axes_1">
   <g id="patch_2">
    <path d="M 71.771875 280.042969 
L 435.438469 280.042969 
L 435.438469 39.232031 
L 71.771875 39.232031 
z
" style="fill:#ffffff;"/>
   </g>
   <g id="matplotlib.axis_1">
    <g id="xtick_1">
     <g id="line2d_1">
      <defs>
       <path d="M 0 0 
L 0 3.5 
" id="md5d986f36c" style="stroke:#262626;stroke-width:0.8;"/>
      </defs>
      <g>
       <use style="fill:#262626;stroke:#262626;stroke-width:0.8;" x="80.360975" xlink:href="#md5d986f36c" y="280.042969"/>
      </g>
     </g>
     <g id="text_1">
      <text style="fill:#262626;font-family:Lato;font-size:15px;font-style:normal;font-weight:600;text-anchor:middle;" transform="rotate(-0, 80.360975, 298.1875)" x="80.360975" y="298.1875">−4</text>
     </g>
    </g>
    <g id="xtick_2">
     <g id="line2d_2">
      <g>
       <use style="fill:#262626;stroke:#262626;stroke-width:0.8;" x="165.834332" xlink:href="#md5d986f36c" y="280.042969"/>
      </g>
     </g>
     <g id="text_2">
      <text style="fill:#262626;font-family:Lato;font-size:15px;font-style:normal;font-weight:600;text-anchor:middle;" transform="rotate(-0, 165.834332, 298.1875)" x="165.834332" y="298.1875">−3</text>
     </g>
    </g>
    <g id="xtick_3">
     <g id="line2d_3">
      <g>
       <use style="fill:#262626;stroke:#262626;stroke-width:0.8;" x="251.307689" xlink:href="#md5d986f36c" y="280.042969"/>
      </g>
     </g>
     <g id="text_3">
      <text style="fill:#262626;font-family:Lato;font-size:15px;font-style:normal;font-weight:600;text-anchor:middle;" transform="rotate(-0, 251.307689, 298.1875)" x="251.307689" y="298.1875">−2</text>
     </g>
    </g>
    <g id="xtick_4">
     <g id="line2d_4">
      <g>
       <use style="fill:#262626;stroke:#262626;stroke-width:0.8;" x="336.781046" xlink:href="#md5d986f36c" y="280.042969"/>
      </g>
     </g>
     <g id="text_4">
      <text style="fill:#262626;font-family:Lato;font-size:15px;font-style:normal;font-weight:600;text-anchor:middle;" transform="rotate(-0, 336.781046, 298.1875)" x="336.781046" y="298.1875">−1</text>
     </g>
    </g>
    <g id="xtick_5">
     <g id="line2d_5">
      <g>
       <use style="fill:#262626;stroke:#262626;stroke-width:0.8;" x="422.254403" xlink:href="#md5d986f36c" y="280.042969"/>
      </g>
     </g>
     <g id="text_5">
      <text style="fill:#262626;font-family:Lato;font-size:15px;font-style:normal;font-weight:600;text-anchor:middle;" transform="rotate(-0, 422.254403, 298.1875)" x="422.254403" y="298.1875">0</text>
     </g>
    </g>
    <g id="text_6">
     <text style="fill:#262626;font-family:Lato;font-size:20px;font-style:normal;font-weight:600;text-anchor:middle;" transform="rotate(-0, 253.605172, 320.4)" x="253.605172" y="320.4">aa-cdist (+jitter)</text>
    </g>
   </g>
   <g id="matplotlib.axis_2">
    <g id="ytick_1">
     <g id="line2d_6">
      <defs>
       <path d="M 0 0 
L -3.5 0 
" id="ma639be40f8" style="stroke:#262626;stroke-width:0.8;"/>
      </defs>
      <g>
       <use style="fill:#262626;stroke:#262626;stroke-width:0.8;" x="71.771875" xlink:href="#ma639be40f8" y="273.535518"/>
      </g>
     </g>
     <g id="text_7">
      <text style="fill:#262626;font-family:Lato;font-size:15px;font-style:normal;font-weight:600;text-anchor:end;" transform="rotate(-0, 64.771875, 279.107783)" x="64.771875" y="279.107783">0.0</text>
     </g>
    </g>
    <g id="ytick_2">
     <g id="line2d_7">
      <g>
       <use style="fill:#262626;stroke:#262626;stroke-width:0.8;" x="71.771875" xlink:href="#ma639be40f8" y="235.77814"/>
      </g>
     </g>
     <g id="text_8">
      <text style="fill:#262626;font-family:Lato;font-size:15px;font-style:normal;font-weight:600;text-anchor:end;" transform="rotate(-0, 64.771875, 241.350406)" x="64.771875" y="241.350406">0.5</text>
     </g>
    </g>
    <g id="ytick_3">
     <g id="line2d_8">
      <g>
       <use style="fill:#262626;stroke:#262626;stroke-width:0.8;" x="71.771875" xlink:href="#ma639be40f8" y="198.020763"/>
      </g>
     </g>
     <g id="text_9">
      <text style="fill:#262626;font-family:Lato;font-size:15px;font-style:normal;font-weight:600;text-anchor:end;" transform="rotate(-0, 64.771875, 203.593028)" x="64.771875" y="203.593028">1.0</text>
     </g>
    </g>
    <g id="ytick_4">
     <g id="line2d_9">
      <g>
       <use style="fill:#262626;stroke:#262626;stroke-width:0.8;" x="71.771875" xlink:href="#ma639be40f8" y="160.263385"/>
      </g>
     </g>
     <g id="text_10">
      <text style="fill:#262626;font-family:Lato;font-size:15px;font-style:normal;font-weight:600;text-anchor:end;" transform="rotate(-0, 64.771875, 165.835651)" x="64.771875" y="165.835651">1.5</text>
     </g>
    </g>
    <g id="ytick_5">
     <g id="line2d_10">
      <g>
       <use style="fill:#262626;stroke:#262626;stroke-width:0.8;" x="71.771875" xlink:href="#ma639be40f8" y="122.506008"/>
      </g>
     </g>
     <g id="text_11">
      <text style="fill:#262626;font-family:Lato;font-size:15px;font-style:normal;font-weight:600;text-anchor:end;" transform="rotate(-0, 64.771875, 128.078273)" x="64.771875" y="128.078273">2.0</text>
     </g>
    </g>
    <g id="ytick_6">
     <g id="line2d_11">
      <g>
       <use style="fill:#262626;stroke:#262626;stroke-width:0.8;" x="71.771875" xlink:href="#ma639be40f8" y="84.74863"/>
      </g>
     </g>
     <g id="text_12">
      <text style="fill:#262626;font-family:Lato;font-size:15px;font-style:normal;font-weight:600;text-anchor:end;" transform="rotate(-0, 64.771875, 90.320896)" x="64.771875" y="90.320896">2.5</text>
     </g>
    </g>
    <g id="ytick_7">
     <g id="line2d_12">
      <g>
       <use style="fill:#262626;stroke:#262626;stroke-width:0.8;" x="71.771875" xlink:href="#ma639be40f8" y="46.991253"/>
      </g>
     </g>
     <g id="text_13">
      <text style="fill:#262626;font-family:Lato;font-size:15px;font-style:normal;font-weight:600;text-anchor:end;" transform="rotate(-0, 64.771875, 52.563518)" x="64.771875" y="52.563518">3.0</text>
     </g>
    </g>
    <g id="text_14">
     <text style="fill:#262626;font-family:Lato;font-size:20px;font-style:normal;font-weight:600;text-anchor:middle;" transform="rotate(-90, 36.459375, 159.6375)" x="36.459375" y="159.6375">AA lb index</text>
    </g>
   </g>
   <g id="line2d_13">
    <path clip-path="url(#p44b64806eb)" d="M 340.161443 271.710844 
" style="fill:none;stroke:#808080;stroke-linecap:round;stroke-opacity:0.65;stroke-width:1.5;"/>
    <defs>
     <path d="M 0 3.75 
C 0.994512 3.75 1.948425 3.354876 2.65165 2.65165 
C 3.354876 1.948425 3.75 0.994512 3.75 0 
C 3.75 -0.994512 3.354876 -1.948425 2.65165 -2.65165 
C 1.948425 -3.354876 0.994512 -3.75 0 -3.75 
C -0.994512 -3.75 -1.948425 -3.354876 -2.65165 -2.65165 
C -3.354876 -1.948425 -3.75 -0.994512 -3.75 0 
C -3.75 0.994512 -3.354876 1.948425 -2.65165 2.65165 
C -1.948425 3.354876 -0.994512 3.75 0 3.75 
z
" id="mcd7c0d1e81" style="stroke:#808080;stroke-opacity:0.65;"/>
    </defs>
    <g clip-path="url(#p44b64806eb)">
     <use style="fill:#808080;fill-opacity:0.65;stroke:#808080;stroke-opacity:0.65;" x="340.161443" xlink:href="#mcd7c0d1e81" y="271.710844"/>
    </g>
   </g>
   <g id="line2d_14">
    <path clip-path="url(#p44b64806eb)" d="M 335.504112 218.168948 
" style="fill:none;stroke:#808080;stroke-linecap:round;stroke-opacity:0.65;stroke-width:1.5;"/>
    <g clip-path="url(#p44b64806eb)">
     <use style="fill:#808080;fill-opacity:0.65;stroke:#808080;stroke-opacity:0.65;" x="335.504112" xlink:href="#mcd7c0d1e81" y="218.168948"/>
    </g>
   </g>
   <g id="line2d_15">
    <path clip-path="url(#p44b64806eb)" d="M 415.507151 56.587774 
" style="fill:none;stroke:#24858d;stroke-linecap:round;stroke-opacity:0.65;stroke-width:1.5;"/>
    <defs>
     <path d="M 0 3.75 
C 0.994512 3.75 1.948425 3.354876 2.65165 2.65165 
C 3.354876 1.948425 3.75 0.994512 3.75 0 
C 3.75 -0.994512 3.354876 -1.948425 2.65165 -2.65165 
C 1.948425 -3.354876 0.994512 -3.75 0 -3.75 
C -0.994512 -3.75 -1.948425 -3.354876 -2.65165 -2.65165 
C -3.354876 -1.948425 -3.75 -0.994512 -3.75 0 
C -3.75 0.994512 -3.354876 1.948425 -2.65165 2.65165 
C -1.948425 3.354876 -0.994512 3.75 0 3.75 
z
" id="m3dcc425eda" style="stroke:#24858d;stroke-opacity:0.65;"/>
    </defs>
    <g clip-path="url(#p44b64806eb)">
     <use style="fill:#24858d;fill-opacity:0.65;stroke:#24858d;stroke-opacity:0.65;" x="415.507151" xlink:href="#m3dcc425eda" y="56.587774"/>
    </g>
   </g>
   <g id="line2d_16">
    <path clip-path="url(#p44b64806eb)" d="M 330.535473 124.077822 
" style="fill:none;stroke:#808080;stroke-linecap:round;stroke-opacity:0.65;stroke-width:1.5;"/>
    <g clip-path="url(#p44b64806eb)">
     <use style="fill:#808080;fill-opacity:0.65;stroke:#808080;stroke-opacity:0.65;" x="330.535473" xlink:href="#mcd7c0d1e81" y="124.077822"/>
    </g>
   </g>
   <g id="line2d_17">
    <path clip-path="url(#p44b64806eb)" d="M 341.602926 218.168948 
" style="fill:none;stroke:#808080;stroke-linecap:round;stroke-opacity:0.65;stroke-width:1.5;"/>
    <g clip-path="url(#p44b64806eb)">
     <use style="fill:#808080;fill-opacity:0.65;stroke:#808080;stroke-opacity:0.65;" x="341.602926" xlink:href="#mcd7c0d1e81" y="218.168948"/>
    </g>
   </g>
   <g id="line2d_18">
    <path clip-path="url(#p44b64806eb)" d="M 78.765463 273.532474 
" style="fill:none;stroke:#808080;stroke-linecap:round;stroke-opacity:0.65;stroke-width:1.5;"/>
    <g clip-path="url(#p44b64806eb)">
     <use style="fill:#808080;fill-opacity:0.65;stroke:#808080;stroke-opacity:0.65;" x="78.765463" xlink:href="#mcd7c0d1e81" y="273.532474"/>
    </g>
   </g>
   <g id="line2d_19">
    <path clip-path="url(#p44b64806eb)" d="M 249.157812 273.373898 
" style="fill:none;stroke:#808080;stroke-linecap:round;stroke-opacity:0.65;stroke-width:1.5;"/>
    <g clip-path="url(#p44b64806eb)">
     <use style="fill:#808080;fill-opacity:0.65;stroke:#808080;stroke-opacity:0.65;" x="249.157812" xlink:href="#mcd7c0d1e81" y="273.373898"/>
    </g>
   </g>
   <g id="line2d_20">
    <path clip-path="url(#p44b64806eb)" d="M 425.985368 56.587774 
" style="fill:none;stroke:#24858d;stroke-linecap:round;stroke-opacity:0.65;stroke-width:1.5;"/>
    <g clip-path="url(#p44b64806eb)">
     <use style="fill:#24858d;fill-opacity:0.65;stroke:#24858d;stroke-opacity:0.65;" x="425.985368" xlink:href="#m3dcc425eda" y="56.587774"/>
    </g>
   </g>
   <g id="line2d_21">
    <path clip-path="url(#p44b64806eb)" d="M 335.475909 124.077822 
" style="fill:none;stroke:#808080;stroke-linecap:round;stroke-opacity:0.65;stroke-width:1.5;"/>
    <g clip-path="url(#p44b64806eb)">
     <use style="fill:#808080;fill-opacity:0.65;stroke:#808080;stroke-opacity:0.65;" x="335.475909" xlink:href="#mcd7c0d1e81" y="124.077822"/>
    </g>
   </g>
   <g id="line2d_22">
    <path clip-path="url(#p44b64806eb)" d="M 421.37247 56.587774 
" style="fill:none;stroke:#23888d;stroke-linecap:round;stroke-opacity:0.65;stroke-width:1.5;"/>
    <defs>
     <path d="M 0 3.75 
C 0.994512 3.75 1.948425 3.354876 2.65165 2.65165 
C 3.354876 1.948425 3.75 0.994512 3.75 0 
C 3.75 -0.994512 3.354876 -1.948425 2.65165 -2.65165 
C 1.948425 -3.354876 0.994512 -3.75 0 -3.75 
C -0.994512 -3.75 -1.948425 -3.354876 -2.65165 -2.65165 
C -3.354876 -1.948425 -3.75 -0.994512 -3.75 0 
C -3.75 0.994512 -3.354876 1.948425 -2.65165 2.65165 
C -1.948425 3.354876 -0.994512 3.75 0 3.75 
z
" id="mf335a79b99" style="stroke:#23888d;stroke-opacity:0.65;"/>
    </defs>
    <g clip-path="url(#p44b64806eb)">
     <use style="fill:#23888d;fill-opacity:0.65;stroke:#23888d;stroke-opacity:0.65;" x="421.37247" xlink:href="#mf335a79b99" y="56.587774"/>
    </g>
   </g>
   <g id="line2d_23">
    <path clip-path="url(#p44b64806eb)" d="M 166.30244 273.530974 
" style="fill:none;stroke:#808080;stroke-linecap:round;stroke-opacity:0.65;stroke-width:1.5;"/>
    <g clip-path="url(#p44b64806eb)">
     <use style="fill:#808080;fill-opacity:0.65;stroke:#808080;stroke-opacity:0.65;" x="166.30244" xlink:href="#mcd7c0d1e81" y="273.530974"/>
    </g>
   </g>
   <g id="line2d_24">
    <path clip-path="url(#p44b64806eb)" d="M 417.631234 56.587774 
" style="fill:none;stroke:#414286;stroke-linecap:round;stroke-opacity:0.65;stroke-width:1.5;"/>
    <defs>
     <path d="M 0 3.75 
C 0.994512 3.75 1.948425 3.354876 2.65165 2.65165 
C 3.354876 1.948425 3.75 0.994512 3.75 0 
C 3.75 -0.994512 3.354876 -1.948425 2.65165 -2.65165 
C 1.948425 -3.354876 0.994512 -3.75 0 -3.75 
C -0.994512 -3.75 -1.948425 -3.354876 -2.65165 -2.65165 
C -3.354876 -1.948425 -3.75 -0.994512 -3.75 0 
C -3.75 0.994512 -3.354876 1.948425 -2.65165 2.65165 
C -1.948425 3.354876 -0.994512 3.75 0 3.75 
z
" id="meadedd42e5" style="stroke:#414286;stroke-opacity:0.65;"/>
    </defs>
    <g clip-path="url(#p44b64806eb)">
     <use style="fill:#414286;fill-opacity:0.65;stroke:#414286;stroke-opacity:0.65;" x="417.631234" xlink:href="#meadedd42e5" y="56.587774"/>
    </g>
   </g>
   <g id="line2d_25">
    <path clip-path="url(#p44b64806eb)" d="M 425.848682 56.587774 
" style="fill:none;stroke:#808080;stroke-linecap:round;stroke-opacity:0.65;stroke-width:1.5;"/>
    <g clip-path="url(#p44b64806eb)">
     <use style="fill:#808080;fill-opacity:0.65;stroke:#808080;stroke-opacity:0.65;" x="425.848682" xlink:href="#mcd7c0d1e81" y="56.587774"/>
    </g>
   </g>
   <g id="line2d_26">
    <path clip-path="url(#p44b64806eb)" d="M 159.497599 273.530974 
" style="fill:none;stroke:#808080;stroke-linecap:round;stroke-opacity:0.65;stroke-width:1.5;"/>
    <g clip-path="url(#p44b64806eb)">
     <use style="fill:#808080;fill-opacity:0.65;stroke:#808080;stroke-opacity:0.65;" x="159.497599" xlink:href="#mcd7c0d1e81" y="273.530974"/>
    </g>
   </g>
   <g id="line2d_27">
    <path clip-path="url(#p44b64806eb)" d="M 338.879037 124.077822 
" style="fill:none;stroke:#fde724;stroke-linecap:round;stroke-opacity:0.65;stroke-width:1.5;"/>
    <defs>
     <path d="M 0 3.75 
C 0.994512 3.75 1.948425 3.354876 2.65165 2.65165 
C 3.354876 1.948425 3.75 0.994512 3.75 0 
C 3.75 -0.994512 3.354876 -1.948425 2.65165 -2.65165 
C 1.948425 -3.354876 0.994512 -3.75 0 -3.75 
C -0.994512 -3.75 -1.948425 -3.354876 -2.65165 -2.65165 
C -3.354876 -1.948425 -3.75 -0.994512 -3.75 0 
C -3.75 0.994512 -3.354876 1.948425 -2.65165 2.65165 
C -1.948425 3.354876 -0.994512 3.75 0 3.75 
z
" id="mf933273d97" style="stroke:#fde724;stroke-opacity:0.65;"/>
    </defs>
    <g clip-path="url(#p44b64806eb)">
     <use style="fill:#fde724;fill-opacity:0.65;stroke:#fde724;stroke-opacity:0.65;" x="338.879037" xlink:href="#mf933273d97" y="124.077822"/>
    </g>
   </g>
   <g id="line2d_28">
    <path clip-path="url(#p44b64806eb)" d="M 256.84149 273.373898 
" style="fill:none;stroke:#808080;stroke-linecap:round;stroke-opacity:0.65;stroke-width:1.5;"/>
    <g clip-path="url(#p44b64806eb)">
     <use style="fill:#808080;fill-opacity:0.65;stroke:#808080;stroke-opacity:0.65;" x="256.84149" xlink:href="#mcd7c0d1e81" y="273.373898"/>
    </g>
   </g>
   <g id="line2d_29">
    <path clip-path="url(#p44b64806eb)" d="M 423.376101 196.485746 
" style="fill:none;stroke:#808080;stroke-linecap:round;stroke-opacity:0.65;stroke-width:1.5;"/>
    <g clip-path="url(#p44b64806eb)">
     <use style="fill:#808080;fill-opacity:0.65;stroke:#808080;stroke-opacity:0.65;" x="423.376101" xlink:href="#mcd7c0d1e81" y="196.485746"/>
    </g>
   </g>
   <g id="line2d_30">
    <path clip-path="url(#p44b64806eb)" d="M 342.162761 124.077822 
" style="fill:none;stroke:#808080;stroke-linecap:round;stroke-opacity:0.65;stroke-width:1.5;"/>
    <g clip-path="url(#p44b64806eb)">
     <use style="fill:#808080;fill-opacity:0.65;stroke:#808080;stroke-opacity:0.65;" x="342.162761" xlink:href="#mcd7c0d1e81" y="124.077822"/>
    </g>
   </g>
   <g id="line2d_31">
    <path clip-path="url(#p44b64806eb)" d="M 342.843625 267.77752 
" style="fill:none;stroke:#443982;stroke-linecap:round;stroke-opacity:0.65;stroke-width:1.5;"/>
    <defs>
     <path d="M 0 3.75 
C 0.994512 3.75 1.948425 3.354876 2.65165 2.65165 
C 3.354876 1.948425 3.75 0.994512 3.75 0 
C 3.75 -0.994512 3.354876 -1.948425 2.65165 -2.65165 
C 1.948425 -3.354876 0.994512 -3.75 0 -3.75 
C -0.994512 -3.75 -1.948425 -3.354876 -2.65165 -2.65165 
C -3.354876 -1.948425 -3.75 -0.994512 -3.75 0 
C -3.75 0.994512 -3.354876 1.948425 -2.65165 2.65165 
C -1.948425 3.354876 -0.994512 3.75 0 3.75 
z
" id="me84325aa79" style="stroke:#443982;stroke-opacity:0.65;"/>
    </defs>
    <g clip-path="url(#p44b64806eb)">
     <use style="fill:#443982;fill-opacity:0.65;stroke:#443982;stroke-opacity:0.65;" x="342.843625" xlink:href="#me84325aa79" y="267.77752"/>
    </g>
   </g>
   <g id="line2d_32">
    <path clip-path="url(#p44b64806eb)" d="M 334.1789 267.77752 
" style="fill:none;stroke:#808080;stroke-linecap:round;stroke-opacity:0.65;stroke-width:1.5;"/>
    <g clip-path="url(#p44b64806eb)">
     <use style="fill:#808080;fill-opacity:0.65;stroke:#808080;stroke-opacity:0.65;" x="334.1789" xlink:href="#mcd7c0d1e81" y="267.77752"/>
    </g>
   </g>
   <g id="line2d_33">
    <path clip-path="url(#p44b64806eb)" d="M 421.340668 56.587774 
" style="fill:none;stroke:#808080;stroke-linecap:round;stroke-opacity:0.65;stroke-width:1.5;"/>
    <g clip-path="url(#p44b64806eb)">
     <use style="fill:#808080;fill-opacity:0.65;stroke:#808080;stroke-opacity:0.65;" x="421.340668" xlink:href="#mcd7c0d1e81" y="56.587774"/>
    </g>
   </g>
   <g id="line2d_34">
    <path clip-path="url(#p44b64806eb)" d="M 343.515236 124.077822 
" style="fill:none;stroke:#808080;stroke-linecap:round;stroke-opacity:0.65;stroke-width:1.5;"/>
    <g clip-path="url(#p44b64806eb)">
     <use style="fill:#808080;fill-opacity:0.65;stroke:#808080;stroke-opacity:0.65;" x="343.515236" xlink:href="#mcd7c0d1e81" y="124.077822"/>
    </g>
   </g>
   <g id="line2d_35">
    <path clip-path="url(#p44b64806eb)" d="M 330.428948 218.168948 
" style="fill:none;stroke:#808080;stroke-linecap:round;stroke-opacity:0.65;stroke-width:1.5;"/>
    <g clip-path="url(#p44b64806eb)">
     <use style="fill:#808080;fill-opacity:0.65;stroke:#808080;stroke-opacity:0.65;" x="330.428948" xlink:href="#mcd7c0d1e81" y="218.168948"/>
    </g>
   </g>
   <g id="line2d_36">
    <path clip-path="url(#p44b64806eb)" d="M 343.559652 124.077822 
" style="fill:none;stroke:#808080;stroke-linecap:round;stroke-opacity:0.65;stroke-width:1.5;"/>
    <g clip-path="url(#p44b64806eb)">
     <use style="fill:#808080;fill-opacity:0.65;stroke:#808080;stroke-opacity:0.65;" x="343.559652" xlink:href="#mcd7c0d1e81" y="124.077822"/>
    </g>
   </g>
   <g id="line2d_37">
    <path clip-path="url(#p44b64806eb)" d="M 339.061698 227.359905 
" style="fill:none;stroke:#25828e;stroke-linecap:round;stroke-opacity:0.65;stroke-width:1.5;"/>
    <defs>
     <path d="M 0 3.75 
C 0.994512 3.75 1.948425 3.354876 2.65165 2.65165 
C 3.354876 1.948425 3.75 0.994512 3.75 0 
C 3.75 -0.994512 3.354876 -1.948425 2.65165 -2.65165 
C 1.948425 -3.354876 0.994512 -3.75 0 -3.75 
C -0.994512 -3.75 -1.948425 -3.354876 -2.65165 -2.65165 
C -3.354876 -1.948425 -3.75 -0.994512 -3.75 0 
C -3.75 0.994512 -3.354876 1.948425 -2.65165 2.65165 
C -1.948425 3.354876 -0.994512 3.75 0 3.75 
z
" id="mb39f47c13a" style="stroke:#25828e;stroke-opacity:0.65;"/>
    </defs>
    <g clip-path="url(#p44b64806eb)">
     <use style="fill:#25828e;fill-opacity:0.65;stroke:#25828e;stroke-opacity:0.65;" x="339.061698" xlink:href="#mb39f47c13a" y="227.359905"/>
    </g>
   </g>
   <g id="line2d_38">
    <path clip-path="url(#p44b64806eb)" d="M 247.286302 273.373898 
" style="fill:none;stroke:#808080;stroke-linecap:round;stroke-opacity:0.65;stroke-width:1.5;"/>
    <g clip-path="url(#p44b64806eb)">
     <use style="fill:#808080;fill-opacity:0.65;stroke:#808080;stroke-opacity:0.65;" x="247.286302" xlink:href="#mcd7c0d1e81" y="273.373898"/>
    </g>
   </g>
   <g id="line2d_39">
    <path clip-path="url(#p44b64806eb)" d="M 421.857662 56.587774 
" style="fill:none;stroke:#24858d;stroke-linecap:round;stroke-opacity:0.65;stroke-width:1.5;"/>
    <g clip-path="url(#p44b64806eb)">
     <use style="fill:#24858d;fill-opacity:0.65;stroke:#24858d;stroke-opacity:0.65;" x="421.857662" xlink:href="#m3dcc425eda" y="56.587774"/>
    </g>
   </g>
   <g id="line2d_40">
    <path clip-path="url(#p44b64806eb)" d="M 336.512713 124.077822 
" style="fill:none;stroke:#808080;stroke-linecap:round;stroke-opacity:0.65;stroke-width:1.5;"/>
    <g clip-path="url(#p44b64806eb)">
     <use style="fill:#808080;fill-opacity:0.65;stroke:#808080;stroke-opacity:0.65;" x="336.512713" xlink:href="#mcd7c0d1e81" y="124.077822"/>
    </g>
   </g>
   <g id="line2d_41">
    <path clip-path="url(#p44b64806eb)" d="M 419.474776 56.587774 
" style="fill:none;stroke:#808080;stroke-linecap:round;stroke-opacity:0.65;stroke-width:1.5;"/>
    <g clip-path="url(#p44b64806eb)">
     <use style="fill:#808080;fill-opacity:0.65;stroke:#808080;stroke-opacity:0.65;" x="419.474776" xlink:href="#mcd7c0d1e81" y="56.587774"/>
    </g>
   </g>
   <g id="line2d_42">
    <path clip-path="url(#p44b64806eb)" d="M 421.851807 196.485746 
" style="fill:none;stroke:#808080;stroke-linecap:round;stroke-opacity:0.65;stroke-width:1.5;"/>
    <g clip-path="url(#p44b64806eb)">
     <use style="fill:#808080;fill-opacity:0.65;stroke:#808080;stroke-opacity:0.65;" x="421.851807" xlink:href="#mcd7c0d1e81" y="196.485746"/>
    </g>
   </g>
   <g id="line2d_43">
    <path clip-path="url(#p44b64806eb)" d="M 339.230807 218.168948 
" style="fill:none;stroke:#808080;stroke-linecap:round;stroke-opacity:0.65;stroke-width:1.5;"/>
    <g clip-path="url(#p44b64806eb)">
     <use style="fill:#808080;fill-opacity:0.65;stroke:#808080;stroke-opacity:0.65;" x="339.230807" xlink:href="#mcd7c0d1e81" y="218.168948"/>
    </g>
   </g>
   <g id="line2d_44">
    <path clip-path="url(#p44b64806eb)" d="M 423.320509 56.587774 
" style="fill:none;stroke:#808080;stroke-linecap:round;stroke-opacity:0.65;stroke-width:1.5;"/>
    <g clip-path="url(#p44b64806eb)">
     <use style="fill:#808080;fill-opacity:0.65;stroke:#808080;stroke-opacity:0.65;" x="423.320509" xlink:href="#mcd7c0d1e81" y="56.587774"/>
    </g>
   </g>
   <g id="line2d_45">
    <path clip-path="url(#p44b64806eb)" d="M 421.355905 56.587774 
" style="fill:none;stroke:#2c718e;stroke-linecap:round;stroke-opacity:0.65;stroke-width:1.5;"/>
    <defs>
     <path d="M 0 3.75 
C 0.994512 3.75 1.948425 3.354876 2.65165 2.65165 
C 3.354876 1.948425 3.75 0.994512 3.75 0 
C 3.75 -0.994512 3.354876 -1.948425 2.65165 -2.65165 
C 1.948425 -3.354876 0.994512 -3.75 0 -3.75 
C -0.994512 -3.75 -1.948425 -3.354876 -2.65165 -2.65165 
C -3.354876 -1.948425 -3.75 -0.994512 -3.75 0 
C -3.75 0.994512 -3.354876 1.948425 -2.65165 2.65165 
C -1.948425 3.354876 -0.994512 3.75 0 3.75 
z
" id="m2666c70083" style="stroke:#2c718e;stroke-opacity:0.65;"/>
    </defs>
    <g clip-path="url(#p44b64806eb)">
     <use style="fill:#2c718e;fill-opacity:0.65;stroke:#2c718e;stroke-opacity:0.65;" x="421.355905" xlink:href="#m2666c70083" y="56.587774"/>
    </g>
   </g>
   <g id="line2d_46">
    <path clip-path="url(#p44b64806eb)" d="M 253.143325 273.484486 
" style="fill:none;stroke:#808080;stroke-linecap:round;stroke-opacity:0.65;stroke-width:1.5;"/>
    <g clip-path="url(#p44b64806eb)">
     <use style="fill:#808080;fill-opacity:0.65;stroke:#808080;stroke-opacity:0.65;" x="253.143325" xlink:href="#mcd7c0d1e81" y="273.484486"/>
    </g>
   </g>
   <g id="line2d_47">
    <path clip-path="url(#p44b64806eb)" d="M 340.606644 218.168948 
" style="fill:none;stroke:#26808e;stroke-linecap:round;stroke-opacity:0.65;stroke-width:1.5;"/>
    <defs>
     <path d="M 0 3.75 
C 0.994512 3.75 1.948425 3.354876 2.65165 2.65165 
C 3.354876 1.948425 3.75 0.994512 3.75 0 
C 3.75 -0.994512 3.354876 -1.948425 2.65165 -2.65165 
C 1.948425 -3.354876 0.994512 -3.75 0 -3.75 
C -0.994512 -3.75 -1.948425 -3.354876 -2.65165 -2.65165 
C -3.354876 -1.948425 -3.75 -0.994512 -3.75 0 
C -3.75 0.994512 -3.354876 1.948425 -2.65165 2.65165 
C -1.948425 3.354876 -0.994512 3.75 0 3.75 
z
" id="ma320271588" style="stroke:#26808e;stroke-opacity:0.65;"/>
    </defs>
    <g clip-path="url(#p44b64806eb)">
     <use style="fill:#26808e;fill-opacity:0.65;stroke:#26808e;stroke-opacity:0.65;" x="340.606644" xlink:href="#ma320271588" y="218.168948"/>
    </g>
   </g>
   <g id="line2d_48">
    <path clip-path="url(#p44b64806eb)" d="M 159.413622 273.427248 
" style="fill:none;stroke:#808080;stroke-linecap:round;stroke-opacity:0.65;stroke-width:1.5;"/>
    <g clip-path="url(#p44b64806eb)">
     <use style="fill:#808080;fill-opacity:0.65;stroke:#808080;stroke-opacity:0.65;" x="159.413622" xlink:href="#mcd7c0d1e81" y="273.427248"/>
    </g>
   </g>
   <g id="line2d_49">
    <path clip-path="url(#p44b64806eb)" d="M 246.975117 269.675047 
" style="fill:none;stroke:#808080;stroke-linecap:round;stroke-opacity:0.65;stroke-width:1.5;"/>
    <g clip-path="url(#p44b64806eb)">
     <use style="fill:#808080;fill-opacity:0.65;stroke:#808080;stroke-opacity:0.65;" x="246.975117" xlink:href="#mcd7c0d1e81" y="269.675047"/>
    </g>
   </g>
   <g id="line2d_50">
    <path clip-path="url(#p44b64806eb)" d="M 422.80083 56.587774 
" style="fill:none;stroke:#24858d;stroke-linecap:round;stroke-opacity:0.65;stroke-width:1.5;"/>
    <g clip-path="url(#p44b64806eb)">
     <use style="fill:#24858d;fill-opacity:0.65;stroke:#24858d;stroke-opacity:0.65;" x="422.80083" xlink:href="#m3dcc425eda" y="56.587774"/>
    </g>
   </g>
   <g id="line2d_51">
    <path clip-path="url(#p44b64806eb)" d="M 333.002742 271.710844 
" style="fill:none;stroke:#808080;stroke-linecap:round;stroke-opacity:0.65;stroke-width:1.5;"/>
    <g clip-path="url(#p44b64806eb)">
     <use style="fill:#808080;fill-opacity:0.65;stroke:#808080;stroke-opacity:0.65;" x="333.002742" xlink:href="#mcd7c0d1e81" y="271.710844"/>
    </g>
   </g>
   <g id="line2d_52">
    <path clip-path="url(#p44b64806eb)" d="M 81.959709 273.534565 
" style="fill:none;stroke:#808080;stroke-linecap:round;stroke-opacity:0.65;stroke-width:1.5;"/>
    <g clip-path="url(#p44b64806eb)">
     <use style="fill:#808080;fill-opacity:0.65;stroke:#808080;stroke-opacity:0.65;" x="81.959709" xlink:href="#mcd7c0d1e81" y="273.534565"/>
    </g>
   </g>
   <g id="line2d_53">
    <path clip-path="url(#p44b64806eb)" d="M 331.831618 124.077822 
" style="fill:none;stroke:#808080;stroke-linecap:round;stroke-opacity:0.65;stroke-width:1.5;"/>
    <g clip-path="url(#p44b64806eb)">
     <use style="fill:#808080;fill-opacity:0.65;stroke:#808080;stroke-opacity:0.65;" x="331.831618" xlink:href="#mcd7c0d1e81" y="124.077822"/>
    </g>
   </g>
   <g id="line2d_54">
    <path clip-path="url(#p44b64806eb)" d="M 417.885325 56.587774 
" style="fill:none;stroke:#24858d;stroke-linecap:round;stroke-opacity:0.65;stroke-width:1.5;"/>
    <g clip-path="url(#p44b64806eb)">
     <use style="fill:#24858d;fill-opacity:0.65;stroke:#24858d;stroke-opacity:0.65;" x="417.885325" xlink:href="#m3dcc425eda" y="56.587774"/>
    </g>
   </g>
   <g id="line2d_55">
    <path clip-path="url(#p44b64806eb)" d="M 83.333 273.534565 
" style="fill:none;stroke:#808080;stroke-linecap:round;stroke-opacity:0.65;stroke-width:1.5;"/>
    <g clip-path="url(#p44b64806eb)">
     <use style="fill:#808080;fill-opacity:0.65;stroke:#808080;stroke-opacity:0.65;" x="83.333" xlink:href="#mcd7c0d1e81" y="273.534565"/>
    </g>
   </g>
   <g id="line2d_56">
    <path clip-path="url(#p44b64806eb)" d="M 165.11671 273.508892 
" style="fill:none;stroke:#808080;stroke-linecap:round;stroke-opacity:0.65;stroke-width:1.5;"/>
    <g clip-path="url(#p44b64806eb)">
     <use style="fill:#808080;fill-opacity:0.65;stroke:#808080;stroke-opacity:0.65;" x="165.11671" xlink:href="#mcd7c0d1e81" y="273.508892"/>
    </g>
   </g>
   <g id="line2d_57">
    <path clip-path="url(#p44b64806eb)" d="M 256.548674 273.373898 
" style="fill:none;stroke:#808080;stroke-linecap:round;stroke-opacity:0.65;stroke-width:1.5;"/>
    <g clip-path="url(#p44b64806eb)">
     <use style="fill:#808080;fill-opacity:0.65;stroke:#808080;stroke-opacity:0.65;" x="256.548674" xlink:href="#mcd7c0d1e81" y="273.373898"/>
    </g>
   </g>
   <g id="line2d_58">
    <path clip-path="url(#p44b64806eb)" d="M 335.407372 267.77752 
" style="fill:none;stroke:#26818e;stroke-linecap:round;stroke-opacity:0.65;stroke-width:1.5;"/>
    <defs>
     <path d="M 0 3.75 
C 0.994512 3.75 1.948425 3.354876 2.65165 2.65165 
C 3.354876 1.948425 3.75 0.994512 3.75 0 
C 3.75 -0.994512 3.354876 -1.948425 2.65165 -2.65165 
C 1.948425 -3.354876 0.994512 -3.75 0 -3.75 
C -0.994512 -3.75 -1.948425 -3.354876 -2.65165 -2.65165 
C -3.354876 -1.948425 -3.75 -0.994512 -3.75 0 
C -3.75 0.994512 -3.354876 1.948425 -2.65165 2.65165 
C -1.948425 3.354876 -0.994512 3.75 0 3.75 
z
" id="md1928ec315" style="stroke:#26818e;stroke-opacity:0.65;"/>
    </defs>
    <g clip-path="url(#p44b64806eb)">
     <use style="fill:#26818e;fill-opacity:0.65;stroke:#26818e;stroke-opacity:0.65;" x="335.407372" xlink:href="#md1928ec315" y="267.77752"/>
    </g>
   </g>
   <g id="line2d_59">
    <path clip-path="url(#p44b64806eb)" d="M 428.44488 56.587774 
" style="fill:none;stroke:#808080;stroke-linecap:round;stroke-opacity:0.65;stroke-width:1.5;"/>
    <g clip-path="url(#p44b64806eb)">
     <use style="fill:#808080;fill-opacity:0.65;stroke:#808080;stroke-opacity:0.65;" x="428.44488" xlink:href="#mcd7c0d1e81" y="56.587774"/>
    </g>
   </g>
   <g id="line2d_60">
    <path clip-path="url(#p44b64806eb)" d="M 331.555936 124.077822 
" style="fill:none;stroke:#808080;stroke-linecap:round;stroke-opacity:0.65;stroke-width:1.5;"/>
    <g clip-path="url(#p44b64806eb)">
     <use style="fill:#808080;fill-opacity:0.65;stroke:#808080;stroke-opacity:0.65;" x="331.555936" xlink:href="#mcd7c0d1e81" y="124.077822"/>
    </g>
   </g>
   <g id="line2d_61">
    <path clip-path="url(#p44b64806eb)" d="M 331.241503 218.168948 
" style="fill:none;stroke:#808080;stroke-linecap:round;stroke-opacity:0.65;stroke-width:1.5;"/>
    <g clip-path="url(#p44b64806eb)">
     <use style="fill:#808080;fill-opacity:0.65;stroke:#808080;stroke-opacity:0.65;" x="331.241503" xlink:href="#mcd7c0d1e81" y="218.168948"/>
    </g>
   </g>
   <g id="line2d_62">
    <path clip-path="url(#p44b64806eb)" d="M 333.453995 227.359905 
" style="fill:none;stroke:#808080;stroke-linecap:round;stroke-opacity:0.65;stroke-width:1.5;"/>
    <g clip-path="url(#p44b64806eb)">
     <use style="fill:#808080;fill-opacity:0.65;stroke:#808080;stroke-opacity:0.65;" x="333.453995" xlink:href="#mcd7c0d1e81" y="227.359905"/>
    </g>
   </g>
   <g id="line2d_63">
    <path clip-path="url(#p44b64806eb)" d="M 339.590947 124.077822 
" style="fill:none;stroke:#808080;stroke-linecap:round;stroke-opacity:0.65;stroke-width:1.5;"/>
    <g clip-path="url(#p44b64806eb)">
     <use style="fill:#808080;fill-opacity:0.65;stroke:#808080;stroke-opacity:0.65;" x="339.590947" xlink:href="#mcd7c0d1e81" y="124.077822"/>
    </g>
   </g>
   <g id="line2d_64">
    <path clip-path="url(#p44b64806eb)" d="M 170.463874 273.427248 
" style="fill:none;stroke:#808080;stroke-linecap:round;stroke-opacity:0.65;stroke-width:1.5;"/>
    <g clip-path="url(#p44b64806eb)">
     <use style="fill:#808080;fill-opacity:0.65;stroke:#808080;stroke-opacity:0.65;" x="170.463874" xlink:href="#mcd7c0d1e81" y="273.427248"/>
    </g>
   </g>
   <g id="line2d_65">
    <path clip-path="url(#p44b64806eb)" d="M 339.215737 272.578891 
" style="fill:none;stroke:#8bd546;stroke-linecap:round;stroke-opacity:0.65;stroke-width:1.5;"/>
    <defs>
     <path d="M 0 3.75 
C 0.994512 3.75 1.948425 3.354876 2.65165 2.65165 
C 3.354876 1.948425 3.75 0.994512 3.75 0 
C 3.75 -0.994512 3.354876 -1.948425 2.65165 -2.65165 
C 1.948425 -3.354876 0.994512 -3.75 0 -3.75 
C -0.994512 -3.75 -1.948425 -3.354876 -2.65165 -2.65165 
C -3.354876 -1.948425 -3.75 -0.994512 -3.75 0 
C -3.75 0.994512 -3.354876 1.948425 -2.65165 2.65165 
C -1.948425 3.354876 -0.994512 3.75 0 3.75 
z
" id="mef66a0e6f5" style="stroke:#8bd546;stroke-opacity:0.65;"/>
    </defs>
    <g clip-path="url(#p44b64806eb)">
     <use style="fill:#8bd546;fill-opacity:0.65;stroke:#8bd546;stroke-opacity:0.65;" x="339.215737" xlink:href="#mef66a0e6f5" y="272.578891"/>
    </g>
   </g>
   <g id="line2d_66">
    <path clip-path="url(#p44b64806eb)" d="M 339.104878 124.077822 
" style="fill:none;stroke:#808080;stroke-linecap:round;stroke-opacity:0.65;stroke-width:1.5;"/>
    <g clip-path="url(#p44b64806eb)">
     <use style="fill:#808080;fill-opacity:0.65;stroke:#808080;stroke-opacity:0.65;" x="339.104878" xlink:href="#mcd7c0d1e81" y="124.077822"/>
    </g>
   </g>
   <g id="line2d_67">
    <path clip-path="url(#p44b64806eb)" d="M 330.084767 124.077822 
" style="fill:none;stroke:#808080;stroke-linecap:round;stroke-opacity:0.65;stroke-width:1.5;"/>
    <g clip-path="url(#p44b64806eb)">
     <use style="fill:#808080;fill-opacity:0.65;stroke:#808080;stroke-opacity:0.65;" x="330.084767" xlink:href="#mcd7c0d1e81" y="124.077822"/>
    </g>
   </g>
   <g id="line2d_68">
    <path clip-path="url(#p44b64806eb)" d="M 418.556646 56.587774 
" style="fill:none;stroke:#24858d;stroke-linecap:round;stroke-opacity:0.65;stroke-width:1.5;"/>
    <g clip-path="url(#p44b64806eb)">
     <use style="fill:#24858d;fill-opacity:0.65;stroke:#24858d;stroke-opacity:0.65;" x="418.556646" xlink:href="#m3dcc425eda" y="56.587774"/>
    </g>
   </g>
   <g id="line2d_69">
    <path clip-path="url(#p44b64806eb)" d="M 336.08778 218.168948 
" style="fill:none;stroke:#26808e;stroke-linecap:round;stroke-opacity:0.65;stroke-width:1.5;"/>
    <g clip-path="url(#p44b64806eb)">
     <use style="fill:#26808e;fill-opacity:0.65;stroke:#26808e;stroke-opacity:0.65;" x="336.08778" xlink:href="#ma320271588" y="218.168948"/>
    </g>
   </g>
   <g id="line2d_70">
    <path clip-path="url(#p44b64806eb)" d="M 422.683042 272.320481 
" style="fill:none;stroke:#808080;stroke-linecap:round;stroke-opacity:0.65;stroke-width:1.5;"/>
    <g clip-path="url(#p44b64806eb)">
     <use style="fill:#808080;fill-opacity:0.65;stroke:#808080;stroke-opacity:0.65;" x="422.683042" xlink:href="#mcd7c0d1e81" y="272.320481"/>
    </g>
   </g>
   <g id="line2d_71">
    <path clip-path="url(#p44b64806eb)" d="M 332.895858 271.710844 
" style="fill:none;stroke:#808080;stroke-linecap:round;stroke-opacity:0.65;stroke-width:1.5;"/>
    <g clip-path="url(#p44b64806eb)">
     <use style="fill:#808080;fill-opacity:0.65;stroke:#808080;stroke-opacity:0.65;" x="332.895858" xlink:href="#mcd7c0d1e81" y="271.710844"/>
    </g>
   </g>
   <g id="line2d_72">
    <path clip-path="url(#p44b64806eb)" d="M 253.759212 273.373898 
" style="fill:none;stroke:#808080;stroke-linecap:round;stroke-opacity:0.65;stroke-width:1.5;"/>
    <g clip-path="url(#p44b64806eb)">
     <use style="fill:#808080;fill-opacity:0.65;stroke:#808080;stroke-opacity:0.65;" x="253.759212" xlink:href="#mcd7c0d1e81" y="273.373898"/>
    </g>
   </g>
   <g id="line2d_73">
    <path clip-path="url(#p44b64806eb)" d="M 254.513409 269.675047 
" style="fill:none;stroke:#808080;stroke-linecap:round;stroke-opacity:0.65;stroke-width:1.5;"/>
    <g clip-path="url(#p44b64806eb)">
     <use style="fill:#808080;fill-opacity:0.65;stroke:#808080;stroke-opacity:0.65;" x="254.513409" xlink:href="#mcd7c0d1e81" y="269.675047"/>
    </g>
   </g>
   <g id="line2d_74">
    <path clip-path="url(#p44b64806eb)" d="M 428.286278 56.587774 
" style="fill:none;stroke:#24848d;stroke-linecap:round;stroke-opacity:0.65;stroke-width:1.5;"/>
    <defs>
     <path d="M 0 3.75 
C 0.994512 3.75 1.948425 3.354876 2.65165 2.65165 
C 3.354876 1.948425 3.75 0.994512 3.75 0 
C 3.75 -0.994512 3.354876 -1.948425 2.65165 -2.65165 
C 1.948425 -3.354876 0.994512 -3.75 0 -3.75 
C -0.994512 -3.75 -1.948425 -3.354876 -2.65165 -2.65165 
C -3.354876 -1.948425 -3.75 -0.994512 -3.75 0 
C -3.75 0.994512 -3.354876 1.948425 -2.65165 2.65165 
C -1.948425 3.354876 -0.994512 3.75 0 3.75 
z
" id="mb296604eaa" style="stroke:#24848d;stroke-opacity:0.65;"/>
    </defs>
    <g clip-path="url(#p44b64806eb)">
     <use style="fill:#24848d;fill-opacity:0.65;stroke:#24848d;stroke-opacity:0.65;" x="428.286278" xlink:href="#mb296604eaa" y="56.587774"/>
    </g>
   </g>
   <g id="line2d_75">
    <path clip-path="url(#p44b64806eb)" d="M 333.734238 124.077822 
" style="fill:none;stroke:#808080;stroke-linecap:round;stroke-opacity:0.65;stroke-width:1.5;"/>
    <g clip-path="url(#p44b64806eb)">
     <use style="fill:#808080;fill-opacity:0.65;stroke:#808080;stroke-opacity:0.65;" x="333.734238" xlink:href="#mcd7c0d1e81" y="124.077822"/>
    </g>
   </g>
   <g id="line2d_76">
    <path clip-path="url(#p44b64806eb)" d="M 332.279621 271.710844 
" style="fill:none;stroke:#808080;stroke-linecap:round;stroke-opacity:0.65;stroke-width:1.5;"/>
    <g clip-path="url(#p44b64806eb)">
     <use style="fill:#808080;fill-opacity:0.65;stroke:#808080;stroke-opacity:0.65;" x="332.279621" xlink:href="#mcd7c0d1e81" y="271.710844"/>
    </g>
   </g>
   <g id="line2d_77">
    <path clip-path="url(#p44b64806eb)" d="M 168.544701 273.501626 
" style="fill:none;stroke:#808080;stroke-linecap:round;stroke-opacity:0.65;stroke-width:1.5;"/>
    <g clip-path="url(#p44b64806eb)">
     <use style="fill:#808080;fill-opacity:0.65;stroke:#808080;stroke-opacity:0.65;" x="168.544701" xlink:href="#mcd7c0d1e81" y="273.501626"/>
    </g>
   </g>
   <g id="line2d_78">
    <path clip-path="url(#p44b64806eb)" d="M 159.004365 273.530974 
" style="fill:none;stroke:#808080;stroke-linecap:round;stroke-opacity:0.65;stroke-width:1.5;"/>
    <g clip-path="url(#p44b64806eb)">
     <use style="fill:#808080;fill-opacity:0.65;stroke:#808080;stroke-opacity:0.65;" x="159.004365" xlink:href="#mcd7c0d1e81" y="273.530974"/>
    </g>
   </g>
   <g id="line2d_79">
    <path clip-path="url(#p44b64806eb)" d="M 168.961741 273.530974 
" style="fill:none;stroke:#808080;stroke-linecap:round;stroke-opacity:0.65;stroke-width:1.5;"/>
    <g clip-path="url(#p44b64806eb)">
     <use style="fill:#808080;fill-opacity:0.65;stroke:#808080;stroke-opacity:0.65;" x="168.961741" xlink:href="#mcd7c0d1e81" y="273.530974"/>
    </g>
   </g>
   <g id="line2d_80">
    <path clip-path="url(#p44b64806eb)" d="M 427.015348 56.587774 
" style="fill:none;stroke:#24858d;stroke-linecap:round;stroke-opacity:0.65;stroke-width:1.5;"/>
    <g clip-path="url(#p44b64806eb)">
     <use style="fill:#24858d;fill-opacity:0.65;stroke:#24858d;stroke-opacity:0.65;" x="427.015348" xlink:href="#m3dcc425eda" y="56.587774"/>
    </g>
   </g>
   <g id="line2d_81">
    <path clip-path="url(#p44b64806eb)" d="M 330.954585 271.710844 
" style="fill:none;stroke:#808080;stroke-linecap:round;stroke-opacity:0.65;stroke-width:1.5;"/>
    <g clip-path="url(#p44b64806eb)">
     <use style="fill:#808080;fill-opacity:0.65;stroke:#808080;stroke-opacity:0.65;" x="330.954585" xlink:href="#mcd7c0d1e81" y="271.710844"/>
    </g>
   </g>
   <g id="line2d_82">
    <path clip-path="url(#p44b64806eb)" d="M 169.016943 273.530974 
" style="fill:none;stroke:#808080;stroke-linecap:round;stroke-opacity:0.65;stroke-width:1.5;"/>
    <g clip-path="url(#p44b64806eb)">
     <use style="fill:#808080;fill-opacity:0.65;stroke:#808080;stroke-opacity:0.65;" x="169.016943" xlink:href="#mcd7c0d1e81" y="273.530974"/>
    </g>
   </g>
   <g id="line2d_83">
    <path clip-path="url(#p44b64806eb)" d="M 342.580495 255.294836 
" style="fill:none;stroke:#808080;stroke-linecap:round;stroke-opacity:0.65;stroke-width:1.5;"/>
    <g clip-path="url(#p44b64806eb)">
     <use style="fill:#808080;fill-opacity:0.65;stroke:#808080;stroke-opacity:0.65;" x="342.580495" xlink:href="#mcd7c0d1e81" y="255.294836"/>
    </g>
   </g>
   <g id="line2d_84">
    <path clip-path="url(#p44b64806eb)" d="M 426.144541 196.485746 
" style="fill:none;stroke:#808080;stroke-linecap:round;stroke-opacity:0.65;stroke-width:1.5;"/>
    <g clip-path="url(#p44b64806eb)">
     <use style="fill:#808080;fill-opacity:0.65;stroke:#808080;stroke-opacity:0.65;" x="426.144541" xlink:href="#mcd7c0d1e81" y="196.485746"/>
    </g>
   </g>
   <g id="line2d_85">
    <path clip-path="url(#p44b64806eb)" d="M 336.771601 124.077822 
" style="fill:none;stroke:#808080;stroke-linecap:round;stroke-opacity:0.65;stroke-width:1.5;"/>
    <g clip-path="url(#p44b64806eb)">
     <use style="fill:#808080;fill-opacity:0.65;stroke:#808080;stroke-opacity:0.65;" x="336.771601" xlink:href="#mcd7c0d1e81" y="124.077822"/>
    </g>
   </g>
   <g id="line2d_86">
    <path clip-path="url(#p44b64806eb)" d="M 426.274931 196.485746 
" style="fill:none;stroke:#808080;stroke-linecap:round;stroke-opacity:0.65;stroke-width:1.5;"/>
    <g clip-path="url(#p44b64806eb)">
     <use style="fill:#808080;fill-opacity:0.65;stroke:#808080;stroke-opacity:0.65;" x="426.274931" xlink:href="#mcd7c0d1e81" y="196.485746"/>
    </g>
   </g>
   <g id="line2d_87">
    <path clip-path="url(#p44b64806eb)" d="M 422.167327 196.485746 
" style="fill:none;stroke:#808080;stroke-linecap:round;stroke-opacity:0.65;stroke-width:1.5;"/>
    <g clip-path="url(#p44b64806eb)">
     <use style="fill:#808080;fill-opacity:0.65;stroke:#808080;stroke-opacity:0.65;" x="422.167327" xlink:href="#mcd7c0d1e81" y="196.485746"/>
    </g>
   </g>
   <g id="line2d_88">
    <path clip-path="url(#p44b64806eb)" d="M 160.578743 273.427248 
" style="fill:none;stroke:#808080;stroke-linecap:round;stroke-opacity:0.65;stroke-width:1.5;"/>
    <g clip-path="url(#p44b64806eb)">
     <use style="fill:#808080;fill-opacity:0.65;stroke:#808080;stroke-opacity:0.65;" x="160.578743" xlink:href="#mcd7c0d1e81" y="273.427248"/>
    </g>
   </g>
   <g id="line2d_89">
    <path clip-path="url(#p44b64806eb)" d="M 245.124324 273.373898 
" style="fill:none;stroke:#808080;stroke-linecap:round;stroke-opacity:0.65;stroke-width:1.5;"/>
    <g clip-path="url(#p44b64806eb)">
     <use style="fill:#808080;fill-opacity:0.65;stroke:#808080;stroke-opacity:0.65;" x="245.124324" xlink:href="#mcd7c0d1e81" y="273.373898"/>
    </g>
   </g>
   <g id="line2d_90"/>
   <g id="line2d_91"/>
   <g id="line2d_92"/>
   <g id="line2d_93"/>
   <g id="patch_3">
    <path d="M 71.771875 280.042969 
L 71.771875 39.232031 
" style="fill:none;stroke:#262626;stroke-linecap:square;stroke-linejoin:miter;stroke-width:0.8;"/>
   </g>
   <g id="patch_4">
    <path d="M 71.771875 280.042969 
L 435.438469 280.042969 
" style="fill:none;stroke:#262626;stroke-linecap:square;stroke-linejoin:miter;stroke-width:0.8;"/>
   </g>
   <g id="text_15">
    <text style="fill:#262626;font-family:Lato;font-size:15px;font-style:normal;font-weight:bold;text-anchor:middle;" transform="rotate(-0, 253.605172, 33.232031)" x="253.605172" y="33.232031">inferred AA lb index vs aa-cdist (77 observed, 77 total)</text>
   </g>
   <g id="legend_1">
    <g id="patch_5">
     <path d="M 92.355205 147.596953 
L 165.92083 147.596953 
Q 168.32083 147.596953 168.32083 145.196953 
L 168.32083 54.485078 
Q 168.32083 52.085078 165.92083 52.085078 
L 92.355205 52.085078 
Q 89.955205 52.085078 89.955205 54.485078 
L 89.955205 145.196953 
Q 89.955205 147.596953 92.355205 147.596953 
z
" style="fill:#ffffff;opacity:0.8;stroke:#cccccc;stroke-linejoin:miter;"/>
    </g>
    <g id="text_16">
     <text style="fill:#262626;font-family:Lato;font-size:20px;font-style:normal;font-weight:600;text-anchor:start;" transform="rotate(-0, 97.17708, 71.744453)" x="97.17708" y="71.744453">affinity</text>
    </g>
    <g id="line2d_94">
     <path d="M 94.755205 85.810078 
L 118.755205 85.810078 
" style="fill:none;"/>
    </g>
    <g id="line2d_95">
     <g>
      <use style="fill:#443982;fill-opacity:0.65;stroke:#443982;stroke-opacity:0.65;" x="106.755205" xlink:href="#me84325aa79" y="85.810078"/>
     </g>
    </g>
    <g id="text_17">
     <text style="fill:#262626;font-family:Lato;font-size:12px;font-style:normal;font-weight:600;text-anchor:start;" transform="rotate(-0, 128.355205, 90.010078)" x="128.355205" y="90.010078">-0.175</text>
    </g>
    <g id="line2d_96">
     <path d="M 94.755205 102.735703 
L 118.755205 102.735703 
" style="fill:none;"/>
    </g>
    <g id="line2d_97">
     <g>
      <use style="fill:#25828e;fill-opacity:0.65;stroke:#25828e;stroke-opacity:0.65;" x="106.755205" xlink:href="#mb39f47c13a" y="102.735703"/>
     </g>
    </g>
    <g id="text_18">
     <text style="fill:#262626;font-family:Lato;font-size:12px;font-style:normal;font-weight:600;text-anchor:start;" transform="rotate(-0, 128.355205, 106.935703)" x="128.355205" y="106.935703">-0.006</text>
    </g>
    <g id="line2d_98">
     <path d="M 94.755205 119.661328 
L 118.755205 119.661328 
" style="fill:none;"/>
    </g>
    <g id="line2d_99">
     <defs>
      <path d="M 0 3.75 
C 0.994512 3.75 1.948425 3.354876 2.65165 2.65165 
C 3.354876 1.948425 3.75 0.994512 3.75 0 
C 3.75 -0.994512 3.354876 -1.948425 2.65165 -2.65165 
C 1.948425 -3.354876 0.994512 -3.75 0 -3.75 
C -0.994512 -3.75 -1.948425 -3.354876 -2.65165 -2.65165 
C -3.354876 -1.948425 -3.75 -0.994512 -3.75 0 
C -3.75 0.994512 -3.354876 1.948425 -2.65165 2.65165 
C -1.948425 3.354876 -0.994512 3.75 0 3.75 
z
" id="m6f63615812" style="stroke:#4dc26b;stroke-opacity:0.65;"/>
     </defs>
     <g>
      <use style="fill:#4dc26b;fill-opacity:0.65;stroke:#4dc26b;stroke-opacity:0.65;" x="106.755205" xlink:href="#m6f63615812" y="119.661328"/>
     </g>
    </g>
    <g id="text_19">
     <text style="fill:#262626;font-family:Lato;font-size:12px;font-style:normal;font-weight:600;text-anchor:start;" transform="rotate(-0, 128.355205, 123.861328)" x="128.355205" y="123.861328">0.162</text>
    </g>
    <g id="line2d_100">
     <path d="M 94.755205 136.586953 
L 118.755205 136.586953 
" style="fill:none;"/>
    </g>
    <g id="line2d_101">
     <g>
      <use style="fill:#fde724;fill-opacity:0.65;stroke:#fde724;stroke-opacity:0.65;" x="106.755205" xlink:href="#mf933273d97" y="136.586953"/>
     </g>
    </g>
    <g id="text_20">
     <text style="fill:#262626;font-family:Lato;font-size:12px;font-style:normal;font-weight:600;text-anchor:start;" transform="rotate(-0, 128.355205, 140.786953)" x="128.355205" y="140.786953">0.331</text>
    </g>
   </g>
  </g>
  <g id="text_21">
   <text style="fill:#262626;font-family:Lato;font-size:20px;font-style:normal;font-weight:bold;text-anchor:start;" transform="rotate(-0, 92.16, 58.752)" x="92.16" y="58.752">r = 0.703</text>
  </g>
 </g>
 <defs>
  <clipPath id="p44b64806eb">
   <rect height="240.810937" width="363.666594" x="71.771875" y="39.232031"/>
  </clipPath>
 </defs>
</svg>
