<?xml version="1.0" encoding="utf-8" standalone="no"?>
<!DOCTYPE svg PUBLIC "-//W3C//DTD SVG 1.1//EN"
  "http://www.w3.org/Graphics/SVG/1.1/DTD/svg11.dtd">
<!-- Created with matplotlib (http://matplotlib.org/) -->
<svg height="345.6pt" version="1.1" viewBox="0 0 460.8 345.6" width="460.8pt" xmlns="http://www.w3.org/2000/svg" xmlns:xlink="http://www.w3.org/1999/xlink">
 <defs>
  <style type="text/css">
*{stroke-linecap:butt;stroke-linejoin:round;}
  </style>
 </defs>
 <g id="figure_1">
  <g id="patch_1">
   <path d="M 0 345.6 
L 460.8 345.6 
L 460.8 0 
L 0 0 
z
" style="fill:#ffffff;"/>
  </g>
  <g id="axes_1">
   <g id="patch_2">
    <path d="M 71.771875 280.042969 
L 435.438469 280.042969 
L 435.438469 39.232031 
L 71.771875 39.232031 
z
" style="fill:#ffffff;"/>
   </g>
   <g id="matplotlib.axis_1">
    <g id="xtick_1">
     <g id="line2d_1">
      <defs>
       <path d="M 0 0 
L 0 3.5 
" id="m4b4048a993" style="stroke:#262626;stroke-width:0.8;"/>
      </defs>
      <g>
       <use style="fill:#262626;stroke:#262626;stroke-width:0.8;" x="83.637369" xlink:href="#m4b4048a993" y="280.042969"/>
      </g>
     </g>
     <g id="text_1">
      <text style="fill:#262626;font-family:Lato;font-size:15px;font-style:normal;font-weight:600;text-anchor:middle;" transform="rotate(-0, 83.637369, 298.1875)" x="83.637369" y="298.1875">−5</text>
     </g>
    </g>
    <g id="xtick_2">
     <g id="line2d_2">
      <g>
       <use style="fill:#262626;stroke:#262626;stroke-width:0.8;" x="151.626634" xlink:href="#m4b4048a993" y="280.042969"/>
      </g>
     </g>
     <g id="text_2">
      <text style="fill:#262626;font-family:Lato;font-size:15px;font-style:normal;font-weight:600;text-anchor:middle;" transform="rotate(-0, 151.626634, 298.1875)" x="151.626634" y="298.1875">−4</text>
     </g>
    </g>
    <g id="xtick_3">
     <g id="line2d_3">
      <g>
       <use style="fill:#262626;stroke:#262626;stroke-width:0.8;" x="219.615899" xlink:href="#m4b4048a993" y="280.042969"/>
      </g>
     </g>
     <g id="text_3">
      <text style="fill:#262626;font-family:Lato;font-size:15px;font-style:normal;font-weight:600;text-anchor:middle;" transform="rotate(-0, 219.615899, 298.1875)" x="219.615899" y="298.1875">−3</text>
     </g>
    </g>
    <g id="xtick_4">
     <g id="line2d_4">
      <g>
       <use style="fill:#262626;stroke:#262626;stroke-width:0.8;" x="287.605164" xlink:href="#m4b4048a993" y="280.042969"/>
      </g>
     </g>
     <g id="text_4">
      <text style="fill:#262626;font-family:Lato;font-size:15px;font-style:normal;font-weight:600;text-anchor:middle;" transform="rotate(-0, 287.605164, 298.1875)" x="287.605164" y="298.1875">−2</text>
     </g>
    </g>
    <g id="xtick_5">
     <g id="line2d_5">
      <g>
       <use style="fill:#262626;stroke:#262626;stroke-width:0.8;" x="355.594429" xlink:href="#m4b4048a993" y="280.042969"/>
      </g>
     </g>
     <g id="text_5">
      <text style="fill:#262626;font-family:Lato;font-size:15px;font-style:normal;font-weight:600;text-anchor:middle;" transform="rotate(-0, 355.594429, 298.1875)" x="355.594429" y="298.1875">−1</text>
     </g>
    </g>
    <g id="xtick_6">
     <g id="line2d_6">
      <g>
       <use style="fill:#262626;stroke:#262626;stroke-width:0.8;" x="423.583694" xlink:href="#m4b4048a993" y="280.042969"/>
      </g>
     </g>
     <g id="text_6">
      <text style="fill:#262626;font-family:Lato;font-size:15px;font-style:normal;font-weight:600;text-anchor:middle;" transform="rotate(-0, 423.583694, 298.1875)" x="423.583694" y="298.1875">0</text>
     </g>
    </g>
    <g id="text_7">
     <text style="fill:#262626;font-family:Lato;font-size:20px;font-style:normal;font-weight:600;text-anchor:middle;" transform="rotate(-0, 253.605172, 320.4)" x="253.605172" y="320.4">aa-cdist (+jitter)</text>
    </g>
   </g>
   <g id="matplotlib.axis_2">
    <g id="ytick_1">
     <g id="line2d_7">
      <defs>
       <path d="M 0 0 
L -3.5 0 
" id="ma71ca196cd" style="stroke:#262626;stroke-width:0.8;"/>
      </defs>
      <g>
       <use style="fill:#262626;stroke:#262626;stroke-width:0.8;" x="71.771875" xlink:href="#ma71ca196cd" y="273.548079"/>
      </g>
     </g>
     <g id="text_8">
      <text style="fill:#262626;font-family:Lato;font-size:15px;font-style:normal;font-weight:600;text-anchor:end;" transform="rotate(-0, 64.771875, 279.120345)" x="64.771875" y="279.120345">0.0</text>
     </g>
    </g>
    <g id="ytick_2">
     <g id="line2d_8">
      <g>
       <use style="fill:#262626;stroke:#262626;stroke-width:0.8;" x="71.771875" xlink:href="#ma71ca196cd" y="240.879196"/>
      </g>
     </g>
     <g id="text_9">
      <text style="fill:#262626;font-family:Lato;font-size:15px;font-style:normal;font-weight:600;text-anchor:end;" transform="rotate(-0, 64.771875, 246.451461)" x="64.771875" y="246.451461">0.2</text>
     </g>
    </g>
    <g id="ytick_3">
     <g id="line2d_9">
      <g>
       <use style="fill:#262626;stroke:#262626;stroke-width:0.8;" x="71.771875" xlink:href="#ma71ca196cd" y="208.210312"/>
      </g>
     </g>
     <g id="text_10">
      <text style="fill:#262626;font-family:Lato;font-size:15px;font-style:normal;font-weight:600;text-anchor:end;" transform="rotate(-0, 64.771875, 213.782578)" x="64.771875" y="213.782578">0.4</text>
     </g>
    </g>
    <g id="ytick_4">
     <g id="line2d_10">
      <g>
       <use style="fill:#262626;stroke:#262626;stroke-width:0.8;" x="71.771875" xlink:href="#ma71ca196cd" y="175.541429"/>
      </g>
     </g>
     <g id="text_11">
      <text style="fill:#262626;font-family:Lato;font-size:15px;font-style:normal;font-weight:600;text-anchor:end;" transform="rotate(-0, 64.771875, 181.113695)" x="64.771875" y="181.113695">0.6</text>
     </g>
    </g>
    <g id="ytick_5">
     <g id="line2d_11">
      <g>
       <use style="fill:#262626;stroke:#262626;stroke-width:0.8;" x="71.771875" xlink:href="#ma71ca196cd" y="142.872546"/>
      </g>
     </g>
     <g id="text_12">
      <text style="fill:#262626;font-family:Lato;font-size:15px;font-style:normal;font-weight:600;text-anchor:end;" transform="rotate(-0, 64.771875, 148.444811)" x="64.771875" y="148.444811">0.8</text>
     </g>
    </g>
    <g id="ytick_6">
     <g id="line2d_12">
      <g>
       <use style="fill:#262626;stroke:#262626;stroke-width:0.8;" x="71.771875" xlink:href="#ma71ca196cd" y="110.203662"/>
      </g>
     </g>
     <g id="text_13">
      <text style="fill:#262626;font-family:Lato;font-size:15px;font-style:normal;font-weight:600;text-anchor:end;" transform="rotate(-0, 64.771875, 115.775928)" x="64.771875" y="115.775928">1.0</text>
     </g>
    </g>
    <g id="ytick_7">
     <g id="line2d_13">
      <g>
       <use style="fill:#262626;stroke:#262626;stroke-width:0.8;" x="71.771875" xlink:href="#ma71ca196cd" y="77.534779"/>
      </g>
     </g>
     <g id="text_14">
      <text style="fill:#262626;font-family:Lato;font-size:15px;font-style:normal;font-weight:600;text-anchor:end;" transform="rotate(-0, 64.771875, 83.107045)" x="64.771875" y="83.107045">1.2</text>
     </g>
    </g>
    <g id="ytick_8">
     <g id="line2d_14">
      <g>
       <use style="fill:#262626;stroke:#262626;stroke-width:0.8;" x="71.771875" xlink:href="#ma71ca196cd" y="44.865896"/>
      </g>
     </g>
     <g id="text_15">
      <text style="fill:#262626;font-family:Lato;font-size:15px;font-style:normal;font-weight:600;text-anchor:end;" transform="rotate(-0, 64.771875, 50.438161)" x="64.771875" y="50.438161">1.4</text>
     </g>
    </g>
    <g id="text_16">
     <text style="fill:#262626;font-family:Lato;font-size:20px;font-style:normal;font-weight:600;text-anchor:middle;" transform="rotate(-90, 36.459375, 159.6375)" x="36.459375" y="159.6375">AA lb index</text>
    </g>
   </g>
   <g id="line2d_15">
    <path clip-path="url(#p2d2462a044)" d="M 353.004682 241.924426 
" style="fill:none;stroke:#7cd24f;stroke-linecap:round;stroke-opacity:0.65;stroke-width:1.5;"/>
    <defs>
     <path d="M 0 3.75 
C 0.994512 3.75 1.948425 3.354876 2.65165 2.65165 
C 3.354876 1.948425 3.75 0.994512 3.75 0 
C 3.75 -0.994512 3.354876 -1.948425 2.65165 -2.65165 
C 1.948425 -3.354876 0.994512 -3.75 0 -3.75 
C -0.994512 -3.75 -1.948425 -3.354876 -2.65165 -2.65165 
C -3.354876 -1.948425 -3.75 -0.994512 -3.75 0 
C -3.75 0.994512 -3.354876 1.948425 -2.65165 2.65165 
C -1.948425 3.354876 -0.994512 3.75 0 3.75 
z
" id="m14039cd6db" style="stroke:#7cd24f;stroke-opacity:0.65;"/>
    </defs>
    <g clip-path="url(#p2d2462a044)">
     <use style="fill:#7cd24f;fill-opacity:0.65;stroke:#7cd24f;stroke-opacity:0.65;" x="353.004682" xlink:href="#m14039cd6db" y="241.924426"/>
    </g>
   </g>
   <g id="line2d_16">
    <path clip-path="url(#p2d2462a044)" d="M 349.002336 214.923387 
" style="fill:none;stroke:#cfe11c;stroke-linecap:round;stroke-opacity:0.65;stroke-width:1.5;"/>
    <defs>
     <path d="M 0 3.75 
C 0.994512 3.75 1.948425 3.354876 2.65165 2.65165 
C 3.354876 1.948425 3.75 0.994512 3.75 0 
C 3.75 -0.994512 3.354876 -1.948425 2.65165 -2.65165 
C 1.948425 -3.354876 0.994512 -3.75 0 -3.75 
C -0.994512 -3.75 -1.948425 -3.354876 -2.65165 -2.65165 
C -3.354876 -1.948425 -3.75 -0.994512 -3.75 0 
C -3.75 0.994512 -3.354876 1.948425 -2.65165 2.65165 
C -1.948425 3.354876 -0.994512 3.75 0 3.75 
z
" id="m62bbd40acf" style="stroke:#cfe11c;stroke-opacity:0.65;"/>
    </defs>
    <g clip-path="url(#p2d2462a044)">
     <use style="fill:#cfe11c;fill-opacity:0.65;stroke:#cfe11c;stroke-opacity:0.65;" x="349.002336" xlink:href="#m62bbd40acf" y="214.923387"/>
    </g>
   </g>
   <g id="line2d_17">
    <path clip-path="url(#p2d2462a044)" d="M 285.217908 273.397935 
" style="fill:none;stroke:#cfe11c;stroke-linecap:round;stroke-opacity:0.65;stroke-width:1.5;"/>
    <g clip-path="url(#p2d2462a044)">
     <use style="fill:#cfe11c;fill-opacity:0.65;stroke:#cfe11c;stroke-opacity:0.65;" x="285.217908" xlink:href="#m62bbd40acf" y="273.397935"/>
    </g>
   </g>
   <g id="line2d_18">
    <path clip-path="url(#p2d2462a044)" d="M 288.910782 272.638783 
" style="fill:none;stroke:#cfe11c;stroke-linecap:round;stroke-opacity:0.65;stroke-width:1.5;"/>
    <g clip-path="url(#p2d2462a044)">
     <use style="fill:#cfe11c;fill-opacity:0.65;stroke:#cfe11c;stroke-opacity:0.65;" x="288.910782" xlink:href="#m62bbd40acf" y="272.638783"/>
    </g>
   </g>
   <g id="line2d_19">
    <path clip-path="url(#p2d2462a044)" d="M 417.840091 56.587774 
" style="fill:none;stroke:#bfdf24;stroke-linecap:round;stroke-opacity:0.65;stroke-width:1.5;"/>
    <defs>
     <path d="M 0 3.75 
C 0.994512 3.75 1.948425 3.354876 2.65165 2.65165 
C 3.354876 1.948425 3.75 0.994512 3.75 0 
C 3.75 -0.994512 3.354876 -1.948425 2.65165 -2.65165 
C 1.948425 -3.354876 0.994512 -3.75 0 -3.75 
C -0.994512 -3.75 -1.948425 -3.354876 -2.65165 -2.65165 
C -3.354876 -1.948425 -3.75 -0.994512 -3.75 0 
C -3.75 0.994512 -3.354876 1.948425 -2.65165 2.65165 
C -1.948425 3.354876 -0.994512 3.75 0 3.75 
z
" id="mf31da5949f" style="stroke:#bfdf24;stroke-opacity:0.65;"/>
    </defs>
    <g clip-path="url(#p2d2462a044)">
     <use style="fill:#bfdf24;fill-opacity:0.65;stroke:#bfdf24;stroke-opacity:0.65;" x="417.840091" xlink:href="#mf31da5949f" y="56.587774"/>
    </g>
   </g>
   <g id="line2d_20">
    <path clip-path="url(#p2d2462a044)" d="M 352.925234 241.924426 
" style="fill:none;stroke:#7cd24f;stroke-linecap:round;stroke-opacity:0.65;stroke-width:1.5;"/>
    <g clip-path="url(#p2d2462a044)">
     <use style="fill:#7cd24f;fill-opacity:0.65;stroke:#7cd24f;stroke-opacity:0.65;" x="352.925234" xlink:href="#m14039cd6db" y="241.924426"/>
    </g>
   </g>
   <g id="line2d_21">
    <path clip-path="url(#p2d2462a044)" d="M 360.433883 241.924426 
" style="fill:none;stroke:#74d054;stroke-linecap:round;stroke-opacity:0.65;stroke-width:1.5;"/>
    <defs>
     <path d="M 0 3.75 
C 0.994512 3.75 1.948425 3.354876 2.65165 2.65165 
C 3.354876 1.948425 3.75 0.994512 3.75 0 
C 3.75 -0.994512 3.354876 -1.948425 2.65165 -2.65165 
C 1.948425 -3.354876 0.994512 -3.75 0 -3.75 
C -0.994512 -3.75 -1.948425 -3.354876 -2.65165 -2.65165 
C -3.354876 -1.948425 -3.75 -0.994512 -3.75 0 
C -3.75 0.994512 -3.354876 1.948425 -2.65165 2.65165 
C -1.948425 3.354876 -0.994512 3.75 0 3.75 
z
" id="m3e7b9f373d" style="stroke:#74d054;stroke-opacity:0.65;"/>
    </defs>
    <g clip-path="url(#p2d2462a044)">
     <use style="fill:#74d054;fill-opacity:0.65;stroke:#74d054;stroke-opacity:0.65;" x="360.433883" xlink:href="#m3e7b9f373d" y="241.924426"/>
    </g>
   </g>
   <g id="line2d_22">
    <path clip-path="url(#p2d2462a044)" d="M 348.909585 268.187073 
" style="fill:none;stroke:#fde724;stroke-linecap:round;stroke-opacity:0.65;stroke-width:1.5;"/>
    <defs>
     <path d="M 0 3.75 
C 0.994512 3.75 1.948425 3.354876 2.65165 2.65165 
C 3.354876 1.948425 3.75 0.994512 3.75 0 
C 3.75 -0.994512 3.354876 -1.948425 2.65165 -2.65165 
C 1.948425 -3.354876 0.994512 -3.75 0 -3.75 
C -0.994512 -3.75 -1.948425 -3.354876 -2.65165 -2.65165 
C -3.354876 -1.948425 -3.75 -0.994512 -3.75 0 
C -3.75 0.994512 -3.354876 1.948425 -2.65165 2.65165 
C -1.948425 3.354876 -0.994512 3.75 0 3.75 
z
" id="m76bec436de" style="stroke:#fde724;stroke-opacity:0.65;"/>
    </defs>
    <g clip-path="url(#p2d2462a044)">
     <use style="fill:#fde724;fill-opacity:0.65;stroke:#fde724;stroke-opacity:0.65;" x="348.909585" xlink:href="#m76bec436de" y="268.187073"/>
    </g>
   </g>
   <g id="line2d_23">
    <path clip-path="url(#p2d2462a044)" d="M 78.765463 273.534565 
" style="fill:none;stroke:#443982;stroke-linecap:round;stroke-opacity:0.65;stroke-width:1.5;"/>
    <defs>
     <path d="M 0 3.75 
C 0.994512 3.75 1.948425 3.354876 2.65165 2.65165 
C 3.354876 1.948425 3.75 0.994512 3.75 0 
C 3.75 -0.994512 3.354876 -1.948425 2.65165 -2.65165 
C 1.948425 -3.354876 0.994512 -3.75 0 -3.75 
C -0.994512 -3.75 -1.948425 -3.354876 -2.65165 -2.65165 
C -3.354876 -1.948425 -3.75 -0.994512 -3.75 0 
C -3.75 0.994512 -3.354876 1.948425 -2.65165 2.65165 
C -1.948425 3.354876 -0.994512 3.75 0 3.75 
z
" id="m62a1aaadaf" style="stroke:#443982;stroke-opacity:0.65;"/>
    </defs>
    <g clip-path="url(#p2d2462a044)">
     <use style="fill:#443982;fill-opacity:0.65;stroke:#443982;stroke-opacity:0.65;" x="78.765463" xlink:href="#m62a1aaadaf" y="273.534565"/>
    </g>
   </g>
   <g id="line2d_24">
    <path clip-path="url(#p2d2462a044)" d="M 289.063379 273.397935 
" style="fill:none;stroke:#cde01d;stroke-linecap:round;stroke-opacity:0.65;stroke-width:1.5;"/>
    <defs>
     <path d="M 0 3.75 
C 0.994512 3.75 1.948425 3.354876 2.65165 2.65165 
C 3.354876 1.948425 3.75 0.994512 3.75 0 
C 3.75 -0.994512 3.354876 -1.948425 2.65165 -2.65165 
C 1.948425 -3.354876 0.994512 -3.75 0 -3.75 
C -0.994512 -3.75 -1.948425 -3.354876 -2.65165 -2.65165 
C -3.354876 -1.948425 -3.75 -0.994512 -3.75 0 
C -3.75 0.994512 -3.354876 1.948425 -2.65165 2.65165 
C -1.948425 3.354876 -0.994512 3.75 0 3.75 
z
" id="mcd9e883507" style="stroke:#cde01d;stroke-opacity:0.65;"/>
    </defs>
    <g clip-path="url(#p2d2462a044)">
     <use style="fill:#cde01d;fill-opacity:0.65;stroke:#cde01d;stroke-opacity:0.65;" x="289.063379" xlink:href="#mcd9e883507" y="273.397935"/>
    </g>
   </g>
   <g id="line2d_25">
    <path clip-path="url(#p2d2462a044)" d="M 225.708339 229.430032 
" style="fill:none;stroke:#22898d;stroke-linecap:round;stroke-opacity:0.65;stroke-width:1.5;"/>
    <defs>
     <path d="M 0 3.75 
C 0.994512 3.75 1.948425 3.354876 2.65165 2.65165 
C 3.354876 1.948425 3.75 0.994512 3.75 0 
C 3.75 -0.994512 3.354876 -1.948425 2.65165 -2.65165 
C 1.948425 -3.354876 0.994512 -3.75 0 -3.75 
C -0.994512 -3.75 -1.948425 -3.354876 -2.65165 -2.65165 
C -3.354876 -1.948425 -3.75 -0.994512 -3.75 0 
C -3.75 0.994512 -3.354876 1.948425 -2.65165 2.65165 
C -1.948425 3.354876 -0.994512 3.75 0 3.75 
z
" id="m4ee687ccd8" style="stroke:#22898d;stroke-opacity:0.65;"/>
    </defs>
    <g clip-path="url(#p2d2462a044)">
     <use style="fill:#22898d;fill-opacity:0.65;stroke:#22898d;stroke-opacity:0.65;" x="225.708339" xlink:href="#m4ee687ccd8" y="229.430032"/>
    </g>
   </g>
   <g id="line2d_26">
    <path clip-path="url(#p2d2462a044)" d="M 292.953887 273.397935 
" style="fill:none;stroke:#92d741;stroke-linecap:round;stroke-opacity:0.65;stroke-width:1.5;"/>
    <defs>
     <path d="M 0 3.75 
C 0.994512 3.75 1.948425 3.354876 2.65165 2.65165 
C 3.354876 1.948425 3.75 0.994512 3.75 0 
C 3.75 -0.994512 3.354876 -1.948425 2.65165 -2.65165 
C 1.948425 -3.354876 0.994512 -3.75 0 -3.75 
C -0.994512 -3.75 -1.948425 -3.354876 -2.65165 -2.65165 
C -3.354876 -1.948425 -3.75 -0.994512 -3.75 0 
C -3.75 0.994512 -3.354876 1.948425 -2.65165 2.65165 
C -1.948425 3.354876 -0.994512 3.75 0 3.75 
z
" id="mea844240c7" style="stroke:#92d741;stroke-opacity:0.65;"/>
    </defs>
    <g clip-path="url(#p2d2462a044)">
     <use style="fill:#92d741;fill-opacity:0.65;stroke:#92d741;stroke-opacity:0.65;" x="292.953887" xlink:href="#mea844240c7" y="273.397935"/>
    </g>
   </g>
   <g id="line2d_27">
    <path clip-path="url(#p2d2462a044)" d="M 218.850292 229.430032 
" style="fill:none;stroke:#22898d;stroke-linecap:round;stroke-opacity:0.65;stroke-width:1.5;"/>
    <g clip-path="url(#p2d2462a044)">
     <use style="fill:#22898d;fill-opacity:0.65;stroke:#22898d;stroke-opacity:0.65;" x="218.850292" xlink:href="#m4ee687ccd8" y="229.430032"/>
    </g>
   </g>
   <g id="line2d_28">
    <path clip-path="url(#p2d2462a044)" d="M 284.65254 273.397935 
" style="fill:none;stroke:#cae01e;stroke-linecap:round;stroke-opacity:0.65;stroke-width:1.5;"/>
    <defs>
     <path d="M 0 3.75 
C 0.994512 3.75 1.948425 3.354876 2.65165 2.65165 
C 3.354876 1.948425 3.75 0.994512 3.75 0 
C 3.75 -0.994512 3.354876 -1.948425 2.65165 -2.65165 
C 1.948425 -3.354876 0.994512 -3.75 0 -3.75 
C -0.994512 -3.75 -1.948425 -3.354876 -2.65165 -2.65165 
C -3.354876 -1.948425 -3.75 -0.994512 -3.75 0 
C -3.75 0.994512 -3.354876 1.948425 -2.65165 2.65165 
C -1.948425 3.354876 -0.994512 3.75 0 3.75 
z
" id="m70ee509e86" style="stroke:#cae01e;stroke-opacity:0.65;"/>
    </defs>
    <g clip-path="url(#p2d2462a044)">
     <use style="fill:#cae01e;fill-opacity:0.65;stroke:#cae01e;stroke-opacity:0.65;" x="284.65254" xlink:href="#m70ee509e86" y="273.397935"/>
    </g>
   </g>
   <g id="line2d_29">
    <path clip-path="url(#p2d2462a044)" d="M 424.388915 56.587774 
" style="fill:none;stroke:#bdde26;stroke-linecap:round;stroke-opacity:0.65;stroke-width:1.5;"/>
    <defs>
     <path d="M 0 3.75 
C 0.994512 3.75 1.948425 3.354876 2.65165 2.65165 
C 3.354876 1.948425 3.75 0.994512 3.75 0 
C 3.75 -0.994512 3.354876 -1.948425 2.65165 -2.65165 
C 1.948425 -3.354876 0.994512 -3.75 0 -3.75 
C -0.994512 -3.75 -1.948425 -3.354876 -2.65165 -2.65165 
C -3.354876 -1.948425 -3.75 -0.994512 -3.75 0 
C -3.75 0.994512 -3.354876 1.948425 -2.65165 2.65165 
C -1.948425 3.354876 -0.994512 3.75 0 3.75 
z
" id="mf7c2aa099f" style="stroke:#bdde26;stroke-opacity:0.65;"/>
    </defs>
    <g clip-path="url(#p2d2462a044)">
     <use style="fill:#bdde26;fill-opacity:0.65;stroke:#bdde26;stroke-opacity:0.65;" x="424.388915" xlink:href="#mf7c2aa099f" y="56.587774"/>
    </g>
   </g>
   <g id="line2d_30">
    <path clip-path="url(#p2d2462a044)" d="M 352.653539 241.924426 
" style="fill:none;stroke:#c5df21;stroke-linecap:round;stroke-opacity:0.65;stroke-width:1.5;"/>
    <defs>
     <path d="M 0 3.75 
C 0.994512 3.75 1.948425 3.354876 2.65165 2.65165 
C 3.354876 1.948425 3.75 0.994512 3.75 0 
C 3.75 -0.994512 3.354876 -1.948425 2.65165 -2.65165 
C 1.948425 -3.354876 0.994512 -3.75 0 -3.75 
C -0.994512 -3.75 -1.948425 -3.354876 -2.65165 -2.65165 
C -3.354876 -1.948425 -3.75 -0.994512 -3.75 0 
C -3.75 0.994512 -3.354876 1.948425 -2.65165 2.65165 
C -1.948425 3.354876 -0.994512 3.75 0 3.75 
z
" id="ma8a357d0b2" style="stroke:#c5df21;stroke-opacity:0.65;"/>
    </defs>
    <g clip-path="url(#p2d2462a044)">
     <use style="fill:#c5df21;fill-opacity:0.65;stroke:#c5df21;stroke-opacity:0.65;" x="352.653539" xlink:href="#ma8a357d0b2" y="241.924426"/>
    </g>
   </g>
   <g id="line2d_31">
    <path clip-path="url(#p2d2462a044)" d="M 424.185605 56.587774 
" style="fill:none;stroke:#c5df21;stroke-linecap:round;stroke-opacity:0.65;stroke-width:1.5;"/>
    <g clip-path="url(#p2d2462a044)">
     <use style="fill:#c5df21;fill-opacity:0.65;stroke:#c5df21;stroke-opacity:0.65;" x="424.185605" xlink:href="#ma8a357d0b2" y="56.587774"/>
    </g>
   </g>
   <g id="line2d_32">
    <path clip-path="url(#p2d2462a044)" d="M 226.239738 229.430032 
" style="fill:none;stroke:#22898d;stroke-linecap:round;stroke-opacity:0.65;stroke-width:1.5;"/>
    <g clip-path="url(#p2d2462a044)">
     <use style="fill:#22898d;fill-opacity:0.65;stroke:#22898d;stroke-opacity:0.65;" x="226.239738" xlink:href="#m4ee687ccd8" y="229.430032"/>
    </g>
   </g>
   <g id="line2d_33">
    <path clip-path="url(#p2d2462a044)" d="M 420.84373 56.587774 
" style="fill:none;stroke:#bade27;stroke-linecap:round;stroke-opacity:0.65;stroke-width:1.5;"/>
    <defs>
     <path d="M 0 3.75 
C 0.994512 3.75 1.948425 3.354876 2.65165 2.65165 
C 3.354876 1.948425 3.75 0.994512 3.75 0 
C 3.75 -0.994512 3.354876 -1.948425 2.65165 -2.65165 
C 1.948425 -3.354876 0.994512 -3.75 0 -3.75 
C -0.994512 -3.75 -1.948425 -3.354876 -2.65165 -2.65165 
C -3.354876 -1.948425 -3.75 -0.994512 -3.75 0 
C -3.75 0.994512 -3.354876 1.948425 -2.65165 2.65165 
C -1.948425 3.354876 -0.994512 3.75 0 3.75 
z
" id="m3b22f69b4b" style="stroke:#bade27;stroke-opacity:0.65;"/>
    </defs>
    <g clip-path="url(#p2d2462a044)">
     <use style="fill:#bade27;fill-opacity:0.65;stroke:#bade27;stroke-opacity:0.65;" x="420.84373" xlink:href="#m3b22f69b4b" y="56.587774"/>
    </g>
   </g>
   <g id="line2d_34">
    <path clip-path="url(#p2d2462a044)" d="M 217.183853 273.523098 
" style="fill:none;stroke:#bdde26;stroke-linecap:round;stroke-opacity:0.65;stroke-width:1.5;"/>
    <g clip-path="url(#p2d2462a044)">
     <use style="fill:#bdde26;fill-opacity:0.65;stroke:#bdde26;stroke-opacity:0.65;" x="217.183853" xlink:href="#mf7c2aa099f" y="273.523098"/>
    </g>
   </g>
   <g id="line2d_35">
    <path clip-path="url(#p2d2462a044)" d="M 426.040683 56.587774 
" style="fill:none;stroke:#c7e01f;stroke-linecap:round;stroke-opacity:0.65;stroke-width:1.5;"/>
    <defs>
     <path d="M 0 3.75 
C 0.994512 3.75 1.948425 3.354876 2.65165 2.65165 
C 3.354876 1.948425 3.75 0.994512 3.75 0 
C 3.75 -0.994512 3.354876 -1.948425 2.65165 -2.65165 
C 1.948425 -3.354876 0.994512 -3.75 0 -3.75 
C -0.994512 -3.75 -1.948425 -3.354876 -2.65165 -2.65165 
C -3.354876 -1.948425 -3.75 -0.994512 -3.75 0 
C -3.75 0.994512 -3.354876 1.948425 -2.65165 2.65165 
C -1.948425 3.354876 -0.994512 3.75 0 3.75 
z
" id="mb4604f2861" style="stroke:#c7e01f;stroke-opacity:0.65;"/>
    </defs>
    <g clip-path="url(#p2d2462a044)">
     <use style="fill:#c7e01f;fill-opacity:0.65;stroke:#c7e01f;stroke-opacity:0.65;" x="426.040683" xlink:href="#mb4604f2861" y="56.587774"/>
    </g>
   </g>
   <g id="line2d_36">
    <path clip-path="url(#p2d2462a044)" d="M 355.042779 214.143121 
" style="fill:none;stroke:#77d052;stroke-linecap:round;stroke-opacity:0.65;stroke-width:1.5;"/>
    <defs>
     <path d="M 0 3.75 
C 0.994512 3.75 1.948425 3.354876 2.65165 2.65165 
C 3.354876 1.948425 3.75 0.994512 3.75 0 
C 3.75 -0.994512 3.354876 -1.948425 2.65165 -2.65165 
C 1.948425 -3.354876 0.994512 -3.75 0 -3.75 
C -0.994512 -3.75 -1.948425 -3.354876 -2.65165 -2.65165 
C -3.354876 -1.948425 -3.75 -0.994512 -3.75 0 
C -3.75 0.994512 -3.354876 1.948425 -2.65165 2.65165 
C -1.948425 3.354876 -0.994512 3.75 0 3.75 
z
" id="mc95953ade1" style="stroke:#77d052;stroke-opacity:0.65;"/>
    </defs>
    <g clip-path="url(#p2d2462a044)">
     <use style="fill:#77d052;fill-opacity:0.65;stroke:#77d052;stroke-opacity:0.65;" x="355.042779" xlink:href="#mc95953ade1" y="214.143121"/>
    </g>
   </g>
   <g id="line2d_37">
    <path clip-path="url(#p2d2462a044)" d="M 217.061532 229.430032 
" style="fill:none;stroke:#228a8d;stroke-linecap:round;stroke-opacity:0.65;stroke-width:1.5;"/>
    <defs>
     <path d="M 0 3.75 
C 0.994512 3.75 1.948425 3.354876 2.65165 2.65165 
C 3.354876 1.948425 3.75 0.994512 3.75 0 
C 3.75 -0.994512 3.354876 -1.948425 2.65165 -2.65165 
C 1.948425 -3.354876 0.994512 -3.75 0 -3.75 
C -0.994512 -3.75 -1.948425 -3.354876 -2.65165 -2.65165 
C -3.354876 -1.948425 -3.75 -0.994512 -3.75 0 
C -3.75 0.994512 -3.354876 1.948425 -2.65165 2.65165 
C -1.948425 3.354876 -0.994512 3.75 0 3.75 
z
" id="m54bf681ea4" style="stroke:#228a8d;stroke-opacity:0.65;"/>
    </defs>
    <g clip-path="url(#p2d2462a044)">
     <use style="fill:#228a8d;fill-opacity:0.65;stroke:#228a8d;stroke-opacity:0.65;" x="217.061532" xlink:href="#m54bf681ea4" y="229.430032"/>
    </g>
   </g>
   <g id="line2d_38">
    <path clip-path="url(#p2d2462a044)" d="M 422.727692 56.587774 
" style="fill:none;stroke:#c7e01f;stroke-linecap:round;stroke-opacity:0.65;stroke-width:1.5;"/>
    <g clip-path="url(#p2d2462a044)">
     <use style="fill:#c7e01f;fill-opacity:0.65;stroke:#c7e01f;stroke-opacity:0.65;" x="422.727692" xlink:href="#mb4604f2861" y="56.587774"/>
    </g>
   </g>
   <g id="line2d_39">
    <path clip-path="url(#p2d2462a044)" d="M 428.44488 56.587774 
" style="fill:none;stroke:#d2e11b;stroke-linecap:round;stroke-opacity:0.65;stroke-width:1.5;"/>
    <defs>
     <path d="M 0 3.75 
C 0.994512 3.75 1.948425 3.354876 2.65165 2.65165 
C 3.354876 1.948425 3.75 0.994512 3.75 0 
C 3.75 -0.994512 3.354876 -1.948425 2.65165 -2.65165 
C 1.948425 -3.354876 0.994512 -3.75 0 -3.75 
C -0.994512 -3.75 -1.948425 -3.354876 -2.65165 -2.65165 
C -3.354876 -1.948425 -3.75 -0.994512 -3.75 0 
C -3.75 0.994512 -3.354876 1.948425 -2.65165 2.65165 
C -1.948425 3.354876 -0.994512 3.75 0 3.75 
z
" id="mc6be24bb25" style="stroke:#d2e11b;stroke-opacity:0.65;"/>
    </defs>
    <g clip-path="url(#p2d2462a044)">
     <use style="fill:#d2e11b;fill-opacity:0.65;stroke:#d2e11b;stroke-opacity:0.65;" x="428.44488" xlink:href="#mc6be24bb25" y="56.587774"/>
    </g>
   </g>
   <g id="line2d_40">
    <path clip-path="url(#p2d2462a044)" d="M 289.353069 273.397935 
" style="fill:none;stroke:#d4e11a;stroke-linecap:round;stroke-opacity:0.65;stroke-width:1.5;"/>
    <defs>
     <path d="M 0 3.75 
C 0.994512 3.75 1.948425 3.354876 2.65165 2.65165 
C 3.354876 1.948425 3.75 0.994512 3.75 0 
C 3.75 -0.994512 3.354876 -1.948425 2.65165 -2.65165 
C 1.948425 -3.354876 0.994512 -3.75 0 -3.75 
C -0.994512 -3.75 -1.948425 -3.354876 -2.65165 -2.65165 
C -3.354876 -1.948425 -3.75 -0.994512 -3.75 0 
C -3.75 0.994512 -3.354876 1.948425 -2.65165 2.65165 
C -1.948425 3.354876 -0.994512 3.75 0 3.75 
z
" id="ma654a9a94d" style="stroke:#d4e11a;stroke-opacity:0.65;"/>
    </defs>
    <g clip-path="url(#p2d2462a044)">
     <use style="fill:#d4e11a;fill-opacity:0.65;stroke:#d4e11a;stroke-opacity:0.65;" x="289.353069" xlink:href="#ma654a9a94d" y="273.397935"/>
    </g>
   </g>
   <g id="line2d_41">
    <path clip-path="url(#p2d2462a044)" d="M 217.054575 229.430032 
" style="fill:none;stroke:#22898d;stroke-linecap:round;stroke-opacity:0.65;stroke-width:1.5;"/>
    <g clip-path="url(#p2d2462a044)">
     <use style="fill:#22898d;fill-opacity:0.65;stroke:#22898d;stroke-opacity:0.65;" x="217.054575" xlink:href="#m4ee687ccd8" y="229.430032"/>
    </g>
   </g>
   <g id="line2d_42">
    <path clip-path="url(#p2d2462a044)" d="M 292.190574 273.397935 
" style="fill:none;stroke:#5bc862;stroke-linecap:round;stroke-opacity:0.65;stroke-width:1.5;"/>
    <defs>
     <path d="M 0 3.75 
C 0.994512 3.75 1.948425 3.354876 2.65165 2.65165 
C 3.354876 1.948425 3.75 0.994512 3.75 0 
C 3.75 -0.994512 3.354876 -1.948425 2.65165 -2.65165 
C 1.948425 -3.354876 0.994512 -3.75 0 -3.75 
C -0.994512 -3.75 -1.948425 -3.354876 -2.65165 -2.65165 
C -3.354876 -1.948425 -3.75 -0.994512 -3.75 0 
C -3.75 0.994512 -3.354876 1.948425 -2.65165 2.65165 
C -1.948425 3.354876 -0.994512 3.75 0 3.75 
z
" id="mbada9741b5" style="stroke:#5bc862;stroke-opacity:0.65;"/>
    </defs>
    <g clip-path="url(#p2d2462a044)">
     <use style="fill:#5bc862;fill-opacity:0.65;stroke:#5bc862;stroke-opacity:0.65;" x="292.190574" xlink:href="#mbada9741b5" y="273.397935"/>
    </g>
   </g>
   <g id="line2d_43">
    <path clip-path="url(#p2d2462a044)" d="M 424.392298 56.587774 
" style="fill:none;stroke:#95d73f;stroke-linecap:round;stroke-opacity:0.65;stroke-width:1.5;"/>
    <defs>
     <path d="M 0 3.75 
C 0.994512 3.75 1.948425 3.354876 2.65165 2.65165 
C 3.354876 1.948425 3.75 0.994512 3.75 0 
C 3.75 -0.994512 3.354876 -1.948425 2.65165 -2.65165 
C 1.948425 -3.354876 0.994512 -3.75 0 -3.75 
C -0.994512 -3.75 -1.948425 -3.354876 -2.65165 -2.65165 
C -3.354876 -1.948425 -3.75 -0.994512 -3.75 0 
C -3.75 0.994512 -3.354876 1.948425 -2.65165 2.65165 
C -1.948425 3.354876 -0.994512 3.75 0 3.75 
z
" id="mfbbf747654" style="stroke:#95d73f;stroke-opacity:0.65;"/>
    </defs>
    <g clip-path="url(#p2d2462a044)">
     <use style="fill:#95d73f;fill-opacity:0.65;stroke:#95d73f;stroke-opacity:0.65;" x="424.392298" xlink:href="#mfbbf747654" y="56.587774"/>
    </g>
   </g>
   <g id="line2d_44">
    <path clip-path="url(#p2d2462a044)" d="M 421.401742 56.587774 
" style="fill:none;stroke:#95d73f;stroke-linecap:round;stroke-opacity:0.65;stroke-width:1.5;"/>
    <g clip-path="url(#p2d2462a044)">
     <use style="fill:#95d73f;fill-opacity:0.65;stroke:#95d73f;stroke-opacity:0.65;" x="421.401742" xlink:href="#mfbbf747654" y="56.587774"/>
    </g>
   </g>
   <g id="line2d_45">
    <path clip-path="url(#p2d2462a044)" d="M 284.283301 273.397935 
" style="fill:none;stroke:#afdc2e;stroke-linecap:round;stroke-opacity:0.65;stroke-width:1.5;"/>
    <defs>
     <path d="M 0 3.75 
C 0.994512 3.75 1.948425 3.354876 2.65165 2.65165 
C 3.354876 1.948425 3.75 0.994512 3.75 0 
C 3.75 -0.994512 3.354876 -1.948425 2.65165 -2.65165 
C 1.948425 -3.354876 0.994512 -3.75 0 -3.75 
C -0.994512 -3.75 -1.948425 -3.354876 -2.65165 -2.65165 
C -3.354876 -1.948425 -3.75 -0.994512 -3.75 0 
C -3.75 0.994512 -3.354876 1.948425 -2.65165 2.65165 
C -1.948425 3.354876 -0.994512 3.75 0 3.75 
z
" id="m4547b6255c" style="stroke:#afdc2e;stroke-opacity:0.65;"/>
    </defs>
    <g clip-path="url(#p2d2462a044)">
     <use style="fill:#afdc2e;fill-opacity:0.65;stroke:#afdc2e;stroke-opacity:0.65;" x="284.283301" xlink:href="#m4547b6255c" y="273.397935"/>
    </g>
   </g>
   <g id="line2d_46"/>
   <g id="line2d_47"/>
   <g id="line2d_48"/>
   <g id="line2d_49"/>
   <g id="patch_3">
    <path d="M 71.771875 280.042969 
L 71.771875 39.232031 
" style="fill:none;stroke:#262626;stroke-linecap:square;stroke-linejoin:miter;stroke-width:0.8;"/>
   </g>
   <g id="patch_4">
    <path d="M 71.771875 280.042969 
L 435.438469 280.042969 
" style="fill:none;stroke:#262626;stroke-linecap:square;stroke-linejoin:miter;stroke-width:0.8;"/>
   </g>
   <g id="text_17">
    <text style="fill:#262626;font-family:Lato;font-size:15px;font-style:normal;font-weight:bold;text-anchor:middle;" transform="rotate(-0, 253.605172, 33.232031)" x="253.605172" y="33.232031">inferred AA lb index vs aa-cdist (31 observed, 31 total)</text>
   </g>
   <g id="legend_1">
    <g id="patch_5">
     <path d="M 92.355205 147.596953 
L 165.92083 147.596953 
Q 168.32083 147.596953 168.32083 145.196953 
L 168.32083 54.485078 
Q 168.32083 52.085078 165.92083 52.085078 
L 92.355205 52.085078 
Q 89.955205 52.085078 89.955205 54.485078 
L 89.955205 145.196953 
Q 89.955205 147.596953 92.355205 147.596953 
z
" style="fill:#ffffff;opacity:0.8;stroke:#cccccc;stroke-linejoin:miter;"/>
    </g>
    <g id="text_18">
     <text style="fill:#262626;font-family:Lato;font-size:20px;font-style:normal;font-weight:600;text-anchor:start;" transform="rotate(-0, 97.17708, 71.744453)" x="97.17708" y="71.744453">affinity</text>
    </g>
    <g id="line2d_50">
     <path d="M 94.755205 85.810078 
L 118.755205 85.810078 
" style="fill:none;"/>
    </g>
    <g id="line2d_51">
     <g>
      <use style="fill:#443982;fill-opacity:0.65;stroke:#443982;stroke-opacity:0.65;" x="106.755205" xlink:href="#m62a1aaadaf" y="85.810078"/>
     </g>
    </g>
    <g id="text_19">
     <text style="fill:#262626;font-family:Lato;font-size:12px;font-style:normal;font-weight:600;text-anchor:start;" transform="rotate(-0, 128.355205, 90.010078)" x="128.355205" y="90.010078">-6.448</text>
    </g>
    <g id="line2d_52">
     <path d="M 94.755205 102.735703 
L 118.755205 102.735703 
" style="fill:none;"/>
    </g>
    <g id="line2d_53">
     <defs>
      <path d="M 0 3.75 
C 0.994512 3.75 1.948425 3.354876 2.65165 2.65165 
C 3.354876 1.948425 3.75 0.994512 3.75 0 
C 3.75 -0.994512 3.354876 -1.948425 2.65165 -2.65165 
C 1.948425 -3.354876 0.994512 -3.75 0 -3.75 
C -0.994512 -3.75 -1.948425 -3.354876 -2.65165 -2.65165 
C -3.354876 -1.948425 -3.75 -0.994512 -3.75 0 
C -3.75 0.994512 -3.354876 1.948425 -2.65165 2.65165 
C -1.948425 3.354876 -0.994512 3.75 0 3.75 
z
" id="m566a501bd8" style="stroke:#25828e;stroke-opacity:0.65;"/>
     </defs>
     <g>
      <use style="fill:#25828e;fill-opacity:0.65;stroke:#25828e;stroke-opacity:0.65;" x="106.755205" xlink:href="#m566a501bd8" y="102.735703"/>
     </g>
    </g>
    <g id="text_20">
     <text style="fill:#262626;font-family:Lato;font-size:12px;font-style:normal;font-weight:600;text-anchor:start;" transform="rotate(-0, 128.355205, 106.935703)" x="128.355205" y="106.935703">-3.602</text>
    </g>
    <g id="line2d_54">
     <path d="M 94.755205 119.661328 
L 118.755205 119.661328 
" style="fill:none;"/>
    </g>
    <g id="line2d_55">
     <defs>
      <path d="M 0 3.75 
C 0.994512 3.75 1.948425 3.354876 2.65165 2.65165 
C 3.354876 1.948425 3.75 0.994512 3.75 0 
C 3.75 -0.994512 3.354876 -1.948425 2.65165 -2.65165 
C 1.948425 -3.354876 0.994512 -3.75 0 -3.75 
C -0.994512 -3.75 -1.948425 -3.354876 -2.65165 -2.65165 
C -3.354876 -1.948425 -3.75 -0.994512 -3.75 0 
C -3.75 0.994512 -3.354876 1.948425 -2.65165 2.65165 
C -1.948425 3.354876 -0.994512 3.75 0 3.75 
z
" id="m8a3de0b7c4" style="stroke:#4dc26b;stroke-opacity:0.65;"/>
     </defs>
     <g>
      <use style="fill:#4dc26b;fill-opacity:0.65;stroke:#4dc26b;stroke-opacity:0.65;" x="106.755205" xlink:href="#m8a3de0b7c4" y="119.661328"/>
     </g>
    </g>
    <g id="text_21">
     <text style="fill:#262626;font-family:Lato;font-size:12px;font-style:normal;font-weight:600;text-anchor:start;" transform="rotate(-0, 128.355205, 123.861328)" x="128.355205" y="123.861328">-0.757</text>
    </g>
    <g id="line2d_56">
     <path d="M 94.755205 136.586953 
L 118.755205 136.586953 
" style="fill:none;"/>
    </g>
    <g id="line2d_57">
     <g>
      <use style="fill:#fde724;fill-opacity:0.65;stroke:#fde724;stroke-opacity:0.65;" x="106.755205" xlink:href="#m76bec436de" y="136.586953"/>
     </g>
    </g>
    <g id="text_22">
     <text style="fill:#262626;font-family:Lato;font-size:12px;font-style:normal;font-weight:600;text-anchor:start;" transform="rotate(-0, 128.355205, 140.786953)" x="128.355205" y="140.786953">2.089</text>
    </g>
   </g>
  </g>
  <g id="text_23">
   <text style="fill:#262626;font-family:Lato;font-size:20px;font-style:normal;font-weight:bold;text-anchor:start;" transform="rotate(-0, 92.16, 58.752)" x="92.16" y="58.752">r = 0.756</text>
  </g>
 </g>
 <defs>
  <clipPath id="p2d2462a044">
   <rect height="240.810937" width="363.666594" x="71.771875" y="39.232031"/>
  </clipPath>
 </defs>
</svg>
