<?xml version="1.0" encoding="utf-8" standalone="no"?>
<!DOCTYPE svg PUBLIC "-//W3C//DTD SVG 1.1//EN"
  "http://www.w3.org/Graphics/SVG/1.1/DTD/svg11.dtd">
<!-- Created with matplotlib (http://matplotlib.org/) -->
<svg height="345.6pt" version="1.1" viewBox="0 0 460.8 345.6" width="460.8pt" xmlns="http://www.w3.org/2000/svg" xmlns:xlink="http://www.w3.org/1999/xlink">
 <defs>
  <style type="text/css">
*{stroke-linecap:butt;stroke-linejoin:round;}
  </style>
 </defs>
 <g id="figure_1">
  <g id="patch_1">
   <path d="M 0 345.6 
L 460.8 345.6 
L 460.8 0 
L 0 0 
z
" style="fill:#ffffff;"/>
  </g>
  <g id="axes_1">
   <g id="patch_2">
    <path d="M 71.771875 280.042969 
L 435.438469 280.042969 
L 435.438469 39.232031 
L 71.771875 39.232031 
z
" style="fill:#ffffff;"/>
   </g>
   <g id="matplotlib.axis_1">
    <g id="xtick_1">
     <g id="line2d_1">
      <defs>
       <path d="M 0 0 
L 0 3.5 
" id="m1ea412b6e2" style="stroke:#262626;stroke-width:0.8;"/>
      </defs>
      <g>
       <use style="fill:#262626;stroke:#262626;stroke-width:0.8;" x="83.803917" xlink:href="#m1ea412b6e2" y="280.042969"/>
      </g>
     </g>
     <g id="text_1">
      <text style="fill:#262626;font-family:Lato;font-size:15px;font-style:normal;font-weight:600;text-anchor:middle;" transform="rotate(-0, 83.803917, 298.1875)" x="83.803917" y="298.1875">−5</text>
     </g>
    </g>
    <g id="xtick_2">
     <g id="line2d_2">
      <g>
       <use style="fill:#262626;stroke:#262626;stroke-width:0.8;" x="151.560007" xlink:href="#m1ea412b6e2" y="280.042969"/>
      </g>
     </g>
     <g id="text_2">
      <text style="fill:#262626;font-family:Lato;font-size:15px;font-style:normal;font-weight:600;text-anchor:middle;" transform="rotate(-0, 151.560007, 298.1875)" x="151.560007" y="298.1875">−4</text>
     </g>
    </g>
    <g id="xtick_3">
     <g id="line2d_3">
      <g>
       <use style="fill:#262626;stroke:#262626;stroke-width:0.8;" x="219.316098" xlink:href="#m1ea412b6e2" y="280.042969"/>
      </g>
     </g>
     <g id="text_3">
      <text style="fill:#262626;font-family:Lato;font-size:15px;font-style:normal;font-weight:600;text-anchor:middle;" transform="rotate(-0, 219.316098, 298.1875)" x="219.316098" y="298.1875">−3</text>
     </g>
    </g>
    <g id="xtick_4">
     <g id="line2d_4">
      <g>
       <use style="fill:#262626;stroke:#262626;stroke-width:0.8;" x="287.072188" xlink:href="#m1ea412b6e2" y="280.042969"/>
      </g>
     </g>
     <g id="text_4">
      <text style="fill:#262626;font-family:Lato;font-size:15px;font-style:normal;font-weight:600;text-anchor:middle;" transform="rotate(-0, 287.072188, 298.1875)" x="287.072188" y="298.1875">−2</text>
     </g>
    </g>
    <g id="xtick_5">
     <g id="line2d_5">
      <g>
       <use style="fill:#262626;stroke:#262626;stroke-width:0.8;" x="354.828279" xlink:href="#m1ea412b6e2" y="280.042969"/>
      </g>
     </g>
     <g id="text_5">
      <text style="fill:#262626;font-family:Lato;font-size:15px;font-style:normal;font-weight:600;text-anchor:middle;" transform="rotate(-0, 354.828279, 298.1875)" x="354.828279" y="298.1875">−1</text>
     </g>
    </g>
    <g id="xtick_6">
     <g id="line2d_6">
      <g>
       <use style="fill:#262626;stroke:#262626;stroke-width:0.8;" x="422.58437" xlink:href="#m1ea412b6e2" y="280.042969"/>
      </g>
     </g>
     <g id="text_6">
      <text style="fill:#262626;font-family:Lato;font-size:15px;font-style:normal;font-weight:600;text-anchor:middle;" transform="rotate(-0, 422.58437, 298.1875)" x="422.58437" y="298.1875">0</text>
     </g>
    </g>
    <g id="text_7">
     <text style="fill:#262626;font-family:Lato;font-size:20px;font-style:normal;font-weight:600;text-anchor:middle;" transform="rotate(-0, 253.605172, 320.4)" x="253.605172" y="320.4">aa-cdist (+jitter)</text>
    </g>
   </g>
   <g id="matplotlib.axis_2">
    <g id="ytick_1">
     <g id="line2d_7">
      <defs>
       <path d="M 0 0 
L -3.5 0 
" id="m772a33e328" style="stroke:#262626;stroke-width:0.8;"/>
      </defs>
      <g>
       <use style="fill:#262626;stroke:#262626;stroke-width:0.8;" x="71.771875" xlink:href="#m772a33e328" y="273.548079"/>
      </g>
     </g>
     <g id="text_8">
      <text style="fill:#262626;font-family:Lato;font-size:15px;font-style:normal;font-weight:600;text-anchor:end;" transform="rotate(-0, 64.771875, 279.120345)" x="64.771875" y="279.120345">0.0</text>
     </g>
    </g>
    <g id="ytick_2">
     <g id="line2d_8">
      <g>
       <use style="fill:#262626;stroke:#262626;stroke-width:0.8;" x="71.771875" xlink:href="#m772a33e328" y="240.879196"/>
      </g>
     </g>
     <g id="text_9">
      <text style="fill:#262626;font-family:Lato;font-size:15px;font-style:normal;font-weight:600;text-anchor:end;" transform="rotate(-0, 64.771875, 246.451461)" x="64.771875" y="246.451461">0.2</text>
     </g>
    </g>
    <g id="ytick_3">
     <g id="line2d_9">
      <g>
       <use style="fill:#262626;stroke:#262626;stroke-width:0.8;" x="71.771875" xlink:href="#m772a33e328" y="208.210312"/>
      </g>
     </g>
     <g id="text_10">
      <text style="fill:#262626;font-family:Lato;font-size:15px;font-style:normal;font-weight:600;text-anchor:end;" transform="rotate(-0, 64.771875, 213.782578)" x="64.771875" y="213.782578">0.4</text>
     </g>
    </g>
    <g id="ytick_4">
     <g id="line2d_10">
      <g>
       <use style="fill:#262626;stroke:#262626;stroke-width:0.8;" x="71.771875" xlink:href="#m772a33e328" y="175.541429"/>
      </g>
     </g>
     <g id="text_11">
      <text style="fill:#262626;font-family:Lato;font-size:15px;font-style:normal;font-weight:600;text-anchor:end;" transform="rotate(-0, 64.771875, 181.113695)" x="64.771875" y="181.113695">0.6</text>
     </g>
    </g>
    <g id="ytick_5">
     <g id="line2d_11">
      <g>
       <use style="fill:#262626;stroke:#262626;stroke-width:0.8;" x="71.771875" xlink:href="#m772a33e328" y="142.872546"/>
      </g>
     </g>
     <g id="text_12">
      <text style="fill:#262626;font-family:Lato;font-size:15px;font-style:normal;font-weight:600;text-anchor:end;" transform="rotate(-0, 64.771875, 148.444811)" x="64.771875" y="148.444811">0.8</text>
     </g>
    </g>
    <g id="ytick_6">
     <g id="line2d_12">
      <g>
       <use style="fill:#262626;stroke:#262626;stroke-width:0.8;" x="71.771875" xlink:href="#m772a33e328" y="110.203662"/>
      </g>
     </g>
     <g id="text_13">
      <text style="fill:#262626;font-family:Lato;font-size:15px;font-style:normal;font-weight:600;text-anchor:end;" transform="rotate(-0, 64.771875, 115.775928)" x="64.771875" y="115.775928">1.0</text>
     </g>
    </g>
    <g id="ytick_7">
     <g id="line2d_13">
      <g>
       <use style="fill:#262626;stroke:#262626;stroke-width:0.8;" x="71.771875" xlink:href="#m772a33e328" y="77.534779"/>
      </g>
     </g>
     <g id="text_14">
      <text style="fill:#262626;font-family:Lato;font-size:15px;font-style:normal;font-weight:600;text-anchor:end;" transform="rotate(-0, 64.771875, 83.107045)" x="64.771875" y="83.107045">1.2</text>
     </g>
    </g>
    <g id="ytick_8">
     <g id="line2d_14">
      <g>
       <use style="fill:#262626;stroke:#262626;stroke-width:0.8;" x="71.771875" xlink:href="#m772a33e328" y="44.865896"/>
      </g>
     </g>
     <g id="text_15">
      <text style="fill:#262626;font-family:Lato;font-size:15px;font-style:normal;font-weight:600;text-anchor:end;" transform="rotate(-0, 64.771875, 50.438161)" x="64.771875" y="50.438161">1.4</text>
     </g>
    </g>
    <g id="text_16">
     <text style="fill:#262626;font-family:Lato;font-size:20px;font-style:normal;font-weight:600;text-anchor:middle;" transform="rotate(-90, 36.459375, 159.6375)" x="36.459375" y="159.6375">AA lb index</text>
    </g>
   </g>
   <g id="line2d_15">
    <path clip-path="url(#p8c9e7c730c)" d="M 358.660787 241.924426 
" style="fill:none;stroke:#7cd24f;stroke-linecap:round;stroke-opacity:0.65;stroke-width:1.5;"/>
    <defs>
     <path d="M 0 3.75 
C 0.994512 3.75 1.948425 3.354876 2.65165 2.65165 
C 3.354876 1.948425 3.75 0.994512 3.75 0 
C 3.75 -0.994512 3.354876 -1.948425 2.65165 -2.65165 
C 1.948425 -3.354876 0.994512 -3.75 0 -3.75 
C -0.994512 -3.75 -1.948425 -3.354876 -2.65165 -2.65165 
C -3.354876 -1.948425 -3.75 -0.994512 -3.75 0 
C -3.75 0.994512 -3.354876 1.948425 -2.65165 2.65165 
C -1.948425 3.354876 -0.994512 3.75 0 3.75 
z
" id="m4f2b0f5a54" style="stroke:#7cd24f;stroke-opacity:0.65;"/>
    </defs>
    <g clip-path="url(#p8c9e7c730c)">
     <use style="fill:#7cd24f;fill-opacity:0.65;stroke:#7cd24f;stroke-opacity:0.65;" x="358.660787" xlink:href="#m4f2b0f5a54" y="241.924426"/>
    </g>
   </g>
   <g id="line2d_16">
    <path clip-path="url(#p8c9e7c730c)" d="M 356.67876 214.923387 
" style="fill:none;stroke:#cfe11c;stroke-linecap:round;stroke-opacity:0.65;stroke-width:1.5;"/>
    <defs>
     <path d="M 0 3.75 
C 0.994512 3.75 1.948425 3.354876 2.65165 2.65165 
C 3.354876 1.948425 3.75 0.994512 3.75 0 
C 3.75 -0.994512 3.354876 -1.948425 2.65165 -2.65165 
C 1.948425 -3.354876 0.994512 -3.75 0 -3.75 
C -0.994512 -3.75 -1.948425 -3.354876 -2.65165 -2.65165 
C -3.354876 -1.948425 -3.75 -0.994512 -3.75 0 
C -3.75 0.994512 -3.354876 1.948425 -2.65165 2.65165 
C -1.948425 3.354876 -0.994512 3.75 0 3.75 
z
" id="m2ddc959b79" style="stroke:#cfe11c;stroke-opacity:0.65;"/>
    </defs>
    <g clip-path="url(#p8c9e7c730c)">
     <use style="fill:#cfe11c;fill-opacity:0.65;stroke:#cfe11c;stroke-opacity:0.65;" x="356.67876" xlink:href="#m2ddc959b79" y="214.923387"/>
    </g>
   </g>
   <g id="line2d_17">
    <path clip-path="url(#p8c9e7c730c)" d="M 288.192916 273.397935 
" style="fill:none;stroke:#cfe11c;stroke-linecap:round;stroke-opacity:0.65;stroke-width:1.5;"/>
    <g clip-path="url(#p8c9e7c730c)">
     <use style="fill:#cfe11c;fill-opacity:0.65;stroke:#cfe11c;stroke-opacity:0.65;" x="288.192916" xlink:href="#m2ddc959b79" y="273.397935"/>
    </g>
   </g>
   <g id="line2d_18">
    <path clip-path="url(#p8c9e7c730c)" d="M 290.849074 272.638783 
" style="fill:none;stroke:#cfe11c;stroke-linecap:round;stroke-opacity:0.65;stroke-width:1.5;"/>
    <g clip-path="url(#p8c9e7c730c)">
     <use style="fill:#cfe11c;fill-opacity:0.65;stroke:#cfe11c;stroke-opacity:0.65;" x="290.849074" xlink:href="#m2ddc959b79" y="272.638783"/>
    </g>
   </g>
   <g id="line2d_19">
    <path clip-path="url(#p8c9e7c730c)" d="M 425.810746 56.587774 
" style="fill:none;stroke:#bfdf24;stroke-linecap:round;stroke-opacity:0.65;stroke-width:1.5;"/>
    <defs>
     <path d="M 0 3.75 
C 0.994512 3.75 1.948425 3.354876 2.65165 2.65165 
C 3.354876 1.948425 3.75 0.994512 3.75 0 
C 3.75 -0.994512 3.354876 -1.948425 2.65165 -2.65165 
C 1.948425 -3.354876 0.994512 -3.75 0 -3.75 
C -0.994512 -3.75 -1.948425 -3.354876 -2.65165 -2.65165 
C -3.354876 -1.948425 -3.75 -0.994512 -3.75 0 
C -3.75 0.994512 -3.354876 1.948425 -2.65165 2.65165 
C -1.948425 3.354876 -0.994512 3.75 0 3.75 
z
" id="m71e1dabe3b" style="stroke:#bfdf24;stroke-opacity:0.65;"/>
    </defs>
    <g clip-path="url(#p8c9e7c730c)">
     <use style="fill:#bfdf24;fill-opacity:0.65;stroke:#bfdf24;stroke-opacity:0.65;" x="425.810746" xlink:href="#m71e1dabe3b" y="56.587774"/>
    </g>
   </g>
   <g id="line2d_20">
    <path clip-path="url(#p8c9e7c730c)" d="M 357.771881 241.924426 
" style="fill:none;stroke:#7cd24f;stroke-linecap:round;stroke-opacity:0.65;stroke-width:1.5;"/>
    <g clip-path="url(#p8c9e7c730c)">
     <use style="fill:#7cd24f;fill-opacity:0.65;stroke:#7cd24f;stroke-opacity:0.65;" x="357.771881" xlink:href="#m4f2b0f5a54" y="241.924426"/>
    </g>
   </g>
   <g id="line2d_21">
    <path clip-path="url(#p8c9e7c730c)" d="M 359.243284 241.924426 
" style="fill:none;stroke:#74d054;stroke-linecap:round;stroke-opacity:0.65;stroke-width:1.5;"/>
    <defs>
     <path d="M 0 3.75 
C 0.994512 3.75 1.948425 3.354876 2.65165 2.65165 
C 3.354876 1.948425 3.75 0.994512 3.75 0 
C 3.75 -0.994512 3.354876 -1.948425 2.65165 -2.65165 
C 1.948425 -3.354876 0.994512 -3.75 0 -3.75 
C -0.994512 -3.75 -1.948425 -3.354876 -2.65165 -2.65165 
C -3.354876 -1.948425 -3.75 -0.994512 -3.75 0 
C -3.75 0.994512 -3.354876 1.948425 -2.65165 2.65165 
C -1.948425 3.354876 -0.994512 3.75 0 3.75 
z
" id="mefbf40bf14" style="stroke:#74d054;stroke-opacity:0.65;"/>
    </defs>
    <g clip-path="url(#p8c9e7c730c)">
     <use style="fill:#74d054;fill-opacity:0.65;stroke:#74d054;stroke-opacity:0.65;" x="359.243284" xlink:href="#mefbf40bf14" y="241.924426"/>
    </g>
   </g>
   <g id="line2d_22">
    <path clip-path="url(#p8c9e7c730c)" d="M 353.03801 268.187073 
" style="fill:none;stroke:#fde724;stroke-linecap:round;stroke-opacity:0.65;stroke-width:1.5;"/>
    <defs>
     <path d="M 0 3.75 
C 0.994512 3.75 1.948425 3.354876 2.65165 2.65165 
C 3.354876 1.948425 3.75 0.994512 3.75 0 
C 3.75 -0.994512 3.354876 -1.948425 2.65165 -2.65165 
C 1.948425 -3.354876 0.994512 -3.75 0 -3.75 
C -0.994512 -3.75 -1.948425 -3.354876 -2.65165 -2.65165 
C -3.354876 -1.948425 -3.75 -0.994512 -3.75 0 
C -3.75 0.994512 -3.354876 1.948425 -2.65165 2.65165 
C -1.948425 3.354876 -0.994512 3.75 0 3.75 
z
" id="m538f20cb80" style="stroke:#fde724;stroke-opacity:0.65;"/>
    </defs>
    <g clip-path="url(#p8c9e7c730c)">
     <use style="fill:#fde724;fill-opacity:0.65;stroke:#fde724;stroke-opacity:0.65;" x="353.03801" xlink:href="#m538f20cb80" y="268.187073"/>
    </g>
   </g>
   <g id="line2d_23">
    <path clip-path="url(#p8c9e7c730c)" d="M 78.765463 273.534565 
" style="fill:none;stroke:#443982;stroke-linecap:round;stroke-opacity:0.65;stroke-width:1.5;"/>
    <defs>
     <path d="M 0 3.75 
C 0.994512 3.75 1.948425 3.354876 2.65165 2.65165 
C 3.354876 1.948425 3.75 0.994512 3.75 0 
C 3.75 -0.994512 3.354876 -1.948425 2.65165 -2.65165 
C 1.948425 -3.354876 0.994512 -3.75 0 -3.75 
C -0.994512 -3.75 -1.948425 -3.354876 -2.65165 -2.65165 
C -3.354876 -1.948425 -3.75 -0.994512 -3.75 0 
C -3.75 0.994512 -3.354876 1.948425 -2.65165 2.65165 
C -1.948425 3.354876 -0.994512 3.75 0 3.75 
z
" id="m1381826b7b" style="stroke:#443982;stroke-opacity:0.65;"/>
    </defs>
    <g clip-path="url(#p8c9e7c730c)">
     <use style="fill:#443982;fill-opacity:0.65;stroke:#443982;stroke-opacity:0.65;" x="78.765463" xlink:href="#m1381826b7b" y="273.534565"/>
    </g>
   </g>
   <g id="line2d_24">
    <path clip-path="url(#p8c9e7c730c)" d="M 290.707017 273.397935 
" style="fill:none;stroke:#cde01d;stroke-linecap:round;stroke-opacity:0.65;stroke-width:1.5;"/>
    <defs>
     <path d="M 0 3.75 
C 0.994512 3.75 1.948425 3.354876 2.65165 2.65165 
C 3.354876 1.948425 3.75 0.994512 3.75 0 
C 3.75 -0.994512 3.354876 -1.948425 2.65165 -2.65165 
C 1.948425 -3.354876 0.994512 -3.75 0 -3.75 
C -0.994512 -3.75 -1.948425 -3.354876 -2.65165 -2.65165 
C -3.354876 -1.948425 -3.75 -0.994512 -3.75 0 
C -3.75 0.994512 -3.354876 1.948425 -2.65165 2.65165 
C -1.948425 3.354876 -0.994512 3.75 0 3.75 
z
" id="mc1bf85889c" style="stroke:#cde01d;stroke-opacity:0.65;"/>
    </defs>
    <g clip-path="url(#p8c9e7c730c)">
     <use style="fill:#cde01d;fill-opacity:0.65;stroke:#cde01d;stroke-opacity:0.65;" x="290.707017" xlink:href="#mc1bf85889c" y="273.397935"/>
    </g>
   </g>
   <g id="line2d_25">
    <path clip-path="url(#p8c9e7c730c)" d="M 213.048009 229.430032 
" style="fill:none;stroke:#22898d;stroke-linecap:round;stroke-opacity:0.65;stroke-width:1.5;"/>
    <defs>
     <path d="M 0 3.75 
C 0.994512 3.75 1.948425 3.354876 2.65165 2.65165 
C 3.354876 1.948425 3.75 0.994512 3.75 0 
C 3.75 -0.994512 3.354876 -1.948425 2.65165 -2.65165 
C 1.948425 -3.354876 0.994512 -3.75 0 -3.75 
C -0.994512 -3.75 -1.948425 -3.354876 -2.65165 -2.65165 
C -3.354876 -1.948425 -3.75 -0.994512 -3.75 0 
C -3.75 0.994512 -3.354876 1.948425 -2.65165 2.65165 
C -1.948425 3.354876 -0.994512 3.75 0 3.75 
z
" id="mdebbaae55c" style="stroke:#22898d;stroke-opacity:0.65;"/>
    </defs>
    <g clip-path="url(#p8c9e7c730c)">
     <use style="fill:#22898d;fill-opacity:0.65;stroke:#22898d;stroke-opacity:0.65;" x="213.048009" xlink:href="#mdebbaae55c" y="229.430032"/>
    </g>
   </g>
   <g id="line2d_26">
    <path clip-path="url(#p8c9e7c730c)" d="M 291.817083 273.397935 
" style="fill:none;stroke:#92d741;stroke-linecap:round;stroke-opacity:0.65;stroke-width:1.5;"/>
    <defs>
     <path d="M 0 3.75 
C 0.994512 3.75 1.948425 3.354876 2.65165 2.65165 
C 3.354876 1.948425 3.75 0.994512 3.75 0 
C 3.75 -0.994512 3.354876 -1.948425 2.65165 -2.65165 
C 1.948425 -3.354876 0.994512 -3.75 0 -3.75 
C -0.994512 -3.75 -1.948425 -3.354876 -2.65165 -2.65165 
C -3.354876 -1.948425 -3.75 -0.994512 -3.75 0 
C -3.75 0.994512 -3.354876 1.948425 -2.65165 2.65165 
C -1.948425 3.354876 -0.994512 3.75 0 3.75 
z
" id="m6c78033ed7" style="stroke:#92d741;stroke-opacity:0.65;"/>
    </defs>
    <g clip-path="url(#p8c9e7c730c)">
     <use style="fill:#92d741;fill-opacity:0.65;stroke:#92d741;stroke-opacity:0.65;" x="291.817083" xlink:href="#m6c78033ed7" y="273.397935"/>
    </g>
   </g>
   <g id="line2d_27">
    <path clip-path="url(#p8c9e7c730c)" d="M 220.348722 229.430032 
" style="fill:none;stroke:#22898d;stroke-linecap:round;stroke-opacity:0.65;stroke-width:1.5;"/>
    <g clip-path="url(#p8c9e7c730c)">
     <use style="fill:#22898d;fill-opacity:0.65;stroke:#22898d;stroke-opacity:0.65;" x="220.348722" xlink:href="#mdebbaae55c" y="229.430032"/>
    </g>
   </g>
   <g id="line2d_28">
    <path clip-path="url(#p8c9e7c730c)" d="M 288.897867 273.397935 
" style="fill:none;stroke:#cae01e;stroke-linecap:round;stroke-opacity:0.65;stroke-width:1.5;"/>
    <defs>
     <path d="M 0 3.75 
C 0.994512 3.75 1.948425 3.354876 2.65165 2.65165 
C 3.354876 1.948425 3.75 0.994512 3.75 0 
C 3.75 -0.994512 3.354876 -1.948425 2.65165 -2.65165 
C 1.948425 -3.354876 0.994512 -3.75 0 -3.75 
C -0.994512 -3.75 -1.948425 -3.354876 -2.65165 -2.65165 
C -3.354876 -1.948425 -3.75 -0.994512 -3.75 0 
C -3.75 0.994512 -3.354876 1.948425 -2.65165 2.65165 
C -1.948425 3.354876 -0.994512 3.75 0 3.75 
z
" id="m57a0789ae8" style="stroke:#cae01e;stroke-opacity:0.65;"/>
    </defs>
    <g clip-path="url(#p8c9e7c730c)">
     <use style="fill:#cae01e;fill-opacity:0.65;stroke:#cae01e;stroke-opacity:0.65;" x="288.897867" xlink:href="#m57a0789ae8" y="273.397935"/>
    </g>
   </g>
   <g id="line2d_29">
    <path clip-path="url(#p8c9e7c730c)" d="M 426.623411 56.587774 
" style="fill:none;stroke:#bdde26;stroke-linecap:round;stroke-opacity:0.65;stroke-width:1.5;"/>
    <defs>
     <path d="M 0 3.75 
C 0.994512 3.75 1.948425 3.354876 2.65165 2.65165 
C 3.354876 1.948425 3.75 0.994512 3.75 0 
C 3.75 -0.994512 3.354876 -1.948425 2.65165 -2.65165 
C 1.948425 -3.354876 0.994512 -3.75 0 -3.75 
C -0.994512 -3.75 -1.948425 -3.354876 -2.65165 -2.65165 
C -3.354876 -1.948425 -3.75 -0.994512 -3.75 0 
C -3.75 0.994512 -3.354876 1.948425 -2.65165 2.65165 
C -1.948425 3.354876 -0.994512 3.75 0 3.75 
z
" id="m0b59961180" style="stroke:#bdde26;stroke-opacity:0.65;"/>
    </defs>
    <g clip-path="url(#p8c9e7c730c)">
     <use style="fill:#bdde26;fill-opacity:0.65;stroke:#bdde26;stroke-opacity:0.65;" x="426.623411" xlink:href="#m0b59961180" y="56.587774"/>
    </g>
   </g>
   <g id="line2d_30">
    <path clip-path="url(#p8c9e7c730c)" d="M 348.311698 241.924426 
" style="fill:none;stroke:#c5df21;stroke-linecap:round;stroke-opacity:0.65;stroke-width:1.5;"/>
    <defs>
     <path d="M 0 3.75 
C 0.994512 3.75 1.948425 3.354876 2.65165 2.65165 
C 3.354876 1.948425 3.75 0.994512 3.75 0 
C 3.75 -0.994512 3.354876 -1.948425 2.65165 -2.65165 
C 1.948425 -3.354876 0.994512 -3.75 0 -3.75 
C -0.994512 -3.75 -1.948425 -3.354876 -2.65165 -2.65165 
C -3.354876 -1.948425 -3.75 -0.994512 -3.75 0 
C -3.75 0.994512 -3.354876 1.948425 -2.65165 2.65165 
C -1.948425 3.354876 -0.994512 3.75 0 3.75 
z
" id="mf306501db2" style="stroke:#c5df21;stroke-opacity:0.65;"/>
    </defs>
    <g clip-path="url(#p8c9e7c730c)">
     <use style="fill:#c5df21;fill-opacity:0.65;stroke:#c5df21;stroke-opacity:0.65;" x="348.311698" xlink:href="#mf306501db2" y="241.924426"/>
    </g>
   </g>
   <g id="line2d_31">
    <path clip-path="url(#p8c9e7c730c)" d="M 418.988057 56.587774 
" style="fill:none;stroke:#c5df21;stroke-linecap:round;stroke-opacity:0.65;stroke-width:1.5;"/>
    <g clip-path="url(#p8c9e7c730c)">
     <use style="fill:#c5df21;fill-opacity:0.65;stroke:#c5df21;stroke-opacity:0.65;" x="418.988057" xlink:href="#mf306501db2" y="56.587774"/>
    </g>
   </g>
   <g id="line2d_32">
    <path clip-path="url(#p8c9e7c730c)" d="M 214.320967 229.430032 
" style="fill:none;stroke:#22898d;stroke-linecap:round;stroke-opacity:0.65;stroke-width:1.5;"/>
    <g clip-path="url(#p8c9e7c730c)">
     <use style="fill:#22898d;fill-opacity:0.65;stroke:#22898d;stroke-opacity:0.65;" x="214.320967" xlink:href="#mdebbaae55c" y="229.430032"/>
    </g>
   </g>
   <g id="line2d_33">
    <path clip-path="url(#p8c9e7c730c)" d="M 427.472652 56.587774 
" style="fill:none;stroke:#bade27;stroke-linecap:round;stroke-opacity:0.65;stroke-width:1.5;"/>
    <defs>
     <path d="M 0 3.75 
C 0.994512 3.75 1.948425 3.354876 2.65165 2.65165 
C 3.354876 1.948425 3.75 0.994512 3.75 0 
C 3.75 -0.994512 3.354876 -1.948425 2.65165 -2.65165 
C 1.948425 -3.354876 0.994512 -3.75 0 -3.75 
C -0.994512 -3.75 -1.948425 -3.354876 -2.65165 -2.65165 
C -3.354876 -1.948425 -3.75 -0.994512 -3.75 0 
C -3.75 0.994512 -3.354876 1.948425 -2.65165 2.65165 
C -1.948425 3.354876 -0.994512 3.75 0 3.75 
z
" id="m9b351d771a" style="stroke:#bade27;stroke-opacity:0.65;"/>
    </defs>
    <g clip-path="url(#p8c9e7c730c)">
     <use style="fill:#bade27;fill-opacity:0.65;stroke:#bade27;stroke-opacity:0.65;" x="427.472652" xlink:href="#m9b351d771a" y="56.587774"/>
    </g>
   </g>
   <g id="line2d_34">
    <path clip-path="url(#p8c9e7c730c)" d="M 213.181128 273.523098 
" style="fill:none;stroke:#bdde26;stroke-linecap:round;stroke-opacity:0.65;stroke-width:1.5;"/>
    <g clip-path="url(#p8c9e7c730c)">
     <use style="fill:#bdde26;fill-opacity:0.65;stroke:#bdde26;stroke-opacity:0.65;" x="213.181128" xlink:href="#m0b59961180" y="273.523098"/>
    </g>
   </g>
   <g id="line2d_35">
    <path clip-path="url(#p8c9e7c730c)" d="M 425.056334 56.587774 
" style="fill:none;stroke:#c7e01f;stroke-linecap:round;stroke-opacity:0.65;stroke-width:1.5;"/>
    <defs>
     <path d="M 0 3.75 
C 0.994512 3.75 1.948425 3.354876 2.65165 2.65165 
C 3.354876 1.948425 3.75 0.994512 3.75 0 
C 3.75 -0.994512 3.354876 -1.948425 2.65165 -2.65165 
C 1.948425 -3.354876 0.994512 -3.75 0 -3.75 
C -0.994512 -3.75 -1.948425 -3.354876 -2.65165 -2.65165 
C -3.354876 -1.948425 -3.75 -0.994512 -3.75 0 
C -3.75 0.994512 -3.354876 1.948425 -2.65165 2.65165 
C -1.948425 3.354876 -0.994512 3.75 0 3.75 
z
" id="m3235a7984c" style="stroke:#c7e01f;stroke-opacity:0.65;"/>
    </defs>
    <g clip-path="url(#p8c9e7c730c)">
     <use style="fill:#c7e01f;fill-opacity:0.65;stroke:#c7e01f;stroke-opacity:0.65;" x="425.056334" xlink:href="#m3235a7984c" y="56.587774"/>
    </g>
   </g>
   <g id="line2d_36">
    <path clip-path="url(#p8c9e7c730c)" d="M 354.107062 214.143121 
" style="fill:none;stroke:#77d052;stroke-linecap:round;stroke-opacity:0.65;stroke-width:1.5;"/>
    <defs>
     <path d="M 0 3.75 
C 0.994512 3.75 1.948425 3.354876 2.65165 2.65165 
C 3.354876 1.948425 3.75 0.994512 3.75 0 
C 3.75 -0.994512 3.354876 -1.948425 2.65165 -2.65165 
C 1.948425 -3.354876 0.994512 -3.75 0 -3.75 
C -0.994512 -3.75 -1.948425 -3.354876 -2.65165 -2.65165 
C -3.354876 -1.948425 -3.75 -0.994512 -3.75 0 
C -3.75 0.994512 -3.354876 1.948425 -2.65165 2.65165 
C -1.948425 3.354876 -0.994512 3.75 0 3.75 
z
" id="mc3c8392c05" style="stroke:#77d052;stroke-opacity:0.65;"/>
    </defs>
    <g clip-path="url(#p8c9e7c730c)">
     <use style="fill:#77d052;fill-opacity:0.65;stroke:#77d052;stroke-opacity:0.65;" x="354.107062" xlink:href="#mc3c8392c05" y="214.143121"/>
    </g>
   </g>
   <g id="line2d_37">
    <path clip-path="url(#p8c9e7c730c)" d="M 225.864729 229.430032 
" style="fill:none;stroke:#228a8d;stroke-linecap:round;stroke-opacity:0.65;stroke-width:1.5;"/>
    <defs>
     <path d="M 0 3.75 
C 0.994512 3.75 1.948425 3.354876 2.65165 2.65165 
C 3.354876 1.948425 3.75 0.994512 3.75 0 
C 3.75 -0.994512 3.354876 -1.948425 2.65165 -2.65165 
C 1.948425 -3.354876 0.994512 -3.75 0 -3.75 
C -0.994512 -3.75 -1.948425 -3.354876 -2.65165 -2.65165 
C -3.354876 -1.948425 -3.75 -0.994512 -3.75 0 
C -3.75 0.994512 -3.354876 1.948425 -2.65165 2.65165 
C -1.948425 3.354876 -0.994512 3.75 0 3.75 
z
" id="m141e435769" style="stroke:#228a8d;stroke-opacity:0.65;"/>
    </defs>
    <g clip-path="url(#p8c9e7c730c)">
     <use style="fill:#228a8d;fill-opacity:0.65;stroke:#228a8d;stroke-opacity:0.65;" x="225.864729" xlink:href="#m141e435769" y="229.430032"/>
    </g>
   </g>
   <g id="line2d_38">
    <path clip-path="url(#p8c9e7c730c)" d="M 422.668694 56.587774 
" style="fill:none;stroke:#c7e01f;stroke-linecap:round;stroke-opacity:0.65;stroke-width:1.5;"/>
    <g clip-path="url(#p8c9e7c730c)">
     <use style="fill:#c7e01f;fill-opacity:0.65;stroke:#c7e01f;stroke-opacity:0.65;" x="422.668694" xlink:href="#m3235a7984c" y="56.587774"/>
    </g>
   </g>
   <g id="line2d_39">
    <path clip-path="url(#p8c9e7c730c)" d="M 415.887574 56.587774 
" style="fill:none;stroke:#d2e11b;stroke-linecap:round;stroke-opacity:0.65;stroke-width:1.5;"/>
    <defs>
     <path d="M 0 3.75 
C 0.994512 3.75 1.948425 3.354876 2.65165 2.65165 
C 3.354876 1.948425 3.75 0.994512 3.75 0 
C 3.75 -0.994512 3.354876 -1.948425 2.65165 -2.65165 
C 1.948425 -3.354876 0.994512 -3.75 0 -3.75 
C -0.994512 -3.75 -1.948425 -3.354876 -2.65165 -2.65165 
C -3.354876 -1.948425 -3.75 -0.994512 -3.75 0 
C -3.75 0.994512 -3.354876 1.948425 -2.65165 2.65165 
C -1.948425 3.354876 -0.994512 3.75 0 3.75 
z
" id="mb87ec2c904" style="stroke:#d2e11b;stroke-opacity:0.65;"/>
    </defs>
    <g clip-path="url(#p8c9e7c730c)">
     <use style="fill:#d2e11b;fill-opacity:0.65;stroke:#d2e11b;stroke-opacity:0.65;" x="415.887574" xlink:href="#mb87ec2c904" y="56.587774"/>
    </g>
   </g>
   <g id="line2d_40">
    <path clip-path="url(#p8c9e7c730c)" d="M 293.136751 273.397935 
" style="fill:none;stroke:#d4e11a;stroke-linecap:round;stroke-opacity:0.65;stroke-width:1.5;"/>
    <defs>
     <path d="M 0 3.75 
C 0.994512 3.75 1.948425 3.354876 2.65165 2.65165 
C 3.354876 1.948425 3.75 0.994512 3.75 0 
C 3.75 -0.994512 3.354876 -1.948425 2.65165 -2.65165 
C 1.948425 -3.354876 0.994512 -3.75 0 -3.75 
C -0.994512 -3.75 -1.948425 -3.354876 -2.65165 -2.65165 
C -3.354876 -1.948425 -3.75 -0.994512 -3.75 0 
C -3.75 0.994512 -3.354876 1.948425 -2.65165 2.65165 
C -1.948425 3.354876 -0.994512 3.75 0 3.75 
z
" id="mf976c8d88f" style="stroke:#d4e11a;stroke-opacity:0.65;"/>
    </defs>
    <g clip-path="url(#p8c9e7c730c)">
     <use style="fill:#d4e11a;fill-opacity:0.65;stroke:#d4e11a;stroke-opacity:0.65;" x="293.136751" xlink:href="#mf976c8d88f" y="273.397935"/>
    </g>
   </g>
   <g id="line2d_41">
    <path clip-path="url(#p8c9e7c730c)" d="M 214.228409 229.430032 
" style="fill:none;stroke:#22898d;stroke-linecap:round;stroke-opacity:0.65;stroke-width:1.5;"/>
    <g clip-path="url(#p8c9e7c730c)">
     <use style="fill:#22898d;fill-opacity:0.65;stroke:#22898d;stroke-opacity:0.65;" x="214.228409" xlink:href="#mdebbaae55c" y="229.430032"/>
    </g>
   </g>
   <g id="line2d_42">
    <path clip-path="url(#p8c9e7c730c)" d="M 288.979757 273.397935 
" style="fill:none;stroke:#5bc862;stroke-linecap:round;stroke-opacity:0.65;stroke-width:1.5;"/>
    <defs>
     <path d="M 0 3.75 
C 0.994512 3.75 1.948425 3.354876 2.65165 2.65165 
C 3.354876 1.948425 3.75 0.994512 3.75 0 
C 3.75 -0.994512 3.354876 -1.948425 2.65165 -2.65165 
C 1.948425 -3.354876 0.994512 -3.75 0 -3.75 
C -0.994512 -3.75 -1.948425 -3.354876 -2.65165 -2.65165 
C -3.354876 -1.948425 -3.75 -0.994512 -3.75 0 
C -3.75 0.994512 -3.354876 1.948425 -2.65165 2.65165 
C -1.948425 3.354876 -0.994512 3.75 0 3.75 
z
" id="m6e22a44472" style="stroke:#5bc862;stroke-opacity:0.65;"/>
    </defs>
    <g clip-path="url(#p8c9e7c730c)">
     <use style="fill:#5bc862;fill-opacity:0.65;stroke:#5bc862;stroke-opacity:0.65;" x="288.979757" xlink:href="#m6e22a44472" y="273.397935"/>
    </g>
   </g>
   <g id="line2d_43">
    <path clip-path="url(#p8c9e7c730c)" d="M 428.44488 56.587774 
" style="fill:none;stroke:#95d73f;stroke-linecap:round;stroke-opacity:0.65;stroke-width:1.5;"/>
    <defs>
     <path d="M 0 3.75 
C 0.994512 3.75 1.948425 3.354876 2.65165 2.65165 
C 3.354876 1.948425 3.75 0.994512 3.75 0 
C 3.75 -0.994512 3.354876 -1.948425 2.65165 -2.65165 
C 1.948425 -3.354876 0.994512 -3.75 0 -3.75 
C -0.994512 -3.75 -1.948425 -3.354876 -2.65165 -2.65165 
C -3.354876 -1.948425 -3.75 -0.994512 -3.75 0 
C -3.75 0.994512 -3.354876 1.948425 -2.65165 2.65165 
C -1.948425 3.354876 -0.994512 3.75 0 3.75 
z
" id="m664de3cb28" style="stroke:#95d73f;stroke-opacity:0.65;"/>
    </defs>
    <g clip-path="url(#p8c9e7c730c)">
     <use style="fill:#95d73f;fill-opacity:0.65;stroke:#95d73f;stroke-opacity:0.65;" x="428.44488" xlink:href="#m664de3cb28" y="56.587774"/>
    </g>
   </g>
   <g id="line2d_44">
    <path clip-path="url(#p8c9e7c730c)" d="M 417.555629 56.587774 
" style="fill:none;stroke:#95d73f;stroke-linecap:round;stroke-opacity:0.65;stroke-width:1.5;"/>
    <g clip-path="url(#p8c9e7c730c)">
     <use style="fill:#95d73f;fill-opacity:0.65;stroke:#95d73f;stroke-opacity:0.65;" x="417.555629" xlink:href="#m664de3cb28" y="56.587774"/>
    </g>
   </g>
   <g id="line2d_45">
    <path clip-path="url(#p8c9e7c730c)" d="M 286.602417 273.397935 
" style="fill:none;stroke:#afdc2e;stroke-linecap:round;stroke-opacity:0.65;stroke-width:1.5;"/>
    <defs>
     <path d="M 0 3.75 
C 0.994512 3.75 1.948425 3.354876 2.65165 2.65165 
C 3.354876 1.948425 3.75 0.994512 3.75 0 
C 3.75 -0.994512 3.354876 -1.948425 2.65165 -2.65165 
C 1.948425 -3.354876 0.994512 -3.75 0 -3.75 
C -0.994512 -3.75 -1.948425 -3.354876 -2.65165 -2.65165 
C -3.354876 -1.948425 -3.75 -0.994512 -3.75 0 
C -3.75 0.994512 -3.354876 1.948425 -2.65165 2.65165 
C -1.948425 3.354876 -0.994512 3.75 0 3.75 
z
" id="mcaa06a535b" style="stroke:#afdc2e;stroke-opacity:0.65;"/>
    </defs>
    <g clip-path="url(#p8c9e7c730c)">
     <use style="fill:#afdc2e;fill-opacity:0.65;stroke:#afdc2e;stroke-opacity:0.65;" x="286.602417" xlink:href="#mcaa06a535b" y="273.397935"/>
    </g>
   </g>
   <g id="line2d_46"/>
   <g id="line2d_47"/>
   <g id="line2d_48"/>
   <g id="line2d_49"/>
   <g id="patch_3">
    <path d="M 71.771875 280.042969 
L 71.771875 39.232031 
" style="fill:none;stroke:#262626;stroke-linecap:square;stroke-linejoin:miter;stroke-width:0.8;"/>
   </g>
   <g id="patch_4">
    <path d="M 71.771875 280.042969 
L 435.438469 280.042969 
" style="fill:none;stroke:#262626;stroke-linecap:square;stroke-linejoin:miter;stroke-width:0.8;"/>
   </g>
   <g id="text_17">
    <text style="fill:#262626;font-family:Lato;font-size:15px;font-style:normal;font-weight:bold;text-anchor:middle;" transform="rotate(-0, 253.605172, 33.232031)" x="253.605172" y="33.232031">inferred AA lb index vs aa-cdist (31 observed, 31 total)</text>
   </g>
   <g id="legend_1">
    <g id="patch_5">
     <path d="M 92.355205 147.596953 
L 165.92083 147.596953 
Q 168.32083 147.596953 168.32083 145.196953 
L 168.32083 54.485078 
Q 168.32083 52.085078 165.92083 52.085078 
L 92.355205 52.085078 
Q 89.955205 52.085078 89.955205 54.485078 
L 89.955205 145.196953 
Q 89.955205 147.596953 92.355205 147.596953 
z
" style="fill:#ffffff;opacity:0.8;stroke:#cccccc;stroke-linejoin:miter;"/>
    </g>
    <g id="text_18">
     <text style="fill:#262626;font-family:Lato;font-size:20px;font-style:normal;font-weight:600;text-anchor:start;" transform="rotate(-0, 97.17708, 71.744453)" x="97.17708" y="71.744453">affinity</text>
    </g>
    <g id="line2d_50">
     <path d="M 94.755205 85.810078 
L 118.755205 85.810078 
" style="fill:none;"/>
    </g>
    <g id="line2d_51">
     <g>
      <use style="fill:#443982;fill-opacity:0.65;stroke:#443982;stroke-opacity:0.65;" x="106.755205" xlink:href="#m1381826b7b" y="85.810078"/>
     </g>
    </g>
    <g id="text_19">
     <text style="fill:#262626;font-family:Lato;font-size:12px;font-style:normal;font-weight:600;text-anchor:start;" transform="rotate(-0, 128.355205, 90.010078)" x="128.355205" y="90.010078">-6.448</text>
    </g>
    <g id="line2d_52">
     <path d="M 94.755205 102.735703 
L 118.755205 102.735703 
" style="fill:none;"/>
    </g>
    <g id="line2d_53">
     <defs>
      <path d="M 0 3.75 
C 0.994512 3.75 1.948425 3.354876 2.65165 2.65165 
C 3.354876 1.948425 3.75 0.994512 3.75 0 
C 3.75 -0.994512 3.354876 -1.948425 2.65165 -2.65165 
C 1.948425 -3.354876 0.994512 -3.75 0 -3.75 
C -0.994512 -3.75 -1.948425 -3.354876 -2.65165 -2.65165 
C -3.354876 -1.948425 -3.75 -0.994512 -3.75 0 
C -3.75 0.994512 -3.354876 1.948425 -2.65165 2.65165 
C -1.948425 3.354876 -0.994512 3.75 0 3.75 
z
" id="mad5f8f8f96" style="stroke:#25828e;stroke-opacity:0.65;"/>
     </defs>
     <g>
      <use style="fill:#25828e;fill-opacity:0.65;stroke:#25828e;stroke-opacity:0.65;" x="106.755205" xlink:href="#mad5f8f8f96" y="102.735703"/>
     </g>
    </g>
    <g id="text_20">
     <text style="fill:#262626;font-family:Lato;font-size:12px;font-style:normal;font-weight:600;text-anchor:start;" transform="rotate(-0, 128.355205, 106.935703)" x="128.355205" y="106.935703">-3.602</text>
    </g>
    <g id="line2d_54">
     <path d="M 94.755205 119.661328 
L 118.755205 119.661328 
" style="fill:none;"/>
    </g>
    <g id="line2d_55">
     <defs>
      <path d="M 0 3.75 
C 0.994512 3.75 1.948425 3.354876 2.65165 2.65165 
C 3.354876 1.948425 3.75 0.994512 3.75 0 
C 3.75 -0.994512 3.354876 -1.948425 2.65165 -2.65165 
C 1.948425 -3.354876 0.994512 -3.75 0 -3.75 
C -0.994512 -3.75 -1.948425 -3.354876 -2.65165 -2.65165 
C -3.354876 -1.948425 -3.75 -0.994512 -3.75 0 
C -3.75 0.994512 -3.354876 1.948425 -2.65165 2.65165 
C -1.948425 3.354876 -0.994512 3.75 0 3.75 
z
" id="m35f3421072" style="stroke:#4dc26b;stroke-opacity:0.65;"/>
     </defs>
     <g>
      <use style="fill:#4dc26b;fill-opacity:0.65;stroke:#4dc26b;stroke-opacity:0.65;" x="106.755205" xlink:href="#m35f3421072" y="119.661328"/>
     </g>
    </g>
    <g id="text_21">
     <text style="fill:#262626;font-family:Lato;font-size:12px;font-style:normal;font-weight:600;text-anchor:start;" transform="rotate(-0, 128.355205, 123.861328)" x="128.355205" y="123.861328">-0.757</text>
    </g>
    <g id="line2d_56">
     <path d="M 94.755205 136.586953 
L 118.755205 136.586953 
" style="fill:none;"/>
    </g>
    <g id="line2d_57">
     <g>
      <use style="fill:#fde724;fill-opacity:0.65;stroke:#fde724;stroke-opacity:0.65;" x="106.755205" xlink:href="#m538f20cb80" y="136.586953"/>
     </g>
    </g>
    <g id="text_22">
     <text style="fill:#262626;font-family:Lato;font-size:12px;font-style:normal;font-weight:600;text-anchor:start;" transform="rotate(-0, 128.355205, 140.786953)" x="128.355205" y="140.786953">2.089</text>
    </g>
   </g>
  </g>
  <g id="text_23">
   <text style="fill:#262626;font-family:Lato;font-size:20px;font-style:normal;font-weight:bold;text-anchor:start;" transform="rotate(-0, 92.16, 58.752)" x="92.16" y="58.752">r = 0.745</text>
  </g>
 </g>
 <defs>
  <clipPath id="p8c9e7c730c">
   <rect height="240.810937" width="363.666594" x="71.771875" y="39.232031"/>
  </clipPath>
 </defs>
</svg>
